<?xml version="1.0" encoding="utf-8"?>
<svg version="1.1" xmlns:xlink="http://www.w3.org/1999/xlink" width="900px" height="900px" xmlns="http://www.w3.org/2000/svg">
  <g transform="matrix(1 0 0 1 -531 -91 )">
    <path d="M 981 91  C 1233 91  1431 289  1431 541  C 1431 793  1233 991  981 991  C 729 991  531 793  531 541  C 531 289  729 91  981 91  Z " fill-rule="nonzero" fill="#ffffff" stroke="none" fill-opacity="0" />
    <path d="M 981 91.4999201724276  C 1232.72004470344 91.4999201724276  1430.50007982757 289.279955296559  1430.50007982757 541  C 1430.50007982757 792.720044703441  1232.72004470344 990.500079827572  981 990.500079827572  C 729.279955296559 990.500079827572  531.499920172428 792.720044703441  531.499920172428 541  C 531.499920172428 289.279955296559  729.279955296559 91.4999201724276  981 91.4999201724276  Z " stroke-width="0.999840344855113" stroke="#ffffff" fill="none" />
  </g>
</svg>