<?xml version="1.0" encoding="utf-8"?>
<svg version="1.1" xmlns:xlink="http://www.w3.org/1999/xlink" width="550px" height="550px" xmlns="http://www.w3.org/2000/svg">
  <g transform="matrix(1 0 0 1 -21 -21 )">
    <path d="M 296 21.9996806897102  C 449.440178813762 21.9996806897102  570.00031931029 142.559821186238  570.00031931029 296  C 570.00031931029 449.440178813762  449.440178813762 570.00031931029  296 570.00031931029  C 142.559821186238 570.00031931029  21.9996806897102 449.440178813762  21.9996806897102 296  C 21.9996806897102 142.559821186238  142.559821186238 21.9996806897102  296 21.9996806897102  Z " fill-rule="nonzero" fill="#ffffff" stroke="none" fill-opacity="0" />
    <path d="M 296 21.9998403448551  C 449.440089406881 21.9998403448551  570.000159655145 142.559910593119  570.000159655145 296  C 570.000159655145 449.440089406881  449.440089406881 570.000159655145  296 570.000159655145  C 142.559910593119 570.000159655145  21.9998403448551 449.440089406881  21.9998403448551 296  C 21.9998403448551 142.559910593119  142.559910593119 21.9998403448551  296 21.9998403448551  Z " stroke-width="1.99968068971023" stroke="#ffffff" fill="none" />
  </g>
</svg>