<?xml version="1.0" encoding="utf-8"?>
<svg version="1.1" xmlns:xlink="http://www.w3.org/1999/xlink" width="164px" height="44px" xmlns="http://www.w3.org/2000/svg">
  <g transform="matrix(1 0 0 1 -1051 -878 )">
    <path d="M 1052 882  A 3 3 0 0 1 1055 879 L 1211 879  A 3 3 0 0 1 1214 882 L 1214 918  A 3 3 0 0 1 1211 921 L 1055 921  A 3 3 0 0 1 1052 918 L 1052 882  Z " fill-rule="nonzero" fill="#ffffff" stroke="none" fill-opacity="0" />
    <path d="M 1051.5 882  A 3.5 3.5 0 0 1 1055 878.5 L 1211 878.5  A 3.5 3.5 0 0 1 1214.5 882 L 1214.5 918  A 3.5 3.5 0 0 1 1211 921.5 L 1055 921.5  A 3.5 3.5 0 0 1 1051.5 918 L 1051.5 882  Z " stroke-width="1" stroke="#ffffff" fill="none" stroke-opacity="0.2" />
  </g>
</svg>