<?xml version="1.0" encoding="utf-8"?>
<svg version="1.1" xmlns:xlink="http://www.w3.org/1999/xlink" width="20px" height="20px" xmlns="http://www.w3.org/2000/svg">
  <g transform="matrix(1 0 0 1 -1061 -865 )">
    <path d="M 13.2100130148619 0.0135881993792282  C 9.91228171458283 0.0135881993792282  7.23894227843948 2.68692759568694  7.23894222929948 5.98465889596582  C 7.23894222929948 9.10000016985123  12.2077908280255 14.4371352441613  12.7753142462846 15.0408835456478  L 13.2100130148619 15.505769745223  L 13.650749299363 15.0408835456478  C 14.2182727176221 14.4371352441613  19.1810838216561 9.10603766454369  19.1810838004246 5.98465889596582  C 19.1810838004246 2.68692756093969  16.5077443498883 0.0135881993792282  13.2100130148619 0.0135881993792282  Z M 17.9735871974524 5.99069639065829  C 17.9735871974524 8.02532819532917  14.858245923567 11.9013923566881  13.2100130148619 13.736787197452  C 11.5617801273886 11.9255422717624  8.4464388535032 8.02532817409792  8.4464388535032 5.99069639065829  C 8.44976519033389 3.36122606950266  10.5805426937213 1.23044855661828  13.2100130148619 1.22712220806807  C 15.8394833442942 1.230448544924  17.9702608605965 3.36122606122581  17.9735871974524 5.99069639065829  Z M 2.04670677282365 7.58459191082784  L 1.22560906581748 12.0523294055201  L 9.50299840764319 13.0907764968151  C 8.11437730360944 11.3217939490446  6.64726889596614 9.07585023354568  6.1823826963905 7.21528662420405  L 2.55989284501061 7.21528662420405  C 2.30541986555841 7.14945767486188  2.08813230152236 7.33351301391485  2.04670677282365 7.58459191082784  Z M 19.0290945458373 18.8084351891202  C 19.0290945458373 18.7841456936376  19.0274288755168 18.7598847878348  19.0241092569001 18.7358232059451  L 18.4203609341828 15.4514323991507  L 15.2869072186838 15.0348460721871  C 14.9850330573249 15.3729451167728  14.7193838004248 15.6385943736732  14.5201468577495 15.8740562208068  L 14.0854480679407 16.3329049256899  L 13.2100130148619 17.2626773248408  L 12.3285404883227 16.3208299575372  L 11.8878042250533 15.861981252654  C 11.5859300636944 15.5419946496813  11.1331188322717 15.0469210403398  10.6078578131635 14.4371352441613  L 5.95295834394915 13.8333869214439  L 7.48044157112531 19  L 18.5109231847134 19  C 18.7991492615654 19.3324479355988  19.0290945458373 19.0967492828668  19.0290945458373 18.8084351891202  Z M 0.531298513800266 19.3222929936305  L 6.23672004246282 19.3222929936305  L 4.68508687898088 13.8092369851379  C 4.67808156807428 13.7734055765222  4.67404289388787 13.7370575159443  4.67301191082811 13.7005622929937  L 1.00825968152867 13.2417135881105  L 0.00603747346076489 18.7358232059451  C 0.00273262144514774 18.7598320356615  0.0010743865736913 18.7840388586442  0.0010743865736913 18.8082740799387  C 0.0010743865736913 19.1012826601836  0.238290532649216 19.3389789883922  0.531298513800266 19.3222929936305  Z M 18.1969740552017 14.1835609554141  L 17.9615122292994 12.9036145222931  L 17.7803877282379 11.91950477707  C 17.2672016560509 12.6500402335455  16.7298656687897 13.3322758174099  16.2287545647557 13.9360241401273  L 18.1969740552017 14.1835609554141  Z M 15.6250062845011 5.8759841825904  C 15.6250062845011 4.54222024055071  14.5437769781333 3.46099093418252  13.2100130360934 3.46099093418252  C 11.8762490940535 3.46099093418252  10.795019787686 4.54222024055071  10.795019787686 5.8759841825904  C 10.7950197994116 7.20974810804728  11.8762490894048 8.29097741927217  13.2100130148619 8.29097743099783  C 14.5437769569019 8.29097743099783  15.6250062845011 7.2097481246301  15.6250062845011 5.8759841825904  Z M 14.4175096602974 5.87598420382164  C 14.4175096602974 6.54286617484195  13.8768950071133 7.08348082802559  13.2100130360934 7.08348082802559  C 12.5431310650736 7.08348082802559  12.0025164118895 6.54286617484195  12.0025164118895 5.87598420382164  C 12.0025164118895 5.20910224109321  12.5431310521335 4.66848759134382  13.2100130148619 4.6684875796177  C 13.876894985882 4.6684875796177  14.4175096602974 5.2091022328018  14.4175096602974 5.87598420382164  Z " fill-rule="nonzero" fill="#ffffff" stroke="none" transform="matrix(1 0 0 1 1061 865 )" />
  </g>
</svg>