<?xml version="1.0" encoding="utf-8"?>
<svg version="1.1" xmlns:xlink="http://www.w3.org/1999/xlink" width="20px" height="20px" xmlns="http://www.w3.org/2000/svg">
  <g transform="matrix(1 0 0 1 -1243 -865 )">
    <path d="M 1.31381100171234 9.37732769691775  C 1.43742508143259 7.58130566678801  2.11682059656096 5.86824865230847  3.25778574486299 4.47570633561645  C 4.05386637165384 4.92656748652598  4.8927739318201 5.29721651549107  5.76214683219177 5.58219178082163  C 5.34605992253228 6.80723872195267  5.10499003833843 8.08488929224222  5.04607234589048 9.37732769691775  L 1.31381100171234 9.37732769691775  Z M 4.15814961472597 3.54296875  C 5.237232326195 2.56431161450973  6.54507823122185 1.87270356296722  7.96139233732879 1.53175834760259  C 7.26522606300136 2.42042503645462  6.67996768429884 3.39062961158834  6.21856271404113 4.42091181506839  C 5.50705618853135 4.1900134497987  4.81752786980701 3.89620508399366  4.15814961472597 3.54296875  Z M 15.8412082619864 3.54294199486321  C 15.1819442043807 3.89640421520926  14.4924050314801 4.19022997529873  13.7808219178082 4.42091181506839  C 13.3194169475505 3.39062961158834  12.734158568848 2.42042503645507  12.0379922945206 1.53175834760259  C 13.4794520547944 1.87796982020564  14.7777183219177 2.5803189212329  15.8412350171234 3.54294199486321  Z M 16.7415988869861 4.47570633561645  C 17.8827761041155 5.86817542853987  18.5623800466628 7.58123928498617  18.6861622431506 9.37732769691775  L 14.955158390411 9.37732769691775  C 14.89614192249 8.08479523682399  14.6546495508469 6.80710152401434  14.2378531678082 5.58219178082163  C 15.1072260681799 5.29721651549107  15.9461336283462 4.92656748652598  16.742214255137 4.47570633561645  Z M 18.685546875 10.6226723030823  C 18.5620628733814 12.4187190968701  17.8826625922861 14.1318117059441  16.7415988869861 15.5242936643835  C 15.9455182601955 15.073432513474  15.106610700029 14.7027834845089  14.2372377996576 14.4178082191784  C 14.6541472008785 13.1929282283868  14.8956426351101 11.9152183119581  14.9545430222604 10.6226723030823  L 18.685546875 10.6226723030823  Z M 13.7808219178082 15.5784460616442  C 14.498127140411 15.8107074058221  15.1868043664383 16.1058433219177  15.841850385274 16.4564158818494  C 14.7626671654155 17.4352636095496  13.4545698234879 18.1268835176384  12.0379922945206 18.4675995291095  C 12.7345065424345 17.5790569068795  13.3199825407523 16.6088341473633  13.7814372859589 15.5784460616442  Z M 7.44210188356169 15.2552975171234  C 8.07949290400256 15.1192921652737  8.72653806034873 15.033306930135  9.37732769691775 14.9981271404108  L 9.37732769691775 18.2173052226026  C 8.5956981071904 17.3262467771515  7.94415761049868 16.3290153645098  7.44210188356169 15.2552975171234  Z M 6.2907748287671 10.6226723030823  L 9.37732769691775 10.6226723030823  L 9.37732769691775 13.7546821489727  C 8.56589972958045 13.7930320519004  7.75948969196133 13.9034663094258  6.96762628424676 14.0846800085615  C 6.57820754674981 12.9688220000085  6.35028548217565 11.803030100742  6.2907748287671 10.6226723030823  Z M 9.37732769691775 5.00125749143854  C 8.72645229641762 4.96700018060801  8.07933477119104 4.88100532843509  7.44210188356169 4.74408711472643  C 7.94426736839068 3.67043038507654  8.59579816464407 2.67321381968077  9.37732769691775 1.78207940924631  L 9.37732769691775 5.00125749143854  Z M 9.37732769691775 6.24470248287662  L 9.37732769691775 9.37732769691775  L 6.29139019691775 9.37732769691775  C 6.35367615582209 8.16936001712338  6.58468000856169 7.00810680650693  6.96701091609589 5.91531999143854  C 7.74719071061645 6.09463291952034  8.55230629280823 6.20673694349307  9.37732769691775 6.24531785102727  Z M 12.5572827482877 4.74408711472643  C 11.9284032534247 4.87858518835628  11.2826680222604 4.96701091609611  10.6226723030823 5.00125749143854  L 10.6226723030823 1.78207940924631  C 11.4042185219978 2.67307525726665  12.0555635504347 3.67032459908478  12.5572827482877 4.74408711472643  Z M 10.6226723030823 9.37732769691775  L 10.6226723030823 6.24531785102727  C 11.434146634135 6.20706864569411  12.2405837247279 6.09642474264137  13.0323737157532 5.91470462328789  C 13.4212691359801 7.0306771812443  13.6489661932355 8.19642413149495  13.7085830479452 9.3767123287671  L 10.6226455479452 9.3767123287671  Z M 10.6226723030823 14.9987425085615  C 11.2826947773972 15.0336312071918  11.9284032534247 15.1214148116437  12.5572827482877 15.2552975171234  C 12.0557243366864 16.329337409562  11.4043676534998 17.3268117814978  10.6226723030823 18.2179205907537  L 10.6226723030823 14.9987425085615  Z M 13.0323737157532 14.0846800085615  C 12.2405096983723 13.9034696496788  11.4340999596157 13.7930354330815  10.6226723030823 13.7546821489727  L 10.6226723030823 10.6226723030823  L 13.7086098030823 10.6226723030823  C 13.6489843205877 11.8029618027099  13.4212782474506 12.9687087874636  13.0323737157532 14.0846800085615  Z M 4.15814961472597 16.45703125  C 4.81757945173058 16.1032837477524  5.50733912197575 15.809249657797  6.21917808219177 15.5784460616442  C 6.68042396761666 16.6089574531611  7.26592435277598 17.5792147208522  7.9626498287671 18.4676262842468  C 6.54587012253728 18.1269269754976  5.23755865887756 17.4353014065  4.15814961472597 16.4564158818494  Z M 3.25778574486299 15.5242936643835  C 2.11671240006012 14.131815034893  1.43730264479564 12.4187221147231  1.31381100171234 10.6226723030823  L 5.04548373287662 10.6226723030823  C 5.10774293664372 11.9452054794519  5.35308754280823 13.2185627140411  5.76217358732879 14.4178082191784  C 4.89280068695712 14.7027834845089  4.05389312679085 15.073432513474  3.2578125 15.5242936643835  Z M 17.798828125 16.1886772260273  L 17.7982662671234 16.1892925941779  C 19.2007776626431 14.4313625584118  19.9639958680757 12.2488562456037  19.9626498287671 10  C 19.9626498287671 7.2036065924658  18.8069616866439 4.68057041952034  16.9520547945206 2.87047838184935  C 15.0949954125301 1.05234701367044  12.5988971128043 0.0351370038256391  10 0.0373769263696886  C 7.40110288719575 0.0351370038256391  4.90500458746988 1.05234701367044  3.04794520547944 2.87047838184935  C 2.74595997431516 3.16564105308225  2.46449593321927 3.48006742294547  2.20114511986321 3.81070740582209  C 0.798703213373528 5.56863906185936  0.0356689202610596 7.7511860301438  0.0373234160958873 10  C 0.0373234160958873 15.5018728595892  4.49748501712338 19.9626498287671  9.99997324486299 19.9626498287671  C 12.5987519362225 19.9645499326239  15.0946129663259 18.9471064204467  16.9514126712329 17.1288794948632  C 17.2538472709011 16.8336573024826  17.5366792971186 16.5196288590919  17.798828125 16.1886772260273  Z " fill-rule="nonzero" fill="#ffffff" stroke="none" transform="matrix(1 0 0 1 1243 865 )" />
  </g>
</svg>