<?xml version="1.0" encoding="utf-8"?>
<svg version="1.1" xmlns:xlink="http://www.w3.org/1999/xlink" width="20px" height="20px" xmlns="http://www.w3.org/2000/svg">
  <g transform="matrix(1 0 0 1 -1061 -930 )">
    <path d="M 7.27272726562501 14.545454550781  L 7.27272726562501 18  L 18 18  L 18 6.8181818164062  L 15 6.8181818164062  L 15 11.0640909179688  C 16.0888918008363 11.4497916896435  16.8166722982353 12.4796699565095  16.8166722982353 13.6348541146417  C 16.8166722982353 15.1410852544664  15.5956307036849 16.3621268490165  14.0893995638603 16.3621268490165  C 12.9342154057285 16.3621268490165  11.9043371388625 15.6343463516178  11.5186363671876 14.545454550781  L 7.27272726562501 14.545454550781  Z M 1.8181818164062 18.1818181835938  L 5.45454544921881 18.1818181835938  L 5.45454544921881 14.545454550781  L 1.8181818164062 14.545454550781  L 1.8181818164062 18.1818181835938  Z M 2 12.7272727343748  L 5.45454544921881 12.7272727343748  L 5.45454544921881 9.09090908203098  L 3.63636363281262 9.09090908203098  L 3.63636363281262 7.27272726562524  L 7.80545455078118 7.27272726562524  L 10.0781818164064 5  L 13.1818181835938 5  L 13.1818181835938 1.8181818164062  L 15 1.8181818164062  L 15 5  L 18.1818181835938 5  L 18.1818181835938 2  L 2 2  L 2 12.7272727343748  Z M 7.27272726562501 9.09090908203098  L 7.27272726562501 12.7272727343748  L 11.5186363671876 12.7272727343748  C 11.794156944002 11.9506272202771  12.4051726694956 11.3396114947832  13.1818181835938 11.0640909179688  L 13.1818181835938 6.8181818164062  L 10.8309090820312 6.8181818164062  L 8.5581818164062 9.09090908203098  L 7.27272726562501 9.09090908203098  Z M 0 20  L 0 0  L 20 0  L 20 20  L 0 20  Z M 13.1819514145118 13.6363636425781  C 13.1819514145118 14.1383886560343  13.5888840739681 14.5453809662176  14.0909090820312 14.545454550781  C 14.5931193826841 14.5454545605471  15.0001332504492 14.1384406927818  15.0001332504492 13.6363636425781  C 15.0001332504492 13.1342865923743  14.5931193826841 12.7272727246095  14.0910423324804 12.7272727246095  C 13.5888840739681 12.7273463189385  13.1819514145118 13.1343386291219  13.1819514145118 13.6363636425781  Z " fill-rule="nonzero" fill="#ffffff" stroke="none" transform="matrix(1 0 0 1 1061 930 )" />
  </g>
</svg>