<?xml version="1.0" encoding="utf-8"?>
<svg version="1.1" xmlns:xlink="http://www.w3.org/1999/xlink" width="17px" height="17px" xmlns="http://www.w3.org/2000/svg">
  <g transform="matrix(1 0 0 1 -1243 -933 )">
    <path d="M 0 17  L 0 0  L 9.34999999999991 0  L 9.34999999999991 17  L 0 17  Z M 8 15.3178609913793  L 8 1.62214439655145  L 2 1.62214439655145  L 2 15.3178609913793  L 8 15.3178609913793  Z M 16.9441271551725 10.0259698275863  L 16.9441271551725 15.459832974138  L 11.741540948276 15.459832974138  L 11.741540948276 10.0259698275863  L 16.9441271551725 10.0259698275863  Z M 15.2069274902344 4.20526098808114  L 15.2069274902344 5.21865748355276  L 13.6332377115887 5.21865748355276  L 13.6332377116742 4.20528645833338  L 11.9218441611843 4.20528645833338  L 11.9218441611843 2.65580729166686  L 13.6332377115887 2.65580808296409  L 13.6332377115887 0.849999999999909  L 15.2069274902344 0.849999999999909  L 15.2069274769849 2.65580729166686  L 16.1224763569078 2.65580729166686  L 16.1224763569078 4.20528645833338  L 15.2069274902344 4.20526098808114  Z M 4.31699422200518 11.8500205592104  L 4.31699422200518 10.3869860197369  L 5.90642089843755 10.3869860197369  L 5.90642089843755 11.8500205592104  L 4.31699422200518 11.8500205592104  Z M 4.31699422200518 5.46173930921032  L 4.31699422200518 3.99870476973683  L 5.90642089843755 3.99870476973683  L 5.90642089843755 5.46173930921032  L 4.31699422200518 5.46173930921032  Z M 4.31699422200518 8.66269531250009  L 4.31699422200518 7.19966077302615  L 5.90642089843755 7.19966077302615  L 5.90642089843755 8.66269531250009  L 4.31699422200518 8.66269531250009  Z " fill-rule="nonzero" fill="#ffffff" stroke="none" transform="matrix(1 0 0 1 1243 933 )" />
  </g>
</svg>