<?xml version="1.0" encoding="utf-8"?>
<svg version="1.1" xmlns:xlink="http://www.w3.org/1999/xlink" width="24px" height="20px" xmlns="http://www.w3.org/2000/svg">
  <g transform="matrix(1 0 0 1 -131 -578 )">
    <path d="M 12.3054545454546 13.7516883116887  L 19.5428571428572 9.68415584415561  L 21.6623376623378 8.49380336136528  L 21.6623376623378 17.8722077922102  C 21.7932467532468 18.2150649350651  22.0737662337664 18.4955844155847  22.4166233766233 18.4955844155847  C 22.7594805194806 18.4955844155847  23.0399999999998 18.2150649350651  23 17.8722077922102  L 23 7.71740259740182  L 23.6727272727272 7.36207792207824  C 24.1028571428571 7.11896103896197  24.0966233766235 6.50181818181773  23.6633766233767 6.26805194805365  L 12.2961038961038 0.165194805195824  C 12.1122077922076 0.0654545454544859  11.8909090909092 0.0654545454544859  11.7070129870131 0.165194805195824  L 0.336623376623265 6.26805194805365  C -0.0966233766234836 6.50181818181773  -0.102857142857147 7.11896103896197  0.327272727272771 7.36207792207824  L 4.4571428571428 9.68415584415561  L 11.6945454545454 13.7516883116887  C 11.8846753246752 13.857662337663  12.1153246753248 13.857662337663  12.3054545454546 13.7516883116887  Z M 19.4805194805195 15.6093506493517  L 19.4805194805195 11.1148051948048  L 12.6109090909092 15.0109090909091  C 12.4238961038963 15.1168831168834  12.211948051948 15.1698701298719  12 15.1698701298719  C 11.788051948052 15.1698701298719  11.5761038961037 15.1168831168834  11.3890909090908 15.0109090909091  L 4.51948051948045 11.1148051948048  L 4.51948051948045 15.6031168831187  C 4.4571428571428 15.8431168831185  4.59740259740261 16.0644155844166  4.81246753246739 16.1672727272744  L 11.8192207792207 19.4867532467542  C 11.9906493506495 19.5677922077939  12.187012987013 19.5677922077939  12.3584415584414 19.4836363636377  L 19.1906493506494 16.1703896103909  C 19.4057142857142 16.0675324675331  19.5428571428572 15.8493506493514  19.4805194805195 15.6093506493517  Z " fill-rule="nonzero" fill="#ffffff" stroke="none" transform="matrix(1 0 0 1 131 578 )" />
  </g>
</svg>