<?xml version="1.0" encoding="utf-8"?>
<svg version="1.1" xmlns:xlink="http://www.w3.org/1999/xlink" width="10px" height="10px" xmlns="http://www.w3.org/2000/svg">
  <g transform="matrix(1 0 0 1 -364 -168 )">
    <path d="M 366 173  A 3 3 0 0 1 369 170 A 3 3 0 0 1 372 173 A 3 3 0 0 1 369 176 A 3 3 0 0 1 366 173 Z " fill-rule="nonzero" fill="#ffffff" stroke="none" />
    <path d="M 365 173  A 4 4 0 0 1 369 169 A 4 4 0 0 1 373 173 A 4 4 0 0 1 369 177 A 4 4 0 0 1 365 173 Z " stroke-width="2" stroke="#ffffff" fill="none" stroke-opacity="0.2" />
  </g>
</svg>