<?xml version="1.0" encoding="utf-8"?>
<svg version="1.1" xmlns:xlink="http://www.w3.org/1999/xlink" width="10px" height="10px" xmlns="http://www.w3.org/2000/svg">
  <g transform="matrix(1 0 0 1 -367 -861 )">
    <path d="M 369 866  A 3 3 0 0 1 372 863 A 3 3 0 0 1 375 866 A 3 3 0 0 1 372 869 A 3 3 0 0 1 369 866 Z " fill-rule="nonzero" fill="#34e0a8" stroke="none" />
    <path d="M 368 866  A 4 4 0 0 1 372 862 A 4 4 0 0 1 376 866 A 4 4 0 0 1 372 870 A 4 4 0 0 1 368 866 Z " stroke-width="2" stroke="#ffffff" fill="none" stroke-opacity="0.2" />
  </g>
</svg>