<?xml version="1.0" encoding="utf-8"?>
<svg version="1.1" xmlns:xlink="http://www.w3.org/1999/xlink" width="32px" height="62px" xmlns="http://www.w3.org/2000/svg">
  <defs>
    <mask fill="white" id="clip2057">
      <path d="M 3 7.60975609756088  C 3 7.60975609756088  3 6.43902439024384  3 6.43902439024384  C 3 6.43902439024384  9 5.26829268292681  9 5.26829268292681  C 9 5.26829268292681  9 0.585365853658573  9 0.585365853658573  C 9 0.585365853658573  10.2 4.09756097560978  10.2 4.09756097560978  C 10.2 4.09756097560978  15 5.26829268292681  15 5.26829268292681  C 15 5.26829268292681  17.4 9.95121951219517  17.4 9.95121951219517  C 17.4 9.95121951219517  19.8 9.95121951219517  19.8 9.95121951219517  C 19.8 9.95121951219517  21 12.2926829268293  21 12.2926829268293  C 21 12.2926829268293  21 18.1463414634146  21 18.1463414634146  C 21 18.1463414634146  18.6 18.1463414634146  18.6 18.1463414634146  C 18.6 18.1463414634146  18.6 29.8536585365854  18.6 29.8536585365854  C 18.6 29.8536585365854  23.4 29.8536585365854  23.4 29.8536585365854  C 23.4 29.8536585365854  23.4 34.5365853658537  23.4 34.5365853658537  C 23.4 34.5365853658537  21 34.5365853658537  21 34.5365853658537  C 21 34.5365853658537  22.2 39.219512195122  22.2 39.219512195122  C 22.2 39.219512195122  21 41.5609756097562  21 41.5609756097562  C 21 41.5609756097562  12.6 42.7317073170732  12.6 42.7317073170732  C 12.6 42.7317073170732  10.2 47.4146341463414  10.2 47.4146341463414  C 10.2 47.4146341463414  5.39999999999998 47.4146341463414  5.39999999999998 47.4146341463414  C 5.39999999999998 47.4146341463414  3 43.9024390243902  3 43.9024390243902  C 3 43.9024390243902  0.600000000000023 43.9024390243902  0.600000000000023 43.9024390243902  C 0.600000000000023 43.9024390243902  6.60000000000002 41.5609756097562  6.60000000000002 41.5609756097562  C 6.60000000000002 41.5609756097562  4.20000000000005 20.4878048780488  4.20000000000005 20.4878048780488  C 4.20000000000005 20.4878048780488  6.60000000000002 20.4878048780488  6.60000000000002 20.4878048780488  C 6.60000000000002 20.4878048780488  3 7.60975609756088  3 7.60975609756088  Z " fill-rule="evenodd" />
    </mask>
    <filter x="959px" y="594px" width="32px" height="62px" filterUnits="userSpaceOnUse" id="filter2058">
      <feOffset dx="0" dy="10" in="SourceAlpha" result="shadowOffsetInner" />
      <feGaussianBlur stdDeviation="2" in="shadowOffsetInner" result="shadowGaussian" />
      <feComposite in2="shadowGaussian" operator="atop" in="SourceAlpha" result="shadowComposite" />
      <feColorMatrix type="matrix" values="0 0 0 0 0  0 0 0 0 0.6  0 0 0 0 1  0 0 0 1 0  " in="shadowComposite" />
    </filter>
    <g id="widget2059">
      <path d="M 3 7.60975609756088  C 3 7.60975609756088  3 6.43902439024384  3 6.43902439024384  C 3 6.43902439024384  9 5.26829268292681  9 5.26829268292681  C 9 5.26829268292681  9 0.585365853658573  9 0.585365853658573  C 9 0.585365853658573  10.2 4.09756097560978  10.2 4.09756097560978  C 10.2 4.09756097560978  15 5.26829268292681  15 5.26829268292681  C 15 5.26829268292681  17.4 9.95121951219517  17.4 9.95121951219517  C 17.4 9.95121951219517  19.8 9.95121951219517  19.8 9.95121951219517  C 19.8 9.95121951219517  21 12.2926829268293  21 12.2926829268293  C 21 12.2926829268293  21 18.1463414634146  21 18.1463414634146  C 21 18.1463414634146  18.6 18.1463414634146  18.6 18.1463414634146  C 18.6 18.1463414634146  18.6 29.8536585365854  18.6 29.8536585365854  C 18.6 29.8536585365854  23.4 29.8536585365854  23.4 29.8536585365854  C 23.4 29.8536585365854  23.4 34.5365853658537  23.4 34.5365853658537  C 23.4 34.5365853658537  21 34.5365853658537  21 34.5365853658537  C 21 34.5365853658537  22.2 39.219512195122  22.2 39.219512195122  C 22.2 39.219512195122  21 41.5609756097562  21 41.5609756097562  C 21 41.5609756097562  12.6 42.7317073170732  12.6 42.7317073170732  C 12.6 42.7317073170732  10.2 47.4146341463414  10.2 47.4146341463414  C 10.2 47.4146341463414  5.39999999999998 47.4146341463414  5.39999999999998 47.4146341463414  C 5.39999999999998 47.4146341463414  3 43.9024390243902  3 43.9024390243902  C 3 43.9024390243902  0.600000000000023 43.9024390243902  0.600000000000023 43.9024390243902  C 0.600000000000023 43.9024390243902  6.60000000000002 41.5609756097562  6.60000000000002 41.5609756097562  C 6.60000000000002 41.5609756097562  4.20000000000005 20.4878048780488  4.20000000000005 20.4878048780488  C 4.20000000000005 20.4878048780488  6.60000000000002 20.4878048780488  6.60000000000002 20.4878048780488  C 6.60000000000002 20.4878048780488  3 7.60975609756088  3 7.60975609756088  Z " fill-rule="nonzero" fill="#0fd0e6" stroke="none" transform="matrix(1 0 0 1 963 594 )" />
      <path d="M 3 7.60975609756088  C 3 7.60975609756088  3 6.43902439024384  3 6.43902439024384  C 3 6.43902439024384  9 5.26829268292681  9 5.26829268292681  C 9 5.26829268292681  9 0.585365853658573  9 0.585365853658573  C 9 0.585365853658573  10.2 4.09756097560978  10.2 4.09756097560978  C 10.2 4.09756097560978  15 5.26829268292681  15 5.26829268292681  C 15 5.26829268292681  17.4 9.95121951219517  17.4 9.95121951219517  C 17.4 9.95121951219517  19.8 9.95121951219517  19.8 9.95121951219517  C 19.8 9.95121951219517  21 12.2926829268293  21 12.2926829268293  C 21 12.2926829268293  21 18.1463414634146  21 18.1463414634146  C 21 18.1463414634146  18.6 18.1463414634146  18.6 18.1463414634146  C 18.6 18.1463414634146  18.6 29.8536585365854  18.6 29.8536585365854  C 18.6 29.8536585365854  23.4 29.8536585365854  23.4 29.8536585365854  C 23.4 29.8536585365854  23.4 34.5365853658537  23.4 34.5365853658537  C 23.4 34.5365853658537  21 34.5365853658537  21 34.5365853658537  C 21 34.5365853658537  22.2 39.219512195122  22.2 39.219512195122  C 22.2 39.219512195122  21 41.5609756097562  21 41.5609756097562  C 21 41.5609756097562  12.6 42.7317073170732  12.6 42.7317073170732  C 12.6 42.7317073170732  10.2 47.4146341463414  10.2 47.4146341463414  C 10.2 47.4146341463414  5.39999999999998 47.4146341463414  5.39999999999998 47.4146341463414  C 5.39999999999998 47.4146341463414  3 43.9024390243902  3 43.9024390243902  C 3 43.9024390243902  0.600000000000023 43.9024390243902  0.600000000000023 43.9024390243902  C 0.600000000000023 43.9024390243902  6.60000000000002 41.5609756097562  6.60000000000002 41.5609756097562  C 6.60000000000002 41.5609756097562  4.20000000000005 20.4878048780488  4.20000000000005 20.4878048780488  C 4.20000000000005 20.4878048780488  6.60000000000002 20.4878048780488  6.60000000000002 20.4878048780488  C 6.60000000000002 20.4878048780488  3 7.60975609756088  3 7.60975609756088  Z " stroke-width="2" stroke-dasharray="1,1" stroke="#999999" fill="none" transform="matrix(1 0 0 1 963 594 )" mask="url(#clip2057)" />
    </g>
  </defs>
  <g transform="matrix(1 0 0 1 -959 -594 )">
    <use xlink:href="#widget2059" filter="url(#filter2058)" />
    <use xlink:href="#widget2059" />
  </g>
</svg>