<?xml version="1.0" encoding="utf-8"?>
<svg version="1.1" xmlns:xlink="http://www.w3.org/1999/xlink" width="137px" height="70px" xmlns="http://www.w3.org/2000/svg">
  <defs>
    <mask fill="white" id="clip2053">
      <path d="M 33.7293577981651 4.17021276595744  C 33.7293577981651 4.17021276595744  34.9128440366972 4.17021276595744  34.9128440366972 4.17021276595744  C 34.9128440366972 4.17021276595744  38.4633027522937 6.55319148936178  38.4633027522937 6.55319148936178  C 38.4633027522937 6.55319148936178  44.3807339449542 6.55319148936178  44.3807339449542 6.55319148936178  C 44.3807339449542 6.55319148936178  47.9311926605506 10.1276595744681  47.9311926605506 10.1276595744681  C 47.9311926605506 10.1276595744681  47.9311926605506 7.74468085106389  47.9311926605506 7.74468085106389  C 47.9311926605506 7.74468085106389  51.4816513761467 8.93617021276589  51.4816513761467 8.93617021276589  C 51.4816513761467 8.93617021276589  51.4816513761467 6.55319148936178  51.4816513761467 6.55319148936178  C 51.4816513761467 6.55319148936178  56.2155963302752 4.17021276595744  56.2155963302752 4.17021276595744  C 56.2155963302752 4.17021276595744  55.0321100917432 2.97872340425522  55.0321100917432 2.97872340425522  C 55.0321100917432 2.97872340425522  60.9495412844036 0.595744680850999  60.9495412844036 0.595744680850999  C 60.9495412844036 0.595744680850999  75.1513761467891 0.595744680850999  75.1513761467891 0.595744680850999  C 75.1513761467891 0.595744680850999  75.1513761467891 4.17021276595744  75.1513761467891 4.17021276595744  C 75.1513761467891 4.17021276595744  81.0688073394494 0.595744680850999  81.0688073394494 0.595744680850999  C 81.0688073394494 0.595744680850999  84.6192660550458 0.595744680850999  84.6192660550458 0.595744680850999  C 84.6192660550458 0.595744680850999  83.4357798165137 8.93617021276589  83.4357798165137 8.93617021276589  C 83.4357798165137 8.93617021276589  89.3532110091743 8.93617021276589  89.3532110091743 8.93617021276589  C 89.3532110091743 8.93617021276589  91.7201834862385 12.5106382978723  91.7201834862385 12.5106382978723  C 91.7201834862385 12.5106382978723  101.188073394495 11.3191489361702  101.188073394495 11.3191489361702  C 101.188073394495 11.3191489361702  110.655963302752 16.0851063829788  110.655963302752 16.0851063829788  C 110.655963302752 16.0851063829788  111.839449541284 11.3191489361702  111.839449541284 11.3191489361702  C 111.839449541284 11.3191489361702  120.123853211009 10.1276595744681  120.123853211009 10.1276595744681  C 120.123853211009 10.1276595744681  121.307339449541 14.8936170212767  121.307339449541 14.8936170212767  C 121.307339449541 14.8936170212767  122.490825688073 13.7021276595746  122.490825688073 13.7021276595746  C 122.490825688073 13.7021276595746  123.674311926606 16.0851063829788  123.674311926606 16.0851063829788  C 123.674311926606 16.0851063829788  124.857798165138 14.8936170212767  124.857798165138 14.8936170212767  C 124.857798165138 14.8936170212767  126.04128440367 17.2765957446808  126.04128440367 17.2765957446808  C 126.04128440367 17.2765957446808  128.408256880734 17.2765957446808  128.408256880734 17.2765957446808  C 128.408256880734 17.2765957446808  126.04128440367 19.6595744680851  126.04128440367 19.6595744680851  C 126.04128440367 19.6595744680851  122.490825688073 18.4680851063829  122.490825688073 18.4680851063829  C 122.490825688073 18.4680851063829  116.573394495413 26.8085106382978  116.573394495413 26.8085106382978  C 116.573394495413 26.8085106382978  113.022935779817 30.3829787234043  113.022935779817 30.3829787234043  C 113.022935779817 30.3829787234043  111.839449541284 29.1914893617022  111.839449541284 29.1914893617022  C 111.839449541284 29.1914893617022  113.022935779817 33.9574468085107  113.022935779817 33.9574468085107  C 113.022935779817 33.9574468085107  110.655963302752 33.9574468085107  110.655963302752 33.9574468085107  C 110.655963302752 33.9574468085107  110.655963302752 36.3404255319149  110.655963302752 36.3404255319149  C 110.655963302752 36.3404255319149  111.839449541284 35.1489361702128  111.839449541284 35.1489361702128  C 111.839449541284 35.1489361702128  115.389908256881 38.7234042553191  115.389908256881 38.7234042553191  C 115.389908256881 38.7234042553191  116.573394495413 43.4893617021277  116.573394495413 43.4893617021277  C 116.573394495413 43.4893617021277  114.206422018349 43.4893617021277  114.206422018349 43.4893617021277  C 114.206422018349 43.4893617021277  113.022935779817 45.8723404255319  113.022935779817 45.8723404255319  C 113.022935779817 45.8723404255319  105.922018348624 45.8723404255319  105.922018348624 45.8723404255319  C 105.922018348624 45.8723404255319  107.105504587156 54.2127659574469  107.105504587156 54.2127659574469  C 107.105504587156 54.2127659574469  104.738532110092 54.2127659574469  104.738532110092 54.2127659574469  C 104.738532110092 54.2127659574469  104.738532110092 48.2553191489362  104.738532110092 48.2553191489362  C 104.738532110092 48.2553191489362  102.371559633027 49.4468085106382  102.371559633027 49.4468085106382  C 102.371559633027 49.4468085106382  101.188073394495 45.8723404255319  101.188073394495 45.8723404255319  C 101.188073394495 45.8723404255319  97.637614678899 47.0638297872341  97.637614678899 47.0638297872341  C 97.637614678899 47.0638297872341  97.637614678899 42.2978723404254  97.637614678899 42.2978723404254  C 97.637614678899 42.2978723404254  89.3532110091743 37.5319148936171  89.3532110091743 37.5319148936171  C 89.3532110091743 37.5319148936171  89.3532110091743 39.9148936170212  89.3532110091743 39.9148936170212  C 89.3532110091743 39.9148936170212  84.6192660550458 41.1063829787233  84.6192660550458 41.1063829787233  C 84.6192660550458 41.1063829787233  83.4357798165137 47.0638297872341  83.4357798165137 47.0638297872341  C 83.4357798165137 47.0638297872341  78.7018348623852 53.0212765957448  78.7018348623852 53.0212765957448  C 78.7018348623852 53.0212765957448  73.9678899082568 43.4893617021277  73.9678899082568 43.4893617021277  C 73.9678899082568 43.4893617021277  75.1513761467891 42.2978723404254  75.1513761467891 42.2978723404254  C 75.1513761467891 42.2978723404254  72.7844036697247 41.1063829787233  72.7844036697247 41.1063829787233  C 72.7844036697247 41.1063829787233  65.6834862385322 43.4893617021277  65.6834862385322 43.4893617021277  C 65.6834862385322 43.4893617021277  63.3165137614678 41.1063829787233  63.3165137614678 41.1063829787233  C 63.3165137614678 41.1063829787233  60.9495412844036 43.4893617021277  60.9495412844036 43.4893617021277  C 60.9495412844036 43.4893617021277  60.9495412844036 35.1489361702128  60.9495412844036 35.1489361702128  C 60.9495412844036 35.1489361702128  58.5825688073394 30.3829787234043  58.5825688073394 30.3829787234043  C 58.5825688073394 30.3829787234043  53.8486238532109 29.1914893617022  53.8486238532109 29.1914893617022  C 53.8486238532109 29.1914893617022  49.1146788990825 30.3829787234043  49.1146788990825 30.3829787234043  C 49.1146788990825 30.3829787234043  50.2981651376147 33.9574468085107  50.2981651376147 33.9574468085107  C 50.2981651376147 33.9574468085107  45.5642201834862 41.1063829787233  45.5642201834862 41.1063829787233  C 45.5642201834862 41.1063829787233  45.5642201834862 49.4468085106382  45.5642201834862 49.4468085106382  C 45.5642201834862 49.4468085106382  36.0963302752293 47.0638297872341  36.0963302752293 47.0638297872341  C 36.0963302752293 47.0638297872341  32.545871559633 53.0212765957448  32.545871559633 53.0212765957448  C 32.545871559633 53.0212765957448  20.711009174312 55.404255319149  20.711009174312 55.404255319149  C 20.711009174312 55.404255319149  19.5275229357798 50.6382978723404  19.5275229357798 50.6382978723404  C 19.5275229357798 50.6382978723404  24.2614678899082 47.0638297872341  24.2614678899082 47.0638297872341  C 24.2614678899082 47.0638297872341  17.1605504587155 44.6808510638298  17.1605504587155 44.6808510638298  C 17.1605504587155 44.6808510638298  12.4266055045871 48.2553191489362  12.4266055045871 48.2553191489362  C 12.4266055045871 48.2553191489362  10.0596330275229 42.2978723404254  10.0596330275229 42.2978723404254  C 10.0596330275229 42.2978723404254  11.243119266055 30.3829787234043  11.243119266055 30.3829787234043  C 11.243119266055 30.3829787234043  10.0596330275229 26.8085106382978  10.0596330275229 26.8085106382978  C 10.0596330275229 26.8085106382978  7.69266055045864 26.8085106382978  7.69266055045864 26.8085106382978  C 7.69266055045864 26.8085106382978  7.69266055045864 24.4255319148936  7.69266055045864 24.4255319148936  C 7.69266055045864 24.4255319148936  0.591743119266084 20.8510638297872  0.591743119266084 20.8510638297872  C 0.591743119266084 20.8510638297872  1.77522935779825 18.4680851063829  1.77522935779825 18.4680851063829  C 1.77522935779825 18.4680851063829  5.32568807339453 18.4680851063829  5.32568807339453 18.4680851063829  C 5.32568807339453 18.4680851063829  5.32568807339453 12.5106382978723  5.32568807339453 12.5106382978723  C 5.32568807339453 12.5106382978723  15.9770642201835 11.3191489361702  15.9770642201835 11.3191489361702  C 15.9770642201835 11.3191489361702  24.2614678899082 6.55319148936178  24.2614678899082 6.55319148936178  C 24.2614678899082 6.55319148936178  33.7293577981651 4.17021276595744  33.7293577981651 4.17021276595744  Z " fill-rule="evenodd" />
    </mask>
    <filter x="859px" y="625px" width="137px" height="70px" filterUnits="userSpaceOnUse" id="filter2054">
      <feOffset dx="0" dy="10" in="SourceAlpha" result="shadowOffsetInner" />
      <feGaussianBlur stdDeviation="2" in="shadowOffsetInner" result="shadowGaussian" />
      <feComposite in2="shadowGaussian" operator="atop" in="SourceAlpha" result="shadowComposite" />
      <feColorMatrix type="matrix" values="0 0 0 0 0  0 0 0 0 0.6  0 0 0 0 1  0 0 0 1 0  " in="shadowComposite" />
    </filter>
    <g id="widget2055">
      <path d="M 33.7293577981651 4.17021276595744  C 33.7293577981651 4.17021276595744  34.9128440366972 4.17021276595744  34.9128440366972 4.17021276595744  C 34.9128440366972 4.17021276595744  38.4633027522937 6.55319148936178  38.4633027522937 6.55319148936178  C 38.4633027522937 6.55319148936178  44.3807339449542 6.55319148936178  44.3807339449542 6.55319148936178  C 44.3807339449542 6.55319148936178  47.9311926605506 10.1276595744681  47.9311926605506 10.1276595744681  C 47.9311926605506 10.1276595744681  47.9311926605506 7.74468085106389  47.9311926605506 7.74468085106389  C 47.9311926605506 7.74468085106389  51.4816513761467 8.93617021276589  51.4816513761467 8.93617021276589  C 51.4816513761467 8.93617021276589  51.4816513761467 6.55319148936178  51.4816513761467 6.55319148936178  C 51.4816513761467 6.55319148936178  56.2155963302752 4.17021276595744  56.2155963302752 4.17021276595744  C 56.2155963302752 4.17021276595744  55.0321100917432 2.97872340425522  55.0321100917432 2.97872340425522  C 55.0321100917432 2.97872340425522  60.9495412844036 0.595744680850999  60.9495412844036 0.595744680850999  C 60.9495412844036 0.595744680850999  75.1513761467891 0.595744680850999  75.1513761467891 0.595744680850999  C 75.1513761467891 0.595744680850999  75.1513761467891 4.17021276595744  75.1513761467891 4.17021276595744  C 75.1513761467891 4.17021276595744  81.0688073394494 0.595744680850999  81.0688073394494 0.595744680850999  C 81.0688073394494 0.595744680850999  84.6192660550458 0.595744680850999  84.6192660550458 0.595744680850999  C 84.6192660550458 0.595744680850999  83.4357798165137 8.93617021276589  83.4357798165137 8.93617021276589  C 83.4357798165137 8.93617021276589  89.3532110091743 8.93617021276589  89.3532110091743 8.93617021276589  C 89.3532110091743 8.93617021276589  91.7201834862385 12.5106382978723  91.7201834862385 12.5106382978723  C 91.7201834862385 12.5106382978723  101.188073394495 11.3191489361702  101.188073394495 11.3191489361702  C 101.188073394495 11.3191489361702  110.655963302752 16.0851063829788  110.655963302752 16.0851063829788  C 110.655963302752 16.0851063829788  111.839449541284 11.3191489361702  111.839449541284 11.3191489361702  C 111.839449541284 11.3191489361702  120.123853211009 10.1276595744681  120.123853211009 10.1276595744681  C 120.123853211009 10.1276595744681  121.307339449541 14.8936170212767  121.307339449541 14.8936170212767  C 121.307339449541 14.8936170212767  122.490825688073 13.7021276595746  122.490825688073 13.7021276595746  C 122.490825688073 13.7021276595746  123.674311926606 16.0851063829788  123.674311926606 16.0851063829788  C 123.674311926606 16.0851063829788  124.857798165138 14.8936170212767  124.857798165138 14.8936170212767  C 124.857798165138 14.8936170212767  126.04128440367 17.2765957446808  126.04128440367 17.2765957446808  C 126.04128440367 17.2765957446808  128.408256880734 17.2765957446808  128.408256880734 17.2765957446808  C 128.408256880734 17.2765957446808  126.04128440367 19.6595744680851  126.04128440367 19.6595744680851  C 126.04128440367 19.6595744680851  122.490825688073 18.4680851063829  122.490825688073 18.4680851063829  C 122.490825688073 18.4680851063829  116.573394495413 26.8085106382978  116.573394495413 26.8085106382978  C 116.573394495413 26.8085106382978  113.022935779817 30.3829787234043  113.022935779817 30.3829787234043  C 113.022935779817 30.3829787234043  111.839449541284 29.1914893617022  111.839449541284 29.1914893617022  C 111.839449541284 29.1914893617022  113.022935779817 33.9574468085107  113.022935779817 33.9574468085107  C 113.022935779817 33.9574468085107  110.655963302752 33.9574468085107  110.655963302752 33.9574468085107  C 110.655963302752 33.9574468085107  110.655963302752 36.3404255319149  110.655963302752 36.3404255319149  C 110.655963302752 36.3404255319149  111.839449541284 35.1489361702128  111.839449541284 35.1489361702128  C 111.839449541284 35.1489361702128  115.389908256881 38.7234042553191  115.389908256881 38.7234042553191  C 115.389908256881 38.7234042553191  116.573394495413 43.4893617021277  116.573394495413 43.4893617021277  C 116.573394495413 43.4893617021277  114.206422018349 43.4893617021277  114.206422018349 43.4893617021277  C 114.206422018349 43.4893617021277  113.022935779817 45.8723404255319  113.022935779817 45.8723404255319  C 113.022935779817 45.8723404255319  105.922018348624 45.8723404255319  105.922018348624 45.8723404255319  C 105.922018348624 45.8723404255319  107.105504587156 54.2127659574469  107.105504587156 54.2127659574469  C 107.105504587156 54.2127659574469  104.738532110092 54.2127659574469  104.738532110092 54.2127659574469  C 104.738532110092 54.2127659574469  104.738532110092 48.2553191489362  104.738532110092 48.2553191489362  C 104.738532110092 48.2553191489362  102.371559633027 49.4468085106382  102.371559633027 49.4468085106382  C 102.371559633027 49.4468085106382  101.188073394495 45.8723404255319  101.188073394495 45.8723404255319  C 101.188073394495 45.8723404255319  97.637614678899 47.0638297872341  97.637614678899 47.0638297872341  C 97.637614678899 47.0638297872341  97.637614678899 42.2978723404254  97.637614678899 42.2978723404254  C 97.637614678899 42.2978723404254  89.3532110091743 37.5319148936171  89.3532110091743 37.5319148936171  C 89.3532110091743 37.5319148936171  89.3532110091743 39.9148936170212  89.3532110091743 39.9148936170212  C 89.3532110091743 39.9148936170212  84.6192660550458 41.1063829787233  84.6192660550458 41.1063829787233  C 84.6192660550458 41.1063829787233  83.4357798165137 47.0638297872341  83.4357798165137 47.0638297872341  C 83.4357798165137 47.0638297872341  78.7018348623852 53.0212765957448  78.7018348623852 53.0212765957448  C 78.7018348623852 53.0212765957448  73.9678899082568 43.4893617021277  73.9678899082568 43.4893617021277  C 73.9678899082568 43.4893617021277  75.1513761467891 42.2978723404254  75.1513761467891 42.2978723404254  C 75.1513761467891 42.2978723404254  72.7844036697247 41.1063829787233  72.7844036697247 41.1063829787233  C 72.7844036697247 41.1063829787233  65.6834862385322 43.4893617021277  65.6834862385322 43.4893617021277  C 65.6834862385322 43.4893617021277  63.3165137614678 41.1063829787233  63.3165137614678 41.1063829787233  C 63.3165137614678 41.1063829787233  60.9495412844036 43.4893617021277  60.9495412844036 43.4893617021277  C 60.9495412844036 43.4893617021277  60.9495412844036 35.1489361702128  60.9495412844036 35.1489361702128  C 60.9495412844036 35.1489361702128  58.5825688073394 30.3829787234043  58.5825688073394 30.3829787234043  C 58.5825688073394 30.3829787234043  53.8486238532109 29.1914893617022  53.8486238532109 29.1914893617022  C 53.8486238532109 29.1914893617022  49.1146788990825 30.3829787234043  49.1146788990825 30.3829787234043  C 49.1146788990825 30.3829787234043  50.2981651376147 33.9574468085107  50.2981651376147 33.9574468085107  C 50.2981651376147 33.9574468085107  45.5642201834862 41.1063829787233  45.5642201834862 41.1063829787233  C 45.5642201834862 41.1063829787233  45.5642201834862 49.4468085106382  45.5642201834862 49.4468085106382  C 45.5642201834862 49.4468085106382  36.0963302752293 47.0638297872341  36.0963302752293 47.0638297872341  C 36.0963302752293 47.0638297872341  32.545871559633 53.0212765957448  32.545871559633 53.0212765957448  C 32.545871559633 53.0212765957448  20.711009174312 55.404255319149  20.711009174312 55.404255319149  C 20.711009174312 55.404255319149  19.5275229357798 50.6382978723404  19.5275229357798 50.6382978723404  C 19.5275229357798 50.6382978723404  24.2614678899082 47.0638297872341  24.2614678899082 47.0638297872341  C 24.2614678899082 47.0638297872341  17.1605504587155 44.6808510638298  17.1605504587155 44.6808510638298  C 17.1605504587155 44.6808510638298  12.4266055045871 48.2553191489362  12.4266055045871 48.2553191489362  C 12.4266055045871 48.2553191489362  10.0596330275229 42.2978723404254  10.0596330275229 42.2978723404254  C 10.0596330275229 42.2978723404254  11.243119266055 30.3829787234043  11.243119266055 30.3829787234043  C 11.243119266055 30.3829787234043  10.0596330275229 26.8085106382978  10.0596330275229 26.8085106382978  C 10.0596330275229 26.8085106382978  7.69266055045864 26.8085106382978  7.69266055045864 26.8085106382978  C 7.69266055045864 26.8085106382978  7.69266055045864 24.4255319148936  7.69266055045864 24.4255319148936  C 7.69266055045864 24.4255319148936  0.591743119266084 20.8510638297872  0.591743119266084 20.8510638297872  C 0.591743119266084 20.8510638297872  1.77522935779825 18.4680851063829  1.77522935779825 18.4680851063829  C 1.77522935779825 18.4680851063829  5.32568807339453 18.4680851063829  5.32568807339453 18.4680851063829  C 5.32568807339453 18.4680851063829  5.32568807339453 12.5106382978723  5.32568807339453 12.5106382978723  C 5.32568807339453 12.5106382978723  15.9770642201835 11.3191489361702  15.9770642201835 11.3191489361702  C 15.9770642201835 11.3191489361702  24.2614678899082 6.55319148936178  24.2614678899082 6.55319148936178  C 24.2614678899082 6.55319148936178  33.7293577981651 4.17021276595744  33.7293577981651 4.17021276595744  Z " fill-rule="nonzero" fill="#0fd0e6" stroke="none" transform="matrix(1 0 0 1 863 625 )" />
      <path d="M 33.7293577981651 4.17021276595744  C 33.7293577981651 4.17021276595744  34.9128440366972 4.17021276595744  34.9128440366972 4.17021276595744  C 34.9128440366972 4.17021276595744  38.4633027522937 6.55319148936178  38.4633027522937 6.55319148936178  C 38.4633027522937 6.55319148936178  44.3807339449542 6.55319148936178  44.3807339449542 6.55319148936178  C 44.3807339449542 6.55319148936178  47.9311926605506 10.1276595744681  47.9311926605506 10.1276595744681  C 47.9311926605506 10.1276595744681  47.9311926605506 7.74468085106389  47.9311926605506 7.74468085106389  C 47.9311926605506 7.74468085106389  51.4816513761467 8.93617021276589  51.4816513761467 8.93617021276589  C 51.4816513761467 8.93617021276589  51.4816513761467 6.55319148936178  51.4816513761467 6.55319148936178  C 51.4816513761467 6.55319148936178  56.2155963302752 4.17021276595744  56.2155963302752 4.17021276595744  C 56.2155963302752 4.17021276595744  55.0321100917432 2.97872340425522  55.0321100917432 2.97872340425522  C 55.0321100917432 2.97872340425522  60.9495412844036 0.595744680850999  60.9495412844036 0.595744680850999  C 60.9495412844036 0.595744680850999  75.1513761467891 0.595744680850999  75.1513761467891 0.595744680850999  C 75.1513761467891 0.595744680850999  75.1513761467891 4.17021276595744  75.1513761467891 4.17021276595744  C 75.1513761467891 4.17021276595744  81.0688073394494 0.595744680850999  81.0688073394494 0.595744680850999  C 81.0688073394494 0.595744680850999  84.6192660550458 0.595744680850999  84.6192660550458 0.595744680850999  C 84.6192660550458 0.595744680850999  83.4357798165137 8.93617021276589  83.4357798165137 8.93617021276589  C 83.4357798165137 8.93617021276589  89.3532110091743 8.93617021276589  89.3532110091743 8.93617021276589  C 89.3532110091743 8.93617021276589  91.7201834862385 12.5106382978723  91.7201834862385 12.5106382978723  C 91.7201834862385 12.5106382978723  101.188073394495 11.3191489361702  101.188073394495 11.3191489361702  C 101.188073394495 11.3191489361702  110.655963302752 16.0851063829788  110.655963302752 16.0851063829788  C 110.655963302752 16.0851063829788  111.839449541284 11.3191489361702  111.839449541284 11.3191489361702  C 111.839449541284 11.3191489361702  120.123853211009 10.1276595744681  120.123853211009 10.1276595744681  C 120.123853211009 10.1276595744681  121.307339449541 14.8936170212767  121.307339449541 14.8936170212767  C 121.307339449541 14.8936170212767  122.490825688073 13.7021276595746  122.490825688073 13.7021276595746  C 122.490825688073 13.7021276595746  123.674311926606 16.0851063829788  123.674311926606 16.0851063829788  C 123.674311926606 16.0851063829788  124.857798165138 14.8936170212767  124.857798165138 14.8936170212767  C 124.857798165138 14.8936170212767  126.04128440367 17.2765957446808  126.04128440367 17.2765957446808  C 126.04128440367 17.2765957446808  128.408256880734 17.2765957446808  128.408256880734 17.2765957446808  C 128.408256880734 17.2765957446808  126.04128440367 19.6595744680851  126.04128440367 19.6595744680851  C 126.04128440367 19.6595744680851  122.490825688073 18.4680851063829  122.490825688073 18.4680851063829  C 122.490825688073 18.4680851063829  116.573394495413 26.8085106382978  116.573394495413 26.8085106382978  C 116.573394495413 26.8085106382978  113.022935779817 30.3829787234043  113.022935779817 30.3829787234043  C 113.022935779817 30.3829787234043  111.839449541284 29.1914893617022  111.839449541284 29.1914893617022  C 111.839449541284 29.1914893617022  113.022935779817 33.9574468085107  113.022935779817 33.9574468085107  C 113.022935779817 33.9574468085107  110.655963302752 33.9574468085107  110.655963302752 33.9574468085107  C 110.655963302752 33.9574468085107  110.655963302752 36.3404255319149  110.655963302752 36.3404255319149  C 110.655963302752 36.3404255319149  111.839449541284 35.1489361702128  111.839449541284 35.1489361702128  C 111.839449541284 35.1489361702128  115.389908256881 38.7234042553191  115.389908256881 38.7234042553191  C 115.389908256881 38.7234042553191  116.573394495413 43.4893617021277  116.573394495413 43.4893617021277  C 116.573394495413 43.4893617021277  114.206422018349 43.4893617021277  114.206422018349 43.4893617021277  C 114.206422018349 43.4893617021277  113.022935779817 45.8723404255319  113.022935779817 45.8723404255319  C 113.022935779817 45.8723404255319  105.922018348624 45.8723404255319  105.922018348624 45.8723404255319  C 105.922018348624 45.8723404255319  107.105504587156 54.2127659574469  107.105504587156 54.2127659574469  C 107.105504587156 54.2127659574469  104.738532110092 54.2127659574469  104.738532110092 54.2127659574469  C 104.738532110092 54.2127659574469  104.738532110092 48.2553191489362  104.738532110092 48.2553191489362  C 104.738532110092 48.2553191489362  102.371559633027 49.4468085106382  102.371559633027 49.4468085106382  C 102.371559633027 49.4468085106382  101.188073394495 45.8723404255319  101.188073394495 45.8723404255319  C 101.188073394495 45.8723404255319  97.637614678899 47.0638297872341  97.637614678899 47.0638297872341  C 97.637614678899 47.0638297872341  97.637614678899 42.2978723404254  97.637614678899 42.2978723404254  C 97.637614678899 42.2978723404254  89.3532110091743 37.5319148936171  89.3532110091743 37.5319148936171  C 89.3532110091743 37.5319148936171  89.3532110091743 39.9148936170212  89.3532110091743 39.9148936170212  C 89.3532110091743 39.9148936170212  84.6192660550458 41.1063829787233  84.6192660550458 41.1063829787233  C 84.6192660550458 41.1063829787233  83.4357798165137 47.0638297872341  83.4357798165137 47.0638297872341  C 83.4357798165137 47.0638297872341  78.7018348623852 53.0212765957448  78.7018348623852 53.0212765957448  C 78.7018348623852 53.0212765957448  73.9678899082568 43.4893617021277  73.9678899082568 43.4893617021277  C 73.9678899082568 43.4893617021277  75.1513761467891 42.2978723404254  75.1513761467891 42.2978723404254  C 75.1513761467891 42.2978723404254  72.7844036697247 41.1063829787233  72.7844036697247 41.1063829787233  C 72.7844036697247 41.1063829787233  65.6834862385322 43.4893617021277  65.6834862385322 43.4893617021277  C 65.6834862385322 43.4893617021277  63.3165137614678 41.1063829787233  63.3165137614678 41.1063829787233  C 63.3165137614678 41.1063829787233  60.9495412844036 43.4893617021277  60.9495412844036 43.4893617021277  C 60.9495412844036 43.4893617021277  60.9495412844036 35.1489361702128  60.9495412844036 35.1489361702128  C 60.9495412844036 35.1489361702128  58.5825688073394 30.3829787234043  58.5825688073394 30.3829787234043  C 58.5825688073394 30.3829787234043  53.8486238532109 29.1914893617022  53.8486238532109 29.1914893617022  C 53.8486238532109 29.1914893617022  49.1146788990825 30.3829787234043  49.1146788990825 30.3829787234043  C 49.1146788990825 30.3829787234043  50.2981651376147 33.9574468085107  50.2981651376147 33.9574468085107  C 50.2981651376147 33.9574468085107  45.5642201834862 41.1063829787233  45.5642201834862 41.1063829787233  C 45.5642201834862 41.1063829787233  45.5642201834862 49.4468085106382  45.5642201834862 49.4468085106382  C 45.5642201834862 49.4468085106382  36.0963302752293 47.0638297872341  36.0963302752293 47.0638297872341  C 36.0963302752293 47.0638297872341  32.545871559633 53.0212765957448  32.545871559633 53.0212765957448  C 32.545871559633 53.0212765957448  20.711009174312 55.404255319149  20.711009174312 55.404255319149  C 20.711009174312 55.404255319149  19.5275229357798 50.6382978723404  19.5275229357798 50.6382978723404  C 19.5275229357798 50.6382978723404  24.2614678899082 47.0638297872341  24.2614678899082 47.0638297872341  C 24.2614678899082 47.0638297872341  17.1605504587155 44.6808510638298  17.1605504587155 44.6808510638298  C 17.1605504587155 44.6808510638298  12.4266055045871 48.2553191489362  12.4266055045871 48.2553191489362  C 12.4266055045871 48.2553191489362  10.0596330275229 42.2978723404254  10.0596330275229 42.2978723404254  C 10.0596330275229 42.2978723404254  11.243119266055 30.3829787234043  11.243119266055 30.3829787234043  C 11.243119266055 30.3829787234043  10.0596330275229 26.8085106382978  10.0596330275229 26.8085106382978  C 10.0596330275229 26.8085106382978  7.69266055045864 26.8085106382978  7.69266055045864 26.8085106382978  C 7.69266055045864 26.8085106382978  7.69266055045864 24.4255319148936  7.69266055045864 24.4255319148936  C 7.69266055045864 24.4255319148936  0.591743119266084 20.8510638297872  0.591743119266084 20.8510638297872  C 0.591743119266084 20.8510638297872  1.77522935779825 18.4680851063829  1.77522935779825 18.4680851063829  C 1.77522935779825 18.4680851063829  5.32568807339453 18.4680851063829  5.32568807339453 18.4680851063829  C 5.32568807339453 18.4680851063829  5.32568807339453 12.5106382978723  5.32568807339453 12.5106382978723  C 5.32568807339453 12.5106382978723  15.9770642201835 11.3191489361702  15.9770642201835 11.3191489361702  C 15.9770642201835 11.3191489361702  24.2614678899082 6.55319148936178  24.2614678899082 6.55319148936178  C 24.2614678899082 6.55319148936178  33.7293577981651 4.17021276595744  33.7293577981651 4.17021276595744  Z " stroke-width="2" stroke-dasharray="1,1" stroke="#999999" fill="none" transform="matrix(1 0 0 1 863 625 )" mask="url(#clip2053)" />
    </g>
  </defs>
  <g transform="matrix(1 0 0 1 -859 -625 )">
    <use xlink:href="#widget2055" filter="url(#filter2054)" />
    <use xlink:href="#widget2055" />
  </g>
</svg>