<?xml version="1.0" encoding="utf-8"?>
<svg version="1.1" xmlns:xlink="http://www.w3.org/1999/xlink" width="157px" height="157px" xmlns="http://www.w3.org/2000/svg">
  <defs>
    <mask fill="white" id="clip2028">
      <path d="M 96.2067669172933 2.97348484848476  C 96.2067669172933 2.97348484848476  98.5676691729324 2.97348484848476  98.5676691729324 2.97348484848476  C 98.5676691729324 2.97348484848476  99.7481203007518 4.16287878787887  99.7481203007518 4.16287878787887  C 99.7481203007518 4.16287878787887  97.3872180451128 5.35227272727275  97.3872180451128 5.35227272727275  C 97.3872180451128 5.35227272727275  99.7481203007518 6.54166666666663  99.7481203007518 6.54166666666663  C 99.7481203007518 6.54166666666663  104.46992481203 16.0568181818181  104.46992481203 16.0568181818181  C 104.46992481203 16.0568181818181  108.011278195489 16.0568181818181  108.011278195489 16.0568181818181  C 108.011278195489 16.0568181818181  110.372180451128 13.6780303030304  110.372180451128 13.6780303030304  C 110.372180451128 13.6780303030304  116.274436090226 22.0037878787879  116.274436090226 22.0037878787879  C 116.274436090226 22.0037878787879  106.830827067669 24.3825757575759  106.830827067669 24.3825757575759  C 106.830827067669 24.3825757575759  99.7481203007518 29.1401515151515  99.7481203007518 29.1401515151515  C 99.7481203007518 29.1401515151515  96.2067669172933 36.2765151515152  96.2067669172933 36.2765151515152  C 96.2067669172933 36.2765151515152  99.7481203007518 37.465909090909  99.7481203007518 37.465909090909  C 99.7481203007518 37.465909090909  97.3872180451128 37.465909090909  97.3872180451128 37.465909090909  C 97.3872180451128 37.465909090909  97.3872180451128 41.034090909091  97.3872180451128 41.034090909091  C 97.3872180451128 41.034090909091  99.7481203007518 42.2234848484849  99.7481203007518 42.2234848484849  C 99.7481203007518 42.2234848484849  98.5676691729324 44.6022727272727  98.5676691729324 44.6022727272727  C 98.5676691729324 44.6022727272727  96.2067669172933 44.6022727272727  96.2067669172933 44.6022727272727  C 96.2067669172933 44.6022727272727  97.3872180451128 46.9810606060606  97.3872180451128 46.9810606060606  C 97.3872180451128 46.9810606060606  110.372180451128 46.9810606060606  110.372180451128 46.9810606060606  C 110.372180451128 46.9810606060606  110.372180451128 49.3598484848485  110.372180451128 49.3598484848485  C 110.372180451128 49.3598484848485  117.454887218045 48.1704545454545  117.454887218045 48.1704545454545  C 117.454887218045 48.1704545454545  123.357142857143 42.2234848484849  123.357142857143 42.2234848484849  C 123.357142857143 42.2234848484849  126.898496240602 42.2234848484849  126.898496240602 42.2234848484849  C 126.898496240602 42.2234848484849  131.62030075188 49.3598484848485  131.62030075188 49.3598484848485  C 131.62030075188 49.3598484848485  133.981203007519 49.3598484848485  133.981203007519 49.3598484848485  C 133.981203007519 49.3598484848485  133.981203007519 51.7386363636365  133.981203007519 51.7386363636365  C 133.981203007519 51.7386363636365  131.62030075188 52.9280303030304  131.62030075188 52.9280303030304  C 131.62030075188 52.9280303030304  133.981203007519 57.6856060606061  133.981203007519 57.6856060606061  C 133.981203007519 57.6856060606061  138.703007518797 57.6856060606061  138.703007518797 57.6856060606061  C 138.703007518797 57.6856060606061  138.703007518797 63.6325757575759  138.703007518797 63.6325757575759  C 138.703007518797 63.6325757575759  149.327067669173 63.6325757575759  149.327067669173 63.6325757575759  C 149.327067669173 63.6325757575759  149.327067669173 73.1477272727273  149.327067669173 73.1477272727273  C 149.327067669173 73.1477272727273  151.687969924812 76.715909090909  151.687969924812 76.715909090909  C 151.687969924812 76.715909090909  155.229323308271 76.715909090909  155.229323308271 76.715909090909  C 155.229323308271 76.715909090909  156.40977443609 83.8522727272726  156.40977443609 83.8522727272726  C 156.40977443609 83.8522727272726  151.687969924812 86.2310606060606  151.687969924812 86.2310606060606  C 151.687969924812 86.2310606060606  150.507518796992 85.0416666666666  150.507518796992 85.0416666666666  C 150.507518796992 85.0416666666666  149.327067669173 89.7992424242424  149.327067669173 89.7992424242424  C 149.327067669173 89.7992424242424  154.048872180451 92.1780303030304  154.048872180451 92.1780303030304  C 154.048872180451 92.1780303030304  156.40977443609 96.935606060606  156.40977443609 96.935606060606  C 156.40977443609 96.935606060606  150.507518796992 98.125  150.507518796992 98.125  C 150.507518796992 98.125  146.966165413534 93.3674242424242  146.966165413534 93.3674242424242  C 146.966165413534 93.3674242424242  144.605263157895 94.5568181818181  144.605263157895 94.5568181818181  C 144.605263157895 94.5568181818181  139.883458646616 92.1780303030304  139.883458646616 92.1780303030304  C 139.883458646616 92.1780303030304  132.800751879699 94.5568181818181  132.800751879699 94.5568181818181  C 132.800751879699 94.5568181818181  129.259398496241 92.1780303030304  129.259398496241 92.1780303030304  C 129.259398496241 92.1780303030304  126.898496240602 94.5568181818181  126.898496240602 94.5568181818181  C 126.898496240602 94.5568181818181  124.537593984962 93.3674242424242  124.537593984962 93.3674242424242  C 124.537593984962 93.3674242424242  120.996240601504 83.8522727272726  120.996240601504 83.8522727272726  C 120.996240601504 83.8522727272726  118.635338345865 83.8522727272726  118.635338345865 83.8522727272726  C 118.635338345865 83.8522727272726  118.635338345865 86.2310606060606  118.635338345865 86.2310606060606  C 118.635338345865 86.2310606060606  108.011278195489 86.2310606060606  108.011278195489 86.2310606060606  C 108.011278195489 86.2310606060606  109.191729323308 89.7992424242424  109.191729323308 89.7992424242424  C 109.191729323308 89.7992424242424  106.830827067669 93.3674242424242  106.830827067669 93.3674242424242  C 106.830827067669 93.3674242424242  100.928571428571 95.7462121212121  100.928571428571 95.7462121212121  C 100.928571428571 95.7462121212121  100.928571428571 92.1780303030304  100.928571428571 92.1780303030304  C 100.928571428571 92.1780303030304  100.928571428571 96.935606060606  100.928571428571 96.935606060606  C 100.928571428571 96.935606060606  95.0263157894736 95.7462121212121  95.0263157894736 95.7462121212121  C 95.0263157894736 95.7462121212121  93.845864661654 101.693181818182  93.845864661654 101.693181818182  C 93.845864661654 101.693181818182  96.2067669172933 102.882575757576  96.2067669172933 102.882575757576  C 96.2067669172933 102.882575757576  96.2067669172933 105.261363636364  96.2067669172933 105.261363636364  C 96.2067669172933 105.261363636364  91.484962406015 107.640151515152  91.484962406015 107.640151515152  C 91.484962406015 107.640151515152  90.3045112781955 113.587121212121  90.3045112781955 113.587121212121  C 90.3045112781955 113.587121212121  79.6804511278195 112.397727272727  79.6804511278195 112.397727272727  C 79.6804511278195 112.397727272727  80.8609022556392 119.534090909091  80.8609022556392 119.534090909091  C 80.8609022556392 119.534090909091  77.3195488721805 119.534090909091  77.3195488721805 119.534090909091  C 77.3195488721805 119.534090909091  76.1390977443608 123.102272727273  76.1390977443608 123.102272727273  C 76.1390977443608 123.102272727273  72.5977443609022 121.912878787879  72.5977443609022 121.912878787879  C 72.5977443609022 121.912878787879  67.875939849624 124.291666666667  67.875939849624 124.291666666667  C 67.875939849624 124.291666666667  69.0563909774436 130.238636363636  69.0563909774436 130.238636363636  C 69.0563909774436 130.238636363636  63.154135338346 130.238636363636  63.154135338346 130.238636363636  C 63.154135338346 130.238636363636  63.154135338346 124.291666666667  63.154135338346 124.291666666667  C 63.154135338346 124.291666666667  57.2518796992482 123.102272727273  57.2518796992482 123.102272727273  C 57.2518796992482 123.102272727273  57.2518796992482 127.859848484849  57.2518796992482 127.859848484849  C 57.2518796992482 127.859848484849  61.9736842105264 131.42803030303  61.9736842105264 131.42803030303  C 61.9736842105264 131.42803030303  63.154135338346 134.996212121212  63.154135338346 134.996212121212  C 63.154135338346 134.996212121212  59.6127819548872 139.753787878788  59.6127819548872 139.753787878788  C 59.6127819548872 139.753787878788  64.3345864661653 138.564393939394  64.3345864661653 138.564393939394  C 64.3345864661653 138.564393939394  64.3345864661653 143.32196969697  64.3345864661653 143.32196969697  C 64.3345864661653 143.32196969697  69.0563909774436 140.943181818182  69.0563909774436 140.943181818182  C 69.0563909774436 140.943181818182  71.4172932330827 143.32196969697  71.4172932330827 143.32196969697  C 71.4172932330827 143.32196969697  71.4172932330827 152.837121212121  71.4172932330827 152.837121212121  C 71.4172932330827 152.837121212121  66.6954887218045 156.405303030303  66.6954887218045 156.405303030303  C 66.6954887218045 156.405303030303  58.4323308270676 152.837121212121  58.4323308270676 152.837121212121  C 58.4323308270676 152.837121212121  40.7255639097743 152.837121212121  40.7255639097743 152.837121212121  C 40.7255639097743 152.837121212121  33.6428571428572 148.079545454545  33.6428571428572 148.079545454545  C 33.6428571428572 148.079545454545  27.7406015037595 137.375  27.7406015037595 137.375  C 27.7406015037595 137.375  19.4774436090225 137.375  19.4774436090225 137.375  C 19.4774436090225 137.375  18.296992481203 134.996212121212  18.296992481203 134.996212121212  C 18.296992481203 134.996212121212  13.5751879699247 133.806818181818  13.5751879699247 133.806818181818  C 13.5751879699247 133.806818181818  8.8533834586467 127.859848484849  8.8533834586467 127.859848484849  C 8.8533834586467 127.859848484849  8.8533834586467 110.018939393939  8.8533834586467 110.018939393939  C 8.8533834586467 110.018939393939  7.67293233082705 107.640151515152  7.67293233082705 107.640151515152  C 7.67293233082705 107.640151515152  6.49248120300763 108.829545454545  6.49248120300763 108.829545454545  C 6.49248120300763 108.829545454545  6.49248120300763 106.450757575758  6.49248120300763 106.450757575758  C 6.49248120300763 106.450757575758  4.13157894736844 107.640151515152  4.13157894736844 107.640151515152  C 4.13157894736844 107.640151515152  1.77067669172936 102.882575757576  1.77067669172936 102.882575757576  C 1.77067669172936 102.882575757576  2.9511278195489 94.5568181818181  2.9511278195489 94.5568181818181  C 2.9511278195489 94.5568181818181  0.590225563909826 90.9886363636365  0.590225563909826 90.9886363636365  C 0.590225563909826 90.9886363636365  0.590225563909826 71.9583333333334  0.590225563909826 71.9583333333334  C 0.590225563909826 71.9583333333334  2.9511278195489 67.2007575757576  2.9511278195489 67.2007575757576  C 2.9511278195489 67.2007575757576  1.77067669172936 61.2537878787879  1.77067669172936 61.2537878787879  C 1.77067669172936 61.2537878787879  5.31203007518798 56.4962121212121  5.31203007518798 56.4962121212121  C 5.31203007518798 56.4962121212121  5.31203007518798 51.7386363636365  5.31203007518798 51.7386363636365  C 5.31203007518798 51.7386363636365  10.0338345864661 42.2234848484849  10.0338345864661 42.2234848484849  C 10.0338345864661 42.2234848484849  8.8533834586467 36.2765151515152  8.8533834586467 36.2765151515152  C 8.8533834586467 36.2765151515152  11.2142857142857 33.8977272727274  11.2142857142857 33.8977272727274  C 11.2142857142857 33.8977272727274  12.3947368421052 27.9507575757576  12.3947368421052 27.9507575757576  C 12.3947368421052 27.9507575757576  11.2142857142857 16.0568181818181  11.2142857142857 16.0568181818181  C 11.2142857142857 16.0568181818181  13.5751879699247 13.6780303030304  13.5751879699247 13.6780303030304  C 13.5751879699247 13.6780303030304  14.7556390977444 16.0568181818181  14.7556390977444 16.0568181818181  C 14.7556390977444 16.0568181818181  21.8383458646616 13.6780303030304  21.8383458646616 13.6780303030304  C 21.8383458646616 13.6780303030304  27.7406015037595 25.5719696969696  27.7406015037595 25.5719696969696  C 27.7406015037595 25.5719696969696  32.4624060150376 13.6780303030304  32.4624060150376 13.6780303030304  C 32.4624060150376 13.6780303030304  38.3646616541354 12.4886363636365  38.3646616541354 12.4886363636365  C 38.3646616541354 12.4886363636365  38.3646616541354 10.1098484848485  38.3646616541354 10.1098484848485  C 38.3646616541354 10.1098484848485  46.6278195488721 13.6780303030304  46.6278195488721 13.6780303030304  C 46.6278195488721 13.6780303030304  46.6278195488721 19.625  46.6278195488721 19.625  C 46.6278195488721 19.625  50.1691729323308 18.435606060606  50.1691729323308 18.435606060606  C 50.1691729323308 18.435606060606  51.3496240601504 22.0037878787879  51.3496240601504 22.0037878787879  C 51.3496240601504 22.0037878787879  53.7105263157894 20.814393939394  53.7105263157894 20.814393939394  C 53.7105263157894 20.814393939394  53.7105263157894 26.7613636363635  53.7105263157894 26.7613636363635  C 53.7105263157894 26.7613636363635  56.0714285714286 26.7613636363635  56.0714285714286 26.7613636363635  C 56.0714285714286 26.7613636363635  54.890977443609 18.435606060606  54.890977443609 18.435606060606  C 54.890977443609 18.435606060606  61.9736842105264 18.435606060606  61.9736842105264 18.435606060606  C 61.9736842105264 18.435606060606  63.154135338346 16.0568181818181  63.154135338346 16.0568181818181  C 63.154135338346 16.0568181818181  65.515037593985 16.0568181818181  65.515037593985 16.0568181818181  C 65.515037593985 16.0568181818181  65.515037593985 11.2992424242424  65.515037593985 11.2992424242424  C 65.515037593985 11.2992424242424  60.7932330827067 7.73106060606062  60.7932330827067 7.73106060606062  C 60.7932330827067 7.73106060606062  59.6127819548872 8.9204545454545  59.6127819548872 8.9204545454545  C 59.6127819548872 8.9204545454545  59.6127819548872 6.54166666666663  59.6127819548872 6.54166666666663  C 59.6127819548872 6.54166666666663  61.9736842105264 6.54166666666663  61.9736842105264 6.54166666666663  C 61.9736842105264 6.54166666666663  60.7932330827067 2.97348484848476  60.7932330827067 2.97348484848476  C 60.7932330827067 2.97348484848476  64.3345864661653 0.594696969696997  64.3345864661653 0.594696969696997  C 64.3345864661653 0.594696969696997  67.875939849624 0.594696969696997  67.875939849624 0.594696969696997  C 67.875939849624 0.594696969696997  70.236842105263 2.97348484848476  70.236842105263 2.97348484848476  C 70.236842105263 2.97348484848476  69.0563909774436 5.35227272727275  69.0563909774436 5.35227272727275  C 69.0563909774436 5.35227272727275  72.5977443609022 4.16287878787887  72.5977443609022 4.16287878787887  C 72.5977443609022 4.16287878787887  79.6804511278195 8.9204545454545  79.6804511278195 8.9204545454545  C 79.6804511278195 8.9204545454545  86.7631578947369 5.35227272727275  86.7631578947369 5.35227272727275  C 86.7631578947369 5.35227272727275  89.124060150376 6.54166666666663  89.124060150376 6.54166666666663  C 89.124060150376 6.54166666666663  91.484962406015 1.78409090909099  91.484962406015 1.78409090909099  C 91.484962406015 1.78409090909099  96.2067669172933 2.97348484848476  96.2067669172933 2.97348484848476  Z " fill-rule="evenodd" />
    </mask>
  </defs>
  <g transform="matrix(1 0 0 1 -912 -651 )">
    <path d="M 96.2067669172933 2.97348484848476  C 96.2067669172933 2.97348484848476  98.5676691729324 2.97348484848476  98.5676691729324 2.97348484848476  C 98.5676691729324 2.97348484848476  99.7481203007518 4.16287878787887  99.7481203007518 4.16287878787887  C 99.7481203007518 4.16287878787887  97.3872180451128 5.35227272727275  97.3872180451128 5.35227272727275  C 97.3872180451128 5.35227272727275  99.7481203007518 6.54166666666663  99.7481203007518 6.54166666666663  C 99.7481203007518 6.54166666666663  104.46992481203 16.0568181818181  104.46992481203 16.0568181818181  C 104.46992481203 16.0568181818181  108.011278195489 16.0568181818181  108.011278195489 16.0568181818181  C 108.011278195489 16.0568181818181  110.372180451128 13.6780303030304  110.372180451128 13.6780303030304  C 110.372180451128 13.6780303030304  116.274436090226 22.0037878787879  116.274436090226 22.0037878787879  C 116.274436090226 22.0037878787879  106.830827067669 24.3825757575759  106.830827067669 24.3825757575759  C 106.830827067669 24.3825757575759  99.7481203007518 29.1401515151515  99.7481203007518 29.1401515151515  C 99.7481203007518 29.1401515151515  96.2067669172933 36.2765151515152  96.2067669172933 36.2765151515152  C 96.2067669172933 36.2765151515152  99.7481203007518 37.465909090909  99.7481203007518 37.465909090909  C 99.7481203007518 37.465909090909  97.3872180451128 37.465909090909  97.3872180451128 37.465909090909  C 97.3872180451128 37.465909090909  97.3872180451128 41.034090909091  97.3872180451128 41.034090909091  C 97.3872180451128 41.034090909091  99.7481203007518 42.2234848484849  99.7481203007518 42.2234848484849  C 99.7481203007518 42.2234848484849  98.5676691729324 44.6022727272727  98.5676691729324 44.6022727272727  C 98.5676691729324 44.6022727272727  96.2067669172933 44.6022727272727  96.2067669172933 44.6022727272727  C 96.2067669172933 44.6022727272727  97.3872180451128 46.9810606060606  97.3872180451128 46.9810606060606  C 97.3872180451128 46.9810606060606  110.372180451128 46.9810606060606  110.372180451128 46.9810606060606  C 110.372180451128 46.9810606060606  110.372180451128 49.3598484848485  110.372180451128 49.3598484848485  C 110.372180451128 49.3598484848485  117.454887218045 48.1704545454545  117.454887218045 48.1704545454545  C 117.454887218045 48.1704545454545  123.357142857143 42.2234848484849  123.357142857143 42.2234848484849  C 123.357142857143 42.2234848484849  126.898496240602 42.2234848484849  126.898496240602 42.2234848484849  C 126.898496240602 42.2234848484849  131.62030075188 49.3598484848485  131.62030075188 49.3598484848485  C 131.62030075188 49.3598484848485  133.981203007519 49.3598484848485  133.981203007519 49.3598484848485  C 133.981203007519 49.3598484848485  133.981203007519 51.7386363636365  133.981203007519 51.7386363636365  C 133.981203007519 51.7386363636365  131.62030075188 52.9280303030304  131.62030075188 52.9280303030304  C 131.62030075188 52.9280303030304  133.981203007519 57.6856060606061  133.981203007519 57.6856060606061  C 133.981203007519 57.6856060606061  138.703007518797 57.6856060606061  138.703007518797 57.6856060606061  C 138.703007518797 57.6856060606061  138.703007518797 63.6325757575759  138.703007518797 63.6325757575759  C 138.703007518797 63.6325757575759  149.327067669173 63.6325757575759  149.327067669173 63.6325757575759  C 149.327067669173 63.6325757575759  149.327067669173 73.1477272727273  149.327067669173 73.1477272727273  C 149.327067669173 73.1477272727273  151.687969924812 76.715909090909  151.687969924812 76.715909090909  C 151.687969924812 76.715909090909  155.229323308271 76.715909090909  155.229323308271 76.715909090909  C 155.229323308271 76.715909090909  156.40977443609 83.8522727272726  156.40977443609 83.8522727272726  C 156.40977443609 83.8522727272726  151.687969924812 86.2310606060606  151.687969924812 86.2310606060606  C 151.687969924812 86.2310606060606  150.507518796992 85.0416666666666  150.507518796992 85.0416666666666  C 150.507518796992 85.0416666666666  149.327067669173 89.7992424242424  149.327067669173 89.7992424242424  C 149.327067669173 89.7992424242424  154.048872180451 92.1780303030304  154.048872180451 92.1780303030304  C 154.048872180451 92.1780303030304  156.40977443609 96.935606060606  156.40977443609 96.935606060606  C 156.40977443609 96.935606060606  150.507518796992 98.125  150.507518796992 98.125  C 150.507518796992 98.125  146.966165413534 93.3674242424242  146.966165413534 93.3674242424242  C 146.966165413534 93.3674242424242  144.605263157895 94.5568181818181  144.605263157895 94.5568181818181  C 144.605263157895 94.5568181818181  139.883458646616 92.1780303030304  139.883458646616 92.1780303030304  C 139.883458646616 92.1780303030304  132.800751879699 94.5568181818181  132.800751879699 94.5568181818181  C 132.800751879699 94.5568181818181  129.259398496241 92.1780303030304  129.259398496241 92.1780303030304  C 129.259398496241 92.1780303030304  126.898496240602 94.5568181818181  126.898496240602 94.5568181818181  C 126.898496240602 94.5568181818181  124.537593984962 93.3674242424242  124.537593984962 93.3674242424242  C 124.537593984962 93.3674242424242  120.996240601504 83.8522727272726  120.996240601504 83.8522727272726  C 120.996240601504 83.8522727272726  118.635338345865 83.8522727272726  118.635338345865 83.8522727272726  C 118.635338345865 83.8522727272726  118.635338345865 86.2310606060606  118.635338345865 86.2310606060606  C 118.635338345865 86.2310606060606  108.011278195489 86.2310606060606  108.011278195489 86.2310606060606  C 108.011278195489 86.2310606060606  109.191729323308 89.7992424242424  109.191729323308 89.7992424242424  C 109.191729323308 89.7992424242424  106.830827067669 93.3674242424242  106.830827067669 93.3674242424242  C 106.830827067669 93.3674242424242  100.928571428571 95.7462121212121  100.928571428571 95.7462121212121  C 100.928571428571 95.7462121212121  100.928571428571 92.1780303030304  100.928571428571 92.1780303030304  C 100.928571428571 92.1780303030304  100.928571428571 96.935606060606  100.928571428571 96.935606060606  C 100.928571428571 96.935606060606  95.0263157894736 95.7462121212121  95.0263157894736 95.7462121212121  C 95.0263157894736 95.7462121212121  93.845864661654 101.693181818182  93.845864661654 101.693181818182  C 93.845864661654 101.693181818182  96.2067669172933 102.882575757576  96.2067669172933 102.882575757576  C 96.2067669172933 102.882575757576  96.2067669172933 105.261363636364  96.2067669172933 105.261363636364  C 96.2067669172933 105.261363636364  91.484962406015 107.640151515152  91.484962406015 107.640151515152  C 91.484962406015 107.640151515152  90.3045112781955 113.587121212121  90.3045112781955 113.587121212121  C 90.3045112781955 113.587121212121  79.6804511278195 112.397727272727  79.6804511278195 112.397727272727  C 79.6804511278195 112.397727272727  80.8609022556392 119.534090909091  80.8609022556392 119.534090909091  C 80.8609022556392 119.534090909091  77.3195488721805 119.534090909091  77.3195488721805 119.534090909091  C 77.3195488721805 119.534090909091  76.1390977443608 123.102272727273  76.1390977443608 123.102272727273  C 76.1390977443608 123.102272727273  72.5977443609022 121.912878787879  72.5977443609022 121.912878787879  C 72.5977443609022 121.912878787879  67.875939849624 124.291666666667  67.875939849624 124.291666666667  C 67.875939849624 124.291666666667  69.0563909774436 130.238636363636  69.0563909774436 130.238636363636  C 69.0563909774436 130.238636363636  63.154135338346 130.238636363636  63.154135338346 130.238636363636  C 63.154135338346 130.238636363636  63.154135338346 124.291666666667  63.154135338346 124.291666666667  C 63.154135338346 124.291666666667  57.2518796992482 123.102272727273  57.2518796992482 123.102272727273  C 57.2518796992482 123.102272727273  57.2518796992482 127.859848484849  57.2518796992482 127.859848484849  C 57.2518796992482 127.859848484849  61.9736842105264 131.42803030303  61.9736842105264 131.42803030303  C 61.9736842105264 131.42803030303  63.154135338346 134.996212121212  63.154135338346 134.996212121212  C 63.154135338346 134.996212121212  59.6127819548872 139.753787878788  59.6127819548872 139.753787878788  C 59.6127819548872 139.753787878788  64.3345864661653 138.564393939394  64.3345864661653 138.564393939394  C 64.3345864661653 138.564393939394  64.3345864661653 143.32196969697  64.3345864661653 143.32196969697  C 64.3345864661653 143.32196969697  69.0563909774436 140.943181818182  69.0563909774436 140.943181818182  C 69.0563909774436 140.943181818182  71.4172932330827 143.32196969697  71.4172932330827 143.32196969697  C 71.4172932330827 143.32196969697  71.4172932330827 152.837121212121  71.4172932330827 152.837121212121  C 71.4172932330827 152.837121212121  66.6954887218045 156.405303030303  66.6954887218045 156.405303030303  C 66.6954887218045 156.405303030303  58.4323308270676 152.837121212121  58.4323308270676 152.837121212121  C 58.4323308270676 152.837121212121  40.7255639097743 152.837121212121  40.7255639097743 152.837121212121  C 40.7255639097743 152.837121212121  33.6428571428572 148.079545454545  33.6428571428572 148.079545454545  C 33.6428571428572 148.079545454545  27.7406015037595 137.375  27.7406015037595 137.375  C 27.7406015037595 137.375  19.4774436090225 137.375  19.4774436090225 137.375  C 19.4774436090225 137.375  18.296992481203 134.996212121212  18.296992481203 134.996212121212  C 18.296992481203 134.996212121212  13.5751879699247 133.806818181818  13.5751879699247 133.806818181818  C 13.5751879699247 133.806818181818  8.8533834586467 127.859848484849  8.8533834586467 127.859848484849  C 8.8533834586467 127.859848484849  8.8533834586467 110.018939393939  8.8533834586467 110.018939393939  C 8.8533834586467 110.018939393939  7.67293233082705 107.640151515152  7.67293233082705 107.640151515152  C 7.67293233082705 107.640151515152  6.49248120300763 108.829545454545  6.49248120300763 108.829545454545  C 6.49248120300763 108.829545454545  6.49248120300763 106.450757575758  6.49248120300763 106.450757575758  C 6.49248120300763 106.450757575758  4.13157894736844 107.640151515152  4.13157894736844 107.640151515152  C 4.13157894736844 107.640151515152  1.77067669172936 102.882575757576  1.77067669172936 102.882575757576  C 1.77067669172936 102.882575757576  2.9511278195489 94.5568181818181  2.9511278195489 94.5568181818181  C 2.9511278195489 94.5568181818181  0.590225563909826 90.9886363636365  0.590225563909826 90.9886363636365  C 0.590225563909826 90.9886363636365  0.590225563909826 71.9583333333334  0.590225563909826 71.9583333333334  C 0.590225563909826 71.9583333333334  2.9511278195489 67.2007575757576  2.9511278195489 67.2007575757576  C 2.9511278195489 67.2007575757576  1.77067669172936 61.2537878787879  1.77067669172936 61.2537878787879  C 1.77067669172936 61.2537878787879  5.31203007518798 56.4962121212121  5.31203007518798 56.4962121212121  C 5.31203007518798 56.4962121212121  5.31203007518798 51.7386363636365  5.31203007518798 51.7386363636365  C 5.31203007518798 51.7386363636365  10.0338345864661 42.2234848484849  10.0338345864661 42.2234848484849  C 10.0338345864661 42.2234848484849  8.8533834586467 36.2765151515152  8.8533834586467 36.2765151515152  C 8.8533834586467 36.2765151515152  11.2142857142857 33.8977272727274  11.2142857142857 33.8977272727274  C 11.2142857142857 33.8977272727274  12.3947368421052 27.9507575757576  12.3947368421052 27.9507575757576  C 12.3947368421052 27.9507575757576  11.2142857142857 16.0568181818181  11.2142857142857 16.0568181818181  C 11.2142857142857 16.0568181818181  13.5751879699247 13.6780303030304  13.5751879699247 13.6780303030304  C 13.5751879699247 13.6780303030304  14.7556390977444 16.0568181818181  14.7556390977444 16.0568181818181  C 14.7556390977444 16.0568181818181  21.8383458646616 13.6780303030304  21.8383458646616 13.6780303030304  C 21.8383458646616 13.6780303030304  27.7406015037595 25.5719696969696  27.7406015037595 25.5719696969696  C 27.7406015037595 25.5719696969696  32.4624060150376 13.6780303030304  32.4624060150376 13.6780303030304  C 32.4624060150376 13.6780303030304  38.3646616541354 12.4886363636365  38.3646616541354 12.4886363636365  C 38.3646616541354 12.4886363636365  38.3646616541354 10.1098484848485  38.3646616541354 10.1098484848485  C 38.3646616541354 10.1098484848485  46.6278195488721 13.6780303030304  46.6278195488721 13.6780303030304  C 46.6278195488721 13.6780303030304  46.6278195488721 19.625  46.6278195488721 19.625  C 46.6278195488721 19.625  50.1691729323308 18.435606060606  50.1691729323308 18.435606060606  C 50.1691729323308 18.435606060606  51.3496240601504 22.0037878787879  51.3496240601504 22.0037878787879  C 51.3496240601504 22.0037878787879  53.7105263157894 20.814393939394  53.7105263157894 20.814393939394  C 53.7105263157894 20.814393939394  53.7105263157894 26.7613636363635  53.7105263157894 26.7613636363635  C 53.7105263157894 26.7613636363635  56.0714285714286 26.7613636363635  56.0714285714286 26.7613636363635  C 56.0714285714286 26.7613636363635  54.890977443609 18.435606060606  54.890977443609 18.435606060606  C 54.890977443609 18.435606060606  61.9736842105264 18.435606060606  61.9736842105264 18.435606060606  C 61.9736842105264 18.435606060606  63.154135338346 16.0568181818181  63.154135338346 16.0568181818181  C 63.154135338346 16.0568181818181  65.515037593985 16.0568181818181  65.515037593985 16.0568181818181  C 65.515037593985 16.0568181818181  65.515037593985 11.2992424242424  65.515037593985 11.2992424242424  C 65.515037593985 11.2992424242424  60.7932330827067 7.73106060606062  60.7932330827067 7.73106060606062  C 60.7932330827067 7.73106060606062  59.6127819548872 8.9204545454545  59.6127819548872 8.9204545454545  C 59.6127819548872 8.9204545454545  59.6127819548872 6.54166666666663  59.6127819548872 6.54166666666663  C 59.6127819548872 6.54166666666663  61.9736842105264 6.54166666666663  61.9736842105264 6.54166666666663  C 61.9736842105264 6.54166666666663  60.7932330827067 2.97348484848476  60.7932330827067 2.97348484848476  C 60.7932330827067 2.97348484848476  64.3345864661653 0.594696969696997  64.3345864661653 0.594696969696997  C 64.3345864661653 0.594696969696997  67.875939849624 0.594696969696997  67.875939849624 0.594696969696997  C 67.875939849624 0.594696969696997  70.236842105263 2.97348484848476  70.236842105263 2.97348484848476  C 70.236842105263 2.97348484848476  69.0563909774436 5.35227272727275  69.0563909774436 5.35227272727275  C 69.0563909774436 5.35227272727275  72.5977443609022 4.16287878787887  72.5977443609022 4.16287878787887  C 72.5977443609022 4.16287878787887  79.6804511278195 8.9204545454545  79.6804511278195 8.9204545454545  C 79.6804511278195 8.9204545454545  86.7631578947369 5.35227272727275  86.7631578947369 5.35227272727275  C 86.7631578947369 5.35227272727275  89.124060150376 6.54166666666663  89.124060150376 6.54166666666663  C 89.124060150376 6.54166666666663  91.484962406015 1.78409090909099  91.484962406015 1.78409090909099  C 91.484962406015 1.78409090909099  96.2067669172933 2.97348484848476  96.2067669172933 2.97348484848476  Z " fill-rule="nonzero" fill="#0033ff" stroke="none" fill-opacity="0" transform="matrix(1 0 0 1 912 651 )" />
    <path d="M 96.2067669172933 2.97348484848476  C 96.2067669172933 2.97348484848476  98.5676691729324 2.97348484848476  98.5676691729324 2.97348484848476  C 98.5676691729324 2.97348484848476  99.7481203007518 4.16287878787887  99.7481203007518 4.16287878787887  C 99.7481203007518 4.16287878787887  97.3872180451128 5.35227272727275  97.3872180451128 5.35227272727275  C 97.3872180451128 5.35227272727275  99.7481203007518 6.54166666666663  99.7481203007518 6.54166666666663  C 99.7481203007518 6.54166666666663  104.46992481203 16.0568181818181  104.46992481203 16.0568181818181  C 104.46992481203 16.0568181818181  108.011278195489 16.0568181818181  108.011278195489 16.0568181818181  C 108.011278195489 16.0568181818181  110.372180451128 13.6780303030304  110.372180451128 13.6780303030304  C 110.372180451128 13.6780303030304  116.274436090226 22.0037878787879  116.274436090226 22.0037878787879  C 116.274436090226 22.0037878787879  106.830827067669 24.3825757575759  106.830827067669 24.3825757575759  C 106.830827067669 24.3825757575759  99.7481203007518 29.1401515151515  99.7481203007518 29.1401515151515  C 99.7481203007518 29.1401515151515  96.2067669172933 36.2765151515152  96.2067669172933 36.2765151515152  C 96.2067669172933 36.2765151515152  99.7481203007518 37.465909090909  99.7481203007518 37.465909090909  C 99.7481203007518 37.465909090909  97.3872180451128 37.465909090909  97.3872180451128 37.465909090909  C 97.3872180451128 37.465909090909  97.3872180451128 41.034090909091  97.3872180451128 41.034090909091  C 97.3872180451128 41.034090909091  99.7481203007518 42.2234848484849  99.7481203007518 42.2234848484849  C 99.7481203007518 42.2234848484849  98.5676691729324 44.6022727272727  98.5676691729324 44.6022727272727  C 98.5676691729324 44.6022727272727  96.2067669172933 44.6022727272727  96.2067669172933 44.6022727272727  C 96.2067669172933 44.6022727272727  97.3872180451128 46.9810606060606  97.3872180451128 46.9810606060606  C 97.3872180451128 46.9810606060606  110.372180451128 46.9810606060606  110.372180451128 46.9810606060606  C 110.372180451128 46.9810606060606  110.372180451128 49.3598484848485  110.372180451128 49.3598484848485  C 110.372180451128 49.3598484848485  117.454887218045 48.1704545454545  117.454887218045 48.1704545454545  C 117.454887218045 48.1704545454545  123.357142857143 42.2234848484849  123.357142857143 42.2234848484849  C 123.357142857143 42.2234848484849  126.898496240602 42.2234848484849  126.898496240602 42.2234848484849  C 126.898496240602 42.2234848484849  131.62030075188 49.3598484848485  131.62030075188 49.3598484848485  C 131.62030075188 49.3598484848485  133.981203007519 49.3598484848485  133.981203007519 49.3598484848485  C 133.981203007519 49.3598484848485  133.981203007519 51.7386363636365  133.981203007519 51.7386363636365  C 133.981203007519 51.7386363636365  131.62030075188 52.9280303030304  131.62030075188 52.9280303030304  C 131.62030075188 52.9280303030304  133.981203007519 57.6856060606061  133.981203007519 57.6856060606061  C 133.981203007519 57.6856060606061  138.703007518797 57.6856060606061  138.703007518797 57.6856060606061  C 138.703007518797 57.6856060606061  138.703007518797 63.6325757575759  138.703007518797 63.6325757575759  C 138.703007518797 63.6325757575759  149.327067669173 63.6325757575759  149.327067669173 63.6325757575759  C 149.327067669173 63.6325757575759  149.327067669173 73.1477272727273  149.327067669173 73.1477272727273  C 149.327067669173 73.1477272727273  151.687969924812 76.715909090909  151.687969924812 76.715909090909  C 151.687969924812 76.715909090909  155.229323308271 76.715909090909  155.229323308271 76.715909090909  C 155.229323308271 76.715909090909  156.40977443609 83.8522727272726  156.40977443609 83.8522727272726  C 156.40977443609 83.8522727272726  151.687969924812 86.2310606060606  151.687969924812 86.2310606060606  C 151.687969924812 86.2310606060606  150.507518796992 85.0416666666666  150.507518796992 85.0416666666666  C 150.507518796992 85.0416666666666  149.327067669173 89.7992424242424  149.327067669173 89.7992424242424  C 149.327067669173 89.7992424242424  154.048872180451 92.1780303030304  154.048872180451 92.1780303030304  C 154.048872180451 92.1780303030304  156.40977443609 96.935606060606  156.40977443609 96.935606060606  C 156.40977443609 96.935606060606  150.507518796992 98.125  150.507518796992 98.125  C 150.507518796992 98.125  146.966165413534 93.3674242424242  146.966165413534 93.3674242424242  C 146.966165413534 93.3674242424242  144.605263157895 94.5568181818181  144.605263157895 94.5568181818181  C 144.605263157895 94.5568181818181  139.883458646616 92.1780303030304  139.883458646616 92.1780303030304  C 139.883458646616 92.1780303030304  132.800751879699 94.5568181818181  132.800751879699 94.5568181818181  C 132.800751879699 94.5568181818181  129.259398496241 92.1780303030304  129.259398496241 92.1780303030304  C 129.259398496241 92.1780303030304  126.898496240602 94.5568181818181  126.898496240602 94.5568181818181  C 126.898496240602 94.5568181818181  124.537593984962 93.3674242424242  124.537593984962 93.3674242424242  C 124.537593984962 93.3674242424242  120.996240601504 83.8522727272726  120.996240601504 83.8522727272726  C 120.996240601504 83.8522727272726  118.635338345865 83.8522727272726  118.635338345865 83.8522727272726  C 118.635338345865 83.8522727272726  118.635338345865 86.2310606060606  118.635338345865 86.2310606060606  C 118.635338345865 86.2310606060606  108.011278195489 86.2310606060606  108.011278195489 86.2310606060606  C 108.011278195489 86.2310606060606  109.191729323308 89.7992424242424  109.191729323308 89.7992424242424  C 109.191729323308 89.7992424242424  106.830827067669 93.3674242424242  106.830827067669 93.3674242424242  C 106.830827067669 93.3674242424242  100.928571428571 95.7462121212121  100.928571428571 95.7462121212121  C 100.928571428571 95.7462121212121  100.928571428571 92.1780303030304  100.928571428571 92.1780303030304  C 100.928571428571 92.1780303030304  100.928571428571 96.935606060606  100.928571428571 96.935606060606  C 100.928571428571 96.935606060606  95.0263157894736 95.7462121212121  95.0263157894736 95.7462121212121  C 95.0263157894736 95.7462121212121  93.845864661654 101.693181818182  93.845864661654 101.693181818182  C 93.845864661654 101.693181818182  96.2067669172933 102.882575757576  96.2067669172933 102.882575757576  C 96.2067669172933 102.882575757576  96.2067669172933 105.261363636364  96.2067669172933 105.261363636364  C 96.2067669172933 105.261363636364  91.484962406015 107.640151515152  91.484962406015 107.640151515152  C 91.484962406015 107.640151515152  90.3045112781955 113.587121212121  90.3045112781955 113.587121212121  C 90.3045112781955 113.587121212121  79.6804511278195 112.397727272727  79.6804511278195 112.397727272727  C 79.6804511278195 112.397727272727  80.8609022556392 119.534090909091  80.8609022556392 119.534090909091  C 80.8609022556392 119.534090909091  77.3195488721805 119.534090909091  77.3195488721805 119.534090909091  C 77.3195488721805 119.534090909091  76.1390977443608 123.102272727273  76.1390977443608 123.102272727273  C 76.1390977443608 123.102272727273  72.5977443609022 121.912878787879  72.5977443609022 121.912878787879  C 72.5977443609022 121.912878787879  67.875939849624 124.291666666667  67.875939849624 124.291666666667  C 67.875939849624 124.291666666667  69.0563909774436 130.238636363636  69.0563909774436 130.238636363636  C 69.0563909774436 130.238636363636  63.154135338346 130.238636363636  63.154135338346 130.238636363636  C 63.154135338346 130.238636363636  63.154135338346 124.291666666667  63.154135338346 124.291666666667  C 63.154135338346 124.291666666667  57.2518796992482 123.102272727273  57.2518796992482 123.102272727273  C 57.2518796992482 123.102272727273  57.2518796992482 127.859848484849  57.2518796992482 127.859848484849  C 57.2518796992482 127.859848484849  61.9736842105264 131.42803030303  61.9736842105264 131.42803030303  C 61.9736842105264 131.42803030303  63.154135338346 134.996212121212  63.154135338346 134.996212121212  C 63.154135338346 134.996212121212  59.6127819548872 139.753787878788  59.6127819548872 139.753787878788  C 59.6127819548872 139.753787878788  64.3345864661653 138.564393939394  64.3345864661653 138.564393939394  C 64.3345864661653 138.564393939394  64.3345864661653 143.32196969697  64.3345864661653 143.32196969697  C 64.3345864661653 143.32196969697  69.0563909774436 140.943181818182  69.0563909774436 140.943181818182  C 69.0563909774436 140.943181818182  71.4172932330827 143.32196969697  71.4172932330827 143.32196969697  C 71.4172932330827 143.32196969697  71.4172932330827 152.837121212121  71.4172932330827 152.837121212121  C 71.4172932330827 152.837121212121  66.6954887218045 156.405303030303  66.6954887218045 156.405303030303  C 66.6954887218045 156.405303030303  58.4323308270676 152.837121212121  58.4323308270676 152.837121212121  C 58.4323308270676 152.837121212121  40.7255639097743 152.837121212121  40.7255639097743 152.837121212121  C 40.7255639097743 152.837121212121  33.6428571428572 148.079545454545  33.6428571428572 148.079545454545  C 33.6428571428572 148.079545454545  27.7406015037595 137.375  27.7406015037595 137.375  C 27.7406015037595 137.375  19.4774436090225 137.375  19.4774436090225 137.375  C 19.4774436090225 137.375  18.296992481203 134.996212121212  18.296992481203 134.996212121212  C 18.296992481203 134.996212121212  13.5751879699247 133.806818181818  13.5751879699247 133.806818181818  C 13.5751879699247 133.806818181818  8.8533834586467 127.859848484849  8.8533834586467 127.859848484849  C 8.8533834586467 127.859848484849  8.8533834586467 110.018939393939  8.8533834586467 110.018939393939  C 8.8533834586467 110.018939393939  7.67293233082705 107.640151515152  7.67293233082705 107.640151515152  C 7.67293233082705 107.640151515152  6.49248120300763 108.829545454545  6.49248120300763 108.829545454545  C 6.49248120300763 108.829545454545  6.49248120300763 106.450757575758  6.49248120300763 106.450757575758  C 6.49248120300763 106.450757575758  4.13157894736844 107.640151515152  4.13157894736844 107.640151515152  C 4.13157894736844 107.640151515152  1.77067669172936 102.882575757576  1.77067669172936 102.882575757576  C 1.77067669172936 102.882575757576  2.9511278195489 94.5568181818181  2.9511278195489 94.5568181818181  C 2.9511278195489 94.5568181818181  0.590225563909826 90.9886363636365  0.590225563909826 90.9886363636365  C 0.590225563909826 90.9886363636365  0.590225563909826 71.9583333333334  0.590225563909826 71.9583333333334  C 0.590225563909826 71.9583333333334  2.9511278195489 67.2007575757576  2.9511278195489 67.2007575757576  C 2.9511278195489 67.2007575757576  1.77067669172936 61.2537878787879  1.77067669172936 61.2537878787879  C 1.77067669172936 61.2537878787879  5.31203007518798 56.4962121212121  5.31203007518798 56.4962121212121  C 5.31203007518798 56.4962121212121  5.31203007518798 51.7386363636365  5.31203007518798 51.7386363636365  C 5.31203007518798 51.7386363636365  10.0338345864661 42.2234848484849  10.0338345864661 42.2234848484849  C 10.0338345864661 42.2234848484849  8.8533834586467 36.2765151515152  8.8533834586467 36.2765151515152  C 8.8533834586467 36.2765151515152  11.2142857142857 33.8977272727274  11.2142857142857 33.8977272727274  C 11.2142857142857 33.8977272727274  12.3947368421052 27.9507575757576  12.3947368421052 27.9507575757576  C 12.3947368421052 27.9507575757576  11.2142857142857 16.0568181818181  11.2142857142857 16.0568181818181  C 11.2142857142857 16.0568181818181  13.5751879699247 13.6780303030304  13.5751879699247 13.6780303030304  C 13.5751879699247 13.6780303030304  14.7556390977444 16.0568181818181  14.7556390977444 16.0568181818181  C 14.7556390977444 16.0568181818181  21.8383458646616 13.6780303030304  21.8383458646616 13.6780303030304  C 21.8383458646616 13.6780303030304  27.7406015037595 25.5719696969696  27.7406015037595 25.5719696969696  C 27.7406015037595 25.5719696969696  32.4624060150376 13.6780303030304  32.4624060150376 13.6780303030304  C 32.4624060150376 13.6780303030304  38.3646616541354 12.4886363636365  38.3646616541354 12.4886363636365  C 38.3646616541354 12.4886363636365  38.3646616541354 10.1098484848485  38.3646616541354 10.1098484848485  C 38.3646616541354 10.1098484848485  46.6278195488721 13.6780303030304  46.6278195488721 13.6780303030304  C 46.6278195488721 13.6780303030304  46.6278195488721 19.625  46.6278195488721 19.625  C 46.6278195488721 19.625  50.1691729323308 18.435606060606  50.1691729323308 18.435606060606  C 50.1691729323308 18.435606060606  51.3496240601504 22.0037878787879  51.3496240601504 22.0037878787879  C 51.3496240601504 22.0037878787879  53.7105263157894 20.814393939394  53.7105263157894 20.814393939394  C 53.7105263157894 20.814393939394  53.7105263157894 26.7613636363635  53.7105263157894 26.7613636363635  C 53.7105263157894 26.7613636363635  56.0714285714286 26.7613636363635  56.0714285714286 26.7613636363635  C 56.0714285714286 26.7613636363635  54.890977443609 18.435606060606  54.890977443609 18.435606060606  C 54.890977443609 18.435606060606  61.9736842105264 18.435606060606  61.9736842105264 18.435606060606  C 61.9736842105264 18.435606060606  63.154135338346 16.0568181818181  63.154135338346 16.0568181818181  C 63.154135338346 16.0568181818181  65.515037593985 16.0568181818181  65.515037593985 16.0568181818181  C 65.515037593985 16.0568181818181  65.515037593985 11.2992424242424  65.515037593985 11.2992424242424  C 65.515037593985 11.2992424242424  60.7932330827067 7.73106060606062  60.7932330827067 7.73106060606062  C 60.7932330827067 7.73106060606062  59.6127819548872 8.9204545454545  59.6127819548872 8.9204545454545  C 59.6127819548872 8.9204545454545  59.6127819548872 6.54166666666663  59.6127819548872 6.54166666666663  C 59.6127819548872 6.54166666666663  61.9736842105264 6.54166666666663  61.9736842105264 6.54166666666663  C 61.9736842105264 6.54166666666663  60.7932330827067 2.97348484848476  60.7932330827067 2.97348484848476  C 60.7932330827067 2.97348484848476  64.3345864661653 0.594696969696997  64.3345864661653 0.594696969696997  C 64.3345864661653 0.594696969696997  67.875939849624 0.594696969696997  67.875939849624 0.594696969696997  C 67.875939849624 0.594696969696997  70.236842105263 2.97348484848476  70.236842105263 2.97348484848476  C 70.236842105263 2.97348484848476  69.0563909774436 5.35227272727275  69.0563909774436 5.35227272727275  C 69.0563909774436 5.35227272727275  72.5977443609022 4.16287878787887  72.5977443609022 4.16287878787887  C 72.5977443609022 4.16287878787887  79.6804511278195 8.9204545454545  79.6804511278195 8.9204545454545  C 79.6804511278195 8.9204545454545  86.7631578947369 5.35227272727275  86.7631578947369 5.35227272727275  C 86.7631578947369 5.35227272727275  89.124060150376 6.54166666666663  89.124060150376 6.54166666666663  C 89.124060150376 6.54166666666663  91.484962406015 1.78409090909099  91.484962406015 1.78409090909099  C 91.484962406015 1.78409090909099  96.2067669172933 2.97348484848476  96.2067669172933 2.97348484848476  Z " stroke-width="2" stroke-dasharray="1,1" stroke="#999999" fill="none" transform="matrix(1 0 0 1 912 651 )" mask="url(#clip2028)" />
  </g>
</svg>