<?xml version="1.0" encoding="utf-8"?>
<svg version="1.1" xmlns:xlink="http://www.w3.org/1999/xlink" width="30px" height="24px" xmlns="http://www.w3.org/2000/svg">
  <g transform="matrix(1 0 0 1 -1796 -17 )">
    <path d="M 3.27640731102514 19.1364559026234  C 3.44954778246841 19.3085779007054  3.66390867714063 19.4147472216211  3.88751416753524 19.454963898633  C 3.97572224959629 22.0036134494405  5.88189590866955 23.7607421147592  8.54020164573456 24  L 25.2512060419159 24  L 25.3113564038402 23.9644721757452  C 27.7960290464104 23.8393404907975  30 21.7090498543719  30 19.268981997893  C 30 16.9067399454669  28.3990749826271 14.7505073743571  26.0115683093194 14.1492648881453  L 25.7617129597871 14.092803030303  L 25.7123588166697 13.7616618640392  C 25.072297273115 9.93446350003098  22.3115498924815 7.52491556671004  19.910162366422 7.52491556671004  C 18.3539645412493 7.52491556671004  17.0830953559744 7.91251859081614  16.0571093646334 8.62095838651021  C 15.1255384430042 6.88169864625457  13.2934957376464 5.69865633205949  11.1850808110941 5.69865633205949  C 8.13666313323239 5.69865633205949  5.66501393132091 8.17030553397109  5.66501393132091 11.2187232118327  C 5.66501393132091 12.6281612470352  6.19419415873688 13.914347178637  7.06452469546525 14.890513038277  C 7.03085390875862 14.9057695579717  6.99734158183372 14.9211626677296  6.96395369992035 14.9366789056206  C 6.70638676552613 15.0557066059367  6.46424300085602 15.1838902832001  6.22301939661418 15.3309683679959  C 5.84139350654635 15.2359432528975  5.42231002954861 15.3375694312596  5.12448221825781 15.6365885537957  L 3.27489744590491 17.4861733261485  L 3.17826607820649 17.5948836148093  C 2.81438858421706 18.0584122067377  2.8566648075851 18.7212429945442  3.27640731102514 19.1364559026234  Z M 19.0937543111631 3.31004971176375  C 18.6392849099563 2.8586000407976  17.9039805963761 2.8586000407976  17.4510210602897 3.31306944200432  L 15.6029461530571 5.16114434923693  L 15.5063147853587 5.26985463789767  C 15.1484767518503 5.73187336470583  15.1907529752183 6.38715482691086  15.6029461530571 6.80085786986978  C 16.0559056891435 7.2553272710765  16.7912100027238 7.25683713619679  17.2471892690508 6.80387760011036  L 19.0967740414037 4.95429282775747  L 19.1934054091021 4.84558253909672  C 19.5497335774901 4.38054408204799  19.507457354122 3.72375275472267  19.0937543111631 3.31004971176375  Z M 1.16108627750145 12.3953488372093  L 3.77617266584042 12.3953488372093  L 3.91206052666644 12.3737700288531  C 4.49637832821782 12.3043162333198  4.93574907822182 11.8090804738654  4.93725894334204 11.2217429420733  C 4.93725894334204 10.5800502659509  4.41786534196297 10.0591467994515  3.77617266584042 9.97674418604651  L 1.16108627750145 9.97674418604651  L 1.02519841667561 10.0651862599326  C 0.440880615124058 10.1346400554659  0 10.6298758149204  0 11.2187232118327  C 0 11.8604158879552  0.519393601379079 12.3813193544545  1.16108627750145 12.3953488372093  Z M 3.27489744590491 3.31004971176375  C 2.82193790981836 3.76451911297045  2.82042804469813 4.50284315679133  3.27489744590491 4.95731255799804  L 5.12448221825781 6.80387760011036  L 5.23470237203878 6.89899910268852  C 5.69672109884687 7.25683713619679  6.35200256105196 7.21456091282872  6.76570560401092 6.80236773499007  C 7.22017500521753 6.34940819890365  7.22168487033792 5.61410388532336  6.76872533425154 5.15812461899636  L 4.91763069677825 3.31004971176375  L 4.8089204081175 3.21341834406531  C 4.34690168130942 2.85407044543674  3.6886004888637 2.8963466688048  3.27489744590491 3.31004971176375  Z M 12.2441860465116 3.8098150665791  L 12.2441860465116 1.19623854336042  L 12.3401276281145 1.06035068253449  C 12.2691639674609 0.474523015862724  11.7739282080065 0.0336424007385965  11.1850808110941 0.0336424007385965  C 10.5433881349717 0.0336424007385965  10.0224846684723 0.554545867237993  9.97674418604646 1.19623854336042  L 9.97674418604646 3.81132493169939  L 10.0300339940737 3.94721279252531  C 10.0994877896071 4.5315305940768  10.5947235490615 4.97090134408064  11.1835709459739 4.97090134408064  C 11.8252636220963 4.97090134408064  12.3461670885957 4.45150774270153  12.2441860465116 3.8098150665791  Z M 11.1850808110941 8.02384861730313  C 12.7196252770958 8.02384861730313  14.0001910663104 9.10492015776192  14.3092406807211 10.5470299578099  C 14.2874720265451 10.5844059934863  14.2661436432463 10.6218293731534  14.2452321267198 10.6593116750325  C 14.1496084744297 10.8302232447171  14.0616964070016 11.0041868067175  13.9799536074634 11.1842543533494  C 13.0422248882315 10.8103852946644  12.0751921465235 10.682201617401  11.1066170878432 10.9400949680858  C 10.9014889305111 10.9950308297701  10.699445407124 11.0682786453492  10.5035711516265 11.1583124186652  C 9.63421801766219 11.5504841583998  8.94082927845153 12.113972598398  8.42878447835886 12.8314792370964  C 8.15064493661953 12.3581512183286  7.99020621656462 11.8080356214728  7.99020621656462 11.220233076953  C 7.99020621656462 9.45520075133624  9.42004848547731 8.02384861730313  11.1850808110941 8.02384861730313  Z M 23.4713722557421 15.1945722563054  C 23.4898800594111 15.829386657991  24.0158101470066 16.3344913862552  24.6589563245061 16.3344913862552  C 26.3925206015073 16.3344913862552  27.6263741794441 17.7200958976266  27.6263741794441 19.2705079940509  C 27.6263741794441 20.3554912623164  26.5745140042531 21.4313185536345  25.3961838373233 21.5991781310033  L 25.2188173854951 21.6174900848981  L 12.1060384859719 21.6174900848981  L 9.90515216632718 21.6174900848981  L 8.63119834710739 21.6174900848981  C 7.17987807605931 21.5030403730557  6.25757252655148 20.6271185784223  6.25757252655148 19.2705079940509  C 6.25757252655148 18.0939649563116  7.05649271826564 17.2607710540993  8.97513503195739 16.6869964987296  C 9.15712843470305 16.6320606370453  9.31752939983477 16.5359228790977  9.45016865946303 16.4107911941501  C 9.64141596404312 16.2307236475181  9.77097058972646 15.9911422507281  9.80798619706468 15.7225669269381  C 9.89281363054783 15.1091164714631  10.0701800823763 14.6131677201463  10.3493394543844 14.213356726777  C 10.6284988263926 13.8135457334077  11.0079088016082 13.5129244903018  11.4983655988379 13.2916550474066  C 11.5801083983764 13.255031139617  11.6525972960802 13.2275632087749  11.7281708277287 13.2077252587222  C 12.153850312117 13.0932755468798  12.6720688148503 13.18025732788  13.2195913400598 13.4167867323542  C 13.2519799964806 13.4305206977753  13.2859109698739 13.4442546631964  13.3182996262947 13.4595146247754  C 13.5373086363786 13.5617563673545  14.0709503088362 13.8806895643552  14.1542354253469 13.9112094875132  C 14.8390241611019 14.1629988535663  15.312515471635 13.8593256181446  15.6024710624503 13.4335726900911  C 15.6533675225401 13.3587988783541  15.6919254468506 13.2886030550908  15.7273987372164 13.2123032471959  L 15.7798375142787 13.090223554564  C 15.8168531216168 13.0001897812481  15.9448654303276 12.6431066802999  15.9602886000519 12.6003787878788  L 16.0651661541766 12.3348554564045  C 16.1947207798599 12.0128702670881  16.359748695909 11.7061450393506  16.5571652683788 11.4192577616657  C 16.5833846569099 11.3811078577183  16.6111463624135 11.3444839499287  16.6389080679172 11.3078600421392  C 16.8933903683666 10.9675628989279  17.1925998610163 10.682201617401  17.5488750816455 10.45788018219  C 18.1503787008897 10.0794331350313  18.9169102361828 9.87342365371507  19.910162366422 9.87342365371507  C 20.2602683191615 9.87342365371507  21.1070003370206 10.2564486893475  21.7917890727755 10.9141530334015  C 21.9861210113006 11.1003245646651  22.1650297801015 11.3032820536655  22.3285153791781 11.5214995042449  C 23.0117617979606 12.4370971989837  23.4251027465695 13.6487381483547  23.4713722557421 15.1945722563054  Z " fill-rule="nonzero" fill="#ffffff" stroke="none" transform="matrix(1 0 0 1 1796 17 )" />
  </g>
</svg>