<?xml version="1.0" encoding="utf-8"?>
<svg version="1.1" xmlns:xlink="http://www.w3.org/1999/xlink" width="269px" height="248px" xmlns="http://www.w3.org/2000/svg">
  <defs>
    <mask fill="white" id="clip2041">
      <path d="M 64.6568181818182 1.77272727272728  C 64.6568181818182 1.77272727272728  67.0295454545455 0.590909090909122  67.0295454545455 0.590909090909122  C 67.0295454545455 0.590909090909122  70.5886363636364 1.77272727272728  70.5886363636364 1.77272727272728  C 70.5886363636364 1.77272727272728  70.5886363636364 10.0454545454546  70.5886363636364 10.0454545454546  C 70.5886363636364 10.0454545454546  78.8931818181818 11.2272727272727  78.8931818181818 11.2272727272727  C 78.8931818181818 11.2272727272727  78.8931818181818 20.6818181818182  78.8931818181818 20.6818181818182  C 78.8931818181818 20.6818181818182  80.0795454545453 23.0454545454545  80.0795454545453 23.0454545454545  C 80.0795454545453 23.0454545454545  83.6386363636366 24.2272727272727  83.6386363636366 24.2272727272727  C 83.6386363636366 24.2272727272727  84.825 28.9545454545454  84.825 28.9545454545454  C 84.825 28.9545454545454  91.9431818181818 34.8636363636364  91.9431818181818 34.8636363636364  C 91.9431818181818 34.8636363636364  91.9431818181818 37.2272727272727  91.9431818181818 37.2272727272727  C 91.9431818181818 37.2272727272727  103.806818181818 43.1363636363636  103.806818181818 43.1363636363636  C 103.806818181818 43.1363636363636  107.365909090909 41.9545454545454  107.365909090909 41.9545454545454  C 107.365909090909 41.9545454545454  112.111363636363 44.3181818181819  112.111363636363 44.3181818181819  C 112.111363636363 44.3181818181819  115.670454545455 40.7727272727273  115.670454545455 40.7727272727273  C 115.670454545455 40.7727272727273  125.161363636364 40.7727272727273  125.161363636364 40.7727272727273  C 125.161363636364 40.7727272727273  137.025 37.2272727272727  137.025 37.2272727272727  C 137.025 37.2272727272727  139.397727272727 40.7727272727273  139.397727272727 40.7727272727273  C 139.397727272727 40.7727272727273  153.634090909091 40.7727272727273  153.634090909091 40.7727272727273  C 153.634090909091 40.7727272727273  157.193181818182 43.1363636363636  157.193181818182 43.1363636363636  C 157.193181818182 43.1363636363636  165.497727272727 41.9545454545454  165.497727272727 41.9545454545454  C 165.497727272727 41.9545454545454  177.361363636364 50.2272727272727  177.361363636364 50.2272727272727  C 177.361363636364 50.2272727272727  183.293181818182 47.8636363636364  183.293181818182 47.8636363636364  C 183.293181818182 47.8636363636364  191.597727272727 56.1363636363636  191.597727272727 56.1363636363636  C 191.597727272727 56.1363636363636  201.088636363636 57.3181818181818  201.088636363636 57.3181818181818  C 201.088636363636 57.3181818181818  204.647727272727 56.1363636363636  204.647727272727 56.1363636363636  C 204.647727272727 56.1363636363636  208.206818181818 51.4090909090909  208.206818181818 51.4090909090909  C 208.206818181818 51.4090909090909  212.952272727273 51.4090909090909  212.952272727273 51.4090909090909  C 212.952272727273 51.4090909090909  221.256818181818 46.6818181818182  221.256818181818 46.6818181818182  C 221.256818181818 46.6818181818182  228.375 45.4999999999999  228.375 45.4999999999999  C 228.375 45.4999999999999  231.934090909091 45.4999999999999  231.934090909091 45.4999999999999  C 231.934090909091 45.4999999999999  237.865909090909 50.2272727272727  237.865909090909 50.2272727272727  C 237.865909090909 50.2272727272727  244.984090909091 51.4090909090909  244.984090909091 51.4090909090909  C 244.984090909091 51.4090909090909  250.915909090909 49.0454545454546  250.915909090909 49.0454545454546  C 250.915909090909 49.0454545454546  254.475 50.2272727272727  254.475 50.2272727272727  C 254.475 50.2272727272727  260.406818181818 56.1363636363636  260.406818181818 56.1363636363636  C 260.406818181818 56.1363636363636  260.406818181818 58.5  260.406818181818 58.5  C 260.406818181818 58.5  256.847727272727 59.6818181818182  256.847727272727 59.6818181818182  C 256.847727272727 59.6818181818182  258.034090909091 62.0454545454545  258.034090909091 62.0454545454545  C 258.034090909091 62.0454545454545  255.661363636364 66.7727272727273  255.661363636364 66.7727272727273  C 255.661363636364 66.7727272727273  249.729545454546 66.7727272727273  249.729545454546 66.7727272727273  C 249.729545454546 66.7727272727273  244.984090909091 59.6818181818182  244.984090909091 59.6818181818182  C 244.984090909091 59.6818181818182  240.238636363636 59.6818181818182  240.238636363636 59.6818181818182  C 240.238636363636 59.6818181818182  242.611363636364 60.8636363636364  242.611363636364 60.8636363636364  C 242.611363636364 60.8636363636364  240.238636363636 69.1363636363636  240.238636363636 69.1363636363636  C 240.238636363636 69.1363636363636  236.679545454546 70.3181818181819  236.679545454546 70.3181818181819  C 236.679545454546 70.3181818181819  234.306818181818 65.5909090909091  234.306818181818 65.5909090909091  C 234.306818181818 65.5909090909091  231.934090909091 66.7727272727273  231.934090909091 66.7727272727273  C 231.934090909091 66.7727272727273  233.120454545455 71.5  233.120454545455 71.5  C 233.120454545455 71.5  229.561363636364 78.5909090909091  229.561363636364 78.5909090909091  C 229.561363636364 78.5909090909091  234.306818181818 89.2272727272727  234.306818181818 89.2272727272727  C 234.306818181818 89.2272727272727  231.934090909091 92.7727272727273  231.934090909091 92.7727272727273  C 231.934090909091 92.7727272727273  226.002272727273 91.5909090909091  226.002272727273 91.5909090909091  C 226.002272727273 91.5909090909091  222.443181818182 96.3181818181818  222.443181818182 96.3181818181818  C 222.443181818182 96.3181818181818  218.884090909091 95.1363636363636  218.884090909091 95.1363636363636  C 218.884090909091 95.1363636363636  215.325 90.4090909090909  215.325 90.4090909090909  C 215.325 90.4090909090909  208.206818181818 88.0454545454546  208.206818181818 88.0454545454546  C 208.206818181818 88.0454545454546  205.834090909091 90.4090909090909  205.834090909091 90.4090909090909  C 205.834090909091 90.4090909090909  198.715909090909 89.2272727272727  198.715909090909 89.2272727272727  C 198.715909090909 89.2272727272727  195.156818181818 93.9545454545454  195.156818181818 93.9545454545454  C 195.156818181818 93.9545454545454  179.734090909091 101.045454545455  179.734090909091 101.045454545455  C 179.734090909091 101.045454545455  180.920454545455 109.318181818182  180.920454545455 109.318181818182  C 180.920454545455 109.318181818182  184.479545454546 114.045454545455  184.479545454546 114.045454545455  C 184.479545454546 114.045454545455  178.547727272727 117.590909090909  178.547727272727 117.590909090909  C 178.547727272727 117.590909090909  176.175 114.045454545455  176.175 114.045454545455  C 176.175 114.045454545455  173.802272727273 117.590909090909  173.802272727273 117.590909090909  C 173.802272727273 117.590909090909  170.243181818182 115.227272727273  170.243181818182 115.227272727273  C 170.243181818182 115.227272727273  166.684090909091 121.136363636364  166.684090909091 121.136363636364  C 166.684090909091 121.136363636364  167.870454545455 124.681818181818  167.870454545455 124.681818181818  C 167.870454545455 124.681818181818  170.243181818182 124.681818181818  170.243181818182 124.681818181818  C 170.243181818182 124.681818181818  173.802272727273 134.136363636364  173.802272727273 134.136363636364  C 173.802272727273 134.136363636364  176.175 134.136363636364  176.175 134.136363636364  C 176.175 134.136363636364  174.988636363636 138.863636363636  174.988636363636 138.863636363636  C 174.988636363636 138.863636363636  183.293181818182 144.772727272727  183.293181818182 144.772727272727  C 183.293181818182 144.772727272727  182.106818181818 148.318181818182  182.106818181818 148.318181818182  C 182.106818181818 148.318181818182  174.988636363636 155.409090909091  174.988636363636 155.409090909091  C 174.988636363636 155.409090909091  174.988636363636 161.318181818182  174.988636363636 161.318181818182  C 174.988636363636 161.318181818182  177.361363636364 163.681818181818  177.361363636364 163.681818181818  C 177.361363636364 163.681818181818  172.615909090909 170.772727272727  172.615909090909 170.772727272727  C 172.615909090909 170.772727272727  165.497727272727 173.136363636364  165.497727272727 173.136363636364  C 165.497727272727 173.136363636364  159.565909090909 170.772727272727  159.565909090909 170.772727272727  C 159.565909090909 170.772727272727  151.261363636364 171.954545454545  151.261363636364 171.954545454545  C 151.261363636364 171.954545454545  142.956818181818 179.045454545455  142.956818181818 179.045454545455  C 142.956818181818 179.045454545455  139.397727272727 180.227272727273  139.397727272727 180.227272727273  C 139.397727272727 180.227272727273  134.652272727273 177.863636363636  134.652272727273 177.863636363636  C 134.652272727273 177.863636363636  120.415909090909 187.318181818182  120.415909090909 187.318181818182  C 120.415909090909 187.318181818182  118.043181818182 187.318181818182  118.043181818182 187.318181818182  C 118.043181818182 187.318181818182  116.856818181818 184.954545454545  116.856818181818 184.954545454545  C 116.856818181818 184.954545454545  112.111363636363 187.318181818182  112.111363636363 187.318181818182  C 112.111363636363 187.318181818182  109.738636363636 186.136363636364  109.738636363636 186.136363636364  C 109.738636363636 186.136363636364  103.806818181818 194.409090909091  103.806818181818 194.409090909091  C 103.806818181818 194.409090909091  103.806818181818 203.863636363636  103.806818181818 203.863636363636  C 103.806818181818 203.863636363636  96.6886363636363 206.227272727273  96.6886363636363 206.227272727273  C 96.6886363636363 206.227272727273  87.1977272727274 218.045454545455  87.1977272727274 218.045454545455  C 87.1977272727274 218.045454545455  93.1295454545455 220.409090909091  93.1295454545455 220.409090909091  C 93.1295454545455 220.409090909091  94.3159090909089 223.954545454545  94.3159090909089 223.954545454545  C 94.3159090909089 223.954545454545  89.5704545454546 228.681818181818  89.5704545454546 228.681818181818  C 89.5704545454546 228.681818181818  82.4522727272729 228.681818181818  82.4522727272729 228.681818181818  C 82.4522727272729 228.681818181818  77.7068181818181 233.409090909091  77.7068181818181 233.409090909091  C 77.7068181818181 233.409090909091  75.3340909090907 233.409090909091  75.3340909090907 233.409090909091  C 75.3340909090907 233.409090909091  74.1477272727275 229.863636363636  74.1477272727275 229.863636363636  C 74.1477272727275 229.863636363636  69.4022727272729 228.681818181818  69.4022727272729 228.681818181818  C 69.4022727272729 228.681818181818  71.7749999999999 227.5  71.7749999999999 227.5  C 71.7749999999999 227.5  69.4022727272729 226.318181818182  69.4022727272729 226.318181818182  C 69.4022727272729 226.318181818182  65.8431818181818 215.681818181818  65.8431818181818 215.681818181818  C 65.8431818181818 215.681818181818  63.4704545454545 214.5  63.4704545454545 214.5  C 63.4704545454545 214.5  64.6568181818182 212.136363636364  64.6568181818182 212.136363636364  C 64.6568181818182 212.136363636364  62.2840909090908 205.045454545454  62.2840909090908 205.045454545454  C 62.2840909090908 205.045454545454  58.7250000000001 205.045454545454  58.7250000000001 205.045454545454  C 58.7250000000001 205.045454545454  56.3522727272727 197.954545454545  56.3522727272727 197.954545454545  C 56.3522727272727 197.954545454545  52.7931818181817 197.954545454545  52.7931818181817 197.954545454545  C 52.7931818181817 197.954545454545  50.4204545454547 200.318181818182  50.4204545454547 200.318181818182  C 50.4204545454547 200.318181818182  48.0477272727271 205.045454545454  48.0477272727271 205.045454545454  C 48.0477272727271 205.045454545454  49.234090909091 207.409090909091  49.234090909091 207.409090909091  C 49.234090909091 207.409090909091  44.4886363636365 208.590909090909  44.4886363636365 208.590909090909  C 44.4886363636365 208.590909090909  37.3704545454545 206.227272727273  37.3704545454545 206.227272727273  C 37.3704545454545 206.227272727273  36.1840909090911 212.136363636364  36.1840909090911 212.136363636364  C 36.1840909090911 212.136363636364  32.625 214.5  32.625 214.5  C 32.625 214.5  29.0659090909089 214.5  29.0659090909089 214.5  C 29.0659090909089 214.5  23.1340909090909 209.772727272727  23.1340909090909 209.772727272727  C 23.1340909090909 209.772727272727  21.9477272727274 210.954545454545  21.9477272727274 210.954545454545  C 21.9477272727274 210.954545454545  26.6931818181818 200.318181818182  26.6931818181818 200.318181818182  C 26.6931818181818 200.318181818182  27.8795454545455 201.5  27.8795454545455 201.5  C 27.8795454545455 201.5  32.625 195.590909090909  32.625 195.590909090909  C 32.625 195.590909090909  26.6931818181818 187.318181818182  26.6931818181818 187.318181818182  C 26.6931818181818 187.318181818182  24.3204545454546 188.5  24.3204545454546 188.5  C 24.3204545454546 188.5  24.3204545454546 186.136363636364  24.3204545454546 186.136363636364  C 24.3204545454546 186.136363636364  19.575 188.5  19.575 188.5  C 19.575 188.5  19.575 186.136363636364  19.575 186.136363636364  C 19.575 186.136363636364  17.2022727272727 186.136363636364  17.2022727272727 186.136363636364  C 17.2022727272727 186.136363636364  19.575 180.227272727273  19.575 180.227272727273  C 19.575 180.227272727273  12.4568181818181 171.954545454545  12.4568181818181 171.954545454545  C 12.4568181818181 171.954545454545  16.0159090909092 168.409090909091  16.0159090909092 168.409090909091  C 16.0159090909092 168.409090909091  13.6431818181818 167.227272727273  13.6431818181818 167.227272727273  C 13.6431818181818 167.227272727273  14.8295454545453 161.318181818182  14.8295454545453 161.318181818182  C 14.8295454545453 161.318181818182  23.1340909090909 156.590909090909  23.1340909090909 156.590909090909  C 23.1340909090909 156.590909090909  20.7613636363637 154.227272727273  20.7613636363637 154.227272727273  C 20.7613636363637 154.227272727273  18.3886363636364 155.409090909091  18.3886363636364 155.409090909091  C 18.3886363636364 155.409090909091  17.2022727272727 153.045454545455  17.2022727272727 153.045454545455  C 17.2022727272727 153.045454545455  17.2022727272727 138.863636363636  17.2022727272727 138.863636363636  C 17.2022727272727 138.863636363636  12.4568181818181 137.681818181818  12.4568181818181 137.681818181818  C 12.4568181818181 137.681818181818  8.89772727272725 131.772727272727  8.89772727272725 131.772727272727  C 8.89772727272725 131.772727272727  8.89772727272725 129.409090909091  8.89772727272725 129.409090909091  C 8.89772727272725 129.409090909091  11.2704545454544 130.590909090909  11.2704545454544 130.590909090909  C 11.2704545454544 130.590909090909  8.89772727272725 128.227272727273  8.89772727272725 128.227272727273  C 8.89772727272725 128.227272727273  10.0840909090909 119.954545454545  10.0840909090909 119.954545454545  C 10.0840909090909 119.954545454545  13.6431818181818 111.681818181818  13.6431818181818 111.681818181818  C 13.6431818181818 111.681818181818  16.0159090909092 110.5  16.0159090909092 110.5  C 16.0159090909092 110.5  12.4568181818181 108.136363636364  12.4568181818181 108.136363636364  C 12.4568181818181 108.136363636364  11.2704545454544 102.227272727273  11.2704545454544 102.227272727273  C 11.2704545454544 102.227272727273  5.33863636363628 101.045454545455  5.33863636363628 101.045454545455  C 5.33863636363628 101.045454545455  2.96590909090912 98.6818181818182  2.96590909090912 98.6818181818182  C 2.96590909090912 98.6818181818182  0.593181818181847 99.8636363636364  0.593181818181847 99.8636363636364  C 0.593181818181847 99.8636363636364  0.593181818181847 97.5  0.593181818181847 97.5  C 0.593181818181847 97.5  5.33863636363628 98.6818181818182  5.33863636363628 98.6818181818182  C 5.33863636363628 98.6818181818182  4.1522727272727 96.3181818181818  4.1522727272727 96.3181818181818  C 4.1522727272727 96.3181818181818  13.6431818181818 95.1363636363636  13.6431818181818 95.1363636363636  C 13.6431818181818 95.1363636363636  14.8295454545453 92.7727272727273  14.8295454545453 92.7727272727273  C 14.8295454545453 92.7727272727273  13.6431818181818 80.9545454545454  13.6431818181818 80.9545454545454  C 13.6431818181818 80.9545454545454  10.0840909090909 73.8636363636364  10.0840909090909 73.8636363636364  C 10.0840909090909 73.8636363636364  14.8295454545453 59.6818181818182  14.8295454545453 59.6818181818182  C 14.8295454545453 59.6818181818182  14.8295454545453 49.0454545454546  14.8295454545453 49.0454545454546  C 14.8295454545453 49.0454545454546  23.1340909090909 41.9545454545454  23.1340909090909 41.9545454545454  C 23.1340909090909 41.9545454545454  25.5068181818181 41.9545454545454  25.5068181818181 41.9545454545454  C 25.5068181818181 41.9545454545454  27.8795454545455 38.4090909090909  27.8795454545455 38.4090909090909  C 27.8795454545455 38.4090909090909  36.1840909090911 40.7727272727273  36.1840909090911 40.7727272727273  C 36.1840909090911 40.7727272727273  38.5568181818182 28.9545454545454  38.5568181818182 28.9545454545454  C 38.5568181818182 28.9545454545454  34.9977272727272 19.5  34.9977272727272 19.5  C 34.9977272727272 19.5  36.1840909090911 17.1363636363636  36.1840909090911 17.1363636363636  C 36.1840909090911 17.1363636363636  38.5568181818182 21.8636363636364  38.5568181818182 21.8636363636364  C 38.5568181818182 21.8636363636364  49.234090909091 20.6818181818182  49.234090909091 20.6818181818182  C 49.234090909091 20.6818181818182  52.7931818181817 15.9545454545455  52.7931818181817 15.9545454545455  C 52.7931818181817 15.9545454545455  51.6068181818182 12.4090909090909  51.6068181818182 12.4090909090909  C 51.6068181818182 12.4090909090909  61.0977272727271 6.50000000000003  61.0977272727271 6.50000000000003  C 61.0977272727271 6.50000000000003  59.9113636363636 2.9545454545455  59.9113636363636 2.9545454545455  C 59.9113636363636 2.9545454545455  62.2840909090908 2.9545454545455  62.2840909090908 2.9545454545455  C 62.2840909090908 2.9545454545455  63.4704545454545 0.590909090909122  63.4704545454545 0.590909090909122  C 63.4704545454545 0.590909090909122  64.6568181818182 1.77272727272728  64.6568181818182 1.77272727272728  Z " fill-rule="evenodd" />
    </mask>
    <filter x="1046px" y="264px" width="269px" height="248px" filterUnits="userSpaceOnUse" id="filter2042">
      <feOffset dx="0" dy="10" in="SourceAlpha" result="shadowOffsetInner" />
      <feGaussianBlur stdDeviation="2" in="shadowOffsetInner" result="shadowGaussian" />
      <feComposite in2="shadowGaussian" operator="atop" in="SourceAlpha" result="shadowComposite" />
      <feColorMatrix type="matrix" values="0 0 0 0 0  0 0 0 0 0.6  0 0 0 0 1  0 0 0 1 0  " in="shadowComposite" />
    </filter>
    <g id="widget2043">
      <path d="M 64.6568181818182 1.77272727272728  C 64.6568181818182 1.77272727272728  67.0295454545455 0.590909090909122  67.0295454545455 0.590909090909122  C 67.0295454545455 0.590909090909122  70.5886363636364 1.77272727272728  70.5886363636364 1.77272727272728  C 70.5886363636364 1.77272727272728  70.5886363636364 10.0454545454546  70.5886363636364 10.0454545454546  C 70.5886363636364 10.0454545454546  78.8931818181818 11.2272727272727  78.8931818181818 11.2272727272727  C 78.8931818181818 11.2272727272727  78.8931818181818 20.6818181818182  78.8931818181818 20.6818181818182  C 78.8931818181818 20.6818181818182  80.0795454545453 23.0454545454545  80.0795454545453 23.0454545454545  C 80.0795454545453 23.0454545454545  83.6386363636366 24.2272727272727  83.6386363636366 24.2272727272727  C 83.6386363636366 24.2272727272727  84.825 28.9545454545454  84.825 28.9545454545454  C 84.825 28.9545454545454  91.9431818181818 34.8636363636364  91.9431818181818 34.8636363636364  C 91.9431818181818 34.8636363636364  91.9431818181818 37.2272727272727  91.9431818181818 37.2272727272727  C 91.9431818181818 37.2272727272727  103.806818181818 43.1363636363636  103.806818181818 43.1363636363636  C 103.806818181818 43.1363636363636  107.365909090909 41.9545454545454  107.365909090909 41.9545454545454  C 107.365909090909 41.9545454545454  112.111363636363 44.3181818181819  112.111363636363 44.3181818181819  C 112.111363636363 44.3181818181819  115.670454545455 40.7727272727273  115.670454545455 40.7727272727273  C 115.670454545455 40.7727272727273  125.161363636364 40.7727272727273  125.161363636364 40.7727272727273  C 125.161363636364 40.7727272727273  137.025 37.2272727272727  137.025 37.2272727272727  C 137.025 37.2272727272727  139.397727272727 40.7727272727273  139.397727272727 40.7727272727273  C 139.397727272727 40.7727272727273  153.634090909091 40.7727272727273  153.634090909091 40.7727272727273  C 153.634090909091 40.7727272727273  157.193181818182 43.1363636363636  157.193181818182 43.1363636363636  C 157.193181818182 43.1363636363636  165.497727272727 41.9545454545454  165.497727272727 41.9545454545454  C 165.497727272727 41.9545454545454  177.361363636364 50.2272727272727  177.361363636364 50.2272727272727  C 177.361363636364 50.2272727272727  183.293181818182 47.8636363636364  183.293181818182 47.8636363636364  C 183.293181818182 47.8636363636364  191.597727272727 56.1363636363636  191.597727272727 56.1363636363636  C 191.597727272727 56.1363636363636  201.088636363636 57.3181818181818  201.088636363636 57.3181818181818  C 201.088636363636 57.3181818181818  204.647727272727 56.1363636363636  204.647727272727 56.1363636363636  C 204.647727272727 56.1363636363636  208.206818181818 51.4090909090909  208.206818181818 51.4090909090909  C 208.206818181818 51.4090909090909  212.952272727273 51.4090909090909  212.952272727273 51.4090909090909  C 212.952272727273 51.4090909090909  221.256818181818 46.6818181818182  221.256818181818 46.6818181818182  C 221.256818181818 46.6818181818182  228.375 45.4999999999999  228.375 45.4999999999999  C 228.375 45.4999999999999  231.934090909091 45.4999999999999  231.934090909091 45.4999999999999  C 231.934090909091 45.4999999999999  237.865909090909 50.2272727272727  237.865909090909 50.2272727272727  C 237.865909090909 50.2272727272727  244.984090909091 51.4090909090909  244.984090909091 51.4090909090909  C 244.984090909091 51.4090909090909  250.915909090909 49.0454545454546  250.915909090909 49.0454545454546  C 250.915909090909 49.0454545454546  254.475 50.2272727272727  254.475 50.2272727272727  C 254.475 50.2272727272727  260.406818181818 56.1363636363636  260.406818181818 56.1363636363636  C 260.406818181818 56.1363636363636  260.406818181818 58.5  260.406818181818 58.5  C 260.406818181818 58.5  256.847727272727 59.6818181818182  256.847727272727 59.6818181818182  C 256.847727272727 59.6818181818182  258.034090909091 62.0454545454545  258.034090909091 62.0454545454545  C 258.034090909091 62.0454545454545  255.661363636364 66.7727272727273  255.661363636364 66.7727272727273  C 255.661363636364 66.7727272727273  249.729545454546 66.7727272727273  249.729545454546 66.7727272727273  C 249.729545454546 66.7727272727273  244.984090909091 59.6818181818182  244.984090909091 59.6818181818182  C 244.984090909091 59.6818181818182  240.238636363636 59.6818181818182  240.238636363636 59.6818181818182  C 240.238636363636 59.6818181818182  242.611363636364 60.8636363636364  242.611363636364 60.8636363636364  C 242.611363636364 60.8636363636364  240.238636363636 69.1363636363636  240.238636363636 69.1363636363636  C 240.238636363636 69.1363636363636  236.679545454546 70.3181818181819  236.679545454546 70.3181818181819  C 236.679545454546 70.3181818181819  234.306818181818 65.5909090909091  234.306818181818 65.5909090909091  C 234.306818181818 65.5909090909091  231.934090909091 66.7727272727273  231.934090909091 66.7727272727273  C 231.934090909091 66.7727272727273  233.120454545455 71.5  233.120454545455 71.5  C 233.120454545455 71.5  229.561363636364 78.5909090909091  229.561363636364 78.5909090909091  C 229.561363636364 78.5909090909091  234.306818181818 89.2272727272727  234.306818181818 89.2272727272727  C 234.306818181818 89.2272727272727  231.934090909091 92.7727272727273  231.934090909091 92.7727272727273  C 231.934090909091 92.7727272727273  226.002272727273 91.5909090909091  226.002272727273 91.5909090909091  C 226.002272727273 91.5909090909091  222.443181818182 96.3181818181818  222.443181818182 96.3181818181818  C 222.443181818182 96.3181818181818  218.884090909091 95.1363636363636  218.884090909091 95.1363636363636  C 218.884090909091 95.1363636363636  215.325 90.4090909090909  215.325 90.4090909090909  C 215.325 90.4090909090909  208.206818181818 88.0454545454546  208.206818181818 88.0454545454546  C 208.206818181818 88.0454545454546  205.834090909091 90.4090909090909  205.834090909091 90.4090909090909  C 205.834090909091 90.4090909090909  198.715909090909 89.2272727272727  198.715909090909 89.2272727272727  C 198.715909090909 89.2272727272727  195.156818181818 93.9545454545454  195.156818181818 93.9545454545454  C 195.156818181818 93.9545454545454  179.734090909091 101.045454545455  179.734090909091 101.045454545455  C 179.734090909091 101.045454545455  180.920454545455 109.318181818182  180.920454545455 109.318181818182  C 180.920454545455 109.318181818182  184.479545454546 114.045454545455  184.479545454546 114.045454545455  C 184.479545454546 114.045454545455  178.547727272727 117.590909090909  178.547727272727 117.590909090909  C 178.547727272727 117.590909090909  176.175 114.045454545455  176.175 114.045454545455  C 176.175 114.045454545455  173.802272727273 117.590909090909  173.802272727273 117.590909090909  C 173.802272727273 117.590909090909  170.243181818182 115.227272727273  170.243181818182 115.227272727273  C 170.243181818182 115.227272727273  166.684090909091 121.136363636364  166.684090909091 121.136363636364  C 166.684090909091 121.136363636364  167.870454545455 124.681818181818  167.870454545455 124.681818181818  C 167.870454545455 124.681818181818  170.243181818182 124.681818181818  170.243181818182 124.681818181818  C 170.243181818182 124.681818181818  173.802272727273 134.136363636364  173.802272727273 134.136363636364  C 173.802272727273 134.136363636364  176.175 134.136363636364  176.175 134.136363636364  C 176.175 134.136363636364  174.988636363636 138.863636363636  174.988636363636 138.863636363636  C 174.988636363636 138.863636363636  183.293181818182 144.772727272727  183.293181818182 144.772727272727  C 183.293181818182 144.772727272727  182.106818181818 148.318181818182  182.106818181818 148.318181818182  C 182.106818181818 148.318181818182  174.988636363636 155.409090909091  174.988636363636 155.409090909091  C 174.988636363636 155.409090909091  174.988636363636 161.318181818182  174.988636363636 161.318181818182  C 174.988636363636 161.318181818182  177.361363636364 163.681818181818  177.361363636364 163.681818181818  C 177.361363636364 163.681818181818  172.615909090909 170.772727272727  172.615909090909 170.772727272727  C 172.615909090909 170.772727272727  165.497727272727 173.136363636364  165.497727272727 173.136363636364  C 165.497727272727 173.136363636364  159.565909090909 170.772727272727  159.565909090909 170.772727272727  C 159.565909090909 170.772727272727  151.261363636364 171.954545454545  151.261363636364 171.954545454545  C 151.261363636364 171.954545454545  142.956818181818 179.045454545455  142.956818181818 179.045454545455  C 142.956818181818 179.045454545455  139.397727272727 180.227272727273  139.397727272727 180.227272727273  C 139.397727272727 180.227272727273  134.652272727273 177.863636363636  134.652272727273 177.863636363636  C 134.652272727273 177.863636363636  120.415909090909 187.318181818182  120.415909090909 187.318181818182  C 120.415909090909 187.318181818182  118.043181818182 187.318181818182  118.043181818182 187.318181818182  C 118.043181818182 187.318181818182  116.856818181818 184.954545454545  116.856818181818 184.954545454545  C 116.856818181818 184.954545454545  112.111363636363 187.318181818182  112.111363636363 187.318181818182  C 112.111363636363 187.318181818182  109.738636363636 186.136363636364  109.738636363636 186.136363636364  C 109.738636363636 186.136363636364  103.806818181818 194.409090909091  103.806818181818 194.409090909091  C 103.806818181818 194.409090909091  103.806818181818 203.863636363636  103.806818181818 203.863636363636  C 103.806818181818 203.863636363636  96.6886363636363 206.227272727273  96.6886363636363 206.227272727273  C 96.6886363636363 206.227272727273  87.1977272727274 218.045454545455  87.1977272727274 218.045454545455  C 87.1977272727274 218.045454545455  93.1295454545455 220.409090909091  93.1295454545455 220.409090909091  C 93.1295454545455 220.409090909091  94.3159090909089 223.954545454545  94.3159090909089 223.954545454545  C 94.3159090909089 223.954545454545  89.5704545454546 228.681818181818  89.5704545454546 228.681818181818  C 89.5704545454546 228.681818181818  82.4522727272729 228.681818181818  82.4522727272729 228.681818181818  C 82.4522727272729 228.681818181818  77.7068181818181 233.409090909091  77.7068181818181 233.409090909091  C 77.7068181818181 233.409090909091  75.3340909090907 233.409090909091  75.3340909090907 233.409090909091  C 75.3340909090907 233.409090909091  74.1477272727275 229.863636363636  74.1477272727275 229.863636363636  C 74.1477272727275 229.863636363636  69.4022727272729 228.681818181818  69.4022727272729 228.681818181818  C 69.4022727272729 228.681818181818  71.7749999999999 227.5  71.7749999999999 227.5  C 71.7749999999999 227.5  69.4022727272729 226.318181818182  69.4022727272729 226.318181818182  C 69.4022727272729 226.318181818182  65.8431818181818 215.681818181818  65.8431818181818 215.681818181818  C 65.8431818181818 215.681818181818  63.4704545454545 214.5  63.4704545454545 214.5  C 63.4704545454545 214.5  64.6568181818182 212.136363636364  64.6568181818182 212.136363636364  C 64.6568181818182 212.136363636364  62.2840909090908 205.045454545454  62.2840909090908 205.045454545454  C 62.2840909090908 205.045454545454  58.7250000000001 205.045454545454  58.7250000000001 205.045454545454  C 58.7250000000001 205.045454545454  56.3522727272727 197.954545454545  56.3522727272727 197.954545454545  C 56.3522727272727 197.954545454545  52.7931818181817 197.954545454545  52.7931818181817 197.954545454545  C 52.7931818181817 197.954545454545  50.4204545454547 200.318181818182  50.4204545454547 200.318181818182  C 50.4204545454547 200.318181818182  48.0477272727271 205.045454545454  48.0477272727271 205.045454545454  C 48.0477272727271 205.045454545454  49.234090909091 207.409090909091  49.234090909091 207.409090909091  C 49.234090909091 207.409090909091  44.4886363636365 208.590909090909  44.4886363636365 208.590909090909  C 44.4886363636365 208.590909090909  37.3704545454545 206.227272727273  37.3704545454545 206.227272727273  C 37.3704545454545 206.227272727273  36.1840909090911 212.136363636364  36.1840909090911 212.136363636364  C 36.1840909090911 212.136363636364  32.625 214.5  32.625 214.5  C 32.625 214.5  29.0659090909089 214.5  29.0659090909089 214.5  C 29.0659090909089 214.5  23.1340909090909 209.772727272727  23.1340909090909 209.772727272727  C 23.1340909090909 209.772727272727  21.9477272727274 210.954545454545  21.9477272727274 210.954545454545  C 21.9477272727274 210.954545454545  26.6931818181818 200.318181818182  26.6931818181818 200.318181818182  C 26.6931818181818 200.318181818182  27.8795454545455 201.5  27.8795454545455 201.5  C 27.8795454545455 201.5  32.625 195.590909090909  32.625 195.590909090909  C 32.625 195.590909090909  26.6931818181818 187.318181818182  26.6931818181818 187.318181818182  C 26.6931818181818 187.318181818182  24.3204545454546 188.5  24.3204545454546 188.5  C 24.3204545454546 188.5  24.3204545454546 186.136363636364  24.3204545454546 186.136363636364  C 24.3204545454546 186.136363636364  19.575 188.5  19.575 188.5  C 19.575 188.5  19.575 186.136363636364  19.575 186.136363636364  C 19.575 186.136363636364  17.2022727272727 186.136363636364  17.2022727272727 186.136363636364  C 17.2022727272727 186.136363636364  19.575 180.227272727273  19.575 180.227272727273  C 19.575 180.227272727273  12.4568181818181 171.954545454545  12.4568181818181 171.954545454545  C 12.4568181818181 171.954545454545  16.0159090909092 168.409090909091  16.0159090909092 168.409090909091  C 16.0159090909092 168.409090909091  13.6431818181818 167.227272727273  13.6431818181818 167.227272727273  C 13.6431818181818 167.227272727273  14.8295454545453 161.318181818182  14.8295454545453 161.318181818182  C 14.8295454545453 161.318181818182  23.1340909090909 156.590909090909  23.1340909090909 156.590909090909  C 23.1340909090909 156.590909090909  20.7613636363637 154.227272727273  20.7613636363637 154.227272727273  C 20.7613636363637 154.227272727273  18.3886363636364 155.409090909091  18.3886363636364 155.409090909091  C 18.3886363636364 155.409090909091  17.2022727272727 153.045454545455  17.2022727272727 153.045454545455  C 17.2022727272727 153.045454545455  17.2022727272727 138.863636363636  17.2022727272727 138.863636363636  C 17.2022727272727 138.863636363636  12.4568181818181 137.681818181818  12.4568181818181 137.681818181818  C 12.4568181818181 137.681818181818  8.89772727272725 131.772727272727  8.89772727272725 131.772727272727  C 8.89772727272725 131.772727272727  8.89772727272725 129.409090909091  8.89772727272725 129.409090909091  C 8.89772727272725 129.409090909091  11.2704545454544 130.590909090909  11.2704545454544 130.590909090909  C 11.2704545454544 130.590909090909  8.89772727272725 128.227272727273  8.89772727272725 128.227272727273  C 8.89772727272725 128.227272727273  10.0840909090909 119.954545454545  10.0840909090909 119.954545454545  C 10.0840909090909 119.954545454545  13.6431818181818 111.681818181818  13.6431818181818 111.681818181818  C 13.6431818181818 111.681818181818  16.0159090909092 110.5  16.0159090909092 110.5  C 16.0159090909092 110.5  12.4568181818181 108.136363636364  12.4568181818181 108.136363636364  C 12.4568181818181 108.136363636364  11.2704545454544 102.227272727273  11.2704545454544 102.227272727273  C 11.2704545454544 102.227272727273  5.33863636363628 101.045454545455  5.33863636363628 101.045454545455  C 5.33863636363628 101.045454545455  2.96590909090912 98.6818181818182  2.96590909090912 98.6818181818182  C 2.96590909090912 98.6818181818182  0.593181818181847 99.8636363636364  0.593181818181847 99.8636363636364  C 0.593181818181847 99.8636363636364  0.593181818181847 97.5  0.593181818181847 97.5  C 0.593181818181847 97.5  5.33863636363628 98.6818181818182  5.33863636363628 98.6818181818182  C 5.33863636363628 98.6818181818182  4.1522727272727 96.3181818181818  4.1522727272727 96.3181818181818  C 4.1522727272727 96.3181818181818  13.6431818181818 95.1363636363636  13.6431818181818 95.1363636363636  C 13.6431818181818 95.1363636363636  14.8295454545453 92.7727272727273  14.8295454545453 92.7727272727273  C 14.8295454545453 92.7727272727273  13.6431818181818 80.9545454545454  13.6431818181818 80.9545454545454  C 13.6431818181818 80.9545454545454  10.0840909090909 73.8636363636364  10.0840909090909 73.8636363636364  C 10.0840909090909 73.8636363636364  14.8295454545453 59.6818181818182  14.8295454545453 59.6818181818182  C 14.8295454545453 59.6818181818182  14.8295454545453 49.0454545454546  14.8295454545453 49.0454545454546  C 14.8295454545453 49.0454545454546  23.1340909090909 41.9545454545454  23.1340909090909 41.9545454545454  C 23.1340909090909 41.9545454545454  25.5068181818181 41.9545454545454  25.5068181818181 41.9545454545454  C 25.5068181818181 41.9545454545454  27.8795454545455 38.4090909090909  27.8795454545455 38.4090909090909  C 27.8795454545455 38.4090909090909  36.1840909090911 40.7727272727273  36.1840909090911 40.7727272727273  C 36.1840909090911 40.7727272727273  38.5568181818182 28.9545454545454  38.5568181818182 28.9545454545454  C 38.5568181818182 28.9545454545454  34.9977272727272 19.5  34.9977272727272 19.5  C 34.9977272727272 19.5  36.1840909090911 17.1363636363636  36.1840909090911 17.1363636363636  C 36.1840909090911 17.1363636363636  38.5568181818182 21.8636363636364  38.5568181818182 21.8636363636364  C 38.5568181818182 21.8636363636364  49.234090909091 20.6818181818182  49.234090909091 20.6818181818182  C 49.234090909091 20.6818181818182  52.7931818181817 15.9545454545455  52.7931818181817 15.9545454545455  C 52.7931818181817 15.9545454545455  51.6068181818182 12.4090909090909  51.6068181818182 12.4090909090909  C 51.6068181818182 12.4090909090909  61.0977272727271 6.50000000000003  61.0977272727271 6.50000000000003  C 61.0977272727271 6.50000000000003  59.9113636363636 2.9545454545455  59.9113636363636 2.9545454545455  C 59.9113636363636 2.9545454545455  62.2840909090908 2.9545454545455  62.2840909090908 2.9545454545455  C 62.2840909090908 2.9545454545455  63.4704545454545 0.590909090909122  63.4704545454545 0.590909090909122  C 63.4704545454545 0.590909090909122  64.6568181818182 1.77272727272728  64.6568181818182 1.77272727272728  Z " fill-rule="nonzero" fill="#0fd0e6" stroke="none" transform="matrix(1 0 0 1 1050 264 )" />
      <path d="M 64.6568181818182 1.77272727272728  C 64.6568181818182 1.77272727272728  67.0295454545455 0.590909090909122  67.0295454545455 0.590909090909122  C 67.0295454545455 0.590909090909122  70.5886363636364 1.77272727272728  70.5886363636364 1.77272727272728  C 70.5886363636364 1.77272727272728  70.5886363636364 10.0454545454546  70.5886363636364 10.0454545454546  C 70.5886363636364 10.0454545454546  78.8931818181818 11.2272727272727  78.8931818181818 11.2272727272727  C 78.8931818181818 11.2272727272727  78.8931818181818 20.6818181818182  78.8931818181818 20.6818181818182  C 78.8931818181818 20.6818181818182  80.0795454545453 23.0454545454545  80.0795454545453 23.0454545454545  C 80.0795454545453 23.0454545454545  83.6386363636366 24.2272727272727  83.6386363636366 24.2272727272727  C 83.6386363636366 24.2272727272727  84.825 28.9545454545454  84.825 28.9545454545454  C 84.825 28.9545454545454  91.9431818181818 34.8636363636364  91.9431818181818 34.8636363636364  C 91.9431818181818 34.8636363636364  91.9431818181818 37.2272727272727  91.9431818181818 37.2272727272727  C 91.9431818181818 37.2272727272727  103.806818181818 43.1363636363636  103.806818181818 43.1363636363636  C 103.806818181818 43.1363636363636  107.365909090909 41.9545454545454  107.365909090909 41.9545454545454  C 107.365909090909 41.9545454545454  112.111363636363 44.3181818181819  112.111363636363 44.3181818181819  C 112.111363636363 44.3181818181819  115.670454545455 40.7727272727273  115.670454545455 40.7727272727273  C 115.670454545455 40.7727272727273  125.161363636364 40.7727272727273  125.161363636364 40.7727272727273  C 125.161363636364 40.7727272727273  137.025 37.2272727272727  137.025 37.2272727272727  C 137.025 37.2272727272727  139.397727272727 40.7727272727273  139.397727272727 40.7727272727273  C 139.397727272727 40.7727272727273  153.634090909091 40.7727272727273  153.634090909091 40.7727272727273  C 153.634090909091 40.7727272727273  157.193181818182 43.1363636363636  157.193181818182 43.1363636363636  C 157.193181818182 43.1363636363636  165.497727272727 41.9545454545454  165.497727272727 41.9545454545454  C 165.497727272727 41.9545454545454  177.361363636364 50.2272727272727  177.361363636364 50.2272727272727  C 177.361363636364 50.2272727272727  183.293181818182 47.8636363636364  183.293181818182 47.8636363636364  C 183.293181818182 47.8636363636364  191.597727272727 56.1363636363636  191.597727272727 56.1363636363636  C 191.597727272727 56.1363636363636  201.088636363636 57.3181818181818  201.088636363636 57.3181818181818  C 201.088636363636 57.3181818181818  204.647727272727 56.1363636363636  204.647727272727 56.1363636363636  C 204.647727272727 56.1363636363636  208.206818181818 51.4090909090909  208.206818181818 51.4090909090909  C 208.206818181818 51.4090909090909  212.952272727273 51.4090909090909  212.952272727273 51.4090909090909  C 212.952272727273 51.4090909090909  221.256818181818 46.6818181818182  221.256818181818 46.6818181818182  C 221.256818181818 46.6818181818182  228.375 45.4999999999999  228.375 45.4999999999999  C 228.375 45.4999999999999  231.934090909091 45.4999999999999  231.934090909091 45.4999999999999  C 231.934090909091 45.4999999999999  237.865909090909 50.2272727272727  237.865909090909 50.2272727272727  C 237.865909090909 50.2272727272727  244.984090909091 51.4090909090909  244.984090909091 51.4090909090909  C 244.984090909091 51.4090909090909  250.915909090909 49.0454545454546  250.915909090909 49.0454545454546  C 250.915909090909 49.0454545454546  254.475 50.2272727272727  254.475 50.2272727272727  C 254.475 50.2272727272727  260.406818181818 56.1363636363636  260.406818181818 56.1363636363636  C 260.406818181818 56.1363636363636  260.406818181818 58.5  260.406818181818 58.5  C 260.406818181818 58.5  256.847727272727 59.6818181818182  256.847727272727 59.6818181818182  C 256.847727272727 59.6818181818182  258.034090909091 62.0454545454545  258.034090909091 62.0454545454545  C 258.034090909091 62.0454545454545  255.661363636364 66.7727272727273  255.661363636364 66.7727272727273  C 255.661363636364 66.7727272727273  249.729545454546 66.7727272727273  249.729545454546 66.7727272727273  C 249.729545454546 66.7727272727273  244.984090909091 59.6818181818182  244.984090909091 59.6818181818182  C 244.984090909091 59.6818181818182  240.238636363636 59.6818181818182  240.238636363636 59.6818181818182  C 240.238636363636 59.6818181818182  242.611363636364 60.8636363636364  242.611363636364 60.8636363636364  C 242.611363636364 60.8636363636364  240.238636363636 69.1363636363636  240.238636363636 69.1363636363636  C 240.238636363636 69.1363636363636  236.679545454546 70.3181818181819  236.679545454546 70.3181818181819  C 236.679545454546 70.3181818181819  234.306818181818 65.5909090909091  234.306818181818 65.5909090909091  C 234.306818181818 65.5909090909091  231.934090909091 66.7727272727273  231.934090909091 66.7727272727273  C 231.934090909091 66.7727272727273  233.120454545455 71.5  233.120454545455 71.5  C 233.120454545455 71.5  229.561363636364 78.5909090909091  229.561363636364 78.5909090909091  C 229.561363636364 78.5909090909091  234.306818181818 89.2272727272727  234.306818181818 89.2272727272727  C 234.306818181818 89.2272727272727  231.934090909091 92.7727272727273  231.934090909091 92.7727272727273  C 231.934090909091 92.7727272727273  226.002272727273 91.5909090909091  226.002272727273 91.5909090909091  C 226.002272727273 91.5909090909091  222.443181818182 96.3181818181818  222.443181818182 96.3181818181818  C 222.443181818182 96.3181818181818  218.884090909091 95.1363636363636  218.884090909091 95.1363636363636  C 218.884090909091 95.1363636363636  215.325 90.4090909090909  215.325 90.4090909090909  C 215.325 90.4090909090909  208.206818181818 88.0454545454546  208.206818181818 88.0454545454546  C 208.206818181818 88.0454545454546  205.834090909091 90.4090909090909  205.834090909091 90.4090909090909  C 205.834090909091 90.4090909090909  198.715909090909 89.2272727272727  198.715909090909 89.2272727272727  C 198.715909090909 89.2272727272727  195.156818181818 93.9545454545454  195.156818181818 93.9545454545454  C 195.156818181818 93.9545454545454  179.734090909091 101.045454545455  179.734090909091 101.045454545455  C 179.734090909091 101.045454545455  180.920454545455 109.318181818182  180.920454545455 109.318181818182  C 180.920454545455 109.318181818182  184.479545454546 114.045454545455  184.479545454546 114.045454545455  C 184.479545454546 114.045454545455  178.547727272727 117.590909090909  178.547727272727 117.590909090909  C 178.547727272727 117.590909090909  176.175 114.045454545455  176.175 114.045454545455  C 176.175 114.045454545455  173.802272727273 117.590909090909  173.802272727273 117.590909090909  C 173.802272727273 117.590909090909  170.243181818182 115.227272727273  170.243181818182 115.227272727273  C 170.243181818182 115.227272727273  166.684090909091 121.136363636364  166.684090909091 121.136363636364  C 166.684090909091 121.136363636364  167.870454545455 124.681818181818  167.870454545455 124.681818181818  C 167.870454545455 124.681818181818  170.243181818182 124.681818181818  170.243181818182 124.681818181818  C 170.243181818182 124.681818181818  173.802272727273 134.136363636364  173.802272727273 134.136363636364  C 173.802272727273 134.136363636364  176.175 134.136363636364  176.175 134.136363636364  C 176.175 134.136363636364  174.988636363636 138.863636363636  174.988636363636 138.863636363636  C 174.988636363636 138.863636363636  183.293181818182 144.772727272727  183.293181818182 144.772727272727  C 183.293181818182 144.772727272727  182.106818181818 148.318181818182  182.106818181818 148.318181818182  C 182.106818181818 148.318181818182  174.988636363636 155.409090909091  174.988636363636 155.409090909091  C 174.988636363636 155.409090909091  174.988636363636 161.318181818182  174.988636363636 161.318181818182  C 174.988636363636 161.318181818182  177.361363636364 163.681818181818  177.361363636364 163.681818181818  C 177.361363636364 163.681818181818  172.615909090909 170.772727272727  172.615909090909 170.772727272727  C 172.615909090909 170.772727272727  165.497727272727 173.136363636364  165.497727272727 173.136363636364  C 165.497727272727 173.136363636364  159.565909090909 170.772727272727  159.565909090909 170.772727272727  C 159.565909090909 170.772727272727  151.261363636364 171.954545454545  151.261363636364 171.954545454545  C 151.261363636364 171.954545454545  142.956818181818 179.045454545455  142.956818181818 179.045454545455  C 142.956818181818 179.045454545455  139.397727272727 180.227272727273  139.397727272727 180.227272727273  C 139.397727272727 180.227272727273  134.652272727273 177.863636363636  134.652272727273 177.863636363636  C 134.652272727273 177.863636363636  120.415909090909 187.318181818182  120.415909090909 187.318181818182  C 120.415909090909 187.318181818182  118.043181818182 187.318181818182  118.043181818182 187.318181818182  C 118.043181818182 187.318181818182  116.856818181818 184.954545454545  116.856818181818 184.954545454545  C 116.856818181818 184.954545454545  112.111363636363 187.318181818182  112.111363636363 187.318181818182  C 112.111363636363 187.318181818182  109.738636363636 186.136363636364  109.738636363636 186.136363636364  C 109.738636363636 186.136363636364  103.806818181818 194.409090909091  103.806818181818 194.409090909091  C 103.806818181818 194.409090909091  103.806818181818 203.863636363636  103.806818181818 203.863636363636  C 103.806818181818 203.863636363636  96.6886363636363 206.227272727273  96.6886363636363 206.227272727273  C 96.6886363636363 206.227272727273  87.1977272727274 218.045454545455  87.1977272727274 218.045454545455  C 87.1977272727274 218.045454545455  93.1295454545455 220.409090909091  93.1295454545455 220.409090909091  C 93.1295454545455 220.409090909091  94.3159090909089 223.954545454545  94.3159090909089 223.954545454545  C 94.3159090909089 223.954545454545  89.5704545454546 228.681818181818  89.5704545454546 228.681818181818  C 89.5704545454546 228.681818181818  82.4522727272729 228.681818181818  82.4522727272729 228.681818181818  C 82.4522727272729 228.681818181818  77.7068181818181 233.409090909091  77.7068181818181 233.409090909091  C 77.7068181818181 233.409090909091  75.3340909090907 233.409090909091  75.3340909090907 233.409090909091  C 75.3340909090907 233.409090909091  74.1477272727275 229.863636363636  74.1477272727275 229.863636363636  C 74.1477272727275 229.863636363636  69.4022727272729 228.681818181818  69.4022727272729 228.681818181818  C 69.4022727272729 228.681818181818  71.7749999999999 227.5  71.7749999999999 227.5  C 71.7749999999999 227.5  69.4022727272729 226.318181818182  69.4022727272729 226.318181818182  C 69.4022727272729 226.318181818182  65.8431818181818 215.681818181818  65.8431818181818 215.681818181818  C 65.8431818181818 215.681818181818  63.4704545454545 214.5  63.4704545454545 214.5  C 63.4704545454545 214.5  64.6568181818182 212.136363636364  64.6568181818182 212.136363636364  C 64.6568181818182 212.136363636364  62.2840909090908 205.045454545454  62.2840909090908 205.045454545454  C 62.2840909090908 205.045454545454  58.7250000000001 205.045454545454  58.7250000000001 205.045454545454  C 58.7250000000001 205.045454545454  56.3522727272727 197.954545454545  56.3522727272727 197.954545454545  C 56.3522727272727 197.954545454545  52.7931818181817 197.954545454545  52.7931818181817 197.954545454545  C 52.7931818181817 197.954545454545  50.4204545454547 200.318181818182  50.4204545454547 200.318181818182  C 50.4204545454547 200.318181818182  48.0477272727271 205.045454545454  48.0477272727271 205.045454545454  C 48.0477272727271 205.045454545454  49.234090909091 207.409090909091  49.234090909091 207.409090909091  C 49.234090909091 207.409090909091  44.4886363636365 208.590909090909  44.4886363636365 208.590909090909  C 44.4886363636365 208.590909090909  37.3704545454545 206.227272727273  37.3704545454545 206.227272727273  C 37.3704545454545 206.227272727273  36.1840909090911 212.136363636364  36.1840909090911 212.136363636364  C 36.1840909090911 212.136363636364  32.625 214.5  32.625 214.5  C 32.625 214.5  29.0659090909089 214.5  29.0659090909089 214.5  C 29.0659090909089 214.5  23.1340909090909 209.772727272727  23.1340909090909 209.772727272727  C 23.1340909090909 209.772727272727  21.9477272727274 210.954545454545  21.9477272727274 210.954545454545  C 21.9477272727274 210.954545454545  26.6931818181818 200.318181818182  26.6931818181818 200.318181818182  C 26.6931818181818 200.318181818182  27.8795454545455 201.5  27.8795454545455 201.5  C 27.8795454545455 201.5  32.625 195.590909090909  32.625 195.590909090909  C 32.625 195.590909090909  26.6931818181818 187.318181818182  26.6931818181818 187.318181818182  C 26.6931818181818 187.318181818182  24.3204545454546 188.5  24.3204545454546 188.5  C 24.3204545454546 188.5  24.3204545454546 186.136363636364  24.3204545454546 186.136363636364  C 24.3204545454546 186.136363636364  19.575 188.5  19.575 188.5  C 19.575 188.5  19.575 186.136363636364  19.575 186.136363636364  C 19.575 186.136363636364  17.2022727272727 186.136363636364  17.2022727272727 186.136363636364  C 17.2022727272727 186.136363636364  19.575 180.227272727273  19.575 180.227272727273  C 19.575 180.227272727273  12.4568181818181 171.954545454545  12.4568181818181 171.954545454545  C 12.4568181818181 171.954545454545  16.0159090909092 168.409090909091  16.0159090909092 168.409090909091  C 16.0159090909092 168.409090909091  13.6431818181818 167.227272727273  13.6431818181818 167.227272727273  C 13.6431818181818 167.227272727273  14.8295454545453 161.318181818182  14.8295454545453 161.318181818182  C 14.8295454545453 161.318181818182  23.1340909090909 156.590909090909  23.1340909090909 156.590909090909  C 23.1340909090909 156.590909090909  20.7613636363637 154.227272727273  20.7613636363637 154.227272727273  C 20.7613636363637 154.227272727273  18.3886363636364 155.409090909091  18.3886363636364 155.409090909091  C 18.3886363636364 155.409090909091  17.2022727272727 153.045454545455  17.2022727272727 153.045454545455  C 17.2022727272727 153.045454545455  17.2022727272727 138.863636363636  17.2022727272727 138.863636363636  C 17.2022727272727 138.863636363636  12.4568181818181 137.681818181818  12.4568181818181 137.681818181818  C 12.4568181818181 137.681818181818  8.89772727272725 131.772727272727  8.89772727272725 131.772727272727  C 8.89772727272725 131.772727272727  8.89772727272725 129.409090909091  8.89772727272725 129.409090909091  C 8.89772727272725 129.409090909091  11.2704545454544 130.590909090909  11.2704545454544 130.590909090909  C 11.2704545454544 130.590909090909  8.89772727272725 128.227272727273  8.89772727272725 128.227272727273  C 8.89772727272725 128.227272727273  10.0840909090909 119.954545454545  10.0840909090909 119.954545454545  C 10.0840909090909 119.954545454545  13.6431818181818 111.681818181818  13.6431818181818 111.681818181818  C 13.6431818181818 111.681818181818  16.0159090909092 110.5  16.0159090909092 110.5  C 16.0159090909092 110.5  12.4568181818181 108.136363636364  12.4568181818181 108.136363636364  C 12.4568181818181 108.136363636364  11.2704545454544 102.227272727273  11.2704545454544 102.227272727273  C 11.2704545454544 102.227272727273  5.33863636363628 101.045454545455  5.33863636363628 101.045454545455  C 5.33863636363628 101.045454545455  2.96590909090912 98.6818181818182  2.96590909090912 98.6818181818182  C 2.96590909090912 98.6818181818182  0.593181818181847 99.8636363636364  0.593181818181847 99.8636363636364  C 0.593181818181847 99.8636363636364  0.593181818181847 97.5  0.593181818181847 97.5  C 0.593181818181847 97.5  5.33863636363628 98.6818181818182  5.33863636363628 98.6818181818182  C 5.33863636363628 98.6818181818182  4.1522727272727 96.3181818181818  4.1522727272727 96.3181818181818  C 4.1522727272727 96.3181818181818  13.6431818181818 95.1363636363636  13.6431818181818 95.1363636363636  C 13.6431818181818 95.1363636363636  14.8295454545453 92.7727272727273  14.8295454545453 92.7727272727273  C 14.8295454545453 92.7727272727273  13.6431818181818 80.9545454545454  13.6431818181818 80.9545454545454  C 13.6431818181818 80.9545454545454  10.0840909090909 73.8636363636364  10.0840909090909 73.8636363636364  C 10.0840909090909 73.8636363636364  14.8295454545453 59.6818181818182  14.8295454545453 59.6818181818182  C 14.8295454545453 59.6818181818182  14.8295454545453 49.0454545454546  14.8295454545453 49.0454545454546  C 14.8295454545453 49.0454545454546  23.1340909090909 41.9545454545454  23.1340909090909 41.9545454545454  C 23.1340909090909 41.9545454545454  25.5068181818181 41.9545454545454  25.5068181818181 41.9545454545454  C 25.5068181818181 41.9545454545454  27.8795454545455 38.4090909090909  27.8795454545455 38.4090909090909  C 27.8795454545455 38.4090909090909  36.1840909090911 40.7727272727273  36.1840909090911 40.7727272727273  C 36.1840909090911 40.7727272727273  38.5568181818182 28.9545454545454  38.5568181818182 28.9545454545454  C 38.5568181818182 28.9545454545454  34.9977272727272 19.5  34.9977272727272 19.5  C 34.9977272727272 19.5  36.1840909090911 17.1363636363636  36.1840909090911 17.1363636363636  C 36.1840909090911 17.1363636363636  38.5568181818182 21.8636363636364  38.5568181818182 21.8636363636364  C 38.5568181818182 21.8636363636364  49.234090909091 20.6818181818182  49.234090909091 20.6818181818182  C 49.234090909091 20.6818181818182  52.7931818181817 15.9545454545455  52.7931818181817 15.9545454545455  C 52.7931818181817 15.9545454545455  51.6068181818182 12.4090909090909  51.6068181818182 12.4090909090909  C 51.6068181818182 12.4090909090909  61.0977272727271 6.50000000000003  61.0977272727271 6.50000000000003  C 61.0977272727271 6.50000000000003  59.9113636363636 2.9545454545455  59.9113636363636 2.9545454545455  C 59.9113636363636 2.9545454545455  62.2840909090908 2.9545454545455  62.2840909090908 2.9545454545455  C 62.2840909090908 2.9545454545455  63.4704545454545 0.590909090909122  63.4704545454545 0.590909090909122  C 63.4704545454545 0.590909090909122  64.6568181818182 1.77272727272728  64.6568181818182 1.77272727272728  Z " stroke-width="2" stroke-dasharray="1,1" stroke="#999999" fill="none" transform="matrix(1 0 0 1 1050 264 )" mask="url(#clip2041)" />
    </g>
  </defs>
  <g transform="matrix(1 0 0 1 -1046 -264 )">
    <use xlink:href="#widget2043" filter="url(#filter2042)" />
    <use xlink:href="#widget2043" />
  </g>
</svg>