<?xml version="1.0" encoding="utf-8"?>
<svg version="1.1" xmlns:xlink="http://www.w3.org/1999/xlink" width="150px" height="141px" xmlns="http://www.w3.org/2000/svg">
  <defs>
    <mask fill="white" id="clip2036">
      <path d="M 12.4999999999998 133.298319327731  C 12.4999999999998 133.298319327731  11.3095238095239 132.113445378151  11.3095238095239 132.113445378151  C 11.3095238095239 132.113445378151  11.3095238095239 127.373949579832  11.3095238095239 127.373949579832  C 11.3095238095239 127.373949579832  16.0714285714284 127.373949579832  16.0714285714284 127.373949579832  C 16.0714285714284 127.373949579832  18.452380952381 121.449579831933  18.452380952381 121.449579831933  C 18.452380952381 121.449579831933  17.2619047619048 116.710084033613  17.2619047619048 116.710084033613  C 17.2619047619048 116.710084033613  12.4999999999998 111.970588235294  12.4999999999998 111.970588235294  C 12.4999999999998 111.970588235294  14.8809523809523 111.970588235294  14.8809523809523 111.970588235294  C 14.8809523809523 111.970588235294  12.4999999999998 101.306722689076  12.4999999999998 101.306722689076  C 12.4999999999998 101.306722689076  16.0714285714284 93.0126050420168  16.0714285714284 93.0126050420168  C 16.0714285714284 93.0126050420168  13.6904761904761 90.6428571428572  13.6904761904761 90.6428571428572  C 13.6904761904761 90.6428571428572  11.3095238095239 82.3487394957984  11.3095238095239 82.3487394957984  C 11.3095238095239 82.3487394957984  7.73809523809518 83.5336134453782  7.73809523809518 83.5336134453782  C 7.73809523809518 83.5336134453782  5.35714285714266 79.9789915966387  5.35714285714266 79.9789915966387  C 5.35714285714266 79.9789915966387  6.54761904761904 75.2394957983193  6.54761904761904 75.2394957983193  C 6.54761904761904 75.2394957983193  4.16666666666652 76.4243697478992  4.16666666666652 76.4243697478992  C 4.16666666666652 76.4243697478992  0.595238095238074 66.9453781512605  0.595238095238074 66.9453781512605  C 0.595238095238074 66.9453781512605  4.16666666666652 68.1302521008404  4.16666666666652 68.1302521008404  C 4.16666666666652 68.1302521008404  2.9761904761906 59.8361344537815  2.9761904761906 59.8361344537815  C 2.9761904761906 59.8361344537815  8.92857142857133 57.4663865546219  8.92857142857133 57.4663865546219  C 8.92857142857133 57.4663865546219  10.1190476190475 58.6512605042017  10.1190476190475 58.6512605042017  C 10.1190476190475 58.6512605042017  14.8809523809523 53.9117647058824  14.8809523809523 53.9117647058824  C 14.8809523809523 53.9117647058824  13.6904761904761 50.3571428571428  13.6904761904761 50.3571428571428  C 13.6904761904761 50.3571428571428  7.73809523809518 47.9873949579832  7.73809523809518 47.9873949579832  C 7.73809523809518 47.9873949579832  10.1190476190475 43.2478991596639  10.1190476190475 43.2478991596639  C 10.1190476190475 43.2478991596639  17.2619047619048 36.1386554621848  17.2619047619048 36.1386554621848  C 17.2619047619048 36.1386554621848  19.6428571428571 37.3235294117648  19.6428571428571 37.3235294117648  C 19.6428571428571 37.3235294117648  24.4047619047619 33.7689075630252  24.4047619047619 33.7689075630252  C 24.4047619047619 33.7689075630252  24.4047619047619 24.2899159663866  24.4047619047619 24.2899159663866  C 24.4047619047619 24.2899159663866  30.3571428571427 15.9957983193278  30.3571428571427 15.9957983193278  C 30.3571428571427 15.9957983193278  32.7380952380952 17.1806722689075  32.7380952380952 17.1806722689075  C 32.7380952380952 17.1806722689075  37.5 14.8109243697479  37.5 14.8109243697479  C 37.5 14.8109243697479  38.6904761904759 17.1806722689075  38.6904761904759 17.1806722689075  C 38.6904761904759 17.1806722689075  41.0714285714284 17.1806722689075  41.0714285714284 17.1806722689075  C 41.0714285714284 17.1806722689075  54.1666666666665 7.70168067226888  54.1666666666665 7.70168067226888  C 54.1666666666665 7.70168067226888  58.9285714285716 10.0714285714286  58.9285714285716 10.0714285714286  C 58.9285714285716 10.0714285714286  70.8333333333335 2.96218487394958  70.8333333333335 2.96218487394958  C 70.8333333333335 2.96218487394958  80.3571428571426 0.592436974789962  80.3571428571426 0.592436974789962  C 80.3571428571426 0.592436974789962  86.3095238095239 2.96218487394958  86.3095238095239 2.96218487394958  C 86.3095238095239 2.96218487394958  91.0714285714284 0.592436974789962  91.0714285714284 0.592436974789962  C 91.0714285714284 0.592436974789962  93.452380952381 4.14705882352939  93.452380952381 4.14705882352939  C 93.452380952381 4.14705882352939  97.0238095238094 4.14705882352939  97.0238095238094 4.14705882352939  C 97.0238095238094 4.14705882352939  104.166666666667 15.9957983193278  104.166666666667 15.9957983193278  C 104.166666666667 15.9957983193278  102.976190476191 17.1806722689075  102.976190476191 17.1806722689075  C 102.976190476191 17.1806722689075  107.738095238095 19.5504201680673  107.738095238095 19.5504201680673  C 107.738095238095 19.5504201680673  107.738095238095 29.0294117647059  107.738095238095 29.0294117647059  C 107.738095238095 29.0294117647059  113.690476190476 32.5840336134454  113.690476190476 32.5840336134454  C 113.690476190476 32.5840336134454  114.880952380953 40.8781512605042  114.880952380953 40.8781512605042  C 114.880952380953 40.8781512605042  123.214285714286 38.5084033613446  123.214285714286 38.5084033613446  C 123.214285714286 38.5084033613446  125.595238095238 36.1386554621848  125.595238095238 36.1386554621848  C 125.595238095238 36.1386554621848  126.785714285714 37.3235294117648  126.785714285714 37.3235294117648  C 126.785714285714 37.3235294117648  126.785714285714 46.8025210084033  126.785714285714 46.8025210084033  C 126.785714285714 46.8025210084033  129.166666666667 49.172268907563  129.166666666667 49.172268907563  C 129.166666666667 49.172268907563  127.976190476191 53.9117647058824  127.976190476191 53.9117647058824  C 127.976190476191 53.9117647058824  131.547619047619 59.8361344537815  131.547619047619 59.8361344537815  C 131.547619047619 59.8361344537815  138.690476190476 58.6512605042017  138.690476190476 58.6512605042017  C 138.690476190476 58.6512605042017  144.642857142857 63.390756302521  144.642857142857 63.390756302521  C 144.642857142857 63.390756302521  139.880952380953 64.5756302521008  139.880952380953 64.5756302521008  C 139.880952380953 64.5756302521008  139.880952380953 68.1302521008404  139.880952380953 68.1302521008404  C 139.880952380953 68.1302521008404  144.642857142857 71.6848739495799  144.642857142857 71.6848739495799  C 144.642857142857 71.6848739495799  139.880952380953 72.8697478991596  139.880952380953 72.8697478991596  C 139.880952380953 72.8697478991596  141.071428571429 77.609243697479  141.071428571429 77.609243697479  C 141.071428571429 77.609243697479  149.404761904762 77.609243697479  149.404761904762 77.609243697479  C 149.404761904762 77.609243697479  148.214285714286 79.9789915966387  148.214285714286 79.9789915966387  C 148.214285714286 79.9789915966387  143.452380952381 82.3487394957984  143.452380952381 82.3487394957984  C 143.452380952381 82.3487394957984  144.642857142857 83.5336134453782  144.642857142857 83.5336134453782  C 144.642857142857 83.5336134453782  135.119047619048 82.3487394957984  135.119047619048 82.3487394957984  C 135.119047619048 82.3487394957984  131.547619047619 84.7184873949579  131.547619047619 84.7184873949579  C 131.547619047619 84.7184873949579  133.928571428572 87.0882352941176  133.928571428572 87.0882352941176  C 133.928571428572 87.0882352941176  133.928571428572 90.6428571428572  133.928571428572 90.6428571428572  C 133.928571428572 90.6428571428572  131.547619047619 93.0126050420168  131.547619047619 93.0126050420168  C 131.547619047619 93.0126050420168  132.738095238095 96.5672268907563  132.738095238095 96.5672268907563  C 132.738095238095 96.5672268907563  130.357142857143 98.936974789916  130.357142857143 98.936974789916  C 130.357142857143 98.936974789916  119.642857142857 96.5672268907563  119.642857142857 96.5672268907563  C 119.642857142857 96.5672268907563  117.261904761905 102.491596638656  117.261904761905 102.491596638656  C 117.261904761905 102.491596638656  114.880952380953 104.861344537815  114.880952380953 104.861344537815  C 114.880952380953 104.861344537815  111.309523809524 104.861344537815  111.309523809524 104.861344537815  C 111.309523809524 104.861344537815  107.738095238095 110.785714285714  107.738095238095 110.785714285714  C 107.738095238095 110.785714285714  100.595238095238 106.046218487395  100.595238095238 106.046218487395  C 100.595238095238 106.046218487395  95.8333333333335 109.600840336134  95.8333333333335 109.600840336134  C 95.8333333333335 109.600840336134  92.2619047619048 115.525210084034  92.2619047619048 115.525210084034  C 92.2619047619048 115.525210084034  88.6904761904761 114.340336134454  88.6904761904761 114.340336134454  C 88.6904761904761 114.340336134454  89.8809523809523 117.894957983193  89.8809523809523 117.894957983193  C 89.8809523809523 117.894957983193  86.3095238095239 121.449579831933  86.3095238095239 121.449579831933  C 86.3095238095239 121.449579831933  86.3095238095239 125.004201680672  86.3095238095239 125.004201680672  C 86.3095238095239 125.004201680672  83.9285714285713 126.189075630252  83.9285714285713 126.189075630252  C 83.9285714285713 126.189075630252  85.1190476190475 125.004201680672  85.1190476190475 125.004201680672  C 85.1190476190475 125.004201680672  80.3571428571426 119.079831932773  80.3571428571426 119.079831932773  C 80.3571428571426 119.079831932773  80.3571428571426 123.819327731092  80.3571428571426 123.819327731092  C 80.3571428571426 123.819327731092  70.8333333333335 121.449579831933  70.8333333333335 121.449579831933  C 70.8333333333335 121.449579831933  70.8333333333335 125.004201680672  70.8333333333335 125.004201680672  C 70.8333333333335 125.004201680672  64.8809523809525 127.373949579832  64.8809523809525 127.373949579832  C 64.8809523809525 127.373949579832  58.9285714285716 123.819327731092  58.9285714285716 123.819327731092  C 58.9285714285716 123.819327731092  49.4047619047619 122.634453781513  49.4047619047619 122.634453781513  C 49.4047619047619 122.634453781513  47.0238095238096 127.373949579832  47.0238095238096 127.373949579832  C 47.0238095238096 127.373949579832  47.0238095238096 125.004201680672  47.0238095238096 125.004201680672  C 47.0238095238096 125.004201680672  43.452380952381 126.189075630252  43.452380952381 126.189075630252  C 43.452380952381 126.189075630252  44.6428571428573 127.373949579832  44.6428571428573 127.373949579832  C 44.6428571428573 127.373949579832  38.6904761904759 128.558823529412  38.6904761904759 128.558823529412  C 38.6904761904759 128.558823529412  38.6904761904759 132.113445378151  38.6904761904759 132.113445378151  C 38.6904761904759 132.113445378151  35.1190476190475 133.298319327731  35.1190476190475 133.298319327731  C 35.1190476190475 133.298319327731  30.3571428571427 140.40756302521  30.3571428571427 140.40756302521  C 30.3571428571427 140.40756302521  23.2142857142856 140.40756302521  23.2142857142856 140.40756302521  C 23.2142857142856 140.40756302521  18.452380952381 136.85294117647  18.452380952381 136.85294117647  C 18.452380952381 136.85294117647  13.6904761904761 138.03781512605  13.6904761904761 138.03781512605  C 13.6904761904761 138.03781512605  12.4999999999998 133.298319327731  12.4999999999998 133.298319327731  Z " fill-rule="evenodd" />
    </mask>
  </defs>
  <g transform="matrix(1 0 0 1 -1129 -433 )">
    <path d="M 12.4999999999998 133.298319327731  C 12.4999999999998 133.298319327731  11.3095238095239 132.113445378151  11.3095238095239 132.113445378151  C 11.3095238095239 132.113445378151  11.3095238095239 127.373949579832  11.3095238095239 127.373949579832  C 11.3095238095239 127.373949579832  16.0714285714284 127.373949579832  16.0714285714284 127.373949579832  C 16.0714285714284 127.373949579832  18.452380952381 121.449579831933  18.452380952381 121.449579831933  C 18.452380952381 121.449579831933  17.2619047619048 116.710084033613  17.2619047619048 116.710084033613  C 17.2619047619048 116.710084033613  12.4999999999998 111.970588235294  12.4999999999998 111.970588235294  C 12.4999999999998 111.970588235294  14.8809523809523 111.970588235294  14.8809523809523 111.970588235294  C 14.8809523809523 111.970588235294  12.4999999999998 101.306722689076  12.4999999999998 101.306722689076  C 12.4999999999998 101.306722689076  16.0714285714284 93.0126050420168  16.0714285714284 93.0126050420168  C 16.0714285714284 93.0126050420168  13.6904761904761 90.6428571428572  13.6904761904761 90.6428571428572  C 13.6904761904761 90.6428571428572  11.3095238095239 82.3487394957984  11.3095238095239 82.3487394957984  C 11.3095238095239 82.3487394957984  7.73809523809518 83.5336134453782  7.73809523809518 83.5336134453782  C 7.73809523809518 83.5336134453782  5.35714285714266 79.9789915966387  5.35714285714266 79.9789915966387  C 5.35714285714266 79.9789915966387  6.54761904761904 75.2394957983193  6.54761904761904 75.2394957983193  C 6.54761904761904 75.2394957983193  4.16666666666652 76.4243697478992  4.16666666666652 76.4243697478992  C 4.16666666666652 76.4243697478992  0.595238095238074 66.9453781512605  0.595238095238074 66.9453781512605  C 0.595238095238074 66.9453781512605  4.16666666666652 68.1302521008404  4.16666666666652 68.1302521008404  C 4.16666666666652 68.1302521008404  2.9761904761906 59.8361344537815  2.9761904761906 59.8361344537815  C 2.9761904761906 59.8361344537815  8.92857142857133 57.4663865546219  8.92857142857133 57.4663865546219  C 8.92857142857133 57.4663865546219  10.1190476190475 58.6512605042017  10.1190476190475 58.6512605042017  C 10.1190476190475 58.6512605042017  14.8809523809523 53.9117647058824  14.8809523809523 53.9117647058824  C 14.8809523809523 53.9117647058824  13.6904761904761 50.3571428571428  13.6904761904761 50.3571428571428  C 13.6904761904761 50.3571428571428  7.73809523809518 47.9873949579832  7.73809523809518 47.9873949579832  C 7.73809523809518 47.9873949579832  10.1190476190475 43.2478991596639  10.1190476190475 43.2478991596639  C 10.1190476190475 43.2478991596639  17.2619047619048 36.1386554621848  17.2619047619048 36.1386554621848  C 17.2619047619048 36.1386554621848  19.6428571428571 37.3235294117648  19.6428571428571 37.3235294117648  C 19.6428571428571 37.3235294117648  24.4047619047619 33.7689075630252  24.4047619047619 33.7689075630252  C 24.4047619047619 33.7689075630252  24.4047619047619 24.2899159663866  24.4047619047619 24.2899159663866  C 24.4047619047619 24.2899159663866  30.3571428571427 15.9957983193278  30.3571428571427 15.9957983193278  C 30.3571428571427 15.9957983193278  32.7380952380952 17.1806722689075  32.7380952380952 17.1806722689075  C 32.7380952380952 17.1806722689075  37.5 14.8109243697479  37.5 14.8109243697479  C 37.5 14.8109243697479  38.6904761904759 17.1806722689075  38.6904761904759 17.1806722689075  C 38.6904761904759 17.1806722689075  41.0714285714284 17.1806722689075  41.0714285714284 17.1806722689075  C 41.0714285714284 17.1806722689075  54.1666666666665 7.70168067226888  54.1666666666665 7.70168067226888  C 54.1666666666665 7.70168067226888  58.9285714285716 10.0714285714286  58.9285714285716 10.0714285714286  C 58.9285714285716 10.0714285714286  70.8333333333335 2.96218487394958  70.8333333333335 2.96218487394958  C 70.8333333333335 2.96218487394958  80.3571428571426 0.592436974789962  80.3571428571426 0.592436974789962  C 80.3571428571426 0.592436974789962  86.3095238095239 2.96218487394958  86.3095238095239 2.96218487394958  C 86.3095238095239 2.96218487394958  91.0714285714284 0.592436974789962  91.0714285714284 0.592436974789962  C 91.0714285714284 0.592436974789962  93.452380952381 4.14705882352939  93.452380952381 4.14705882352939  C 93.452380952381 4.14705882352939  97.0238095238094 4.14705882352939  97.0238095238094 4.14705882352939  C 97.0238095238094 4.14705882352939  104.166666666667 15.9957983193278  104.166666666667 15.9957983193278  C 104.166666666667 15.9957983193278  102.976190476191 17.1806722689075  102.976190476191 17.1806722689075  C 102.976190476191 17.1806722689075  107.738095238095 19.5504201680673  107.738095238095 19.5504201680673  C 107.738095238095 19.5504201680673  107.738095238095 29.0294117647059  107.738095238095 29.0294117647059  C 107.738095238095 29.0294117647059  113.690476190476 32.5840336134454  113.690476190476 32.5840336134454  C 113.690476190476 32.5840336134454  114.880952380953 40.8781512605042  114.880952380953 40.8781512605042  C 114.880952380953 40.8781512605042  123.214285714286 38.5084033613446  123.214285714286 38.5084033613446  C 123.214285714286 38.5084033613446  125.595238095238 36.1386554621848  125.595238095238 36.1386554621848  C 125.595238095238 36.1386554621848  126.785714285714 37.3235294117648  126.785714285714 37.3235294117648  C 126.785714285714 37.3235294117648  126.785714285714 46.8025210084033  126.785714285714 46.8025210084033  C 126.785714285714 46.8025210084033  129.166666666667 49.172268907563  129.166666666667 49.172268907563  C 129.166666666667 49.172268907563  127.976190476191 53.9117647058824  127.976190476191 53.9117647058824  C 127.976190476191 53.9117647058824  131.547619047619 59.8361344537815  131.547619047619 59.8361344537815  C 131.547619047619 59.8361344537815  138.690476190476 58.6512605042017  138.690476190476 58.6512605042017  C 138.690476190476 58.6512605042017  144.642857142857 63.390756302521  144.642857142857 63.390756302521  C 144.642857142857 63.390756302521  139.880952380953 64.5756302521008  139.880952380953 64.5756302521008  C 139.880952380953 64.5756302521008  139.880952380953 68.1302521008404  139.880952380953 68.1302521008404  C 139.880952380953 68.1302521008404  144.642857142857 71.6848739495799  144.642857142857 71.6848739495799  C 144.642857142857 71.6848739495799  139.880952380953 72.8697478991596  139.880952380953 72.8697478991596  C 139.880952380953 72.8697478991596  141.071428571429 77.609243697479  141.071428571429 77.609243697479  C 141.071428571429 77.609243697479  149.404761904762 77.609243697479  149.404761904762 77.609243697479  C 149.404761904762 77.609243697479  148.214285714286 79.9789915966387  148.214285714286 79.9789915966387  C 148.214285714286 79.9789915966387  143.452380952381 82.3487394957984  143.452380952381 82.3487394957984  C 143.452380952381 82.3487394957984  144.642857142857 83.5336134453782  144.642857142857 83.5336134453782  C 144.642857142857 83.5336134453782  135.119047619048 82.3487394957984  135.119047619048 82.3487394957984  C 135.119047619048 82.3487394957984  131.547619047619 84.7184873949579  131.547619047619 84.7184873949579  C 131.547619047619 84.7184873949579  133.928571428572 87.0882352941176  133.928571428572 87.0882352941176  C 133.928571428572 87.0882352941176  133.928571428572 90.6428571428572  133.928571428572 90.6428571428572  C 133.928571428572 90.6428571428572  131.547619047619 93.0126050420168  131.547619047619 93.0126050420168  C 131.547619047619 93.0126050420168  132.738095238095 96.5672268907563  132.738095238095 96.5672268907563  C 132.738095238095 96.5672268907563  130.357142857143 98.936974789916  130.357142857143 98.936974789916  C 130.357142857143 98.936974789916  119.642857142857 96.5672268907563  119.642857142857 96.5672268907563  C 119.642857142857 96.5672268907563  117.261904761905 102.491596638656  117.261904761905 102.491596638656  C 117.261904761905 102.491596638656  114.880952380953 104.861344537815  114.880952380953 104.861344537815  C 114.880952380953 104.861344537815  111.309523809524 104.861344537815  111.309523809524 104.861344537815  C 111.309523809524 104.861344537815  107.738095238095 110.785714285714  107.738095238095 110.785714285714  C 107.738095238095 110.785714285714  100.595238095238 106.046218487395  100.595238095238 106.046218487395  C 100.595238095238 106.046218487395  95.8333333333335 109.600840336134  95.8333333333335 109.600840336134  C 95.8333333333335 109.600840336134  92.2619047619048 115.525210084034  92.2619047619048 115.525210084034  C 92.2619047619048 115.525210084034  88.6904761904761 114.340336134454  88.6904761904761 114.340336134454  C 88.6904761904761 114.340336134454  89.8809523809523 117.894957983193  89.8809523809523 117.894957983193  C 89.8809523809523 117.894957983193  86.3095238095239 121.449579831933  86.3095238095239 121.449579831933  C 86.3095238095239 121.449579831933  86.3095238095239 125.004201680672  86.3095238095239 125.004201680672  C 86.3095238095239 125.004201680672  83.9285714285713 126.189075630252  83.9285714285713 126.189075630252  C 83.9285714285713 126.189075630252  85.1190476190475 125.004201680672  85.1190476190475 125.004201680672  C 85.1190476190475 125.004201680672  80.3571428571426 119.079831932773  80.3571428571426 119.079831932773  C 80.3571428571426 119.079831932773  80.3571428571426 123.819327731092  80.3571428571426 123.819327731092  C 80.3571428571426 123.819327731092  70.8333333333335 121.449579831933  70.8333333333335 121.449579831933  C 70.8333333333335 121.449579831933  70.8333333333335 125.004201680672  70.8333333333335 125.004201680672  C 70.8333333333335 125.004201680672  64.8809523809525 127.373949579832  64.8809523809525 127.373949579832  C 64.8809523809525 127.373949579832  58.9285714285716 123.819327731092  58.9285714285716 123.819327731092  C 58.9285714285716 123.819327731092  49.4047619047619 122.634453781513  49.4047619047619 122.634453781513  C 49.4047619047619 122.634453781513  47.0238095238096 127.373949579832  47.0238095238096 127.373949579832  C 47.0238095238096 127.373949579832  47.0238095238096 125.004201680672  47.0238095238096 125.004201680672  C 47.0238095238096 125.004201680672  43.452380952381 126.189075630252  43.452380952381 126.189075630252  C 43.452380952381 126.189075630252  44.6428571428573 127.373949579832  44.6428571428573 127.373949579832  C 44.6428571428573 127.373949579832  38.6904761904759 128.558823529412  38.6904761904759 128.558823529412  C 38.6904761904759 128.558823529412  38.6904761904759 132.113445378151  38.6904761904759 132.113445378151  C 38.6904761904759 132.113445378151  35.1190476190475 133.298319327731  35.1190476190475 133.298319327731  C 35.1190476190475 133.298319327731  30.3571428571427 140.40756302521  30.3571428571427 140.40756302521  C 30.3571428571427 140.40756302521  23.2142857142856 140.40756302521  23.2142857142856 140.40756302521  C 23.2142857142856 140.40756302521  18.452380952381 136.85294117647  18.452380952381 136.85294117647  C 18.452380952381 136.85294117647  13.6904761904761 138.03781512605  13.6904761904761 138.03781512605  C 13.6904761904761 138.03781512605  12.4999999999998 133.298319327731  12.4999999999998 133.298319327731  Z " fill-rule="nonzero" fill="#0033ff" stroke="none" fill-opacity="0" transform="matrix(1 0 0 1 1129 433 )" />
    <path d="M 12.4999999999998 133.298319327731  C 12.4999999999998 133.298319327731  11.3095238095239 132.113445378151  11.3095238095239 132.113445378151  C 11.3095238095239 132.113445378151  11.3095238095239 127.373949579832  11.3095238095239 127.373949579832  C 11.3095238095239 127.373949579832  16.0714285714284 127.373949579832  16.0714285714284 127.373949579832  C 16.0714285714284 127.373949579832  18.452380952381 121.449579831933  18.452380952381 121.449579831933  C 18.452380952381 121.449579831933  17.2619047619048 116.710084033613  17.2619047619048 116.710084033613  C 17.2619047619048 116.710084033613  12.4999999999998 111.970588235294  12.4999999999998 111.970588235294  C 12.4999999999998 111.970588235294  14.8809523809523 111.970588235294  14.8809523809523 111.970588235294  C 14.8809523809523 111.970588235294  12.4999999999998 101.306722689076  12.4999999999998 101.306722689076  C 12.4999999999998 101.306722689076  16.0714285714284 93.0126050420168  16.0714285714284 93.0126050420168  C 16.0714285714284 93.0126050420168  13.6904761904761 90.6428571428572  13.6904761904761 90.6428571428572  C 13.6904761904761 90.6428571428572  11.3095238095239 82.3487394957984  11.3095238095239 82.3487394957984  C 11.3095238095239 82.3487394957984  7.73809523809518 83.5336134453782  7.73809523809518 83.5336134453782  C 7.73809523809518 83.5336134453782  5.35714285714266 79.9789915966387  5.35714285714266 79.9789915966387  C 5.35714285714266 79.9789915966387  6.54761904761904 75.2394957983193  6.54761904761904 75.2394957983193  C 6.54761904761904 75.2394957983193  4.16666666666652 76.4243697478992  4.16666666666652 76.4243697478992  C 4.16666666666652 76.4243697478992  0.595238095238074 66.9453781512605  0.595238095238074 66.9453781512605  C 0.595238095238074 66.9453781512605  4.16666666666652 68.1302521008404  4.16666666666652 68.1302521008404  C 4.16666666666652 68.1302521008404  2.9761904761906 59.8361344537815  2.9761904761906 59.8361344537815  C 2.9761904761906 59.8361344537815  8.92857142857133 57.4663865546219  8.92857142857133 57.4663865546219  C 8.92857142857133 57.4663865546219  10.1190476190475 58.6512605042017  10.1190476190475 58.6512605042017  C 10.1190476190475 58.6512605042017  14.8809523809523 53.9117647058824  14.8809523809523 53.9117647058824  C 14.8809523809523 53.9117647058824  13.6904761904761 50.3571428571428  13.6904761904761 50.3571428571428  C 13.6904761904761 50.3571428571428  7.73809523809518 47.9873949579832  7.73809523809518 47.9873949579832  C 7.73809523809518 47.9873949579832  10.1190476190475 43.2478991596639  10.1190476190475 43.2478991596639  C 10.1190476190475 43.2478991596639  17.2619047619048 36.1386554621848  17.2619047619048 36.1386554621848  C 17.2619047619048 36.1386554621848  19.6428571428571 37.3235294117648  19.6428571428571 37.3235294117648  C 19.6428571428571 37.3235294117648  24.4047619047619 33.7689075630252  24.4047619047619 33.7689075630252  C 24.4047619047619 33.7689075630252  24.4047619047619 24.2899159663866  24.4047619047619 24.2899159663866  C 24.4047619047619 24.2899159663866  30.3571428571427 15.9957983193278  30.3571428571427 15.9957983193278  C 30.3571428571427 15.9957983193278  32.7380952380952 17.1806722689075  32.7380952380952 17.1806722689075  C 32.7380952380952 17.1806722689075  37.5 14.8109243697479  37.5 14.8109243697479  C 37.5 14.8109243697479  38.6904761904759 17.1806722689075  38.6904761904759 17.1806722689075  C 38.6904761904759 17.1806722689075  41.0714285714284 17.1806722689075  41.0714285714284 17.1806722689075  C 41.0714285714284 17.1806722689075  54.1666666666665 7.70168067226888  54.1666666666665 7.70168067226888  C 54.1666666666665 7.70168067226888  58.9285714285716 10.0714285714286  58.9285714285716 10.0714285714286  C 58.9285714285716 10.0714285714286  70.8333333333335 2.96218487394958  70.8333333333335 2.96218487394958  C 70.8333333333335 2.96218487394958  80.3571428571426 0.592436974789962  80.3571428571426 0.592436974789962  C 80.3571428571426 0.592436974789962  86.3095238095239 2.96218487394958  86.3095238095239 2.96218487394958  C 86.3095238095239 2.96218487394958  91.0714285714284 0.592436974789962  91.0714285714284 0.592436974789962  C 91.0714285714284 0.592436974789962  93.452380952381 4.14705882352939  93.452380952381 4.14705882352939  C 93.452380952381 4.14705882352939  97.0238095238094 4.14705882352939  97.0238095238094 4.14705882352939  C 97.0238095238094 4.14705882352939  104.166666666667 15.9957983193278  104.166666666667 15.9957983193278  C 104.166666666667 15.9957983193278  102.976190476191 17.1806722689075  102.976190476191 17.1806722689075  C 102.976190476191 17.1806722689075  107.738095238095 19.5504201680673  107.738095238095 19.5504201680673  C 107.738095238095 19.5504201680673  107.738095238095 29.0294117647059  107.738095238095 29.0294117647059  C 107.738095238095 29.0294117647059  113.690476190476 32.5840336134454  113.690476190476 32.5840336134454  C 113.690476190476 32.5840336134454  114.880952380953 40.8781512605042  114.880952380953 40.8781512605042  C 114.880952380953 40.8781512605042  123.214285714286 38.5084033613446  123.214285714286 38.5084033613446  C 123.214285714286 38.5084033613446  125.595238095238 36.1386554621848  125.595238095238 36.1386554621848  C 125.595238095238 36.1386554621848  126.785714285714 37.3235294117648  126.785714285714 37.3235294117648  C 126.785714285714 37.3235294117648  126.785714285714 46.8025210084033  126.785714285714 46.8025210084033  C 126.785714285714 46.8025210084033  129.166666666667 49.172268907563  129.166666666667 49.172268907563  C 129.166666666667 49.172268907563  127.976190476191 53.9117647058824  127.976190476191 53.9117647058824  C 127.976190476191 53.9117647058824  131.547619047619 59.8361344537815  131.547619047619 59.8361344537815  C 131.547619047619 59.8361344537815  138.690476190476 58.6512605042017  138.690476190476 58.6512605042017  C 138.690476190476 58.6512605042017  144.642857142857 63.390756302521  144.642857142857 63.390756302521  C 144.642857142857 63.390756302521  139.880952380953 64.5756302521008  139.880952380953 64.5756302521008  C 139.880952380953 64.5756302521008  139.880952380953 68.1302521008404  139.880952380953 68.1302521008404  C 139.880952380953 68.1302521008404  144.642857142857 71.6848739495799  144.642857142857 71.6848739495799  C 144.642857142857 71.6848739495799  139.880952380953 72.8697478991596  139.880952380953 72.8697478991596  C 139.880952380953 72.8697478991596  141.071428571429 77.609243697479  141.071428571429 77.609243697479  C 141.071428571429 77.609243697479  149.404761904762 77.609243697479  149.404761904762 77.609243697479  C 149.404761904762 77.609243697479  148.214285714286 79.9789915966387  148.214285714286 79.9789915966387  C 148.214285714286 79.9789915966387  143.452380952381 82.3487394957984  143.452380952381 82.3487394957984  C 143.452380952381 82.3487394957984  144.642857142857 83.5336134453782  144.642857142857 83.5336134453782  C 144.642857142857 83.5336134453782  135.119047619048 82.3487394957984  135.119047619048 82.3487394957984  C 135.119047619048 82.3487394957984  131.547619047619 84.7184873949579  131.547619047619 84.7184873949579  C 131.547619047619 84.7184873949579  133.928571428572 87.0882352941176  133.928571428572 87.0882352941176  C 133.928571428572 87.0882352941176  133.928571428572 90.6428571428572  133.928571428572 90.6428571428572  C 133.928571428572 90.6428571428572  131.547619047619 93.0126050420168  131.547619047619 93.0126050420168  C 131.547619047619 93.0126050420168  132.738095238095 96.5672268907563  132.738095238095 96.5672268907563  C 132.738095238095 96.5672268907563  130.357142857143 98.936974789916  130.357142857143 98.936974789916  C 130.357142857143 98.936974789916  119.642857142857 96.5672268907563  119.642857142857 96.5672268907563  C 119.642857142857 96.5672268907563  117.261904761905 102.491596638656  117.261904761905 102.491596638656  C 117.261904761905 102.491596638656  114.880952380953 104.861344537815  114.880952380953 104.861344537815  C 114.880952380953 104.861344537815  111.309523809524 104.861344537815  111.309523809524 104.861344537815  C 111.309523809524 104.861344537815  107.738095238095 110.785714285714  107.738095238095 110.785714285714  C 107.738095238095 110.785714285714  100.595238095238 106.046218487395  100.595238095238 106.046218487395  C 100.595238095238 106.046218487395  95.8333333333335 109.600840336134  95.8333333333335 109.600840336134  C 95.8333333333335 109.600840336134  92.2619047619048 115.525210084034  92.2619047619048 115.525210084034  C 92.2619047619048 115.525210084034  88.6904761904761 114.340336134454  88.6904761904761 114.340336134454  C 88.6904761904761 114.340336134454  89.8809523809523 117.894957983193  89.8809523809523 117.894957983193  C 89.8809523809523 117.894957983193  86.3095238095239 121.449579831933  86.3095238095239 121.449579831933  C 86.3095238095239 121.449579831933  86.3095238095239 125.004201680672  86.3095238095239 125.004201680672  C 86.3095238095239 125.004201680672  83.9285714285713 126.189075630252  83.9285714285713 126.189075630252  C 83.9285714285713 126.189075630252  85.1190476190475 125.004201680672  85.1190476190475 125.004201680672  C 85.1190476190475 125.004201680672  80.3571428571426 119.079831932773  80.3571428571426 119.079831932773  C 80.3571428571426 119.079831932773  80.3571428571426 123.819327731092  80.3571428571426 123.819327731092  C 80.3571428571426 123.819327731092  70.8333333333335 121.449579831933  70.8333333333335 121.449579831933  C 70.8333333333335 121.449579831933  70.8333333333335 125.004201680672  70.8333333333335 125.004201680672  C 70.8333333333335 125.004201680672  64.8809523809525 127.373949579832  64.8809523809525 127.373949579832  C 64.8809523809525 127.373949579832  58.9285714285716 123.819327731092  58.9285714285716 123.819327731092  C 58.9285714285716 123.819327731092  49.4047619047619 122.634453781513  49.4047619047619 122.634453781513  C 49.4047619047619 122.634453781513  47.0238095238096 127.373949579832  47.0238095238096 127.373949579832  C 47.0238095238096 127.373949579832  47.0238095238096 125.004201680672  47.0238095238096 125.004201680672  C 47.0238095238096 125.004201680672  43.452380952381 126.189075630252  43.452380952381 126.189075630252  C 43.452380952381 126.189075630252  44.6428571428573 127.373949579832  44.6428571428573 127.373949579832  C 44.6428571428573 127.373949579832  38.6904761904759 128.558823529412  38.6904761904759 128.558823529412  C 38.6904761904759 128.558823529412  38.6904761904759 132.113445378151  38.6904761904759 132.113445378151  C 38.6904761904759 132.113445378151  35.1190476190475 133.298319327731  35.1190476190475 133.298319327731  C 35.1190476190475 133.298319327731  30.3571428571427 140.40756302521  30.3571428571427 140.40756302521  C 30.3571428571427 140.40756302521  23.2142857142856 140.40756302521  23.2142857142856 140.40756302521  C 23.2142857142856 140.40756302521  18.452380952381 136.85294117647  18.452380952381 136.85294117647  C 18.452380952381 136.85294117647  13.6904761904761 138.03781512605  13.6904761904761 138.03781512605  C 13.6904761904761 138.03781512605  12.4999999999998 133.298319327731  12.4999999999998 133.298319327731  Z " stroke-width="2" stroke-dasharray="1,1" stroke="#999999" fill="none" transform="matrix(1 0 0 1 1129 433 )" mask="url(#clip2036)" />
  </g>
</svg>