<?xml version="1.0" encoding="utf-8"?>
<svg version="1.1" xmlns:xlink="http://www.w3.org/1999/xlink" width="259px" height="214px" xmlns="http://www.w3.org/2000/svg">
  <defs>
    <mask fill="white" id="clip2044">
      <path d="M 74.2545871559633 211.027777777778  C 74.2545871559633 211.027777777778  71.8784403669725 213.405555555556  71.8784403669725 213.405555555556  C 71.8784403669725 213.405555555556  69.5022935779816 212.216666666667  69.5022935779816 212.216666666667  C 69.5022935779816 212.216666666667  64.75 201.516666666667  64.75 201.516666666667  C 64.75 201.516666666667  64.75 195.572222222222  64.75 195.572222222222  C 64.75 195.572222222222  57.6215596330275 189.627777777778  57.6215596330275 189.627777777778  C 57.6215596330275 189.627777777778  58.8096330275229 187.25  58.8096330275229 187.25  C 58.8096330275229 187.25  56.4334862385321 177.738888888889  56.4334862385321 177.738888888889  C 56.4334862385321 177.738888888889  49.3050458715595 177.738888888889  49.3050458715595 177.738888888889  C 49.3050458715595 177.738888888889  43.3646788990826 174.172222222222  43.3646788990826 174.172222222222  C 43.3646788990826 174.172222222222  39.8004587155963 175.361111111111  39.8004587155963 175.361111111111  C 39.8004587155963 175.361111111111  39.8004587155963 170.605555555556  39.8004587155963 170.605555555556  C 39.8004587155963 170.605555555556  32.6720183486239 167.038888888889  32.6720183486239 167.038888888889  C 32.6720183486239 167.038888888889  19.6032110091743 149.205555555556  19.6032110091743 149.205555555556  C 19.6032110091743 149.205555555556  19.6032110091743 146.827777777778  19.6032110091743 146.827777777778  C 19.6032110091743 146.827777777778  11.2866972477065 142.072222222222  11.2866972477065 142.072222222222  C 11.2866972477065 142.072222222222  13.6628440366973 133.75  13.6628440366973 133.75  C 13.6628440366973 133.75  11.2866972477065 133.75  11.2866972477065 133.75  C 11.2866972477065 133.75  11.2866972477065 130.183333333333  11.2866972477065 130.183333333333  C 11.2866972477065 130.183333333333  13.6628440366973 127.805555555556  13.6628440366973 127.805555555556  C 13.6628440366973 127.805555555556  14.8509174311927 121.861111111111  14.8509174311927 121.861111111111  C 14.8509174311927 121.861111111111  10.0986238532109 119.483333333333  10.0986238532109 119.483333333333  C 10.0986238532109 119.483333333333  2.97018348623851 119.483333333333  2.97018348623851 119.483333333333  C 2.97018348623851 119.483333333333  0.594036697247702 117.105555555556  0.594036697247702 117.105555555556  C 0.594036697247702 117.105555555556  6.53440366972472 102.838888888889  6.53440366972472 102.838888888889  C 6.53440366972472 102.838888888889  18.4151376146789 93.3277777777778  18.4151376146789 93.3277777777778  C 18.4151376146789 93.3277777777778  26.7316513761468 94.5166666666667  26.7316513761468 94.5166666666667  C 26.7316513761468 94.5166666666667  29.1077981651376 82.6277777777778  29.1077981651376 82.6277777777778  C 29.1077981651376 82.6277777777778  35.0481651376147 80.25  35.0481651376147 80.25  C 35.0481651376147 80.25  46.9288990825688 80.25  46.9288990825688 80.25  C 46.9288990825688 80.25  52.869266055046 70.7388888888889  52.869266055046 70.7388888888889  C 52.869266055046 70.7388888888889  71.8784403669725 75.4944444444445  71.8784403669725 75.4944444444445  C 71.8784403669725 75.4944444444445  70.6903669724771 77.8722222222222  70.6903669724771 77.8722222222222  C 70.6903669724771 77.8722222222222  73.0665137614679 76.6833333333333  73.0665137614679 76.6833333333333  C 73.0665137614679 76.6833333333333  76.630733944954 86.1944444444445  76.630733944954 86.1944444444445  C 76.630733944954 86.1944444444445  80.1949541284404 86.1944444444445  80.1949541284404 86.1944444444445  C 80.1949541284404 86.1944444444445  80.1949541284404 83.8166666666667  80.1949541284404 83.8166666666667  C 80.1949541284404 83.8166666666667  82.5711009174312 83.8166666666667  82.5711009174312 83.8166666666667  C 82.5711009174312 83.8166666666667  89.6995412844037 75.4944444444445  89.6995412844037 75.4944444444445  C 89.6995412844037 75.4944444444445  90.887614678899 79.0611111111111  90.887614678899 79.0611111111111  C 90.887614678899 79.0611111111111  99.2041284403671 75.4944444444445  99.2041284403671 75.4944444444445  C 99.2041284403671 75.4944444444445  108.70871559633 67.1722222222222  108.70871559633 67.1722222222222  C 108.70871559633 67.1722222222222  118.213302752294 65.9833333333333  118.213302752294 65.9833333333333  C 118.213302752294 65.9833333333333  115.837155963303 58.85  115.837155963303 58.85  C 115.837155963303 58.85  122.965596330275 50.5277777777778  122.965596330275 50.5277777777778  C 122.965596330275 50.5277777777778  132.470183486239 52.9055555555555  132.470183486239 52.9055555555555  C 132.470183486239 52.9055555555555  136.034403669725 42.2055555555556  136.034403669725 42.2055555555556  C 136.034403669725 42.2055555555556  134.846330275229 38.6388888888889  134.846330275229 38.6388888888889  C 134.846330275229 38.6388888888889  145.538990825688 24.3722222222222  145.538990825688 24.3722222222222  C 145.538990825688 24.3722222222222  145.538990825688 20.8055555555555  145.538990825688 20.8055555555555  C 145.538990825688 20.8055555555555  150.29128440367 19.6166666666667  150.29128440367 19.6166666666667  C 150.29128440367 19.6166666666667  150.29128440367 17.2388888888889  150.29128440367 17.2388888888889  C 150.29128440367 17.2388888888889  153.855504587156 13.6722222222222  153.855504587156 13.6722222222222  C 153.855504587156 13.6722222222222  152.667431192661 12.4833333333333  152.667431192661 12.4833333333333  C 152.667431192661 12.4833333333333  155.043577981651 4.16111111111113  155.043577981651 4.16111111111113  C 155.043577981651 4.16111111111113  158.607798165138 0.594444444444463  158.607798165138 0.594444444444463  C 158.607798165138 0.594444444444463  165.73623853211 6.53888888888892  165.73623853211 6.53888888888892  C 165.73623853211 6.53888888888892  166.924311926605 12.4833333333333  166.924311926605 12.4833333333333  C 166.924311926605 12.4833333333333  171.676605504587 11.2944444444444  171.676605504587 11.2944444444444  C 171.676605504587 11.2944444444444  174.052752293578 14.8611111111111  174.052752293578 14.8611111111111  C 174.052752293578 14.8611111111111  176.428899082569 14.8611111111111  176.428899082569 14.8611111111111  C 176.428899082569 14.8611111111111  176.428899082569 11.2944444444444  176.428899082569 11.2944444444444  C 176.428899082569 11.2944444444444  179.993119266055 7.72777777777776  179.993119266055 7.72777777777776  C 179.993119266055 7.72777777777776  195.438073394495 8.91666666666666  195.438073394495 8.91666666666666  C 195.438073394495 8.91666666666666  202.566513761468 5.35000000000002  202.566513761468 5.35000000000002  C 202.566513761468 5.35000000000002  209.69495412844 5.35000000000002  209.69495412844 5.35000000000002  C 209.69495412844 5.35000000000002  209.69495412844 8.91666666666666  209.69495412844 8.91666666666666  C 209.69495412844 8.91666666666666  212.071100917431 10.1055555555556  212.071100917431 10.1055555555556  C 212.071100917431 10.1055555555556  219.199541284404 8.91666666666666  219.199541284404 8.91666666666666  C 219.199541284404 8.91666666666666  221.575688073395 11.2944444444444  221.575688073395 11.2944444444444  C 221.575688073395 11.2944444444444  225.139908256881 7.72777777777776  225.139908256881 7.72777777777776  C 225.139908256881 7.72777777777776  229.892201834862 8.91666666666666  229.892201834862 8.91666666666666  C 229.892201834862 8.91666666666666  234.644495412844 13.6722222222222  234.644495412844 13.6722222222222  C 234.644495412844 13.6722222222222  235.832568807339 12.4833333333333  235.832568807339 12.4833333333333  C 235.832568807339 12.4833333333333  235.832568807339 18.4277777777777  235.832568807339 18.4277777777777  C 235.832568807339 18.4277777777777  239.396788990826 20.8055555555555  239.396788990826 20.8055555555555  C 239.396788990826 20.8055555555555  239.396788990826 26.75  239.396788990826 26.75  C 239.396788990826 26.75  235.832568807339 35.0722222222223  235.832568807339 35.0722222222223  C 235.832568807339 35.0722222222223  237.020642201835 38.6388888888889  237.020642201835 38.6388888888889  C 237.020642201835 38.6388888888889  232.268348623853 41.0166666666667  232.268348623853 41.0166666666667  C 232.268348623853 41.0166666666667  231.080275229358 45.7722222222222  231.080275229358 45.7722222222222  C 231.080275229358 45.7722222222222  232.268348623853 48.15  232.268348623853 48.15  C 232.268348623853 48.15  235.832568807339 49.3388888888889  235.832568807339 49.3388888888889  C 235.832568807339 49.3388888888889  239.396788990826 48.15  239.396788990826 48.15  C 239.396788990826 48.15  241.772935779816 52.9055555555555  241.772935779816 52.9055555555555  C 241.772935779816 52.9055555555555  247.713302752294 55.2833333333334  247.713302752294 55.2833333333334  C 247.713302752294 55.2833333333334  254.841743119266 62.4166666666667  254.841743119266 62.4166666666667  C 254.841743119266 62.4166666666667  258.405963302752 63.6055555555556  258.405963302752 63.6055555555556  C 258.405963302752 63.6055555555556  257.217889908257 67.1722222222222  257.217889908257 67.1722222222222  C 257.217889908257 67.1722222222222  248.901376146789 67.1722222222222  248.901376146789 67.1722222222222  C 248.901376146789 67.1722222222222  245.337155963303 75.4944444444445  245.337155963303 75.4944444444445  C 245.337155963303 75.4944444444445  245.337155963303 81.4388888888889  245.337155963303 81.4388888888889  C 245.337155963303 81.4388888888889  237.020642201835 93.3277777777778  237.020642201835 93.3277777777778  C 237.020642201835 93.3277777777778  231.080275229358 96.8944444444444  231.080275229358 96.8944444444444  C 231.080275229358 96.8944444444444  229.892201834862 101.65  229.892201834862 101.65  C 229.892201834862 101.65  226.327981651376 104.027777777778  226.327981651376 104.027777777778  C 226.327981651376 104.027777777778  223.951834862385 109.972222222222  223.951834862385 109.972222222222  C 223.951834862385 109.972222222222  228.704128440367 113.538888888889  228.704128440367 113.538888888889  C 228.704128440367 113.538888888889  234.644495412844 112.35  234.644495412844 112.35  C 234.644495412844 112.35  241.772935779816 120.672222222222  241.772935779816 120.672222222222  C 241.772935779816 120.672222222222  241.772935779816 123.05  241.772935779816 123.05  C 241.772935779816 123.05  233.456422018349 126.616666666667  233.456422018349 126.616666666667  C 233.456422018349 126.616666666667  225.139908256881 124.238888888889  225.139908256881 124.238888888889  C 225.139908256881 124.238888888889  215.635321100917 127.805555555556  215.635321100917 127.805555555556  C 215.635321100917 127.805555555556  207.318807339449 126.616666666667  207.318807339449 126.616666666667  C 207.318807339449 126.616666666667  202.566513761468 130.183333333333  202.566513761468 130.183333333333  C 202.566513761468 130.183333333333  201.378440366972 126.616666666667  201.378440366972 126.616666666667  C 201.378440366972 126.616666666667  197.814220183486 125.427777777778  197.814220183486 125.427777777778  C 197.814220183486 125.427777777778  197.814220183486 120.672222222222  197.814220183486 120.672222222222  C 197.814220183486 120.672222222222  191.873853211009 118.294444444444  191.873853211009 118.294444444444  C 191.873853211009 118.294444444444  181.181192660551 119.483333333333  181.181192660551 119.483333333333  C 181.181192660551 119.483333333333  175.240825688073 125.427777777778  175.240825688073 125.427777777778  C 175.240825688073 125.427777777778  171.676605504587 125.427777777778  171.676605504587 125.427777777778  C 171.676605504587 125.427777777778  175.240825688073 136.127777777778  175.240825688073 136.127777777778  C 175.240825688073 136.127777777778  171.676605504587 143.261111111111  171.676605504587 143.261111111111  C 171.676605504587 143.261111111111  171.676605504587 165.85  171.676605504587 165.85  C 171.676605504587 165.85  169.300458715596 169.416666666667  169.300458715596 169.416666666667  C 169.300458715596 169.416666666667  165.73623853211 165.85  165.73623853211 165.85  C 165.73623853211 165.85  159.795871559633 167.038888888889  159.795871559633 167.038888888889  C 159.795871559633 167.038888888889  159.795871559633 169.416666666667  159.795871559633 169.416666666667  C 159.795871559633 169.416666666667  157.419724770642 167.038888888889  157.419724770642 167.038888888889  C 157.419724770642 167.038888888889  153.855504587156 169.416666666667  153.855504587156 169.416666666667  C 153.855504587156 169.416666666667  152.667431192661 167.038888888889  152.667431192661 167.038888888889  C 152.667431192661 167.038888888889  147.915137614679 167.038888888889  147.915137614679 167.038888888889  C 147.915137614679 167.038888888889  146.727064220183 169.416666666667  146.727064220183 169.416666666667  C 146.727064220183 169.416666666667  138.410550458716 172.983333333333  138.410550458716 172.983333333333  C 138.410550458716 172.983333333333  137.22247706422 170.605555555556  137.22247706422 170.605555555556  C 137.22247706422 170.605555555556  131.282110091743 172.983333333333  131.282110091743 172.983333333333  C 131.282110091743 172.983333333333  126.529816513761 175.361111111111  126.529816513761 175.361111111111  C 126.529816513761 175.361111111111  126.529816513761 178.927777777778  126.529816513761 178.927777777778  C 126.529816513761 178.927777777778  130.094036697248 181.305555555556  130.094036697248 181.305555555556  C 130.094036697248 181.305555555556  127.717889908257 184.872222222222  127.717889908257 184.872222222222  C 127.717889908257 184.872222222222  125.341743119266 184.872222222222  125.341743119266 184.872222222222  C 125.341743119266 184.872222222222  125.341743119266 180.116666666667  125.341743119266 180.116666666667  C 125.341743119266 180.116666666667  124.153669724771 181.305555555556  124.153669724771 181.305555555556  C 124.153669724771 181.305555555556  125.341743119266 193.194444444444  125.341743119266 193.194444444444  C 125.341743119266 193.194444444444  121.77752293578 194.383333333333  121.77752293578 194.383333333333  C 121.77752293578 194.383333333333  119.401376146789 194.383333333333  119.401376146789 194.383333333333  C 119.401376146789 194.383333333333  115.837155963303 187.25  115.837155963303 187.25  C 115.837155963303 187.25  107.520642201835 187.25  107.520642201835 187.25  C 107.520642201835 187.25  107.520642201835 184.872222222222  107.520642201835 184.872222222222  C 107.520642201835 184.872222222222  105.144495412844 183.683333333333  105.144495412844 183.683333333333  C 105.144495412844 183.683333333333  100.392201834862 184.872222222222  100.392201834862 184.872222222222  C 100.392201834862 184.872222222222  98.0160550458714 188.438888888889  98.0160550458714 188.438888888889  C 98.0160550458714 188.438888888889  99.2041284403671 190.816666666667  99.2041284403671 190.816666666667  C 99.2041284403671 190.816666666667  93.2637614678899 194.383333333333  93.2637614678899 194.383333333333  C 93.2637614678899 194.383333333333  90.887614678899 194.383333333333  90.887614678899 194.383333333333  C 90.887614678899 194.383333333333  86.1353211009174 186.061111111111  86.1353211009174 186.061111111111  C 86.1353211009174 186.061111111111  83.7591743119266 186.061111111111  83.7591743119266 186.061111111111  C 83.7591743119266 186.061111111111  81.3830275229357 189.627777777778  81.3830275229357 189.627777777778  C 81.3830275229357 189.627777777778  79.006880733945 188.438888888889  79.006880733945 188.438888888889  C 79.006880733945 188.438888888889  73.0665137614679 192.005555555556  73.0665137614679 192.005555555556  C 73.0665137614679 192.005555555556  79.006880733945 200.327777777778  79.006880733945 200.327777777778  C 79.006880733945 200.327777777778  76.630733944954 200.327777777778  76.630733944954 200.327777777778  C 76.630733944954 200.327777777778  74.2545871559633 211.027777777778  74.2545871559633 211.027777777778  Z " fill-rule="evenodd" />
    </mask>
  </defs>
  <g transform="matrix(1 0 0 1 -766 -267 )">
    <path d="M 74.2545871559633 211.027777777778  C 74.2545871559633 211.027777777778  71.8784403669725 213.405555555556  71.8784403669725 213.405555555556  C 71.8784403669725 213.405555555556  69.5022935779816 212.216666666667  69.5022935779816 212.216666666667  C 69.5022935779816 212.216666666667  64.75 201.516666666667  64.75 201.516666666667  C 64.75 201.516666666667  64.75 195.572222222222  64.75 195.572222222222  C 64.75 195.572222222222  57.6215596330275 189.627777777778  57.6215596330275 189.627777777778  C 57.6215596330275 189.627777777778  58.8096330275229 187.25  58.8096330275229 187.25  C 58.8096330275229 187.25  56.4334862385321 177.738888888889  56.4334862385321 177.738888888889  C 56.4334862385321 177.738888888889  49.3050458715595 177.738888888889  49.3050458715595 177.738888888889  C 49.3050458715595 177.738888888889  43.3646788990826 174.172222222222  43.3646788990826 174.172222222222  C 43.3646788990826 174.172222222222  39.8004587155963 175.361111111111  39.8004587155963 175.361111111111  C 39.8004587155963 175.361111111111  39.8004587155963 170.605555555556  39.8004587155963 170.605555555556  C 39.8004587155963 170.605555555556  32.6720183486239 167.038888888889  32.6720183486239 167.038888888889  C 32.6720183486239 167.038888888889  19.6032110091743 149.205555555556  19.6032110091743 149.205555555556  C 19.6032110091743 149.205555555556  19.6032110091743 146.827777777778  19.6032110091743 146.827777777778  C 19.6032110091743 146.827777777778  11.2866972477065 142.072222222222  11.2866972477065 142.072222222222  C 11.2866972477065 142.072222222222  13.6628440366973 133.75  13.6628440366973 133.75  C 13.6628440366973 133.75  11.2866972477065 133.75  11.2866972477065 133.75  C 11.2866972477065 133.75  11.2866972477065 130.183333333333  11.2866972477065 130.183333333333  C 11.2866972477065 130.183333333333  13.6628440366973 127.805555555556  13.6628440366973 127.805555555556  C 13.6628440366973 127.805555555556  14.8509174311927 121.861111111111  14.8509174311927 121.861111111111  C 14.8509174311927 121.861111111111  10.0986238532109 119.483333333333  10.0986238532109 119.483333333333  C 10.0986238532109 119.483333333333  2.97018348623851 119.483333333333  2.97018348623851 119.483333333333  C 2.97018348623851 119.483333333333  0.594036697247702 117.105555555556  0.594036697247702 117.105555555556  C 0.594036697247702 117.105555555556  6.53440366972472 102.838888888889  6.53440366972472 102.838888888889  C 6.53440366972472 102.838888888889  18.4151376146789 93.3277777777778  18.4151376146789 93.3277777777778  C 18.4151376146789 93.3277777777778  26.7316513761468 94.5166666666667  26.7316513761468 94.5166666666667  C 26.7316513761468 94.5166666666667  29.1077981651376 82.6277777777778  29.1077981651376 82.6277777777778  C 29.1077981651376 82.6277777777778  35.0481651376147 80.25  35.0481651376147 80.25  C 35.0481651376147 80.25  46.9288990825688 80.25  46.9288990825688 80.25  C 46.9288990825688 80.25  52.869266055046 70.7388888888889  52.869266055046 70.7388888888889  C 52.869266055046 70.7388888888889  71.8784403669725 75.4944444444445  71.8784403669725 75.4944444444445  C 71.8784403669725 75.4944444444445  70.6903669724771 77.8722222222222  70.6903669724771 77.8722222222222  C 70.6903669724771 77.8722222222222  73.0665137614679 76.6833333333333  73.0665137614679 76.6833333333333  C 73.0665137614679 76.6833333333333  76.630733944954 86.1944444444445  76.630733944954 86.1944444444445  C 76.630733944954 86.1944444444445  80.1949541284404 86.1944444444445  80.1949541284404 86.1944444444445  C 80.1949541284404 86.1944444444445  80.1949541284404 83.8166666666667  80.1949541284404 83.8166666666667  C 80.1949541284404 83.8166666666667  82.5711009174312 83.8166666666667  82.5711009174312 83.8166666666667  C 82.5711009174312 83.8166666666667  89.6995412844037 75.4944444444445  89.6995412844037 75.4944444444445  C 89.6995412844037 75.4944444444445  90.887614678899 79.0611111111111  90.887614678899 79.0611111111111  C 90.887614678899 79.0611111111111  99.2041284403671 75.4944444444445  99.2041284403671 75.4944444444445  C 99.2041284403671 75.4944444444445  108.70871559633 67.1722222222222  108.70871559633 67.1722222222222  C 108.70871559633 67.1722222222222  118.213302752294 65.9833333333333  118.213302752294 65.9833333333333  C 118.213302752294 65.9833333333333  115.837155963303 58.85  115.837155963303 58.85  C 115.837155963303 58.85  122.965596330275 50.5277777777778  122.965596330275 50.5277777777778  C 122.965596330275 50.5277777777778  132.470183486239 52.9055555555555  132.470183486239 52.9055555555555  C 132.470183486239 52.9055555555555  136.034403669725 42.2055555555556  136.034403669725 42.2055555555556  C 136.034403669725 42.2055555555556  134.846330275229 38.6388888888889  134.846330275229 38.6388888888889  C 134.846330275229 38.6388888888889  145.538990825688 24.3722222222222  145.538990825688 24.3722222222222  C 145.538990825688 24.3722222222222  145.538990825688 20.8055555555555  145.538990825688 20.8055555555555  C 145.538990825688 20.8055555555555  150.29128440367 19.6166666666667  150.29128440367 19.6166666666667  C 150.29128440367 19.6166666666667  150.29128440367 17.2388888888889  150.29128440367 17.2388888888889  C 150.29128440367 17.2388888888889  153.855504587156 13.6722222222222  153.855504587156 13.6722222222222  C 153.855504587156 13.6722222222222  152.667431192661 12.4833333333333  152.667431192661 12.4833333333333  C 152.667431192661 12.4833333333333  155.043577981651 4.16111111111113  155.043577981651 4.16111111111113  C 155.043577981651 4.16111111111113  158.607798165138 0.594444444444463  158.607798165138 0.594444444444463  C 158.607798165138 0.594444444444463  165.73623853211 6.53888888888892  165.73623853211 6.53888888888892  C 165.73623853211 6.53888888888892  166.924311926605 12.4833333333333  166.924311926605 12.4833333333333  C 166.924311926605 12.4833333333333  171.676605504587 11.2944444444444  171.676605504587 11.2944444444444  C 171.676605504587 11.2944444444444  174.052752293578 14.8611111111111  174.052752293578 14.8611111111111  C 174.052752293578 14.8611111111111  176.428899082569 14.8611111111111  176.428899082569 14.8611111111111  C 176.428899082569 14.8611111111111  176.428899082569 11.2944444444444  176.428899082569 11.2944444444444  C 176.428899082569 11.2944444444444  179.993119266055 7.72777777777776  179.993119266055 7.72777777777776  C 179.993119266055 7.72777777777776  195.438073394495 8.91666666666666  195.438073394495 8.91666666666666  C 195.438073394495 8.91666666666666  202.566513761468 5.35000000000002  202.566513761468 5.35000000000002  C 202.566513761468 5.35000000000002  209.69495412844 5.35000000000002  209.69495412844 5.35000000000002  C 209.69495412844 5.35000000000002  209.69495412844 8.91666666666666  209.69495412844 8.91666666666666  C 209.69495412844 8.91666666666666  212.071100917431 10.1055555555556  212.071100917431 10.1055555555556  C 212.071100917431 10.1055555555556  219.199541284404 8.91666666666666  219.199541284404 8.91666666666666  C 219.199541284404 8.91666666666666  221.575688073395 11.2944444444444  221.575688073395 11.2944444444444  C 221.575688073395 11.2944444444444  225.139908256881 7.72777777777776  225.139908256881 7.72777777777776  C 225.139908256881 7.72777777777776  229.892201834862 8.91666666666666  229.892201834862 8.91666666666666  C 229.892201834862 8.91666666666666  234.644495412844 13.6722222222222  234.644495412844 13.6722222222222  C 234.644495412844 13.6722222222222  235.832568807339 12.4833333333333  235.832568807339 12.4833333333333  C 235.832568807339 12.4833333333333  235.832568807339 18.4277777777777  235.832568807339 18.4277777777777  C 235.832568807339 18.4277777777777  239.396788990826 20.8055555555555  239.396788990826 20.8055555555555  C 239.396788990826 20.8055555555555  239.396788990826 26.75  239.396788990826 26.75  C 239.396788990826 26.75  235.832568807339 35.0722222222223  235.832568807339 35.0722222222223  C 235.832568807339 35.0722222222223  237.020642201835 38.6388888888889  237.020642201835 38.6388888888889  C 237.020642201835 38.6388888888889  232.268348623853 41.0166666666667  232.268348623853 41.0166666666667  C 232.268348623853 41.0166666666667  231.080275229358 45.7722222222222  231.080275229358 45.7722222222222  C 231.080275229358 45.7722222222222  232.268348623853 48.15  232.268348623853 48.15  C 232.268348623853 48.15  235.832568807339 49.3388888888889  235.832568807339 49.3388888888889  C 235.832568807339 49.3388888888889  239.396788990826 48.15  239.396788990826 48.15  C 239.396788990826 48.15  241.772935779816 52.9055555555555  241.772935779816 52.9055555555555  C 241.772935779816 52.9055555555555  247.713302752294 55.2833333333334  247.713302752294 55.2833333333334  C 247.713302752294 55.2833333333334  254.841743119266 62.4166666666667  254.841743119266 62.4166666666667  C 254.841743119266 62.4166666666667  258.405963302752 63.6055555555556  258.405963302752 63.6055555555556  C 258.405963302752 63.6055555555556  257.217889908257 67.1722222222222  257.217889908257 67.1722222222222  C 257.217889908257 67.1722222222222  248.901376146789 67.1722222222222  248.901376146789 67.1722222222222  C 248.901376146789 67.1722222222222  245.337155963303 75.4944444444445  245.337155963303 75.4944444444445  C 245.337155963303 75.4944444444445  245.337155963303 81.4388888888889  245.337155963303 81.4388888888889  C 245.337155963303 81.4388888888889  237.020642201835 93.3277777777778  237.020642201835 93.3277777777778  C 237.020642201835 93.3277777777778  231.080275229358 96.8944444444444  231.080275229358 96.8944444444444  C 231.080275229358 96.8944444444444  229.892201834862 101.65  229.892201834862 101.65  C 229.892201834862 101.65  226.327981651376 104.027777777778  226.327981651376 104.027777777778  C 226.327981651376 104.027777777778  223.951834862385 109.972222222222  223.951834862385 109.972222222222  C 223.951834862385 109.972222222222  228.704128440367 113.538888888889  228.704128440367 113.538888888889  C 228.704128440367 113.538888888889  234.644495412844 112.35  234.644495412844 112.35  C 234.644495412844 112.35  241.772935779816 120.672222222222  241.772935779816 120.672222222222  C 241.772935779816 120.672222222222  241.772935779816 123.05  241.772935779816 123.05  C 241.772935779816 123.05  233.456422018349 126.616666666667  233.456422018349 126.616666666667  C 233.456422018349 126.616666666667  225.139908256881 124.238888888889  225.139908256881 124.238888888889  C 225.139908256881 124.238888888889  215.635321100917 127.805555555556  215.635321100917 127.805555555556  C 215.635321100917 127.805555555556  207.318807339449 126.616666666667  207.318807339449 126.616666666667  C 207.318807339449 126.616666666667  202.566513761468 130.183333333333  202.566513761468 130.183333333333  C 202.566513761468 130.183333333333  201.378440366972 126.616666666667  201.378440366972 126.616666666667  C 201.378440366972 126.616666666667  197.814220183486 125.427777777778  197.814220183486 125.427777777778  C 197.814220183486 125.427777777778  197.814220183486 120.672222222222  197.814220183486 120.672222222222  C 197.814220183486 120.672222222222  191.873853211009 118.294444444444  191.873853211009 118.294444444444  C 191.873853211009 118.294444444444  181.181192660551 119.483333333333  181.181192660551 119.483333333333  C 181.181192660551 119.483333333333  175.240825688073 125.427777777778  175.240825688073 125.427777777778  C 175.240825688073 125.427777777778  171.676605504587 125.427777777778  171.676605504587 125.427777777778  C 171.676605504587 125.427777777778  175.240825688073 136.127777777778  175.240825688073 136.127777777778  C 175.240825688073 136.127777777778  171.676605504587 143.261111111111  171.676605504587 143.261111111111  C 171.676605504587 143.261111111111  171.676605504587 165.85  171.676605504587 165.85  C 171.676605504587 165.85  169.300458715596 169.416666666667  169.300458715596 169.416666666667  C 169.300458715596 169.416666666667  165.73623853211 165.85  165.73623853211 165.85  C 165.73623853211 165.85  159.795871559633 167.038888888889  159.795871559633 167.038888888889  C 159.795871559633 167.038888888889  159.795871559633 169.416666666667  159.795871559633 169.416666666667  C 159.795871559633 169.416666666667  157.419724770642 167.038888888889  157.419724770642 167.038888888889  C 157.419724770642 167.038888888889  153.855504587156 169.416666666667  153.855504587156 169.416666666667  C 153.855504587156 169.416666666667  152.667431192661 167.038888888889  152.667431192661 167.038888888889  C 152.667431192661 167.038888888889  147.915137614679 167.038888888889  147.915137614679 167.038888888889  C 147.915137614679 167.038888888889  146.727064220183 169.416666666667  146.727064220183 169.416666666667  C 146.727064220183 169.416666666667  138.410550458716 172.983333333333  138.410550458716 172.983333333333  C 138.410550458716 172.983333333333  137.22247706422 170.605555555556  137.22247706422 170.605555555556  C 137.22247706422 170.605555555556  131.282110091743 172.983333333333  131.282110091743 172.983333333333  C 131.282110091743 172.983333333333  126.529816513761 175.361111111111  126.529816513761 175.361111111111  C 126.529816513761 175.361111111111  126.529816513761 178.927777777778  126.529816513761 178.927777777778  C 126.529816513761 178.927777777778  130.094036697248 181.305555555556  130.094036697248 181.305555555556  C 130.094036697248 181.305555555556  127.717889908257 184.872222222222  127.717889908257 184.872222222222  C 127.717889908257 184.872222222222  125.341743119266 184.872222222222  125.341743119266 184.872222222222  C 125.341743119266 184.872222222222  125.341743119266 180.116666666667  125.341743119266 180.116666666667  C 125.341743119266 180.116666666667  124.153669724771 181.305555555556  124.153669724771 181.305555555556  C 124.153669724771 181.305555555556  125.341743119266 193.194444444444  125.341743119266 193.194444444444  C 125.341743119266 193.194444444444  121.77752293578 194.383333333333  121.77752293578 194.383333333333  C 121.77752293578 194.383333333333  119.401376146789 194.383333333333  119.401376146789 194.383333333333  C 119.401376146789 194.383333333333  115.837155963303 187.25  115.837155963303 187.25  C 115.837155963303 187.25  107.520642201835 187.25  107.520642201835 187.25  C 107.520642201835 187.25  107.520642201835 184.872222222222  107.520642201835 184.872222222222  C 107.520642201835 184.872222222222  105.144495412844 183.683333333333  105.144495412844 183.683333333333  C 105.144495412844 183.683333333333  100.392201834862 184.872222222222  100.392201834862 184.872222222222  C 100.392201834862 184.872222222222  98.0160550458714 188.438888888889  98.0160550458714 188.438888888889  C 98.0160550458714 188.438888888889  99.2041284403671 190.816666666667  99.2041284403671 190.816666666667  C 99.2041284403671 190.816666666667  93.2637614678899 194.383333333333  93.2637614678899 194.383333333333  C 93.2637614678899 194.383333333333  90.887614678899 194.383333333333  90.887614678899 194.383333333333  C 90.887614678899 194.383333333333  86.1353211009174 186.061111111111  86.1353211009174 186.061111111111  C 86.1353211009174 186.061111111111  83.7591743119266 186.061111111111  83.7591743119266 186.061111111111  C 83.7591743119266 186.061111111111  81.3830275229357 189.627777777778  81.3830275229357 189.627777777778  C 81.3830275229357 189.627777777778  79.006880733945 188.438888888889  79.006880733945 188.438888888889  C 79.006880733945 188.438888888889  73.0665137614679 192.005555555556  73.0665137614679 192.005555555556  C 73.0665137614679 192.005555555556  79.006880733945 200.327777777778  79.006880733945 200.327777777778  C 79.006880733945 200.327777777778  76.630733944954 200.327777777778  76.630733944954 200.327777777778  C 76.630733944954 200.327777777778  74.2545871559633 211.027777777778  74.2545871559633 211.027777777778  Z " fill-rule="nonzero" fill="#0033ff" stroke="none" fill-opacity="0" transform="matrix(1 0 0 1 766 267 )" />
    <path d="M 74.2545871559633 211.027777777778  C 74.2545871559633 211.027777777778  71.8784403669725 213.405555555556  71.8784403669725 213.405555555556  C 71.8784403669725 213.405555555556  69.5022935779816 212.216666666667  69.5022935779816 212.216666666667  C 69.5022935779816 212.216666666667  64.75 201.516666666667  64.75 201.516666666667  C 64.75 201.516666666667  64.75 195.572222222222  64.75 195.572222222222  C 64.75 195.572222222222  57.6215596330275 189.627777777778  57.6215596330275 189.627777777778  C 57.6215596330275 189.627777777778  58.8096330275229 187.25  58.8096330275229 187.25  C 58.8096330275229 187.25  56.4334862385321 177.738888888889  56.4334862385321 177.738888888889  C 56.4334862385321 177.738888888889  49.3050458715595 177.738888888889  49.3050458715595 177.738888888889  C 49.3050458715595 177.738888888889  43.3646788990826 174.172222222222  43.3646788990826 174.172222222222  C 43.3646788990826 174.172222222222  39.8004587155963 175.361111111111  39.8004587155963 175.361111111111  C 39.8004587155963 175.361111111111  39.8004587155963 170.605555555556  39.8004587155963 170.605555555556  C 39.8004587155963 170.605555555556  32.6720183486239 167.038888888889  32.6720183486239 167.038888888889  C 32.6720183486239 167.038888888889  19.6032110091743 149.205555555556  19.6032110091743 149.205555555556  C 19.6032110091743 149.205555555556  19.6032110091743 146.827777777778  19.6032110091743 146.827777777778  C 19.6032110091743 146.827777777778  11.2866972477065 142.072222222222  11.2866972477065 142.072222222222  C 11.2866972477065 142.072222222222  13.6628440366973 133.75  13.6628440366973 133.75  C 13.6628440366973 133.75  11.2866972477065 133.75  11.2866972477065 133.75  C 11.2866972477065 133.75  11.2866972477065 130.183333333333  11.2866972477065 130.183333333333  C 11.2866972477065 130.183333333333  13.6628440366973 127.805555555556  13.6628440366973 127.805555555556  C 13.6628440366973 127.805555555556  14.8509174311927 121.861111111111  14.8509174311927 121.861111111111  C 14.8509174311927 121.861111111111  10.0986238532109 119.483333333333  10.0986238532109 119.483333333333  C 10.0986238532109 119.483333333333  2.97018348623851 119.483333333333  2.97018348623851 119.483333333333  C 2.97018348623851 119.483333333333  0.594036697247702 117.105555555556  0.594036697247702 117.105555555556  C 0.594036697247702 117.105555555556  6.53440366972472 102.838888888889  6.53440366972472 102.838888888889  C 6.53440366972472 102.838888888889  18.4151376146789 93.3277777777778  18.4151376146789 93.3277777777778  C 18.4151376146789 93.3277777777778  26.7316513761468 94.5166666666667  26.7316513761468 94.5166666666667  C 26.7316513761468 94.5166666666667  29.1077981651376 82.6277777777778  29.1077981651376 82.6277777777778  C 29.1077981651376 82.6277777777778  35.0481651376147 80.25  35.0481651376147 80.25  C 35.0481651376147 80.25  46.9288990825688 80.25  46.9288990825688 80.25  C 46.9288990825688 80.25  52.869266055046 70.7388888888889  52.869266055046 70.7388888888889  C 52.869266055046 70.7388888888889  71.8784403669725 75.4944444444445  71.8784403669725 75.4944444444445  C 71.8784403669725 75.4944444444445  70.6903669724771 77.8722222222222  70.6903669724771 77.8722222222222  C 70.6903669724771 77.8722222222222  73.0665137614679 76.6833333333333  73.0665137614679 76.6833333333333  C 73.0665137614679 76.6833333333333  76.630733944954 86.1944444444445  76.630733944954 86.1944444444445  C 76.630733944954 86.1944444444445  80.1949541284404 86.1944444444445  80.1949541284404 86.1944444444445  C 80.1949541284404 86.1944444444445  80.1949541284404 83.8166666666667  80.1949541284404 83.8166666666667  C 80.1949541284404 83.8166666666667  82.5711009174312 83.8166666666667  82.5711009174312 83.8166666666667  C 82.5711009174312 83.8166666666667  89.6995412844037 75.4944444444445  89.6995412844037 75.4944444444445  C 89.6995412844037 75.4944444444445  90.887614678899 79.0611111111111  90.887614678899 79.0611111111111  C 90.887614678899 79.0611111111111  99.2041284403671 75.4944444444445  99.2041284403671 75.4944444444445  C 99.2041284403671 75.4944444444445  108.70871559633 67.1722222222222  108.70871559633 67.1722222222222  C 108.70871559633 67.1722222222222  118.213302752294 65.9833333333333  118.213302752294 65.9833333333333  C 118.213302752294 65.9833333333333  115.837155963303 58.85  115.837155963303 58.85  C 115.837155963303 58.85  122.965596330275 50.5277777777778  122.965596330275 50.5277777777778  C 122.965596330275 50.5277777777778  132.470183486239 52.9055555555555  132.470183486239 52.9055555555555  C 132.470183486239 52.9055555555555  136.034403669725 42.2055555555556  136.034403669725 42.2055555555556  C 136.034403669725 42.2055555555556  134.846330275229 38.6388888888889  134.846330275229 38.6388888888889  C 134.846330275229 38.6388888888889  145.538990825688 24.3722222222222  145.538990825688 24.3722222222222  C 145.538990825688 24.3722222222222  145.538990825688 20.8055555555555  145.538990825688 20.8055555555555  C 145.538990825688 20.8055555555555  150.29128440367 19.6166666666667  150.29128440367 19.6166666666667  C 150.29128440367 19.6166666666667  150.29128440367 17.2388888888889  150.29128440367 17.2388888888889  C 150.29128440367 17.2388888888889  153.855504587156 13.6722222222222  153.855504587156 13.6722222222222  C 153.855504587156 13.6722222222222  152.667431192661 12.4833333333333  152.667431192661 12.4833333333333  C 152.667431192661 12.4833333333333  155.043577981651 4.16111111111113  155.043577981651 4.16111111111113  C 155.043577981651 4.16111111111113  158.607798165138 0.594444444444463  158.607798165138 0.594444444444463  C 158.607798165138 0.594444444444463  165.73623853211 6.53888888888892  165.73623853211 6.53888888888892  C 165.73623853211 6.53888888888892  166.924311926605 12.4833333333333  166.924311926605 12.4833333333333  C 166.924311926605 12.4833333333333  171.676605504587 11.2944444444444  171.676605504587 11.2944444444444  C 171.676605504587 11.2944444444444  174.052752293578 14.8611111111111  174.052752293578 14.8611111111111  C 174.052752293578 14.8611111111111  176.428899082569 14.8611111111111  176.428899082569 14.8611111111111  C 176.428899082569 14.8611111111111  176.428899082569 11.2944444444444  176.428899082569 11.2944444444444  C 176.428899082569 11.2944444444444  179.993119266055 7.72777777777776  179.993119266055 7.72777777777776  C 179.993119266055 7.72777777777776  195.438073394495 8.91666666666666  195.438073394495 8.91666666666666  C 195.438073394495 8.91666666666666  202.566513761468 5.35000000000002  202.566513761468 5.35000000000002  C 202.566513761468 5.35000000000002  209.69495412844 5.35000000000002  209.69495412844 5.35000000000002  C 209.69495412844 5.35000000000002  209.69495412844 8.91666666666666  209.69495412844 8.91666666666666  C 209.69495412844 8.91666666666666  212.071100917431 10.1055555555556  212.071100917431 10.1055555555556  C 212.071100917431 10.1055555555556  219.199541284404 8.91666666666666  219.199541284404 8.91666666666666  C 219.199541284404 8.91666666666666  221.575688073395 11.2944444444444  221.575688073395 11.2944444444444  C 221.575688073395 11.2944444444444  225.139908256881 7.72777777777776  225.139908256881 7.72777777777776  C 225.139908256881 7.72777777777776  229.892201834862 8.91666666666666  229.892201834862 8.91666666666666  C 229.892201834862 8.91666666666666  234.644495412844 13.6722222222222  234.644495412844 13.6722222222222  C 234.644495412844 13.6722222222222  235.832568807339 12.4833333333333  235.832568807339 12.4833333333333  C 235.832568807339 12.4833333333333  235.832568807339 18.4277777777777  235.832568807339 18.4277777777777  C 235.832568807339 18.4277777777777  239.396788990826 20.8055555555555  239.396788990826 20.8055555555555  C 239.396788990826 20.8055555555555  239.396788990826 26.75  239.396788990826 26.75  C 239.396788990826 26.75  235.832568807339 35.0722222222223  235.832568807339 35.0722222222223  C 235.832568807339 35.0722222222223  237.020642201835 38.6388888888889  237.020642201835 38.6388888888889  C 237.020642201835 38.6388888888889  232.268348623853 41.0166666666667  232.268348623853 41.0166666666667  C 232.268348623853 41.0166666666667  231.080275229358 45.7722222222222  231.080275229358 45.7722222222222  C 231.080275229358 45.7722222222222  232.268348623853 48.15  232.268348623853 48.15  C 232.268348623853 48.15  235.832568807339 49.3388888888889  235.832568807339 49.3388888888889  C 235.832568807339 49.3388888888889  239.396788990826 48.15  239.396788990826 48.15  C 239.396788990826 48.15  241.772935779816 52.9055555555555  241.772935779816 52.9055555555555  C 241.772935779816 52.9055555555555  247.713302752294 55.2833333333334  247.713302752294 55.2833333333334  C 247.713302752294 55.2833333333334  254.841743119266 62.4166666666667  254.841743119266 62.4166666666667  C 254.841743119266 62.4166666666667  258.405963302752 63.6055555555556  258.405963302752 63.6055555555556  C 258.405963302752 63.6055555555556  257.217889908257 67.1722222222222  257.217889908257 67.1722222222222  C 257.217889908257 67.1722222222222  248.901376146789 67.1722222222222  248.901376146789 67.1722222222222  C 248.901376146789 67.1722222222222  245.337155963303 75.4944444444445  245.337155963303 75.4944444444445  C 245.337155963303 75.4944444444445  245.337155963303 81.4388888888889  245.337155963303 81.4388888888889  C 245.337155963303 81.4388888888889  237.020642201835 93.3277777777778  237.020642201835 93.3277777777778  C 237.020642201835 93.3277777777778  231.080275229358 96.8944444444444  231.080275229358 96.8944444444444  C 231.080275229358 96.8944444444444  229.892201834862 101.65  229.892201834862 101.65  C 229.892201834862 101.65  226.327981651376 104.027777777778  226.327981651376 104.027777777778  C 226.327981651376 104.027777777778  223.951834862385 109.972222222222  223.951834862385 109.972222222222  C 223.951834862385 109.972222222222  228.704128440367 113.538888888889  228.704128440367 113.538888888889  C 228.704128440367 113.538888888889  234.644495412844 112.35  234.644495412844 112.35  C 234.644495412844 112.35  241.772935779816 120.672222222222  241.772935779816 120.672222222222  C 241.772935779816 120.672222222222  241.772935779816 123.05  241.772935779816 123.05  C 241.772935779816 123.05  233.456422018349 126.616666666667  233.456422018349 126.616666666667  C 233.456422018349 126.616666666667  225.139908256881 124.238888888889  225.139908256881 124.238888888889  C 225.139908256881 124.238888888889  215.635321100917 127.805555555556  215.635321100917 127.805555555556  C 215.635321100917 127.805555555556  207.318807339449 126.616666666667  207.318807339449 126.616666666667  C 207.318807339449 126.616666666667  202.566513761468 130.183333333333  202.566513761468 130.183333333333  C 202.566513761468 130.183333333333  201.378440366972 126.616666666667  201.378440366972 126.616666666667  C 201.378440366972 126.616666666667  197.814220183486 125.427777777778  197.814220183486 125.427777777778  C 197.814220183486 125.427777777778  197.814220183486 120.672222222222  197.814220183486 120.672222222222  C 197.814220183486 120.672222222222  191.873853211009 118.294444444444  191.873853211009 118.294444444444  C 191.873853211009 118.294444444444  181.181192660551 119.483333333333  181.181192660551 119.483333333333  C 181.181192660551 119.483333333333  175.240825688073 125.427777777778  175.240825688073 125.427777777778  C 175.240825688073 125.427777777778  171.676605504587 125.427777777778  171.676605504587 125.427777777778  C 171.676605504587 125.427777777778  175.240825688073 136.127777777778  175.240825688073 136.127777777778  C 175.240825688073 136.127777777778  171.676605504587 143.261111111111  171.676605504587 143.261111111111  C 171.676605504587 143.261111111111  171.676605504587 165.85  171.676605504587 165.85  C 171.676605504587 165.85  169.300458715596 169.416666666667  169.300458715596 169.416666666667  C 169.300458715596 169.416666666667  165.73623853211 165.85  165.73623853211 165.85  C 165.73623853211 165.85  159.795871559633 167.038888888889  159.795871559633 167.038888888889  C 159.795871559633 167.038888888889  159.795871559633 169.416666666667  159.795871559633 169.416666666667  C 159.795871559633 169.416666666667  157.419724770642 167.038888888889  157.419724770642 167.038888888889  C 157.419724770642 167.038888888889  153.855504587156 169.416666666667  153.855504587156 169.416666666667  C 153.855504587156 169.416666666667  152.667431192661 167.038888888889  152.667431192661 167.038888888889  C 152.667431192661 167.038888888889  147.915137614679 167.038888888889  147.915137614679 167.038888888889  C 147.915137614679 167.038888888889  146.727064220183 169.416666666667  146.727064220183 169.416666666667  C 146.727064220183 169.416666666667  138.410550458716 172.983333333333  138.410550458716 172.983333333333  C 138.410550458716 172.983333333333  137.22247706422 170.605555555556  137.22247706422 170.605555555556  C 137.22247706422 170.605555555556  131.282110091743 172.983333333333  131.282110091743 172.983333333333  C 131.282110091743 172.983333333333  126.529816513761 175.361111111111  126.529816513761 175.361111111111  C 126.529816513761 175.361111111111  126.529816513761 178.927777777778  126.529816513761 178.927777777778  C 126.529816513761 178.927777777778  130.094036697248 181.305555555556  130.094036697248 181.305555555556  C 130.094036697248 181.305555555556  127.717889908257 184.872222222222  127.717889908257 184.872222222222  C 127.717889908257 184.872222222222  125.341743119266 184.872222222222  125.341743119266 184.872222222222  C 125.341743119266 184.872222222222  125.341743119266 180.116666666667  125.341743119266 180.116666666667  C 125.341743119266 180.116666666667  124.153669724771 181.305555555556  124.153669724771 181.305555555556  C 124.153669724771 181.305555555556  125.341743119266 193.194444444444  125.341743119266 193.194444444444  C 125.341743119266 193.194444444444  121.77752293578 194.383333333333  121.77752293578 194.383333333333  C 121.77752293578 194.383333333333  119.401376146789 194.383333333333  119.401376146789 194.383333333333  C 119.401376146789 194.383333333333  115.837155963303 187.25  115.837155963303 187.25  C 115.837155963303 187.25  107.520642201835 187.25  107.520642201835 187.25  C 107.520642201835 187.25  107.520642201835 184.872222222222  107.520642201835 184.872222222222  C 107.520642201835 184.872222222222  105.144495412844 183.683333333333  105.144495412844 183.683333333333  C 105.144495412844 183.683333333333  100.392201834862 184.872222222222  100.392201834862 184.872222222222  C 100.392201834862 184.872222222222  98.0160550458714 188.438888888889  98.0160550458714 188.438888888889  C 98.0160550458714 188.438888888889  99.2041284403671 190.816666666667  99.2041284403671 190.816666666667  C 99.2041284403671 190.816666666667  93.2637614678899 194.383333333333  93.2637614678899 194.383333333333  C 93.2637614678899 194.383333333333  90.887614678899 194.383333333333  90.887614678899 194.383333333333  C 90.887614678899 194.383333333333  86.1353211009174 186.061111111111  86.1353211009174 186.061111111111  C 86.1353211009174 186.061111111111  83.7591743119266 186.061111111111  83.7591743119266 186.061111111111  C 83.7591743119266 186.061111111111  81.3830275229357 189.627777777778  81.3830275229357 189.627777777778  C 81.3830275229357 189.627777777778  79.006880733945 188.438888888889  79.006880733945 188.438888888889  C 79.006880733945 188.438888888889  73.0665137614679 192.005555555556  73.0665137614679 192.005555555556  C 73.0665137614679 192.005555555556  79.006880733945 200.327777777778  79.006880733945 200.327777777778  C 79.006880733945 200.327777777778  76.630733944954 200.327777777778  76.630733944954 200.327777777778  C 76.630733944954 200.327777777778  74.2545871559633 211.027777777778  74.2545871559633 211.027777777778  Z " stroke-width="2" stroke-dasharray="1,1" stroke="#00ffff" fill="none" transform="matrix(1 0 0 1 766 267 )" mask="url(#clip2044)" />
  </g>
</svg>