<?xml version="1.0" encoding="utf-8"?>
<svg version="1.1" xmlns:xlink="http://www.w3.org/1999/xlink" width="192px" height="350px" xmlns="http://www.w3.org/2000/svg">
  <defs>
    <mask fill="white" id="clip2033">
      <path d="M 1.78064516129041 271.293286219081  C 1.78064516129041 271.293286219081  0.593548387096803 271.293286219081  0.593548387096803 271.293286219081  C 0.593548387096803 271.293286219081  0.593548387096803 253.484098939929  0.593548387096803 253.484098939929  C 0.593548387096803 253.484098939929  5.341935483871 241.611307420495  5.341935483871 241.611307420495  C 5.341935483871 241.611307420495  0.593548387096803 234.487632508834  0.593548387096803 234.487632508834  C 0.593548387096803 234.487632508834  4.15483870967751 234.487632508834  4.15483870967751 234.487632508834  C 4.15483870967751 234.487632508834  10.090322580645 228.551236749117  10.090322580645 228.551236749117  C 10.090322580645 228.551236749117  20.7741935483872 227.363957597173  20.7741935483872 227.363957597173  C 20.7741935483872 227.363957597173  26.7096774193549 229.73851590106  26.7096774193549 229.73851590106  C 26.7096774193549 229.73851590106  26.7096774193549 234.487632508834  26.7096774193549 234.487632508834  C 26.7096774193549 234.487632508834  30.2709677419355 235.674911660777  30.2709677419355 235.674911660777  C 30.2709677419355 235.674911660777  31.458064516129 239.236749116608  31.458064516129 239.236749116608  C 31.458064516129 239.236749116608  36.2064516129033 235.674911660777  36.2064516129033 235.674911660777  C 36.2064516129033 235.674911660777  44.5161290322582 236.862190812721  44.5161290322582 236.862190812721  C 44.5161290322582 236.862190812721  50.4516129032257 235.674911660777  50.4516129032257 235.674911660777  C 50.4516129032257 235.674911660777  51.6387096774193 233.30035335689  51.6387096774193 233.30035335689  C 51.6387096774193 233.30035335689  61.1354838709678 235.674911660777  61.1354838709678 235.674911660777  C 61.1354838709678 235.674911660777  70.6322580645161 232.113074204947  70.6322580645161 232.113074204947  C 70.6322580645161 232.113074204947  70.6322580645161 229.73851590106  70.6322580645161 229.73851590106  C 70.6322580645161 229.73851590106  63.5096774193549 221.427561837456  63.5096774193549 221.427561837456  C 63.5096774193549 221.427561837456  57.574193548387 222.614840989399  57.574193548387 222.614840989399  C 57.574193548387 222.614840989399  52.8258064516128 219.053003533569  52.8258064516128 219.053003533569  C 52.8258064516128 219.053003533569  55.2 214.303886925795  55.2 214.303886925795  C 55.2 214.303886925795  58.7612903225807 211.929328621908  58.7612903225807 211.929328621908  C 58.7612903225807 211.929328621908  59.9483870967741 207.180212014134  59.9483870967741 207.180212014134  C 59.9483870967741 207.180212014134  63.5096774193549 205.992932862191  63.5096774193549 205.992932862191  C 63.5096774193549 205.992932862191  67.0709677419354 198.86925795053  67.0709677419354 198.86925795053  C 67.0709677419354 198.86925795053  74.1935483870968 191.745583038869  74.1935483870968 191.745583038869  C 74.1935483870968 191.745583038869  76.5677419354839 177.498233215548  76.5677419354839 177.498233215548  C 76.5677419354839 177.498233215548  86.0645161290323 177.498233215548  86.0645161290323 177.498233215548  C 86.0645161290323 177.498233215548  87.2516129032257 175.123674911661  87.2516129032257 175.123674911661  C 87.2516129032257 175.123674911661  76.5677419354839 164.43816254417  76.5677419354839 164.43816254417  C 76.5677419354839 164.43816254417  73.0064516129032 164.43816254417  73.0064516129032 164.43816254417  C 73.0064516129032 164.43816254417  68.2580645161289 157.314487632509  68.2580645161289 157.314487632509  C 68.2580645161289 157.314487632509  64.6967741935484 158.501766784452  64.6967741935484 158.501766784452  C 64.6967741935484 158.501766784452  59.9483870967741 154.939929328622  59.9483870967741 154.939929328622  C 59.9483870967741 154.939929328622  61.1354838709678 150.190812720848  61.1354838709678 150.190812720848  C 61.1354838709678 150.190812720848  65.8838709677418 147.816254416961  65.8838709677418 147.816254416961  C 65.8838709677418 147.816254416961  65.8838709677418 138.318021201413  65.8838709677418 138.318021201413  C 65.8838709677418 138.318021201413  68.2580645161289 135.943462897527  68.2580645161289 135.943462897527  C 68.2580645161289 135.943462897527  68.2580645161289 130.007067137809  68.2580645161289 130.007067137809  C 68.2580645161289 130.007067137809  64.6967741935484 127.632508833922  64.6967741935484 127.632508833922  C 64.6967741935484 127.632508833922  65.8838709677418 124.070671378092  65.8838709677418 124.070671378092  C 65.8838709677418 124.070671378092  64.6967741935484 121.696113074205  64.6967741935484 121.696113074205  C 64.6967741935484 121.696113074205  63.5096774193549 122.883392226148  63.5096774193549 122.883392226148  C 63.5096774193549 122.883392226148  58.7612903225807 118.134275618374  58.7612903225807 118.134275618374  C 58.7612903225807 118.134275618374  54.0129032258064 116.946996466431  54.0129032258064 116.946996466431  C 54.0129032258064 116.946996466431  51.6387096774193 107.448763250883  51.6387096774193 107.448763250883  C 51.6387096774193 107.448763250883  45.7032258064514 102.69964664311  45.7032258064514 102.69964664311  C 45.7032258064514 102.69964664311  45.7032258064514 97.9505300353357  45.7032258064514 97.9505300353357  C 45.7032258064514 97.9505300353357  36.2064516129033 93.2014134275618  36.2064516129033 93.2014134275618  C 36.2064516129033 93.2014134275618  30.2709677419355 81.3286219081272  30.2709677419355 81.3286219081272  C 30.2709677419355 81.3286219081272  13.6516129032258 63.5194346289752  13.6516129032258 63.5194346289752  C 13.6516129032258 63.5194346289752  13.6516129032258 57.5830388692579  13.6516129032258 57.5830388692579  C 13.6516129032258 57.5830388692579  18.4 51.6466431095407  18.4 51.6466431095407  C 18.4 51.6466431095407  21.9612903225807 51.6466431095407  21.9612903225807 51.6466431095407  C 21.9612903225807 51.6466431095407  23.1483870967743 48.0848056537102  23.1483870967743 48.0848056537102  C 23.1483870967743 48.0848056537102  27.8967741935484 51.6466431095407  27.8967741935484 51.6466431095407  C 27.8967741935484 51.6466431095407  33.8322580645161 63.5194346289752  33.8322580645161 63.5194346289752  C 33.8322580645161 63.5194346289752  38.5806451612904 65.8939929328622  38.5806451612904 65.8939929328622  C 38.5806451612904 65.8939929328622  43.3290322580646 64.7067137809187  43.3290322580646 64.7067137809187  C 43.3290322580646 64.7067137809187  56.3870967741935 67.0812720848057  56.3870967741935 67.0812720848057  C 56.3870967741935 67.0812720848057  56.3870967741935 57.5830388692579  56.3870967741935 57.5830388692579  C 56.3870967741935 57.5830388692579  48.0774193548386 44.5229681978798  48.0774193548386 44.5229681978798  C 48.0774193548386 44.5229681978798  50.4516129032257 39.773851590106  50.4516129032257 39.773851590106  C 50.4516129032257 39.773851590106  50.4516129032257 33.8374558303887  50.4516129032257 33.8374558303887  C 50.4516129032257 33.8374558303887  54.0129032258064 31.4628975265018  54.0129032258064 31.4628975265018  C 54.0129032258064 31.4628975265018  56.3870967741935 33.8374558303887  56.3870967741935 33.8374558303887  C 56.3870967741935 33.8374558303887  59.9483870967741 32.6501766784452  59.9483870967741 32.6501766784452  C 59.9483870967741 32.6501766784452  69.4451612903225 35.0247349823322  69.4451612903225 35.0247349823322  C 69.4451612903225 35.0247349823322  70.6322580645161 32.6501766784452  70.6322580645161 32.6501766784452  C 70.6322580645161 32.6501766784452  77.7548387096775 29.0883392226148  77.7548387096775 29.0883392226148  C 77.7548387096775 29.0883392226148  82.5032258064515 30.2756183745583  82.5032258064515 30.2756183745583  C 82.5032258064515 30.2756183745583  83.6903225806451 27.9010600706713  83.6903225806451 27.9010600706713  C 83.6903225806451 27.9010600706713  93.1870967741936 35.0247349823322  93.1870967741936 35.0247349823322  C 93.1870967741936 35.0247349823322  100.309677419355 32.6501766784452  100.309677419355 32.6501766784452  C 100.309677419355 32.6501766784452  100.309677419355 24.339222614841  100.309677419355 24.339222614841  C 100.309677419355 24.339222614841  102.683870967742 19.5901060070671  102.683870967742 19.5901060070671  C 102.683870967742 19.5901060070671  102.683870967742 13.6537102473498  102.683870967742 13.6537102473498  C 102.683870967742 13.6537102473498  100.309677419355 8.90459363957598  100.309677419355 8.90459363957598  C 100.309677419355 8.90459363957598  101.496774193549 5.34275618374556  101.496774193549 5.34275618374556  C 101.496774193549 5.34275618374556  106.245161290322 0.593639575971736  106.245161290322 0.593639575971736  C 106.245161290322 0.593639575971736  110.993548387097 1.78091872791518  110.993548387097 1.78091872791518  C 110.993548387097 1.78091872791518  115.741935483871 6.53003533568904  115.741935483871 6.53003533568904  C 115.741935483871 6.53003533568904  124.051612903226 8.90459363957598  124.051612903226 8.90459363957598  C 124.051612903226 8.90459363957598  126.425806451613 17.2155477031802  126.425806451613 17.2155477031802  C 126.425806451613 17.2155477031802  121.677419354839 25.5265017667845  121.677419354839 25.5265017667845  C 121.677419354839 25.5265017667845  122.864516129032 32.6501766784452  122.864516129032 32.6501766784452  C 122.864516129032 32.6501766784452  120.490322580645 37.3992932862191  120.490322580645 37.3992932862191  C 120.490322580645 37.3992932862191  127.612903225806 51.6466431095407  127.612903225806 51.6466431095407  C 127.612903225806 51.6466431095407  129.987096774194 51.6466431095407  129.987096774194 51.6466431095407  C 129.987096774194 51.6466431095407  133.548387096774 55.208480565371  133.548387096774 55.208480565371  C 133.548387096774 55.208480565371  131.174193548387 61.1448763250883  131.174193548387 61.1448763250883  C 131.174193548387 61.1448763250883  135.922580645161 67.0812720848057  135.922580645161 67.0812720848057  C 135.922580645161 67.0812720848057  145.41935483871 69.4558303886926  145.41935483871 69.4558303886926  C 145.41935483871 69.4558303886926  144.232258064516 73.017667844523  144.232258064516 73.017667844523  C 144.232258064516 73.017667844523  148.98064516129 74.2049469964664  148.98064516129 74.2049469964664  C 148.98064516129 74.2049469964664  158.477419354839 86.077738515901  158.477419354839 86.077738515901  C 158.477419354839 86.077738515901  158.477419354839 89.6395759717314  158.477419354839 89.6395759717314  C 158.477419354839 89.6395759717314  162.038709677419 87.2650176678445  162.038709677419 87.2650176678445  C 162.038709677419 87.2650176678445  165.6 89.6395759717314  165.6 89.6395759717314  C 165.6 89.6395759717314  166.787096774194 88.452296819788  166.787096774194 88.452296819788  C 166.787096774194 88.452296819788  173.909677419355 92.0141342756184  173.909677419355 92.0141342756184  C 173.909677419355 92.0141342756184  178.658064516129 97.9505300353357  178.658064516129 97.9505300353357  C 178.658064516129 97.9505300353357  181.032258064516 97.9505300353357  181.032258064516 97.9505300353357  C 181.032258064516 97.9505300353357  183.406451612903 106.26148409894  183.406451612903 106.26148409894  C 183.406451612903 106.26148409894  176.283870967742 108.636042402827  176.283870967742 108.636042402827  C 176.283870967742 108.636042402827  177.470967741936 112.197879858657  177.470967741936 112.197879858657  C 177.470967741936 112.197879858657  167.974193548387 118.134275618374  167.974193548387 118.134275618374  C 167.974193548387 118.134275618374  169.16129032258 121.696113074205  169.16129032258 121.696113074205  C 169.16129032258 121.696113074205  166.787096774194 126.445229681979  166.787096774194 126.445229681979  C 166.787096774194 126.445229681979  154.916129032258 127.632508833922  154.916129032258 127.632508833922  C 154.916129032258 127.632508833922  152.541935483871 122.883392226148  152.541935483871 122.883392226148  C 152.541935483871 122.883392226148  151.354838709678 125.257950530035  151.354838709678 125.257950530035  C 151.354838709678 125.257950530035  154.916129032258 134.756183745583  154.916129032258 134.756183745583  C 154.916129032258 134.756183745583  152.541935483871 146.628975265018  152.541935483871 146.628975265018  C 152.541935483871 146.628975265018  144.232258064516 144.254416961131  144.232258064516 144.254416961131  C 144.232258064516 144.254416961131  131.174193548387 154.939929328622  131.174193548387 154.939929328622  C 131.174193548387 154.939929328622  131.174193548387 165.625441696113  131.174193548387 165.625441696113  C 131.174193548387 165.625441696113  127.612903225806 175.123674911661  127.612903225806 175.123674911661  C 127.612903225806 175.123674911661  128.8 179.872791519435  128.8 179.872791519435  C 128.8 179.872791519435  126.425806451613 181.060070671378  126.425806451613 181.060070671378  C 126.425806451613 181.060070671378  129.987096774194 188.183745583039  129.987096774194 188.183745583039  C 129.987096774194 188.183745583039  131.174193548387 200.056537102473  131.174193548387 200.056537102473  C 131.174193548387 200.056537102473  120.490322580645 203.618374558304  120.490322580645 203.618374558304  C 120.490322580645 203.618374558304  121.677419354839 205.992932862191  121.677419354839 205.992932862191  C 121.677419354839 205.992932862191  116.929032258065 204.805653710247  116.929032258065 204.805653710247  C 116.929032258065 204.805653710247  116.929032258065 207.180212014134  116.929032258065 207.180212014134  C 116.929032258065 207.180212014134  119.303225806451 205.992932862191  119.303225806451 205.992932862191  C 119.303225806451 205.992932862191  121.677419354839 208.367491166078  121.677419354839 208.367491166078  C 121.677419354839 208.367491166078  127.612903225806 209.554770318021  127.612903225806 209.554770318021  C 127.612903225806 209.554770318021  128.8 215.491166077739  128.8 215.491166077739  C 128.8 215.491166077739  132.361290322581 217.865724381625  132.361290322581 217.865724381625  C 132.361290322581 217.865724381625  129.987096774194 219.053003533569  129.987096774194 219.053003533569  C 129.987096774194 219.053003533569  126.425806451613 226.17667844523  126.425806451613 226.17667844523  C 126.425806451613 226.17667844523  125.238709677419 234.487632508834  125.238709677419 234.487632508834  C 125.238709677419 234.487632508834  127.612903225806 236.862190812721  127.612903225806 236.862190812721  C 127.612903225806 236.862190812721  125.238709677419 235.674911660777  125.238709677419 235.674911660777  C 125.238709677419 235.674911660777  125.238709677419 241.611307420495  125.238709677419 241.611307420495  C 125.238709677419 241.611307420495  132.361290322581 245.173144876325  132.361290322581 245.173144876325  C 132.361290322581 245.173144876325  132.361290322581 248.734982332155  132.361290322581 248.734982332155  C 132.361290322581 248.734982332155  134.735483870968 251.109540636042  134.735483870968 251.109540636042  C 134.735483870968 251.109540636042  133.548387096774 259.420494699647  133.548387096774 259.420494699647  C 133.548387096774 259.420494699647  134.735483870968 261.795053003534  134.735483870968 261.795053003534  C 134.735483870968 261.795053003534  137.109677419355 260.60777385159  137.109677419355 260.60777385159  C 137.109677419355 260.60777385159  139.483870967742 262.982332155477  139.483870967742 262.982332155477  C 139.483870967742 262.982332155477  132.361290322581 267.731448763251  132.361290322581 267.731448763251  C 132.361290322581 267.731448763251  129.987096774194 273.667844522968  129.987096774194 273.667844522968  C 129.987096774194 273.667844522968  132.361290322581 274.855123674912  132.361290322581 274.855123674912  C 132.361290322581 274.855123674912  128.8 277.229681978799  128.8 277.229681978799  C 128.8 277.229681978799  132.361290322581 284.353356890459  132.361290322581 284.353356890459  C 132.361290322581 284.353356890459  134.735483870968 284.353356890459  134.735483870968 284.353356890459  C 134.735483870968 284.353356890459  133.548387096774 291.47703180212  133.548387096774 291.47703180212  C 133.548387096774 291.47703180212  135.922580645161 292.664310954064  135.922580645161 292.664310954064  C 135.922580645161 292.664310954064  135.922580645161 295.038869257951  135.922580645161 295.038869257951  C 135.922580645161 295.038869257951  140.670967741935 292.664310954064  140.670967741935 292.664310954064  C 140.670967741935 292.664310954064  140.670967741935 295.038869257951  140.670967741935 295.038869257951  C 140.670967741935 295.038869257951  143.045161290323 293.851590106007  143.045161290323 293.851590106007  C 143.045161290323 293.851590106007  148.98064516129 302.162544169611  148.98064516129 302.162544169611  C 148.98064516129 302.162544169611  144.232258064516 308.098939929329  144.232258064516 308.098939929329  C 144.232258064516 308.098939929329  143.045161290323 306.911660777385  143.045161290323 306.911660777385  C 143.045161290323 306.911660777385  128.8 328.282685512367  128.8 328.282685512367  C 128.8 328.282685512367  125.238709677419 329.469964664311  125.238709677419 329.469964664311  C 125.238709677419 329.469964664311  126.425806451613 331.844522968198  126.425806451613 331.844522968198  C 126.425806451613 331.844522968198  124.051612903226 331.844522968198  124.051612903226 331.844522968198  C 124.051612903226 331.844522968198  121.677419354839 335.406360424028  121.677419354839 335.406360424028  C 121.677419354839 335.406360424028  116.929032258065 333.031802120141  116.929032258065 333.031802120141  C 116.929032258065 333.031802120141  116.929032258065 323.533568904594  116.929032258065 323.533568904594  C 116.929032258065 323.533568904594  109.806451612903 325.908127208481  109.806451612903 325.908127208481  C 109.806451612903 325.908127208481  107.432258064516 323.533568904594  107.432258064516 323.533568904594  C 107.432258064516 323.533568904594  103.870967741935 324.720848056537  103.870967741935 324.720848056537  C 103.870967741935 324.720848056537  102.683870967742 328.282685512367  102.683870967742 328.282685512367  C 102.683870967742 328.282685512367  97.9354838709677 328.282685512367  97.9354838709677 328.282685512367  C 97.9354838709677 328.282685512367  95.5612903225806 322.34628975265  95.5612903225806 322.34628975265  C 95.5612903225806 322.34628975265  86.0645161290323 321.159010600707  86.0645161290323 321.159010600707  C 86.0645161290323 321.159010600707  84.8774193548386 317.597173144876  84.8774193548386 317.597173144876  C 84.8774193548386 317.597173144876  75.3806451612903 317.597173144876  75.3806451612903 317.597173144876  C 75.3806451612903 317.597173144876  75.3806451612903 323.533568904594  75.3806451612903 323.533568904594  C 75.3806451612903 323.533568904594  73.0064516129032 323.533568904594  73.0064516129032 323.533568904594  C 73.0064516129032 323.533568904594  71.8193548387097 325.908127208481  71.8193548387097 325.908127208481  C 71.8193548387097 325.908127208481  67.0709677419354 325.908127208481  67.0709677419354 325.908127208481  C 67.0709677419354 325.908127208481  65.8838709677418 323.533568904594  65.8838709677418 323.533568904594  C 65.8838709677418 323.533568904594  62.3225806451613 323.533568904594  62.3225806451613 323.533568904594  C 62.3225806451613 323.533568904594  57.574193548387 316.409893992933  57.574193548387 316.409893992933  C 57.574193548387 316.409893992933  49.2645161290322 314.035335689046  49.2645161290322 314.035335689046  C 49.2645161290322 314.035335689046  48.0774193548386 308.098939929329  48.0774193548386 308.098939929329  C 48.0774193548386 308.098939929329  50.4516129032257 302.162544169611  50.4516129032257 302.162544169611  C 50.4516129032257 302.162544169611  49.2645161290322 299.787985865724  49.2645161290322 299.787985865724  C 49.2645161290322 299.787985865724  46.8903225806451 299.787985865724  46.8903225806451 299.787985865724  C 46.8903225806451 299.787985865724  45.7032258064514 295.038869257951  45.7032258064514 295.038869257951  C 45.7032258064514 295.038869257951  44.5161290322582 297.413427561837  44.5161290322582 297.413427561837  C 44.5161290322582 297.413427561837  42.1419354838711 297.413427561837  42.1419354838711 297.413427561837  C 42.1419354838711 297.413427561837  29.0838709677417 292.664310954064  29.0838709677417 292.664310954064  C 29.0838709677417 292.664310954064  23.1483870967743 296.226148409894  23.1483870967743 296.226148409894  C 23.1483870967743 296.226148409894  24.3354838709678 285.540636042403  24.3354838709678 285.540636042403  C 24.3354838709678 285.540636042403  18.4 285.540636042403  18.4 285.540636042403  C 18.4 285.540636042403  21.9612903225807 281.978798586572  21.9612903225807 281.978798586572  C 21.9612903225807 281.978798586572  20.7741935483872 279.604240282686  20.7741935483872 279.604240282686  C 20.7741935483872 279.604240282686  17.2129032258065 279.604240282686  17.2129032258065 279.604240282686  C 17.2129032258065 279.604240282686  14.8387096774193 276.042402826855  14.8387096774193 276.042402826855  C 14.8387096774193 276.042402826855  7.7161290322581 272.480565371025  7.7161290322581 272.480565371025  C 7.7161290322581 272.480565371025  1.78064516129041 274.855123674912  1.78064516129041 274.855123674912  C 1.78064516129041 274.855123674912  1.78064516129041 271.293286219081  1.78064516129041 271.293286219081  Z " fill-rule="evenodd" />
    </mask>
    <filter x="931px" y="158px" width="192px" height="350px" filterUnits="userSpaceOnUse" id="filter2034">
      <feOffset dx="0" dy="10" in="SourceAlpha" result="shadowOffsetInner" />
      <feGaussianBlur stdDeviation="2" in="shadowOffsetInner" result="shadowGaussian" />
      <feComposite in2="shadowGaussian" operator="atop" in="SourceAlpha" result="shadowComposite" />
      <feColorMatrix type="matrix" values="0 0 0 0 0  0 0 0 0 0.6  0 0 0 0 1  0 0 0 1 0  " in="shadowComposite" />
    </filter>
    <g id="widget2035">
      <path d="M 1.78064516129041 271.293286219081  C 1.78064516129041 271.293286219081  0.593548387096803 271.293286219081  0.593548387096803 271.293286219081  C 0.593548387096803 271.293286219081  0.593548387096803 253.484098939929  0.593548387096803 253.484098939929  C 0.593548387096803 253.484098939929  5.341935483871 241.611307420495  5.341935483871 241.611307420495  C 5.341935483871 241.611307420495  0.593548387096803 234.487632508834  0.593548387096803 234.487632508834  C 0.593548387096803 234.487632508834  4.15483870967751 234.487632508834  4.15483870967751 234.487632508834  C 4.15483870967751 234.487632508834  10.090322580645 228.551236749117  10.090322580645 228.551236749117  C 10.090322580645 228.551236749117  20.7741935483872 227.363957597173  20.7741935483872 227.363957597173  C 20.7741935483872 227.363957597173  26.7096774193549 229.73851590106  26.7096774193549 229.73851590106  C 26.7096774193549 229.73851590106  26.7096774193549 234.487632508834  26.7096774193549 234.487632508834  C 26.7096774193549 234.487632508834  30.2709677419355 235.674911660777  30.2709677419355 235.674911660777  C 30.2709677419355 235.674911660777  31.458064516129 239.236749116608  31.458064516129 239.236749116608  C 31.458064516129 239.236749116608  36.2064516129033 235.674911660777  36.2064516129033 235.674911660777  C 36.2064516129033 235.674911660777  44.5161290322582 236.862190812721  44.5161290322582 236.862190812721  C 44.5161290322582 236.862190812721  50.4516129032257 235.674911660777  50.4516129032257 235.674911660777  C 50.4516129032257 235.674911660777  51.6387096774193 233.30035335689  51.6387096774193 233.30035335689  C 51.6387096774193 233.30035335689  61.1354838709678 235.674911660777  61.1354838709678 235.674911660777  C 61.1354838709678 235.674911660777  70.6322580645161 232.113074204947  70.6322580645161 232.113074204947  C 70.6322580645161 232.113074204947  70.6322580645161 229.73851590106  70.6322580645161 229.73851590106  C 70.6322580645161 229.73851590106  63.5096774193549 221.427561837456  63.5096774193549 221.427561837456  C 63.5096774193549 221.427561837456  57.574193548387 222.614840989399  57.574193548387 222.614840989399  C 57.574193548387 222.614840989399  52.8258064516128 219.053003533569  52.8258064516128 219.053003533569  C 52.8258064516128 219.053003533569  55.2 214.303886925795  55.2 214.303886925795  C 55.2 214.303886925795  58.7612903225807 211.929328621908  58.7612903225807 211.929328621908  C 58.7612903225807 211.929328621908  59.9483870967741 207.180212014134  59.9483870967741 207.180212014134  C 59.9483870967741 207.180212014134  63.5096774193549 205.992932862191  63.5096774193549 205.992932862191  C 63.5096774193549 205.992932862191  67.0709677419354 198.86925795053  67.0709677419354 198.86925795053  C 67.0709677419354 198.86925795053  74.1935483870968 191.745583038869  74.1935483870968 191.745583038869  C 74.1935483870968 191.745583038869  76.5677419354839 177.498233215548  76.5677419354839 177.498233215548  C 76.5677419354839 177.498233215548  86.0645161290323 177.498233215548  86.0645161290323 177.498233215548  C 86.0645161290323 177.498233215548  87.2516129032257 175.123674911661  87.2516129032257 175.123674911661  C 87.2516129032257 175.123674911661  76.5677419354839 164.43816254417  76.5677419354839 164.43816254417  C 76.5677419354839 164.43816254417  73.0064516129032 164.43816254417  73.0064516129032 164.43816254417  C 73.0064516129032 164.43816254417  68.2580645161289 157.314487632509  68.2580645161289 157.314487632509  C 68.2580645161289 157.314487632509  64.6967741935484 158.501766784452  64.6967741935484 158.501766784452  C 64.6967741935484 158.501766784452  59.9483870967741 154.939929328622  59.9483870967741 154.939929328622  C 59.9483870967741 154.939929328622  61.1354838709678 150.190812720848  61.1354838709678 150.190812720848  C 61.1354838709678 150.190812720848  65.8838709677418 147.816254416961  65.8838709677418 147.816254416961  C 65.8838709677418 147.816254416961  65.8838709677418 138.318021201413  65.8838709677418 138.318021201413  C 65.8838709677418 138.318021201413  68.2580645161289 135.943462897527  68.2580645161289 135.943462897527  C 68.2580645161289 135.943462897527  68.2580645161289 130.007067137809  68.2580645161289 130.007067137809  C 68.2580645161289 130.007067137809  64.6967741935484 127.632508833922  64.6967741935484 127.632508833922  C 64.6967741935484 127.632508833922  65.8838709677418 124.070671378092  65.8838709677418 124.070671378092  C 65.8838709677418 124.070671378092  64.6967741935484 121.696113074205  64.6967741935484 121.696113074205  C 64.6967741935484 121.696113074205  63.5096774193549 122.883392226148  63.5096774193549 122.883392226148  C 63.5096774193549 122.883392226148  58.7612903225807 118.134275618374  58.7612903225807 118.134275618374  C 58.7612903225807 118.134275618374  54.0129032258064 116.946996466431  54.0129032258064 116.946996466431  C 54.0129032258064 116.946996466431  51.6387096774193 107.448763250883  51.6387096774193 107.448763250883  C 51.6387096774193 107.448763250883  45.7032258064514 102.69964664311  45.7032258064514 102.69964664311  C 45.7032258064514 102.69964664311  45.7032258064514 97.9505300353357  45.7032258064514 97.9505300353357  C 45.7032258064514 97.9505300353357  36.2064516129033 93.2014134275618  36.2064516129033 93.2014134275618  C 36.2064516129033 93.2014134275618  30.2709677419355 81.3286219081272  30.2709677419355 81.3286219081272  C 30.2709677419355 81.3286219081272  13.6516129032258 63.5194346289752  13.6516129032258 63.5194346289752  C 13.6516129032258 63.5194346289752  13.6516129032258 57.5830388692579  13.6516129032258 57.5830388692579  C 13.6516129032258 57.5830388692579  18.4 51.6466431095407  18.4 51.6466431095407  C 18.4 51.6466431095407  21.9612903225807 51.6466431095407  21.9612903225807 51.6466431095407  C 21.9612903225807 51.6466431095407  23.1483870967743 48.0848056537102  23.1483870967743 48.0848056537102  C 23.1483870967743 48.0848056537102  27.8967741935484 51.6466431095407  27.8967741935484 51.6466431095407  C 27.8967741935484 51.6466431095407  33.8322580645161 63.5194346289752  33.8322580645161 63.5194346289752  C 33.8322580645161 63.5194346289752  38.5806451612904 65.8939929328622  38.5806451612904 65.8939929328622  C 38.5806451612904 65.8939929328622  43.3290322580646 64.7067137809187  43.3290322580646 64.7067137809187  C 43.3290322580646 64.7067137809187  56.3870967741935 67.0812720848057  56.3870967741935 67.0812720848057  C 56.3870967741935 67.0812720848057  56.3870967741935 57.5830388692579  56.3870967741935 57.5830388692579  C 56.3870967741935 57.5830388692579  48.0774193548386 44.5229681978798  48.0774193548386 44.5229681978798  C 48.0774193548386 44.5229681978798  50.4516129032257 39.773851590106  50.4516129032257 39.773851590106  C 50.4516129032257 39.773851590106  50.4516129032257 33.8374558303887  50.4516129032257 33.8374558303887  C 50.4516129032257 33.8374558303887  54.0129032258064 31.4628975265018  54.0129032258064 31.4628975265018  C 54.0129032258064 31.4628975265018  56.3870967741935 33.8374558303887  56.3870967741935 33.8374558303887  C 56.3870967741935 33.8374558303887  59.9483870967741 32.6501766784452  59.9483870967741 32.6501766784452  C 59.9483870967741 32.6501766784452  69.4451612903225 35.0247349823322  69.4451612903225 35.0247349823322  C 69.4451612903225 35.0247349823322  70.6322580645161 32.6501766784452  70.6322580645161 32.6501766784452  C 70.6322580645161 32.6501766784452  77.7548387096775 29.0883392226148  77.7548387096775 29.0883392226148  C 77.7548387096775 29.0883392226148  82.5032258064515 30.2756183745583  82.5032258064515 30.2756183745583  C 82.5032258064515 30.2756183745583  83.6903225806451 27.9010600706713  83.6903225806451 27.9010600706713  C 83.6903225806451 27.9010600706713  93.1870967741936 35.0247349823322  93.1870967741936 35.0247349823322  C 93.1870967741936 35.0247349823322  100.309677419355 32.6501766784452  100.309677419355 32.6501766784452  C 100.309677419355 32.6501766784452  100.309677419355 24.339222614841  100.309677419355 24.339222614841  C 100.309677419355 24.339222614841  102.683870967742 19.5901060070671  102.683870967742 19.5901060070671  C 102.683870967742 19.5901060070671  102.683870967742 13.6537102473498  102.683870967742 13.6537102473498  C 102.683870967742 13.6537102473498  100.309677419355 8.90459363957598  100.309677419355 8.90459363957598  C 100.309677419355 8.90459363957598  101.496774193549 5.34275618374556  101.496774193549 5.34275618374556  C 101.496774193549 5.34275618374556  106.245161290322 0.593639575971736  106.245161290322 0.593639575971736  C 106.245161290322 0.593639575971736  110.993548387097 1.78091872791518  110.993548387097 1.78091872791518  C 110.993548387097 1.78091872791518  115.741935483871 6.53003533568904  115.741935483871 6.53003533568904  C 115.741935483871 6.53003533568904  124.051612903226 8.90459363957598  124.051612903226 8.90459363957598  C 124.051612903226 8.90459363957598  126.425806451613 17.2155477031802  126.425806451613 17.2155477031802  C 126.425806451613 17.2155477031802  121.677419354839 25.5265017667845  121.677419354839 25.5265017667845  C 121.677419354839 25.5265017667845  122.864516129032 32.6501766784452  122.864516129032 32.6501766784452  C 122.864516129032 32.6501766784452  120.490322580645 37.3992932862191  120.490322580645 37.3992932862191  C 120.490322580645 37.3992932862191  127.612903225806 51.6466431095407  127.612903225806 51.6466431095407  C 127.612903225806 51.6466431095407  129.987096774194 51.6466431095407  129.987096774194 51.6466431095407  C 129.987096774194 51.6466431095407  133.548387096774 55.208480565371  133.548387096774 55.208480565371  C 133.548387096774 55.208480565371  131.174193548387 61.1448763250883  131.174193548387 61.1448763250883  C 131.174193548387 61.1448763250883  135.922580645161 67.0812720848057  135.922580645161 67.0812720848057  C 135.922580645161 67.0812720848057  145.41935483871 69.4558303886926  145.41935483871 69.4558303886926  C 145.41935483871 69.4558303886926  144.232258064516 73.017667844523  144.232258064516 73.017667844523  C 144.232258064516 73.017667844523  148.98064516129 74.2049469964664  148.98064516129 74.2049469964664  C 148.98064516129 74.2049469964664  158.477419354839 86.077738515901  158.477419354839 86.077738515901  C 158.477419354839 86.077738515901  158.477419354839 89.6395759717314  158.477419354839 89.6395759717314  C 158.477419354839 89.6395759717314  162.038709677419 87.2650176678445  162.038709677419 87.2650176678445  C 162.038709677419 87.2650176678445  165.6 89.6395759717314  165.6 89.6395759717314  C 165.6 89.6395759717314  166.787096774194 88.452296819788  166.787096774194 88.452296819788  C 166.787096774194 88.452296819788  173.909677419355 92.0141342756184  173.909677419355 92.0141342756184  C 173.909677419355 92.0141342756184  178.658064516129 97.9505300353357  178.658064516129 97.9505300353357  C 178.658064516129 97.9505300353357  181.032258064516 97.9505300353357  181.032258064516 97.9505300353357  C 181.032258064516 97.9505300353357  183.406451612903 106.26148409894  183.406451612903 106.26148409894  C 183.406451612903 106.26148409894  176.283870967742 108.636042402827  176.283870967742 108.636042402827  C 176.283870967742 108.636042402827  177.470967741936 112.197879858657  177.470967741936 112.197879858657  C 177.470967741936 112.197879858657  167.974193548387 118.134275618374  167.974193548387 118.134275618374  C 167.974193548387 118.134275618374  169.16129032258 121.696113074205  169.16129032258 121.696113074205  C 169.16129032258 121.696113074205  166.787096774194 126.445229681979  166.787096774194 126.445229681979  C 166.787096774194 126.445229681979  154.916129032258 127.632508833922  154.916129032258 127.632508833922  C 154.916129032258 127.632508833922  152.541935483871 122.883392226148  152.541935483871 122.883392226148  C 152.541935483871 122.883392226148  151.354838709678 125.257950530035  151.354838709678 125.257950530035  C 151.354838709678 125.257950530035  154.916129032258 134.756183745583  154.916129032258 134.756183745583  C 154.916129032258 134.756183745583  152.541935483871 146.628975265018  152.541935483871 146.628975265018  C 152.541935483871 146.628975265018  144.232258064516 144.254416961131  144.232258064516 144.254416961131  C 144.232258064516 144.254416961131  131.174193548387 154.939929328622  131.174193548387 154.939929328622  C 131.174193548387 154.939929328622  131.174193548387 165.625441696113  131.174193548387 165.625441696113  C 131.174193548387 165.625441696113  127.612903225806 175.123674911661  127.612903225806 175.123674911661  C 127.612903225806 175.123674911661  128.8 179.872791519435  128.8 179.872791519435  C 128.8 179.872791519435  126.425806451613 181.060070671378  126.425806451613 181.060070671378  C 126.425806451613 181.060070671378  129.987096774194 188.183745583039  129.987096774194 188.183745583039  C 129.987096774194 188.183745583039  131.174193548387 200.056537102473  131.174193548387 200.056537102473  C 131.174193548387 200.056537102473  120.490322580645 203.618374558304  120.490322580645 203.618374558304  C 120.490322580645 203.618374558304  121.677419354839 205.992932862191  121.677419354839 205.992932862191  C 121.677419354839 205.992932862191  116.929032258065 204.805653710247  116.929032258065 204.805653710247  C 116.929032258065 204.805653710247  116.929032258065 207.180212014134  116.929032258065 207.180212014134  C 116.929032258065 207.180212014134  119.303225806451 205.992932862191  119.303225806451 205.992932862191  C 119.303225806451 205.992932862191  121.677419354839 208.367491166078  121.677419354839 208.367491166078  C 121.677419354839 208.367491166078  127.612903225806 209.554770318021  127.612903225806 209.554770318021  C 127.612903225806 209.554770318021  128.8 215.491166077739  128.8 215.491166077739  C 128.8 215.491166077739  132.361290322581 217.865724381625  132.361290322581 217.865724381625  C 132.361290322581 217.865724381625  129.987096774194 219.053003533569  129.987096774194 219.053003533569  C 129.987096774194 219.053003533569  126.425806451613 226.17667844523  126.425806451613 226.17667844523  C 126.425806451613 226.17667844523  125.238709677419 234.487632508834  125.238709677419 234.487632508834  C 125.238709677419 234.487632508834  127.612903225806 236.862190812721  127.612903225806 236.862190812721  C 127.612903225806 236.862190812721  125.238709677419 235.674911660777  125.238709677419 235.674911660777  C 125.238709677419 235.674911660777  125.238709677419 241.611307420495  125.238709677419 241.611307420495  C 125.238709677419 241.611307420495  132.361290322581 245.173144876325  132.361290322581 245.173144876325  C 132.361290322581 245.173144876325  132.361290322581 248.734982332155  132.361290322581 248.734982332155  C 132.361290322581 248.734982332155  134.735483870968 251.109540636042  134.735483870968 251.109540636042  C 134.735483870968 251.109540636042  133.548387096774 259.420494699647  133.548387096774 259.420494699647  C 133.548387096774 259.420494699647  134.735483870968 261.795053003534  134.735483870968 261.795053003534  C 134.735483870968 261.795053003534  137.109677419355 260.60777385159  137.109677419355 260.60777385159  C 137.109677419355 260.60777385159  139.483870967742 262.982332155477  139.483870967742 262.982332155477  C 139.483870967742 262.982332155477  132.361290322581 267.731448763251  132.361290322581 267.731448763251  C 132.361290322581 267.731448763251  129.987096774194 273.667844522968  129.987096774194 273.667844522968  C 129.987096774194 273.667844522968  132.361290322581 274.855123674912  132.361290322581 274.855123674912  C 132.361290322581 274.855123674912  128.8 277.229681978799  128.8 277.229681978799  C 128.8 277.229681978799  132.361290322581 284.353356890459  132.361290322581 284.353356890459  C 132.361290322581 284.353356890459  134.735483870968 284.353356890459  134.735483870968 284.353356890459  C 134.735483870968 284.353356890459  133.548387096774 291.47703180212  133.548387096774 291.47703180212  C 133.548387096774 291.47703180212  135.922580645161 292.664310954064  135.922580645161 292.664310954064  C 135.922580645161 292.664310954064  135.922580645161 295.038869257951  135.922580645161 295.038869257951  C 135.922580645161 295.038869257951  140.670967741935 292.664310954064  140.670967741935 292.664310954064  C 140.670967741935 292.664310954064  140.670967741935 295.038869257951  140.670967741935 295.038869257951  C 140.670967741935 295.038869257951  143.045161290323 293.851590106007  143.045161290323 293.851590106007  C 143.045161290323 293.851590106007  148.98064516129 302.162544169611  148.98064516129 302.162544169611  C 148.98064516129 302.162544169611  144.232258064516 308.098939929329  144.232258064516 308.098939929329  C 144.232258064516 308.098939929329  143.045161290323 306.911660777385  143.045161290323 306.911660777385  C 143.045161290323 306.911660777385  128.8 328.282685512367  128.8 328.282685512367  C 128.8 328.282685512367  125.238709677419 329.469964664311  125.238709677419 329.469964664311  C 125.238709677419 329.469964664311  126.425806451613 331.844522968198  126.425806451613 331.844522968198  C 126.425806451613 331.844522968198  124.051612903226 331.844522968198  124.051612903226 331.844522968198  C 124.051612903226 331.844522968198  121.677419354839 335.406360424028  121.677419354839 335.406360424028  C 121.677419354839 335.406360424028  116.929032258065 333.031802120141  116.929032258065 333.031802120141  C 116.929032258065 333.031802120141  116.929032258065 323.533568904594  116.929032258065 323.533568904594  C 116.929032258065 323.533568904594  109.806451612903 325.908127208481  109.806451612903 325.908127208481  C 109.806451612903 325.908127208481  107.432258064516 323.533568904594  107.432258064516 323.533568904594  C 107.432258064516 323.533568904594  103.870967741935 324.720848056537  103.870967741935 324.720848056537  C 103.870967741935 324.720848056537  102.683870967742 328.282685512367  102.683870967742 328.282685512367  C 102.683870967742 328.282685512367  97.9354838709677 328.282685512367  97.9354838709677 328.282685512367  C 97.9354838709677 328.282685512367  95.5612903225806 322.34628975265  95.5612903225806 322.34628975265  C 95.5612903225806 322.34628975265  86.0645161290323 321.159010600707  86.0645161290323 321.159010600707  C 86.0645161290323 321.159010600707  84.8774193548386 317.597173144876  84.8774193548386 317.597173144876  C 84.8774193548386 317.597173144876  75.3806451612903 317.597173144876  75.3806451612903 317.597173144876  C 75.3806451612903 317.597173144876  75.3806451612903 323.533568904594  75.3806451612903 323.533568904594  C 75.3806451612903 323.533568904594  73.0064516129032 323.533568904594  73.0064516129032 323.533568904594  C 73.0064516129032 323.533568904594  71.8193548387097 325.908127208481  71.8193548387097 325.908127208481  C 71.8193548387097 325.908127208481  67.0709677419354 325.908127208481  67.0709677419354 325.908127208481  C 67.0709677419354 325.908127208481  65.8838709677418 323.533568904594  65.8838709677418 323.533568904594  C 65.8838709677418 323.533568904594  62.3225806451613 323.533568904594  62.3225806451613 323.533568904594  C 62.3225806451613 323.533568904594  57.574193548387 316.409893992933  57.574193548387 316.409893992933  C 57.574193548387 316.409893992933  49.2645161290322 314.035335689046  49.2645161290322 314.035335689046  C 49.2645161290322 314.035335689046  48.0774193548386 308.098939929329  48.0774193548386 308.098939929329  C 48.0774193548386 308.098939929329  50.4516129032257 302.162544169611  50.4516129032257 302.162544169611  C 50.4516129032257 302.162544169611  49.2645161290322 299.787985865724  49.2645161290322 299.787985865724  C 49.2645161290322 299.787985865724  46.8903225806451 299.787985865724  46.8903225806451 299.787985865724  C 46.8903225806451 299.787985865724  45.7032258064514 295.038869257951  45.7032258064514 295.038869257951  C 45.7032258064514 295.038869257951  44.5161290322582 297.413427561837  44.5161290322582 297.413427561837  C 44.5161290322582 297.413427561837  42.1419354838711 297.413427561837  42.1419354838711 297.413427561837  C 42.1419354838711 297.413427561837  29.0838709677417 292.664310954064  29.0838709677417 292.664310954064  C 29.0838709677417 292.664310954064  23.1483870967743 296.226148409894  23.1483870967743 296.226148409894  C 23.1483870967743 296.226148409894  24.3354838709678 285.540636042403  24.3354838709678 285.540636042403  C 24.3354838709678 285.540636042403  18.4 285.540636042403  18.4 285.540636042403  C 18.4 285.540636042403  21.9612903225807 281.978798586572  21.9612903225807 281.978798586572  C 21.9612903225807 281.978798586572  20.7741935483872 279.604240282686  20.7741935483872 279.604240282686  C 20.7741935483872 279.604240282686  17.2129032258065 279.604240282686  17.2129032258065 279.604240282686  C 17.2129032258065 279.604240282686  14.8387096774193 276.042402826855  14.8387096774193 276.042402826855  C 14.8387096774193 276.042402826855  7.7161290322581 272.480565371025  7.7161290322581 272.480565371025  C 7.7161290322581 272.480565371025  1.78064516129041 274.855123674912  1.78064516129041 274.855123674912  C 1.78064516129041 274.855123674912  1.78064516129041 271.293286219081  1.78064516129041 271.293286219081  Z " fill-rule="nonzero" fill="#0fd0e6" stroke="none" transform="matrix(1 0 0 1 935 158 )" />
      <path d="M 1.78064516129041 271.293286219081  C 1.78064516129041 271.293286219081  0.593548387096803 271.293286219081  0.593548387096803 271.293286219081  C 0.593548387096803 271.293286219081  0.593548387096803 253.484098939929  0.593548387096803 253.484098939929  C 0.593548387096803 253.484098939929  5.341935483871 241.611307420495  5.341935483871 241.611307420495  C 5.341935483871 241.611307420495  0.593548387096803 234.487632508834  0.593548387096803 234.487632508834  C 0.593548387096803 234.487632508834  4.15483870967751 234.487632508834  4.15483870967751 234.487632508834  C 4.15483870967751 234.487632508834  10.090322580645 228.551236749117  10.090322580645 228.551236749117  C 10.090322580645 228.551236749117  20.7741935483872 227.363957597173  20.7741935483872 227.363957597173  C 20.7741935483872 227.363957597173  26.7096774193549 229.73851590106  26.7096774193549 229.73851590106  C 26.7096774193549 229.73851590106  26.7096774193549 234.487632508834  26.7096774193549 234.487632508834  C 26.7096774193549 234.487632508834  30.2709677419355 235.674911660777  30.2709677419355 235.674911660777  C 30.2709677419355 235.674911660777  31.458064516129 239.236749116608  31.458064516129 239.236749116608  C 31.458064516129 239.236749116608  36.2064516129033 235.674911660777  36.2064516129033 235.674911660777  C 36.2064516129033 235.674911660777  44.5161290322582 236.862190812721  44.5161290322582 236.862190812721  C 44.5161290322582 236.862190812721  50.4516129032257 235.674911660777  50.4516129032257 235.674911660777  C 50.4516129032257 235.674911660777  51.6387096774193 233.30035335689  51.6387096774193 233.30035335689  C 51.6387096774193 233.30035335689  61.1354838709678 235.674911660777  61.1354838709678 235.674911660777  C 61.1354838709678 235.674911660777  70.6322580645161 232.113074204947  70.6322580645161 232.113074204947  C 70.6322580645161 232.113074204947  70.6322580645161 229.73851590106  70.6322580645161 229.73851590106  C 70.6322580645161 229.73851590106  63.5096774193549 221.427561837456  63.5096774193549 221.427561837456  C 63.5096774193549 221.427561837456  57.574193548387 222.614840989399  57.574193548387 222.614840989399  C 57.574193548387 222.614840989399  52.8258064516128 219.053003533569  52.8258064516128 219.053003533569  C 52.8258064516128 219.053003533569  55.2 214.303886925795  55.2 214.303886925795  C 55.2 214.303886925795  58.7612903225807 211.929328621908  58.7612903225807 211.929328621908  C 58.7612903225807 211.929328621908  59.9483870967741 207.180212014134  59.9483870967741 207.180212014134  C 59.9483870967741 207.180212014134  63.5096774193549 205.992932862191  63.5096774193549 205.992932862191  C 63.5096774193549 205.992932862191  67.0709677419354 198.86925795053  67.0709677419354 198.86925795053  C 67.0709677419354 198.86925795053  74.1935483870968 191.745583038869  74.1935483870968 191.745583038869  C 74.1935483870968 191.745583038869  76.5677419354839 177.498233215548  76.5677419354839 177.498233215548  C 76.5677419354839 177.498233215548  86.0645161290323 177.498233215548  86.0645161290323 177.498233215548  C 86.0645161290323 177.498233215548  87.2516129032257 175.123674911661  87.2516129032257 175.123674911661  C 87.2516129032257 175.123674911661  76.5677419354839 164.43816254417  76.5677419354839 164.43816254417  C 76.5677419354839 164.43816254417  73.0064516129032 164.43816254417  73.0064516129032 164.43816254417  C 73.0064516129032 164.43816254417  68.2580645161289 157.314487632509  68.2580645161289 157.314487632509  C 68.2580645161289 157.314487632509  64.6967741935484 158.501766784452  64.6967741935484 158.501766784452  C 64.6967741935484 158.501766784452  59.9483870967741 154.939929328622  59.9483870967741 154.939929328622  C 59.9483870967741 154.939929328622  61.1354838709678 150.190812720848  61.1354838709678 150.190812720848  C 61.1354838709678 150.190812720848  65.8838709677418 147.816254416961  65.8838709677418 147.816254416961  C 65.8838709677418 147.816254416961  65.8838709677418 138.318021201413  65.8838709677418 138.318021201413  C 65.8838709677418 138.318021201413  68.2580645161289 135.943462897527  68.2580645161289 135.943462897527  C 68.2580645161289 135.943462897527  68.2580645161289 130.007067137809  68.2580645161289 130.007067137809  C 68.2580645161289 130.007067137809  64.6967741935484 127.632508833922  64.6967741935484 127.632508833922  C 64.6967741935484 127.632508833922  65.8838709677418 124.070671378092  65.8838709677418 124.070671378092  C 65.8838709677418 124.070671378092  64.6967741935484 121.696113074205  64.6967741935484 121.696113074205  C 64.6967741935484 121.696113074205  63.5096774193549 122.883392226148  63.5096774193549 122.883392226148  C 63.5096774193549 122.883392226148  58.7612903225807 118.134275618374  58.7612903225807 118.134275618374  C 58.7612903225807 118.134275618374  54.0129032258064 116.946996466431  54.0129032258064 116.946996466431  C 54.0129032258064 116.946996466431  51.6387096774193 107.448763250883  51.6387096774193 107.448763250883  C 51.6387096774193 107.448763250883  45.7032258064514 102.69964664311  45.7032258064514 102.69964664311  C 45.7032258064514 102.69964664311  45.7032258064514 97.9505300353357  45.7032258064514 97.9505300353357  C 45.7032258064514 97.9505300353357  36.2064516129033 93.2014134275618  36.2064516129033 93.2014134275618  C 36.2064516129033 93.2014134275618  30.2709677419355 81.3286219081272  30.2709677419355 81.3286219081272  C 30.2709677419355 81.3286219081272  13.6516129032258 63.5194346289752  13.6516129032258 63.5194346289752  C 13.6516129032258 63.5194346289752  13.6516129032258 57.5830388692579  13.6516129032258 57.5830388692579  C 13.6516129032258 57.5830388692579  18.4 51.6466431095407  18.4 51.6466431095407  C 18.4 51.6466431095407  21.9612903225807 51.6466431095407  21.9612903225807 51.6466431095407  C 21.9612903225807 51.6466431095407  23.1483870967743 48.0848056537102  23.1483870967743 48.0848056537102  C 23.1483870967743 48.0848056537102  27.8967741935484 51.6466431095407  27.8967741935484 51.6466431095407  C 27.8967741935484 51.6466431095407  33.8322580645161 63.5194346289752  33.8322580645161 63.5194346289752  C 33.8322580645161 63.5194346289752  38.5806451612904 65.8939929328622  38.5806451612904 65.8939929328622  C 38.5806451612904 65.8939929328622  43.3290322580646 64.7067137809187  43.3290322580646 64.7067137809187  C 43.3290322580646 64.7067137809187  56.3870967741935 67.0812720848057  56.3870967741935 67.0812720848057  C 56.3870967741935 67.0812720848057  56.3870967741935 57.5830388692579  56.3870967741935 57.5830388692579  C 56.3870967741935 57.5830388692579  48.0774193548386 44.5229681978798  48.0774193548386 44.5229681978798  C 48.0774193548386 44.5229681978798  50.4516129032257 39.773851590106  50.4516129032257 39.773851590106  C 50.4516129032257 39.773851590106  50.4516129032257 33.8374558303887  50.4516129032257 33.8374558303887  C 50.4516129032257 33.8374558303887  54.0129032258064 31.4628975265018  54.0129032258064 31.4628975265018  C 54.0129032258064 31.4628975265018  56.3870967741935 33.8374558303887  56.3870967741935 33.8374558303887  C 56.3870967741935 33.8374558303887  59.9483870967741 32.6501766784452  59.9483870967741 32.6501766784452  C 59.9483870967741 32.6501766784452  69.4451612903225 35.0247349823322  69.4451612903225 35.0247349823322  C 69.4451612903225 35.0247349823322  70.6322580645161 32.6501766784452  70.6322580645161 32.6501766784452  C 70.6322580645161 32.6501766784452  77.7548387096775 29.0883392226148  77.7548387096775 29.0883392226148  C 77.7548387096775 29.0883392226148  82.5032258064515 30.2756183745583  82.5032258064515 30.2756183745583  C 82.5032258064515 30.2756183745583  83.6903225806451 27.9010600706713  83.6903225806451 27.9010600706713  C 83.6903225806451 27.9010600706713  93.1870967741936 35.0247349823322  93.1870967741936 35.0247349823322  C 93.1870967741936 35.0247349823322  100.309677419355 32.6501766784452  100.309677419355 32.6501766784452  C 100.309677419355 32.6501766784452  100.309677419355 24.339222614841  100.309677419355 24.339222614841  C 100.309677419355 24.339222614841  102.683870967742 19.5901060070671  102.683870967742 19.5901060070671  C 102.683870967742 19.5901060070671  102.683870967742 13.6537102473498  102.683870967742 13.6537102473498  C 102.683870967742 13.6537102473498  100.309677419355 8.90459363957598  100.309677419355 8.90459363957598  C 100.309677419355 8.90459363957598  101.496774193549 5.34275618374556  101.496774193549 5.34275618374556  C 101.496774193549 5.34275618374556  106.245161290322 0.593639575971736  106.245161290322 0.593639575971736  C 106.245161290322 0.593639575971736  110.993548387097 1.78091872791518  110.993548387097 1.78091872791518  C 110.993548387097 1.78091872791518  115.741935483871 6.53003533568904  115.741935483871 6.53003533568904  C 115.741935483871 6.53003533568904  124.051612903226 8.90459363957598  124.051612903226 8.90459363957598  C 124.051612903226 8.90459363957598  126.425806451613 17.2155477031802  126.425806451613 17.2155477031802  C 126.425806451613 17.2155477031802  121.677419354839 25.5265017667845  121.677419354839 25.5265017667845  C 121.677419354839 25.5265017667845  122.864516129032 32.6501766784452  122.864516129032 32.6501766784452  C 122.864516129032 32.6501766784452  120.490322580645 37.3992932862191  120.490322580645 37.3992932862191  C 120.490322580645 37.3992932862191  127.612903225806 51.6466431095407  127.612903225806 51.6466431095407  C 127.612903225806 51.6466431095407  129.987096774194 51.6466431095407  129.987096774194 51.6466431095407  C 129.987096774194 51.6466431095407  133.548387096774 55.208480565371  133.548387096774 55.208480565371  C 133.548387096774 55.208480565371  131.174193548387 61.1448763250883  131.174193548387 61.1448763250883  C 131.174193548387 61.1448763250883  135.922580645161 67.0812720848057  135.922580645161 67.0812720848057  C 135.922580645161 67.0812720848057  145.41935483871 69.4558303886926  145.41935483871 69.4558303886926  C 145.41935483871 69.4558303886926  144.232258064516 73.017667844523  144.232258064516 73.017667844523  C 144.232258064516 73.017667844523  148.98064516129 74.2049469964664  148.98064516129 74.2049469964664  C 148.98064516129 74.2049469964664  158.477419354839 86.077738515901  158.477419354839 86.077738515901  C 158.477419354839 86.077738515901  158.477419354839 89.6395759717314  158.477419354839 89.6395759717314  C 158.477419354839 89.6395759717314  162.038709677419 87.2650176678445  162.038709677419 87.2650176678445  C 162.038709677419 87.2650176678445  165.6 89.6395759717314  165.6 89.6395759717314  C 165.6 89.6395759717314  166.787096774194 88.452296819788  166.787096774194 88.452296819788  C 166.787096774194 88.452296819788  173.909677419355 92.0141342756184  173.909677419355 92.0141342756184  C 173.909677419355 92.0141342756184  178.658064516129 97.9505300353357  178.658064516129 97.9505300353357  C 178.658064516129 97.9505300353357  181.032258064516 97.9505300353357  181.032258064516 97.9505300353357  C 181.032258064516 97.9505300353357  183.406451612903 106.26148409894  183.406451612903 106.26148409894  C 183.406451612903 106.26148409894  176.283870967742 108.636042402827  176.283870967742 108.636042402827  C 176.283870967742 108.636042402827  177.470967741936 112.197879858657  177.470967741936 112.197879858657  C 177.470967741936 112.197879858657  167.974193548387 118.134275618374  167.974193548387 118.134275618374  C 167.974193548387 118.134275618374  169.16129032258 121.696113074205  169.16129032258 121.696113074205  C 169.16129032258 121.696113074205  166.787096774194 126.445229681979  166.787096774194 126.445229681979  C 166.787096774194 126.445229681979  154.916129032258 127.632508833922  154.916129032258 127.632508833922  C 154.916129032258 127.632508833922  152.541935483871 122.883392226148  152.541935483871 122.883392226148  C 152.541935483871 122.883392226148  151.354838709678 125.257950530035  151.354838709678 125.257950530035  C 151.354838709678 125.257950530035  154.916129032258 134.756183745583  154.916129032258 134.756183745583  C 154.916129032258 134.756183745583  152.541935483871 146.628975265018  152.541935483871 146.628975265018  C 152.541935483871 146.628975265018  144.232258064516 144.254416961131  144.232258064516 144.254416961131  C 144.232258064516 144.254416961131  131.174193548387 154.939929328622  131.174193548387 154.939929328622  C 131.174193548387 154.939929328622  131.174193548387 165.625441696113  131.174193548387 165.625441696113  C 131.174193548387 165.625441696113  127.612903225806 175.123674911661  127.612903225806 175.123674911661  C 127.612903225806 175.123674911661  128.8 179.872791519435  128.8 179.872791519435  C 128.8 179.872791519435  126.425806451613 181.060070671378  126.425806451613 181.060070671378  C 126.425806451613 181.060070671378  129.987096774194 188.183745583039  129.987096774194 188.183745583039  C 129.987096774194 188.183745583039  131.174193548387 200.056537102473  131.174193548387 200.056537102473  C 131.174193548387 200.056537102473  120.490322580645 203.618374558304  120.490322580645 203.618374558304  C 120.490322580645 203.618374558304  121.677419354839 205.992932862191  121.677419354839 205.992932862191  C 121.677419354839 205.992932862191  116.929032258065 204.805653710247  116.929032258065 204.805653710247  C 116.929032258065 204.805653710247  116.929032258065 207.180212014134  116.929032258065 207.180212014134  C 116.929032258065 207.180212014134  119.303225806451 205.992932862191  119.303225806451 205.992932862191  C 119.303225806451 205.992932862191  121.677419354839 208.367491166078  121.677419354839 208.367491166078  C 121.677419354839 208.367491166078  127.612903225806 209.554770318021  127.612903225806 209.554770318021  C 127.612903225806 209.554770318021  128.8 215.491166077739  128.8 215.491166077739  C 128.8 215.491166077739  132.361290322581 217.865724381625  132.361290322581 217.865724381625  C 132.361290322581 217.865724381625  129.987096774194 219.053003533569  129.987096774194 219.053003533569  C 129.987096774194 219.053003533569  126.425806451613 226.17667844523  126.425806451613 226.17667844523  C 126.425806451613 226.17667844523  125.238709677419 234.487632508834  125.238709677419 234.487632508834  C 125.238709677419 234.487632508834  127.612903225806 236.862190812721  127.612903225806 236.862190812721  C 127.612903225806 236.862190812721  125.238709677419 235.674911660777  125.238709677419 235.674911660777  C 125.238709677419 235.674911660777  125.238709677419 241.611307420495  125.238709677419 241.611307420495  C 125.238709677419 241.611307420495  132.361290322581 245.173144876325  132.361290322581 245.173144876325  C 132.361290322581 245.173144876325  132.361290322581 248.734982332155  132.361290322581 248.734982332155  C 132.361290322581 248.734982332155  134.735483870968 251.109540636042  134.735483870968 251.109540636042  C 134.735483870968 251.109540636042  133.548387096774 259.420494699647  133.548387096774 259.420494699647  C 133.548387096774 259.420494699647  134.735483870968 261.795053003534  134.735483870968 261.795053003534  C 134.735483870968 261.795053003534  137.109677419355 260.60777385159  137.109677419355 260.60777385159  C 137.109677419355 260.60777385159  139.483870967742 262.982332155477  139.483870967742 262.982332155477  C 139.483870967742 262.982332155477  132.361290322581 267.731448763251  132.361290322581 267.731448763251  C 132.361290322581 267.731448763251  129.987096774194 273.667844522968  129.987096774194 273.667844522968  C 129.987096774194 273.667844522968  132.361290322581 274.855123674912  132.361290322581 274.855123674912  C 132.361290322581 274.855123674912  128.8 277.229681978799  128.8 277.229681978799  C 128.8 277.229681978799  132.361290322581 284.353356890459  132.361290322581 284.353356890459  C 132.361290322581 284.353356890459  134.735483870968 284.353356890459  134.735483870968 284.353356890459  C 134.735483870968 284.353356890459  133.548387096774 291.47703180212  133.548387096774 291.47703180212  C 133.548387096774 291.47703180212  135.922580645161 292.664310954064  135.922580645161 292.664310954064  C 135.922580645161 292.664310954064  135.922580645161 295.038869257951  135.922580645161 295.038869257951  C 135.922580645161 295.038869257951  140.670967741935 292.664310954064  140.670967741935 292.664310954064  C 140.670967741935 292.664310954064  140.670967741935 295.038869257951  140.670967741935 295.038869257951  C 140.670967741935 295.038869257951  143.045161290323 293.851590106007  143.045161290323 293.851590106007  C 143.045161290323 293.851590106007  148.98064516129 302.162544169611  148.98064516129 302.162544169611  C 148.98064516129 302.162544169611  144.232258064516 308.098939929329  144.232258064516 308.098939929329  C 144.232258064516 308.098939929329  143.045161290323 306.911660777385  143.045161290323 306.911660777385  C 143.045161290323 306.911660777385  128.8 328.282685512367  128.8 328.282685512367  C 128.8 328.282685512367  125.238709677419 329.469964664311  125.238709677419 329.469964664311  C 125.238709677419 329.469964664311  126.425806451613 331.844522968198  126.425806451613 331.844522968198  C 126.425806451613 331.844522968198  124.051612903226 331.844522968198  124.051612903226 331.844522968198  C 124.051612903226 331.844522968198  121.677419354839 335.406360424028  121.677419354839 335.406360424028  C 121.677419354839 335.406360424028  116.929032258065 333.031802120141  116.929032258065 333.031802120141  C 116.929032258065 333.031802120141  116.929032258065 323.533568904594  116.929032258065 323.533568904594  C 116.929032258065 323.533568904594  109.806451612903 325.908127208481  109.806451612903 325.908127208481  C 109.806451612903 325.908127208481  107.432258064516 323.533568904594  107.432258064516 323.533568904594  C 107.432258064516 323.533568904594  103.870967741935 324.720848056537  103.870967741935 324.720848056537  C 103.870967741935 324.720848056537  102.683870967742 328.282685512367  102.683870967742 328.282685512367  C 102.683870967742 328.282685512367  97.9354838709677 328.282685512367  97.9354838709677 328.282685512367  C 97.9354838709677 328.282685512367  95.5612903225806 322.34628975265  95.5612903225806 322.34628975265  C 95.5612903225806 322.34628975265  86.0645161290323 321.159010600707  86.0645161290323 321.159010600707  C 86.0645161290323 321.159010600707  84.8774193548386 317.597173144876  84.8774193548386 317.597173144876  C 84.8774193548386 317.597173144876  75.3806451612903 317.597173144876  75.3806451612903 317.597173144876  C 75.3806451612903 317.597173144876  75.3806451612903 323.533568904594  75.3806451612903 323.533568904594  C 75.3806451612903 323.533568904594  73.0064516129032 323.533568904594  73.0064516129032 323.533568904594  C 73.0064516129032 323.533568904594  71.8193548387097 325.908127208481  71.8193548387097 325.908127208481  C 71.8193548387097 325.908127208481  67.0709677419354 325.908127208481  67.0709677419354 325.908127208481  C 67.0709677419354 325.908127208481  65.8838709677418 323.533568904594  65.8838709677418 323.533568904594  C 65.8838709677418 323.533568904594  62.3225806451613 323.533568904594  62.3225806451613 323.533568904594  C 62.3225806451613 323.533568904594  57.574193548387 316.409893992933  57.574193548387 316.409893992933  C 57.574193548387 316.409893992933  49.2645161290322 314.035335689046  49.2645161290322 314.035335689046  C 49.2645161290322 314.035335689046  48.0774193548386 308.098939929329  48.0774193548386 308.098939929329  C 48.0774193548386 308.098939929329  50.4516129032257 302.162544169611  50.4516129032257 302.162544169611  C 50.4516129032257 302.162544169611  49.2645161290322 299.787985865724  49.2645161290322 299.787985865724  C 49.2645161290322 299.787985865724  46.8903225806451 299.787985865724  46.8903225806451 299.787985865724  C 46.8903225806451 299.787985865724  45.7032258064514 295.038869257951  45.7032258064514 295.038869257951  C 45.7032258064514 295.038869257951  44.5161290322582 297.413427561837  44.5161290322582 297.413427561837  C 44.5161290322582 297.413427561837  42.1419354838711 297.413427561837  42.1419354838711 297.413427561837  C 42.1419354838711 297.413427561837  29.0838709677417 292.664310954064  29.0838709677417 292.664310954064  C 29.0838709677417 292.664310954064  23.1483870967743 296.226148409894  23.1483870967743 296.226148409894  C 23.1483870967743 296.226148409894  24.3354838709678 285.540636042403  24.3354838709678 285.540636042403  C 24.3354838709678 285.540636042403  18.4 285.540636042403  18.4 285.540636042403  C 18.4 285.540636042403  21.9612903225807 281.978798586572  21.9612903225807 281.978798586572  C 21.9612903225807 281.978798586572  20.7741935483872 279.604240282686  20.7741935483872 279.604240282686  C 20.7741935483872 279.604240282686  17.2129032258065 279.604240282686  17.2129032258065 279.604240282686  C 17.2129032258065 279.604240282686  14.8387096774193 276.042402826855  14.8387096774193 276.042402826855  C 14.8387096774193 276.042402826855  7.7161290322581 272.480565371025  7.7161290322581 272.480565371025  C 7.7161290322581 272.480565371025  1.78064516129041 274.855123674912  1.78064516129041 274.855123674912  C 1.78064516129041 274.855123674912  1.78064516129041 271.293286219081  1.78064516129041 271.293286219081  Z " stroke-width="2" stroke-dasharray="1,1" stroke="#999999" fill="none" transform="matrix(1 0 0 1 935 158 )" mask="url(#clip2033)" />
    </g>
  </defs>
  <g transform="matrix(1 0 0 1 -931 -158 )">
    <use xlink:href="#widget2035" filter="url(#filter2034)" />
    <use xlink:href="#widget2035" />
  </g>
</svg>