<?xml version="1.0" encoding="utf-8"?>
<svg version="1.1" xmlns:xlink="http://www.w3.org/1999/xlink" width="256px" height="168px" xmlns="http://www.w3.org/2000/svg">
  <defs>
    <mask fill="white" id="clip2006">
      <path d="M 191.407407407407 31.3521126760563  C 191.407407407407 31.3521126760563  193.777777777778 31.3521126760563  193.777777777778 31.3521126760563  C 193.777777777778 31.3521126760563  200.888888888889 34.9014084507041  200.888888888889 34.9014084507041  C 200.888888888889 34.9014084507041  200.888888888889 37.2676056338028  200.888888888889 37.2676056338028  C 200.888888888889 37.2676056338028  204.444444444444 39.6338028169015  204.444444444444 39.6338028169015  C 204.444444444444 39.6338028169015  203.259259259259 51.4647887323944  203.259259259259 51.4647887323944  C 203.259259259259 51.4647887323944  205.62962962963 57.3802816901409  205.62962962963 57.3802816901409  C 205.62962962963 57.3802816901409  208 55.0140845070422  208 55.0140845070422  C 208 55.0140845070422  213.925925925926 53.830985915493  213.925925925926 53.830985915493  C 213.925925925926 53.830985915493  213.925925925926 56.1971830985915  213.925925925926 56.1971830985915  C 213.925925925926 56.1971830985915  217.481481481481 56.1971830985915  217.481481481481 56.1971830985915  C 217.481481481481 56.1971830985915  217.481481481481 58.5633802816901  217.481481481481 58.5633802816901  C 217.481481481481 58.5633802816901  212.740740740741 59.7464788732395  212.740740740741 59.7464788732395  C 212.740740740741 59.7464788732395  213.925925925926 64.4788732394366  213.925925925926 64.4788732394366  C 213.925925925926 64.4788732394366  225.777777777778 62.112676056338  225.777777777778 62.112676056338  C 225.777777777778 62.112676056338  229.333333333333 56.1971830985915  229.333333333333 56.1971830985915  C 229.333333333333 56.1971830985915  238.814814814815 58.5633802816901  238.814814814815 58.5633802816901  C 238.814814814815 58.5633802816901  238.814814814815 50.2816901408451  238.814814814815 50.2816901408451  C 238.814814814815 50.2816901408451  243.555555555556 43.1830985915493  243.555555555556 43.1830985915493  C 243.555555555556 43.1830985915493  242.37037037037 39.6338028169015  242.37037037037 39.6338028169015  C 242.37037037037 39.6338028169015  250.666666666667 39.6338028169015  250.666666666667 39.6338028169015  C 250.666666666667 39.6338028169015  254.222222222222 44.3661971830985  254.222222222222 44.3661971830985  C 254.222222222222 44.3661971830985  255.407407407408 64.4788732394366  255.407407407408 64.4788732394366  C 255.407407407408 64.4788732394366  254.222222222222 70.3943661971831  254.222222222222 70.3943661971831  C 254.222222222222 70.3943661971831  251.851851851852 72.7605633802816  251.851851851852 72.7605633802816  C 251.851851851852 72.7605633802816  253.037037037037 78.6760563380282  253.037037037037 78.6760563380282  C 253.037037037037 78.6760563380282  248.296296296296 88.1408450704225  248.296296296296 88.1408450704225  C 248.296296296296 88.1408450704225  248.296296296296 94.056338028169  248.296296296296 94.056338028169  C 248.296296296296 94.056338028169  244.740740740741 98.7887323943661  244.740740740741 98.7887323943661  C 244.740740740741 98.7887323943661  245.925925925926 104.704225352113  245.925925925926 104.704225352113  C 245.925925925926 104.704225352113  243.555555555556 109.43661971831  243.555555555556 109.43661971831  C 243.555555555556 109.43661971831  243.555555555556 127.183098591549  243.555555555556 127.183098591549  C 243.555555555556 127.183098591549  245.925925925926 130.732394366197  245.925925925926 130.732394366197  C 245.925925925926 130.732394366197  244.740740740741 139.014084507042  244.740740740741 139.014084507042  C 244.740740740741 139.014084507042  241.185185185185 139.014084507042  241.185185185185 139.014084507042  C 241.185185185185 139.014084507042  237.62962962963 134.281690140845  237.62962962963 134.281690140845  C 237.62962962963 134.281690140845  231.703703703704 134.281690140845  231.703703703704 134.281690140845  C 231.703703703704 134.281690140845  228.148148148148 136.647887323944  228.148148148148 136.647887323944  C 228.148148148148 136.647887323944  223.407407407408 136.647887323944  223.407407407408 136.647887323944  C 223.407407407408 136.647887323944  223.407407407408 140.197183098591  223.407407407408 140.197183098591  C 223.407407407408 140.197183098591  217.481481481481 142.56338028169  217.481481481481 142.56338028169  C 217.481481481481 142.56338028169  212.740740740741 140.197183098591  212.740740740741 140.197183098591  C 212.740740740741 140.197183098591  209.185185185185 141.380281690141  209.185185185185 141.380281690141  C 209.185185185185 141.380281690141  208 137.830985915493  208 137.830985915493  C 208 137.830985915493  208 140.197183098591  208 140.197183098591  C 208 140.197183098591  189.037037037037 141.380281690141  189.037037037037 141.380281690141  C 189.037037037037 141.380281690141  184.296296296296 140.197183098591  184.296296296296 140.197183098591  C 184.296296296296 140.197183098591  185.481481481481 135.464788732394  185.481481481481 135.464788732394  C 185.481481481481 135.464788732394  181.925925925926 134.281690140845  181.925925925926 134.281690140845  C 181.925925925926 134.281690140845  179.555555555556 139.014084507042  179.555555555556 139.014084507042  C 179.555555555556 139.014084507042  176 139.014084507042  176 139.014084507042  C 176 139.014084507042  174.814814814815 133.098591549296  174.814814814815 133.098591549296  C 174.814814814815 133.098591549296  171.259259259259 131.915492957747  171.259259259259 131.915492957747  C 171.259259259259 131.915492957747  170.074074074074 141.380281690141  170.074074074074 141.380281690141  C 170.074074074074 141.380281690141  167.703703703704 141.380281690141  167.703703703704 141.380281690141  C 167.703703703704 141.380281690141  167.703703703704 143.74647887324  167.703703703704 143.74647887324  C 167.703703703704 143.74647887324  164.148148148148 146.112676056338  164.148148148148 146.112676056338  C 164.148148148148 146.112676056338  164.148148148148 143.74647887324  164.148148148148 143.74647887324  C 164.148148148148 143.74647887324  161.777777777778 143.74647887324  161.777777777778 143.74647887324  C 161.777777777778 143.74647887324  161.777777777778 140.197183098591  161.777777777778 140.197183098591  C 161.777777777778 140.197183098591  157.037037037037 137.830985915493  157.037037037037 137.830985915493  C 157.037037037037 137.830985915493  157.037037037037 134.281690140845  157.037037037037 134.281690140845  C 157.037037037037 134.281690140845  149.925925925926 129.549295774648  149.925925925926 129.549295774648  C 149.925925925926 129.549295774648  148.740740740741 134.281690140845  148.740740740741 134.281690140845  C 148.740740740741 134.281690140845  151.111111111111 141.380281690141  151.111111111111 141.380281690141  C 151.111111111111 141.380281690141  148.740740740741 143.74647887324  148.740740740741 143.74647887324  C 148.740740740741 143.74647887324  145.185185185185 142.56338028169  145.185185185185 142.56338028169  C 145.185185185185 142.56338028169  145.185185185185 147.295774647887  145.185185185185 147.295774647887  C 145.185185185185 147.295774647887  142.814814814815 147.295774647887  142.814814814815 147.295774647887  C 142.814814814815 147.295774647887  141.62962962963 150.845070422535  141.62962962963 150.845070422535  C 141.62962962963 150.845070422535  135.703703703704 150.845070422535  135.703703703704 150.845070422535  C 135.703703703704 150.845070422535  133.333333333333 148.478873239437  133.333333333333 148.478873239437  C 133.333333333333 148.478873239437  128.592592592593 153.211267605634  128.592592592593 153.211267605634  C 128.592592592593 153.211267605634  123.851851851852 153.211267605634  123.851851851852 153.211267605634  C 123.851851851852 153.211267605634  121.481481481482 157.943661971831  121.481481481482 157.943661971831  C 121.481481481482 157.943661971831  121.481481481482 163.859154929577  121.481481481482 163.859154929577  C 121.481481481482 163.859154929577  123.851851851852 165.042253521127  123.851851851852 165.042253521127  C 123.851851851852 165.042253521127  123.851851851852 167.408450704225  123.851851851852 167.408450704225  C 123.851851851852 167.408450704225  108.444444444444 163.859154929577  108.444444444444 163.859154929577  C 108.444444444444 163.859154929577  100.148148148148 163.859154929577  100.148148148148 163.859154929577  C 100.148148148148 163.859154929577  96.5925925925926 152.028169014085  96.5925925925926 152.028169014085  C 96.5925925925926 152.028169014085  90.6666666666667 152.028169014085  90.6666666666667 152.028169014085  C 90.6666666666667 152.028169014085  89.4814814814814 146.112676056338  89.4814814814814 146.112676056338  C 89.4814814814814 146.112676056338  82.3703703703703 143.74647887324  82.3703703703703 143.74647887324  C 82.3703703703703 143.74647887324  84.7407407407408 141.380281690141  84.7407407407408 141.380281690141  C 84.7407407407408 141.380281690141  81.1851851851852 130.732394366197  81.1851851851852 130.732394366197  C 81.1851851851852 130.732394366197  76.4444444444443 127.183098591549  76.4444444444443 127.183098591549  C 76.4444444444443 127.183098591549  75.2592592592592 123.633802816901  75.2592592592592 123.633802816901  C 75.2592592592592 123.633802816901  74.074074074074 128.366197183099  74.074074074074 128.366197183099  C 74.074074074074 128.366197183099  71.7037037037037 129.549295774648  71.7037037037037 129.549295774648  C 71.7037037037037 129.549295774648  66.9629629629629 130.732394366197  66.9629629629629 130.732394366197  C 66.9629629629629 130.732394366197  66.9629629629629 128.366197183099  66.9629629629629 128.366197183099  C 66.9629629629629 128.366197183099  64.5925925925926 128.366197183099  64.5925925925926 128.366197183099  C 64.5925925925926 128.366197183099  64.5925925925926 130.732394366197  64.5925925925926 130.732394366197  C 64.5925925925926 130.732394366197  62.2222222222223 130.732394366197  62.2222222222223 130.732394366197  C 62.2222222222223 130.732394366197  59.8518518518518 128.366197183099  59.8518518518518 128.366197183099  C 59.8518518518518 128.366197183099  55.1111111111112 129.549295774648  55.1111111111112 129.549295774648  C 55.1111111111112 129.549295774648  50.3703703703704 134.281690140845  50.3703703703704 134.281690140845  C 50.3703703703704 134.281690140845  45.6296296296296 133.098591549296  45.6296296296296 133.098591549296  C 45.6296296296296 133.098591549296  37.3333333333333 122.450704225352  37.3333333333333 122.450704225352  C 37.3333333333333 122.450704225352  34.9629629629629 123.633802816901  34.9629629629629 123.633802816901  C 34.9629629629629 123.633802816901  32.5925925925926 129.549295774648  32.5925925925926 129.549295774648  C 32.5925925925926 129.549295774648  29.0370370370371 130.732394366197  29.0370370370371 130.732394366197  C 29.0370370370371 130.732394366197  29.0370370370371 133.098591549296  29.0370370370371 133.098591549296  C 29.0370370370371 133.098591549296  27.8518518518518 124.816901408451  27.8518518518518 124.816901408451  C 27.8518518518518 124.816901408451  30.2222222222223 122.450704225352  30.2222222222223 122.450704225352  C 30.2222222222223 122.450704225352  30.2222222222223 114.169014084507  30.2222222222223 114.169014084507  C 30.2222222222223 114.169014084507  27.8518518518518 114.169014084507  27.8518518518518 114.169014084507  C 27.8518518518518 114.169014084507  25.4814814814814 109.43661971831  25.4814814814814 109.43661971831  C 25.4814814814814 109.43661971831  17.1851851851852 110.619718309859  17.1851851851852 110.619718309859  C 17.1851851851852 110.619718309859  23.1111111111112 94.056338028169  23.1111111111112 94.056338028169  C 23.1111111111112 94.056338028169  20.7407407407406 89.3239436619718  20.7407407407406 89.3239436619718  C 20.7407407407406 89.3239436619718  20.7407407407406 73.943661971831  20.7407407407406 73.943661971831  C 20.7407407407406 73.943661971831  11.2592592592592 71.5774647887324  11.2592592592592 71.5774647887324  C 11.2592592592592 71.5774647887324  5.33333333333326 68.0281690140846  5.33333333333326 68.0281690140846  C 5.33333333333326 68.0281690140846  4.14814814814815 62.112676056338  4.14814814814815 62.112676056338  C 4.14814814814815 62.112676056338  1.77777777777771 62.112676056338  1.77777777777771 62.112676056338  C 1.77777777777771 62.112676056338  0.592592592592609 59.7464788732395  0.592592592592609 59.7464788732395  C 0.592592592592609 59.7464788732395  2.96296296296293 59.7464788732395  2.96296296296293 59.7464788732395  C 2.96296296296293 59.7464788732395  2.96296296296293 56.1971830985915  2.96296296296293 56.1971830985915  C 2.96296296296293 56.1971830985915  6.51851851851859 55.0140845070422  6.51851851851859 55.0140845070422  C 6.51851851851859 55.0140845070422  11.2592592592592 57.3802816901409  11.2592592592592 57.3802816901409  C 11.2592592592592 57.3802816901409  18.3703703703703 50.2816901408451  18.3703703703703 50.2816901408451  C 18.3703703703703 50.2816901408451  26.6666666666667 56.1971830985915  26.6666666666667 56.1971830985915  C 26.6666666666667 56.1971830985915  27.8518518518518 53.830985915493  27.8518518518518 53.830985915493  C 27.8518518518518 53.830985915493  40.8888888888888 51.4647887323944  40.8888888888888 51.4647887323944  C 40.8888888888888 51.4647887323944  42.074074074074 47.9154929577466  42.074074074074 47.9154929577466  C 42.074074074074 47.9154929577466  44.4444444444443 47.9154929577466  44.4444444444443 47.9154929577466  C 44.4444444444443 47.9154929577466  44.4444444444443 44.3661971830985  44.4444444444443 44.3661971830985  C 44.4444444444443 44.3661971830985  50.3703703703704 44.3661971830985  50.3703703703704 44.3661971830985  C 50.3703703703704 44.3661971830985  56.2962962962963 33.7183098591549  56.2962962962963 33.7183098591549  C 56.2962962962963 33.7183098591549  58.6666666666667 32.5352112676056  58.6666666666667 32.5352112676056  C 58.6666666666667 32.5352112676056  58.6666666666667 26.6197183098591  58.6666666666667 26.6197183098591  C 58.6666666666667 26.6197183098591  63.4074074074074 20.7042253521126  63.4074074074074 20.7042253521126  C 63.4074074074074 20.7042253521126  65.7777777777777 21.887323943662  65.7777777777777 21.887323943662  C 65.7777777777777 21.887323943662  70.5185185185186 17.1549295774647  70.5185185185186 17.1549295774647  C 70.5185185185186 17.1549295774647  77.6296296296297 15.9718309859154  77.6296296296297 15.9718309859154  C 77.6296296296297 15.9718309859154  78.8148148148148 12.4225352112676  78.8148148148148 12.4225352112676  C 78.8148148148148 12.4225352112676  82.3703703703703 10.056338028169  82.3703703703703 10.056338028169  C 82.3703703703703 10.056338028169  106.074074074074 0.591549295774598  106.074074074074 0.591549295774598  C 106.074074074074 0.591549295774598  116.740740740741 1.77464788732391  116.740740740741 1.77464788732391  C 116.740740740741 1.77464788732391  117.925925925926 4.14084507042253  117.925925925926 4.14084507042253  C 117.925925925926 4.14084507042253  123.851851851852 5.32394366197184  123.851851851852 5.32394366197184  C 123.851851851852 5.32394366197184  129.777777777778 11.2394366197184  129.777777777778 11.2394366197184  C 129.777777777778 11.2394366197184  134.518518518519 10.056338028169  134.518518518519 10.056338028169  C 134.518518518519 10.056338028169  138.074074074074 5.32394366197184  138.074074074074 5.32394366197184  C 138.074074074074 5.32394366197184  144 2.9577464788731  144 2.9577464788731  C 144 2.9577464788731  158.222222222222 2.9577464788731  158.222222222222 2.9577464788731  C 158.222222222222 2.9577464788731  160.592592592593 5.32394366197184  160.592592592593 5.32394366197184  C 160.592592592593 5.32394366197184  160.592592592593 8.87323943661966  160.592592592593 8.87323943661966  C 160.592592592593 8.87323943661966  153.481481481481 15.9718309859154  153.481481481481 15.9718309859154  C 153.481481481481 15.9718309859154  154.666666666667 19.5211267605634  154.666666666667 19.5211267605634  C 154.666666666667 19.5211267605634  162.962962962963 23.0704225352113  162.962962962963 23.0704225352113  C 162.962962962963 23.0704225352113  167.703703703704 20.7042253521126  167.703703703704 20.7042253521126  C 167.703703703704 20.7042253521126  167.703703703704 23.0704225352113  167.703703703704 23.0704225352113  C 167.703703703704 23.0704225352113  170.074074074074 23.0704225352113  170.074074074074 23.0704225352113  C 170.074074074074 23.0704225352113  174.814814814815 19.5211267605634  174.814814814815 19.5211267605634  C 174.814814814815 19.5211267605634  172.444444444444 30.169014084507  172.444444444444 30.169014084507  C 172.444444444444 30.169014084507  174.814814814815 33.7183098591549  174.814814814815 33.7183098591549  C 174.814814814815 33.7183098591549  179.555555555556 30.169014084507  179.555555555556 30.169014084507  C 179.555555555556 30.169014084507  181.925925925926 30.169014084507  181.925925925926 30.169014084507  C 181.925925925926 30.169014084507  183.111111111111 33.7183098591549  183.111111111111 33.7183098591549  C 183.111111111111 33.7183098591549  191.407407407407 31.3521126760563  191.407407407407 31.3521126760563  Z " fill-rule="evenodd" />
    </mask>
  </defs>
  <g transform="matrix(1 0 0 1 -671 -614 )">
    <path d="M 191.407407407407 31.3521126760563  C 191.407407407407 31.3521126760563  193.777777777778 31.3521126760563  193.777777777778 31.3521126760563  C 193.777777777778 31.3521126760563  200.888888888889 34.9014084507041  200.888888888889 34.9014084507041  C 200.888888888889 34.9014084507041  200.888888888889 37.2676056338028  200.888888888889 37.2676056338028  C 200.888888888889 37.2676056338028  204.444444444444 39.6338028169015  204.444444444444 39.6338028169015  C 204.444444444444 39.6338028169015  203.259259259259 51.4647887323944  203.259259259259 51.4647887323944  C 203.259259259259 51.4647887323944  205.62962962963 57.3802816901409  205.62962962963 57.3802816901409  C 205.62962962963 57.3802816901409  208 55.0140845070422  208 55.0140845070422  C 208 55.0140845070422  213.925925925926 53.830985915493  213.925925925926 53.830985915493  C 213.925925925926 53.830985915493  213.925925925926 56.1971830985915  213.925925925926 56.1971830985915  C 213.925925925926 56.1971830985915  217.481481481481 56.1971830985915  217.481481481481 56.1971830985915  C 217.481481481481 56.1971830985915  217.481481481481 58.5633802816901  217.481481481481 58.5633802816901  C 217.481481481481 58.5633802816901  212.740740740741 59.7464788732395  212.740740740741 59.7464788732395  C 212.740740740741 59.7464788732395  213.925925925926 64.4788732394366  213.925925925926 64.4788732394366  C 213.925925925926 64.4788732394366  225.777777777778 62.112676056338  225.777777777778 62.112676056338  C 225.777777777778 62.112676056338  229.333333333333 56.1971830985915  229.333333333333 56.1971830985915  C 229.333333333333 56.1971830985915  238.814814814815 58.5633802816901  238.814814814815 58.5633802816901  C 238.814814814815 58.5633802816901  238.814814814815 50.2816901408451  238.814814814815 50.2816901408451  C 238.814814814815 50.2816901408451  243.555555555556 43.1830985915493  243.555555555556 43.1830985915493  C 243.555555555556 43.1830985915493  242.37037037037 39.6338028169015  242.37037037037 39.6338028169015  C 242.37037037037 39.6338028169015  250.666666666667 39.6338028169015  250.666666666667 39.6338028169015  C 250.666666666667 39.6338028169015  254.222222222222 44.3661971830985  254.222222222222 44.3661971830985  C 254.222222222222 44.3661971830985  255.407407407408 64.4788732394366  255.407407407408 64.4788732394366  C 255.407407407408 64.4788732394366  254.222222222222 70.3943661971831  254.222222222222 70.3943661971831  C 254.222222222222 70.3943661971831  251.851851851852 72.7605633802816  251.851851851852 72.7605633802816  C 251.851851851852 72.7605633802816  253.037037037037 78.6760563380282  253.037037037037 78.6760563380282  C 253.037037037037 78.6760563380282  248.296296296296 88.1408450704225  248.296296296296 88.1408450704225  C 248.296296296296 88.1408450704225  248.296296296296 94.056338028169  248.296296296296 94.056338028169  C 248.296296296296 94.056338028169  244.740740740741 98.7887323943661  244.740740740741 98.7887323943661  C 244.740740740741 98.7887323943661  245.925925925926 104.704225352113  245.925925925926 104.704225352113  C 245.925925925926 104.704225352113  243.555555555556 109.43661971831  243.555555555556 109.43661971831  C 243.555555555556 109.43661971831  243.555555555556 127.183098591549  243.555555555556 127.183098591549  C 243.555555555556 127.183098591549  245.925925925926 130.732394366197  245.925925925926 130.732394366197  C 245.925925925926 130.732394366197  244.740740740741 139.014084507042  244.740740740741 139.014084507042  C 244.740740740741 139.014084507042  241.185185185185 139.014084507042  241.185185185185 139.014084507042  C 241.185185185185 139.014084507042  237.62962962963 134.281690140845  237.62962962963 134.281690140845  C 237.62962962963 134.281690140845  231.703703703704 134.281690140845  231.703703703704 134.281690140845  C 231.703703703704 134.281690140845  228.148148148148 136.647887323944  228.148148148148 136.647887323944  C 228.148148148148 136.647887323944  223.407407407408 136.647887323944  223.407407407408 136.647887323944  C 223.407407407408 136.647887323944  223.407407407408 140.197183098591  223.407407407408 140.197183098591  C 223.407407407408 140.197183098591  217.481481481481 142.56338028169  217.481481481481 142.56338028169  C 217.481481481481 142.56338028169  212.740740740741 140.197183098591  212.740740740741 140.197183098591  C 212.740740740741 140.197183098591  209.185185185185 141.380281690141  209.185185185185 141.380281690141  C 209.185185185185 141.380281690141  208 137.830985915493  208 137.830985915493  C 208 137.830985915493  208 140.197183098591  208 140.197183098591  C 208 140.197183098591  189.037037037037 141.380281690141  189.037037037037 141.380281690141  C 189.037037037037 141.380281690141  184.296296296296 140.197183098591  184.296296296296 140.197183098591  C 184.296296296296 140.197183098591  185.481481481481 135.464788732394  185.481481481481 135.464788732394  C 185.481481481481 135.464788732394  181.925925925926 134.281690140845  181.925925925926 134.281690140845  C 181.925925925926 134.281690140845  179.555555555556 139.014084507042  179.555555555556 139.014084507042  C 179.555555555556 139.014084507042  176 139.014084507042  176 139.014084507042  C 176 139.014084507042  174.814814814815 133.098591549296  174.814814814815 133.098591549296  C 174.814814814815 133.098591549296  171.259259259259 131.915492957747  171.259259259259 131.915492957747  C 171.259259259259 131.915492957747  170.074074074074 141.380281690141  170.074074074074 141.380281690141  C 170.074074074074 141.380281690141  167.703703703704 141.380281690141  167.703703703704 141.380281690141  C 167.703703703704 141.380281690141  167.703703703704 143.74647887324  167.703703703704 143.74647887324  C 167.703703703704 143.74647887324  164.148148148148 146.112676056338  164.148148148148 146.112676056338  C 164.148148148148 146.112676056338  164.148148148148 143.74647887324  164.148148148148 143.74647887324  C 164.148148148148 143.74647887324  161.777777777778 143.74647887324  161.777777777778 143.74647887324  C 161.777777777778 143.74647887324  161.777777777778 140.197183098591  161.777777777778 140.197183098591  C 161.777777777778 140.197183098591  157.037037037037 137.830985915493  157.037037037037 137.830985915493  C 157.037037037037 137.830985915493  157.037037037037 134.281690140845  157.037037037037 134.281690140845  C 157.037037037037 134.281690140845  149.925925925926 129.549295774648  149.925925925926 129.549295774648  C 149.925925925926 129.549295774648  148.740740740741 134.281690140845  148.740740740741 134.281690140845  C 148.740740740741 134.281690140845  151.111111111111 141.380281690141  151.111111111111 141.380281690141  C 151.111111111111 141.380281690141  148.740740740741 143.74647887324  148.740740740741 143.74647887324  C 148.740740740741 143.74647887324  145.185185185185 142.56338028169  145.185185185185 142.56338028169  C 145.185185185185 142.56338028169  145.185185185185 147.295774647887  145.185185185185 147.295774647887  C 145.185185185185 147.295774647887  142.814814814815 147.295774647887  142.814814814815 147.295774647887  C 142.814814814815 147.295774647887  141.62962962963 150.845070422535  141.62962962963 150.845070422535  C 141.62962962963 150.845070422535  135.703703703704 150.845070422535  135.703703703704 150.845070422535  C 135.703703703704 150.845070422535  133.333333333333 148.478873239437  133.333333333333 148.478873239437  C 133.333333333333 148.478873239437  128.592592592593 153.211267605634  128.592592592593 153.211267605634  C 128.592592592593 153.211267605634  123.851851851852 153.211267605634  123.851851851852 153.211267605634  C 123.851851851852 153.211267605634  121.481481481482 157.943661971831  121.481481481482 157.943661971831  C 121.481481481482 157.943661971831  121.481481481482 163.859154929577  121.481481481482 163.859154929577  C 121.481481481482 163.859154929577  123.851851851852 165.042253521127  123.851851851852 165.042253521127  C 123.851851851852 165.042253521127  123.851851851852 167.408450704225  123.851851851852 167.408450704225  C 123.851851851852 167.408450704225  108.444444444444 163.859154929577  108.444444444444 163.859154929577  C 108.444444444444 163.859154929577  100.148148148148 163.859154929577  100.148148148148 163.859154929577  C 100.148148148148 163.859154929577  96.5925925925926 152.028169014085  96.5925925925926 152.028169014085  C 96.5925925925926 152.028169014085  90.6666666666667 152.028169014085  90.6666666666667 152.028169014085  C 90.6666666666667 152.028169014085  89.4814814814814 146.112676056338  89.4814814814814 146.112676056338  C 89.4814814814814 146.112676056338  82.3703703703703 143.74647887324  82.3703703703703 143.74647887324  C 82.3703703703703 143.74647887324  84.7407407407408 141.380281690141  84.7407407407408 141.380281690141  C 84.7407407407408 141.380281690141  81.1851851851852 130.732394366197  81.1851851851852 130.732394366197  C 81.1851851851852 130.732394366197  76.4444444444443 127.183098591549  76.4444444444443 127.183098591549  C 76.4444444444443 127.183098591549  75.2592592592592 123.633802816901  75.2592592592592 123.633802816901  C 75.2592592592592 123.633802816901  74.074074074074 128.366197183099  74.074074074074 128.366197183099  C 74.074074074074 128.366197183099  71.7037037037037 129.549295774648  71.7037037037037 129.549295774648  C 71.7037037037037 129.549295774648  66.9629629629629 130.732394366197  66.9629629629629 130.732394366197  C 66.9629629629629 130.732394366197  66.9629629629629 128.366197183099  66.9629629629629 128.366197183099  C 66.9629629629629 128.366197183099  64.5925925925926 128.366197183099  64.5925925925926 128.366197183099  C 64.5925925925926 128.366197183099  64.5925925925926 130.732394366197  64.5925925925926 130.732394366197  C 64.5925925925926 130.732394366197  62.2222222222223 130.732394366197  62.2222222222223 130.732394366197  C 62.2222222222223 130.732394366197  59.8518518518518 128.366197183099  59.8518518518518 128.366197183099  C 59.8518518518518 128.366197183099  55.1111111111112 129.549295774648  55.1111111111112 129.549295774648  C 55.1111111111112 129.549295774648  50.3703703703704 134.281690140845  50.3703703703704 134.281690140845  C 50.3703703703704 134.281690140845  45.6296296296296 133.098591549296  45.6296296296296 133.098591549296  C 45.6296296296296 133.098591549296  37.3333333333333 122.450704225352  37.3333333333333 122.450704225352  C 37.3333333333333 122.450704225352  34.9629629629629 123.633802816901  34.9629629629629 123.633802816901  C 34.9629629629629 123.633802816901  32.5925925925926 129.549295774648  32.5925925925926 129.549295774648  C 32.5925925925926 129.549295774648  29.0370370370371 130.732394366197  29.0370370370371 130.732394366197  C 29.0370370370371 130.732394366197  29.0370370370371 133.098591549296  29.0370370370371 133.098591549296  C 29.0370370370371 133.098591549296  27.8518518518518 124.816901408451  27.8518518518518 124.816901408451  C 27.8518518518518 124.816901408451  30.2222222222223 122.450704225352  30.2222222222223 122.450704225352  C 30.2222222222223 122.450704225352  30.2222222222223 114.169014084507  30.2222222222223 114.169014084507  C 30.2222222222223 114.169014084507  27.8518518518518 114.169014084507  27.8518518518518 114.169014084507  C 27.8518518518518 114.169014084507  25.4814814814814 109.43661971831  25.4814814814814 109.43661971831  C 25.4814814814814 109.43661971831  17.1851851851852 110.619718309859  17.1851851851852 110.619718309859  C 17.1851851851852 110.619718309859  23.1111111111112 94.056338028169  23.1111111111112 94.056338028169  C 23.1111111111112 94.056338028169  20.7407407407406 89.3239436619718  20.7407407407406 89.3239436619718  C 20.7407407407406 89.3239436619718  20.7407407407406 73.943661971831  20.7407407407406 73.943661971831  C 20.7407407407406 73.943661971831  11.2592592592592 71.5774647887324  11.2592592592592 71.5774647887324  C 11.2592592592592 71.5774647887324  5.33333333333326 68.0281690140846  5.33333333333326 68.0281690140846  C 5.33333333333326 68.0281690140846  4.14814814814815 62.112676056338  4.14814814814815 62.112676056338  C 4.14814814814815 62.112676056338  1.77777777777771 62.112676056338  1.77777777777771 62.112676056338  C 1.77777777777771 62.112676056338  0.592592592592609 59.7464788732395  0.592592592592609 59.7464788732395  C 0.592592592592609 59.7464788732395  2.96296296296293 59.7464788732395  2.96296296296293 59.7464788732395  C 2.96296296296293 59.7464788732395  2.96296296296293 56.1971830985915  2.96296296296293 56.1971830985915  C 2.96296296296293 56.1971830985915  6.51851851851859 55.0140845070422  6.51851851851859 55.0140845070422  C 6.51851851851859 55.0140845070422  11.2592592592592 57.3802816901409  11.2592592592592 57.3802816901409  C 11.2592592592592 57.3802816901409  18.3703703703703 50.2816901408451  18.3703703703703 50.2816901408451  C 18.3703703703703 50.2816901408451  26.6666666666667 56.1971830985915  26.6666666666667 56.1971830985915  C 26.6666666666667 56.1971830985915  27.8518518518518 53.830985915493  27.8518518518518 53.830985915493  C 27.8518518518518 53.830985915493  40.8888888888888 51.4647887323944  40.8888888888888 51.4647887323944  C 40.8888888888888 51.4647887323944  42.074074074074 47.9154929577466  42.074074074074 47.9154929577466  C 42.074074074074 47.9154929577466  44.4444444444443 47.9154929577466  44.4444444444443 47.9154929577466  C 44.4444444444443 47.9154929577466  44.4444444444443 44.3661971830985  44.4444444444443 44.3661971830985  C 44.4444444444443 44.3661971830985  50.3703703703704 44.3661971830985  50.3703703703704 44.3661971830985  C 50.3703703703704 44.3661971830985  56.2962962962963 33.7183098591549  56.2962962962963 33.7183098591549  C 56.2962962962963 33.7183098591549  58.6666666666667 32.5352112676056  58.6666666666667 32.5352112676056  C 58.6666666666667 32.5352112676056  58.6666666666667 26.6197183098591  58.6666666666667 26.6197183098591  C 58.6666666666667 26.6197183098591  63.4074074074074 20.7042253521126  63.4074074074074 20.7042253521126  C 63.4074074074074 20.7042253521126  65.7777777777777 21.887323943662  65.7777777777777 21.887323943662  C 65.7777777777777 21.887323943662  70.5185185185186 17.1549295774647  70.5185185185186 17.1549295774647  C 70.5185185185186 17.1549295774647  77.6296296296297 15.9718309859154  77.6296296296297 15.9718309859154  C 77.6296296296297 15.9718309859154  78.8148148148148 12.4225352112676  78.8148148148148 12.4225352112676  C 78.8148148148148 12.4225352112676  82.3703703703703 10.056338028169  82.3703703703703 10.056338028169  C 82.3703703703703 10.056338028169  106.074074074074 0.591549295774598  106.074074074074 0.591549295774598  C 106.074074074074 0.591549295774598  116.740740740741 1.77464788732391  116.740740740741 1.77464788732391  C 116.740740740741 1.77464788732391  117.925925925926 4.14084507042253  117.925925925926 4.14084507042253  C 117.925925925926 4.14084507042253  123.851851851852 5.32394366197184  123.851851851852 5.32394366197184  C 123.851851851852 5.32394366197184  129.777777777778 11.2394366197184  129.777777777778 11.2394366197184  C 129.777777777778 11.2394366197184  134.518518518519 10.056338028169  134.518518518519 10.056338028169  C 134.518518518519 10.056338028169  138.074074074074 5.32394366197184  138.074074074074 5.32394366197184  C 138.074074074074 5.32394366197184  144 2.9577464788731  144 2.9577464788731  C 144 2.9577464788731  158.222222222222 2.9577464788731  158.222222222222 2.9577464788731  C 158.222222222222 2.9577464788731  160.592592592593 5.32394366197184  160.592592592593 5.32394366197184  C 160.592592592593 5.32394366197184  160.592592592593 8.87323943661966  160.592592592593 8.87323943661966  C 160.592592592593 8.87323943661966  153.481481481481 15.9718309859154  153.481481481481 15.9718309859154  C 153.481481481481 15.9718309859154  154.666666666667 19.5211267605634  154.666666666667 19.5211267605634  C 154.666666666667 19.5211267605634  162.962962962963 23.0704225352113  162.962962962963 23.0704225352113  C 162.962962962963 23.0704225352113  167.703703703704 20.7042253521126  167.703703703704 20.7042253521126  C 167.703703703704 20.7042253521126  167.703703703704 23.0704225352113  167.703703703704 23.0704225352113  C 167.703703703704 23.0704225352113  170.074074074074 23.0704225352113  170.074074074074 23.0704225352113  C 170.074074074074 23.0704225352113  174.814814814815 19.5211267605634  174.814814814815 19.5211267605634  C 174.814814814815 19.5211267605634  172.444444444444 30.169014084507  172.444444444444 30.169014084507  C 172.444444444444 30.169014084507  174.814814814815 33.7183098591549  174.814814814815 33.7183098591549  C 174.814814814815 33.7183098591549  179.555555555556 30.169014084507  179.555555555556 30.169014084507  C 179.555555555556 30.169014084507  181.925925925926 30.169014084507  181.925925925926 30.169014084507  C 181.925925925926 30.169014084507  183.111111111111 33.7183098591549  183.111111111111 33.7183098591549  C 183.111111111111 33.7183098591549  191.407407407407 31.3521126760563  191.407407407407 31.3521126760563  Z " fill-rule="nonzero" fill="#0033ff" stroke="none" fill-opacity="0" transform="matrix(1 0 0 1 671 614 )" />
    <path d="M 191.407407407407 31.3521126760563  C 191.407407407407 31.3521126760563  193.777777777778 31.3521126760563  193.777777777778 31.3521126760563  C 193.777777777778 31.3521126760563  200.888888888889 34.9014084507041  200.888888888889 34.9014084507041  C 200.888888888889 34.9014084507041  200.888888888889 37.2676056338028  200.888888888889 37.2676056338028  C 200.888888888889 37.2676056338028  204.444444444444 39.6338028169015  204.444444444444 39.6338028169015  C 204.444444444444 39.6338028169015  203.259259259259 51.4647887323944  203.259259259259 51.4647887323944  C 203.259259259259 51.4647887323944  205.62962962963 57.3802816901409  205.62962962963 57.3802816901409  C 205.62962962963 57.3802816901409  208 55.0140845070422  208 55.0140845070422  C 208 55.0140845070422  213.925925925926 53.830985915493  213.925925925926 53.830985915493  C 213.925925925926 53.830985915493  213.925925925926 56.1971830985915  213.925925925926 56.1971830985915  C 213.925925925926 56.1971830985915  217.481481481481 56.1971830985915  217.481481481481 56.1971830985915  C 217.481481481481 56.1971830985915  217.481481481481 58.5633802816901  217.481481481481 58.5633802816901  C 217.481481481481 58.5633802816901  212.740740740741 59.7464788732395  212.740740740741 59.7464788732395  C 212.740740740741 59.7464788732395  213.925925925926 64.4788732394366  213.925925925926 64.4788732394366  C 213.925925925926 64.4788732394366  225.777777777778 62.112676056338  225.777777777778 62.112676056338  C 225.777777777778 62.112676056338  229.333333333333 56.1971830985915  229.333333333333 56.1971830985915  C 229.333333333333 56.1971830985915  238.814814814815 58.5633802816901  238.814814814815 58.5633802816901  C 238.814814814815 58.5633802816901  238.814814814815 50.2816901408451  238.814814814815 50.2816901408451  C 238.814814814815 50.2816901408451  243.555555555556 43.1830985915493  243.555555555556 43.1830985915493  C 243.555555555556 43.1830985915493  242.37037037037 39.6338028169015  242.37037037037 39.6338028169015  C 242.37037037037 39.6338028169015  250.666666666667 39.6338028169015  250.666666666667 39.6338028169015  C 250.666666666667 39.6338028169015  254.222222222222 44.3661971830985  254.222222222222 44.3661971830985  C 254.222222222222 44.3661971830985  255.407407407408 64.4788732394366  255.407407407408 64.4788732394366  C 255.407407407408 64.4788732394366  254.222222222222 70.3943661971831  254.222222222222 70.3943661971831  C 254.222222222222 70.3943661971831  251.851851851852 72.7605633802816  251.851851851852 72.7605633802816  C 251.851851851852 72.7605633802816  253.037037037037 78.6760563380282  253.037037037037 78.6760563380282  C 253.037037037037 78.6760563380282  248.296296296296 88.1408450704225  248.296296296296 88.1408450704225  C 248.296296296296 88.1408450704225  248.296296296296 94.056338028169  248.296296296296 94.056338028169  C 248.296296296296 94.056338028169  244.740740740741 98.7887323943661  244.740740740741 98.7887323943661  C 244.740740740741 98.7887323943661  245.925925925926 104.704225352113  245.925925925926 104.704225352113  C 245.925925925926 104.704225352113  243.555555555556 109.43661971831  243.555555555556 109.43661971831  C 243.555555555556 109.43661971831  243.555555555556 127.183098591549  243.555555555556 127.183098591549  C 243.555555555556 127.183098591549  245.925925925926 130.732394366197  245.925925925926 130.732394366197  C 245.925925925926 130.732394366197  244.740740740741 139.014084507042  244.740740740741 139.014084507042  C 244.740740740741 139.014084507042  241.185185185185 139.014084507042  241.185185185185 139.014084507042  C 241.185185185185 139.014084507042  237.62962962963 134.281690140845  237.62962962963 134.281690140845  C 237.62962962963 134.281690140845  231.703703703704 134.281690140845  231.703703703704 134.281690140845  C 231.703703703704 134.281690140845  228.148148148148 136.647887323944  228.148148148148 136.647887323944  C 228.148148148148 136.647887323944  223.407407407408 136.647887323944  223.407407407408 136.647887323944  C 223.407407407408 136.647887323944  223.407407407408 140.197183098591  223.407407407408 140.197183098591  C 223.407407407408 140.197183098591  217.481481481481 142.56338028169  217.481481481481 142.56338028169  C 217.481481481481 142.56338028169  212.740740740741 140.197183098591  212.740740740741 140.197183098591  C 212.740740740741 140.197183098591  209.185185185185 141.380281690141  209.185185185185 141.380281690141  C 209.185185185185 141.380281690141  208 137.830985915493  208 137.830985915493  C 208 137.830985915493  208 140.197183098591  208 140.197183098591  C 208 140.197183098591  189.037037037037 141.380281690141  189.037037037037 141.380281690141  C 189.037037037037 141.380281690141  184.296296296296 140.197183098591  184.296296296296 140.197183098591  C 184.296296296296 140.197183098591  185.481481481481 135.464788732394  185.481481481481 135.464788732394  C 185.481481481481 135.464788732394  181.925925925926 134.281690140845  181.925925925926 134.281690140845  C 181.925925925926 134.281690140845  179.555555555556 139.014084507042  179.555555555556 139.014084507042  C 179.555555555556 139.014084507042  176 139.014084507042  176 139.014084507042  C 176 139.014084507042  174.814814814815 133.098591549296  174.814814814815 133.098591549296  C 174.814814814815 133.098591549296  171.259259259259 131.915492957747  171.259259259259 131.915492957747  C 171.259259259259 131.915492957747  170.074074074074 141.380281690141  170.074074074074 141.380281690141  C 170.074074074074 141.380281690141  167.703703703704 141.380281690141  167.703703703704 141.380281690141  C 167.703703703704 141.380281690141  167.703703703704 143.74647887324  167.703703703704 143.74647887324  C 167.703703703704 143.74647887324  164.148148148148 146.112676056338  164.148148148148 146.112676056338  C 164.148148148148 146.112676056338  164.148148148148 143.74647887324  164.148148148148 143.74647887324  C 164.148148148148 143.74647887324  161.777777777778 143.74647887324  161.777777777778 143.74647887324  C 161.777777777778 143.74647887324  161.777777777778 140.197183098591  161.777777777778 140.197183098591  C 161.777777777778 140.197183098591  157.037037037037 137.830985915493  157.037037037037 137.830985915493  C 157.037037037037 137.830985915493  157.037037037037 134.281690140845  157.037037037037 134.281690140845  C 157.037037037037 134.281690140845  149.925925925926 129.549295774648  149.925925925926 129.549295774648  C 149.925925925926 129.549295774648  148.740740740741 134.281690140845  148.740740740741 134.281690140845  C 148.740740740741 134.281690140845  151.111111111111 141.380281690141  151.111111111111 141.380281690141  C 151.111111111111 141.380281690141  148.740740740741 143.74647887324  148.740740740741 143.74647887324  C 148.740740740741 143.74647887324  145.185185185185 142.56338028169  145.185185185185 142.56338028169  C 145.185185185185 142.56338028169  145.185185185185 147.295774647887  145.185185185185 147.295774647887  C 145.185185185185 147.295774647887  142.814814814815 147.295774647887  142.814814814815 147.295774647887  C 142.814814814815 147.295774647887  141.62962962963 150.845070422535  141.62962962963 150.845070422535  C 141.62962962963 150.845070422535  135.703703703704 150.845070422535  135.703703703704 150.845070422535  C 135.703703703704 150.845070422535  133.333333333333 148.478873239437  133.333333333333 148.478873239437  C 133.333333333333 148.478873239437  128.592592592593 153.211267605634  128.592592592593 153.211267605634  C 128.592592592593 153.211267605634  123.851851851852 153.211267605634  123.851851851852 153.211267605634  C 123.851851851852 153.211267605634  121.481481481482 157.943661971831  121.481481481482 157.943661971831  C 121.481481481482 157.943661971831  121.481481481482 163.859154929577  121.481481481482 163.859154929577  C 121.481481481482 163.859154929577  123.851851851852 165.042253521127  123.851851851852 165.042253521127  C 123.851851851852 165.042253521127  123.851851851852 167.408450704225  123.851851851852 167.408450704225  C 123.851851851852 167.408450704225  108.444444444444 163.859154929577  108.444444444444 163.859154929577  C 108.444444444444 163.859154929577  100.148148148148 163.859154929577  100.148148148148 163.859154929577  C 100.148148148148 163.859154929577  96.5925925925926 152.028169014085  96.5925925925926 152.028169014085  C 96.5925925925926 152.028169014085  90.6666666666667 152.028169014085  90.6666666666667 152.028169014085  C 90.6666666666667 152.028169014085  89.4814814814814 146.112676056338  89.4814814814814 146.112676056338  C 89.4814814814814 146.112676056338  82.3703703703703 143.74647887324  82.3703703703703 143.74647887324  C 82.3703703703703 143.74647887324  84.7407407407408 141.380281690141  84.7407407407408 141.380281690141  C 84.7407407407408 141.380281690141  81.1851851851852 130.732394366197  81.1851851851852 130.732394366197  C 81.1851851851852 130.732394366197  76.4444444444443 127.183098591549  76.4444444444443 127.183098591549  C 76.4444444444443 127.183098591549  75.2592592592592 123.633802816901  75.2592592592592 123.633802816901  C 75.2592592592592 123.633802816901  74.074074074074 128.366197183099  74.074074074074 128.366197183099  C 74.074074074074 128.366197183099  71.7037037037037 129.549295774648  71.7037037037037 129.549295774648  C 71.7037037037037 129.549295774648  66.9629629629629 130.732394366197  66.9629629629629 130.732394366197  C 66.9629629629629 130.732394366197  66.9629629629629 128.366197183099  66.9629629629629 128.366197183099  C 66.9629629629629 128.366197183099  64.5925925925926 128.366197183099  64.5925925925926 128.366197183099  C 64.5925925925926 128.366197183099  64.5925925925926 130.732394366197  64.5925925925926 130.732394366197  C 64.5925925925926 130.732394366197  62.2222222222223 130.732394366197  62.2222222222223 130.732394366197  C 62.2222222222223 130.732394366197  59.8518518518518 128.366197183099  59.8518518518518 128.366197183099  C 59.8518518518518 128.366197183099  55.1111111111112 129.549295774648  55.1111111111112 129.549295774648  C 55.1111111111112 129.549295774648  50.3703703703704 134.281690140845  50.3703703703704 134.281690140845  C 50.3703703703704 134.281690140845  45.6296296296296 133.098591549296  45.6296296296296 133.098591549296  C 45.6296296296296 133.098591549296  37.3333333333333 122.450704225352  37.3333333333333 122.450704225352  C 37.3333333333333 122.450704225352  34.9629629629629 123.633802816901  34.9629629629629 123.633802816901  C 34.9629629629629 123.633802816901  32.5925925925926 129.549295774648  32.5925925925926 129.549295774648  C 32.5925925925926 129.549295774648  29.0370370370371 130.732394366197  29.0370370370371 130.732394366197  C 29.0370370370371 130.732394366197  29.0370370370371 133.098591549296  29.0370370370371 133.098591549296  C 29.0370370370371 133.098591549296  27.8518518518518 124.816901408451  27.8518518518518 124.816901408451  C 27.8518518518518 124.816901408451  30.2222222222223 122.450704225352  30.2222222222223 122.450704225352  C 30.2222222222223 122.450704225352  30.2222222222223 114.169014084507  30.2222222222223 114.169014084507  C 30.2222222222223 114.169014084507  27.8518518518518 114.169014084507  27.8518518518518 114.169014084507  C 27.8518518518518 114.169014084507  25.4814814814814 109.43661971831  25.4814814814814 109.43661971831  C 25.4814814814814 109.43661971831  17.1851851851852 110.619718309859  17.1851851851852 110.619718309859  C 17.1851851851852 110.619718309859  23.1111111111112 94.056338028169  23.1111111111112 94.056338028169  C 23.1111111111112 94.056338028169  20.7407407407406 89.3239436619718  20.7407407407406 89.3239436619718  C 20.7407407407406 89.3239436619718  20.7407407407406 73.943661971831  20.7407407407406 73.943661971831  C 20.7407407407406 73.943661971831  11.2592592592592 71.5774647887324  11.2592592592592 71.5774647887324  C 11.2592592592592 71.5774647887324  5.33333333333326 68.0281690140846  5.33333333333326 68.0281690140846  C 5.33333333333326 68.0281690140846  4.14814814814815 62.112676056338  4.14814814814815 62.112676056338  C 4.14814814814815 62.112676056338  1.77777777777771 62.112676056338  1.77777777777771 62.112676056338  C 1.77777777777771 62.112676056338  0.592592592592609 59.7464788732395  0.592592592592609 59.7464788732395  C 0.592592592592609 59.7464788732395  2.96296296296293 59.7464788732395  2.96296296296293 59.7464788732395  C 2.96296296296293 59.7464788732395  2.96296296296293 56.1971830985915  2.96296296296293 56.1971830985915  C 2.96296296296293 56.1971830985915  6.51851851851859 55.0140845070422  6.51851851851859 55.0140845070422  C 6.51851851851859 55.0140845070422  11.2592592592592 57.3802816901409  11.2592592592592 57.3802816901409  C 11.2592592592592 57.3802816901409  18.3703703703703 50.2816901408451  18.3703703703703 50.2816901408451  C 18.3703703703703 50.2816901408451  26.6666666666667 56.1971830985915  26.6666666666667 56.1971830985915  C 26.6666666666667 56.1971830985915  27.8518518518518 53.830985915493  27.8518518518518 53.830985915493  C 27.8518518518518 53.830985915493  40.8888888888888 51.4647887323944  40.8888888888888 51.4647887323944  C 40.8888888888888 51.4647887323944  42.074074074074 47.9154929577466  42.074074074074 47.9154929577466  C 42.074074074074 47.9154929577466  44.4444444444443 47.9154929577466  44.4444444444443 47.9154929577466  C 44.4444444444443 47.9154929577466  44.4444444444443 44.3661971830985  44.4444444444443 44.3661971830985  C 44.4444444444443 44.3661971830985  50.3703703703704 44.3661971830985  50.3703703703704 44.3661971830985  C 50.3703703703704 44.3661971830985  56.2962962962963 33.7183098591549  56.2962962962963 33.7183098591549  C 56.2962962962963 33.7183098591549  58.6666666666667 32.5352112676056  58.6666666666667 32.5352112676056  C 58.6666666666667 32.5352112676056  58.6666666666667 26.6197183098591  58.6666666666667 26.6197183098591  C 58.6666666666667 26.6197183098591  63.4074074074074 20.7042253521126  63.4074074074074 20.7042253521126  C 63.4074074074074 20.7042253521126  65.7777777777777 21.887323943662  65.7777777777777 21.887323943662  C 65.7777777777777 21.887323943662  70.5185185185186 17.1549295774647  70.5185185185186 17.1549295774647  C 70.5185185185186 17.1549295774647  77.6296296296297 15.9718309859154  77.6296296296297 15.9718309859154  C 77.6296296296297 15.9718309859154  78.8148148148148 12.4225352112676  78.8148148148148 12.4225352112676  C 78.8148148148148 12.4225352112676  82.3703703703703 10.056338028169  82.3703703703703 10.056338028169  C 82.3703703703703 10.056338028169  106.074074074074 0.591549295774598  106.074074074074 0.591549295774598  C 106.074074074074 0.591549295774598  116.740740740741 1.77464788732391  116.740740740741 1.77464788732391  C 116.740740740741 1.77464788732391  117.925925925926 4.14084507042253  117.925925925926 4.14084507042253  C 117.925925925926 4.14084507042253  123.851851851852 5.32394366197184  123.851851851852 5.32394366197184  C 123.851851851852 5.32394366197184  129.777777777778 11.2394366197184  129.777777777778 11.2394366197184  C 129.777777777778 11.2394366197184  134.518518518519 10.056338028169  134.518518518519 10.056338028169  C 134.518518518519 10.056338028169  138.074074074074 5.32394366197184  138.074074074074 5.32394366197184  C 138.074074074074 5.32394366197184  144 2.9577464788731  144 2.9577464788731  C 144 2.9577464788731  158.222222222222 2.9577464788731  158.222222222222 2.9577464788731  C 158.222222222222 2.9577464788731  160.592592592593 5.32394366197184  160.592592592593 5.32394366197184  C 160.592592592593 5.32394366197184  160.592592592593 8.87323943661966  160.592592592593 8.87323943661966  C 160.592592592593 8.87323943661966  153.481481481481 15.9718309859154  153.481481481481 15.9718309859154  C 153.481481481481 15.9718309859154  154.666666666667 19.5211267605634  154.666666666667 19.5211267605634  C 154.666666666667 19.5211267605634  162.962962962963 23.0704225352113  162.962962962963 23.0704225352113  C 162.962962962963 23.0704225352113  167.703703703704 20.7042253521126  167.703703703704 20.7042253521126  C 167.703703703704 20.7042253521126  167.703703703704 23.0704225352113  167.703703703704 23.0704225352113  C 167.703703703704 23.0704225352113  170.074074074074 23.0704225352113  170.074074074074 23.0704225352113  C 170.074074074074 23.0704225352113  174.814814814815 19.5211267605634  174.814814814815 19.5211267605634  C 174.814814814815 19.5211267605634  172.444444444444 30.169014084507  172.444444444444 30.169014084507  C 172.444444444444 30.169014084507  174.814814814815 33.7183098591549  174.814814814815 33.7183098591549  C 174.814814814815 33.7183098591549  179.555555555556 30.169014084507  179.555555555556 30.169014084507  C 179.555555555556 30.169014084507  181.925925925926 30.169014084507  181.925925925926 30.169014084507  C 181.925925925926 30.169014084507  183.111111111111 33.7183098591549  183.111111111111 33.7183098591549  C 183.111111111111 33.7183098591549  191.407407407407 31.3521126760563  191.407407407407 31.3521126760563  Z " stroke-width="2" stroke-dasharray="1,1" stroke="#999999" fill="none" transform="matrix(1 0 0 1 671 614 )" mask="url(#clip2006)" />
  </g>
</svg>