<?xml version="1.0" encoding="utf-8"?>
<svg version="1.1" xmlns:xlink="http://www.w3.org/1999/xlink" width="212px" height="158px" xmlns="http://www.w3.org/2000/svg">
  <defs>
    <mask fill="white" id="clip2025">
      <path d="M 191.546511627907 120.983606557377  C 191.546511627907 120.983606557377  191.546511627907 122.16393442623  191.546511627907 122.16393442623  C 191.546511627907 122.16393442623  189.174418604651 133.967213114754  189.174418604651 133.967213114754  C 189.174418604651 133.967213114754  182.058139534884 132.786885245902  182.058139534884 132.786885245902  C 182.058139534884 132.786885245902  176.127906976744 136.327868852459  176.127906976744 136.327868852459  C 176.127906976744 136.327868852459  173.755813953488 141.049180327869  173.755813953488 141.049180327869  C 173.755813953488 141.049180327869  170.197674418605 143.409836065574  170.197674418605 143.409836065574  C 170.197674418605 143.409836065574  169.011627906977 141.049180327869  169.011627906977 141.049180327869  C 169.011627906977 141.049180327869  161.895348837209 139.868852459016  161.895348837209 139.868852459016  C 161.895348837209 139.868852459016  161.895348837209 136.327868852459  161.895348837209 136.327868852459  C 161.895348837209 136.327868852459  166.639534883721 133.967213114754  166.639534883721 133.967213114754  C 166.639534883721 133.967213114754  165.453488372093 131.606557377049  165.453488372093 131.606557377049  C 165.453488372093 131.606557377049  160.709302325581 130.426229508197  160.709302325581 130.426229508197  C 160.709302325581 130.426229508197  154.779069767442 132.786885245902  154.779069767442 132.786885245902  C 154.779069767442 132.786885245902  154.779069767442 136.327868852459  154.779069767442 136.327868852459  C 154.779069767442 136.327868852459  148.848837209302 136.327868852459  148.848837209302 136.327868852459  C 148.848837209302 136.327868852459  142.918604651163 132.786885245902  142.918604651163 132.786885245902  C 142.918604651163 132.786885245902  141.732558139535 133.967213114754  141.732558139535 133.967213114754  C 141.732558139535 133.967213114754  138.174418604651 124.524590163934  138.174418604651 124.524590163934  C 138.174418604651 124.524590163934  134.616279069767 126.885245901639  134.616279069767 126.885245901639  C 134.616279069767 126.885245901639  132.244186046512 120.983606557377  132.244186046512 120.983606557377  C 132.244186046512 120.983606557377  129.872093023256 120.983606557377  129.872093023256 120.983606557377  C 129.872093023256 120.983606557377  129.872093023256 113.901639344262  129.872093023256 113.901639344262  C 129.872093023256 113.901639344262  127.5 116.262295081967  127.5 116.262295081967  C 127.5 116.262295081967  122.755813953488 115.081967213115  122.755813953488 115.081967213115  C 122.755813953488 115.081967213115  125.127906976744 104.459016393443  125.127906976744 104.459016393443  C 125.127906976744 104.459016393443  112.081395348837 100.918032786885  112.081395348837 100.918032786885  C 112.081395348837 100.918032786885  110.895348837209 93.8360655737704  110.895348837209 93.8360655737704  C 110.895348837209 93.8360655737704  104.96511627907 95.0163934426229  104.96511627907 95.0163934426229  C 104.96511627907 95.0163934426229  104.96511627907 99.7377049180328  104.96511627907 99.7377049180328  C 104.96511627907 99.7377049180328  99.0348837209303 102.098360655738  99.0348837209303 102.098360655738  C 99.0348837209303 102.098360655738  100.220930232558 109.180327868852  100.220930232558 109.180327868852  C 100.220930232558 109.180327868852  88.3604651162791 110.360655737705  88.3604651162791 110.360655737705  C 88.3604651162791 110.360655737705  88.3604651162791 112.72131147541  88.3604651162791 112.72131147541  C 88.3604651162791 112.72131147541  75.3139534883721 110.360655737705  75.3139534883721 110.360655737705  C 75.3139534883721 110.360655737705  67.0116279069767 117.44262295082  67.0116279069767 117.44262295082  C 67.0116279069767 117.44262295082  63.453488372093 124.524590163934  63.453488372093 124.524590163934  C 63.453488372093 124.524590163934  58.7093023255815 126.885245901639  58.7093023255815 126.885245901639  C 58.7093023255815 126.885245901639  57.5232558139534 125.704918032787  57.5232558139534 125.704918032787  C 57.5232558139534 125.704918032787  53.9651162790697 128.065573770492  53.9651162790697 128.065573770492  C 53.9651162790697 128.065573770492  44.4767441860465 124.524590163934  44.4767441860465 124.524590163934  C 44.4767441860465 124.524590163934  38.546511627907 128.065573770492  38.546511627907 128.065573770492  C 38.546511627907 128.065573770492  36.1744186046511 117.44262295082  36.1744186046511 117.44262295082  C 36.1744186046511 117.44262295082  31.4302325581396 117.44262295082  31.4302325581396 117.44262295082  C 31.4302325581396 117.44262295082  32.6162790697675 115.081967213115  32.6162790697675 115.081967213115  C 32.6162790697675 115.081967213115  24.3139534883721 104.459016393443  24.3139534883721 104.459016393443  C 24.3139534883721 104.459016393443  12.453488372093 103.27868852459  12.453488372093 103.27868852459  C 12.453488372093 103.27868852459  6.52325581395348 98.5573770491803  6.52325581395348 98.5573770491803  C 6.52325581395348 98.5573770491803  4.15116279069775 99.7377049180328  4.15116279069775 99.7377049180328  C 4.15116279069775 99.7377049180328  0.593023255813932 91.4754098360656  0.593023255813932 91.4754098360656  C 0.593023255813932 91.4754098360656  4.15116279069775 86.7540983606558  4.15116279069775 86.7540983606558  C 4.15116279069775 86.7540983606558  1.7790697674418 85.5737704918033  1.7790697674418 85.5737704918033  C 1.7790697674418 85.5737704918033  4.15116279069775 83.2131147540984  4.15116279069775 83.2131147540984  C 4.15116279069775 83.2131147540984  8.89534883720921 84.3934426229508  8.89534883720921 84.3934426229508  C 8.89534883720921 84.3934426229508  13.6395348837209 76.1311475409836  13.6395348837209 76.1311475409836  C 13.6395348837209 76.1311475409836  12.453488372093 72.5901639344262  12.453488372093 72.5901639344262  C 12.453488372093 72.5901639344262  17.1976744186047 63.1475409836066  17.1976744186047 63.1475409836066  C 17.1976744186047 63.1475409836066  19.5697674418604 64.327868852459  19.5697674418604 64.327868852459  C 19.5697674418604 64.327868852459  23.1279069767442 60.7868852459016  23.1279069767442 60.7868852459016  C 23.1279069767442 60.7868852459016  23.1279069767442 58.4262295081967  23.1279069767442 58.4262295081967  C 23.1279069767442 58.4262295081967  29.0581395348837 54.8852459016394  29.0581395348837 54.8852459016394  C 29.0581395348837 54.8852459016394  36.1744186046511 54.8852459016394  36.1744186046511 54.8852459016394  C 36.1744186046511 54.8852459016394  40.9186046511627 48.983606557377  40.9186046511627 48.983606557377  C 40.9186046511627 48.983606557377  43.2906976744185 38.3606557377049  43.2906976744185 38.3606557377049  C 43.2906976744185 38.3606557377049  45.6627906976745 38.3606557377049  45.6627906976745 38.3606557377049  C 45.6627906976745 38.3606557377049  39.7325581395348 30.0983606557378  39.7325581395348 30.0983606557378  C 39.7325581395348 30.0983606557378  43.2906976744185 27.7377049180328  43.2906976744185 27.7377049180328  C 43.2906976744185 27.7377049180328  48.0348837209303 27.7377049180328  48.0348837209303 27.7377049180328  C 48.0348837209303 27.7377049180328  50.4069767441861 24.1967213114754  50.4069767441861 24.1967213114754  C 50.4069767441861 24.1967213114754  52.7790697674418 24.1967213114754  52.7790697674418 24.1967213114754  C 52.7790697674418 24.1967213114754  56.3372093023255 27.7377049180328  56.3372093023255 27.7377049180328  C 56.3372093023255 27.7377049180328  57.5232558139534 32.4590163934427  57.5232558139534 32.4590163934427  C 57.5232558139534 32.4590163934427  59.8953488372093 32.4590163934427  59.8953488372093 32.4590163934427  C 59.8953488372093 32.4590163934427  63.453488372093 31.2786885245902  63.453488372093 31.2786885245902  C 63.453488372093 31.2786885245902  65.8255813953489 28.9180327868852  65.8255813953489 28.9180327868852  C 65.8255813953489 28.9180327868852  64.6395348837209 26.5573770491804  64.6395348837209 26.5573770491804  C 64.6395348837209 26.5573770491804  67.0116279069767 23.016393442623  67.0116279069767 23.016393442623  C 67.0116279069767 23.016393442623  70.5697674418604 21.8360655737704  70.5697674418604 21.8360655737704  C 70.5697674418604 21.8360655737704  74.1279069767442 23.016393442623  74.1279069767442 23.016393442623  C 74.1279069767442 23.016393442623  74.1279069767442 25.3770491803278  74.1279069767442 25.3770491803278  C 74.1279069767442 25.3770491803278  82.4302325581396 25.3770491803278  82.4302325581396 25.3770491803278  C 82.4302325581396 25.3770491803278  85.9883720930233 32.4590163934427  85.9883720930233 32.4590163934427  C 85.9883720930233 32.4590163934427  88.3604651162791 32.4590163934427  88.3604651162791 32.4590163934427  C 88.3604651162791 32.4590163934427  91.9186046511628 31.2786885245902  91.9186046511628 31.2786885245902  C 91.9186046511628 31.2786885245902  90.7325581395349 19.4754098360656  90.7325581395349 19.4754098360656  C 90.7325581395349 19.4754098360656  91.9186046511628 18.2950819672132  91.9186046511628 18.2950819672132  C 91.9186046511628 18.2950819672132  91.9186046511628 23.016393442623  91.9186046511628 23.016393442623  C 91.9186046511628 23.016393442623  94.2906976744185 23.016393442623  94.2906976744185 23.016393442623  C 94.2906976744185 23.016393442623  95.4767441860465 19.4754098360656  95.4767441860465 19.4754098360656  C 95.4767441860465 19.4754098360656  93.1046511627907 14.7540983606557  93.1046511627907 14.7540983606557  C 93.1046511627907 14.7540983606557  96.6627906976745 11.2131147540983  96.6627906976745 11.2131147540983  C 96.6627906976745 11.2131147540983  100.220930232558 11.2131147540983  100.220930232558 11.2131147540983  C 100.220930232558 11.2131147540983  103.779069767442 8.85245901639342  103.779069767442 8.85245901639342  C 103.779069767442 8.85245901639342  104.96511627907 11.2131147540983  104.96511627907 11.2131147540983  C 104.96511627907 11.2131147540983  113.267441860465 7.67213114754099  113.267441860465 7.67213114754099  C 113.267441860465 7.67213114754099  114.453488372093 5.31147540983608  114.453488372093 5.31147540983608  C 114.453488372093 5.31147540983608  119.197674418605 5.31147540983608  119.197674418605 5.31147540983608  C 119.197674418605 5.31147540983608  120.383720930233 7.67213114754099  120.383720930233 7.67213114754099  C 120.383720930233 7.67213114754099  123.941860465116 5.31147540983608  123.941860465116 5.31147540983608  C 123.941860465116 5.31147540983608  125.127906976744 7.67213114754099  125.127906976744 7.67213114754099  C 125.127906976744 7.67213114754099  126.313953488372 5.31147540983608  126.313953488372 5.31147540983608  C 126.313953488372 5.31147540983608  132.244186046512 4.13114754098359  132.244186046512 4.13114754098359  C 132.244186046512 4.13114754098359  135.802325581395 7.67213114754099  135.802325581395 7.67213114754099  C 135.802325581395 7.67213114754099  138.174418604651 0.590163934426187  138.174418604651 0.590163934426187  C 138.174418604651 0.590163934426187  139.360465116279 4.13114754098359  139.360465116279 4.13114754098359  C 139.360465116279 4.13114754098359  145.290697674419 1.77049180327862  145.290697674419 1.77049180327862  C 145.290697674419 1.77049180327862  152.406976744186 5.31147540983608  152.406976744186 5.31147540983608  C 152.406976744186 5.31147540983608  154.779069767442 8.85245901639342  154.779069767442 8.85245901639342  C 154.779069767442 8.85245901639342  158.337209302326 8.85245901639342  158.337209302326 8.85245901639342  C 158.337209302326 8.85245901639342  159.523255813953 11.2131147540983  159.523255813953 11.2131147540983  C 159.523255813953 11.2131147540983  155.96511627907 14.7540983606557  155.96511627907 14.7540983606557  C 155.96511627907 14.7540983606557  161.895348837209 14.7540983606557  161.895348837209 14.7540983606557  C 161.895348837209 14.7540983606557  160.709302325581 25.3770491803278  160.709302325581 25.3770491803278  C 160.709302325581 25.3770491803278  166.639534883721 21.8360655737704  166.639534883721 21.8360655737704  C 166.639534883721 21.8360655737704  179.686046511628 26.5573770491804  179.686046511628 26.5573770491804  C 179.686046511628 26.5573770491804  182.058139534884 26.5573770491804  182.058139534884 26.5573770491804  C 182.058139534884 26.5573770491804  183.244186046512 24.1967213114754  183.244186046512 24.1967213114754  C 183.244186046512 24.1967213114754  184.430232558139 28.9180327868852  184.430232558139 28.9180327868852  C 184.430232558139 28.9180327868852  186.802325581395 28.9180327868852  186.802325581395 28.9180327868852  C 186.802325581395 28.9180327868852  187.988372093023 31.2786885245902  187.988372093023 31.2786885245902  C 187.988372093023 31.2786885245902  184.430232558139 37.1803278688524  184.430232558139 37.1803278688524  C 184.430232558139 37.1803278688524  186.802325581395 43.0819672131148  186.802325581395 43.0819672131148  C 186.802325581395 43.0819672131148  192.732558139535 44.2622950819672  192.732558139535 44.2622950819672  C 192.732558139535 44.2622950819672  197.476744186047 47.8032786885246  197.476744186047 47.8032786885246  C 197.476744186047 47.8032786885246  199.848837209302 52.5245901639344  199.848837209302 52.5245901639344  C 199.848837209302 52.5245901639344  203.406976744186 53.7049180327868  203.406976744186 53.7049180327868  C 203.406976744186 53.7049180327868  202.220930232558 57.2459016393443  202.220930232558 57.2459016393443  C 202.220930232558 57.2459016393443  196.290697674419 59.6065573770492  196.290697674419 59.6065573770492  C 196.290697674419 59.6065573770492  197.476744186047 67.8688524590164  197.476744186047 67.8688524590164  C 197.476744186047 67.8688524590164  193.918604651163 69.0491803278688  193.918604651163 69.0491803278688  C 193.918604651163 69.0491803278688  193.918604651163 76.1311475409836  193.918604651163 76.1311475409836  C 193.918604651163 76.1311475409836  198.662790697674 82.032786885246  198.662790697674 82.032786885246  C 198.662790697674 82.032786885246  195.104651162791 95.0163934426229  195.104651162791 95.0163934426229  C 195.104651162791 95.0163934426229  197.476744186047 93.8360655737704  197.476744186047 93.8360655737704  C 197.476744186047 93.8360655737704  199.848837209302 96.1967213114755  199.848837209302 96.1967213114755  C 199.848837209302 96.1967213114755  196.290697674419 99.7377049180328  196.290697674419 99.7377049180328  C 196.290697674419 99.7377049180328  199.848837209302 113.901639344262  199.848837209302 113.901639344262  C 199.848837209302 113.901639344262  196.290697674419 119.803278688525  196.290697674419 119.803278688525  C 196.290697674419 119.803278688525  191.546511627907 120.983606557377  191.546511627907 120.983606557377  Z " fill-rule="evenodd" />
    </mask>
    <filter x="795px" y="427px" width="212px" height="158px" filterUnits="userSpaceOnUse" id="filter2026">
      <feOffset dx="0" dy="10" in="SourceAlpha" result="shadowOffsetInner" />
      <feGaussianBlur stdDeviation="2" in="shadowOffsetInner" result="shadowGaussian" />
      <feComposite in2="shadowGaussian" operator="atop" in="SourceAlpha" result="shadowComposite" />
      <feColorMatrix type="matrix" values="0 0 0 0 0  0 0 0 0 0.6  0 0 0 0 1  0 0 0 1 0  " in="shadowComposite" />
    </filter>
    <g id="widget2027">
      <path d="M 191.546511627907 120.983606557377  C 191.546511627907 120.983606557377  191.546511627907 122.16393442623  191.546511627907 122.16393442623  C 191.546511627907 122.16393442623  189.174418604651 133.967213114754  189.174418604651 133.967213114754  C 189.174418604651 133.967213114754  182.058139534884 132.786885245902  182.058139534884 132.786885245902  C 182.058139534884 132.786885245902  176.127906976744 136.327868852459  176.127906976744 136.327868852459  C 176.127906976744 136.327868852459  173.755813953488 141.049180327869  173.755813953488 141.049180327869  C 173.755813953488 141.049180327869  170.197674418605 143.409836065574  170.197674418605 143.409836065574  C 170.197674418605 143.409836065574  169.011627906977 141.049180327869  169.011627906977 141.049180327869  C 169.011627906977 141.049180327869  161.895348837209 139.868852459016  161.895348837209 139.868852459016  C 161.895348837209 139.868852459016  161.895348837209 136.327868852459  161.895348837209 136.327868852459  C 161.895348837209 136.327868852459  166.639534883721 133.967213114754  166.639534883721 133.967213114754  C 166.639534883721 133.967213114754  165.453488372093 131.606557377049  165.453488372093 131.606557377049  C 165.453488372093 131.606557377049  160.709302325581 130.426229508197  160.709302325581 130.426229508197  C 160.709302325581 130.426229508197  154.779069767442 132.786885245902  154.779069767442 132.786885245902  C 154.779069767442 132.786885245902  154.779069767442 136.327868852459  154.779069767442 136.327868852459  C 154.779069767442 136.327868852459  148.848837209302 136.327868852459  148.848837209302 136.327868852459  C 148.848837209302 136.327868852459  142.918604651163 132.786885245902  142.918604651163 132.786885245902  C 142.918604651163 132.786885245902  141.732558139535 133.967213114754  141.732558139535 133.967213114754  C 141.732558139535 133.967213114754  138.174418604651 124.524590163934  138.174418604651 124.524590163934  C 138.174418604651 124.524590163934  134.616279069767 126.885245901639  134.616279069767 126.885245901639  C 134.616279069767 126.885245901639  132.244186046512 120.983606557377  132.244186046512 120.983606557377  C 132.244186046512 120.983606557377  129.872093023256 120.983606557377  129.872093023256 120.983606557377  C 129.872093023256 120.983606557377  129.872093023256 113.901639344262  129.872093023256 113.901639344262  C 129.872093023256 113.901639344262  127.5 116.262295081967  127.5 116.262295081967  C 127.5 116.262295081967  122.755813953488 115.081967213115  122.755813953488 115.081967213115  C 122.755813953488 115.081967213115  125.127906976744 104.459016393443  125.127906976744 104.459016393443  C 125.127906976744 104.459016393443  112.081395348837 100.918032786885  112.081395348837 100.918032786885  C 112.081395348837 100.918032786885  110.895348837209 93.8360655737704  110.895348837209 93.8360655737704  C 110.895348837209 93.8360655737704  104.96511627907 95.0163934426229  104.96511627907 95.0163934426229  C 104.96511627907 95.0163934426229  104.96511627907 99.7377049180328  104.96511627907 99.7377049180328  C 104.96511627907 99.7377049180328  99.0348837209303 102.098360655738  99.0348837209303 102.098360655738  C 99.0348837209303 102.098360655738  100.220930232558 109.180327868852  100.220930232558 109.180327868852  C 100.220930232558 109.180327868852  88.3604651162791 110.360655737705  88.3604651162791 110.360655737705  C 88.3604651162791 110.360655737705  88.3604651162791 112.72131147541  88.3604651162791 112.72131147541  C 88.3604651162791 112.72131147541  75.3139534883721 110.360655737705  75.3139534883721 110.360655737705  C 75.3139534883721 110.360655737705  67.0116279069767 117.44262295082  67.0116279069767 117.44262295082  C 67.0116279069767 117.44262295082  63.453488372093 124.524590163934  63.453488372093 124.524590163934  C 63.453488372093 124.524590163934  58.7093023255815 126.885245901639  58.7093023255815 126.885245901639  C 58.7093023255815 126.885245901639  57.5232558139534 125.704918032787  57.5232558139534 125.704918032787  C 57.5232558139534 125.704918032787  53.9651162790697 128.065573770492  53.9651162790697 128.065573770492  C 53.9651162790697 128.065573770492  44.4767441860465 124.524590163934  44.4767441860465 124.524590163934  C 44.4767441860465 124.524590163934  38.546511627907 128.065573770492  38.546511627907 128.065573770492  C 38.546511627907 128.065573770492  36.1744186046511 117.44262295082  36.1744186046511 117.44262295082  C 36.1744186046511 117.44262295082  31.4302325581396 117.44262295082  31.4302325581396 117.44262295082  C 31.4302325581396 117.44262295082  32.6162790697675 115.081967213115  32.6162790697675 115.081967213115  C 32.6162790697675 115.081967213115  24.3139534883721 104.459016393443  24.3139534883721 104.459016393443  C 24.3139534883721 104.459016393443  12.453488372093 103.27868852459  12.453488372093 103.27868852459  C 12.453488372093 103.27868852459  6.52325581395348 98.5573770491803  6.52325581395348 98.5573770491803  C 6.52325581395348 98.5573770491803  4.15116279069775 99.7377049180328  4.15116279069775 99.7377049180328  C 4.15116279069775 99.7377049180328  0.593023255813932 91.4754098360656  0.593023255813932 91.4754098360656  C 0.593023255813932 91.4754098360656  4.15116279069775 86.7540983606558  4.15116279069775 86.7540983606558  C 4.15116279069775 86.7540983606558  1.7790697674418 85.5737704918033  1.7790697674418 85.5737704918033  C 1.7790697674418 85.5737704918033  4.15116279069775 83.2131147540984  4.15116279069775 83.2131147540984  C 4.15116279069775 83.2131147540984  8.89534883720921 84.3934426229508  8.89534883720921 84.3934426229508  C 8.89534883720921 84.3934426229508  13.6395348837209 76.1311475409836  13.6395348837209 76.1311475409836  C 13.6395348837209 76.1311475409836  12.453488372093 72.5901639344262  12.453488372093 72.5901639344262  C 12.453488372093 72.5901639344262  17.1976744186047 63.1475409836066  17.1976744186047 63.1475409836066  C 17.1976744186047 63.1475409836066  19.5697674418604 64.327868852459  19.5697674418604 64.327868852459  C 19.5697674418604 64.327868852459  23.1279069767442 60.7868852459016  23.1279069767442 60.7868852459016  C 23.1279069767442 60.7868852459016  23.1279069767442 58.4262295081967  23.1279069767442 58.4262295081967  C 23.1279069767442 58.4262295081967  29.0581395348837 54.8852459016394  29.0581395348837 54.8852459016394  C 29.0581395348837 54.8852459016394  36.1744186046511 54.8852459016394  36.1744186046511 54.8852459016394  C 36.1744186046511 54.8852459016394  40.9186046511627 48.983606557377  40.9186046511627 48.983606557377  C 40.9186046511627 48.983606557377  43.2906976744185 38.3606557377049  43.2906976744185 38.3606557377049  C 43.2906976744185 38.3606557377049  45.6627906976745 38.3606557377049  45.6627906976745 38.3606557377049  C 45.6627906976745 38.3606557377049  39.7325581395348 30.0983606557378  39.7325581395348 30.0983606557378  C 39.7325581395348 30.0983606557378  43.2906976744185 27.7377049180328  43.2906976744185 27.7377049180328  C 43.2906976744185 27.7377049180328  48.0348837209303 27.7377049180328  48.0348837209303 27.7377049180328  C 48.0348837209303 27.7377049180328  50.4069767441861 24.1967213114754  50.4069767441861 24.1967213114754  C 50.4069767441861 24.1967213114754  52.7790697674418 24.1967213114754  52.7790697674418 24.1967213114754  C 52.7790697674418 24.1967213114754  56.3372093023255 27.7377049180328  56.3372093023255 27.7377049180328  C 56.3372093023255 27.7377049180328  57.5232558139534 32.4590163934427  57.5232558139534 32.4590163934427  C 57.5232558139534 32.4590163934427  59.8953488372093 32.4590163934427  59.8953488372093 32.4590163934427  C 59.8953488372093 32.4590163934427  63.453488372093 31.2786885245902  63.453488372093 31.2786885245902  C 63.453488372093 31.2786885245902  65.8255813953489 28.9180327868852  65.8255813953489 28.9180327868852  C 65.8255813953489 28.9180327868852  64.6395348837209 26.5573770491804  64.6395348837209 26.5573770491804  C 64.6395348837209 26.5573770491804  67.0116279069767 23.016393442623  67.0116279069767 23.016393442623  C 67.0116279069767 23.016393442623  70.5697674418604 21.8360655737704  70.5697674418604 21.8360655737704  C 70.5697674418604 21.8360655737704  74.1279069767442 23.016393442623  74.1279069767442 23.016393442623  C 74.1279069767442 23.016393442623  74.1279069767442 25.3770491803278  74.1279069767442 25.3770491803278  C 74.1279069767442 25.3770491803278  82.4302325581396 25.3770491803278  82.4302325581396 25.3770491803278  C 82.4302325581396 25.3770491803278  85.9883720930233 32.4590163934427  85.9883720930233 32.4590163934427  C 85.9883720930233 32.4590163934427  88.3604651162791 32.4590163934427  88.3604651162791 32.4590163934427  C 88.3604651162791 32.4590163934427  91.9186046511628 31.2786885245902  91.9186046511628 31.2786885245902  C 91.9186046511628 31.2786885245902  90.7325581395349 19.4754098360656  90.7325581395349 19.4754098360656  C 90.7325581395349 19.4754098360656  91.9186046511628 18.2950819672132  91.9186046511628 18.2950819672132  C 91.9186046511628 18.2950819672132  91.9186046511628 23.016393442623  91.9186046511628 23.016393442623  C 91.9186046511628 23.016393442623  94.2906976744185 23.016393442623  94.2906976744185 23.016393442623  C 94.2906976744185 23.016393442623  95.4767441860465 19.4754098360656  95.4767441860465 19.4754098360656  C 95.4767441860465 19.4754098360656  93.1046511627907 14.7540983606557  93.1046511627907 14.7540983606557  C 93.1046511627907 14.7540983606557  96.6627906976745 11.2131147540983  96.6627906976745 11.2131147540983  C 96.6627906976745 11.2131147540983  100.220930232558 11.2131147540983  100.220930232558 11.2131147540983  C 100.220930232558 11.2131147540983  103.779069767442 8.85245901639342  103.779069767442 8.85245901639342  C 103.779069767442 8.85245901639342  104.96511627907 11.2131147540983  104.96511627907 11.2131147540983  C 104.96511627907 11.2131147540983  113.267441860465 7.67213114754099  113.267441860465 7.67213114754099  C 113.267441860465 7.67213114754099  114.453488372093 5.31147540983608  114.453488372093 5.31147540983608  C 114.453488372093 5.31147540983608  119.197674418605 5.31147540983608  119.197674418605 5.31147540983608  C 119.197674418605 5.31147540983608  120.383720930233 7.67213114754099  120.383720930233 7.67213114754099  C 120.383720930233 7.67213114754099  123.941860465116 5.31147540983608  123.941860465116 5.31147540983608  C 123.941860465116 5.31147540983608  125.127906976744 7.67213114754099  125.127906976744 7.67213114754099  C 125.127906976744 7.67213114754099  126.313953488372 5.31147540983608  126.313953488372 5.31147540983608  C 126.313953488372 5.31147540983608  132.244186046512 4.13114754098359  132.244186046512 4.13114754098359  C 132.244186046512 4.13114754098359  135.802325581395 7.67213114754099  135.802325581395 7.67213114754099  C 135.802325581395 7.67213114754099  138.174418604651 0.590163934426187  138.174418604651 0.590163934426187  C 138.174418604651 0.590163934426187  139.360465116279 4.13114754098359  139.360465116279 4.13114754098359  C 139.360465116279 4.13114754098359  145.290697674419 1.77049180327862  145.290697674419 1.77049180327862  C 145.290697674419 1.77049180327862  152.406976744186 5.31147540983608  152.406976744186 5.31147540983608  C 152.406976744186 5.31147540983608  154.779069767442 8.85245901639342  154.779069767442 8.85245901639342  C 154.779069767442 8.85245901639342  158.337209302326 8.85245901639342  158.337209302326 8.85245901639342  C 158.337209302326 8.85245901639342  159.523255813953 11.2131147540983  159.523255813953 11.2131147540983  C 159.523255813953 11.2131147540983  155.96511627907 14.7540983606557  155.96511627907 14.7540983606557  C 155.96511627907 14.7540983606557  161.895348837209 14.7540983606557  161.895348837209 14.7540983606557  C 161.895348837209 14.7540983606557  160.709302325581 25.3770491803278  160.709302325581 25.3770491803278  C 160.709302325581 25.3770491803278  166.639534883721 21.8360655737704  166.639534883721 21.8360655737704  C 166.639534883721 21.8360655737704  179.686046511628 26.5573770491804  179.686046511628 26.5573770491804  C 179.686046511628 26.5573770491804  182.058139534884 26.5573770491804  182.058139534884 26.5573770491804  C 182.058139534884 26.5573770491804  183.244186046512 24.1967213114754  183.244186046512 24.1967213114754  C 183.244186046512 24.1967213114754  184.430232558139 28.9180327868852  184.430232558139 28.9180327868852  C 184.430232558139 28.9180327868852  186.802325581395 28.9180327868852  186.802325581395 28.9180327868852  C 186.802325581395 28.9180327868852  187.988372093023 31.2786885245902  187.988372093023 31.2786885245902  C 187.988372093023 31.2786885245902  184.430232558139 37.1803278688524  184.430232558139 37.1803278688524  C 184.430232558139 37.1803278688524  186.802325581395 43.0819672131148  186.802325581395 43.0819672131148  C 186.802325581395 43.0819672131148  192.732558139535 44.2622950819672  192.732558139535 44.2622950819672  C 192.732558139535 44.2622950819672  197.476744186047 47.8032786885246  197.476744186047 47.8032786885246  C 197.476744186047 47.8032786885246  199.848837209302 52.5245901639344  199.848837209302 52.5245901639344  C 199.848837209302 52.5245901639344  203.406976744186 53.7049180327868  203.406976744186 53.7049180327868  C 203.406976744186 53.7049180327868  202.220930232558 57.2459016393443  202.220930232558 57.2459016393443  C 202.220930232558 57.2459016393443  196.290697674419 59.6065573770492  196.290697674419 59.6065573770492  C 196.290697674419 59.6065573770492  197.476744186047 67.8688524590164  197.476744186047 67.8688524590164  C 197.476744186047 67.8688524590164  193.918604651163 69.0491803278688  193.918604651163 69.0491803278688  C 193.918604651163 69.0491803278688  193.918604651163 76.1311475409836  193.918604651163 76.1311475409836  C 193.918604651163 76.1311475409836  198.662790697674 82.032786885246  198.662790697674 82.032786885246  C 198.662790697674 82.032786885246  195.104651162791 95.0163934426229  195.104651162791 95.0163934426229  C 195.104651162791 95.0163934426229  197.476744186047 93.8360655737704  197.476744186047 93.8360655737704  C 197.476744186047 93.8360655737704  199.848837209302 96.1967213114755  199.848837209302 96.1967213114755  C 199.848837209302 96.1967213114755  196.290697674419 99.7377049180328  196.290697674419 99.7377049180328  C 196.290697674419 99.7377049180328  199.848837209302 113.901639344262  199.848837209302 113.901639344262  C 199.848837209302 113.901639344262  196.290697674419 119.803278688525  196.290697674419 119.803278688525  C 196.290697674419 119.803278688525  191.546511627907 120.983606557377  191.546511627907 120.983606557377  Z " fill-rule="nonzero" fill="#0fd0e6" stroke="none" transform="matrix(1 0 0 1 799 427 )" />
      <path d="M 191.546511627907 120.983606557377  C 191.546511627907 120.983606557377  191.546511627907 122.16393442623  191.546511627907 122.16393442623  C 191.546511627907 122.16393442623  189.174418604651 133.967213114754  189.174418604651 133.967213114754  C 189.174418604651 133.967213114754  182.058139534884 132.786885245902  182.058139534884 132.786885245902  C 182.058139534884 132.786885245902  176.127906976744 136.327868852459  176.127906976744 136.327868852459  C 176.127906976744 136.327868852459  173.755813953488 141.049180327869  173.755813953488 141.049180327869  C 173.755813953488 141.049180327869  170.197674418605 143.409836065574  170.197674418605 143.409836065574  C 170.197674418605 143.409836065574  169.011627906977 141.049180327869  169.011627906977 141.049180327869  C 169.011627906977 141.049180327869  161.895348837209 139.868852459016  161.895348837209 139.868852459016  C 161.895348837209 139.868852459016  161.895348837209 136.327868852459  161.895348837209 136.327868852459  C 161.895348837209 136.327868852459  166.639534883721 133.967213114754  166.639534883721 133.967213114754  C 166.639534883721 133.967213114754  165.453488372093 131.606557377049  165.453488372093 131.606557377049  C 165.453488372093 131.606557377049  160.709302325581 130.426229508197  160.709302325581 130.426229508197  C 160.709302325581 130.426229508197  154.779069767442 132.786885245902  154.779069767442 132.786885245902  C 154.779069767442 132.786885245902  154.779069767442 136.327868852459  154.779069767442 136.327868852459  C 154.779069767442 136.327868852459  148.848837209302 136.327868852459  148.848837209302 136.327868852459  C 148.848837209302 136.327868852459  142.918604651163 132.786885245902  142.918604651163 132.786885245902  C 142.918604651163 132.786885245902  141.732558139535 133.967213114754  141.732558139535 133.967213114754  C 141.732558139535 133.967213114754  138.174418604651 124.524590163934  138.174418604651 124.524590163934  C 138.174418604651 124.524590163934  134.616279069767 126.885245901639  134.616279069767 126.885245901639  C 134.616279069767 126.885245901639  132.244186046512 120.983606557377  132.244186046512 120.983606557377  C 132.244186046512 120.983606557377  129.872093023256 120.983606557377  129.872093023256 120.983606557377  C 129.872093023256 120.983606557377  129.872093023256 113.901639344262  129.872093023256 113.901639344262  C 129.872093023256 113.901639344262  127.5 116.262295081967  127.5 116.262295081967  C 127.5 116.262295081967  122.755813953488 115.081967213115  122.755813953488 115.081967213115  C 122.755813953488 115.081967213115  125.127906976744 104.459016393443  125.127906976744 104.459016393443  C 125.127906976744 104.459016393443  112.081395348837 100.918032786885  112.081395348837 100.918032786885  C 112.081395348837 100.918032786885  110.895348837209 93.8360655737704  110.895348837209 93.8360655737704  C 110.895348837209 93.8360655737704  104.96511627907 95.0163934426229  104.96511627907 95.0163934426229  C 104.96511627907 95.0163934426229  104.96511627907 99.7377049180328  104.96511627907 99.7377049180328  C 104.96511627907 99.7377049180328  99.0348837209303 102.098360655738  99.0348837209303 102.098360655738  C 99.0348837209303 102.098360655738  100.220930232558 109.180327868852  100.220930232558 109.180327868852  C 100.220930232558 109.180327868852  88.3604651162791 110.360655737705  88.3604651162791 110.360655737705  C 88.3604651162791 110.360655737705  88.3604651162791 112.72131147541  88.3604651162791 112.72131147541  C 88.3604651162791 112.72131147541  75.3139534883721 110.360655737705  75.3139534883721 110.360655737705  C 75.3139534883721 110.360655737705  67.0116279069767 117.44262295082  67.0116279069767 117.44262295082  C 67.0116279069767 117.44262295082  63.453488372093 124.524590163934  63.453488372093 124.524590163934  C 63.453488372093 124.524590163934  58.7093023255815 126.885245901639  58.7093023255815 126.885245901639  C 58.7093023255815 126.885245901639  57.5232558139534 125.704918032787  57.5232558139534 125.704918032787  C 57.5232558139534 125.704918032787  53.9651162790697 128.065573770492  53.9651162790697 128.065573770492  C 53.9651162790697 128.065573770492  44.4767441860465 124.524590163934  44.4767441860465 124.524590163934  C 44.4767441860465 124.524590163934  38.546511627907 128.065573770492  38.546511627907 128.065573770492  C 38.546511627907 128.065573770492  36.1744186046511 117.44262295082  36.1744186046511 117.44262295082  C 36.1744186046511 117.44262295082  31.4302325581396 117.44262295082  31.4302325581396 117.44262295082  C 31.4302325581396 117.44262295082  32.6162790697675 115.081967213115  32.6162790697675 115.081967213115  C 32.6162790697675 115.081967213115  24.3139534883721 104.459016393443  24.3139534883721 104.459016393443  C 24.3139534883721 104.459016393443  12.453488372093 103.27868852459  12.453488372093 103.27868852459  C 12.453488372093 103.27868852459  6.52325581395348 98.5573770491803  6.52325581395348 98.5573770491803  C 6.52325581395348 98.5573770491803  4.15116279069775 99.7377049180328  4.15116279069775 99.7377049180328  C 4.15116279069775 99.7377049180328  0.593023255813932 91.4754098360656  0.593023255813932 91.4754098360656  C 0.593023255813932 91.4754098360656  4.15116279069775 86.7540983606558  4.15116279069775 86.7540983606558  C 4.15116279069775 86.7540983606558  1.7790697674418 85.5737704918033  1.7790697674418 85.5737704918033  C 1.7790697674418 85.5737704918033  4.15116279069775 83.2131147540984  4.15116279069775 83.2131147540984  C 4.15116279069775 83.2131147540984  8.89534883720921 84.3934426229508  8.89534883720921 84.3934426229508  C 8.89534883720921 84.3934426229508  13.6395348837209 76.1311475409836  13.6395348837209 76.1311475409836  C 13.6395348837209 76.1311475409836  12.453488372093 72.5901639344262  12.453488372093 72.5901639344262  C 12.453488372093 72.5901639344262  17.1976744186047 63.1475409836066  17.1976744186047 63.1475409836066  C 17.1976744186047 63.1475409836066  19.5697674418604 64.327868852459  19.5697674418604 64.327868852459  C 19.5697674418604 64.327868852459  23.1279069767442 60.7868852459016  23.1279069767442 60.7868852459016  C 23.1279069767442 60.7868852459016  23.1279069767442 58.4262295081967  23.1279069767442 58.4262295081967  C 23.1279069767442 58.4262295081967  29.0581395348837 54.8852459016394  29.0581395348837 54.8852459016394  C 29.0581395348837 54.8852459016394  36.1744186046511 54.8852459016394  36.1744186046511 54.8852459016394  C 36.1744186046511 54.8852459016394  40.9186046511627 48.983606557377  40.9186046511627 48.983606557377  C 40.9186046511627 48.983606557377  43.2906976744185 38.3606557377049  43.2906976744185 38.3606557377049  C 43.2906976744185 38.3606557377049  45.6627906976745 38.3606557377049  45.6627906976745 38.3606557377049  C 45.6627906976745 38.3606557377049  39.7325581395348 30.0983606557378  39.7325581395348 30.0983606557378  C 39.7325581395348 30.0983606557378  43.2906976744185 27.7377049180328  43.2906976744185 27.7377049180328  C 43.2906976744185 27.7377049180328  48.0348837209303 27.7377049180328  48.0348837209303 27.7377049180328  C 48.0348837209303 27.7377049180328  50.4069767441861 24.1967213114754  50.4069767441861 24.1967213114754  C 50.4069767441861 24.1967213114754  52.7790697674418 24.1967213114754  52.7790697674418 24.1967213114754  C 52.7790697674418 24.1967213114754  56.3372093023255 27.7377049180328  56.3372093023255 27.7377049180328  C 56.3372093023255 27.7377049180328  57.5232558139534 32.4590163934427  57.5232558139534 32.4590163934427  C 57.5232558139534 32.4590163934427  59.8953488372093 32.4590163934427  59.8953488372093 32.4590163934427  C 59.8953488372093 32.4590163934427  63.453488372093 31.2786885245902  63.453488372093 31.2786885245902  C 63.453488372093 31.2786885245902  65.8255813953489 28.9180327868852  65.8255813953489 28.9180327868852  C 65.8255813953489 28.9180327868852  64.6395348837209 26.5573770491804  64.6395348837209 26.5573770491804  C 64.6395348837209 26.5573770491804  67.0116279069767 23.016393442623  67.0116279069767 23.016393442623  C 67.0116279069767 23.016393442623  70.5697674418604 21.8360655737704  70.5697674418604 21.8360655737704  C 70.5697674418604 21.8360655737704  74.1279069767442 23.016393442623  74.1279069767442 23.016393442623  C 74.1279069767442 23.016393442623  74.1279069767442 25.3770491803278  74.1279069767442 25.3770491803278  C 74.1279069767442 25.3770491803278  82.4302325581396 25.3770491803278  82.4302325581396 25.3770491803278  C 82.4302325581396 25.3770491803278  85.9883720930233 32.4590163934427  85.9883720930233 32.4590163934427  C 85.9883720930233 32.4590163934427  88.3604651162791 32.4590163934427  88.3604651162791 32.4590163934427  C 88.3604651162791 32.4590163934427  91.9186046511628 31.2786885245902  91.9186046511628 31.2786885245902  C 91.9186046511628 31.2786885245902  90.7325581395349 19.4754098360656  90.7325581395349 19.4754098360656  C 90.7325581395349 19.4754098360656  91.9186046511628 18.2950819672132  91.9186046511628 18.2950819672132  C 91.9186046511628 18.2950819672132  91.9186046511628 23.016393442623  91.9186046511628 23.016393442623  C 91.9186046511628 23.016393442623  94.2906976744185 23.016393442623  94.2906976744185 23.016393442623  C 94.2906976744185 23.016393442623  95.4767441860465 19.4754098360656  95.4767441860465 19.4754098360656  C 95.4767441860465 19.4754098360656  93.1046511627907 14.7540983606557  93.1046511627907 14.7540983606557  C 93.1046511627907 14.7540983606557  96.6627906976745 11.2131147540983  96.6627906976745 11.2131147540983  C 96.6627906976745 11.2131147540983  100.220930232558 11.2131147540983  100.220930232558 11.2131147540983  C 100.220930232558 11.2131147540983  103.779069767442 8.85245901639342  103.779069767442 8.85245901639342  C 103.779069767442 8.85245901639342  104.96511627907 11.2131147540983  104.96511627907 11.2131147540983  C 104.96511627907 11.2131147540983  113.267441860465 7.67213114754099  113.267441860465 7.67213114754099  C 113.267441860465 7.67213114754099  114.453488372093 5.31147540983608  114.453488372093 5.31147540983608  C 114.453488372093 5.31147540983608  119.197674418605 5.31147540983608  119.197674418605 5.31147540983608  C 119.197674418605 5.31147540983608  120.383720930233 7.67213114754099  120.383720930233 7.67213114754099  C 120.383720930233 7.67213114754099  123.941860465116 5.31147540983608  123.941860465116 5.31147540983608  C 123.941860465116 5.31147540983608  125.127906976744 7.67213114754099  125.127906976744 7.67213114754099  C 125.127906976744 7.67213114754099  126.313953488372 5.31147540983608  126.313953488372 5.31147540983608  C 126.313953488372 5.31147540983608  132.244186046512 4.13114754098359  132.244186046512 4.13114754098359  C 132.244186046512 4.13114754098359  135.802325581395 7.67213114754099  135.802325581395 7.67213114754099  C 135.802325581395 7.67213114754099  138.174418604651 0.590163934426187  138.174418604651 0.590163934426187  C 138.174418604651 0.590163934426187  139.360465116279 4.13114754098359  139.360465116279 4.13114754098359  C 139.360465116279 4.13114754098359  145.290697674419 1.77049180327862  145.290697674419 1.77049180327862  C 145.290697674419 1.77049180327862  152.406976744186 5.31147540983608  152.406976744186 5.31147540983608  C 152.406976744186 5.31147540983608  154.779069767442 8.85245901639342  154.779069767442 8.85245901639342  C 154.779069767442 8.85245901639342  158.337209302326 8.85245901639342  158.337209302326 8.85245901639342  C 158.337209302326 8.85245901639342  159.523255813953 11.2131147540983  159.523255813953 11.2131147540983  C 159.523255813953 11.2131147540983  155.96511627907 14.7540983606557  155.96511627907 14.7540983606557  C 155.96511627907 14.7540983606557  161.895348837209 14.7540983606557  161.895348837209 14.7540983606557  C 161.895348837209 14.7540983606557  160.709302325581 25.3770491803278  160.709302325581 25.3770491803278  C 160.709302325581 25.3770491803278  166.639534883721 21.8360655737704  166.639534883721 21.8360655737704  C 166.639534883721 21.8360655737704  179.686046511628 26.5573770491804  179.686046511628 26.5573770491804  C 179.686046511628 26.5573770491804  182.058139534884 26.5573770491804  182.058139534884 26.5573770491804  C 182.058139534884 26.5573770491804  183.244186046512 24.1967213114754  183.244186046512 24.1967213114754  C 183.244186046512 24.1967213114754  184.430232558139 28.9180327868852  184.430232558139 28.9180327868852  C 184.430232558139 28.9180327868852  186.802325581395 28.9180327868852  186.802325581395 28.9180327868852  C 186.802325581395 28.9180327868852  187.988372093023 31.2786885245902  187.988372093023 31.2786885245902  C 187.988372093023 31.2786885245902  184.430232558139 37.1803278688524  184.430232558139 37.1803278688524  C 184.430232558139 37.1803278688524  186.802325581395 43.0819672131148  186.802325581395 43.0819672131148  C 186.802325581395 43.0819672131148  192.732558139535 44.2622950819672  192.732558139535 44.2622950819672  C 192.732558139535 44.2622950819672  197.476744186047 47.8032786885246  197.476744186047 47.8032786885246  C 197.476744186047 47.8032786885246  199.848837209302 52.5245901639344  199.848837209302 52.5245901639344  C 199.848837209302 52.5245901639344  203.406976744186 53.7049180327868  203.406976744186 53.7049180327868  C 203.406976744186 53.7049180327868  202.220930232558 57.2459016393443  202.220930232558 57.2459016393443  C 202.220930232558 57.2459016393443  196.290697674419 59.6065573770492  196.290697674419 59.6065573770492  C 196.290697674419 59.6065573770492  197.476744186047 67.8688524590164  197.476744186047 67.8688524590164  C 197.476744186047 67.8688524590164  193.918604651163 69.0491803278688  193.918604651163 69.0491803278688  C 193.918604651163 69.0491803278688  193.918604651163 76.1311475409836  193.918604651163 76.1311475409836  C 193.918604651163 76.1311475409836  198.662790697674 82.032786885246  198.662790697674 82.032786885246  C 198.662790697674 82.032786885246  195.104651162791 95.0163934426229  195.104651162791 95.0163934426229  C 195.104651162791 95.0163934426229  197.476744186047 93.8360655737704  197.476744186047 93.8360655737704  C 197.476744186047 93.8360655737704  199.848837209302 96.1967213114755  199.848837209302 96.1967213114755  C 199.848837209302 96.1967213114755  196.290697674419 99.7377049180328  196.290697674419 99.7377049180328  C 196.290697674419 99.7377049180328  199.848837209302 113.901639344262  199.848837209302 113.901639344262  C 199.848837209302 113.901639344262  196.290697674419 119.803278688525  196.290697674419 119.803278688525  C 196.290697674419 119.803278688525  191.546511627907 120.983606557377  191.546511627907 120.983606557377  Z " stroke-width="2" stroke-dasharray="1,1" stroke="#999999" fill="none" transform="matrix(1 0 0 1 799 427 )" mask="url(#clip2025)" />
    </g>
  </defs>
  <g transform="matrix(1 0 0 1 -795 -427 )">
    <use xlink:href="#widget2027" filter="url(#filter2026)" />
    <use xlink:href="#widget2027" />
  </g>
</svg>