<?xml version="1.0" encoding="utf-8"?>
<svg version="1.1" xmlns:xlink="http://www.w3.org/1999/xlink" width="101px" height="134px" xmlns="http://www.w3.org/2000/svg">
  <defs>
    <mask fill="white" id="clip2015">
      <path d="M 69.75 31.1302083333334  C 69.75 31.1302083333334  72.1346153846152 29.953125  72.1346153846152 29.953125  C 72.1346153846152 29.953125  72.1346153846152 32.3072916666666  72.1346153846152 32.3072916666666  C 72.1346153846152 32.3072916666666  76.9038461538462 37.015625  76.9038461538462 37.015625  C 76.9038461538462 37.015625  85.25 38.1927083333334  85.25 38.1927083333334  C 85.25 38.1927083333334  87.6346153846155 40.546875  87.6346153846155 40.546875  C 87.6346153846155 40.546875  86.4423076923076 41.7239583333334  86.4423076923076 41.7239583333334  C 86.4423076923076 41.7239583333334  92.4038461538462 45.2552083333334  92.4038461538462 45.2552083333334  C 92.4038461538462 45.2552083333334  92.4038461538462 47.609375  92.4038461538462 47.609375  C 92.4038461538462 47.609375  88.8269230769231 48.7864583333334  88.8269230769231 48.7864583333334  C 88.8269230769231 48.7864583333334  88.8269230769231 51.140625  88.8269230769231 51.140625  C 88.8269230769231 51.140625  91.2115384615386 49.9635416666666  91.2115384615386 49.9635416666666  C 91.2115384615386 49.9635416666666  92.4038461538462 66.4427083333334  92.4038461538462 66.4427083333334  C 92.4038461538462 66.4427083333334  88.8269230769231 64.0885416666666  88.8269230769231 64.0885416666666  C 88.8269230769231 64.0885416666666  87.6346153846155 66.4427083333334  87.6346153846155 66.4427083333334  C 87.6346153846155 66.4427083333334  87.6346153846155 75.859375  87.6346153846155 75.859375  C 87.6346153846155 75.859375  85.25 74.6822916666666  85.25 74.6822916666666  C 85.25 74.6822916666666  86.4423076923076 82.921875  86.4423076923076 82.921875  C 86.4423076923076 82.921875  84.0576923076922 86.453125  84.0576923076922 86.453125  C 84.0576923076922 86.453125  87.6346153846155 87.6302083333334  87.6346153846155 87.6302083333334  C 87.6346153846155 87.6302083333334  85.25 95.8697916666666  85.25 95.8697916666666  C 85.25 95.8697916666666  87.6346153846155 99.4010416666666  87.6346153846155 99.4010416666666  C 87.6346153846155 99.4010416666666  82.8653846153848 104.109375  82.8653846153848 104.109375  C 82.8653846153848 104.109375  80.4807692307693 104.109375  80.4807692307693 104.109375  C 80.4807692307693 104.109375  81.6730769230769 105.286458333333  81.6730769230769 105.286458333333  C 81.6730769230769 105.286458333333  79.2884615384614 107.640625  79.2884615384614 107.640625  C 79.2884615384614 107.640625  78.0961538461538 113.526041666667  78.0961538461538 113.526041666667  C 78.0961538461538 113.526041666667  73.3269230769231 113.526041666667  73.3269230769231 113.526041666667  C 73.3269230769231 113.526041666667  74.5192307692309 112.348958333333  74.5192307692309 112.348958333333  C 74.5192307692309 112.348958333333  69.75 109.994791666667  69.75 109.994791666667  C 69.75 109.994791666667  61.4038461538462 109.994791666667  61.4038461538462 109.994791666667  C 61.4038461538462 109.994791666667  57.8269230769231 111.171875  57.8269230769231 111.171875  C 57.8269230769231 111.171875  60.2115384615386 112.348958333333  60.2115384615386 112.348958333333  C 60.2115384615386 112.348958333333  59.0192307692307 113.526041666667  59.0192307692307 113.526041666667  C 59.0192307692307 113.526041666667  53.0576923076925 112.348958333333  53.0576923076925 112.348958333333  C 53.0576923076925 112.348958333333  49.4807692307693 115.880208333333  49.4807692307693 115.880208333333  C 49.4807692307693 115.880208333333  38.7499999999999 119.411458333333  38.7499999999999 119.411458333333  C 38.7499999999999 119.411458333333  32.7884615384614 114.703125  32.7884615384614 114.703125  C 32.7884615384614 114.703125  29.2115384615384 115.880208333333  29.2115384615384 115.880208333333  C 29.2115384615384 115.880208333333  30.4038461538461 113.526041666667  30.4038461538461 113.526041666667  C 30.4038461538461 113.526041666667  25.6346153846152 111.171875  25.6346153846152 111.171875  C 25.6346153846152 111.171875  31.5961538461538 102.932291666667  31.5961538461538 102.932291666667  C 31.5961538461538 102.932291666667  35.1730769230769 104.109375  35.1730769230769 104.109375  C 35.1730769230769 104.109375  37.5576923076923 101.755208333333  37.5576923076923 101.755208333333  C 37.5576923076923 101.755208333333  35.1730769230769 101.755208333333  35.1730769230769 101.755208333333  C 35.1730769230769 101.755208333333  33.9807692307693 99.4010416666666  33.9807692307693 99.4010416666666  C 33.9807692307693 99.4010416666666  32.7884615384614 100.578125  32.7884615384614 100.578125  C 32.7884615384614 100.578125  31.5961538461538 98.2239583333334  31.5961538461538 98.2239583333334  C 31.5961538461538 98.2239583333334  30.4038461538461 99.4010416666666  30.4038461538461 99.4010416666666  C 30.4038461538461 99.4010416666666  29.2115384615384 97.046875  29.2115384615384 97.046875  C 29.2115384615384 97.046875  29.2115384615384 87.6302083333334  29.2115384615384 87.6302083333334  C 29.2115384615384 87.6302083333334  31.5961538461538 87.6302083333334  31.5961538461538 87.6302083333334  C 31.5961538461538 87.6302083333334  31.5961538461538 82.921875  31.5961538461538 82.921875  C 31.5961538461538 82.921875  26.8269230769231 82.921875  26.8269230769231 82.921875  C 26.8269230769231 82.921875  26.8269230769231 72.328125  26.8269230769231 72.328125  C 26.8269230769231 72.328125  29.2115384615384 72.328125  29.2115384615384 72.328125  C 29.2115384615384 72.328125  30.4038461538461 66.4427083333334  30.4038461538461 66.4427083333334  C 30.4038461538461 66.4427083333334  23.25 58.203125  23.25 58.203125  C 23.25 58.203125  20.8653846153848 58.203125  20.8653846153848 58.203125  C 20.8653846153848 58.203125  18.4807692307692 53.4947916666666  18.4807692307692 53.4947916666666  C 18.4807692307692 53.4947916666666  18.4807692307692 58.203125  18.4807692307692 58.203125  C 18.4807692307692 58.203125  12.5192307692307 58.203125  12.5192307692307 58.203125  C 12.5192307692307 58.203125  14.9038461538462 54.671875  14.9038461538462 54.671875  C 14.9038461538462 54.671875  10.1346153846154 54.671875  10.1346153846154 54.671875  C 10.1346153846154 54.671875  8.94230769230774 46.4322916666666  8.94230769230774 46.4322916666666  C 8.94230769230774 46.4322916666666  0.596153846153925 32.3072916666666  0.596153846153925 32.3072916666666  C 0.596153846153925 32.3072916666666  14.9038461538462 29.953125  14.9038461538462 29.953125  C 14.9038461538462 29.953125  13.7115384615386 26.421875  13.7115384615386 26.421875  C 13.7115384615386 26.421875  14.9038461538462 28.7760416666666  14.9038461538462 28.7760416666666  C 14.9038461538462 28.7760416666666  17.2884615384615 27.5989583333334  17.2884615384615 27.5989583333334  C 17.2884615384615 27.5989583333334  19.6730769230769 21.7135416666666  19.6730769230769 21.7135416666666  C 19.6730769230769 21.7135416666666  26.8269230769231 18.1822916666666  26.8269230769231 18.1822916666666  C 26.8269230769231 18.1822916666666  31.5961538461538 20.5364583333334  31.5961538461538 20.5364583333334  C 31.5961538461538 20.5364583333334  33.9807692307693 19.359375  33.9807692307693 19.359375  C 33.9807692307693 19.359375  36.3653846153846 7.58854166666663  36.3653846153846 7.58854166666663  C 36.3653846153846 7.58854166666663  38.7499999999999 9.94270833333337  38.7499999999999 9.94270833333337  C 38.7499999999999 9.94270833333337  48.2884615384617 11.1197916666666  48.2884615384617 11.1197916666666  C 48.2884615384617 11.1197916666666  51.8653846153846 15.828125  51.8653846153846 15.828125  C 51.8653846153846 15.828125  56.6346153846154 14.6510416666666  56.6346153846154 14.6510416666666  C 56.6346153846154 14.6510416666666  61.4038461538462 19.359375  61.4038461538462 19.359375  C 61.4038461538462 19.359375  62.5961538461539 18.1822916666666  62.5961538461539 18.1822916666666  C 62.5961538461539 18.1822916666666  62.5961538461539 24.0677083333334  62.5961538461539 24.0677083333334  C 62.5961538461539 24.0677083333334  69.75 31.1302083333334  69.75 31.1302083333334  Z M 77.8636363636365 7.53999999999996  C 77.8636363636365 7.53999999999996  77.8636363636365 1.74000000000001  77.8636363636365 1.74000000000001  C 77.8636363636365 1.74000000000001  81.409090909091 22.62  81.409090909091 22.62  C 81.409090909091 22.62  80.2272727272725 23.78  80.2272727272725 23.78  C 80.2272727272725 23.78  77.8636363636365 23.78  77.8636363636365 23.78  C 77.8636363636365 23.78  79.0454545454545 28.42  79.0454545454545 28.42  C 79.0454545454545 28.42  74.318181818182 27.2599999999999  74.318181818182 27.2599999999999  C 74.318181818182 27.2599999999999  69.5909090909091 0.580000000000041  69.5909090909091 0.580000000000041  C 69.5909090909091 0.580000000000041  71.9545454545455 8.70000000000005  71.9545454545455 8.70000000000005  C 71.9545454545455 8.70000000000005  77.8636363636365 7.53999999999996  77.8636363636365 7.53999999999996  Z " fill-rule="evenodd" />
    </mask>
    <filter x="949px" y="541px" width="101px" height="134px" filterUnits="userSpaceOnUse" id="filter2016">
      <feOffset dx="0" dy="10" in="SourceAlpha" result="shadowOffsetInner" />
      <feGaussianBlur stdDeviation="2" in="shadowOffsetInner" result="shadowGaussian" />
      <feComposite in2="shadowGaussian" operator="atop" in="SourceAlpha" result="shadowComposite" />
      <feColorMatrix type="matrix" values="0 0 0 0 0  0 0 0 0 0.6  0 0 0 0 1  0 0 0 1 0  " in="shadowComposite" />
    </filter>
    <g id="widget2017">
      <path d="M 69.75 31.1302083333334  C 69.75 31.1302083333334  72.1346153846152 29.953125  72.1346153846152 29.953125  C 72.1346153846152 29.953125  72.1346153846152 32.3072916666666  72.1346153846152 32.3072916666666  C 72.1346153846152 32.3072916666666  76.9038461538462 37.015625  76.9038461538462 37.015625  C 76.9038461538462 37.015625  85.25 38.1927083333334  85.25 38.1927083333334  C 85.25 38.1927083333334  87.6346153846155 40.546875  87.6346153846155 40.546875  C 87.6346153846155 40.546875  86.4423076923076 41.7239583333334  86.4423076923076 41.7239583333334  C 86.4423076923076 41.7239583333334  92.4038461538462 45.2552083333334  92.4038461538462 45.2552083333334  C 92.4038461538462 45.2552083333334  92.4038461538462 47.609375  92.4038461538462 47.609375  C 92.4038461538462 47.609375  88.8269230769231 48.7864583333334  88.8269230769231 48.7864583333334  C 88.8269230769231 48.7864583333334  88.8269230769231 51.140625  88.8269230769231 51.140625  C 88.8269230769231 51.140625  91.2115384615386 49.9635416666666  91.2115384615386 49.9635416666666  C 91.2115384615386 49.9635416666666  92.4038461538462 66.4427083333334  92.4038461538462 66.4427083333334  C 92.4038461538462 66.4427083333334  88.8269230769231 64.0885416666666  88.8269230769231 64.0885416666666  C 88.8269230769231 64.0885416666666  87.6346153846155 66.4427083333334  87.6346153846155 66.4427083333334  C 87.6346153846155 66.4427083333334  87.6346153846155 75.859375  87.6346153846155 75.859375  C 87.6346153846155 75.859375  85.25 74.6822916666666  85.25 74.6822916666666  C 85.25 74.6822916666666  86.4423076923076 82.921875  86.4423076923076 82.921875  C 86.4423076923076 82.921875  84.0576923076922 86.453125  84.0576923076922 86.453125  C 84.0576923076922 86.453125  87.6346153846155 87.6302083333334  87.6346153846155 87.6302083333334  C 87.6346153846155 87.6302083333334  85.25 95.8697916666666  85.25 95.8697916666666  C 85.25 95.8697916666666  87.6346153846155 99.4010416666666  87.6346153846155 99.4010416666666  C 87.6346153846155 99.4010416666666  82.8653846153848 104.109375  82.8653846153848 104.109375  C 82.8653846153848 104.109375  80.4807692307693 104.109375  80.4807692307693 104.109375  C 80.4807692307693 104.109375  81.6730769230769 105.286458333333  81.6730769230769 105.286458333333  C 81.6730769230769 105.286458333333  79.2884615384614 107.640625  79.2884615384614 107.640625  C 79.2884615384614 107.640625  78.0961538461538 113.526041666667  78.0961538461538 113.526041666667  C 78.0961538461538 113.526041666667  73.3269230769231 113.526041666667  73.3269230769231 113.526041666667  C 73.3269230769231 113.526041666667  74.5192307692309 112.348958333333  74.5192307692309 112.348958333333  C 74.5192307692309 112.348958333333  69.75 109.994791666667  69.75 109.994791666667  C 69.75 109.994791666667  61.4038461538462 109.994791666667  61.4038461538462 109.994791666667  C 61.4038461538462 109.994791666667  57.8269230769231 111.171875  57.8269230769231 111.171875  C 57.8269230769231 111.171875  60.2115384615386 112.348958333333  60.2115384615386 112.348958333333  C 60.2115384615386 112.348958333333  59.0192307692307 113.526041666667  59.0192307692307 113.526041666667  C 59.0192307692307 113.526041666667  53.0576923076925 112.348958333333  53.0576923076925 112.348958333333  C 53.0576923076925 112.348958333333  49.4807692307693 115.880208333333  49.4807692307693 115.880208333333  C 49.4807692307693 115.880208333333  38.7499999999999 119.411458333333  38.7499999999999 119.411458333333  C 38.7499999999999 119.411458333333  32.7884615384614 114.703125  32.7884615384614 114.703125  C 32.7884615384614 114.703125  29.2115384615384 115.880208333333  29.2115384615384 115.880208333333  C 29.2115384615384 115.880208333333  30.4038461538461 113.526041666667  30.4038461538461 113.526041666667  C 30.4038461538461 113.526041666667  25.6346153846152 111.171875  25.6346153846152 111.171875  C 25.6346153846152 111.171875  31.5961538461538 102.932291666667  31.5961538461538 102.932291666667  C 31.5961538461538 102.932291666667  35.1730769230769 104.109375  35.1730769230769 104.109375  C 35.1730769230769 104.109375  37.5576923076923 101.755208333333  37.5576923076923 101.755208333333  C 37.5576923076923 101.755208333333  35.1730769230769 101.755208333333  35.1730769230769 101.755208333333  C 35.1730769230769 101.755208333333  33.9807692307693 99.4010416666666  33.9807692307693 99.4010416666666  C 33.9807692307693 99.4010416666666  32.7884615384614 100.578125  32.7884615384614 100.578125  C 32.7884615384614 100.578125  31.5961538461538 98.2239583333334  31.5961538461538 98.2239583333334  C 31.5961538461538 98.2239583333334  30.4038461538461 99.4010416666666  30.4038461538461 99.4010416666666  C 30.4038461538461 99.4010416666666  29.2115384615384 97.046875  29.2115384615384 97.046875  C 29.2115384615384 97.046875  29.2115384615384 87.6302083333334  29.2115384615384 87.6302083333334  C 29.2115384615384 87.6302083333334  31.5961538461538 87.6302083333334  31.5961538461538 87.6302083333334  C 31.5961538461538 87.6302083333334  31.5961538461538 82.921875  31.5961538461538 82.921875  C 31.5961538461538 82.921875  26.8269230769231 82.921875  26.8269230769231 82.921875  C 26.8269230769231 82.921875  26.8269230769231 72.328125  26.8269230769231 72.328125  C 26.8269230769231 72.328125  29.2115384615384 72.328125  29.2115384615384 72.328125  C 29.2115384615384 72.328125  30.4038461538461 66.4427083333334  30.4038461538461 66.4427083333334  C 30.4038461538461 66.4427083333334  23.25 58.203125  23.25 58.203125  C 23.25 58.203125  20.8653846153848 58.203125  20.8653846153848 58.203125  C 20.8653846153848 58.203125  18.4807692307692 53.4947916666666  18.4807692307692 53.4947916666666  C 18.4807692307692 53.4947916666666  18.4807692307692 58.203125  18.4807692307692 58.203125  C 18.4807692307692 58.203125  12.5192307692307 58.203125  12.5192307692307 58.203125  C 12.5192307692307 58.203125  14.9038461538462 54.671875  14.9038461538462 54.671875  C 14.9038461538462 54.671875  10.1346153846154 54.671875  10.1346153846154 54.671875  C 10.1346153846154 54.671875  8.94230769230774 46.4322916666666  8.94230769230774 46.4322916666666  C 8.94230769230774 46.4322916666666  0.596153846153925 32.3072916666666  0.596153846153925 32.3072916666666  C 0.596153846153925 32.3072916666666  14.9038461538462 29.953125  14.9038461538462 29.953125  C 14.9038461538462 29.953125  13.7115384615386 26.421875  13.7115384615386 26.421875  C 13.7115384615386 26.421875  14.9038461538462 28.7760416666666  14.9038461538462 28.7760416666666  C 14.9038461538462 28.7760416666666  17.2884615384615 27.5989583333334  17.2884615384615 27.5989583333334  C 17.2884615384615 27.5989583333334  19.6730769230769 21.7135416666666  19.6730769230769 21.7135416666666  C 19.6730769230769 21.7135416666666  26.8269230769231 18.1822916666666  26.8269230769231 18.1822916666666  C 26.8269230769231 18.1822916666666  31.5961538461538 20.5364583333334  31.5961538461538 20.5364583333334  C 31.5961538461538 20.5364583333334  33.9807692307693 19.359375  33.9807692307693 19.359375  C 33.9807692307693 19.359375  36.3653846153846 7.58854166666663  36.3653846153846 7.58854166666663  C 36.3653846153846 7.58854166666663  38.7499999999999 9.94270833333337  38.7499999999999 9.94270833333337  C 38.7499999999999 9.94270833333337  48.2884615384617 11.1197916666666  48.2884615384617 11.1197916666666  C 48.2884615384617 11.1197916666666  51.8653846153846 15.828125  51.8653846153846 15.828125  C 51.8653846153846 15.828125  56.6346153846154 14.6510416666666  56.6346153846154 14.6510416666666  C 56.6346153846154 14.6510416666666  61.4038461538462 19.359375  61.4038461538462 19.359375  C 61.4038461538462 19.359375  62.5961538461539 18.1822916666666  62.5961538461539 18.1822916666666  C 62.5961538461539 18.1822916666666  62.5961538461539 24.0677083333334  62.5961538461539 24.0677083333334  C 62.5961538461539 24.0677083333334  69.75 31.1302083333334  69.75 31.1302083333334  Z M 77.8636363636365 7.53999999999996  C 77.8636363636365 7.53999999999996  77.8636363636365 1.74000000000001  77.8636363636365 1.74000000000001  C 77.8636363636365 1.74000000000001  81.409090909091 22.62  81.409090909091 22.62  C 81.409090909091 22.62  80.2272727272725 23.78  80.2272727272725 23.78  C 80.2272727272725 23.78  77.8636363636365 23.78  77.8636363636365 23.78  C 77.8636363636365 23.78  79.0454545454545 28.42  79.0454545454545 28.42  C 79.0454545454545 28.42  74.318181818182 27.2599999999999  74.318181818182 27.2599999999999  C 74.318181818182 27.2599999999999  69.5909090909091 0.580000000000041  69.5909090909091 0.580000000000041  C 69.5909090909091 0.580000000000041  71.9545454545455 8.70000000000005  71.9545454545455 8.70000000000005  C 71.9545454545455 8.70000000000005  77.8636363636365 7.53999999999996  77.8636363636365 7.53999999999996  Z " fill-rule="nonzero" fill="#0fd0e6" stroke="none" transform="matrix(1 0 0 1 953 541 )" />
      <path d="M 69.75 31.1302083333334  C 69.75 31.1302083333334  72.1346153846152 29.953125  72.1346153846152 29.953125  C 72.1346153846152 29.953125  72.1346153846152 32.3072916666666  72.1346153846152 32.3072916666666  C 72.1346153846152 32.3072916666666  76.9038461538462 37.015625  76.9038461538462 37.015625  C 76.9038461538462 37.015625  85.25 38.1927083333334  85.25 38.1927083333334  C 85.25 38.1927083333334  87.6346153846155 40.546875  87.6346153846155 40.546875  C 87.6346153846155 40.546875  86.4423076923076 41.7239583333334  86.4423076923076 41.7239583333334  C 86.4423076923076 41.7239583333334  92.4038461538462 45.2552083333334  92.4038461538462 45.2552083333334  C 92.4038461538462 45.2552083333334  92.4038461538462 47.609375  92.4038461538462 47.609375  C 92.4038461538462 47.609375  88.8269230769231 48.7864583333334  88.8269230769231 48.7864583333334  C 88.8269230769231 48.7864583333334  88.8269230769231 51.140625  88.8269230769231 51.140625  C 88.8269230769231 51.140625  91.2115384615386 49.9635416666666  91.2115384615386 49.9635416666666  C 91.2115384615386 49.9635416666666  92.4038461538462 66.4427083333334  92.4038461538462 66.4427083333334  C 92.4038461538462 66.4427083333334  88.8269230769231 64.0885416666666  88.8269230769231 64.0885416666666  C 88.8269230769231 64.0885416666666  87.6346153846155 66.4427083333334  87.6346153846155 66.4427083333334  C 87.6346153846155 66.4427083333334  87.6346153846155 75.859375  87.6346153846155 75.859375  C 87.6346153846155 75.859375  85.25 74.6822916666666  85.25 74.6822916666666  C 85.25 74.6822916666666  86.4423076923076 82.921875  86.4423076923076 82.921875  C 86.4423076923076 82.921875  84.0576923076922 86.453125  84.0576923076922 86.453125  C 84.0576923076922 86.453125  87.6346153846155 87.6302083333334  87.6346153846155 87.6302083333334  C 87.6346153846155 87.6302083333334  85.25 95.8697916666666  85.25 95.8697916666666  C 85.25 95.8697916666666  87.6346153846155 99.4010416666666  87.6346153846155 99.4010416666666  C 87.6346153846155 99.4010416666666  82.8653846153848 104.109375  82.8653846153848 104.109375  C 82.8653846153848 104.109375  80.4807692307693 104.109375  80.4807692307693 104.109375  C 80.4807692307693 104.109375  81.6730769230769 105.286458333333  81.6730769230769 105.286458333333  C 81.6730769230769 105.286458333333  79.2884615384614 107.640625  79.2884615384614 107.640625  C 79.2884615384614 107.640625  78.0961538461538 113.526041666667  78.0961538461538 113.526041666667  C 78.0961538461538 113.526041666667  73.3269230769231 113.526041666667  73.3269230769231 113.526041666667  C 73.3269230769231 113.526041666667  74.5192307692309 112.348958333333  74.5192307692309 112.348958333333  C 74.5192307692309 112.348958333333  69.75 109.994791666667  69.75 109.994791666667  C 69.75 109.994791666667  61.4038461538462 109.994791666667  61.4038461538462 109.994791666667  C 61.4038461538462 109.994791666667  57.8269230769231 111.171875  57.8269230769231 111.171875  C 57.8269230769231 111.171875  60.2115384615386 112.348958333333  60.2115384615386 112.348958333333  C 60.2115384615386 112.348958333333  59.0192307692307 113.526041666667  59.0192307692307 113.526041666667  C 59.0192307692307 113.526041666667  53.0576923076925 112.348958333333  53.0576923076925 112.348958333333  C 53.0576923076925 112.348958333333  49.4807692307693 115.880208333333  49.4807692307693 115.880208333333  C 49.4807692307693 115.880208333333  38.7499999999999 119.411458333333  38.7499999999999 119.411458333333  C 38.7499999999999 119.411458333333  32.7884615384614 114.703125  32.7884615384614 114.703125  C 32.7884615384614 114.703125  29.2115384615384 115.880208333333  29.2115384615384 115.880208333333  C 29.2115384615384 115.880208333333  30.4038461538461 113.526041666667  30.4038461538461 113.526041666667  C 30.4038461538461 113.526041666667  25.6346153846152 111.171875  25.6346153846152 111.171875  C 25.6346153846152 111.171875  31.5961538461538 102.932291666667  31.5961538461538 102.932291666667  C 31.5961538461538 102.932291666667  35.1730769230769 104.109375  35.1730769230769 104.109375  C 35.1730769230769 104.109375  37.5576923076923 101.755208333333  37.5576923076923 101.755208333333  C 37.5576923076923 101.755208333333  35.1730769230769 101.755208333333  35.1730769230769 101.755208333333  C 35.1730769230769 101.755208333333  33.9807692307693 99.4010416666666  33.9807692307693 99.4010416666666  C 33.9807692307693 99.4010416666666  32.7884615384614 100.578125  32.7884615384614 100.578125  C 32.7884615384614 100.578125  31.5961538461538 98.2239583333334  31.5961538461538 98.2239583333334  C 31.5961538461538 98.2239583333334  30.4038461538461 99.4010416666666  30.4038461538461 99.4010416666666  C 30.4038461538461 99.4010416666666  29.2115384615384 97.046875  29.2115384615384 97.046875  C 29.2115384615384 97.046875  29.2115384615384 87.6302083333334  29.2115384615384 87.6302083333334  C 29.2115384615384 87.6302083333334  31.5961538461538 87.6302083333334  31.5961538461538 87.6302083333334  C 31.5961538461538 87.6302083333334  31.5961538461538 82.921875  31.5961538461538 82.921875  C 31.5961538461538 82.921875  26.8269230769231 82.921875  26.8269230769231 82.921875  C 26.8269230769231 82.921875  26.8269230769231 72.328125  26.8269230769231 72.328125  C 26.8269230769231 72.328125  29.2115384615384 72.328125  29.2115384615384 72.328125  C 29.2115384615384 72.328125  30.4038461538461 66.4427083333334  30.4038461538461 66.4427083333334  C 30.4038461538461 66.4427083333334  23.25 58.203125  23.25 58.203125  C 23.25 58.203125  20.8653846153848 58.203125  20.8653846153848 58.203125  C 20.8653846153848 58.203125  18.4807692307692 53.4947916666666  18.4807692307692 53.4947916666666  C 18.4807692307692 53.4947916666666  18.4807692307692 58.203125  18.4807692307692 58.203125  C 18.4807692307692 58.203125  12.5192307692307 58.203125  12.5192307692307 58.203125  C 12.5192307692307 58.203125  14.9038461538462 54.671875  14.9038461538462 54.671875  C 14.9038461538462 54.671875  10.1346153846154 54.671875  10.1346153846154 54.671875  C 10.1346153846154 54.671875  8.94230769230774 46.4322916666666  8.94230769230774 46.4322916666666  C 8.94230769230774 46.4322916666666  0.596153846153925 32.3072916666666  0.596153846153925 32.3072916666666  C 0.596153846153925 32.3072916666666  14.9038461538462 29.953125  14.9038461538462 29.953125  C 14.9038461538462 29.953125  13.7115384615386 26.421875  13.7115384615386 26.421875  C 13.7115384615386 26.421875  14.9038461538462 28.7760416666666  14.9038461538462 28.7760416666666  C 14.9038461538462 28.7760416666666  17.2884615384615 27.5989583333334  17.2884615384615 27.5989583333334  C 17.2884615384615 27.5989583333334  19.6730769230769 21.7135416666666  19.6730769230769 21.7135416666666  C 19.6730769230769 21.7135416666666  26.8269230769231 18.1822916666666  26.8269230769231 18.1822916666666  C 26.8269230769231 18.1822916666666  31.5961538461538 20.5364583333334  31.5961538461538 20.5364583333334  C 31.5961538461538 20.5364583333334  33.9807692307693 19.359375  33.9807692307693 19.359375  C 33.9807692307693 19.359375  36.3653846153846 7.58854166666663  36.3653846153846 7.58854166666663  C 36.3653846153846 7.58854166666663  38.7499999999999 9.94270833333337  38.7499999999999 9.94270833333337  C 38.7499999999999 9.94270833333337  48.2884615384617 11.1197916666666  48.2884615384617 11.1197916666666  C 48.2884615384617 11.1197916666666  51.8653846153846 15.828125  51.8653846153846 15.828125  C 51.8653846153846 15.828125  56.6346153846154 14.6510416666666  56.6346153846154 14.6510416666666  C 56.6346153846154 14.6510416666666  61.4038461538462 19.359375  61.4038461538462 19.359375  C 61.4038461538462 19.359375  62.5961538461539 18.1822916666666  62.5961538461539 18.1822916666666  C 62.5961538461539 18.1822916666666  62.5961538461539 24.0677083333334  62.5961538461539 24.0677083333334  C 62.5961538461539 24.0677083333334  69.75 31.1302083333334  69.75 31.1302083333334  Z " stroke-width="2" stroke-dasharray="1,1" stroke="#999999" fill="none" transform="matrix(1 0 0 1 953 541 )" mask="url(#clip2015)" />
      <path d="M 77.8636363636365 7.53999999999996  C 77.8636363636365 7.53999999999996  77.8636363636365 1.74000000000001  77.8636363636365 1.74000000000001  C 77.8636363636365 1.74000000000001  81.409090909091 22.62  81.409090909091 22.62  C 81.409090909091 22.62  80.2272727272725 23.78  80.2272727272725 23.78  C 80.2272727272725 23.78  77.8636363636365 23.78  77.8636363636365 23.78  C 77.8636363636365 23.78  79.0454545454545 28.42  79.0454545454545 28.42  C 79.0454545454545 28.42  74.318181818182 27.2599999999999  74.318181818182 27.2599999999999  C 74.318181818182 27.2599999999999  69.5909090909091 0.580000000000041  69.5909090909091 0.580000000000041  C 69.5909090909091 0.580000000000041  71.9545454545455 8.70000000000005  71.9545454545455 8.70000000000005  C 71.9545454545455 8.70000000000005  77.8636363636365 7.53999999999996  77.8636363636365 7.53999999999996  Z " stroke-width="2" stroke-dasharray="1,1" stroke="#999999" fill="none" transform="matrix(1 0 0 1 953 541 )" mask="url(#clip2015)" />
    </g>
  </defs>
  <g transform="matrix(1 0 0 1 -949 -541 )">
    <use xlink:href="#widget2017" filter="url(#filter2016)" />
    <use xlink:href="#widget2017" />
  </g>
</svg>