<?xml version="1.0" encoding="utf-8"?>
<svg version="1.1" xmlns:xlink="http://www.w3.org/1999/xlink" width="116px" height="126px" xmlns="http://www.w3.org/2000/svg">
  <defs>
    <mask fill="white" id="clip2011">
      <path d="M 68.2417582417582 107.829787234043  C 68.2417582417582 107.829787234043  65.868131868132 107.829787234043  65.868131868132 107.829787234043  C 65.868131868132 107.829787234043  63.4945054945055 107.829787234043  63.4945054945055 107.829787234043  C 63.4945054945055 107.829787234043  63.4945054945055 98.2978723404256  63.4945054945055 98.2978723404256  C 63.4945054945055 98.2978723404256  48.065934065934 99.4893617021277  48.065934065934 99.4893617021277  C 48.065934065934 99.4893617021277  49.2527472527472 95.9148936170213  49.2527472527472 95.9148936170213  C 49.2527472527472 95.9148936170213  51.6263736263736 95.9148936170213  51.6263736263736 95.9148936170213  C 51.6263736263736 95.9148936170213  51.6263736263736 88.7659574468084  51.6263736263736 88.7659574468084  C 51.6263736263736 88.7659574468084  43.3186813186813 80.4255319148936  43.3186813186813 80.4255319148936  C 43.3186813186813 80.4255319148936  42.131868131868 73.2765957446809  42.131868131868 73.2765957446809  C 42.131868131868 73.2765957446809  39.7582417582418 70.8936170212766  39.7582417582418 70.8936170212766  C 39.7582417582418 70.8936170212766  37.3846153846155 75.6595744680851  37.3846153846155 75.6595744680851  C 37.3846153846155 75.6595744680851  36.1978021978023 72.0851063829787  36.1978021978023 72.0851063829787  C 36.1978021978023 72.0851063829787  33.8241758241758 73.2765957446809  33.8241758241758 73.2765957446809  C 33.8241758241758 73.2765957446809  31.4505494505494 69.7021276595744  31.4505494505494 69.7021276595744  C 31.4505494505494 69.7021276595744  38.5714285714286 63.7446808510639  38.5714285714286 63.7446808510639  C 38.5714285714286 63.7446808510639  33.8241758241758 57.7872340425532  33.8241758241758 57.7872340425532  C 33.8241758241758 57.7872340425532  20.7692307692308 51.8297872340424  20.7692307692308 51.8297872340424  C 20.7692307692308 51.8297872340424  8.90109890109886 51.8297872340424  8.90109890109886 51.8297872340424  C 8.90109890109886 51.8297872340424  5.34065934065927 36.3404255319149  5.34065934065927 36.3404255319149  C 5.34065934065927 36.3404255319149  0.593406593406598 31.5744680851064  0.593406593406598 31.5744680851064  C 0.593406593406598 31.5744680851064  0.593406593406598 29.1914893617022  0.593406593406598 29.1914893617022  C 0.593406593406598 29.1914893617022  11.2747252747253 17.2765957446809  11.2747252747253 17.2765957446809  C 11.2747252747253 17.2765957446809  25.5164835164835 19.6595744680851  25.5164835164835 19.6595744680851  C 25.5164835164835 19.6595744680851  25.5164835164835 17.2765957446809  25.5164835164835 17.2765957446809  C 25.5164835164835 17.2765957446809  37.3846153846155 16.0851063829787  37.3846153846155 16.0851063829787  C 37.3846153846155 16.0851063829787  36.1978021978023 8.936170212766  36.1978021978023 8.936170212766  C 36.1978021978023 8.936170212766  40.9450549450548 6.55319148936167  40.9450549450548 6.55319148936167  C 40.9450549450548 6.55319148936167  40.9450549450548 1.78723404255322  40.9450549450548 1.78723404255322  C 40.9450549450548 1.78723404255322  44.5054945054945 2.97872340425539  44.5054945054945 2.97872340425539  C 44.5054945054945 2.97872340425539  46.8791208791208 0.595744680851055  46.8791208791208 0.595744680851055  C 46.8791208791208 0.595744680851055  48.065934065934 7.74468085106383  48.065934065934 7.74468085106383  C 48.065934065934 7.74468085106383  62.3076923076923 11.3191489361702  62.3076923076923 11.3191489361702  C 62.3076923076923 11.3191489361702  59.934065934066 22.0425531914893  59.934065934066 22.0425531914893  C 59.934065934066 22.0425531914893  63.4945054945055 23.2340425531914  63.4945054945055 23.2340425531914  C 63.4945054945055 23.2340425531914  67.0549450549452 20.8510638297873  67.0549450549452 20.8510638297873  C 67.0549450549452 20.8510638297873  67.0549450549452 28  67.0549450549452 28  C 67.0549450549452 28  69.4285714285714 26.8085106382978  69.4285714285714 26.8085106382978  C 69.4285714285714 26.8085106382978  71.8021978021977 33.9574468085107  71.8021978021977 33.9574468085107  C 71.8021978021977 33.9574468085107  75.3626373626374 31.5744680851064  75.3626373626374 31.5744680851064  C 75.3626373626374 31.5744680851064  78.9230769230769 41.1063829787234  78.9230769230769 41.1063829787234  C 78.9230769230769 41.1063829787234  80.1098901098901 39.9148936170213  80.1098901098901 39.9148936170213  C 80.1098901098901 39.9148936170213  86.0439560439561 43.4893617021277  86.0439560439561 43.4893617021277  C 86.0439560439561 43.4893617021277  90.7912087912088 43.4893617021277  90.7912087912088 43.4893617021277  C 90.7912087912088 43.4893617021277  91.978021978022 39.9148936170213  91.978021978022 39.9148936170213  C 91.978021978022 39.9148936170213  100.285714285714 37.5319148936169  100.285714285714 37.5319148936169  C 100.285714285714 37.5319148936169  103.846153846154 41.1063829787234  103.846153846154 41.1063829787234  C 103.846153846154 41.1063829787234  99.0989010989011 43.4893617021277  99.0989010989011 43.4893617021277  C 99.0989010989011 43.4893617021277  99.0989010989011 47.0638297872341  99.0989010989011 47.0638297872341  C 99.0989010989011 47.0638297872341  106.21978021978 49.4468085106383  106.21978021978 49.4468085106383  C 106.21978021978 49.4468085106383  107.406593406593 51.8297872340424  107.406593406593 51.8297872340424  C 107.406593406593 51.8297872340424  93.1648351648352 54.2127659574468  93.1648351648352 54.2127659574468  C 93.1648351648352 54.2127659574468  101.472527472528 69.7021276595744  101.472527472528 69.7021276595744  C 101.472527472528 69.7021276595744  102.659340659341 78.0425531914893  102.659340659341 78.0425531914893  C 102.659340659341 78.0425531914893  99.0989010989011 79.2340425531916  99.0989010989011 79.2340425531916  C 99.0989010989011 79.2340425531916  100.285714285714 87.5744680851064  100.285714285714 87.5744680851064  C 100.285714285714 87.5744680851064  95.5384615384614 88.7659574468084  95.5384615384614 88.7659574468084  C 95.5384615384614 88.7659574468084  95.5384615384614 86.3829787234043  95.5384615384614 86.3829787234043  C 95.5384615384614 86.3829787234043  94.3516483516484 88.7659574468084  94.3516483516484 88.7659574468084  C 94.3516483516484 88.7659574468084  87.2307692307692 89.9574468085107  87.2307692307692 89.9574468085107  C 87.2307692307692 89.9574468085107  88.4175824175824 107.829787234043  88.4175824175824 107.829787234043  C 88.4175824175824 107.829787234043  82.4835164835166 107.829787234043  82.4835164835166 107.829787234043  C 82.4835164835166 107.829787234043  77.7362637362638 111.404255319149  77.7362637362638 111.404255319149  C 77.7362637362638 111.404255319149  76.5494505494506 107.829787234043  76.5494505494506 107.829787234043  C 76.5494505494506 107.829787234043  68.2417582417582 107.829787234043  68.2417582417582 107.829787234043  Z " fill-rule="evenodd" />
    </mask>
    <filter x="858px" y="520px" width="116px" height="126px" filterUnits="userSpaceOnUse" id="filter2012">
      <feOffset dx="0" dy="10" in="SourceAlpha" result="shadowOffsetInner" />
      <feGaussianBlur stdDeviation="2" in="shadowOffsetInner" result="shadowGaussian" />
      <feComposite in2="shadowGaussian" operator="atop" in="SourceAlpha" result="shadowComposite" />
      <feColorMatrix type="matrix" values="0 0 0 0 0  0 0 0 0 0.6  0 0 0 0 1  0 0 0 1 0  " in="shadowComposite" />
    </filter>
    <g id="widget2013">
      <path d="M 68.2417582417582 107.829787234043  C 68.2417582417582 107.829787234043  65.868131868132 107.829787234043  65.868131868132 107.829787234043  C 65.868131868132 107.829787234043  63.4945054945055 107.829787234043  63.4945054945055 107.829787234043  C 63.4945054945055 107.829787234043  63.4945054945055 98.2978723404256  63.4945054945055 98.2978723404256  C 63.4945054945055 98.2978723404256  48.065934065934 99.4893617021277  48.065934065934 99.4893617021277  C 48.065934065934 99.4893617021277  49.2527472527472 95.9148936170213  49.2527472527472 95.9148936170213  C 49.2527472527472 95.9148936170213  51.6263736263736 95.9148936170213  51.6263736263736 95.9148936170213  C 51.6263736263736 95.9148936170213  51.6263736263736 88.7659574468084  51.6263736263736 88.7659574468084  C 51.6263736263736 88.7659574468084  43.3186813186813 80.4255319148936  43.3186813186813 80.4255319148936  C 43.3186813186813 80.4255319148936  42.131868131868 73.2765957446809  42.131868131868 73.2765957446809  C 42.131868131868 73.2765957446809  39.7582417582418 70.8936170212766  39.7582417582418 70.8936170212766  C 39.7582417582418 70.8936170212766  37.3846153846155 75.6595744680851  37.3846153846155 75.6595744680851  C 37.3846153846155 75.6595744680851  36.1978021978023 72.0851063829787  36.1978021978023 72.0851063829787  C 36.1978021978023 72.0851063829787  33.8241758241758 73.2765957446809  33.8241758241758 73.2765957446809  C 33.8241758241758 73.2765957446809  31.4505494505494 69.7021276595744  31.4505494505494 69.7021276595744  C 31.4505494505494 69.7021276595744  38.5714285714286 63.7446808510639  38.5714285714286 63.7446808510639  C 38.5714285714286 63.7446808510639  33.8241758241758 57.7872340425532  33.8241758241758 57.7872340425532  C 33.8241758241758 57.7872340425532  20.7692307692308 51.8297872340424  20.7692307692308 51.8297872340424  C 20.7692307692308 51.8297872340424  8.90109890109886 51.8297872340424  8.90109890109886 51.8297872340424  C 8.90109890109886 51.8297872340424  5.34065934065927 36.3404255319149  5.34065934065927 36.3404255319149  C 5.34065934065927 36.3404255319149  0.593406593406598 31.5744680851064  0.593406593406598 31.5744680851064  C 0.593406593406598 31.5744680851064  0.593406593406598 29.1914893617022  0.593406593406598 29.1914893617022  C 0.593406593406598 29.1914893617022  11.2747252747253 17.2765957446809  11.2747252747253 17.2765957446809  C 11.2747252747253 17.2765957446809  25.5164835164835 19.6595744680851  25.5164835164835 19.6595744680851  C 25.5164835164835 19.6595744680851  25.5164835164835 17.2765957446809  25.5164835164835 17.2765957446809  C 25.5164835164835 17.2765957446809  37.3846153846155 16.0851063829787  37.3846153846155 16.0851063829787  C 37.3846153846155 16.0851063829787  36.1978021978023 8.936170212766  36.1978021978023 8.936170212766  C 36.1978021978023 8.936170212766  40.9450549450548 6.55319148936167  40.9450549450548 6.55319148936167  C 40.9450549450548 6.55319148936167  40.9450549450548 1.78723404255322  40.9450549450548 1.78723404255322  C 40.9450549450548 1.78723404255322  44.5054945054945 2.97872340425539  44.5054945054945 2.97872340425539  C 44.5054945054945 2.97872340425539  46.8791208791208 0.595744680851055  46.8791208791208 0.595744680851055  C 46.8791208791208 0.595744680851055  48.065934065934 7.74468085106383  48.065934065934 7.74468085106383  C 48.065934065934 7.74468085106383  62.3076923076923 11.3191489361702  62.3076923076923 11.3191489361702  C 62.3076923076923 11.3191489361702  59.934065934066 22.0425531914893  59.934065934066 22.0425531914893  C 59.934065934066 22.0425531914893  63.4945054945055 23.2340425531914  63.4945054945055 23.2340425531914  C 63.4945054945055 23.2340425531914  67.0549450549452 20.8510638297873  67.0549450549452 20.8510638297873  C 67.0549450549452 20.8510638297873  67.0549450549452 28  67.0549450549452 28  C 67.0549450549452 28  69.4285714285714 26.8085106382978  69.4285714285714 26.8085106382978  C 69.4285714285714 26.8085106382978  71.8021978021977 33.9574468085107  71.8021978021977 33.9574468085107  C 71.8021978021977 33.9574468085107  75.3626373626374 31.5744680851064  75.3626373626374 31.5744680851064  C 75.3626373626374 31.5744680851064  78.9230769230769 41.1063829787234  78.9230769230769 41.1063829787234  C 78.9230769230769 41.1063829787234  80.1098901098901 39.9148936170213  80.1098901098901 39.9148936170213  C 80.1098901098901 39.9148936170213  86.0439560439561 43.4893617021277  86.0439560439561 43.4893617021277  C 86.0439560439561 43.4893617021277  90.7912087912088 43.4893617021277  90.7912087912088 43.4893617021277  C 90.7912087912088 43.4893617021277  91.978021978022 39.9148936170213  91.978021978022 39.9148936170213  C 91.978021978022 39.9148936170213  100.285714285714 37.5319148936169  100.285714285714 37.5319148936169  C 100.285714285714 37.5319148936169  103.846153846154 41.1063829787234  103.846153846154 41.1063829787234  C 103.846153846154 41.1063829787234  99.0989010989011 43.4893617021277  99.0989010989011 43.4893617021277  C 99.0989010989011 43.4893617021277  99.0989010989011 47.0638297872341  99.0989010989011 47.0638297872341  C 99.0989010989011 47.0638297872341  106.21978021978 49.4468085106383  106.21978021978 49.4468085106383  C 106.21978021978 49.4468085106383  107.406593406593 51.8297872340424  107.406593406593 51.8297872340424  C 107.406593406593 51.8297872340424  93.1648351648352 54.2127659574468  93.1648351648352 54.2127659574468  C 93.1648351648352 54.2127659574468  101.472527472528 69.7021276595744  101.472527472528 69.7021276595744  C 101.472527472528 69.7021276595744  102.659340659341 78.0425531914893  102.659340659341 78.0425531914893  C 102.659340659341 78.0425531914893  99.0989010989011 79.2340425531916  99.0989010989011 79.2340425531916  C 99.0989010989011 79.2340425531916  100.285714285714 87.5744680851064  100.285714285714 87.5744680851064  C 100.285714285714 87.5744680851064  95.5384615384614 88.7659574468084  95.5384615384614 88.7659574468084  C 95.5384615384614 88.7659574468084  95.5384615384614 86.3829787234043  95.5384615384614 86.3829787234043  C 95.5384615384614 86.3829787234043  94.3516483516484 88.7659574468084  94.3516483516484 88.7659574468084  C 94.3516483516484 88.7659574468084  87.2307692307692 89.9574468085107  87.2307692307692 89.9574468085107  C 87.2307692307692 89.9574468085107  88.4175824175824 107.829787234043  88.4175824175824 107.829787234043  C 88.4175824175824 107.829787234043  82.4835164835166 107.829787234043  82.4835164835166 107.829787234043  C 82.4835164835166 107.829787234043  77.7362637362638 111.404255319149  77.7362637362638 111.404255319149  C 77.7362637362638 111.404255319149  76.5494505494506 107.829787234043  76.5494505494506 107.829787234043  C 76.5494505494506 107.829787234043  68.2417582417582 107.829787234043  68.2417582417582 107.829787234043  Z " fill-rule="nonzero" fill="#0fd0e6" stroke="none" transform="matrix(1 0 0 1 862 520 )" />
      <path d="M 68.2417582417582 107.829787234043  C 68.2417582417582 107.829787234043  65.868131868132 107.829787234043  65.868131868132 107.829787234043  C 65.868131868132 107.829787234043  63.4945054945055 107.829787234043  63.4945054945055 107.829787234043  C 63.4945054945055 107.829787234043  63.4945054945055 98.2978723404256  63.4945054945055 98.2978723404256  C 63.4945054945055 98.2978723404256  48.065934065934 99.4893617021277  48.065934065934 99.4893617021277  C 48.065934065934 99.4893617021277  49.2527472527472 95.9148936170213  49.2527472527472 95.9148936170213  C 49.2527472527472 95.9148936170213  51.6263736263736 95.9148936170213  51.6263736263736 95.9148936170213  C 51.6263736263736 95.9148936170213  51.6263736263736 88.7659574468084  51.6263736263736 88.7659574468084  C 51.6263736263736 88.7659574468084  43.3186813186813 80.4255319148936  43.3186813186813 80.4255319148936  C 43.3186813186813 80.4255319148936  42.131868131868 73.2765957446809  42.131868131868 73.2765957446809  C 42.131868131868 73.2765957446809  39.7582417582418 70.8936170212766  39.7582417582418 70.8936170212766  C 39.7582417582418 70.8936170212766  37.3846153846155 75.6595744680851  37.3846153846155 75.6595744680851  C 37.3846153846155 75.6595744680851  36.1978021978023 72.0851063829787  36.1978021978023 72.0851063829787  C 36.1978021978023 72.0851063829787  33.8241758241758 73.2765957446809  33.8241758241758 73.2765957446809  C 33.8241758241758 73.2765957446809  31.4505494505494 69.7021276595744  31.4505494505494 69.7021276595744  C 31.4505494505494 69.7021276595744  38.5714285714286 63.7446808510639  38.5714285714286 63.7446808510639  C 38.5714285714286 63.7446808510639  33.8241758241758 57.7872340425532  33.8241758241758 57.7872340425532  C 33.8241758241758 57.7872340425532  20.7692307692308 51.8297872340424  20.7692307692308 51.8297872340424  C 20.7692307692308 51.8297872340424  8.90109890109886 51.8297872340424  8.90109890109886 51.8297872340424  C 8.90109890109886 51.8297872340424  5.34065934065927 36.3404255319149  5.34065934065927 36.3404255319149  C 5.34065934065927 36.3404255319149  0.593406593406598 31.5744680851064  0.593406593406598 31.5744680851064  C 0.593406593406598 31.5744680851064  0.593406593406598 29.1914893617022  0.593406593406598 29.1914893617022  C 0.593406593406598 29.1914893617022  11.2747252747253 17.2765957446809  11.2747252747253 17.2765957446809  C 11.2747252747253 17.2765957446809  25.5164835164835 19.6595744680851  25.5164835164835 19.6595744680851  C 25.5164835164835 19.6595744680851  25.5164835164835 17.2765957446809  25.5164835164835 17.2765957446809  C 25.5164835164835 17.2765957446809  37.3846153846155 16.0851063829787  37.3846153846155 16.0851063829787  C 37.3846153846155 16.0851063829787  36.1978021978023 8.936170212766  36.1978021978023 8.936170212766  C 36.1978021978023 8.936170212766  40.9450549450548 6.55319148936167  40.9450549450548 6.55319148936167  C 40.9450549450548 6.55319148936167  40.9450549450548 1.78723404255322  40.9450549450548 1.78723404255322  C 40.9450549450548 1.78723404255322  44.5054945054945 2.97872340425539  44.5054945054945 2.97872340425539  C 44.5054945054945 2.97872340425539  46.8791208791208 0.595744680851055  46.8791208791208 0.595744680851055  C 46.8791208791208 0.595744680851055  48.065934065934 7.74468085106383  48.065934065934 7.74468085106383  C 48.065934065934 7.74468085106383  62.3076923076923 11.3191489361702  62.3076923076923 11.3191489361702  C 62.3076923076923 11.3191489361702  59.934065934066 22.0425531914893  59.934065934066 22.0425531914893  C 59.934065934066 22.0425531914893  63.4945054945055 23.2340425531914  63.4945054945055 23.2340425531914  C 63.4945054945055 23.2340425531914  67.0549450549452 20.8510638297873  67.0549450549452 20.8510638297873  C 67.0549450549452 20.8510638297873  67.0549450549452 28  67.0549450549452 28  C 67.0549450549452 28  69.4285714285714 26.8085106382978  69.4285714285714 26.8085106382978  C 69.4285714285714 26.8085106382978  71.8021978021977 33.9574468085107  71.8021978021977 33.9574468085107  C 71.8021978021977 33.9574468085107  75.3626373626374 31.5744680851064  75.3626373626374 31.5744680851064  C 75.3626373626374 31.5744680851064  78.9230769230769 41.1063829787234  78.9230769230769 41.1063829787234  C 78.9230769230769 41.1063829787234  80.1098901098901 39.9148936170213  80.1098901098901 39.9148936170213  C 80.1098901098901 39.9148936170213  86.0439560439561 43.4893617021277  86.0439560439561 43.4893617021277  C 86.0439560439561 43.4893617021277  90.7912087912088 43.4893617021277  90.7912087912088 43.4893617021277  C 90.7912087912088 43.4893617021277  91.978021978022 39.9148936170213  91.978021978022 39.9148936170213  C 91.978021978022 39.9148936170213  100.285714285714 37.5319148936169  100.285714285714 37.5319148936169  C 100.285714285714 37.5319148936169  103.846153846154 41.1063829787234  103.846153846154 41.1063829787234  C 103.846153846154 41.1063829787234  99.0989010989011 43.4893617021277  99.0989010989011 43.4893617021277  C 99.0989010989011 43.4893617021277  99.0989010989011 47.0638297872341  99.0989010989011 47.0638297872341  C 99.0989010989011 47.0638297872341  106.21978021978 49.4468085106383  106.21978021978 49.4468085106383  C 106.21978021978 49.4468085106383  107.406593406593 51.8297872340424  107.406593406593 51.8297872340424  C 107.406593406593 51.8297872340424  93.1648351648352 54.2127659574468  93.1648351648352 54.2127659574468  C 93.1648351648352 54.2127659574468  101.472527472528 69.7021276595744  101.472527472528 69.7021276595744  C 101.472527472528 69.7021276595744  102.659340659341 78.0425531914893  102.659340659341 78.0425531914893  C 102.659340659341 78.0425531914893  99.0989010989011 79.2340425531916  99.0989010989011 79.2340425531916  C 99.0989010989011 79.2340425531916  100.285714285714 87.5744680851064  100.285714285714 87.5744680851064  C 100.285714285714 87.5744680851064  95.5384615384614 88.7659574468084  95.5384615384614 88.7659574468084  C 95.5384615384614 88.7659574468084  95.5384615384614 86.3829787234043  95.5384615384614 86.3829787234043  C 95.5384615384614 86.3829787234043  94.3516483516484 88.7659574468084  94.3516483516484 88.7659574468084  C 94.3516483516484 88.7659574468084  87.2307692307692 89.9574468085107  87.2307692307692 89.9574468085107  C 87.2307692307692 89.9574468085107  88.4175824175824 107.829787234043  88.4175824175824 107.829787234043  C 88.4175824175824 107.829787234043  82.4835164835166 107.829787234043  82.4835164835166 107.829787234043  C 82.4835164835166 107.829787234043  77.7362637362638 111.404255319149  77.7362637362638 111.404255319149  C 77.7362637362638 111.404255319149  76.5494505494506 107.829787234043  76.5494505494506 107.829787234043  C 76.5494505494506 107.829787234043  68.2417582417582 107.829787234043  68.2417582417582 107.829787234043  Z " stroke-width="2" stroke-dasharray="1,1" stroke="#999999" fill="none" transform="matrix(1 0 0 1 862 520 )" mask="url(#clip2011)" />
    </g>
  </defs>
  <g transform="matrix(1 0 0 1 -858 -520 )">
    <use xlink:href="#widget2013" filter="url(#filter2012)" />
    <use xlink:href="#widget2013" />
  </g>
</svg>