<?xml version="1.0" encoding="utf-8"?>
<svg version="1.1" xmlns:xlink="http://www.w3.org/1999/xlink" width="48px" height="49px" xmlns="http://www.w3.org/2000/svg">
  <defs>
    <mask fill="white" id="clip2048">
      <path d="M 45 39.0833333333334  C 45 39.0833333333334  47.4000000000001 39.0833333333334  47.4000000000001 39.0833333333334  C 47.4000000000001 39.0833333333334  39 41.4166666666666  39 41.4166666666666  C 39 41.4166666666666  40.2 42.5833333333334  40.2 42.5833333333334  C 40.2 42.5833333333334  37.8 42.5833333333334  37.8 42.5833333333334  C 37.8 42.5833333333334  35.4000000000001 47.2500000000001  35.4000000000001 47.2500000000001  C 35.4000000000001 47.2500000000001  31.8 46.0833333333334  31.8 46.0833333333334  C 31.8 46.0833333333334  33 48.4166666666667  33 48.4166666666667  C 33 48.4166666666667  28.2 44.9166666666666  28.2 44.9166666666666  C 28.2 44.9166666666666  21 44.9166666666666  21 44.9166666666666  C 21 44.9166666666666  17.4000000000001 42.5833333333334  17.4000000000001 42.5833333333334  C 17.4000000000001 42.5833333333334  9 29.75  9 29.75  C 9 29.75  0.599999999999909 20.4166666666666  0.599999999999909 20.4166666666666  C 0.599999999999909 20.4166666666666  4.20000000000005 9.91666666666663  4.20000000000005 9.91666666666663  C 4.20000000000005 9.91666666666663  0.599999999999909 5.25  0.599999999999909 5.25  C 0.599999999999909 5.25  3 2.91666666666663  3 2.91666666666663  C 3 2.91666666666663  12.5999999999999 0.583333333333258  12.5999999999999 0.583333333333258  C 12.5999999999999 0.583333333333258  15 4.08333333333337  15 4.08333333333337  C 15 4.08333333333337  17.4000000000001 2.91666666666663  17.4000000000001 2.91666666666663  C 17.4000000000001 2.91666666666663  18.5999999999999 5.25  18.5999999999999 5.25  C 18.5999999999999 5.25  21 4.08333333333337  21 4.08333333333337  C 21 4.08333333333337  21 1.74999999999989  21 1.74999999999989  C 21 1.74999999999989  24.5999999999999 4.08333333333337  24.5999999999999 4.08333333333337  C 24.5999999999999 4.08333333333337  24.5999999999999 8.74999999999989  24.5999999999999 8.74999999999989  C 24.5999999999999 8.74999999999989  34.2 19.25  34.2 19.25  C 34.2 19.25  34.2 26.2499999999999  34.2 26.2499999999999  C 34.2 26.2499999999999  30.5999999999999 30.9166666666666  30.5999999999999 30.9166666666666  C 30.5999999999999 30.9166666666666  45 29.75  45 29.75  C 45 29.75  45 39.0833333333334  45 39.0833333333334  Z " fill-rule="evenodd" />
    </mask>
  </defs>
  <g transform="matrix(1 0 0 1 -880 -587 )">
    <path d="M 45 39.0833333333334  C 45 39.0833333333334  47.4000000000001 39.0833333333334  47.4000000000001 39.0833333333334  C 47.4000000000001 39.0833333333334  39 41.4166666666666  39 41.4166666666666  C 39 41.4166666666666  40.2 42.5833333333334  40.2 42.5833333333334  C 40.2 42.5833333333334  37.8 42.5833333333334  37.8 42.5833333333334  C 37.8 42.5833333333334  35.4000000000001 47.2500000000001  35.4000000000001 47.2500000000001  C 35.4000000000001 47.2500000000001  31.8 46.0833333333334  31.8 46.0833333333334  C 31.8 46.0833333333334  33 48.4166666666667  33 48.4166666666667  C 33 48.4166666666667  28.2 44.9166666666666  28.2 44.9166666666666  C 28.2 44.9166666666666  21 44.9166666666666  21 44.9166666666666  C 21 44.9166666666666  17.4000000000001 42.5833333333334  17.4000000000001 42.5833333333334  C 17.4000000000001 42.5833333333334  9 29.75  9 29.75  C 9 29.75  0.599999999999909 20.4166666666666  0.599999999999909 20.4166666666666  C 0.599999999999909 20.4166666666666  4.20000000000005 9.91666666666663  4.20000000000005 9.91666666666663  C 4.20000000000005 9.91666666666663  0.599999999999909 5.25  0.599999999999909 5.25  C 0.599999999999909 5.25  3 2.91666666666663  3 2.91666666666663  C 3 2.91666666666663  12.5999999999999 0.583333333333258  12.5999999999999 0.583333333333258  C 12.5999999999999 0.583333333333258  15 4.08333333333337  15 4.08333333333337  C 15 4.08333333333337  17.4000000000001 2.91666666666663  17.4000000000001 2.91666666666663  C 17.4000000000001 2.91666666666663  18.5999999999999 5.25  18.5999999999999 5.25  C 18.5999999999999 5.25  21 4.08333333333337  21 4.08333333333337  C 21 4.08333333333337  21 1.74999999999989  21 1.74999999999989  C 21 1.74999999999989  24.5999999999999 4.08333333333337  24.5999999999999 4.08333333333337  C 24.5999999999999 4.08333333333337  24.5999999999999 8.74999999999989  24.5999999999999 8.74999999999989  C 24.5999999999999 8.74999999999989  34.2 19.25  34.2 19.25  C 34.2 19.25  34.2 26.2499999999999  34.2 26.2499999999999  C 34.2 26.2499999999999  30.5999999999999 30.9166666666666  30.5999999999999 30.9166666666666  C 30.5999999999999 30.9166666666666  45 29.75  45 29.75  C 45 29.75  45 39.0833333333334  45 39.0833333333334  Z " fill-rule="nonzero" fill="#0033ff" stroke="none" fill-opacity="0" transform="matrix(1 0 0 1 880 587 )" />
    <path d="M 45 39.0833333333334  C 45 39.0833333333334  47.4000000000001 39.0833333333334  47.4000000000001 39.0833333333334  C 47.4000000000001 39.0833333333334  39 41.4166666666666  39 41.4166666666666  C 39 41.4166666666666  40.2 42.5833333333334  40.2 42.5833333333334  C 40.2 42.5833333333334  37.8 42.5833333333334  37.8 42.5833333333334  C 37.8 42.5833333333334  35.4000000000001 47.2500000000001  35.4000000000001 47.2500000000001  C 35.4000000000001 47.2500000000001  31.8 46.0833333333334  31.8 46.0833333333334  C 31.8 46.0833333333334  33 48.4166666666667  33 48.4166666666667  C 33 48.4166666666667  28.2 44.9166666666666  28.2 44.9166666666666  C 28.2 44.9166666666666  21 44.9166666666666  21 44.9166666666666  C 21 44.9166666666666  17.4000000000001 42.5833333333334  17.4000000000001 42.5833333333334  C 17.4000000000001 42.5833333333334  9 29.75  9 29.75  C 9 29.75  0.599999999999909 20.4166666666666  0.599999999999909 20.4166666666666  C 0.599999999999909 20.4166666666666  4.20000000000005 9.91666666666663  4.20000000000005 9.91666666666663  C 4.20000000000005 9.91666666666663  0.599999999999909 5.25  0.599999999999909 5.25  C 0.599999999999909 5.25  3 2.91666666666663  3 2.91666666666663  C 3 2.91666666666663  12.5999999999999 0.583333333333258  12.5999999999999 0.583333333333258  C 12.5999999999999 0.583333333333258  15 4.08333333333337  15 4.08333333333337  C 15 4.08333333333337  17.4000000000001 2.91666666666663  17.4000000000001 2.91666666666663  C 17.4000000000001 2.91666666666663  18.5999999999999 5.25  18.5999999999999 5.25  C 18.5999999999999 5.25  21 4.08333333333337  21 4.08333333333337  C 21 4.08333333333337  21 1.74999999999989  21 1.74999999999989  C 21 1.74999999999989  24.5999999999999 4.08333333333337  24.5999999999999 4.08333333333337  C 24.5999999999999 4.08333333333337  24.5999999999999 8.74999999999989  24.5999999999999 8.74999999999989  C 24.5999999999999 8.74999999999989  34.2 19.25  34.2 19.25  C 34.2 19.25  34.2 26.2499999999999  34.2 26.2499999999999  C 34.2 26.2499999999999  30.5999999999999 30.9166666666666  30.5999999999999 30.9166666666666  C 30.5999999999999 30.9166666666666  45 29.75  45 29.75  C 45 29.75  45 39.0833333333334  45 39.0833333333334  Z " stroke-width="2" stroke-dasharray="1,1" stroke="#999999" fill="none" transform="matrix(1 0 0 1 880 587 )" mask="url(#clip2048)" />
  </g>
</svg>