<?xml version="1.0" encoding="utf-8"?>
<svg version="1.1" xmlns:xlink="http://www.w3.org/1999/xlink" width="24px" height="44px" xmlns="http://www.w3.org/2000/svg">
  <defs>
    <mask fill="white" id="clip2060">
      <path d="M 17.7142857142857 1.78378378378375  C 17.7142857142857 1.78378378378375  17.7142857142857 0.594594594594582  17.7142857142857 0.594594594594582  C 17.7142857142857 0.594594594594582  22.2857142857142 0.594594594594582  22.2857142857142 0.594594594594582  C 22.2857142857142 0.594594594594582  19.9999999999999 5.35135135135124  19.9999999999999 5.35135135135124  C 19.9999999999999 5.35135135135124  23.4285714285714 19.6216216216217  23.4285714285714 19.6216216216217  C 23.4285714285714 19.6216216216217  21.1428571428571 19.6216216216217  21.1428571428571 19.6216216216217  C 21.1428571428571 19.6216216216217  23.4285714285714 41.0270270270271  23.4285714285714 41.0270270270271  C 23.4285714285714 41.0270270270271  7.42857142857144 43.4054054054054  7.42857142857144 43.4054054054054  C 7.42857142857144 43.4054054054054  7.42857142857144 41.0270270270271  7.42857142857144 41.0270270270271  C 7.42857142857144 41.0270270270271  0.571428571428555 39.8378378378378  0.571428571428555 39.8378378378378  C 0.571428571428555 39.8378378378378  0.571428571428555 31.5135135135134  0.571428571428555 31.5135135135134  C 0.571428571428555 31.5135135135134  4.00000000000011 31.5135135135134  4.00000000000011 31.5135135135134  C 4.00000000000011 31.5135135135134  1.71428571428578 12.4864864864866  1.71428571428578 12.4864864864866  C 1.71428571428578 12.4864864864866  8.57142857142867 11.2972972972973  8.57142857142867 11.2972972972973  C 8.57142857142867 11.2972972972973  8.57142857142867 8.91891891891885  8.57142857142867 8.91891891891885  C 8.57142857142867 8.91891891891885  9.71428571428567 11.2972972972973  9.71428571428567 11.2972972972973  C 9.71428571428567 11.2972972972973  15.4285714285713 10.1081081081081  15.4285714285713 10.1081081081081  C 15.4285714285713 10.1081081081081  14.2857142857143 1.78378378378375  14.2857142857143 1.78378378378375  C 14.2857142857143 1.78378378378375  17.7142857142857 1.78378378378375  17.7142857142857 1.78378378378375  Z " fill-rule="evenodd" />
    </mask>
  </defs>
  <g transform="matrix(1 0 0 1 -946 -596 )">
    <path d="M 17.7142857142857 1.78378378378375  C 17.7142857142857 1.78378378378375  17.7142857142857 0.594594594594582  17.7142857142857 0.594594594594582  C 17.7142857142857 0.594594594594582  22.2857142857142 0.594594594594582  22.2857142857142 0.594594594594582  C 22.2857142857142 0.594594594594582  19.9999999999999 5.35135135135124  19.9999999999999 5.35135135135124  C 19.9999999999999 5.35135135135124  23.4285714285714 19.6216216216217  23.4285714285714 19.6216216216217  C 23.4285714285714 19.6216216216217  21.1428571428571 19.6216216216217  21.1428571428571 19.6216216216217  C 21.1428571428571 19.6216216216217  23.4285714285714 41.0270270270271  23.4285714285714 41.0270270270271  C 23.4285714285714 41.0270270270271  7.42857142857144 43.4054054054054  7.42857142857144 43.4054054054054  C 7.42857142857144 43.4054054054054  7.42857142857144 41.0270270270271  7.42857142857144 41.0270270270271  C 7.42857142857144 41.0270270270271  0.571428571428555 39.8378378378378  0.571428571428555 39.8378378378378  C 0.571428571428555 39.8378378378378  0.571428571428555 31.5135135135134  0.571428571428555 31.5135135135134  C 0.571428571428555 31.5135135135134  4.00000000000011 31.5135135135134  4.00000000000011 31.5135135135134  C 4.00000000000011 31.5135135135134  1.71428571428578 12.4864864864866  1.71428571428578 12.4864864864866  C 1.71428571428578 12.4864864864866  8.57142857142867 11.2972972972973  8.57142857142867 11.2972972972973  C 8.57142857142867 11.2972972972973  8.57142857142867 8.91891891891885  8.57142857142867 8.91891891891885  C 8.57142857142867 8.91891891891885  9.71428571428567 11.2972972972973  9.71428571428567 11.2972972972973  C 9.71428571428567 11.2972972972973  15.4285714285713 10.1081081081081  15.4285714285713 10.1081081081081  C 15.4285714285713 10.1081081081081  14.2857142857143 1.78378378378375  14.2857142857143 1.78378378378375  C 14.2857142857143 1.78378378378375  17.7142857142857 1.78378378378375  17.7142857142857 1.78378378378375  Z " fill-rule="nonzero" fill="#0033ff" stroke="none" fill-opacity="0" transform="matrix(1 0 0 1 946 596 )" />
    <path d="M 17.7142857142857 1.78378378378375  C 17.7142857142857 1.78378378378375  17.7142857142857 0.594594594594582  17.7142857142857 0.594594594594582  C 17.7142857142857 0.594594594594582  22.2857142857142 0.594594594594582  22.2857142857142 0.594594594594582  C 22.2857142857142 0.594594594594582  19.9999999999999 5.35135135135124  19.9999999999999 5.35135135135124  C 19.9999999999999 5.35135135135124  23.4285714285714 19.6216216216217  23.4285714285714 19.6216216216217  C 23.4285714285714 19.6216216216217  21.1428571428571 19.6216216216217  21.1428571428571 19.6216216216217  C 21.1428571428571 19.6216216216217  23.4285714285714 41.0270270270271  23.4285714285714 41.0270270270271  C 23.4285714285714 41.0270270270271  7.42857142857144 43.4054054054054  7.42857142857144 43.4054054054054  C 7.42857142857144 43.4054054054054  7.42857142857144 41.0270270270271  7.42857142857144 41.0270270270271  C 7.42857142857144 41.0270270270271  0.571428571428555 39.8378378378378  0.571428571428555 39.8378378378378  C 0.571428571428555 39.8378378378378  0.571428571428555 31.5135135135134  0.571428571428555 31.5135135135134  C 0.571428571428555 31.5135135135134  4.00000000000011 31.5135135135134  4.00000000000011 31.5135135135134  C 4.00000000000011 31.5135135135134  1.71428571428578 12.4864864864866  1.71428571428578 12.4864864864866  C 1.71428571428578 12.4864864864866  8.57142857142867 11.2972972972973  8.57142857142867 11.2972972972973  C 8.57142857142867 11.2972972972973  8.57142857142867 8.91891891891885  8.57142857142867 8.91891891891885  C 8.57142857142867 8.91891891891885  9.71428571428567 11.2972972972973  9.71428571428567 11.2972972972973  C 9.71428571428567 11.2972972972973  15.4285714285713 10.1081081081081  15.4285714285713 10.1081081081081  C 15.4285714285713 10.1081081081081  14.2857142857143 1.78378378378375  14.2857142857143 1.78378378378375  C 14.2857142857143 1.78378378378375  17.7142857142857 1.78378378378375  17.7142857142857 1.78378378378375  Z " stroke-width="2" stroke-dasharray="1,1" stroke="#999999" fill="none" transform="matrix(1 0 0 1 946 596 )" mask="url(#clip2060)" />
  </g>
</svg>