<?xml version="1.0" encoding="utf-8"?>
<svg version="1.1" xmlns:xlink="http://www.w3.org/1999/xlink" width="141px" height="190px" xmlns="http://www.w3.org/2000/svg">
  <defs>
    <mask fill="white" id="clip2019">
      <path d="M 4.15625 83.2751677852348  C 4.15625 83.2751677852348  2.96875 82.0939597315437  2.96875 82.0939597315437  C 2.96875 82.0939597315437  4.15625 80.9127516778524  4.15625 80.9127516778524  C 4.15625 80.9127516778524  1.78124999999989 79.7315436241611  1.78124999999989 79.7315436241611  C 1.78124999999989 79.7315436241611  13.65625 78.5503355704698  13.65625 78.5503355704698  C 13.65625 78.5503355704698  19.59375 83.2751677852348  19.59375 83.2751677852348  C 19.59375 83.2751677852348  21.96875 82.0939597315437  21.96875 82.0939597315437  C 21.96875 82.0939597315437  23.1562500000001 76.1879194630873  23.1562500000001 76.1879194630873  C 23.1562500000001 76.1879194630873  25.5312499999999 73.8255033557047  25.5312499999999 73.8255033557047  C 25.5312499999999 73.8255033557047  24.3437500000001 72.6442953020135  24.3437500000001 72.6442953020135  C 24.3437500000001 72.6442953020135  26.7187499999999 72.6442953020135  26.7187499999999 72.6442953020135  C 26.7187499999999 72.6442953020135  31.46875 67.9194630872483  31.46875 67.9194630872483  C 31.46875 67.9194630872483  29.09375 64.3758389261744  29.09375 64.3758389261744  C 29.09375 64.3758389261744  31.46875 56.1073825503355  31.46875 56.1073825503355  C 31.46875 56.1073825503355  27.90625 56.1073825503355  27.90625 56.1073825503355  C 27.90625 56.1073825503355  30.2812500000001 51.3825503355704  30.2812500000001 51.3825503355704  C 30.2812500000001 51.3825503355704  29.09375 43.1140939597316  29.09375 43.1140939597316  C 29.09375 43.1140939597316  31.46875 44.2953020134228  31.46875 44.2953020134228  C 31.46875 44.2953020134228  31.46875 34.8456375838927  31.46875 34.8456375838927  C 31.46875 34.8456375838927  32.6562500000001 32.48322147651  32.6562500000001 32.48322147651  C 32.6562500000001 32.48322147651  36.2187499999999 34.8456375838927  36.2187499999999 34.8456375838927  C 36.2187499999999 34.8456375838927  35.03125 19.489932885906  35.03125 19.489932885906  C 35.03125 19.489932885906  32.6562500000001 20.6711409395973  32.6562500000001 20.6711409395973  C 32.6562500000001 20.6711409395973  32.6562500000001 18.3087248322147  32.6562500000001 18.3087248322147  C 32.6562500000001 18.3087248322147  35.03125 18.3087248322147  35.03125 18.3087248322147  C 35.03125 18.3087248322147  36.2187499999999 14.765100671141  36.2187499999999 14.765100671141  C 36.2187499999999 14.765100671141  30.2812500000001 11.2214765100671  30.2812500000001 11.2214765100671  C 30.2812500000001 11.2214765100671  31.46875 10.0402684563759  31.46875 10.0402684563759  C 31.46875 10.0402684563759  29.09375 7.67785234899327  29.09375 7.67785234899327  C 29.09375 7.67785234899327  20.78125 6.49664429530196  20.78125 6.49664429530196  C 20.78125 6.49664429530196  23.1562500000001 5.31543624161077  23.1562500000001 5.31543624161077  C 23.1562500000001 5.31543624161077  23.1562500000001 1.77181208053696  23.1562500000001 1.77181208053696  C 23.1562500000001 1.77181208053696  25.5312499999999 0.590604026845767  25.5312499999999 0.590604026845767  C 25.5312499999999 0.590604026845767  29.09375 1.77181208053696  29.09375 1.77181208053696  C 29.09375 1.77181208053696  29.09375 4.13422818791946  29.09375 4.13422818791946  C 29.09375 4.13422818791946  32.6562500000001 2.95302013422815  32.6562500000001 2.95302013422815  C 32.6562500000001 2.95302013422815  33.8437499999999 5.31543624161077  33.8437499999999 5.31543624161077  C 33.8437499999999 5.31543624161077  38.5937500000001 2.95302013422815  38.5937500000001 2.95302013422815  C 38.5937500000001 2.95302013422815  43.34375 7.67785234899327  43.34375 7.67785234899327  C 43.34375 7.67785234899327  46.9062500000001 6.49664429530196  46.9062500000001 6.49664429530196  C 46.9062500000001 6.49664429530196  49.2812500000001 10.0402684563759  49.2812500000001 10.0402684563759  C 49.2812500000001 10.0402684563759  49.2812500000001 6.49664429530196  49.2812500000001 6.49664429530196  C 49.2812500000001 6.49664429530196  52.8437499999999 6.49664429530196  52.8437499999999 6.49664429530196  C 52.8437499999999 6.49664429530196  56.40625 1.77181208053696  56.40625 1.77181208053696  C 56.40625 1.77181208053696  58.78125 2.95302013422815  58.78125 2.95302013422815  C 58.78125 2.95302013422815  58.78125 5.31543624161077  58.78125 5.31543624161077  C 58.78125 5.31543624161077  63.53125 4.13422818791946  63.53125 4.13422818791946  C 63.53125 4.13422818791946  64.71875 1.77181208053696  64.71875 1.77181208053696  C 64.71875 1.77181208053696  76.59375 7.67785234899327  76.59375 7.67785234899327  C 76.59375 7.67785234899327  75.40625 8.85906040268446  75.40625 8.85906040268446  C 75.40625 8.85906040268446  77.78125 11.2214765100671  77.78125 11.2214765100671  C 77.78125 11.2214765100671  77.78125 15.9463087248323  77.78125 15.9463087248323  C 77.78125 15.9463087248323  71.84375 27.7583892617449  71.84375 27.7583892617449  C 71.84375 27.7583892617449  80.15625 33.6644295302015  80.15625 33.6644295302015  C 80.15625 33.6644295302015  80.15625 56.1073825503355  80.15625 56.1073825503355  C 80.15625 56.1073825503355  86.09375 60.8322147651006  86.09375 60.8322147651006  C 86.09375 60.8322147651006  87.28125 56.1073825503355  87.28125 56.1073825503355  C 87.28125 56.1073825503355  88.46875 59.6510067114094  88.46875 59.6510067114094  C 88.46875 59.6510067114094  92.03125 60.8322147651006  92.03125 60.8322147651006  C 92.03125 60.8322147651006  99.15625 69.1006711409397  99.15625 69.1006711409397  C 99.15625 69.1006711409397  101.53125 69.1006711409397  101.53125 69.1006711409397  C 101.53125 69.1006711409397  102.71875 72.6442953020135  102.71875 72.6442953020135  C 102.71875 72.6442953020135  106.28125 75.006711409396  106.28125 75.006711409396  C 106.28125 75.006711409396  111.03125 75.006711409396  111.03125 75.006711409396  C 111.03125 75.006711409396  114.59375 79.7315436241611  114.59375 79.7315436241611  C 114.59375 79.7315436241611  118.15625 78.5503355704698  118.15625 78.5503355704698  C 118.15625 78.5503355704698  116.96875 72.6442953020135  116.96875 72.6442953020135  C 116.96875 72.6442953020135  120.53125 73.8255033557047  120.53125 73.8255033557047  C 120.53125 73.8255033557047  124.09375 86.8187919463087  124.09375 86.8187919463087  C 124.09375 86.8187919463087  128.84375 92.7248322147652  128.84375 92.7248322147652  C 128.84375 92.7248322147652  126.46875 92.7248322147652  126.46875 92.7248322147652  C 126.46875 92.7248322147652  127.65625 96.2684563758389  127.65625 96.2684563758389  C 127.65625 96.2684563758389  131.21875 96.2684563758389  131.21875 96.2684563758389  C 131.21875 96.2684563758389  132.40625 98.6308724832214  132.40625 98.6308724832214  C 132.40625 98.6308724832214  130.03125 98.6308724832214  130.03125 98.6308724832214  C 130.03125 98.6308724832214  131.21875 102.174496644295  131.21875 102.174496644295  C 131.21875 102.174496644295  121.71875 100.993288590604  121.71875 100.993288590604  C 121.71875 100.993288590604  121.71875 105.718120805369  121.71875 105.718120805369  C 121.71875 105.718120805369  119.34375 108.080536912752  119.34375 108.080536912752  C 119.34375 108.080536912752  115.78125 108.080536912752  115.78125 108.080536912752  C 115.78125 108.080536912752  115.78125 111.624161073826  115.78125 111.624161073826  C 115.78125 111.624161073826  118.15625 110.442953020134  118.15625 110.442953020134  C 118.15625 110.442953020134  120.53125 116.34899328859  120.53125 116.34899328859  C 120.53125 116.34899328859  120.53125 121.073825503356  120.53125 121.073825503356  C 120.53125 121.073825503356  119.34375 119.892617449664  119.34375 119.892617449664  C 119.34375 119.892617449664  112.21875 122.255033557047  112.21875 122.255033557047  C 112.21875 122.255033557047  109.84375 125.798657718121  109.84375 125.798657718121  C 109.84375 125.798657718121  112.21875 126.979865771812  112.21875 126.979865771812  C 112.21875 126.979865771812  112.21875 136.429530201342  112.21875 136.429530201342  C 112.21875 136.429530201342  116.96875 136.429530201342  116.96875 136.429530201342  C 116.96875 136.429530201342  118.15625 142.335570469799  118.15625 142.335570469799  C 118.15625 142.335570469799  111.03125 142.335570469799  111.03125 142.335570469799  C 111.03125 142.335570469799  100.34375 145.879194630873  100.34375 145.879194630873  C 100.34375 145.879194630873  100.34375 151.785234899329  100.34375 151.785234899329  C 100.34375 151.785234899329  96.78125 154.147651006711  96.78125 154.147651006711  C 96.78125 154.147651006711  97.96875 155.328859060403  97.96875 155.328859060403  C 97.96875 155.328859060403  93.21875 157.691275167785  93.21875 157.691275167785  C 93.21875 157.691275167785  96.78125 163.597315436242  96.78125 163.597315436242  C 96.78125 163.597315436242  95.59375 165.959731543624  95.59375 165.959731543624  C 95.59375 165.959731543624  93.21875 167.140939597315  93.21875 167.140939597315  C 93.21875 167.140939597315  90.84375 164.778523489933  90.84375 164.778523489933  C 90.84375 164.778523489933  88.46875 167.140939597315  88.46875 167.140939597315  C 88.46875 167.140939597315  82.53125 168.322147651007  82.53125 168.322147651007  C 82.53125 168.322147651007  82.53125 174.228187919463  82.53125 174.228187919463  C 82.53125 174.228187919463  77.78125 175.409395973154  77.78125 175.409395973154  C 77.78125 175.409395973154  76.59375 170.684563758389  76.59375 170.684563758389  C 76.59375 170.684563758389  73.03125 167.140939597315  73.03125 167.140939597315  C 73.03125 167.140939597315  69.46875 164.778523489933  69.46875 164.778523489933  C 69.46875 164.778523489933  62.34375 164.778523489933  62.34375 164.778523489933  C 62.34375 164.778523489933  59.96875 161.234899328859  59.96875 161.234899328859  C 59.96875 161.234899328859  59.96875 156.510067114094  59.96875 156.510067114094  C 59.96875 156.510067114094  55.21875 155.328859060403  55.21875 155.328859060403  C 55.21875 155.328859060403  54.03125 143.51677852349  54.03125 143.51677852349  C 54.03125 143.51677852349  43.34375 143.51677852349  43.34375 143.51677852349  C 43.34375 143.51677852349  44.5312499999999 139.973154362416  44.5312499999999 139.973154362416  C 44.5312499999999 139.973154362416  43.34375 137.610738255034  43.34375 137.610738255034  C 43.34375 137.610738255034  38.5937500000001 137.610738255034  38.5937500000001 137.610738255034  C 38.5937500000001 137.610738255034  36.2187499999999 132.885906040268  36.2187499999999 132.885906040268  C 36.2187499999999 132.885906040268  38.5937500000001 129.342281879195  38.5937500000001 129.342281879195  C 38.5937500000001 129.342281879195  36.2187499999999 129.342281879195  36.2187499999999 129.342281879195  C 36.2187499999999 129.342281879195  33.8437499999999 123.436241610738  33.8437499999999 123.436241610738  C 33.8437499999999 123.436241610738  29.09375 122.255033557047  29.09375 122.255033557047  C 29.09375 122.255033557047  24.3437500000001 126.979865771812  24.3437500000001 126.979865771812  C 24.3437500000001 126.979865771812  16.0312500000001 129.342281879195  16.0312500000001 129.342281879195  C 16.0312500000001 129.342281879195  14.8437500000001 126.979865771812  14.8437500000001 126.979865771812  C 14.8437500000001 126.979865771812  2.96875 128.161073825503  2.96875 128.161073825503  C 2.96875 128.161073825503  0.593749999999886 125.798657718121  0.593749999999886 125.798657718121  C 0.593749999999886 125.798657718121  2.96875 125.798657718121  2.96875 125.798657718121  C 2.96875 125.798657718121  4.15625 122.255033557047  4.15625 122.255033557047  C 4.15625 122.255033557047  1.78124999999989 121.073825503356  1.78124999999989 121.073825503356  C 1.78124999999989 121.073825503356  1.78124999999989 117.530201342282  1.78124999999989 117.530201342282  C 1.78124999999989 117.530201342282  4.15625 117.530201342282  4.15625 117.530201342282  C 4.15625 117.530201342282  0.593749999999886 116.34899328859  0.593749999999886 116.34899328859  C 0.593749999999886 116.34899328859  4.15625 109.261744966443  4.15625 109.261744966443  C 4.15625 109.261744966443  11.28125 104.536912751678  11.28125 104.536912751678  C 11.28125 104.536912751678  20.78125 102.174496644295  20.78125 102.174496644295  C 20.78125 102.174496644295  14.8437500000001 93.9060402684563  14.8437500000001 93.9060402684563  C 14.8437500000001 93.9060402684563  12.46875 96.2684563758389  12.46875 96.2684563758389  C 12.46875 96.2684563758389  8.90624999999989 96.2684563758389  8.90624999999989 96.2684563758389  C 8.90624999999989 96.2684563758389  4.15625 85.6375838926175  4.15625 85.6375838926175  C 4.15625 85.6375838926175  1.78124999999989 84.4563758389261  1.78124999999989 84.4563758389261  C 1.78124999999989 84.4563758389261  4.15625 83.2751677852348  4.15625 83.2751677852348  Z " fill-rule="evenodd" />
    </mask>
    <filter x="1003px" y="571px" width="141px" height="190px" filterUnits="userSpaceOnUse" id="filter2020">
      <feOffset dx="0" dy="10" in="SourceAlpha" result="shadowOffsetInner" />
      <feGaussianBlur stdDeviation="2" in="shadowOffsetInner" result="shadowGaussian" />
      <feComposite in2="shadowGaussian" operator="atop" in="SourceAlpha" result="shadowComposite" />
      <feColorMatrix type="matrix" values="0 0 0 0 0  0 0 0 0 0.6  0 0 0 0 1  0 0 0 1 0  " in="shadowComposite" />
    </filter>
    <g id="widget2021">
      <path d="M 4.15625 83.2751677852348  C 4.15625 83.2751677852348  2.96875 82.0939597315437  2.96875 82.0939597315437  C 2.96875 82.0939597315437  4.15625 80.9127516778524  4.15625 80.9127516778524  C 4.15625 80.9127516778524  1.78124999999989 79.7315436241611  1.78124999999989 79.7315436241611  C 1.78124999999989 79.7315436241611  13.65625 78.5503355704698  13.65625 78.5503355704698  C 13.65625 78.5503355704698  19.59375 83.2751677852348  19.59375 83.2751677852348  C 19.59375 83.2751677852348  21.96875 82.0939597315437  21.96875 82.0939597315437  C 21.96875 82.0939597315437  23.1562500000001 76.1879194630873  23.1562500000001 76.1879194630873  C 23.1562500000001 76.1879194630873  25.5312499999999 73.8255033557047  25.5312499999999 73.8255033557047  C 25.5312499999999 73.8255033557047  24.3437500000001 72.6442953020135  24.3437500000001 72.6442953020135  C 24.3437500000001 72.6442953020135  26.7187499999999 72.6442953020135  26.7187499999999 72.6442953020135  C 26.7187499999999 72.6442953020135  31.46875 67.9194630872483  31.46875 67.9194630872483  C 31.46875 67.9194630872483  29.09375 64.3758389261744  29.09375 64.3758389261744  C 29.09375 64.3758389261744  31.46875 56.1073825503355  31.46875 56.1073825503355  C 31.46875 56.1073825503355  27.90625 56.1073825503355  27.90625 56.1073825503355  C 27.90625 56.1073825503355  30.2812500000001 51.3825503355704  30.2812500000001 51.3825503355704  C 30.2812500000001 51.3825503355704  29.09375 43.1140939597316  29.09375 43.1140939597316  C 29.09375 43.1140939597316  31.46875 44.2953020134228  31.46875 44.2953020134228  C 31.46875 44.2953020134228  31.46875 34.8456375838927  31.46875 34.8456375838927  C 31.46875 34.8456375838927  32.6562500000001 32.48322147651  32.6562500000001 32.48322147651  C 32.6562500000001 32.48322147651  36.2187499999999 34.8456375838927  36.2187499999999 34.8456375838927  C 36.2187499999999 34.8456375838927  35.03125 19.489932885906  35.03125 19.489932885906  C 35.03125 19.489932885906  32.6562500000001 20.6711409395973  32.6562500000001 20.6711409395973  C 32.6562500000001 20.6711409395973  32.6562500000001 18.3087248322147  32.6562500000001 18.3087248322147  C 32.6562500000001 18.3087248322147  35.03125 18.3087248322147  35.03125 18.3087248322147  C 35.03125 18.3087248322147  36.2187499999999 14.765100671141  36.2187499999999 14.765100671141  C 36.2187499999999 14.765100671141  30.2812500000001 11.2214765100671  30.2812500000001 11.2214765100671  C 30.2812500000001 11.2214765100671  31.46875 10.0402684563759  31.46875 10.0402684563759  C 31.46875 10.0402684563759  29.09375 7.67785234899327  29.09375 7.67785234899327  C 29.09375 7.67785234899327  20.78125 6.49664429530196  20.78125 6.49664429530196  C 20.78125 6.49664429530196  23.1562500000001 5.31543624161077  23.1562500000001 5.31543624161077  C 23.1562500000001 5.31543624161077  23.1562500000001 1.77181208053696  23.1562500000001 1.77181208053696  C 23.1562500000001 1.77181208053696  25.5312499999999 0.590604026845767  25.5312499999999 0.590604026845767  C 25.5312499999999 0.590604026845767  29.09375 1.77181208053696  29.09375 1.77181208053696  C 29.09375 1.77181208053696  29.09375 4.13422818791946  29.09375 4.13422818791946  C 29.09375 4.13422818791946  32.6562500000001 2.95302013422815  32.6562500000001 2.95302013422815  C 32.6562500000001 2.95302013422815  33.8437499999999 5.31543624161077  33.8437499999999 5.31543624161077  C 33.8437499999999 5.31543624161077  38.5937500000001 2.95302013422815  38.5937500000001 2.95302013422815  C 38.5937500000001 2.95302013422815  43.34375 7.67785234899327  43.34375 7.67785234899327  C 43.34375 7.67785234899327  46.9062500000001 6.49664429530196  46.9062500000001 6.49664429530196  C 46.9062500000001 6.49664429530196  49.2812500000001 10.0402684563759  49.2812500000001 10.0402684563759  C 49.2812500000001 10.0402684563759  49.2812500000001 6.49664429530196  49.2812500000001 6.49664429530196  C 49.2812500000001 6.49664429530196  52.8437499999999 6.49664429530196  52.8437499999999 6.49664429530196  C 52.8437499999999 6.49664429530196  56.40625 1.77181208053696  56.40625 1.77181208053696  C 56.40625 1.77181208053696  58.78125 2.95302013422815  58.78125 2.95302013422815  C 58.78125 2.95302013422815  58.78125 5.31543624161077  58.78125 5.31543624161077  C 58.78125 5.31543624161077  63.53125 4.13422818791946  63.53125 4.13422818791946  C 63.53125 4.13422818791946  64.71875 1.77181208053696  64.71875 1.77181208053696  C 64.71875 1.77181208053696  76.59375 7.67785234899327  76.59375 7.67785234899327  C 76.59375 7.67785234899327  75.40625 8.85906040268446  75.40625 8.85906040268446  C 75.40625 8.85906040268446  77.78125 11.2214765100671  77.78125 11.2214765100671  C 77.78125 11.2214765100671  77.78125 15.9463087248323  77.78125 15.9463087248323  C 77.78125 15.9463087248323  71.84375 27.7583892617449  71.84375 27.7583892617449  C 71.84375 27.7583892617449  80.15625 33.6644295302015  80.15625 33.6644295302015  C 80.15625 33.6644295302015  80.15625 56.1073825503355  80.15625 56.1073825503355  C 80.15625 56.1073825503355  86.09375 60.8322147651006  86.09375 60.8322147651006  C 86.09375 60.8322147651006  87.28125 56.1073825503355  87.28125 56.1073825503355  C 87.28125 56.1073825503355  88.46875 59.6510067114094  88.46875 59.6510067114094  C 88.46875 59.6510067114094  92.03125 60.8322147651006  92.03125 60.8322147651006  C 92.03125 60.8322147651006  99.15625 69.1006711409397  99.15625 69.1006711409397  C 99.15625 69.1006711409397  101.53125 69.1006711409397  101.53125 69.1006711409397  C 101.53125 69.1006711409397  102.71875 72.6442953020135  102.71875 72.6442953020135  C 102.71875 72.6442953020135  106.28125 75.006711409396  106.28125 75.006711409396  C 106.28125 75.006711409396  111.03125 75.006711409396  111.03125 75.006711409396  C 111.03125 75.006711409396  114.59375 79.7315436241611  114.59375 79.7315436241611  C 114.59375 79.7315436241611  118.15625 78.5503355704698  118.15625 78.5503355704698  C 118.15625 78.5503355704698  116.96875 72.6442953020135  116.96875 72.6442953020135  C 116.96875 72.6442953020135  120.53125 73.8255033557047  120.53125 73.8255033557047  C 120.53125 73.8255033557047  124.09375 86.8187919463087  124.09375 86.8187919463087  C 124.09375 86.8187919463087  128.84375 92.7248322147652  128.84375 92.7248322147652  C 128.84375 92.7248322147652  126.46875 92.7248322147652  126.46875 92.7248322147652  C 126.46875 92.7248322147652  127.65625 96.2684563758389  127.65625 96.2684563758389  C 127.65625 96.2684563758389  131.21875 96.2684563758389  131.21875 96.2684563758389  C 131.21875 96.2684563758389  132.40625 98.6308724832214  132.40625 98.6308724832214  C 132.40625 98.6308724832214  130.03125 98.6308724832214  130.03125 98.6308724832214  C 130.03125 98.6308724832214  131.21875 102.174496644295  131.21875 102.174496644295  C 131.21875 102.174496644295  121.71875 100.993288590604  121.71875 100.993288590604  C 121.71875 100.993288590604  121.71875 105.718120805369  121.71875 105.718120805369  C 121.71875 105.718120805369  119.34375 108.080536912752  119.34375 108.080536912752  C 119.34375 108.080536912752  115.78125 108.080536912752  115.78125 108.080536912752  C 115.78125 108.080536912752  115.78125 111.624161073826  115.78125 111.624161073826  C 115.78125 111.624161073826  118.15625 110.442953020134  118.15625 110.442953020134  C 118.15625 110.442953020134  120.53125 116.34899328859  120.53125 116.34899328859  C 120.53125 116.34899328859  120.53125 121.073825503356  120.53125 121.073825503356  C 120.53125 121.073825503356  119.34375 119.892617449664  119.34375 119.892617449664  C 119.34375 119.892617449664  112.21875 122.255033557047  112.21875 122.255033557047  C 112.21875 122.255033557047  109.84375 125.798657718121  109.84375 125.798657718121  C 109.84375 125.798657718121  112.21875 126.979865771812  112.21875 126.979865771812  C 112.21875 126.979865771812  112.21875 136.429530201342  112.21875 136.429530201342  C 112.21875 136.429530201342  116.96875 136.429530201342  116.96875 136.429530201342  C 116.96875 136.429530201342  118.15625 142.335570469799  118.15625 142.335570469799  C 118.15625 142.335570469799  111.03125 142.335570469799  111.03125 142.335570469799  C 111.03125 142.335570469799  100.34375 145.879194630873  100.34375 145.879194630873  C 100.34375 145.879194630873  100.34375 151.785234899329  100.34375 151.785234899329  C 100.34375 151.785234899329  96.78125 154.147651006711  96.78125 154.147651006711  C 96.78125 154.147651006711  97.96875 155.328859060403  97.96875 155.328859060403  C 97.96875 155.328859060403  93.21875 157.691275167785  93.21875 157.691275167785  C 93.21875 157.691275167785  96.78125 163.597315436242  96.78125 163.597315436242  C 96.78125 163.597315436242  95.59375 165.959731543624  95.59375 165.959731543624  C 95.59375 165.959731543624  93.21875 167.140939597315  93.21875 167.140939597315  C 93.21875 167.140939597315  90.84375 164.778523489933  90.84375 164.778523489933  C 90.84375 164.778523489933  88.46875 167.140939597315  88.46875 167.140939597315  C 88.46875 167.140939597315  82.53125 168.322147651007  82.53125 168.322147651007  C 82.53125 168.322147651007  82.53125 174.228187919463  82.53125 174.228187919463  C 82.53125 174.228187919463  77.78125 175.409395973154  77.78125 175.409395973154  C 77.78125 175.409395973154  76.59375 170.684563758389  76.59375 170.684563758389  C 76.59375 170.684563758389  73.03125 167.140939597315  73.03125 167.140939597315  C 73.03125 167.140939597315  69.46875 164.778523489933  69.46875 164.778523489933  C 69.46875 164.778523489933  62.34375 164.778523489933  62.34375 164.778523489933  C 62.34375 164.778523489933  59.96875 161.234899328859  59.96875 161.234899328859  C 59.96875 161.234899328859  59.96875 156.510067114094  59.96875 156.510067114094  C 59.96875 156.510067114094  55.21875 155.328859060403  55.21875 155.328859060403  C 55.21875 155.328859060403  54.03125 143.51677852349  54.03125 143.51677852349  C 54.03125 143.51677852349  43.34375 143.51677852349  43.34375 143.51677852349  C 43.34375 143.51677852349  44.5312499999999 139.973154362416  44.5312499999999 139.973154362416  C 44.5312499999999 139.973154362416  43.34375 137.610738255034  43.34375 137.610738255034  C 43.34375 137.610738255034  38.5937500000001 137.610738255034  38.5937500000001 137.610738255034  C 38.5937500000001 137.610738255034  36.2187499999999 132.885906040268  36.2187499999999 132.885906040268  C 36.2187499999999 132.885906040268  38.5937500000001 129.342281879195  38.5937500000001 129.342281879195  C 38.5937500000001 129.342281879195  36.2187499999999 129.342281879195  36.2187499999999 129.342281879195  C 36.2187499999999 129.342281879195  33.8437499999999 123.436241610738  33.8437499999999 123.436241610738  C 33.8437499999999 123.436241610738  29.09375 122.255033557047  29.09375 122.255033557047  C 29.09375 122.255033557047  24.3437500000001 126.979865771812  24.3437500000001 126.979865771812  C 24.3437500000001 126.979865771812  16.0312500000001 129.342281879195  16.0312500000001 129.342281879195  C 16.0312500000001 129.342281879195  14.8437500000001 126.979865771812  14.8437500000001 126.979865771812  C 14.8437500000001 126.979865771812  2.96875 128.161073825503  2.96875 128.161073825503  C 2.96875 128.161073825503  0.593749999999886 125.798657718121  0.593749999999886 125.798657718121  C 0.593749999999886 125.798657718121  2.96875 125.798657718121  2.96875 125.798657718121  C 2.96875 125.798657718121  4.15625 122.255033557047  4.15625 122.255033557047  C 4.15625 122.255033557047  1.78124999999989 121.073825503356  1.78124999999989 121.073825503356  C 1.78124999999989 121.073825503356  1.78124999999989 117.530201342282  1.78124999999989 117.530201342282  C 1.78124999999989 117.530201342282  4.15625 117.530201342282  4.15625 117.530201342282  C 4.15625 117.530201342282  0.593749999999886 116.34899328859  0.593749999999886 116.34899328859  C 0.593749999999886 116.34899328859  4.15625 109.261744966443  4.15625 109.261744966443  C 4.15625 109.261744966443  11.28125 104.536912751678  11.28125 104.536912751678  C 11.28125 104.536912751678  20.78125 102.174496644295  20.78125 102.174496644295  C 20.78125 102.174496644295  14.8437500000001 93.9060402684563  14.8437500000001 93.9060402684563  C 14.8437500000001 93.9060402684563  12.46875 96.2684563758389  12.46875 96.2684563758389  C 12.46875 96.2684563758389  8.90624999999989 96.2684563758389  8.90624999999989 96.2684563758389  C 8.90624999999989 96.2684563758389  4.15625 85.6375838926175  4.15625 85.6375838926175  C 4.15625 85.6375838926175  1.78124999999989 84.4563758389261  1.78124999999989 84.4563758389261  C 1.78124999999989 84.4563758389261  4.15625 83.2751677852348  4.15625 83.2751677852348  Z " fill-rule="nonzero" fill="#0fd0e6" stroke="none" transform="matrix(1 0 0 1 1007 571 )" />
      <path d="M 4.15625 83.2751677852348  C 4.15625 83.2751677852348  2.96875 82.0939597315437  2.96875 82.0939597315437  C 2.96875 82.0939597315437  4.15625 80.9127516778524  4.15625 80.9127516778524  C 4.15625 80.9127516778524  1.78124999999989 79.7315436241611  1.78124999999989 79.7315436241611  C 1.78124999999989 79.7315436241611  13.65625 78.5503355704698  13.65625 78.5503355704698  C 13.65625 78.5503355704698  19.59375 83.2751677852348  19.59375 83.2751677852348  C 19.59375 83.2751677852348  21.96875 82.0939597315437  21.96875 82.0939597315437  C 21.96875 82.0939597315437  23.1562500000001 76.1879194630873  23.1562500000001 76.1879194630873  C 23.1562500000001 76.1879194630873  25.5312499999999 73.8255033557047  25.5312499999999 73.8255033557047  C 25.5312499999999 73.8255033557047  24.3437500000001 72.6442953020135  24.3437500000001 72.6442953020135  C 24.3437500000001 72.6442953020135  26.7187499999999 72.6442953020135  26.7187499999999 72.6442953020135  C 26.7187499999999 72.6442953020135  31.46875 67.9194630872483  31.46875 67.9194630872483  C 31.46875 67.9194630872483  29.09375 64.3758389261744  29.09375 64.3758389261744  C 29.09375 64.3758389261744  31.46875 56.1073825503355  31.46875 56.1073825503355  C 31.46875 56.1073825503355  27.90625 56.1073825503355  27.90625 56.1073825503355  C 27.90625 56.1073825503355  30.2812500000001 51.3825503355704  30.2812500000001 51.3825503355704  C 30.2812500000001 51.3825503355704  29.09375 43.1140939597316  29.09375 43.1140939597316  C 29.09375 43.1140939597316  31.46875 44.2953020134228  31.46875 44.2953020134228  C 31.46875 44.2953020134228  31.46875 34.8456375838927  31.46875 34.8456375838927  C 31.46875 34.8456375838927  32.6562500000001 32.48322147651  32.6562500000001 32.48322147651  C 32.6562500000001 32.48322147651  36.2187499999999 34.8456375838927  36.2187499999999 34.8456375838927  C 36.2187499999999 34.8456375838927  35.03125 19.489932885906  35.03125 19.489932885906  C 35.03125 19.489932885906  32.6562500000001 20.6711409395973  32.6562500000001 20.6711409395973  C 32.6562500000001 20.6711409395973  32.6562500000001 18.3087248322147  32.6562500000001 18.3087248322147  C 32.6562500000001 18.3087248322147  35.03125 18.3087248322147  35.03125 18.3087248322147  C 35.03125 18.3087248322147  36.2187499999999 14.765100671141  36.2187499999999 14.765100671141  C 36.2187499999999 14.765100671141  30.2812500000001 11.2214765100671  30.2812500000001 11.2214765100671  C 30.2812500000001 11.2214765100671  31.46875 10.0402684563759  31.46875 10.0402684563759  C 31.46875 10.0402684563759  29.09375 7.67785234899327  29.09375 7.67785234899327  C 29.09375 7.67785234899327  20.78125 6.49664429530196  20.78125 6.49664429530196  C 20.78125 6.49664429530196  23.1562500000001 5.31543624161077  23.1562500000001 5.31543624161077  C 23.1562500000001 5.31543624161077  23.1562500000001 1.77181208053696  23.1562500000001 1.77181208053696  C 23.1562500000001 1.77181208053696  25.5312499999999 0.590604026845767  25.5312499999999 0.590604026845767  C 25.5312499999999 0.590604026845767  29.09375 1.77181208053696  29.09375 1.77181208053696  C 29.09375 1.77181208053696  29.09375 4.13422818791946  29.09375 4.13422818791946  C 29.09375 4.13422818791946  32.6562500000001 2.95302013422815  32.6562500000001 2.95302013422815  C 32.6562500000001 2.95302013422815  33.8437499999999 5.31543624161077  33.8437499999999 5.31543624161077  C 33.8437499999999 5.31543624161077  38.5937500000001 2.95302013422815  38.5937500000001 2.95302013422815  C 38.5937500000001 2.95302013422815  43.34375 7.67785234899327  43.34375 7.67785234899327  C 43.34375 7.67785234899327  46.9062500000001 6.49664429530196  46.9062500000001 6.49664429530196  C 46.9062500000001 6.49664429530196  49.2812500000001 10.0402684563759  49.2812500000001 10.0402684563759  C 49.2812500000001 10.0402684563759  49.2812500000001 6.49664429530196  49.2812500000001 6.49664429530196  C 49.2812500000001 6.49664429530196  52.8437499999999 6.49664429530196  52.8437499999999 6.49664429530196  C 52.8437499999999 6.49664429530196  56.40625 1.77181208053696  56.40625 1.77181208053696  C 56.40625 1.77181208053696  58.78125 2.95302013422815  58.78125 2.95302013422815  C 58.78125 2.95302013422815  58.78125 5.31543624161077  58.78125 5.31543624161077  C 58.78125 5.31543624161077  63.53125 4.13422818791946  63.53125 4.13422818791946  C 63.53125 4.13422818791946  64.71875 1.77181208053696  64.71875 1.77181208053696  C 64.71875 1.77181208053696  76.59375 7.67785234899327  76.59375 7.67785234899327  C 76.59375 7.67785234899327  75.40625 8.85906040268446  75.40625 8.85906040268446  C 75.40625 8.85906040268446  77.78125 11.2214765100671  77.78125 11.2214765100671  C 77.78125 11.2214765100671  77.78125 15.9463087248323  77.78125 15.9463087248323  C 77.78125 15.9463087248323  71.84375 27.7583892617449  71.84375 27.7583892617449  C 71.84375 27.7583892617449  80.15625 33.6644295302015  80.15625 33.6644295302015  C 80.15625 33.6644295302015  80.15625 56.1073825503355  80.15625 56.1073825503355  C 80.15625 56.1073825503355  86.09375 60.8322147651006  86.09375 60.8322147651006  C 86.09375 60.8322147651006  87.28125 56.1073825503355  87.28125 56.1073825503355  C 87.28125 56.1073825503355  88.46875 59.6510067114094  88.46875 59.6510067114094  C 88.46875 59.6510067114094  92.03125 60.8322147651006  92.03125 60.8322147651006  C 92.03125 60.8322147651006  99.15625 69.1006711409397  99.15625 69.1006711409397  C 99.15625 69.1006711409397  101.53125 69.1006711409397  101.53125 69.1006711409397  C 101.53125 69.1006711409397  102.71875 72.6442953020135  102.71875 72.6442953020135  C 102.71875 72.6442953020135  106.28125 75.006711409396  106.28125 75.006711409396  C 106.28125 75.006711409396  111.03125 75.006711409396  111.03125 75.006711409396  C 111.03125 75.006711409396  114.59375 79.7315436241611  114.59375 79.7315436241611  C 114.59375 79.7315436241611  118.15625 78.5503355704698  118.15625 78.5503355704698  C 118.15625 78.5503355704698  116.96875 72.6442953020135  116.96875 72.6442953020135  C 116.96875 72.6442953020135  120.53125 73.8255033557047  120.53125 73.8255033557047  C 120.53125 73.8255033557047  124.09375 86.8187919463087  124.09375 86.8187919463087  C 124.09375 86.8187919463087  128.84375 92.7248322147652  128.84375 92.7248322147652  C 128.84375 92.7248322147652  126.46875 92.7248322147652  126.46875 92.7248322147652  C 126.46875 92.7248322147652  127.65625 96.2684563758389  127.65625 96.2684563758389  C 127.65625 96.2684563758389  131.21875 96.2684563758389  131.21875 96.2684563758389  C 131.21875 96.2684563758389  132.40625 98.6308724832214  132.40625 98.6308724832214  C 132.40625 98.6308724832214  130.03125 98.6308724832214  130.03125 98.6308724832214  C 130.03125 98.6308724832214  131.21875 102.174496644295  131.21875 102.174496644295  C 131.21875 102.174496644295  121.71875 100.993288590604  121.71875 100.993288590604  C 121.71875 100.993288590604  121.71875 105.718120805369  121.71875 105.718120805369  C 121.71875 105.718120805369  119.34375 108.080536912752  119.34375 108.080536912752  C 119.34375 108.080536912752  115.78125 108.080536912752  115.78125 108.080536912752  C 115.78125 108.080536912752  115.78125 111.624161073826  115.78125 111.624161073826  C 115.78125 111.624161073826  118.15625 110.442953020134  118.15625 110.442953020134  C 118.15625 110.442953020134  120.53125 116.34899328859  120.53125 116.34899328859  C 120.53125 116.34899328859  120.53125 121.073825503356  120.53125 121.073825503356  C 120.53125 121.073825503356  119.34375 119.892617449664  119.34375 119.892617449664  C 119.34375 119.892617449664  112.21875 122.255033557047  112.21875 122.255033557047  C 112.21875 122.255033557047  109.84375 125.798657718121  109.84375 125.798657718121  C 109.84375 125.798657718121  112.21875 126.979865771812  112.21875 126.979865771812  C 112.21875 126.979865771812  112.21875 136.429530201342  112.21875 136.429530201342  C 112.21875 136.429530201342  116.96875 136.429530201342  116.96875 136.429530201342  C 116.96875 136.429530201342  118.15625 142.335570469799  118.15625 142.335570469799  C 118.15625 142.335570469799  111.03125 142.335570469799  111.03125 142.335570469799  C 111.03125 142.335570469799  100.34375 145.879194630873  100.34375 145.879194630873  C 100.34375 145.879194630873  100.34375 151.785234899329  100.34375 151.785234899329  C 100.34375 151.785234899329  96.78125 154.147651006711  96.78125 154.147651006711  C 96.78125 154.147651006711  97.96875 155.328859060403  97.96875 155.328859060403  C 97.96875 155.328859060403  93.21875 157.691275167785  93.21875 157.691275167785  C 93.21875 157.691275167785  96.78125 163.597315436242  96.78125 163.597315436242  C 96.78125 163.597315436242  95.59375 165.959731543624  95.59375 165.959731543624  C 95.59375 165.959731543624  93.21875 167.140939597315  93.21875 167.140939597315  C 93.21875 167.140939597315  90.84375 164.778523489933  90.84375 164.778523489933  C 90.84375 164.778523489933  88.46875 167.140939597315  88.46875 167.140939597315  C 88.46875 167.140939597315  82.53125 168.322147651007  82.53125 168.322147651007  C 82.53125 168.322147651007  82.53125 174.228187919463  82.53125 174.228187919463  C 82.53125 174.228187919463  77.78125 175.409395973154  77.78125 175.409395973154  C 77.78125 175.409395973154  76.59375 170.684563758389  76.59375 170.684563758389  C 76.59375 170.684563758389  73.03125 167.140939597315  73.03125 167.140939597315  C 73.03125 167.140939597315  69.46875 164.778523489933  69.46875 164.778523489933  C 69.46875 164.778523489933  62.34375 164.778523489933  62.34375 164.778523489933  C 62.34375 164.778523489933  59.96875 161.234899328859  59.96875 161.234899328859  C 59.96875 161.234899328859  59.96875 156.510067114094  59.96875 156.510067114094  C 59.96875 156.510067114094  55.21875 155.328859060403  55.21875 155.328859060403  C 55.21875 155.328859060403  54.03125 143.51677852349  54.03125 143.51677852349  C 54.03125 143.51677852349  43.34375 143.51677852349  43.34375 143.51677852349  C 43.34375 143.51677852349  44.5312499999999 139.973154362416  44.5312499999999 139.973154362416  C 44.5312499999999 139.973154362416  43.34375 137.610738255034  43.34375 137.610738255034  C 43.34375 137.610738255034  38.5937500000001 137.610738255034  38.5937500000001 137.610738255034  C 38.5937500000001 137.610738255034  36.2187499999999 132.885906040268  36.2187499999999 132.885906040268  C 36.2187499999999 132.885906040268  38.5937500000001 129.342281879195  38.5937500000001 129.342281879195  C 38.5937500000001 129.342281879195  36.2187499999999 129.342281879195  36.2187499999999 129.342281879195  C 36.2187499999999 129.342281879195  33.8437499999999 123.436241610738  33.8437499999999 123.436241610738  C 33.8437499999999 123.436241610738  29.09375 122.255033557047  29.09375 122.255033557047  C 29.09375 122.255033557047  24.3437500000001 126.979865771812  24.3437500000001 126.979865771812  C 24.3437500000001 126.979865771812  16.0312500000001 129.342281879195  16.0312500000001 129.342281879195  C 16.0312500000001 129.342281879195  14.8437500000001 126.979865771812  14.8437500000001 126.979865771812  C 14.8437500000001 126.979865771812  2.96875 128.161073825503  2.96875 128.161073825503  C 2.96875 128.161073825503  0.593749999999886 125.798657718121  0.593749999999886 125.798657718121  C 0.593749999999886 125.798657718121  2.96875 125.798657718121  2.96875 125.798657718121  C 2.96875 125.798657718121  4.15625 122.255033557047  4.15625 122.255033557047  C 4.15625 122.255033557047  1.78124999999989 121.073825503356  1.78124999999989 121.073825503356  C 1.78124999999989 121.073825503356  1.78124999999989 117.530201342282  1.78124999999989 117.530201342282  C 1.78124999999989 117.530201342282  4.15625 117.530201342282  4.15625 117.530201342282  C 4.15625 117.530201342282  0.593749999999886 116.34899328859  0.593749999999886 116.34899328859  C 0.593749999999886 116.34899328859  4.15625 109.261744966443  4.15625 109.261744966443  C 4.15625 109.261744966443  11.28125 104.536912751678  11.28125 104.536912751678  C 11.28125 104.536912751678  20.78125 102.174496644295  20.78125 102.174496644295  C 20.78125 102.174496644295  14.8437500000001 93.9060402684563  14.8437500000001 93.9060402684563  C 14.8437500000001 93.9060402684563  12.46875 96.2684563758389  12.46875 96.2684563758389  C 12.46875 96.2684563758389  8.90624999999989 96.2684563758389  8.90624999999989 96.2684563758389  C 8.90624999999989 96.2684563758389  4.15625 85.6375838926175  4.15625 85.6375838926175  C 4.15625 85.6375838926175  1.78124999999989 84.4563758389261  1.78124999999989 84.4563758389261  C 1.78124999999989 84.4563758389261  4.15625 83.2751677852348  4.15625 83.2751677852348  Z " stroke-width="2" stroke-dasharray="1,1" stroke="#999999" fill="none" transform="matrix(1 0 0 1 1007 571 )" mask="url(#clip2019)" />
    </g>
  </defs>
  <g transform="matrix(1 0 0 1 -1003 -571 )">
    <use xlink:href="#widget2021" filter="url(#filter2020)" />
    <use xlink:href="#widget2021" />
  </g>
</svg>