<?xml version="1.0" encoding="utf-8"?>
<svg version="1.1" xmlns:xlink="http://www.w3.org/1999/xlink" width="240px" height="162px" xmlns="http://www.w3.org/2000/svg">
  <defs>
    <mask fill="white" id="clip2003">
      <path d="M 131.466666666667 13.616  C 131.466666666667 13.616  132.65641025641 12.432  132.65641025641 12.432  C 132.65641025641 12.432  136.225641025641 12.432  136.225641025641 12.432  C 136.225641025641 12.432  142.174358974359 17.168  142.174358974359 17.168  C 142.174358974359 17.168  154.071794871795 18.3520000000001  154.071794871795 18.3520000000001  C 154.071794871795 18.3520000000001  162.4 29.008  162.4 29.008  C 162.4 29.008  161.210256410256 31.3760000000001  161.210256410256 31.3760000000001  C 161.210256410256 31.3760000000001  163.589743589744 31.3760000000001  163.589743589744 31.3760000000001  C 163.589743589744 31.3760000000001  164.779487179487 33.7439999999999  164.779487179487 33.7439999999999  C 164.779487179487 33.7439999999999  165.969230769231 31.3760000000001  165.969230769231 31.3760000000001  C 165.969230769231 31.3760000000001  168.348717948718 42.0319999999999  168.348717948718 42.0319999999999  C 168.348717948718 42.0319999999999  174.297435897436 38.48  174.297435897436 38.48  C 174.297435897436 38.48  183.815384615385 42.0319999999999  183.815384615385 42.0319999999999  C 183.815384615385 42.0319999999999  187.384615384615 39.664  187.384615384615 39.664  C 187.384615384615 39.664  188.574358974359 40.8479999999998  188.574358974359 40.8479999999998  C 188.574358974359 40.8479999999998  189.764102564103 38.48  189.764102564103 38.48  C 189.764102564103 38.48  193.333333333333 38.48  193.333333333333 38.48  C 193.333333333333 38.48  198.092307692308 43.2159999999999  198.092307692308 43.2159999999999  C 198.092307692308 43.2159999999999  201.661538461539 58.6080000000001  201.661538461539 58.6080000000001  C 201.661538461539 58.6080000000001  213.558974358974 58.6080000000001  213.558974358974 58.6080000000001  C 213.558974358974 58.6080000000001  226.646153846154 63.3440000000001  226.646153846154 63.3440000000001  C 226.646153846154 63.3440000000001  231.405128205128 69.264  231.405128205128 69.264  C 231.405128205128 69.264  224.266666666667 76.3680000000001  224.266666666667 76.3680000000001  C 224.266666666667 76.3680000000001  214.748717948718 78.736  214.748717948718 78.736  C 214.748717948718 78.736  212.369230769231 81.1039999999999  212.369230769231 81.1039999999999  C 212.369230769231 81.1039999999999  215.938461538462 85.8399999999999  215.938461538462 85.8399999999999  C 215.938461538462 85.8399999999999  212.369230769231 96.4960000000001  212.369230769231 96.4960000000001  C 212.369230769231 96.4960000000001  220.697435897436 104.784  220.697435897436 104.784  C 220.697435897436 104.784  229.025641025641 117.808  229.025641025641 117.808  C 229.025641025641 117.808  218.317948717949 120.176  218.317948717949 120.176  C 218.317948717949 120.176  205.230769230769 126.096  205.230769230769 126.096  C 205.230769230769 126.096  201.661538461539 124.912  201.661538461539 124.912  C 201.661538461539 124.912  198.092307692308 127.28  198.092307692308 127.28  C 198.092307692308 127.28  199.282051282051 132.016  199.282051282051 132.016  C 199.282051282051 132.016  195.71282051282 132.016  195.71282051282 132.016  C 195.71282051282 132.016  194.523076923077 134.384  194.523076923077 134.384  C 194.523076923077 134.384  188.574358974359 134.384  188.574358974359 134.384  C 188.574358974359 134.384  185.005128205128 136.752  185.005128205128 136.752  C 185.005128205128 136.752  182.625641025641 133.2  182.625641025641 133.2  C 182.625641025641 133.2  180.246153846154 133.2  180.246153846154 133.2  C 180.246153846154 133.2  175.487179487179 136.752  175.487179487179 136.752  C 175.487179487179 136.752  173.107692307692 133.2  173.107692307692 133.2  C 173.107692307692 133.2  176.676923076923 122.544  176.676923076923 122.544  C 176.676923076923 122.544  168.348717948718 126.096  168.348717948718 126.096  C 168.348717948718 126.096  168.348717948718 123.728  168.348717948718 123.728  C 168.348717948718 123.728  163.589743589744 126.096  163.589743589744 126.096  C 163.589743589744 126.096  155.261538461538 122.544  155.261538461538 122.544  C 155.261538461538 122.544  154.071794871795 118.992  154.071794871795 118.992  C 154.071794871795 118.992  161.210256410256 111.888  161.210256410256 111.888  C 161.210256410256 111.888  160.020512820513 105.968  160.020512820513 105.968  C 160.020512820513 105.968  144.553846153846 105.968  144.553846153846 105.968  C 144.553846153846 105.968  138.605128205128 108.336  138.605128205128 108.336  C 138.605128205128 108.336  135.035897435897 113.072  135.035897435897 113.072  C 135.035897435897 113.072  130.276923076923 114.256  130.276923076923 114.256  C 130.276923076923 114.256  125.517948717949 108.336  125.517948717949 108.336  C 125.517948717949 108.336  119.569230769231 107.152  119.569230769231 107.152  C 119.569230769231 107.152  118.379487179487 104.784  118.379487179487 104.784  C 118.379487179487 104.784  106.482051282051 103.6  106.482051282051 103.6  C 106.482051282051 103.6  82.6871794871795 113.072  82.6871794871795 113.072  C 82.6871794871795 113.072  79.1179487179487 115.44  79.1179487179487 115.44  C 79.1179487179487 115.44  77.9282051282051 118.992  77.9282051282051 118.992  C 77.9282051282051 118.992  70.7897435897436 120.176  70.7897435897436 120.176  C 70.7897435897436 120.176  66.0307692307692 124.912  66.0307692307692 124.912  C 66.0307692307692 124.912  63.651282051282 123.728  63.651282051282 123.728  C 63.651282051282 123.728  58.8923076923077 129.648  58.8923076923077 129.648  C 58.8923076923077 129.648  58.8923076923077 135.568  58.8923076923077 135.568  C 58.8923076923077 135.568  56.5128205128206 136.752  56.5128205128206 136.752  C 56.5128205128206 136.752  50.5641025641025 147.408  50.5641025641025 147.408  C 50.5641025641025 147.408  44.6153846153846 147.408  44.6153846153846 147.408  C 44.6153846153846 147.408  27.9589743589744 137.936  27.9589743589744 137.936  C 27.9589743589744 137.936  26.7692307692307 134.384  26.7692307692307 134.384  C 26.7692307692307 134.384  32.7179487179487 122.544  32.7179487179487 122.544  C 32.7179487179487 122.544  26.7692307692307 120.176  26.7692307692307 120.176  C 26.7692307692307 120.176  30.3384615384615 113.072  30.3384615384615 113.072  C 30.3384615384615 113.072  19.6307692307691 103.6  19.6307692307691 103.6  C 19.6307692307691 103.6  17.251282051282 98.864  17.251282051282 98.864  C 17.251282051282 98.864  12.4923076923077 97.6800000000001  12.4923076923077 97.6800000000001  C 12.4923076923077 97.6800000000001  5.35384615384623 91.76  5.35384615384623 91.76  C 5.35384615384623 91.76  0.594871794871779 92.9440000000001  0.594871794871779 92.9440000000001  C 0.594871794871779 92.9440000000001  1.78461538461534 81.1039999999999  1.78461538461534 81.1039999999999  C 1.78461538461534 81.1039999999999  4.16410256410256 76.3680000000001  4.16410256410256 76.3680000000001  C 4.16410256410256 76.3680000000001  8.92307692307702 76.3680000000001  8.92307692307702 76.3680000000001  C 8.92307692307702 76.3680000000001  6.54358974358968 69.264  6.54358974358968 69.264  C 6.54358974358968 69.264  10.1128205128205 59.792  10.1128205128205 59.792  C 10.1128205128205 59.792  13.6820512820512 59.792  13.6820512820512 59.792  C 13.6820512820512 59.792  20.8205128205128 55.0559999999999  20.8205128205128 55.0559999999999  C 20.8205128205128 55.0559999999999  19.6307692307691 53.8720000000001  19.6307692307691 53.8720000000001  C 19.6307692307691 53.8720000000001  24.3897435897437 51.504  24.3897435897437 51.504  C 24.3897435897437 51.504  31.5282051282051 42.0319999999999  31.5282051282051 42.0319999999999  C 31.5282051282051 42.0319999999999  39.8564102564102 40.8479999999998  39.8564102564102 40.8479999999998  C 39.8564102564102 40.8479999999998  39.8564102564102 36.112  39.8564102564102 36.112  C 39.8564102564102 36.112  43.4256410256411 33.7439999999999  43.4256410256411 33.7439999999999  C 43.4256410256411 33.7439999999999  51.7538461538461 33.7439999999999  51.7538461538461 33.7439999999999  C 51.7538461538461 33.7439999999999  51.7538461538461 27.824  51.7538461538461 27.824  C 51.7538461538461 27.824  52.9435897435898 29.008  52.9435897435898 29.008  C 52.9435897435898 29.008  54.1333333333334 24.272  54.1333333333334 24.272  C 54.1333333333334 24.272  67.2205128205128 25.456  67.2205128205128 25.456  C 67.2205128205128 25.456  70.7897435897436 19.5359999999999  70.7897435897436 19.5359999999999  C 70.7897435897436 19.5359999999999  82.6871794871795 19.5359999999999  82.6871794871795 19.5359999999999  C 82.6871794871795 19.5359999999999  83.876923076923 21.904  83.876923076923 21.904  C 83.876923076923 21.904  88.6358974358974 21.904  88.6358974358974 21.904  C 88.6358974358974 21.904  85.0666666666666 19.5359999999999  85.0666666666666 19.5359999999999  C 85.0666666666666 19.5359999999999  87.4461538461538 18.3520000000001  87.4461538461538 18.3520000000001  C 87.4461538461538 18.3520000000001  95.774358974359 20.7199999999999  95.774358974359 20.7199999999999  C 95.774358974359 20.7199999999999  100.533333333333 17.168  100.533333333333 17.168  C 100.533333333333 17.168  101.723076923077 7.69599999999997  101.723076923077 7.69599999999997  C 101.723076923077 7.69599999999997  104.102564102564 7.69599999999997  104.102564102564 7.69599999999997  C 104.102564102564 7.69599999999997  107.671794871795 1.77600000000001  107.671794871795 1.77600000000001  C 107.671794871795 1.77600000000001  111.241025641026 0.592000000000041  111.241025641026 0.592000000000041  C 111.241025641026 0.592000000000041  111.241025641026 4.14399999999995  111.241025641026 4.14399999999995  C 111.241025641026 4.14399999999995  118.379487179487 11.2479999999999  118.379487179487 11.2479999999999  C 118.379487179487 11.2479999999999  123.138461538461 11.2479999999999  123.138461538461 11.2479999999999  C 123.138461538461 11.2479999999999  127.897435897436 14.8000000000001  127.897435897436 14.8000000000001  C 127.897435897436 14.8000000000001  126.707692307692 12.432  126.707692307692 12.432  C 126.707692307692 12.432  131.466666666667 13.616  131.466666666667 13.616  Z " fill-rule="evenodd" />
    </mask>
    <filter x="667px" y="513px" width="240px" height="162px" filterUnits="userSpaceOnUse" id="filter2004">
      <feOffset dx="0" dy="10" in="SourceAlpha" result="shadowOffsetInner" />
      <feGaussianBlur stdDeviation="2" in="shadowOffsetInner" result="shadowGaussian" />
      <feComposite in2="shadowGaussian" operator="atop" in="SourceAlpha" result="shadowComposite" />
      <feColorMatrix type="matrix" values="0 0 0 0 0  0 0 0 0 0.6  0 0 0 0 1  0 0 0 1 0  " in="shadowComposite" />
    </filter>
    <g id="widget2005">
      <path d="M 131.466666666667 13.616  C 131.466666666667 13.616  132.65641025641 12.432  132.65641025641 12.432  C 132.65641025641 12.432  136.225641025641 12.432  136.225641025641 12.432  C 136.225641025641 12.432  142.174358974359 17.168  142.174358974359 17.168  C 142.174358974359 17.168  154.071794871795 18.3520000000001  154.071794871795 18.3520000000001  C 154.071794871795 18.3520000000001  162.4 29.008  162.4 29.008  C 162.4 29.008  161.210256410256 31.3760000000001  161.210256410256 31.3760000000001  C 161.210256410256 31.3760000000001  163.589743589744 31.3760000000001  163.589743589744 31.3760000000001  C 163.589743589744 31.3760000000001  164.779487179487 33.7439999999999  164.779487179487 33.7439999999999  C 164.779487179487 33.7439999999999  165.969230769231 31.3760000000001  165.969230769231 31.3760000000001  C 165.969230769231 31.3760000000001  168.348717948718 42.0319999999999  168.348717948718 42.0319999999999  C 168.348717948718 42.0319999999999  174.297435897436 38.48  174.297435897436 38.48  C 174.297435897436 38.48  183.815384615385 42.0319999999999  183.815384615385 42.0319999999999  C 183.815384615385 42.0319999999999  187.384615384615 39.664  187.384615384615 39.664  C 187.384615384615 39.664  188.574358974359 40.8479999999998  188.574358974359 40.8479999999998  C 188.574358974359 40.8479999999998  189.764102564103 38.48  189.764102564103 38.48  C 189.764102564103 38.48  193.333333333333 38.48  193.333333333333 38.48  C 193.333333333333 38.48  198.092307692308 43.2159999999999  198.092307692308 43.2159999999999  C 198.092307692308 43.2159999999999  201.661538461539 58.6080000000001  201.661538461539 58.6080000000001  C 201.661538461539 58.6080000000001  213.558974358974 58.6080000000001  213.558974358974 58.6080000000001  C 213.558974358974 58.6080000000001  226.646153846154 63.3440000000001  226.646153846154 63.3440000000001  C 226.646153846154 63.3440000000001  231.405128205128 69.264  231.405128205128 69.264  C 231.405128205128 69.264  224.266666666667 76.3680000000001  224.266666666667 76.3680000000001  C 224.266666666667 76.3680000000001  214.748717948718 78.736  214.748717948718 78.736  C 214.748717948718 78.736  212.369230769231 81.1039999999999  212.369230769231 81.1039999999999  C 212.369230769231 81.1039999999999  215.938461538462 85.8399999999999  215.938461538462 85.8399999999999  C 215.938461538462 85.8399999999999  212.369230769231 96.4960000000001  212.369230769231 96.4960000000001  C 212.369230769231 96.4960000000001  220.697435897436 104.784  220.697435897436 104.784  C 220.697435897436 104.784  229.025641025641 117.808  229.025641025641 117.808  C 229.025641025641 117.808  218.317948717949 120.176  218.317948717949 120.176  C 218.317948717949 120.176  205.230769230769 126.096  205.230769230769 126.096  C 205.230769230769 126.096  201.661538461539 124.912  201.661538461539 124.912  C 201.661538461539 124.912  198.092307692308 127.28  198.092307692308 127.28  C 198.092307692308 127.28  199.282051282051 132.016  199.282051282051 132.016  C 199.282051282051 132.016  195.71282051282 132.016  195.71282051282 132.016  C 195.71282051282 132.016  194.523076923077 134.384  194.523076923077 134.384  C 194.523076923077 134.384  188.574358974359 134.384  188.574358974359 134.384  C 188.574358974359 134.384  185.005128205128 136.752  185.005128205128 136.752  C 185.005128205128 136.752  182.625641025641 133.2  182.625641025641 133.2  C 182.625641025641 133.2  180.246153846154 133.2  180.246153846154 133.2  C 180.246153846154 133.2  175.487179487179 136.752  175.487179487179 136.752  C 175.487179487179 136.752  173.107692307692 133.2  173.107692307692 133.2  C 173.107692307692 133.2  176.676923076923 122.544  176.676923076923 122.544  C 176.676923076923 122.544  168.348717948718 126.096  168.348717948718 126.096  C 168.348717948718 126.096  168.348717948718 123.728  168.348717948718 123.728  C 168.348717948718 123.728  163.589743589744 126.096  163.589743589744 126.096  C 163.589743589744 126.096  155.261538461538 122.544  155.261538461538 122.544  C 155.261538461538 122.544  154.071794871795 118.992  154.071794871795 118.992  C 154.071794871795 118.992  161.210256410256 111.888  161.210256410256 111.888  C 161.210256410256 111.888  160.020512820513 105.968  160.020512820513 105.968  C 160.020512820513 105.968  144.553846153846 105.968  144.553846153846 105.968  C 144.553846153846 105.968  138.605128205128 108.336  138.605128205128 108.336  C 138.605128205128 108.336  135.035897435897 113.072  135.035897435897 113.072  C 135.035897435897 113.072  130.276923076923 114.256  130.276923076923 114.256  C 130.276923076923 114.256  125.517948717949 108.336  125.517948717949 108.336  C 125.517948717949 108.336  119.569230769231 107.152  119.569230769231 107.152  C 119.569230769231 107.152  118.379487179487 104.784  118.379487179487 104.784  C 118.379487179487 104.784  106.482051282051 103.6  106.482051282051 103.6  C 106.482051282051 103.6  82.6871794871795 113.072  82.6871794871795 113.072  C 82.6871794871795 113.072  79.1179487179487 115.44  79.1179487179487 115.44  C 79.1179487179487 115.44  77.9282051282051 118.992  77.9282051282051 118.992  C 77.9282051282051 118.992  70.7897435897436 120.176  70.7897435897436 120.176  C 70.7897435897436 120.176  66.0307692307692 124.912  66.0307692307692 124.912  C 66.0307692307692 124.912  63.651282051282 123.728  63.651282051282 123.728  C 63.651282051282 123.728  58.8923076923077 129.648  58.8923076923077 129.648  C 58.8923076923077 129.648  58.8923076923077 135.568  58.8923076923077 135.568  C 58.8923076923077 135.568  56.5128205128206 136.752  56.5128205128206 136.752  C 56.5128205128206 136.752  50.5641025641025 147.408  50.5641025641025 147.408  C 50.5641025641025 147.408  44.6153846153846 147.408  44.6153846153846 147.408  C 44.6153846153846 147.408  27.9589743589744 137.936  27.9589743589744 137.936  C 27.9589743589744 137.936  26.7692307692307 134.384  26.7692307692307 134.384  C 26.7692307692307 134.384  32.7179487179487 122.544  32.7179487179487 122.544  C 32.7179487179487 122.544  26.7692307692307 120.176  26.7692307692307 120.176  C 26.7692307692307 120.176  30.3384615384615 113.072  30.3384615384615 113.072  C 30.3384615384615 113.072  19.6307692307691 103.6  19.6307692307691 103.6  C 19.6307692307691 103.6  17.251282051282 98.864  17.251282051282 98.864  C 17.251282051282 98.864  12.4923076923077 97.6800000000001  12.4923076923077 97.6800000000001  C 12.4923076923077 97.6800000000001  5.35384615384623 91.76  5.35384615384623 91.76  C 5.35384615384623 91.76  0.594871794871779 92.9440000000001  0.594871794871779 92.9440000000001  C 0.594871794871779 92.9440000000001  1.78461538461534 81.1039999999999  1.78461538461534 81.1039999999999  C 1.78461538461534 81.1039999999999  4.16410256410256 76.3680000000001  4.16410256410256 76.3680000000001  C 4.16410256410256 76.3680000000001  8.92307692307702 76.3680000000001  8.92307692307702 76.3680000000001  C 8.92307692307702 76.3680000000001  6.54358974358968 69.264  6.54358974358968 69.264  C 6.54358974358968 69.264  10.1128205128205 59.792  10.1128205128205 59.792  C 10.1128205128205 59.792  13.6820512820512 59.792  13.6820512820512 59.792  C 13.6820512820512 59.792  20.8205128205128 55.0559999999999  20.8205128205128 55.0559999999999  C 20.8205128205128 55.0559999999999  19.6307692307691 53.8720000000001  19.6307692307691 53.8720000000001  C 19.6307692307691 53.8720000000001  24.3897435897437 51.504  24.3897435897437 51.504  C 24.3897435897437 51.504  31.5282051282051 42.0319999999999  31.5282051282051 42.0319999999999  C 31.5282051282051 42.0319999999999  39.8564102564102 40.8479999999998  39.8564102564102 40.8479999999998  C 39.8564102564102 40.8479999999998  39.8564102564102 36.112  39.8564102564102 36.112  C 39.8564102564102 36.112  43.4256410256411 33.7439999999999  43.4256410256411 33.7439999999999  C 43.4256410256411 33.7439999999999  51.7538461538461 33.7439999999999  51.7538461538461 33.7439999999999  C 51.7538461538461 33.7439999999999  51.7538461538461 27.824  51.7538461538461 27.824  C 51.7538461538461 27.824  52.9435897435898 29.008  52.9435897435898 29.008  C 52.9435897435898 29.008  54.1333333333334 24.272  54.1333333333334 24.272  C 54.1333333333334 24.272  67.2205128205128 25.456  67.2205128205128 25.456  C 67.2205128205128 25.456  70.7897435897436 19.5359999999999  70.7897435897436 19.5359999999999  C 70.7897435897436 19.5359999999999  82.6871794871795 19.5359999999999  82.6871794871795 19.5359999999999  C 82.6871794871795 19.5359999999999  83.876923076923 21.904  83.876923076923 21.904  C 83.876923076923 21.904  88.6358974358974 21.904  88.6358974358974 21.904  C 88.6358974358974 21.904  85.0666666666666 19.5359999999999  85.0666666666666 19.5359999999999  C 85.0666666666666 19.5359999999999  87.4461538461538 18.3520000000001  87.4461538461538 18.3520000000001  C 87.4461538461538 18.3520000000001  95.774358974359 20.7199999999999  95.774358974359 20.7199999999999  C 95.774358974359 20.7199999999999  100.533333333333 17.168  100.533333333333 17.168  C 100.533333333333 17.168  101.723076923077 7.69599999999997  101.723076923077 7.69599999999997  C 101.723076923077 7.69599999999997  104.102564102564 7.69599999999997  104.102564102564 7.69599999999997  C 104.102564102564 7.69599999999997  107.671794871795 1.77600000000001  107.671794871795 1.77600000000001  C 107.671794871795 1.77600000000001  111.241025641026 0.592000000000041  111.241025641026 0.592000000000041  C 111.241025641026 0.592000000000041  111.241025641026 4.14399999999995  111.241025641026 4.14399999999995  C 111.241025641026 4.14399999999995  118.379487179487 11.2479999999999  118.379487179487 11.2479999999999  C 118.379487179487 11.2479999999999  123.138461538461 11.2479999999999  123.138461538461 11.2479999999999  C 123.138461538461 11.2479999999999  127.897435897436 14.8000000000001  127.897435897436 14.8000000000001  C 127.897435897436 14.8000000000001  126.707692307692 12.432  126.707692307692 12.432  C 126.707692307692 12.432  131.466666666667 13.616  131.466666666667 13.616  Z " fill-rule="nonzero" fill="#0fd0e6" stroke="none" transform="matrix(1 0 0 1 671 513 )" />
      <path d="M 131.466666666667 13.616  C 131.466666666667 13.616  132.65641025641 12.432  132.65641025641 12.432  C 132.65641025641 12.432  136.225641025641 12.432  136.225641025641 12.432  C 136.225641025641 12.432  142.174358974359 17.168  142.174358974359 17.168  C 142.174358974359 17.168  154.071794871795 18.3520000000001  154.071794871795 18.3520000000001  C 154.071794871795 18.3520000000001  162.4 29.008  162.4 29.008  C 162.4 29.008  161.210256410256 31.3760000000001  161.210256410256 31.3760000000001  C 161.210256410256 31.3760000000001  163.589743589744 31.3760000000001  163.589743589744 31.3760000000001  C 163.589743589744 31.3760000000001  164.779487179487 33.7439999999999  164.779487179487 33.7439999999999  C 164.779487179487 33.7439999999999  165.969230769231 31.3760000000001  165.969230769231 31.3760000000001  C 165.969230769231 31.3760000000001  168.348717948718 42.0319999999999  168.348717948718 42.0319999999999  C 168.348717948718 42.0319999999999  174.297435897436 38.48  174.297435897436 38.48  C 174.297435897436 38.48  183.815384615385 42.0319999999999  183.815384615385 42.0319999999999  C 183.815384615385 42.0319999999999  187.384615384615 39.664  187.384615384615 39.664  C 187.384615384615 39.664  188.574358974359 40.8479999999998  188.574358974359 40.8479999999998  C 188.574358974359 40.8479999999998  189.764102564103 38.48  189.764102564103 38.48  C 189.764102564103 38.48  193.333333333333 38.48  193.333333333333 38.48  C 193.333333333333 38.48  198.092307692308 43.2159999999999  198.092307692308 43.2159999999999  C 198.092307692308 43.2159999999999  201.661538461539 58.6080000000001  201.661538461539 58.6080000000001  C 201.661538461539 58.6080000000001  213.558974358974 58.6080000000001  213.558974358974 58.6080000000001  C 213.558974358974 58.6080000000001  226.646153846154 63.3440000000001  226.646153846154 63.3440000000001  C 226.646153846154 63.3440000000001  231.405128205128 69.264  231.405128205128 69.264  C 231.405128205128 69.264  224.266666666667 76.3680000000001  224.266666666667 76.3680000000001  C 224.266666666667 76.3680000000001  214.748717948718 78.736  214.748717948718 78.736  C 214.748717948718 78.736  212.369230769231 81.1039999999999  212.369230769231 81.1039999999999  C 212.369230769231 81.1039999999999  215.938461538462 85.8399999999999  215.938461538462 85.8399999999999  C 215.938461538462 85.8399999999999  212.369230769231 96.4960000000001  212.369230769231 96.4960000000001  C 212.369230769231 96.4960000000001  220.697435897436 104.784  220.697435897436 104.784  C 220.697435897436 104.784  229.025641025641 117.808  229.025641025641 117.808  C 229.025641025641 117.808  218.317948717949 120.176  218.317948717949 120.176  C 218.317948717949 120.176  205.230769230769 126.096  205.230769230769 126.096  C 205.230769230769 126.096  201.661538461539 124.912  201.661538461539 124.912  C 201.661538461539 124.912  198.092307692308 127.28  198.092307692308 127.28  C 198.092307692308 127.28  199.282051282051 132.016  199.282051282051 132.016  C 199.282051282051 132.016  195.71282051282 132.016  195.71282051282 132.016  C 195.71282051282 132.016  194.523076923077 134.384  194.523076923077 134.384  C 194.523076923077 134.384  188.574358974359 134.384  188.574358974359 134.384  C 188.574358974359 134.384  185.005128205128 136.752  185.005128205128 136.752  C 185.005128205128 136.752  182.625641025641 133.2  182.625641025641 133.2  C 182.625641025641 133.2  180.246153846154 133.2  180.246153846154 133.2  C 180.246153846154 133.2  175.487179487179 136.752  175.487179487179 136.752  C 175.487179487179 136.752  173.107692307692 133.2  173.107692307692 133.2  C 173.107692307692 133.2  176.676923076923 122.544  176.676923076923 122.544  C 176.676923076923 122.544  168.348717948718 126.096  168.348717948718 126.096  C 168.348717948718 126.096  168.348717948718 123.728  168.348717948718 123.728  C 168.348717948718 123.728  163.589743589744 126.096  163.589743589744 126.096  C 163.589743589744 126.096  155.261538461538 122.544  155.261538461538 122.544  C 155.261538461538 122.544  154.071794871795 118.992  154.071794871795 118.992  C 154.071794871795 118.992  161.210256410256 111.888  161.210256410256 111.888  C 161.210256410256 111.888  160.020512820513 105.968  160.020512820513 105.968  C 160.020512820513 105.968  144.553846153846 105.968  144.553846153846 105.968  C 144.553846153846 105.968  138.605128205128 108.336  138.605128205128 108.336  C 138.605128205128 108.336  135.035897435897 113.072  135.035897435897 113.072  C 135.035897435897 113.072  130.276923076923 114.256  130.276923076923 114.256  C 130.276923076923 114.256  125.517948717949 108.336  125.517948717949 108.336  C 125.517948717949 108.336  119.569230769231 107.152  119.569230769231 107.152  C 119.569230769231 107.152  118.379487179487 104.784  118.379487179487 104.784  C 118.379487179487 104.784  106.482051282051 103.6  106.482051282051 103.6  C 106.482051282051 103.6  82.6871794871795 113.072  82.6871794871795 113.072  C 82.6871794871795 113.072  79.1179487179487 115.44  79.1179487179487 115.44  C 79.1179487179487 115.44  77.9282051282051 118.992  77.9282051282051 118.992  C 77.9282051282051 118.992  70.7897435897436 120.176  70.7897435897436 120.176  C 70.7897435897436 120.176  66.0307692307692 124.912  66.0307692307692 124.912  C 66.0307692307692 124.912  63.651282051282 123.728  63.651282051282 123.728  C 63.651282051282 123.728  58.8923076923077 129.648  58.8923076923077 129.648  C 58.8923076923077 129.648  58.8923076923077 135.568  58.8923076923077 135.568  C 58.8923076923077 135.568  56.5128205128206 136.752  56.5128205128206 136.752  C 56.5128205128206 136.752  50.5641025641025 147.408  50.5641025641025 147.408  C 50.5641025641025 147.408  44.6153846153846 147.408  44.6153846153846 147.408  C 44.6153846153846 147.408  27.9589743589744 137.936  27.9589743589744 137.936  C 27.9589743589744 137.936  26.7692307692307 134.384  26.7692307692307 134.384  C 26.7692307692307 134.384  32.7179487179487 122.544  32.7179487179487 122.544  C 32.7179487179487 122.544  26.7692307692307 120.176  26.7692307692307 120.176  C 26.7692307692307 120.176  30.3384615384615 113.072  30.3384615384615 113.072  C 30.3384615384615 113.072  19.6307692307691 103.6  19.6307692307691 103.6  C 19.6307692307691 103.6  17.251282051282 98.864  17.251282051282 98.864  C 17.251282051282 98.864  12.4923076923077 97.6800000000001  12.4923076923077 97.6800000000001  C 12.4923076923077 97.6800000000001  5.35384615384623 91.76  5.35384615384623 91.76  C 5.35384615384623 91.76  0.594871794871779 92.9440000000001  0.594871794871779 92.9440000000001  C 0.594871794871779 92.9440000000001  1.78461538461534 81.1039999999999  1.78461538461534 81.1039999999999  C 1.78461538461534 81.1039999999999  4.16410256410256 76.3680000000001  4.16410256410256 76.3680000000001  C 4.16410256410256 76.3680000000001  8.92307692307702 76.3680000000001  8.92307692307702 76.3680000000001  C 8.92307692307702 76.3680000000001  6.54358974358968 69.264  6.54358974358968 69.264  C 6.54358974358968 69.264  10.1128205128205 59.792  10.1128205128205 59.792  C 10.1128205128205 59.792  13.6820512820512 59.792  13.6820512820512 59.792  C 13.6820512820512 59.792  20.8205128205128 55.0559999999999  20.8205128205128 55.0559999999999  C 20.8205128205128 55.0559999999999  19.6307692307691 53.8720000000001  19.6307692307691 53.8720000000001  C 19.6307692307691 53.8720000000001  24.3897435897437 51.504  24.3897435897437 51.504  C 24.3897435897437 51.504  31.5282051282051 42.0319999999999  31.5282051282051 42.0319999999999  C 31.5282051282051 42.0319999999999  39.8564102564102 40.8479999999998  39.8564102564102 40.8479999999998  C 39.8564102564102 40.8479999999998  39.8564102564102 36.112  39.8564102564102 36.112  C 39.8564102564102 36.112  43.4256410256411 33.7439999999999  43.4256410256411 33.7439999999999  C 43.4256410256411 33.7439999999999  51.7538461538461 33.7439999999999  51.7538461538461 33.7439999999999  C 51.7538461538461 33.7439999999999  51.7538461538461 27.824  51.7538461538461 27.824  C 51.7538461538461 27.824  52.9435897435898 29.008  52.9435897435898 29.008  C 52.9435897435898 29.008  54.1333333333334 24.272  54.1333333333334 24.272  C 54.1333333333334 24.272  67.2205128205128 25.456  67.2205128205128 25.456  C 67.2205128205128 25.456  70.7897435897436 19.5359999999999  70.7897435897436 19.5359999999999  C 70.7897435897436 19.5359999999999  82.6871794871795 19.5359999999999  82.6871794871795 19.5359999999999  C 82.6871794871795 19.5359999999999  83.876923076923 21.904  83.876923076923 21.904  C 83.876923076923 21.904  88.6358974358974 21.904  88.6358974358974 21.904  C 88.6358974358974 21.904  85.0666666666666 19.5359999999999  85.0666666666666 19.5359999999999  C 85.0666666666666 19.5359999999999  87.4461538461538 18.3520000000001  87.4461538461538 18.3520000000001  C 87.4461538461538 18.3520000000001  95.774358974359 20.7199999999999  95.774358974359 20.7199999999999  C 95.774358974359 20.7199999999999  100.533333333333 17.168  100.533333333333 17.168  C 100.533333333333 17.168  101.723076923077 7.69599999999997  101.723076923077 7.69599999999997  C 101.723076923077 7.69599999999997  104.102564102564 7.69599999999997  104.102564102564 7.69599999999997  C 104.102564102564 7.69599999999997  107.671794871795 1.77600000000001  107.671794871795 1.77600000000001  C 107.671794871795 1.77600000000001  111.241025641026 0.592000000000041  111.241025641026 0.592000000000041  C 111.241025641026 0.592000000000041  111.241025641026 4.14399999999995  111.241025641026 4.14399999999995  C 111.241025641026 4.14399999999995  118.379487179487 11.2479999999999  118.379487179487 11.2479999999999  C 118.379487179487 11.2479999999999  123.138461538461 11.2479999999999  123.138461538461 11.2479999999999  C 123.138461538461 11.2479999999999  127.897435897436 14.8000000000001  127.897435897436 14.8000000000001  C 127.897435897436 14.8000000000001  126.707692307692 12.432  126.707692307692 12.432  C 126.707692307692 12.432  131.466666666667 13.616  131.466666666667 13.616  Z " stroke-width="2" stroke-dasharray="1,1" stroke="#999999" fill="none" transform="matrix(1 0 0 1 671 513 )" mask="url(#clip2003)" />
    </g>
  </defs>
  <g transform="matrix(1 0 0 1 -667 -513 )">
    <use xlink:href="#widget2005" filter="url(#filter2004)" />
    <use xlink:href="#widget2005" />
  </g>
</svg>