<?xml version="1.0" encoding="utf-8"?>
<svg version="1.1" xmlns:xlink="http://www.w3.org/1999/xlink" width="161px" height="122px" xmlns="http://www.w3.org/2000/svg">
  <g transform="matrix(1 0 0 1 -988 -461 )">
    <path d="M 47.9448529411766 114.300970873786  C 47.9448529411766 114.300970873786  46.4608707940902 113.806041693613  45.4114376667367 113.456040466908  C 45.1358022536569 113.589302216207  44.9444444444443 113.681818181818  44.9444444444443 113.681818181818  C 44.9444444444443 113.681818181818  44.9444444444443 117.227272727273  44.9444444444443 117.227272727273  C 44.9444444444443 117.227272727273  42.5 118.409090909091  42.5 118.409090909091  C 42.5 118.409090909091  37.6111111111109 113.681818181818  37.6111111111109 113.681818181818  C 37.6111111111109 113.681818181818  37.6111111111109 111.318181818182  37.6111111111109 111.318181818182  C 37.6111111111109 111.318181818182  33.9444444444445 112.5  33.9444444444445 112.5  C 33.9444444444445 112.5  26.611111111111 104.227272727273  26.611111111111 104.227272727273  C 26.611111111111 104.227272727273  27.1812978342377 102.021922426253  27.5427735216322 100.623818787273  C 26.9862828138999 101.021527879316  26.6360294117648 101.271844660194  26.6360294117648 101.271844660194  C 26.6360294117648 101.271844660194  24.2683823529411 101.271844660194  24.2683823529411 101.271844660194  C 24.2683823529411 101.271844660194  19.533088235294 96.5339805825242  19.533088235294 96.5339805825242  C 19.533088235294 96.5339805825242  14.7977941176472 97.7184466019417  14.7977941176472 97.7184466019417  C 14.7977941176472 97.7184466019417  11.2463235294117 92.9805825242718  11.2463235294117 92.9805825242718  C 11.2463235294117 92.9805825242718  2.9595588235295 91.7961165048544  2.9595588235295 91.7961165048544  C 2.9595588235295 91.7961165048544  0.591911764705969 88.2427184466019  0.591911764705969 88.2427184466019  C 0.591911764705969 88.2427184466019  5.32720588235281 87.0582524271845  5.32720588235281 87.0582524271845  C 5.32720588235281 87.0582524271845  8.87867647058829 81.1359223300971  8.87867647058829 81.1359223300971  C 8.87867647058829 81.1359223300971  5.32720588235281 66.9223300970873  5.32720588235281 66.9223300970873  C 5.32720588235281 66.9223300970873  8.87867647058829 63.3689320388351  8.87867647058829 63.3689320388351  C 8.87867647058829 63.3689320388351  6.51102941176475 59.8155339805826  6.51102941176475 59.8155339805826  C 6.51102941176475 59.8155339805826  4.1433823529411 62.1844660194175  4.1433823529411 62.1844660194175  C 4.1433823529411 62.1844660194175  7.69485294117646 51.5242718446602  7.69485294117646 51.5242718446602  C 7.69485294117646 51.5242718446602  7.69485294117646 47.9708737864078  7.69485294117646 47.9708737864078  C 7.69485294117646 47.9708737864078  2.9595588235295 42.0485436893204  2.9595588235295 42.0485436893204  C 2.9595588235295 42.0485436893204  2.9595588235295 36.1262135922331  2.9595588235295 36.1262135922331  C 2.9595588235295 36.1262135922331  6.51102941176475 34.9417475728155  6.51102941176475 34.9417475728155  C 6.51102941176475 34.9417475728155  5.32720588235281 26.6504854368932  5.32720588235281 26.6504854368932  C 5.32720588235281 26.6504854368932  11.2463235294117 24.2815533980583  11.2463235294117 24.2815533980583  C 11.2463235294117 24.2815533980583  12.4301470588235 20.7281553398059  12.4301470588235 20.7281553398059  C 12.4301470588235 20.7281553398059  18.3492647058824 21.9126213592234  18.3492647058824 21.9126213592234  C 18.3492647058824 21.9126213592234  19.533088235294 19.5436893203884  19.533088235294 19.5436893203884  C 19.533088235294 19.5436893203884  21.9007352941176 19.5436893203884  21.9007352941176 19.5436893203884  C 21.9007352941176 19.5436893203884  21.9007352941176 13.621359223301  21.9007352941176 13.621359223301  C 21.9007352941176 13.621359223301  31.3713235294117 13.621359223301  31.3713235294117 13.621359223301  C 31.3713235294117 13.621359223301  32.5551470588235 17.1747572815534  32.5551470588235 17.1747572815534  C 32.5551470588235 17.1747572815534  40.8419117647059 18.3592233009709  40.8419117647059 18.3592233009709  C 40.8419117647059 18.3592233009709  43.2095588235295 24.2815533980583  43.2095588235295 24.2815533980583  C 43.2095588235295 24.2815533980583  47.9448529411766 24.2815533980583  47.9448529411766 24.2815533980583  C 47.9448529411766 24.2815533980583  49.1286764705883 20.7281553398059  49.1286764705883 20.7281553398059  C 49.1286764705883 20.7281553398059  52.6801470588234 19.5436893203884  52.6801470588234 19.5436893203884  C 52.6801470588234 19.5436893203884  55.0477941176471 21.9126213592234  55.0477941176471 21.9126213592234  C 55.0477941176471 21.9126213592234  62.1507352941176 19.5436893203884  62.1507352941176 19.5436893203884  C 62.1507352941176 19.5436893203884  62.1507352941176 29.0194174757282  62.1507352941176 29.0194174757282  C 62.1507352941176 29.0194174757282  64.518382352941 29.0194174757282  64.518382352941 29.0194174757282  C 64.518382352941 29.0194174757282  65.7022058823529 31.3883495145631  65.7022058823529 31.3883495145631  C 65.7022058823529 31.3883495145631  69.2536764705883 27.8349514563107  69.2536764705883 27.8349514563107  C 69.2536764705883 27.8349514563107  71.6213235294117 27.8349514563107  71.6213235294117 27.8349514563107  C 71.6213235294117 27.8349514563107  70.4375 25.4660194174758  70.4375 25.4660194174758  C 70.4375 25.4660194174758  73.9889705882354 24.2815533980583  73.9889705882354 24.2815533980583  C 73.9889705882354 24.2815533980583  73.9889705882354 21.9126213592234  73.9889705882354 21.9126213592234  C 73.9889705882354 21.9126213592234  84.643382352941 11.2524271844661  84.643382352941 11.2524271844661  C 84.643382352941 11.2524271844661  84.643382352941 13.621359223301  84.643382352941 13.621359223301  C 84.643382352941 13.621359223301  85.8272058823529 12.4368932038835  85.8272058823529 12.4368932038835  C 85.8272058823529 12.4368932038835  91.7463235294117 17.1747572815534  91.7463235294117 17.1747572815534  C 91.7463235294117 17.1747572815534  94.1139705882351 15.9902912621359  94.1139705882351 15.9902912621359  C 94.1139705882351 15.9902912621359  95.2977941176471 18.3592233009709  95.2977941176471 18.3592233009709  C 95.2977941176471 18.3592233009709  98.8492647058822 14.8058252427185  98.8492647058822 14.8058252427185  C 98.8492647058822 14.8058252427185  100.033088235294 8.88349514563112  100.033088235294 8.88349514563112  C 100.033088235294 8.88349514563112  111.871323529412 10.0679611650486  111.871323529412 10.0679611650486  C 111.871323529412 10.0679611650486  110.6875 7.69902912621364  110.6875 7.69902912621364  C 110.6875 7.69902912621364  113.055147058823 2.96116504854376  113.055147058823 2.96116504854376  C 113.055147058823 2.96116504854376  115.422794117647 0.592233009708764  115.422794117647 0.592233009708764  C 115.422794117647 0.592233009708764  118.974264705882 0.592233009708764  118.974264705882 0.592233009708764  C 118.974264705882 0.592233009708764  121.341911764706 7.69902912621364  121.341911764706 7.69902912621364  C 121.341911764706 7.69902912621364  124.893382352941 7.69902912621364  124.893382352941 7.69902912621364  C 124.893382352941 7.69902912621364  127.261029411765 14.8058252427185  127.261029411765 14.8058252427185  C 127.261029411765 14.8058252427185  126.077205882353 17.1747572815534  126.077205882353 17.1747572815534  C 126.077205882353 17.1747572815534  128.444852941177 18.3592233009709  128.444852941177 18.3592233009709  C 128.444852941177 18.3592233009709  129.628676470588 24.2815533980583  129.628676470588 24.2815533980583  C 129.628676470588 24.2815533980583  134.363970588235 30.2038834951456  134.363970588235 30.2038834951456  C 134.363970588235 30.2038834951456  131.996323529412 31.3883495145631  131.996323529412 31.3883495145631  C 131.996323529412 31.3883495145631  136.731617647059 32.5728155339806  136.731617647059 32.5728155339806  C 136.731617647059 32.5728155339806  136.731617647059 36.1262135922331  136.731617647059 36.1262135922331  C 136.731617647059 36.1262135922331  143.83455882353 32.5728155339806  143.83455882353 32.5728155339806  C 143.83455882353 32.5728155339806  146.202205882353 34.9417475728155  146.202205882353 34.9417475728155  C 146.202205882353 34.9417475728155  146.202205882353 40.8640776699029  146.202205882353 40.8640776699029  C 146.202205882353 40.8640776699029  142.650735294118 39.6796116504855  142.650735294118 39.6796116504855  C 142.650735294118 39.6796116504855  146.202205882353 47.9708737864078  146.202205882353 47.9708737864078  C 146.202205882353 47.9708737864078  148.569852941177 46.7864077669903  148.569852941177 46.7864077669903  C 148.569852941177 46.7864077669903  149.753676470588 50.3398058252428  149.753676470588 50.3398058252428  C 149.753676470588 50.3398058252428  147.386029411765 51.5242718446602  147.386029411765 51.5242718446602  C 147.386029411765 51.5242718446602  149.753676470588 55.0776699029127  149.753676470588 55.0776699029127  C 149.753676470588 55.0776699029127  153.305147058823 53.8932038834951  153.305147058823 53.8932038834951  C 153.305147058823 53.8932038834951  155.672794117647 63.3689320388351  155.672794117647 63.3689320388351  C 155.672794117647 63.3689320388351  158.04044117647 65.7378640776699  158.04044117647 65.7378640776699  C 158.04044117647 65.7378640776699  154.488970588235 74.0291262135922  154.488970588235 74.0291262135922  C 154.488970588235 74.0291262135922  156.856617647059 84.6893203883494  156.856617647059 84.6893203883494  C 156.856617647059 84.6893203883494  154.488970588235 84.6893203883494  154.488970588235 84.6893203883494  C 154.488970588235 84.6893203883494  159.224264705882 89.4271844660194  159.224264705882 89.4271844660194  C 159.224264705882 89.4271844660194  160.408088235294 94.1650485436893  160.408088235294 94.1650485436893  C 160.408088235294 94.1650485436893  158.04044117647 100.087378640777  158.04044117647 100.087378640777  C 158.04044117647 100.087378640777  153.305147058823 100.087378640777  153.305147058823 100.087378640777  C 153.305147058823 100.087378640777  153.305147058823 104.825242718447  153.305147058823 104.825242718447  C 153.305147058823 104.825242718447  147.386029411765 109.563106796117  147.386029411765 109.563106796117  C 147.386029411765 109.563106796117  147.386029411765 106.009708737864  147.386029411765 106.009708737864  C 147.386029411765 106.009708737864  146.202205882353 107.194174757282  146.202205882353 107.194174757282  C 146.202205882353 107.194174757282  146.202205882353 104.825242718447  146.202205882353 104.825242718447  C 146.202205882353 104.825242718447  142.650735294118 103.640776699029  142.650735294118 103.640776699029  C 142.650735294118 103.640776699029  139.099264705882 107.194174757282  139.099264705882 107.194174757282  C 139.099264705882 107.194174757282  137.91544117647 104.825242718447  137.91544117647 104.825242718447  C 137.91544117647 104.825242718447  135.547794117647 104.825242718447  135.547794117647 104.825242718447  C 135.547794117647 104.825242718447  126.077205882353 108.378640776699  126.077205882353 108.378640776699  C 126.077205882353 108.378640776699  118.974264705882 103.640776699029  118.974264705882 103.640776699029  C 118.974264705882 103.640776699029  113.055147058823 104.825242718447  113.055147058823 104.825242718447  C 113.055147058823 104.825242718447  110.6875 107.194174757282  110.6875 107.194174757282  C 110.6875 107.194174757282  109.503676470588 114.300970873786  109.503676470588 114.300970873786  C 109.503676470588 114.300970873786  100.033088235294 113.116504854369  100.033088235294 113.116504854369  C 100.033088235294 113.116504854369  101.216911764706 111.932038834952  101.216911764706 111.932038834952  C 101.216911764706 111.932038834952  97.6654411764705 111.932038834952  97.6654411764705 111.932038834952  C 97.6654411764705 111.932038834952  96.481617647059 114.300970873786  96.481617647059 114.300970873786  C 96.481617647059 114.300970873786  95.2977941176471 120.223300970874  95.2977941176471 120.223300970874  C 95.2977941176471 120.223300970874  89.3786764705883 119.038834951456  89.3786764705883 119.038834951456  C 89.3786764705883 119.038834951456  84.643382352941 114.300970873786  84.643382352941 114.300970873786  C 84.643382352941 114.300970873786  77.5404411764705 116.669902912621  77.5404411764705 116.669902912621  C 77.5404411764705 116.669902912621  75.1727941176471 114.300970873786  75.1727941176471 114.300970873786  C 75.1727941176471 114.300970873786  71.6213235294117 119.038834951456  71.6213235294117 119.038834951456  C 71.6213235294117 119.038834951456  68.0698529411766 119.038834951456  68.0698529411766 119.038834951456  C 68.0698529411766 119.038834951456  68.0698529411766 121.407766990291  68.0698529411766 121.407766990291  C 68.0698529411766 121.407766990291  65.7022058823529 119.038834951456  65.7022058823529 119.038834951456  C 65.7022058823529 119.038834951456  62.1507352941176 120.223300970874  62.1507352941176 120.223300970874  C 62.1507352941176 120.223300970874  59.7830882352941 116.669902912621  59.7830882352941 116.669902912621  C 59.7830882352941 116.669902912621  47.9448529411766 116.669902912621  47.9448529411766 116.669902912621  C 47.9448529411766 116.669902912621  47.9448529411766 114.300970873786  47.9448529411766 114.300970873786  Z M 41.2777777777778 107.772727272727  C 41.2777777777778 107.772727272727  42.7713305566638 108.254120317162  43.8519872658862 108.6024305592  C 42.8577670917289 100.31276587769  40.8419117647059 83.5048543689321  40.8419117647059 83.5048543689321  C 40.8419117647059 83.5048543689321  40.8419117647059 88.2427184466019  40.8419117647059 88.2427184466019  C 40.8419117647059 88.2427184466019  36.106617647059 90.6116504854369  36.106617647059 90.6116504854369  C 36.106617647059 90.6116504854369  33.7389705882352 82.3203883495145  33.7389705882352 82.3203883495145  C 33.7389705882352 82.3203883495145  34.789154095721 93.8786764950984  34.9112568352028 95.2225359002131  C 36.4414669058917 94.2977705165839  37.6111111111109 93.5909090909091  37.6111111111109 93.5909090909091  C 37.6111111111109 93.5909090909091  38.8333333333333 97.1363636363636  38.8333333333333 97.1363636363636  C 38.8333333333333 97.1363636363636  40.0555555555557 93.5909090909091  40.0555555555557 93.5909090909091  C 40.0555555555557 93.5909090909091  41.2777777777778 107.772727272727  41.2777777777778 107.772727272727  Z " fill-rule="nonzero" fill="#0033ff" stroke="none" fill-opacity="0" transform="matrix(1 0 0 1 988 461 )" />
  </g>
</svg>