<?xml version="1.0" encoding="utf-8"?>
<svg version="1.1" xmlns:xlink="http://www.w3.org/1999/xlink" width="200px" height="50px" xmlns="http://www.w3.org/2000/svg">
  <g transform="matrix(1 0 0 1 -736 -496 )">
    <path d="M 736.5 525.666149068323  C 736.5 525.666149068323  736.5 501  736.5 501  C 736.5 498.514718625761  738.514718625761 496.5  741 496.5  C 741 496.5  931 496.5  931 496.5  C 933.485281374239 496.5  935.5 498.514718625761  935.5 501  C 935.5 501  935.5 525.666149068323  935.5 525.666149068323  C 935.5 528.151430442561  933.485281374239 530.166149068323  931 530.166149068323  C 931 530.166149068323  849.34974438379 530.166149068323  849.34974438379 530.166149068323  C 849.34974438379 530.166149068323  836.502247100114 544.000649717874  836.502247100114 544.000649717874  C 836.502247100114 544.000649717874  825.724145352064 530.166149068323  825.724145352064 530.166149068323  C 825.724145352064 530.166149068323  741 530.166149068323  741 530.166149068323  C 738.514718625761 530.166149068323  736.5 528.151430442561  736.5 525.666149068323  Z " fill-rule="nonzero" fill="#ffffff" stroke="none" />
    <path d="M 736 525.666149068323  C 736 525.666149068323  736 501  736 501  C 736 498.238576250846  738.238576250846 496  741 496  C 741 496  931 496  931 496  C 933.761423749154 496  936 498.238576250846  936 501  C 936 501  936 525.666149068323  936 525.666149068323  C 936 528.427572817477  933.761423749154 530.666149068323  931 530.666149068323  C 931 530.666149068323  849.567765567766 530.666149068323  849.567765567766 530.666149068323  C 849.567765567766 530.666149068323  836.468864468864 544.771367521367  836.468864468864 544.771367521367  C 836.468864468864 544.771367521367  825.479853479854 530.666149068323  825.479853479854 530.666149068323  C 825.479853479854 530.666149068323  741 530.666149068323  741 530.666149068323  C 738.238576250846 530.666149068323  736 528.427572817477  736 525.666149068323  Z M 737 525.666149068323  C 737 527.875288067646  738.790861000677 529.666149068323  741 529.666149068323  C 741 529.666149068323  825.968437224273 529.666149068323  825.968437224273 529.666149068323  C 825.968437224273 529.666149068323  836.535629731363 543.22993191438  836.535629731363 543.22993191438  C 836.535629731363 543.22993191438  849.131723199814 529.666149068323  849.131723199814 529.666149068323  C 849.131723199814 529.666149068323  931 529.666149068323  931 529.666149068323  C 933.209138999323 529.666149068323  935 527.875288067646  935 525.666149068323  C 935 525.666149068323  935 501  935 501  C 935 498.790861000677  933.209138999323 497  931 497  C 931 497  741 497  741 497  C 738.790861000677 497  737 498.790861000677  737 501  C 737 501  737 525.666149068323  737 525.666149068323  Z " fill-rule="nonzero" fill="#d7d7d7" stroke="none" />
  </g>
</svg>