<?xml version="1.0" encoding="utf-8"?>
<svg version="1.1" xmlns:xlink="http://www.w3.org/1999/xlink" width="73px" height="52px" xmlns="http://www.w3.org/2000/svg">
  <g transform="matrix(1 0 0 1 -247 -255 )">
    <path d="M 71.4112723214286 1.503125  C 72.4704241071429 1.96354166666666  73 2.7625  73 3.9  L 73 48.1  C 73 49.2375  72.4704241071429 50.0364583333333  71.4112723214286 50.496875  C 71.0582217261905 50.6322916666667  70.71875 50.7  70.3928571428571 50.7  C 69.6595982142857 50.7  69.0485491071429 50.4427083333333  68.5597098214286 49.928125  L 52.1428571428571 33.55625  L 52.1428571428571 40.3  C 52.1428571428571 43.5229166666667  50.9954427083333 46.2786458333333  48.7006138392857 48.5671875  C 46.4057849702381 50.8557291666667  43.6424851190476 52  40.4107142857143 52  L 11.7321428571429 52  C 8.50037202380953 52  5.73707217261905 50.8557291666667  3.44224330357143 48.5671875  C 1.14741443452381 46.2786458333333  0 43.5229166666667  0 40.3  L 0 11.7  C 0 8.47708333333333  1.14741443452381 5.72135416666666  3.44224330357143 3.4328125  C 5.73707217261905 1.14427083333333  8.50037202380953 0  11.7321428571429 0  L 40.4107142857143 0  C 43.6424851190476 0  46.4057849702381 1.14427083333333  48.7006138392857 3.4328125  C 50.9954427083333 5.72135416666666  52.1428571428571 8.47708333333333  52.1428571428571 11.7  L 52.1428571428571 18.403125  L 68.5597098214286 2.071875  C 69.0485491071429 1.55729166666666  69.6595982142857 1.3  70.3928571428571 1.3  C 70.71875 1.3  71.0582217261905 1.36770833333332  71.4112723214286 1.503125  Z " fill-rule="nonzero" fill="#000000" stroke="none" transform="matrix(1 0 0 1 247 255 )" />
  </g>
</svg>