<?xml version="1.0" encoding="utf-8"?>
<svg version="1.1" xmlns:xlink="http://www.w3.org/1999/xlink" width="9px" height="9px" xmlns="http://www.w3.org/2000/svg">
  <g transform="matrix(1 0 0 1 -147 -223 )">
    <path d="M 6.91678321678322 4.5  L 8.59090909090909 5.40234375  C 8.78391608391608 5.50390625  8.90874125874126 5.6552734375  8.96538461538461 5.8564453125  C 9.02202797202797 6.0576171875  8.9958041958042 6.248046875  8.88671328671329 6.427734375  L 8.48391608391608 7.072265625  C 8.37482517482518 7.251953125  8.21223776223776 7.3681640625  7.99615384615385 7.4208984375  C 7.78006993006993 7.4736328125  7.57552447552448 7.44921875  7.38251748251748 7.34765625  L 5.70839160839161 6.451171875  L 5.70839160839161 8.25  C 5.70839160839161 8.453125  5.62867132867133 8.62890625  5.46923076923077 8.77734375  C 5.30979020979021 8.92578125  5.12097902097902 9  4.9027972027972 9  L 4.0972027972028 9  C 3.87902097902098 9  3.69020979020979 8.92578125  3.53076923076923 8.77734375  C 3.37132867132867 8.62890625  3.29160839160839 8.453125  3.29160839160839 8.25  L 3.29160839160839 6.451171875  L 1.61748251748252 7.34765625  C 1.42447552447552 7.44921875  1.21993006993007 7.4736328125  1.00384615384615 7.4208984375  C 0.787762237762238 7.3681640625  0.625174825174825 7.251953125  0.516083916083916 7.072265625  L 0.113286713286713 6.427734375  C 0.00419580419580423 6.248046875  -0.022027972027972 6.0576171875  0.0346153846153846 5.8564453125  C 0.0912587412587413 5.6552734375  0.216083916083916 5.50390625  0.409090909090909 5.40234375  L 2.08321678321678 4.5  L 0.409090909090909 3.59765625  C 0.216083916083916 3.49609375  0.0912587412587413 3.3447265625  0.0346153846153846 3.1435546875  C -0.022027972027972 2.9423828125  0.00419580419580423 2.751953125  0.113286713286713 2.572265625  L 0.516083916083916 1.927734375  C 0.625174825174825 1.748046875  0.787762237762238 1.6318359375  1.00384615384615 1.5791015625  C 1.21993006993007 1.5263671875  1.42447552447552 1.55078125  1.61748251748252 1.65234375  L 3.29160839160839 2.548828125  L 3.29160839160839 0.75  C 3.29160839160839 0.546875  3.37132867132867 0.37109375  3.53076923076923 0.22265625  C 3.69020979020979 0.0742187499999991  3.87902097902098 0  4.0972027972028 0  L 4.9027972027972 0  C 5.12097902097902 0  5.30979020979021 0.0742187499999991  5.46923076923077 0.22265625  C 5.62867132867133 0.37109375  5.70839160839161 0.546875  5.70839160839161 0.75  L 5.70839160839161 2.548828125  L 7.38251748251748 1.65234375  C 7.57552447552448 1.55078125  7.78006993006993 1.5263671875  7.99615384615385 1.5791015625  C 8.21223776223776 1.6318359375  8.37482517482518 1.748046875  8.48391608391608 1.927734375  L 8.88671328671329 2.572265625  C 8.9958041958042 2.751953125  9.02202797202797 2.9423828125  8.96538461538461 3.1435546875  C 8.90874125874126 3.3447265625  8.78391608391608 3.49609375  8.59090909090909 3.59765625  L 6.91678321678322 4.5  Z " fill-rule="nonzero" fill="#7f7f7f" stroke="none" transform="matrix(1 0 0 1 147 223 )" />
  </g>
</svg>