<?xml version="1.0" encoding="utf-8"?>
<svg version="1.1" xmlns:xlink="http://www.w3.org/1999/xlink" width="24px" height="14px" xmlns="http://www.w3.org/2000/svg">
  <g transform="matrix(1 0 0 1 -25 -59 )">
    <path d="M 23.7595190380762 1.44329896907216  C 23.9198396793587 1.60366552119129  24 1.78808705612829  24 1.99656357388316  C 24 2.20504009163803  23.9198396793587 2.38946162657503  23.7595190380762 2.54982817869416  L 12.5531062124248 13.7594501718213  C 12.3927855711423 13.9198167239404  12.2084168336673 14  12 14  C 11.7915831663327 14  11.6072144288577 13.9198167239404  11.4468937875751 13.7594501718213  L 0.240480961923848 2.54982817869416  C 0.0801603206412828 2.38946162657503  0 2.20504009163803  0 1.99656357388316  C 0 1.78808705612829  0.0801603206412828 1.60366552119129  0.240480961923848 1.44329896907216  L 1.44288577154309 0.240549828178695  C 1.60320641282565 0.0801832760595629  1.7875751503006 0  1.99599198396794 0  C 2.20440881763527 0  2.38877755511022 0.0801832760595629  2.54909819639279 0.240549828178695  L 12 9.69415807560137  L 21.4509018036072 0.240549828178695  C 21.6112224448898 0.0801832760595629  21.7955911823647 0  22.0040080160321 0  C 22.2124248496994 0  22.3967935871744 0.0801832760595629  22.5571142284569 0.240549828178695  L 23.7595190380762 1.44329896907216  Z " fill-rule="nonzero" fill="#8c8c8c" stroke="none" transform="matrix(1 0 0 1 25 59 )" />
  </g>
</svg>