<?xml version="1.0" encoding="utf-8"?>
<svg version="1.1" xmlns:xlink="http://www.w3.org/1999/xlink" width="24px" height="14px" xmlns="http://www.w3.org/2000/svg">
  <g transform="matrix(1 0 0 1 -25 -20 )">
    <path d="M 23.7595190380762 11.4501718213058  C 23.9198396793587 11.610538373425  24 11.794959908362  24 12.0034364261168  C 24 12.2119129438717  23.9198396793587 12.3963344788087  23.7595190380762 12.5567010309278  L 22.5571142284569 13.7594501718213  C 22.3967935871744 13.9198167239404  22.2124248496994 14  22.0040080160321 14  C 21.7955911823647 14  21.6112224448898 13.9198167239404  21.4509018036072 13.7594501718213  L 12 4.30584192439863  L 2.54909819639279 13.7594501718213  C 2.38877755511022 13.9198167239404  2.20440881763527 14  1.99599198396794 14  C 1.7875751503006 14  1.60320641282565 13.9198167239404  1.44288577154309 13.7594501718213  L 0.240480961923848 12.5567010309278  C 0.0801603206412828 12.3963344788087  0 12.2119129438717  0 12.0034364261168  C 0 11.794959908362  0.0801603206412828 11.610538373425  0.240480961923848 11.4501718213058  L 11.4468937875751 0.240549828178695  C 11.6072144288577 0.0801832760595629  11.7915831663327 0  12 0  C 12.2084168336673 0  12.3927855711423 0.0801832760595629  12.5531062124248 0.240549828178695  L 23.7595190380762 11.4501718213058  Z " fill-rule="nonzero" fill="#333333" stroke="none" transform="matrix(1 0 0 1 25 20 )" />
  </g>
</svg>