<?xml version="1.0" encoding="utf-8"?>
<svg version="1.1" xmlns:xlink="http://www.w3.org/1999/xlink" width="18px" height="24px" xmlns="http://www.w3.org/2000/svg">
  <g transform="matrix(1 0 0 1 -372 -351 )">
    <path d="M 5 12  L 16.5 12  C 16.9166666666667 12  17.2708333333333 12.1458333333333  17.5625 12.4375  C 17.8541666666667 12.7291666666667  18 13.0833333333333  18 13.5  L 18 22.5  C 18 22.9166666666667  17.8541666666667 23.2708333333333  17.5625 23.5625  C 17.2708333333333 23.8541666666667  16.9166666666667 24  16.5 24  L 1.5 24  C 1.08333333333333 24  0.729166666666667 23.8541666666667  0.4375 23.5625  C 0.145833333333333 23.2708333333333  0 22.9166666666667  0 22.5  L 0 13.5  C 0 13.0833333333333  0.145833333333333 12.7291666666667  0.4375 12.4375  C 0.729166666666667 12.1458333333333  1.08333333333333 12  1.5 12  L 2 12  L 2 7  C 2 5.07291666666666  2.68489583333333 3.42447916666666  4.0546875 2.0546875  C 5.42447916666667 0.684895833333335  7.07291666666667 0  9 0  C 10.9270833333333 0  12.5755208333333 0.684895833333335  13.9453125 2.0546875  C 15.3151041666667 3.42447916666666  16 5.07291666666666  16 7  C 16 7.27083333333333  15.9010416666667 7.50520833333333  15.703125 7.703125  C 15.5052083333333 7.90104166666666  15.2708333333333 8  15 8  L 14 8  C 13.7291666666667 8  13.4947916666667 7.90104166666666  13.296875 7.703125  C 13.0989583333333 7.50520833333333  13 7.27083333333333  13 7  C 13 5.89583333333333  12.609375 4.953125  11.828125 4.171875  C 11.046875 3.390625  10.1041666666667 3  9 3  C 7.89583333333333 3  6.953125 3.390625  6.171875 4.171875  C 5.390625 4.953125  5 5.89583333333333  5 7  L 5 12  Z " fill-rule="nonzero" fill="#d7d7d7" stroke="none" transform="matrix(1 0 0 1 372 351 )" />
  </g>
</svg>