<?xml version="1.0" encoding="utf-8"?>
<svg version="1.1" xmlns:xlink="http://www.w3.org/1999/xlink" width="108px" height="146px" xmlns="http://www.w3.org/2000/svg">
  <g transform="matrix(1 0 0 1 -112 0 )">
    <path d="M 107.99 109.995  C 108 90.675  103.01 72.515  94.26 56.735  C 93.61 55.565  92.95 54.415  92.26 53.275  C 73.33 21.885  39.16 0.725000000000007  0 0.0250000000000068  L 0 25.055  C 29.91 25.745  56 41.865  70.6 65.785  C 71.29 66.925  71.96 68.075  72.6 69.245  C 79.23 81.345  83 95.235  83 110.005  C 83 119.515  81.41 128.655  78.53 137.185  L 102.05 145.745  C 105.9 134.535  107.99 122.515  107.99 109.995  Z " fill-rule="nonzero" fill="#189fff" stroke="none" transform="matrix(1 0 0 1 112 0 )" />
  </g>
</svg>