<?xml version="1.0" encoding="utf-8"?>
<svg version="1.1" xmlns:xlink="http://www.w3.org/1999/xlink" width="101px" height="80px" xmlns="http://www.w3.org/2000/svg">
  <g transform="matrix(1 0 0 1 -112 -140 )">
    <path d="M 100.7 9.505  L 77.17 0.944999999999993  C 75.85 4.32499999999999  74.33 7.60499999999999  72.6 10.765  C 71.96 11.935  71.29 13.095  70.6 14.225  C 63.54 25.795  53.79 35.535  42.23 42.595  C 41.09 43.285  39.94 43.955  38.77 44.595  C 27.22 50.925  14.03 54.615  0 54.945  L 0 79.975  C 18.59 79.645  36.04 74.705  51.28 66.255  C 52.45 65.605  53.6 64.945  54.74 64.255  C 70.1 54.995  83.01 42.085  92.27 26.725  C 92.96 25.585  93.62 24.425  94.27 23.265  C 96.72 18.855  98.87 14.255  100.7 9.505  Z " fill-rule="nonzero" fill="#13c2c2" stroke="none" transform="matrix(1 0 0 1 112 140 )" />
  </g>
</svg>