<?xml version="1.0" encoding="utf-8"?>
<svg version="1.1" xmlns:xlink="http://www.w3.org/1999/xlink" width="384px" height="87px" xmlns="http://www.w3.org/2000/svg">
  <g transform="matrix(1 0 0 1 -744 -545 )">
    <path d="M 271.669191687125 81.8789737501648  C 268.266242528504 82.4488326965688  264.12450835811 83.2042674018828  259.063549011525 83.6013796564681  L 259.284425831353 83.8233082706766  C 254.059602735949 84.2121751747791  249.221803573539 84.40660862683  244.771028344121 84.40660862683  C 243.029420645653 84.40660862683  241.287812947185 84.40660862683  239.739717215213 84.2121751747791  L 239.159181315724 84.2121751747791  C 237.417573617256 84.0177417227278  235.675965918788 84.0177417227278  234.127870186816 83.8233082706766  L 233.93435822032 83.8233082706766  C 231.999238555356 83.6288748186256  230.451142823384 83.4344413665744  228.903047091413 83.4344413665744  C 228.128999225427 83.4344413665744  227.354951359441 83.4344413665744  226.387391526959 83.2400079145232  L 225.613343660973 83.2400079145232  C 225.032807761484 83.2400079145232  224.258759895498 83.2400079145232  223.678223996009 83.0455744624719  C 220.001496632577 82.8511410104207  215.744233369655 82.8511410104207  210.132386341259 83.0455744624719  C 205.101075212351 83.0455744624719  200.843811949429 83.4344413665744  196.586548686508 83.8233082706766  C 193.103333289572 84.2121751747791  190.200653792126 84.6010420788815  187.297974294679 84.9899089829837  L 187.104462328183 84.9899089829837  C 185.556366596211 85.1843424350349  184.00827086424 85.3787758870861  182.266663165772 85.5732093391373  C 180.7185674338 85.7676427911886  178.976959735332 85.9620762432397  176.654816137375 85.9620762432397  C 174.526184505914 86.1565096952908  172.204040907957 86.1565096952908  169.88189731 86.1565096952908  C 168.914337477518 86.3509431473419  167.559753712043 86.3509431473419  166.205169946567 86.3509431473419  C 164.850586181092 86.3509431473419  163.496002415617 86.3509431473419  162.141418650142 86.1565096952908  L 161.75439471715 86.1565096952908  C 158.851715219703 85.9620762432397  156.142547688753 85.9620762432397  153.626892124299 85.7676427911886  C 152.465820325321 85.7676427911886  151.304748526342 85.5732093391373  150.33718869386 85.3787758870861  C 149.369628861378 85.1843424350349  148.402069028895 85.1843424350349  147.434509196413 84.9899089829839  C 143.757781832981 84.4066086268302  141.048614302031 83.8233082706766  138.726470704074 83.2400079145232  L 134.856231374145 82.4622741063185  C 133.50164760867 82.0734072022161  132.147063843195 81.8789737501648  130.79248007772 81.6845402981139  C 129.050872379252 81.4901068460624  127.50277664728 81.2956733940115  125.567656982316 81.1012399419602  L 124.79360911633 80.9068064899091  C 123.052001417863 80.7123730378578  121.116881752898 80.5179395858066  118.794738154941 80.3235061337554  C 116.472594556984 80.1290726817044  114.150450959026 79.9346392296532  111.828307361069 79.7402057776019  C 109.893187696105 79.5457723255507  108.151579997637 79.5457723255507  106.216460332672 79.5457723255507  C 103.700804768219 79.5457723255507  101.378661170262 79.5457723255507  99.2500295388007 79.5457723255507  C 98.2824697063186 79.5457723255507  97.508421840333 79.5457723255507  96.7343739743471 79.5457723255507  L 95.9603261083614 79.5457723255507  C 90.1549671134684 79.5457723255507  83.3820482860932 79.5457723255507  74.2869858607606 77.9903047091412  C 73.1259140617819 77.79587125709  71.9648422628034 77.601437805039  70.9972824303212 77.4070043529878  C 70.0297225978391 77.2125709009366  69.062162765357 77.0181374488853  68.2881148993711 76.8237039968342  C 66.9335311338961 76.4348370927318  65.5789473684209 76.0459701886296  64.4178755694426 75.657103284527  C 63.4503157369602 75.2682363804248  62.482755904478 74.8793694763224  61.7087080384924 74.49050257222  C 61.128172139003 74.1016356681175  60.5476362395137 73.7127687640153  59.9671003400243 73.3239018599129  C 58.8060285410457 72.5461680517083  57.6449567420672 71.7684342435034  56.0968610100956 71.1851338873499  C 54.3552533116278 70.2129666270941  52.226621680167 69.4352328188893  49.130430216224 68.6574990106847  C 46.2277507187775 67.8797652024799  43.7120951543238 67.2964648463263  40.8094156568773 66.9075979422241  C 38.48727205892 66.5187310381217  36.3586404274592 66.3242975860704  33.8429848630055 66.1298641340193  C 32.4884010975305 65.935430681968  31.3273292985519 65.935430681968  30.1662574995732 65.7409972299168  C 28.8116737340982 65.5465637778658  27.6506019351197 65.3521303258146  26.6830421026375 65.1576968737634  C 25.3284583371624 64.7688299696609  24.1673865381838 64.5743965176099  23.0063147392052 64.1855296135075  C 22.425778839716 63.9910961614563  21.8452429402265 63.796662709405  21.2647070407373 63.6022292573539  C 20.6841711412479 63.4077958053026  20.1036352417588 63.2133623532517  19.5230993422693 62.8244954491493  C 15.2658360793479 60.8801609286375  15.2658360793479 59.324693312228  15.4593480458443 58.1580925999209  L 15.4593480458443 57.9636591478697  C 15.4593480458443 57.7692256958185  15.4593480458443 57.5747922437672  15.6528600123406 57.380358791716  C 15.8463719788371 56.7970584355626  15.8463719788371 56.4081915314601  15.6528600123406 55.8248911753068  C 15.4593480458443 55.4360242712044  15.2658360793479 55.0471573671019  14.8788121463549 54.6582904629997  C 14.6853001798585 54.074990106846  14.2982762468655 53.6861232027436  13.7177403473763 53.2972562986414  C 13.1372044478869 52.908389394539  12.5566685483977 52.5195224904365  12.1696446154048 52.1306555863343  L 11.9761326489083 52.1306555863343  C 11.395596749419 51.7417886822319  10.8150608499296 51.5473552301806  10.2345249504405 51.1584883260784  C 9.65398905095105 50.9640548740272  9.07345315146188 50.769621421976  8.29940528547604 50.5751879699249  L 6.36428562051174 49.9918876137712  C 5.20321382153315 49.603020709669  3.84863005605803 49.2141538055665  2.68755825707944 48.6308534494131  C 2.49404629058301 48.6308534494131  2.10702235759027 48.4364199973619  1.91351039109372 48.2419865453106  C 1.71999842459729 48.0475530932595  1.52648645810086 47.8531196412082  1.33297449160432 47.658686189157  C 0.945950558611571 47.2698192850548  0.752438592115141 46.8809523809523  0.55892662561871 46.4920854768501  C 0.55892662561871 46.2976520247989  0.365414659122166 46.1032185727477  0.55892662561871 45.9087851206965  C 0.55892662561871 45.7143516686452  0.752438592115141 45.5199182165941  0.752438592115141 45.3254847645428  C 0.945950558611571 44.9366178604406  1.13946252510789 44.5477509563382  1.52648645810086 44.1588840522357  C 1.91351039109372 43.7700171481335  2.30053432408647 43.3811502440311  2.68755825707944 43.18671679198  C 3.07458219007242 42.6034164358265  3.6551180895616 42.4089829837752  4.04214202255446 42.0201160796728  C 5.00970185503661 41.4368157235194  5.78374972102256 41.047948819417  6.55779758700817 40.4646484632635  C 7.52535741949032 39.6869146550587  8.10589331897972 39.1036142989052  8.29940528547604 38.3258804907003  C 8.6864292184689 37.5481466824957  8.87994118496545 36.9648463263421  8.49291725197247 36.3815459701887  L 8.49291725197247 36.1871125181374  L 8.10589331897972 35.7982456140351  C 8.10589331897972 35.6038121619838  7.71886938598675 35.4093787099328  7.52535741949032 35.2149452578816  C 7.33184545299389 35.0205118058303  7.13833348649734 34.8260783537792  6.94482152000114 34.6316449017279  C 6.75130955350471 34.2427779976257  6.75130955350471 34.0483445455745  6.75130955350471 33.8539110935233  C 6.75130955350471 33.2706107373697  7.13833348649734 32.6873103812162  8.10589331897972 31.9095765730116  C 9.07345315146188 31.1318427648067  10.428036916937 30.5485424086532  11.782620682412 29.9652420524996  C 12.1696446154048 29.7708086004484  12.9436924813906 29.3819416963462  13.5242283808799 29.187508244295  L 13.7177403473763 29.187508244295  C 14.2982762468655 28.9930747922438  15.0723241128514 28.7986413401925  15.6528600123406 28.6042078881413  C 16.23339591183 28.4097744360903  16.8139318113192 28.2153409840391  17.587979677305 28.0209075319879  C 17.9750036102978 27.8264740799367  18.1685155767942 27.8264740799367  18.5555395097872 27.6320406278855  L 18.7490514762837 27.6320406278855  C 18.9425634427802 27.6320406278855  19.3295873757729 27.4376071758343  19.5230993422693 27.4376071758343  C 20.8776831077445 27.048740271732  22.0387549067231 26.4654399155784  23.3933386721981 25.882139559425  C 24.5544104711768 25.1044057512201  25.3284583371624 24.5211053950667  25.7154822701553 24.1322384909643  C 26.2960181696445 23.7433715868618  26.489530136141 23.3545046827596  26.489530136141 23.1600712307084  C 26.489530136141 22.9656377786571  26.6830421026375 22.7712043266059  26.6830421026375 22.5767708745547  C 26.8765540691339 22.3823374225037  27.0700660356304 22.1879039704525  27.4570899686231 21.9934705184013  C 27.8441139016161 21.7990370663501  28.2311378346091 21.6046036142989  28.8116737340982 21.2157367101964  C 29.0051857005947 21.2157367101964  29.3922096335876 21.0213032581455  29.7792335665806 20.8268698060942  C 30.1662574995732 20.632436354043  30.5532814325662 20.632436354043  30.940305365559 20.4380029019918  C 31.7143532315448 20.2435694499406  32.681913064027 19.8547025458383  33.4559609300127 19.6602690937871  C 33.8429848630055 19.4658356417359  34.2300087959985 19.4658356417359  34.6170327289913 19.2714021896847  C 35.1975686284807 19.2714021896847  35.5845925614736 19.0769687376335  35.9716164944664 19.0769687376335  C 37.5197122264378 18.6881018335313  39.0678079584094 18.4936683814801  40.4223917238845 18.1048014773776  L 42.5510233553453 17.7159345732752  C 43.325071221331 17.5215011212242  44.0991190873168 17.327067669173  44.679654986806 17.327067669173  C 45.4537028527917 17.1326342171218  46.2277507187775 16.9382007650706  47.0017985847633 16.7437673130194  L 47.3888225177561 16.7437673130194  C 48.1628703837418 16.5493338609681  48.9369182497275 16.3549004089171  49.7109661157134 16.1604669568659  C 50.2915020152026 15.7716000527635  51.0655498811884 15.5771666007122  51.8395977471741 15.382733148661  C 52.4201336466635 15.1882996966098  52.8071575796563 14.9938662445588  53.3876934791457 14.7994327925076  C 53.9682293786349 14.6049993404564  54.3552533116278 14.4105658884052  54.7422772446207 14.216132436354  C 54.935789211117 14.216132436354  55.1293011776135 14.021698984303  55.1293011776135 14.021698984303  L 55.3228131441099 14.021698984303  C 56.4838849430886 13.4383986281493  57.6449567420672 13.0495317240469  61.7087080384924 12.077364463791  C 62.2892439379816 11.8829310117398  62.6762678709745 11.8829310117398  63.2568037704638 11.6884975596888  C 63.8373396699532 11.6884975596888  64.2243636029459 11.4940641076376  64.8048995024353 11.4940641076376  C 65.7724593349174 11.2996306555864  66.5465072009033 11.2996306555864  67.3205550668889 11.1051972035352  C 68.0946029328746 10.910763751484  68.8686507988605 10.910763751484  69.6426986648462 10.7163302994327  C 70.4167465308318 10.7163302994327  71.1907943968178 10.5218968473818  71.7713302963069 10.5218968473818  C 73.3194260282785 10.3274633953305  74.4804978272571 10.1330299432793  76.0285935592286 9.93859649122811  C 77.9637132241929 9.7441630391769  79.5118089561645 9.35529613507447  81.4469286211287 9.16086268302342  C 83.3820482860932 8.771995778921  84.7366320515682 8.57756232686978  85.8977038505469 8.38312887481857  C 86.8652636830291 7.99426197071637  87.6393115490147 7.79982851866515  88.4133594150004 7.60539506661394  C 88.8003833479933 7.41096161456272  89.1874072809862 7.41096161456272  89.5744312139792 7.21652816251151  C 89.961455146972 7.0220947104603  90.5419910464614 7.0220947104603  91.1225269459505 6.82766125840931  C 91.8965748119364 6.82766125840908  92.6706226779221 6.63322780635809  93.4446705439077 6.43879435430688  C 93.8316944769007 6.43879435430688  94.2187184098934 6.24436090225567  94.7992543093828 6.24436090225567  C 95.3797902088722 6.24436090225567  95.766814141865 6.04992745020445  96.3473500413544 6.04992745020445  C 100.604613304276 5.46662709405098  103.507292801723 5.27219364199976  106.022948366176 5.07776018994855  L 106.409972299169 5.07776018994855  C 106.796996232162 5.07776018994855  107.184020165155 5.07776018994855  107.571044098147 5.07776018994855  C 108.53860393063 5.07776018994855  109.506163763112 4.88332673789733  110.667235562091 4.88332673789733  C 111.441283428076 4.88332673789733  112.215331294062 4.68889328584612  112.989379160048 4.68889328584612  C 113.95693899253 4.68889328584612  114.924498825012 4.49445983379491  115.892058657494 4.49445983379491  C 116.416677946016 4.38903633867307  116.88440661369 4.34077437211772  117.326091246583 4.31868046005889  C 117.056463323566 4.37335867565446  116.773912604489 4.43390925472471  116.472594556984 4.49445983379491  C 115.505034724501 4.68889328584612  114.537474892019 4.68889328584612  113.376403093041 4.88332673789733  C 112.602355227055 4.88332673789733  111.634795394573 5.07776018994855  110.860747528587 5.07776018994855  C 109.699675729608 5.07776018994855  108.732115897126 5.27219364199976  107.571044098147 5.27219364199976  C 107.184020165155 5.27219364199976  106.796996232162 5.27219364199976  106.409972299169 5.27219364199976  L 106.022948366176 5.27219364199976  C 103.700804768219 5.46662709405098  101.185149203765 5.66106054610202  97.12139790734 6.24436090225567  C 96.5408620078508 6.24436090225567  95.9603261083614 6.43879435430688  95.5733021753684 6.43879435430688  C 95.1862782423757 6.43879435430688  94.7992543093828 6.63322780635809  94.4122303763899 6.63322780635809  C 93.6381825104042 6.82766125840908  93.0576466109148 6.82766125840908  92.4771107114256 7.0220947104603  C 91.8965748119364 7.0220947104603  91.5095508789434 7.21652816251151  90.929014979454 7.41096161456272  C 90.5419910464611 7.41096161456272  90.1549671134684 7.60539506661394  89.7679431804754 7.60539506661394  C 88.9938953144898 7.79982851866515  88.2198474485041 7.99426197071637  87.0587756495255 8.38312887481857  C 85.8977038505469 8.57756232686978  84.3496081185754 8.96642923097221  82.4144884536108 9.16086268302342  C 80.6728807551431 9.54972958712568  78.9312730566751 9.93859649122811  76.9961533917108 10.1330299432793  C 75.4480576597392 10.3274633953305  74.0934738942641 10.5218968473815  72.5453781622928 10.7163302994327  C 71.9648422628034 10.7163302994327  71.1907943968178 10.910763751484  70.4167465308318 10.910763751484  C 69.6426986648462 10.910763751484  68.8686507988605 11.1051972035352  68.2881148993711 11.2996306555864  C 67.5140670333855 11.2996306555864  66.7400191673997 11.4940641076376  65.7724593349174 11.4940641076376  C 65.3854354019247 11.4940641076376  64.8048995024353 11.6884975596886  64.4178755694426 11.6884975596886  C 64.0308516364496 11.6884975596886  63.4503157369602 11.8829310117398  63.0632918039674 12.077364463791  C 59.1930524740387 12.8550982719957  58.2254926415566 13.4383986281493  57.064420842578 14.021698984303  L 56.8709088760814 14.021698984303  C 56.677396909585 14.021698984303  56.4838849430886 14.216132436354  56.4838849430886 14.216132436354  C 56.0968610100956 14.4105658884052  55.7098370771029 14.6049993404564  54.935789211117 14.7994327925076  C 54.5487652781243 14.9938662445588  53.9682293786349 15.1882996966098  53.3876934791457 15.382733148661  C 52.6136456131597 15.7716000527635  52.0331097136706 15.9660335048147  51.0655498811884 16.1604669568659  C 50.2915020152026 16.3549004089171  49.5174541492169 16.5493338609681  48.7434062832313 16.7437673130194  L 48.3563823502383 16.7437673130194  C 47.5823344842527 16.9382007650706  46.8082866182667 17.1326342171218  46.0342387522811 17.327067669173  C 45.2601908862952 17.5215011212242  44.679654986806 17.7159345732752  43.7120951543238 17.9103680253264  L 41.5834635228631 18.2992349294288  C 40.2288797573881 18.4936683814801  38.874295991913 18.6881018335313  37.3262002599414 19.0769687376335  C 36.9391763269484 19.0769687376335  36.5521523939558 19.2714021896847  36.1651284609628 19.2714021896847  C 35.7781045279701 19.2714021896847  35.3910805949771 19.4658356417359  35.0040566619842 19.6602690937871  C 34.4235207624949 19.8547025458383  33.4559609300127 20.2435694499406  32.681913064027 20.4380029019918  C 32.294889131034 20.632436354043  31.9078651980413 20.8268698060942  31.5208412650484 20.8268698060942  C 31.3273292985519 21.0213032581455  30.9403053655592 21.2157367101964  30.7467933990627 21.2157367101964  C 30.3597694660698 21.6046036142989  29.9727455330768 21.7990370663501  29.5857216000841 21.9934705184013  C 29.1986976670912 22.1879039704525  29.0051857005947 22.3823374225037  29.0051857005947 22.3823374225037  C 28.8116737340982 22.5767708745547  28.8116737340982 22.7712043266059  28.8116737340982 22.9656377786571  C 28.6181617676017 23.3545046827596  28.4246498011055 23.5489381348106  28.0376258681125 24.1322384909643  C 27.4570899686233 24.5211053950667  26.6830421026375 25.1044057512201  25.3284583371624 25.6877061073737  C 23.9738745716874 26.4654399155784  22.8128027727087 26.8543068196808  21.4582190072337 27.4376071758343  C 21.2647070407373 27.4376071758343  20.8776831077445 27.6320406278855  20.6841711412479 27.6320406278855  L 20.4906591747515 27.6320406278855  C 20.1036352417588 27.8264740799367  19.9101232752623 28.0209075319879  19.5230993422693 28.0209075319879  C 18.9425634427802 28.2153409840391  18.1685155767942 28.4097744360903  17.587979677305 28.6042078881413  C 16.8139318113192 28.7986413401925  16.23339591183 28.9930747922438  15.6528600123406 29.187508244295  L 15.4593480458443 29.187508244295  C 14.8788121463549 29.5763751483972  14.2982762468655 29.7708086004484  13.9112523138728 29.9652420524996  C 12.5566685483977 30.5485424086532  11.395596749419 31.1318427648067  10.428036916937 31.9095765730113  L 10.2388482696894 31.9095759201513  C 9.59092616853525 32.5921451615515  9.26696511795831 33.1258114015119  9.26696511795831 33.6594776414721  C 9.26696511795831 33.8539110935233  9.46047708445485 34.0483445455745  9.46047708445485 34.2427779976257  C 9.65398905095105 34.437211449677  9.8475010174476 34.6316449017279  10.041012983944 34.8260783537792  C 10.2345249504405 35.0205118058303  10.6215488834334 35.2149452578816  10.8150608499296 35.4093787099328  C 10.8150608499296 35.6038121619838  11.0085728164262 35.6038121619838  11.0085728164262 35.7982456140351  C 11.0085728164262 35.7982456140351  11.2020847829226 35.9926790660862  11.2020847829226 35.9926790660862  C 11.5891087159156 36.5759794222399  11.395596749419 37.1592797783933  11.0085728164262 37.9370135865979  C 10.8150608499296 38.909180846854  10.2345249504405 39.4924812030074  9.26696511795831 40.2702150112123  C 8.49291725197247 40.8535153673657  7.71886938598675 41.4368157235194  6.75130955350471 42.0201160796728  C 6.17077365401531 42.2145495317241  5.78374972102256 42.6034164358265  5.39672578802958 42.7978498878776  C 5.00970185503661 43.18671679198  4.62267792204386 43.3811502440311  4.235653989051 43.7700171481335  C 4.04214202255446 44.1588840522357  3.6551180895616 44.353317504287  3.6551180895616 44.7421844083895  C 3.6551180895616 44.9366178604406  3.46160612306528 45.1310513124919  3.46160612306528 45.3254847645428  C 3.46160612306528 45.5199182165941  3.46160612306528 45.7143516686452  3.6551180895616 45.9087851206965  C 3.6551180895616 46.4920854768501  3.84863005605803 46.8809523809523  4.235653989051 47.2698192850548  C 4.235653989051 47.2698192850548  4.62267792204386 47.658686189157  4.81618988854018 47.8531196412082  C 5.00970185503661 48.0475530932595  5.20321382153315 48.0475530932595  5.59023775452602 48.2419865453106  C 6.55779758700817 48.8252869014643  7.91238135248329 49.0197203535153  9.07345315146188 49.4085872576177  L 11.0085728164262 49.9918876137712  C 11.782620682412 50.1863210658223  12.3631565819012 50.3807545178736  12.9436924813906 50.5751879699249  C 13.7177403473763 50.769621421976  14.2982762468655 51.1584883260784  14.8788121463549 51.5473552301806  L 15.0723241128514 51.7417886822319  C 15.4593480458443 51.9362221342831  16.23339591183 52.3250890383855  16.6204198448228 52.7139559424877  C 17.2009557443122 53.2972562986414  17.587979677305 53.6861232027436  17.9750036102978 54.2694235588972  C 18.3620275432908 54.6582904629997  18.5555395097872 55.0471573671019  18.7490514762837 55.4360242712044  C 18.9425634427802 56.0193246273577  18.9425634427802 56.6026249835114  18.7490514762837 56.9914918876138  C 18.7490514762837 57.185925339665  18.7490514762837 57.380358791716  18.7490514762837 57.5747922437672  L 18.7490514762837 57.7692256958185  C 18.7490514762837 59.1302598601768  18.5555395097872 60.491294024535  22.6192908062125 62.2411950929956  C 23.1998267057016 62.4356285450468  23.780362605191 62.8244954491493  24.1673865381838 63.0189289012004  C 24.7479224376732 63.2133623532515  25.3284583371624 63.4077958053026  25.9089942366518 63.6022292573539  C 27.0700660356304 63.796662709405  28.0376258681125 63.9910961614563  29.1986976670912 64.1855296135075  C 30.1662574995732 64.3799630655585  31.3273292985519 64.5743965176098  32.4884010975305 64.7688299696609  C 33.6494728965091 64.9632634217121  34.6170327289913 64.9632634217121  35.9716164944664 65.1576968737634  C 38.48727205892 65.3521303258146  40.6159036903807 65.5465637778658  43.1315592548344 65.935430681968  C 46.2277507187775 66.3242975860704  48.9369182497275 66.9075979422241  51.8395977471741 67.8797652024799  C 54.935789211117 68.6574990106847  57.2579328090742 69.4352328188893  59.1930524740387 70.4074000791451  C 60.9346601725065 70.9907004352988  62.0957319714853 71.7684342435034  63.2568037704638 72.5461680517083  C 63.8373396699532 72.9350349558107  64.4178755694426 73.3239018599129  64.9984114689317 73.7127687640153  C 65.7724593349174 74.1016356681175  66.5465072009033 74.49050257222  67.5140670333855 74.6849360242712  C 68.4816268658676 75.0738029283737  69.8362106313426 75.4626698324759  71.1907943968178 75.8515367365783  C 71.9648422628034 76.0459701886296  72.7388901287893 76.2404036406807  73.7064499612713 76.4348370927318  C 74.6740097937535 76.6292705447829  75.6415696262357 76.8237039968342  76.8026414252142 77.0181374488853  C 85.3171679510575 78.3791716132437  91.1225269459505 78.3791716132437  96.9278859408436 78.3791716132437  L 97.7019338068294 78.3791716132437  C 98.4759816728151 78.3791716132437  99.2500295388007 78.3791716132437  100.217589371283 78.3791716132437  C 102.53973296924 78.3791716132437  104.861876567198 78.3791716132437  107.571044098147 78.3791716132437  C 109.506163763112 78.3791716132437  111.441283428076 78.5736050652948  113.569915059537 78.5736050652948  C 115.892058657494 78.7680385173459  118.214202255452 78.962471969397  120.729857819905 79.1569054214483  C 123.052001417863 79.3513388734996  124.987121082827 79.5457723255507  126.728728781295 79.7402057776019  L 127.50277664728 79.9346392296529  C 129.437896312245 80.1290726817042  131.179504010713 80.3235061337554  132.921111709181 80.7123730378578  C 134.275695474656 80.9068064899091  135.823791206627 81.2956733940113  137.178374972102 81.4901068460624  L 140.855102335535 82.267840654267  C 143.177245933492 82.8511410104207  145.692901497946 83.4344413665742  149.176116894881 83.8233082706766  C 150.143676727364 84.0177417227278  150.917724593349 84.0177417227278  151.885284425831 84.2121751747791  C 152.659332291817 84.2121751747791  153.820404090796 84.40660862683  154.981475889774 84.40660862683  C 157.303619487732 84.6010420788813  159.819275052185 84.7954755309324  162.721954549632 84.7954755309324  L 163.108978482625 84.7954755309324  C 164.4635622481 84.7954755309324  165.818146013575 84.7954755309324  166.979217812553 84.7954755309324  C 168.140289611532 84.7954755309324  169.494873377007 84.7954755309324  170.655945175986 84.7954755309324  C 172.784576807446 84.7954755309324  174.913208438907 84.6010420788813  176.848328103871 84.6010420788813  C 178.976959735332 84.40660862683  180.525055467304 84.40660862683  181.879639232779 84.2121751747791  C 183.42773496475 84.0177417227278  184.782318730225 83.8233082706766  186.523926428693 83.6288748186254  L 186.71743839519 83.6288748186254  C 189.620117892636 83.2400079145232  192.716309356579 82.8511410104207  196.393036720012 82.4622741063183  C 200.650299982933 82.0734072022159  205.101075212351 81.8789737501648  210.325898307755 81.6845402981137  C 216.131257302648 81.4901068460624  220.582032532066 81.4901068460624  224.452271861995 81.6845402981137  C 225.22631972798 81.6845402981137  225.80685562747 81.6845402981137  226.580903493455 81.8789737501648  L 227.161439392945 81.8789737501648  C 227.935487258931 81.8789737501648  228.903047091413 81.8789737501648  229.677094957398 82.0734072022159  C 231.22519068937 82.0734072022159  232.773286421341 82.267840654267  234.321382153313 82.4622741063183  L 234.514894119809 82.4622741063183  C 235.869477885284 82.6567075583696  237.611085583752 82.6567075583696  239.35269328222 82.8511410104207  L 239.93322918171 82.8511410104207  C 241.287812947185 82.8511410104207  242.835908679156 83.0455744624718  244.384004411128 83.0455744624718  C 248.484851303084 83.0455744624718  252.765251714335 82.8651659264189  257.349306166389 82.4622741063183  C 262.1871053288 82.0734072022161  266.057344658728 81.4901068460624  269.347048089168 80.7123730378578  C 270.701631854643 80.5179395858066  271.669191687125 80.1290726817042  272.636751519607 79.9346392296532  L 273.0237754526 79.7402057776019  C 274.184847251579 79.3513388734996  275.152407084061 78.9624719693973  276.119966916543 78.7680385173459  L 276.31347888304 78.7680385173459  C 277.281038715522 78.3791716132437  278.248598548004 78.1847381611924  279.216158380486 77.79587125709  C 279.796694279975 77.601437805039  280.377230179465 77.4070043529878  280.957766078954 77.2125709009366  L 281.344790011947 77.0181374488853  C 281.73181394494 76.8237039968342  282.312349844429 76.8237039968342  282.699373777422 76.6292705447829  C 285.215029341876 75.8515367365783  288.698244738811 75.2682363804248  293.342531934726 74.49050257222  C 297.406283231151 73.9072022160666  301.083010594583 73.3239018599129  304.953249924512 73.1294684078617  C 308.049441388455 72.9350349558107  310.952120885902 72.7406015037595  313.661288416852 72.7406015037595  L 313.854800383348 72.7406015037595  C 315.40289611532 72.7406015037595  316.757479880795 72.5461680517083  318.11206364627 72.5461680517083  C 319.273135445248 72.5461680517083  320.627719210723 72.351734599657  322.369326909191 72.1573011476058  C 323.917422641163 71.9628676955547  325.465518373134 71.7684342435036  327.013614105106 71.5740007914524  C 327.787661971091 71.3795673394012  328.755221803573 71.1851338873499  329.529269669559 71.1851338873499  C 330.303317535545 70.9907004352988  331.077365401531 70.7962669832475  331.851413267517 70.6018335311966  L 332.044925234013 70.6018335311966  C 333.786532932481 70.2129666270941  335.141116697956 69.6296662709404  336.302188496934 69.2407993668382  C 336.882724396424 69.046365914787  337.463260295913 68.8519324627358  337.850284228906 68.6574990106847  C 338.237308161899 68.4630655586334  338.624332094892 68.2686321065823  339.011356027885 68.0741986545312  C 340.36593979336 67.2964648463266  340.946475692849 66.5187310381217  341.720523558835 65.9354306819682  L 342.688083391317 64.7688299696612  C 343.07510732431 64.3799630655585  343.462131257303 63.9910961614563  344.042667156792 63.6022292573539  C 344.623203056281 63.2133623532517  345.397250922267 62.8244954491493  346.171298788253 62.4356285450468  L 346.558322721246 62.2411950929956  C 347.332370587231 61.8523281888934  348.106418453217 61.4634612847909  349.267490252196 61.0745943806885  C 350.428562051174 60.6857274765863  351.589633850153 60.2968605724839  352.750705649132 59.9079936683814  C 353.718265481614 59.5191267642792  354.685825314096 59.324693312228  355.846897113075 59.1302598601768  C 357.394992845046 58.7413929560744  358.749576610521 58.5469595040233  360.297672342493 58.3525260519721  C 360.878208241982 58.3525260519721  361.265232174975 58.1580925999209  361.845768074464 58.1580925999209  L 362.426303973953 58.1580925999209  C 365.909519370889 57.5747922437672  369.392734767825 56.9914918876138  371.908390332278 55.0471573671019  C 372.295414265272 54.8527239150509  372.682438198264 54.4638570109485  372.875950164761 54.2694235588972  C 373.069462131257 54.074990106846  373.262974097754 53.8805566547949  373.45648606425 53.6861232027436  C 373.649998030747 53.2972562986414  373.843509997243 52.908389394539  373.843509997243 52.5195224904368  C 373.843509997243 52.1306555863343  373.843509997243 51.9362221342831  373.649998030747 51.5473552301806  C 373.45648606425 51.1584883260784  373.262974097754 50.9640548740272  373.069462131257 50.5751879699249  C 372.488926231768 49.9918876137714  372.101902298775 49.2141538055665  372.101902298775 48.6308534494131  C 371.908390332278 47.8531196412084  371.908390332278 47.0753858330036  372.488926231768 46.1032185727477  C 372.875950164761 45.3254847645428  373.45648606425 44.5477509563382  374.617557863229 43.9644506001848  C 375.391605729214 43.3811502440311  376.359165561696 43.18671679198  377.326725394179 42.6034164358265  C 377.907261293668 42.4089829837752  378.294285226661 42.2145495317241  378.681309159654 42.0201160796728  C 379.068333092647 41.8256826276216  379.45535702564 41.6312491755706  379.648868992136 41.4368157235194  C 380.035892925129 41.2423822714682  380.229404891625 40.8535153673657  380.229404891625 40.6590819153146  C 380.229404891625 40.6590819153146  380.422916858122 40.2702150112123  380.422916858122 40.0757815591611  C 380.422916858122 39.8813481071099  380.422916858122 39.6869146550587  380.229404891625 39.4924812030074  C 379.842380958633 37.9370135865979  377.713749327172 36.9648463263421  375.778629662207 35.9926790660862  L 375.585117695711 35.7982456140351  C 375.391605729214 35.603812161984  375.004581796221 35.603812161984  374.811069829725 35.4093787099328  C 374.037021963739 35.0205118058303  373.262974097754 34.6316449017279  372.488926231768 34.2427779976257  C 371.908390332278 33.8539110935233  371.521366399286 33.6594776414721  371.134342466293 33.2706107373699  C 370.553806566804 32.8817438332674  370.16678263381 32.492876929165  369.779758700818 32.1040100250628  C 369.392734767825 31.7151431209604  369.199222801328 31.5207096689091  369.005710834832 31.1318427648067  L 369.005710834832 30.9374093127557  C 368.812198868336 30.7429758607045  368.618686901839 30.354108956602  368.618686901839 30.1596755045508  C 368.618686901839 29.9652420524996  368.618686901839 29.7708086004486  368.812198868336 29.5763751483974  L 369.005710834832 28.9930747922438  C 369.199222801329 28.6042078881413  369.392734767825 28.2153409840391  369.199222801329 27.8264740799367  C 369.199222801329 27.8264740799367  369.005710834832 27.6320406278855  369.005710834832 27.4376071758344  C 369.005710834832 27.2431737237832  368.812198868336 27.2431737237832  368.618686901839 27.048740271732  C 368.231662968847 26.8543068196808  367.844639035854 26.4654399155784  367.264103136364 26.0765730114762  C 367.070591169868 25.882139559425  366.683567236875 25.6877061073737  366.490055270378 25.6877061073737  C 366.103031337386 25.4932726553225  365.909519370889 25.4932726553225  365.522495437896 25.2988392032713  C 364.941959538407 25.1044057512203  364.361423638918 24.9099722991691  363.587375772932 24.5211053950667  C 362.813327906946 24.3266719430155  362.232792007457 24.1322384909644  361.652256107967 23.937805038913  C 361.071720208478 23.743371586862  360.297672342493 23.5489381348108  359.717136443003 23.3545046827596  L 359.523624476507 23.3545046827596  C 357.975528744535 23.1600712307084  356.62094497906 22.7712043266059  355.266361213585 22.3823374225037  C 353.718265481614 21.9934705184013  352.170169749642 21.4101701622477  351.009097950664 20.8268698060942  C 349.461002218692 20.2435694499406  348.49344238621 19.8547025458383  347.912906486721 19.4658356417359  C 347.719394520224 19.4658356417359  347.719394520224 19.2714021896847  347.719394520224 19.2714021896847  C 347.525882553728 19.2714021896847  347.525882553728 19.0769687376335  347.332370587231 19.0769687376335  C 347.138858620735 18.8825352855823  346.945346654238 18.6881018335313  346.751834687742 18.6881018335313  C 346.558322721246 18.4936683814801  346.364810754749 18.2992349294288  346.171298788253 18.2992349294288  C 345.977786821756 18.1048014773776  345.78427485526 18.1048014773776  345.397250922267 17.9103680253264  C 344.623203056281 17.5215011212242  343.462131257303 17.1326342171218  341.914035525331 16.5493338609681  L 343.462131257303 16.5493338609681  C 345.010226989274 17.1326342171218  346.364810754749 17.5215011212242  347.138858620735 17.9103680253264  C 347.525882553728 18.1048014773776  347.719394520224 18.2992349294288  347.912906486721 18.2992349294288  C 348.106418453217 18.4936683814801  348.299930419714 18.6881018335313  348.49344238621 18.6881018335313  C 348.686954352706 18.8825352855823  348.880466319203 18.8825352855823  349.073978285699 19.0769687376335  C 349.267490252196 19.0769687376335  349.267490252196 19.2714021896847  349.461002218692 19.2714021896847  C 349.461002218692 19.2714021896847  349.654514185189 19.4658356417359  349.654514185189 19.4658356417359  C 350.235050084678 19.8547025458383  351.20260991716 20.2435694499406  352.557193682635 20.8268698060942  C 353.91177744811 21.4101701622477  355.072849247089 21.7990370663501  356.814456945557 22.1879039704525  C 358.169040711032 22.5767708745547  359.33011251001 22.9656377786571  360.684696275485 23.1600712307084  L 360.878208241982 23.1600712307084  C 361.652256107967 23.3545046827596  362.232792007457 23.5489381348106  363.006839873442 23.7433715868618  C 363.587375772932 23.937805038913  364.361423638918 24.1322384909643  365.135471504904 24.3266719430155  C 365.909519370889 24.5211053950667  366.490055270378 24.9099722991689  367.264103136364 25.1044057512201  C 367.651127069357 25.2988392032713  368.03815100235 25.4932726553225  368.231662968846 25.4932726553225  C 368.618686901839 25.6877061073737  368.812198868336 25.882139559425  369.199222801328 25.882139559425  C 369.779758700818 26.2710064635272  370.360294600307 26.4654399155784  370.7473185333 26.8543068196808  C 370.940830499796 27.048740271732  371.134342466293 27.048740271732  371.134342466293 27.2431737237831  C 371.327854432789 27.4376071758343  371.327854432789 27.4376071758343  371.327854432789 27.4376071758343  C 371.521366399286 28.0209075319879  371.327854432789 28.4097744360901  371.327854432789 28.7986413401925  L 371.134342466293 29.3819416963462  C 371.134342466293 29.5763751483972  370.940830499796 29.7708086004484  370.940830499796 29.9652420524996  C 370.940830499796 30.1596755045508  371.134342466293 30.5485424086532  371.327854432789 30.7429758607045  L 371.327854432789 30.9374093127555  C 371.521366399286 31.1318427648067  371.714878365782 31.5207096689091  372.101902298775 31.9095765730113  C 372.488926231768 32.2984434771138  372.875950164761 32.6873103812162  373.45648606425 32.8817438332674  C 373.843509997243 33.2706107373697  374.230533930236 33.4650441894208  374.811069829725 33.6594776414721  C 375.391605729214 34.0483445455745  376.1656535952 34.4372114496767  376.939701461186 34.8260783537792  C 377.326725394179 35.0205118058303  377.520237360675 35.0205118058303  377.907261293668 35.2149452578816  L 378.100773260165 35.4093787099328  C 380.035892925129 36.3815459701887  382.358036523086 37.3537132304446  382.938572422575 39.1036142989052  C 382.938572422575 39.2980477509562  383.132084389072 39.4924812030074  383.132084389072 39.6869146550587  C 383.132084389072 39.8813481071099  383.132084389072 40.0757815591611  382.938572422575 40.2702150112121  C 382.745060456079 40.6590819153146  382.551548489583 40.8535153673657  382.358036523086 41.2423822714682  C 381.777500623597 41.8256826276216  381.390476690604 42.0201160796728  380.809940791115 42.2145495317241  C 380.422916858122 42.4089829837752  380.035892925129 42.6034164358265  379.45535702564 42.7978498878776  C 378.487797193158 43.18671679198  377.520237360675 43.5755836960823  376.939701461186 43.9644506001848  C 375.972141628704 44.5477509563382  375.391605729214 45.1310513124919  375.004581796221 46.1032185727477  C 374.424045896732 46.8809523809523  374.230533930236 47.658686189157  374.617557863229 48.4364199973619  C 374.811069829725 49.0197203535153  375.198093762718 49.603020709669  375.778629662207 50.3807545178736  C 375.972141628704 50.769621421976  376.1656535952 50.9640548740272  376.359165561696 51.3529217781295  C 376.552677528193 51.7417886822319  376.552677528193 52.1306555863343  376.552677528193 52.5195224904365  C 376.552677528193 52.908389394539  376.359165561696 53.2972562986414  376.1656535952 53.6861232027436  C 375.972141628704 53.8805566547949  375.778629662207 54.074990106846  375.585117695711 54.4638570109485  C 375.391605729214 54.6582904629995  375.004581796221 54.8527239150507  374.617557863229 55.2415908191531  C 371.908390332278 57.380358791716  368.03815100235 57.9636591478697  364.554935605414 58.7413929560744  L 363.974399705925 58.7413929560744  C 363.393863806436 58.7413929560744  363.006839873442 58.9358264081255  362.426303973953 58.9358264081255  C 361.071720208478 59.1302598601768  359.717136443003 59.3246933122277  358.169040711032 59.7135602163302  C 357.20148087855 59.9079936683814  356.233921046067 60.2968605724839  355.266361213585 60.491294024535  C 353.91177744811 60.8801609286372  352.944217615628 61.2690278327398  351.783145816649 61.6578947368421  C 350.815585984167 62.0467616409444  349.848026151685 62.4356285450468  349.267490252196 62.8244954491493  L 348.880466319203 63.0189289012002  C 348.106418453217 63.4077958053026  347.525882553728 63.796662709405  346.945346654239 64.1855296135075  C 346.558322721246 64.5743965176098  346.171298788253 64.9632634217121  345.78427485526 65.3521303258146  L 345.010226989274 66.5187310381217  C 344.429691089785 67.2964648463263  343.655643223799 68.074198654531  342.301059458324 68.8519324627358  C 341.914035525331 69.046365914787  341.527011592338 69.2407993668382  341.139987659345 69.4352328188893  C 340.559451759856 69.6296662709404  340.172427826863 69.8240997229917  339.398379960878 70.0185331750429  C 338.043796195402 70.4074000791451  336.689212429927 70.9907004352988  334.947604731459 71.3795673394012  L 334.754092764963 71.3795673394012  C 333.980044898977 71.5740007914521  333.012485066495 71.7684342435034  332.238437200509 71.9628676955547  C 331.270877368027 72.1573011476058  330.496829502041 72.351734599657  329.529269669559 72.5461680517083  C 327.787661971091 72.7406015037593  326.23956623912 73.1294684078617  324.497958540652 73.3239018599129  C 322.756350842184 73.5183353119642  321.208255110213 73.7127687640151  319.853671344737 73.7127687640151  C 318.305575612766 73.7127687640151  316.757479880794 73.9072022160664  315.402896115319 73.9072022160664  L 315.209384148823 73.9072022160664  C 312.500216617873 73.9072022160664  309.791049086923 74.1016356681175  306.888369589476 74.2960691201688  C 303.018130259548 74.49050257222  299.534914862612 75.0738029283734  295.664675532683 75.657103284527  C 291.213900303265 76.4348370927318  287.924196872826 77.0181374488853  285.408541308372 77.6014378050388  C 285.021517375379 77.79587125709  284.44098147589 77.79587125709  284.053957542897 77.9903047091412  L 283.666933609904 78.1847381611924  C 283.086397710415 78.3791716132434  282.505861810925 78.5736050652947  281.925325911436 78.5736050652947  C 280.957766078954 78.962471969397  279.990206246472 79.1569054214483  279.02264641399 79.5457723255507  L 278.829134447493 79.5457723255507  C 277.668062648514 79.9346392296529  276.700502816032 80.3235061337554  275.539431017054 80.5179395858066  L 275.345919050557 80.9068064899091  C 274.184847251579 81.2956733940115  273.0237754526 81.4901068460624  271.669191687125 81.8789737501648  Z M 119.37527405443 4.1055929296927  L 118.988250121437 4.1055929296927  C 118.455256693456 4.1055929296927  117.922263265475 4.19778192026268  117.326091245947 4.3186804601952  C 117.699009351612 4.30002638174392  118.05336178678 4.30002638174392  118.407714221948 4.30002638174392  L 118.794738154941 4.30002638174392  C 119.568786020926 4.30002638174392  120.149321920416 4.1055929296927  120.923369786402 4.1055929296927  C 121.503905685891 4.1055929296927  121.890929618884 3.91115947764149  122.471465518373 3.91115947764149  L 123.826049283848 3.71672602559028  C 124.79360911633 3.52229257353906  125.761168948812 3.32785912148807  127.115752714288 3.32785912148807  C 127.50277664728 3.32785912148807  127.889800580273 3.32785912148807  128.08331254677 3.13342566943686  C 128.470336479763 3.13342566943686  128.857360412755 3.13342566943686  129.244384345748 2.93899221738565  C 130.211944178231 2.93899221738565  131.179504010713 2.74455876533443  132.340575809691 2.74455876533443  L 132.534087776188 2.74455876533443  C 133.114623675677 2.74455876533443  133.50164760867 2.74455876533443  134.082183508159 2.55012531328322  C 134.662719407649 2.55012531328322  135.049743340641 2.55012531328322  135.630279240131 2.55012531328322  C 136.597839072613 2.55012531328322  137.371886938599 2.55012531328322  138.145934804584 2.35569186123217  C 139.113494637067 2.35569186123217  139.694030536556 2.35569186123217  140.274566436045 2.35569186123217  C 140.855102335535 2.35569186123217  141.435638235024 2.35569186123217  142.209686101009 2.35569186123217  C 143.370757899988 2.35569186123217  144.531829698967 2.35569186123217  146.079925430938 2.35569186123217  C 147.821533129406 2.35569186123217  149.563140827874 2.16125840918096  151.304748526342 2.16125840918096  C 153.433380157803 1.96682495712975  154.981475889774 1.96682495712975  156.336059655249 1.77239150507853  C 156.529571621746 1.77239150507853  156.723083588242 1.77239150507853  157.110107521235 1.77239150507853  L 157.303619487732 1.77239150507853  C 157.690643420724 1.77239150507853  157.884155387221 1.77239150507853  158.077667353717 1.77239150507853  C 158.658203253206 1.77239150507853  159.045227186199 1.57795805302732  159.625763085689 1.57795805302732  C 160.206298985178 1.57795805302732  160.593322918171 1.3835246009761  161.17385881766 1.3835246009761  L 161.367370784157 1.3835246009761  C 161.947906683646 1.3835246009761  162.528442583135 1.18909114892512  163.108978482625 1.18909114892512  C 164.657074214596 0.994657696873901  166.398681913064 0.994657696873901  168.527313544525 0.994657696873901  L 168.785330468275 0.605790792771472  C 170.710939387757 0.605790792771472  172.314929366235 0.605790792771472  173.752136639929 0.605790792771472  C 174.332672539418 0.605790792771472  174.913208438907 0.605790792771472  175.493744338397 0.605790792771472  L 175.687256304893 0.605790792771472  C 176.267792204382 0.605790792771472  176.848328103872 0.605790792771472  177.428864003361 0.605790792771472  L 177.622375969857 0.605790792771472  C 178.202911869347 0.605790792771472  178.783447768836 0.605790792771472  179.363983668325 0.605790792771472  C 179.751007601318 0.605790792771472  179.944519567814 0.605790792771472  180.331543500807 0.605790792771472  L 180.525055467304 0.605790792771472  C 180.7185674338 0.605790792771472  181.105591366793 0.605790792771472  181.29910333329 0.605790792771472  C 182.653687098765 0.605790792771472  184.395294797233 0.605790792771472  186.71743839519 0.605790792771472  C 188.846070026651 0.605790792771472  190.394165758622 0.411357340720258  192.13577345709 0.411357340720258  C 193.490357222565 0.411357340720258  194.651429021544 0.216923888669044  195.812500820522 0.216923888669044  C 196.393036720012 0.216923888669044  196.973572619501 0.216923888669044  197.55410851899 0.216923888669044  C 198.13464441848 0.216923888669044  198.715180317969 0.216923888669044  199.489228183955 0.216923888669044  C 200.26327604994 0.216923888669044  201.037323915926 0.216923888669044  201.811371781912 0.216923888669044  C 202.198395714905 0.216923888669044  202.778931614394 0.216923888669044  203.165955547387 0.216923888669044  C 203.55297948038 0.216923888669044  203.940003413373 0.216923888669044  204.520539312862 0.216923888669044  L 204.714051279358 0.216923888669044  C 205.681611111841 0.216923888669044  206.649170944323 0.216923888669044  207.616730776805 0.216923888669044  C 208.003754709798 0.216923888669044  208.390778642791 0.216923888669044  208.777802575783 0.216923888669044  C 208.97131454228 0.216923888669044  209.358338475273 0.216923888669044  209.745362408266 0.216923888669044  C 211.099946173741 0.216923888669044  212.261017972719 0.411357340720258  213.228577805201 0.411357340720258  L 214.776673537173 0.605790792771472  C 215.550721403159 0.800224244822687  216.131257302648 0.800224244822687  216.711793202137 0.800224244822687  C 217.485841068123 0.994657696873901  218.259888934109 0.994657696873901  219.033936800094 0.994657696873901  L 219.420960733087 0.994657696873901  C 220.195008599073 1.18909114892489  221.162568431555 1.18909114892489  222.130128264038 1.18909114892489  C 223.291200063016 1.18909114892489  224.258759895498 1.18909114892489  225.22631972798 1.18909114892489  C 226.193879560463 1.18909114892489  226.967927426448 1.18909114892489  227.741975292434 1.18909114892489  C 228.709535124916 1.18909114892489  229.677094957398 1.18909114892489  230.644654789881 1.18909114892489  C 231.031678722873 1.18909114892489  231.22519068937 1.18909114892489  231.612214622363 1.18909114892489  L 231.999238555356 1.18909114892489  C 234.127870186816 1.18909114892489  236.64352575127 1.18909114892489  240.707277047695 1.3835246009761  C 241.287812947185 1.3835246009761  241.868348846674 1.3835246009761  242.255372779667 1.3835246009761  C 242.835908679156 1.57795805302732  243.222932612149 1.57795805302732  243.609956545142 1.57795805302732  C 244.384004411128 1.57795805302732  245.158052277113 1.77239150507853  245.738588176603 1.77239150507853  C 246.319124076092 1.77239150507853  246.899659975581 1.96682495712975  247.48019587507 1.96682495712975  C 248.06073177456 1.96682495712975  248.447755707553 2.16125840918079  249.028291607042 2.16125840918079  C 250.189363406021 2.355691861232  251.156923238503 2.355691861232  252.317995037481 2.55012531328322  C 253.672578802956 2.74455876533443  255.414186501424 2.93899221738565  257.349306166389 3.13342566943686  C 259.47793779785 3.32785912148785  261.219545496318 3.52229257353906  262.961153194785 3.52229257353906  C 264.509248926757 3.52229257353906  265.863832692232 3.71672602559028  267.218416457707 3.71672602559028  C 267.798952357196 3.71672602559028  268.379488256686 3.71672602559028  269.153536122671 3.71672602559028  C 269.734072022161 3.71672602559028  270.508119888146 3.71672602559028  270.895143821139 3.7167260255905  C 271.862703653621 3.7167260255905  272.636751519607 3.91115947764172  273.410799385593 3.91115947764172  C 273.797823318586 4.10559292969293  274.378359218075 4.10559292969293  274.765383151068 4.10559292969293  C 275.345919050557 4.10559292969293  275.73294298355 4.30002638174392  276.313478883039 4.30002638174392  C 280.570742145961 4.68889328584635  282.118837877932 5.07776018994878  283.666933609904 5.46662709405098  L 283.8604455764 5.46662709405098  C 284.053957542897 5.46662709405098  284.247469509393 5.66106054610219  284.44098147589 5.66106054610219  C 285.021517375379 5.66106054610219  285.795565241365 5.85549399815341  286.569613107351 6.04992745020462  C 287.15014900684 6.24436090225583  287.730684906329 6.24436090225583  288.504732772315 6.43879435430705  C 289.278780638301 6.63322780635809  290.246340470783 6.63322780635809  291.213900303265 6.82766125840931  C 291.987948169251 7.02209471046052  292.955508001733 7.02209471046052  293.729555867719 7.21652816251174  L 294.116579800711 7.21652816251174  C 294.890627666697 7.41096161456295  295.85818749918 7.60539506661394  296.632235365165 7.60539506661394  C 297.406283231151 7.60539506661394  298.180331097137 7.79982851866515  298.954378963123 7.79982851866515  L 301.083010594583 7.99426197071637  C 302.437594360058 7.99426197071637  303.792178125533 8.18869542276758  305.340273857505 8.38312887481879  C 305.727297790498 8.57756232686978  306.114321723491 8.57756232686978  306.501345656483 8.57756232686978  C 306.888369589476 8.57756232686978  307.275393522469 8.771995778921  307.662417455462 8.771995778921  C 308.629977287944 8.771995778921  309.597537120426 8.96642923097221  310.565096952908 9.16086268302342  C 311.145632852398 9.16086268302342  311.532656785391 9.35529613507464  311.919680718383 9.35529613507464  C 312.306704651377 9.35529613507464  312.693728584369 9.54972958712585  313.080752517362 9.54972958712585  C 313.661288416852 9.7441630391769  314.241824316341 9.7441630391769  314.82236021583 9.93859649122811  C 315.402896115319 10.1330299432793  315.596408081816 10.1330299432793  315.983432014809 10.3274633953305  C 316.370455947801 10.5218968473818  316.563967914298 10.5218968473818  316.950991847291 10.716330299433  C 317.53152774678 10.910763751484  318.112063646269 11.2996306555864  319.079623478752 11.4940641076376  C 320.047183311234 11.8829310117398  321.401767076709 12.2717979158422  323.143374775177 12.6606648199447  C 325.078494440141 13.0495317240471  326.820102138609 13.4383986281493  328.368197870581 13.6328320802006  C 328.755221803573 13.6328320802006  329.142245736566 13.8272655322518  329.335757703063 13.8272655322518  L 329.529269669559 13.8272655322518  C 329.916293602552 13.8272655322518  330.303317535545 14.021698984303  330.690341468538 14.021698984303  C 331.270877368027 14.216132436354  332.044925234013 14.216132436354  332.625461133502 14.4105658884052  L 332.818973099999 14.4105658884052  C 333.593020965984 14.6049993404564  334.173556865474 14.6049993404564  334.947604731459 14.7994327925076  L 335.141116697956 14.7994327925076  C 335.915164563942 14.9938662445588  336.495700463431 14.9938662445588  337.07623636292 15.18829969661  C 338.624332094892 15.5771666007122  340.36593979336 15.9660335048147  341.914035525331 16.3549004089171  L 343.462131257303 15.7716000527633  C 341.720523558835 15.382733148661  340.172427826863 14.9938662445586  338.430820128395 14.6049993404562  C 337.65677226241 14.410565888405  336.882724396424 14.410565888405  336.302188496935 14.216132436354  L 336.108676530438 14.216132436354  C 335.334628664452 14.0216989843028  334.754092764963 14.0216989843028  333.980044898977 13.8272655322515  L 333.786532932481 13.8272655322515  C 333.205997032992 13.6328320802003  332.431949167006 13.6328320802003  331.851413267517 13.4383986281491  C 331.65790130102 13.4383986281491  331.270877368027 13.2439651760981  330.883853435034 13.2439651760981  L 330.690341468538 13.2439651760981  C 330.496829502041 13.2439651760981  330.109805569049 13.0495317240469  329.916293602552 13.0495317240469  C 328.561709837077 12.8550982719957  327.013614105106 12.4662313678933  325.078494440141 12.0773644637908  C 323.336886741673 11.6884975596886  321.982302976198 11.4940641076374  321.014743143716 11.1051972035349  C 320.047183311234 10.7163302994327  319.466647411745 10.5218968473815  318.886111512255 10.3274633953303  C 318.499087579262 10.1330299432791  318.305575612766 10.1330299432791  317.918551679773 9.93859649122788  C 317.53152774678 9.74416303917667  317.144503813787 9.74416303917667  316.563967914298 9.54972958712568  C 315.983432014809 9.54972958712568  315.402896115319 9.35529613507447  314.628848249334 9.16086268302325  C 314.241824316341 9.16086268302325  313.854800383348 8.96642923097204  313.467776450355 8.96642923097204  C 313.080752517362 8.96642923097204  312.693728584369 8.77199577892083  312.11319268488 8.77199577892083  L 311.919680718383 8.77199577892083  C 310.952120885901 8.77199577892083  309.984561053419 8.57756232686978  309.017001220937 8.38312887481857  C 308.436465321448 8.38312887481857  308.049441388455 8.18869542276735  307.662417455462 8.18869542276735  C 307.081881555973 8.18869542276735  306.69485762298 7.99426197071614  306.307833689987 7.99426197071614  C 304.566225991519 7.79982851866492  303.211642226044 7.79982851866492  301.857058460569 7.60539506661394  L 299.728426829108 7.41096161456272  C 298.954378963122 7.41096161456272  298.180331097137 7.21652816251151  297.599795197647 7.21652816251151  C 296.825747331662 7.21652816251151  296.051699465676 7.21652816251151  295.27765159969 7.0220947104603  L 294.890627666697 7.0220947104603  C 294.116579800711 6.82766125840908  293.342531934726 6.82766125840908  292.374972102244 6.63322780635787  C 291.407412269761 6.43879435430688  290.439852437279 6.43879435430688  289.665804571294 6.24436090225567  C 288.891756705308 6.04992745020445  288.311220805818 6.04992745020445  287.730684906329 5.85549399815324  C 286.956637040343 5.66106054610202  286.376101140854 5.66106054610202  285.795565241365 5.46662709405081  C 285.408541308372 5.46662709405081  285.215029341876 5.27219364199976  285.021517375379 5.27219364199976  L 284.828005408883 5.27219364199976  C 283.279909676911 4.88332673789733  281.538301978443 4.49445983379491  277.087526749025 4.1055929296927  C 276.700502816032 4.1055929296927  276.119966916543 3.91115947764149  275.539431017054 3.91115947764149  C 274.958895117565 3.71672602559028  274.378359218075 3.71672602559028  273.991335285082 3.71672602559028  C 273.217287419096 3.71672602559028  272.249727586614 3.71672602559028  271.282167754132 3.52229257353906  C 270.508119888146 3.32785912148785  269.734072022161 3.32785912148785  268.960024156175 3.32785912148785  C 268.379488256686 3.32785912148785  267.6054403907 3.32785912148785  267.024904491211 3.32785912148785  C 265.476808759239 3.32785912148785  264.315736960261 3.13342566943663  262.961153194786 3.13342566943663  C 261.413057462814 2.93899221738565  259.671449764346 2.93899221738565  257.736330099382 2.74455876533443  C 255.801210434417 2.74455876533443  254.253114702446 2.55012531328322  252.898530936971 2.355691861232  C 251.737459137992 2.16125840918079  250.76989930551 2.16125840918079  249.802339473028 1.96682495712975  C 249.221803573539 1.96682495712975  248.834779640546 1.77239150507853  248.254243741056 1.77239150507853  C 247.673707841567 1.77239150507853  247.093171942078 1.57795805302732  246.512636042589 1.57795805302732  C 245.738588176603 1.57795805302732  244.964540310617 1.3835246009761  244.190492444631 1.3835246009761  C 243.803468511638 1.18909114892489  243.416444578645 1.18909114892489  242.835908679156 1.18909114892489  C 242.448884746163 1.18909114892489  241.868348846674 1.18909114892489  241.287812947185 1.18909114892489  C 236.837037717767 0.994657696873901  234.321382153313 0.994657696873901  231.999238555356 0.994657696873901  L 231.612214622363 0.994657696873901  C 231.418702655866 0.994657696873901  231.031678722874 0.994657696873901  230.644654789881 0.994657696873901  C 229.870606923895 0.994657696873901  228.903047091413 0.994657696873901  227.935487258931 0.994657696873901  C 227.161439392945 0.994657696873901  226.387391526959 0.994657696873901  225.613343660973 0.994657696873901  C 224.645783828491 0.994657696873901  223.678223996009 0.994657696873901  222.710664163527 0.994657696873901  C 221.743104331045 0.800224244822687  220.969056465059 0.800224244822687  220.195008599073 0.800224244822687  L 219.80798466608 0.800224244822687  C 219.033936800094 0.605790792771472  218.453400900605 0.605790792771472  217.67935303462 0.605790792771472  C 217.09881713513 0.411357340720258  216.518281235641 0.411357340720258  215.937745336152 0.411357340720258  L 214.38964960418 0.216923888669044  C 213.228577805201 0.216923888669044  212.067506006223 0.0224904366178293  210.712922240748 0.0224904366178293  C 210.325898307755 0.0224904366178293  209.938874374762 0.0224904366178293  209.551850441769 0.0224904366178293  C 209.164826508776 0.0224904366178293  208.584290609287 0.0224904366178293  208.197266676294 0.0224904366178293  C 207.229706843812 0.0224904366178293  206.26214701133 0.0224904366178293  205.101075212351 0.0224904366178293  L 204.907563245855 0.0224904366178293  C 204.327027346366 0.0224904366178293  203.940003413373 0.0224904366178293  203.359467513883 0.0224904366178293  C 202.778931614394 0.0224904366178293  202.198395714905 0.0224904366178293  201.811371781912 0.0224904366178293  C 200.843811949429 0.0224904366178293  200.069764083444 0.0224904366178293  199.295716217458 0.0224904366178293  C 198.328156384976 0.0224904366178293  197.747620485487 0.0224904366178293  197.167084585997 0.0224904366178293  C 196.586548686508 0.0224904366178293  196.006012787019 0.0224904366178293  195.425476887529 0.0224904366178293  C 194.264405088551 0.0224904366178293  193.296845256069 0.216923888669044  191.942261490594 0.216923888669044  C 190.200653792126 0.411357340720258  188.652558060154 0.411357340720258  186.71743839519 0.411357340720258  C 184.588806763729 0.411357340720258  182.847199065261 0.411357340720258  181.492615299786 0.411357340720258  C 181.105591366793 0.411357340720258  180.912079400297 0.411357340720258  180.7185674338 0.411357340720258  L 180.525055467304 0.411357340720258  C 180.138031534311 0.411357340720258  179.944519567814 0.411357340720258  179.557495634822 0.411357340720258  C 178.976959735332 0.411357340720258  178.396423835843 0.411357340720258  177.815887936354 0.411357340720258  L 177.622375969857 0.411357340720258  C 177.041840070368 0.411357340720258  176.461304170879 0.411357340720258  175.88076827139 0.411357340720258  L 175.687256304893 0.411357340720258  C 175.106720405404 0.411357340720258  174.332672539418 0.411357340720258  173.752136639929 0.411357340720258  C 172.22629227138 0.411357340720258  170.700447902832 0.411357340720258  168.914337477521 0.411357340720258  C 168.66177100291 0.411357340720258  168.4040003481 0.411357340720258  168.149714147052 0.420826755992152  C 166.517685093214 0.459803109156894  165.030951838235 0.605790792771472  163.689514382114 0.605790792771472  C 163.108978482625 0.605790792771472  162.528442583135 0.605790792771472  162.141418650142 0.800224244822459  L 161.947906683646 0.800224244822459  C 161.367370784157 0.800224244822459  160.786834884667 0.994657696873673  160.399810951674 0.994657696873673  C 159.819275052185 0.994657696873673  159.432251119192 1.18909114892489  158.851715219703 1.18909114892489  C 158.658203253207 1.18909114892489  158.271179320214 1.18909114892489  157.884155387221 1.18909114892489  L 157.690643420725 1.18909114892489  C 157.497131454228 1.18909114892489  157.303619487732 1.18909114892489  156.916595554739 1.18909114892489  C 155.562011789264 1.3835246009761  153.820404090796 1.3835246009761  151.691772459335 1.57795805302732  C 149.563140827874 1.77239150507853  147.821533129406 1.96682495712975  146.079925430938 1.96682495712975  C 144.531829698967 1.96682495712975  143.370757899988 1.96682495712975  142.209686101009 1.96682495712975  C 141.435638235024 1.96682495712975  140.855102335535 1.96682495712975  140.274566436045 1.96682495712975  C 139.694030536556 1.96682495712975  139.113494637067 1.96682495712975  138.339446771081 1.96682495712975  C 137.565398905095 1.96682495712975  136.791351039109 1.96682495712975  136.017303173124 2.16125840918079  C 135.630279240131 2.16125840918079  135.049743340641 2.16125840918079  134.662719407649 2.16125840918079  C 134.275695474656 2.16125840918079  133.695159575166 2.16125840918079  133.308135642174 2.355691861232  L 133.114623675677 2.355691861232  C 132.147063843195 2.355691861232  131.179504010713 2.55012531328322  130.211944178231 2.55012531328322  C 129.824920245238 2.55012531328322  129.437896312245 2.55012531328322  129.050872379252 2.74455876533443  C 128.663848446259 2.74455876533443  128.470336479763 2.74455876533443  128.08331254677 2.93899221738565  C 126.728728781295 3.13342566943663  125.954680915309 3.32785912148785  124.987121082827 3.32785912148785  L 123.245513384359 3.71672602559028  C 122.66497748487 3.71672602559028  122.08444158538 3.91115947764149  121.503905685891 3.91115947764149  C 120.729857819905 4.1055929296927  120.149321920416 4.1055929296927  119.37527405443 4.1055929296927  Z " fill-rule="nonzero" fill="#007eef" stroke="none" transform="matrix(1 0 0 1 744 545 )" />
  </g>
</svg>