<?xml version="1.0" encoding="utf-8"?>
<svg version="1.1" xmlns:xlink="http://www.w3.org/1999/xlink" width="36px" height="108px" xmlns="http://www.w3.org/2000/svg">
  <g transform="matrix(1 0 0 1 0 -56 )">
    <path d="M 25 54.005  C 25 44.485  26.59 35.355  29.47 26.815  C 29.9 25.545  30.35 24.295  30.84 23.055  C 32.16 19.675  33.68 16.395  35.41 13.235  L 13.75 0.735000000000014  C 11.3 5.14500000000001  9.15 9.74500000000002  7.32 14.495  C 6.84 15.735  6.38 16.985  5.95 18.255  C 2.09 29.465  0 41.485  0 53.995  C 0 73.325  4.99 91.475  13.74 107.265  L 35.4 94.765  C 28.77 82.665  25 68.775  25 54.005  Z " fill-rule="nonzero" fill="#facc14" stroke="none" transform="matrix(1 0 0 1 0 56 )" />
  </g>
</svg>