<?xml version="1.0" encoding="utf-8"?>
<svg version="1.1" xmlns:xlink="http://www.w3.org/1999/xlink" width="250px" height="51px" xmlns="http://www.w3.org/2000/svg">
  <g transform="matrix(1 0 0 1 -811 -465 )">
    <path d="M 227.81983772339 11.5895330431342  L 228.013368033992 11.7827039403018  C 228.013368033992 11.7827039403018  228.206898344594 11.7827039403018  228.20336597363 11.9852930220995  C 227.781453695708 11.8244288540904  227.474579649277 11.7069809486122  227.239246791585 11.5895330431342  C 227.239246791585 11.5895330431342  227.045716480984 11.5895330431342  227.045716480984 11.5895330431342  L 226.852186170382 11.5895330431342  C 226.852186170382 11.5895330431342  226.65865585978 11.3963621459665  226.65865585978 11.3963621459665  C 226.465125549178 11.2031912487987  226.271595238577 11.2031912487987  226.271595238577 11.2031912487987  L 226.078064927975 11.2031912487987  C 225.884534617373 11.2031912487987  225.884534617373 11.0100203516309  225.691004306772 11.0100203516309  C 225.49747399617 11.0100203516309  225.49747399617 10.8168494544632  225.303943685568 10.8168494544632  C 224.723352753763 10.6236785572954  223.949231511356 10.4305076601278  222.981579958348 10.0441658657923  L 223.949231511356 10.0441658657923  C 225.110413374966 10.2373367629601  225.884534617373 10.6236785572954  226.465125549178 10.8168494544632  C 226.65865585978 11.0100203516309  226.852186170382 11.0100203516309  226.852186170382 11.0100203516309  L 227.045716480983 11.2031912487987  C 227.239246791585 11.2031912487987  227.239246791585 11.3963621459665  227.432777102187 11.3963621459665  C 227.626307412788 11.3963621459665  227.626307412788 11.5895330431342  227.81983772339 11.5895330431342  Z M 232.077504556628 13.3280711176437  C 231.315769256518 13.2013510095041  230.720600074837 12.991502510689  230.142201450611 12.7485584261406  C 230.916322693017 13.1349002204759  231.883974246026 13.3280711176437  232.846843538131 13.5088790773991  C 232.579395226462 13.4486097574807  232.319030384267 13.3883404375622  232.077504556628 13.3280711176437  Z M 236.722232011069 14.4870965006501  C 236.540658751175 14.4466365972852  236.350549924254 14.328133439186  236.079197519771 14.3007833068594  C 236.309565047929 14.3468947635033  236.537855491271 14.3950794475194  236.722232011069 14.4870965006501  Z M 181.566093489583 46.167123636158  L 181.372563178981 46.167123636158  C 180.598441936574 46.3602945333257  180.017851004769 46.5534654304935  179.243729762362 46.7466363276612  L 179.045913916026 46.731182656045  C 179.468224922345 46.6075532818052  179.839803118858 46.4839239075654  180.211381315371 46.3602945333257  L 180.404911625972 46.3602945333257  C 180.985502557778 46.1671236361581  181.566093489583 45.9739527389904  182.34021473199 45.7807818418226  C 182.727275353193 45.5876109446548  183.114335974396 45.5876109446548  183.5013965956 45.3944400474871  L 183.694926906202 45.3944400474871  C 184.081987527405 45.3944400474871  184.275517838007 45.2012691503195  184.66257845921 45.2012691503195  C 186.404351254625 44.814927355984  188.533184671244 44.4285855616484  191.629669640871 44.0422437673129  C 194.339093989295 43.6559019729776  196.661457716516 43.2695601786421  199.177351754338 43.0763892814743  C 201.112654860355 42.8832183843065  203.047957966372 42.8832183843065  204.789730761787 42.8832183843065  L 204.983261072389 42.8832183843065  C 205.950912625397 42.8832183843065  206.918564178406 42.8832183843065  207.692685420813 42.690047487139  C 208.46680666322 42.690047487139  209.240927905627 42.4968765899712  210.402109769237 42.4968765899712  C 211.369761322245 42.3037056928035  212.337412875254 42.3037056928035  213.498594738864 42.1105347956357  C 214.079185670669 42.1105347956357  214.659776602474 41.917363898468  215.240367534279 41.917363898468  C 215.820958466085 41.917363898468  216.208019087288 41.7241930013001  216.788610019093 41.5310221041326  L 216.982140329695 41.5310221041326  C 218.143322193305 41.3378512069648  218.917443435712 40.9515094126293  219.88509498872 40.7583385154616  C 220.272155609924 40.5651676182938  220.659216231127 40.5651676182938  220.852746541729 40.3719967211262  C 221.046276852331 40.1788258239584  221.239807162932 40.1788258239584  221.626867784136 39.9856549267907  C 222.400989026543 39.5993131324552  222.981579958348 39.0198004409521  223.368640579551 38.6334586466165  L 223.949231511356 38.0539459551135  C 224.142761821958 37.8607750579457  224.529822443161 37.667604160778  224.723352753763 37.2812623664424  C 225.110413374966 37.0880914692747  225.49747399617 36.7017496749393  226.078064927975 36.5085787777716  L 226.271595238577 36.5085787777716  C 226.852186170382 36.3154078806038  227.239246791585 36.122236983436  228.013368033992 35.7358951891005  C 228.787489276399 35.5427242919329  229.561610518806 35.1563824975974  230.335731761212 34.9632116004296  C 230.916322693018 34.7700407032619  231.690443935424 34.5768698060941  232.27103486723 34.3836989089265  C 233.238686420238 34.1905280117588  234.206337973247 33.997357114591  235.173989526255 33.997357114591  C 235.561050147459 33.997357114591  235.75458045806 33.8041862174233  236.141641079264 33.8041862174233  L 236.528701700467 33.8041862174233  C 238.657535117086 33.4178444230877  240.979898844306 33.0315026287524  242.721671639722 31.872477245746  C 242.915201950323 31.6793063485783  243.108732260925 31.4861354514105  243.302262571527 31.4861354514105  C 243.495792882129 31.2929645542428  243.495792882129 31.2929645542428  243.68932319273 31.0997936570749  C 243.882853503332 30.9066227599074  243.882853503332 30.7134518627396  243.882853503332 30.3271100684041  C 243.882853503332 30.1339391712364  243.882853503332 29.9407682740686  243.68932319273 29.747597376901  C 243.495792882129 29.5544264797333  243.495792882129 29.3612555825655  243.302262571527 29.1680846853977  C 242.915201950323 28.7817428910622  242.721671639722 28.3954010967269  242.52814132912 28.0090593023913  C 242.334611018518 27.6227175080558  242.52814132912 27.0432048165527  242.915201950323 26.6568630222172  C 243.108732260925 26.0773503307141  243.68932319273 25.6910085363786  244.269914124535 25.4978376392108  C 244.850505056341 25.3046667420431  245.431095988146 24.9183249477077  246.011686919951 24.72515405054  C 246.398747541154 24.5319831533722  246.592277851756 24.5319831533722  246.979338472959 24.3388122562044  C 247.172868783561 24.1456413590367  247.366399094163 24.1456413590367  247.559929404764 23.9524704618689  C 247.753459715366 23.7592995647013  247.946990025968 23.5661286675336  247.946990025968 23.3729577703658  C 247.946990025968 23.1797868731981  247.946990025968 23.1797868731981  248.14052033657 22.9866159760303  C 248.14052033657 22.7934450788625  248.14052033657 22.7934450788625  248.14052033657 22.6002741816949  C 247.753459715366 21.6344196958561  246.592277851756 21.054907004353  245.237565677544 20.4753943128497  L 245.044035366942 20.4753943128497  C 244.850505056341 20.4753943128497  244.656974745739 20.282223415682  244.463444435137 20.282223415682  C 243.882853503332 20.0890525185144  243.495792882129 19.8958816213467  242.915201950323 19.7027107241789  C 242.52814132912 19.5095398270112  242.334611018518 19.3163689298434  241.947550397315 19.1231980326756  C 241.560489776112 18.9300271355081  241.36695946551 18.7368562383403  241.173429154908 18.5436853411725  C 240.979898844306 18.3505144440048  240.786368533705 18.157343546837  240.786368533705 17.9641726496693  C 240.592838223103 17.7710017525017  240.592838223103 17.5778308553339  240.592838223103 17.5778308553339  C 240.592838223103 17.3846599581661  240.592838223103 17.3846599581661  240.592838223103 17.1914890609984  L 240.786368533705 16.8051472666629  C 240.786368533705 16.6119763694953  240.979898844306 16.4188054723275  240.786368533705 16.2256345751597  L 240.592838223103 16.032463677992  C 240.592838223103 16.032463677992  240.399307912501 15.8392927808242  240.399307912501 15.8392927808242  C 240.2057776019 15.6461218836565  239.818716980696 15.4529509864887  239.431656359493 15.2597800893212  C 239.238126048891 15.2597800893212  239.044595738289 15.0666091921534  238.851065427688 15.0666091921534  C 238.657535117086 15.0666091921534  238.464004806484 14.8734382949856  238.270474495883 14.8734382949856  C 237.883413874679 14.6802673978178  237.496353253476 14.6802673978178  236.915762321671 14.4870965006501  C 237.643350177038 14.3223708615476  237.89531903894 14.4870965006501  238.270474495882 14.4870965006501  C 238.851065427688 14.6802673978178  239.238126048891 14.6802673978178  239.625186670094 14.8734382949856  C 239.818716980696 14.8734382949856  240.012247291298 15.0666091921534  240.399307912501 15.0666091921534  C 240.592838223103 15.0666091921534  240.786368533704 15.2597800893212  240.979898844306 15.2597800893212  C 241.36695946551 15.4529509864887  241.754020086713 15.6461218836565  241.947550397315 15.8392927808242  L 242.334611018518 16.032463677992  C 242.334611018518 16.032463677992  242.52814132912 16.2256345751597  242.52814132912 16.2256345751597  C 242.721671639722 16.6119763694951  242.52814132912 16.8051472666629  242.52814132912 16.9983181638306  L 242.334611018518 17.3846599581661  C 242.334611018518 17.5778308553339  242.334611018518 17.5778308553339  242.334611018518 17.5778308553339  C 242.334611018518 17.7710017525015  242.334611018518 17.9641726496693  242.52814132912 18.157343546837  C 242.721671639722 18.3505144440048  242.721671639722 18.5436853411725  242.915201950323 18.7368562383403  C 243.108732260925 18.9300271355078  243.495792882129 19.1231980326756  243.68932319273 19.3163689298434  C 243.882853503332 19.5095398270112  244.269914124535 19.7027107241789  244.463444435137 19.8958816213467  C 244.85050505634 20.0890525185142  245.431095988146 20.282223415682  245.818156609349 20.4753943128497  C 246.011686919951 20.4753943128497  246.205217230552 20.6685652100175  246.398747541154 20.6685652100175  L 246.592277851756 20.6685652100175  C 247.946990025968 21.2480779015208  249.30170220018 21.8275905930239  249.688762821383 22.7934450788625  C 249.688762821383 22.9866159760303  249.882293131985 22.9866159760303  249.882293131985 23.1797868731981  C 249.882293131985 23.1797868731981  249.882293131985 23.3729577703658  249.882293131985 23.5661286675336  C 249.882293131985 23.7592995647012  249.688762821383 23.9524704618689  249.495232510782 24.1456413590367  C 249.30170220018 24.3388122562044  249.108171889578 24.5319831533722  248.721111268375 24.5319831533722  C 248.527580957773 24.72515405054  248.14052033657 24.72515405054  247.753459715366 24.9183249477075  C 247.172868783561 25.1114958448753  246.592277851756 25.3046667420431  246.011686919951 25.6910085363786  C 245.431095988146 26.0773503307139  245.044035366942 26.4636921250494  244.656974745739 26.8500339193849  C 244.269914124535 27.4295466108881  244.269914124535 27.8158884052236  244.463444435137 28.2022301995591  C 244.656974745739 28.5885719938944  244.85050505634 28.97491378823  245.237565677544 29.3612555825655  C 245.431095988146 29.5544264797333  245.624626298747 29.7475973769008  245.624626298747 29.9407682740686  C 245.818156609349 30.1339391712364  245.818156609349 30.3271100684041  245.818156609349 30.5202809655719  C 245.818156609349 30.7134518627396  245.818156609349 31.0997936570749  245.624626298747 31.2929645542428  C 245.624626298747 31.4861354514105  245.431095988146 31.4861354514105  245.237565677544 31.6793063485783  C 245.044035366942 31.872477245746  244.85050505634 31.872477245746  244.656974745739 32.0656481429136  C 242.915201950323 33.22467352592  240.399307912501 33.6110153202555  238.076944185281 33.997357114591  L 237.689883564077 33.997357114591  C 237.302822942874 33.997357114591  236.915762321671 34.1905280117588  236.722232011069 34.1905280117588  C 235.75458045806 34.3836989089264  234.980459215653 34.3836989089264  234.012807662645 34.5768698060941  C 233.238686420238 34.7700407032619  232.658095488433 34.9632116004296  232.077504556628 35.1563824975974  C 231.303383314221 35.3495533947652  230.529262071814 35.5427242919329  229.755140829407 35.9290660862683  C 228.981019587 36.122236983436  228.593958965797 36.3154078806038  228.013368033992 36.7017496749393  L 227.81983772339 36.7017496749393  C 227.239246791585 36.8949205721069  226.852186170382 37.0880914692747  226.465125549178 37.4744332636102  C 226.078064927975 37.667604160778  225.884534617373 37.8607750579457  225.691004306772 38.0539459551132  L 225.110413374966 38.6334586466165  C 224.723352753763 39.0198004409521  224.142761821958 39.4061422352874  223.368640579551 39.9856549267907  C 223.175110268949 40.1788258239584  222.788049647746 40.1788258239584  222.594519337144 40.371996721126  C 222.207458715941 40.5651676182938  222.013928405339 40.5651676182938  221.433337473534 40.7583385154616  C 220.659216231127 40.9515094126293  219.691564678119 41.3378512069648  218.530382814508 41.5310221041324  L 218.336852503907 41.5310221041324  C 217.756261572101 41.7241930013001  217.175670640296 41.7241930013001  216.595079708491 41.917363898468  C 216.014488776686 42.1105347956357  215.433897844881 42.1105347956357  214.853306913076 42.3037056928035  C 213.692125049466 42.4968765899712  212.724473496457 42.6900474871388  211.563291632847 42.6900474871388  C 210.402109769237 42.8832183843065  209.434458216228 42.8832183843065  208.46680666322 42.8832183843065  C 207.499155110211 42.8832183843065  206.337973246601 42.8832183843065  205.563852004194 43.0763892814743  L 205.370321693592 43.0763892814743  C 203.628548898177 43.0763892814743  201.886776102761 43.2695601786421  199.951472996745 43.2695601786421  C 197.435578958922 43.4627310758099  195.113215231702 43.6559019729776  192.59732119388 44.0422437673129  C 189.694366534854 44.4285855616484  187.565533118235 44.814927355984  186.017290633422 45.2012691503193  C 185.630230012218 45.2012691503193  185.436699701617 45.3944400474871  185.049639080413 45.3944400474871  L 184.66257845921 45.3944400474871  C 184.275517838006 45.3944400474871  183.888457216803 45.5876109446548  183.5013965956 45.5876109446548  C 182.920805663794 45.7807818418226  182.146684421388 45.9739527389904  181.566093489583 46.167123636158  Z M 168.986623300472 49.2578579908418  L 168.760451948825 49.0772570557355  C 165.368818650615 49.2661483686281  162.343616111925 49.4510288880095  159.503638080988 49.4510288880095  C 158.342456217378 49.4510288880095  157.181274353768 49.4510288880095  156.213622800759 49.2578579908418  L 155.826562179556 49.2578579908418  C 154.665380315945 49.2578579908418  153.504198452335 49.064687093674  152.536546899327 49.064687093674  L 152.343016588725 49.064687093674  C 151.375365035716 49.064687093674  150.407713482708 48.8715161965062  149.440061929699 48.8715161965062  C 148.859470997894 48.8715161965062  148.472410376691 48.8715161965062  147.891819444886 48.8715161965062  L 147.504758823682 48.8715161965062  C 147.117698202479 48.8715161965062  146.730637581275 48.8715161965062  146.15004664947 48.8715161965062  C 143.82768292225 48.6783452993384  140.924728263224 48.6783452993384  137.247652361792 48.8715161965062  C 133.957637081563 48.8715161965062  131.248212733139 49.064687093674  128.538788384715 49.2578579908418  C 126.216424657495 49.4510288880095  124.474651862079 49.6441997851773  122.539348756062 49.8373706823451  L 122.345818445461 49.8373706823451  C 121.18463658185 50.0305415795126  120.216985028842 50.0305415795126  119.249333475833 50.2237124766804  C 118.281681922825 50.4168833738481  117.120500059215 50.4168833738481  115.572257574401 50.4168833738481  C 114.217545400189 50.4168833738481  112.669302915375 50.6100542710159  111.121060430562 50.6100542710159  C 110.153408877553 50.8032251681836  109.379287635146 50.8032251681836  108.411636082138 50.8032251681836  C 107.443984529129 50.8032251681836  106.669863286722 50.8032251681836  105.702211733714 50.8032251681836  L 105.508681423112 50.8032251681836  C 103.573378317095 50.8032251681836  101.83160552168 50.6100542710159  100.283363036866 50.6100542710159  C 99.5092417944593 50.6100542710159  98.7351205520524 50.4168833738481  98.1545296202473 50.4168833738481  C 97.3804083778405 50.4168833738481  96.7998174460354 50.2237124766804  96.2192265142304 50.2237124766804  C 93.8968627870099 49.8373706823451  92.1550899915945 49.6441997851773  90.6068475067808 49.2578579908418  L 88.0909534689586 48.6783452993387  C 87.1233019159502 48.4851744021709  86.3491806735433 48.2920035050032  85.3815291205347 48.2920035050032  C 84.4138775675261 48.0988326078354  83.2526957039159 47.9056617106676  82.0915138403057 47.9056617106676  L 81.5109229085007 47.9056617106676  C 80.3497410448905 47.7124908134998  79.1885591812802 47.7124908134998  77.6403166964665 47.5193199163323  C 76.0920742116527 47.3261490191645  74.5438317268392 47.3261490191645  73.1891195526273 47.1329781219968  C 71.8344073784153 47.1329781219968  70.6732255148052 46.939807224829  69.512043651195 46.939807224829  C 67.9638011663812 46.939807224829  66.4155586815675 46.939807224829  64.867316196754 46.939807224829  C 64.2867252649488 46.939807224829  63.7061343331437 46.939807224829  63.1255434013385 46.939807224829  L 62.5449524695335 46.939807224829  C 58.6743462574993 46.939807224829  54.4166794242619 46.939807224829  48.4172397956088 45.9739527389904  C 47.643118553202 45.7807818418226  47.0625276213971 45.7807818418226  46.2884063789901 45.5876109446548  C 45.7078154471849 45.3944400474871  45.1272245153799 45.3944400474871  44.5466335835748 45.2012691503193  C 43.5789820305662 45.0080982531517  42.8048607881594 44.6217564588162  42.0307395457527 44.4285855616484  C 41.4501486139475 44.2354146644807  40.8695576821424 44.0422437673129  40.2889667503372 43.8490728701454  C 39.9019061291337 43.4627310758099  39.5148455079304 43.2695601786421  39.127784886727 43.0763892814743  C 38.3536636443202 42.690047487139  37.773072712515 42.3037056928035  36.6118908489047 41.917363898468  C 35.4507089852946 41.3378512069648  34.0959968110826 40.9515094126293  32.1606937050656 40.5651676182938  C 30.2253905990484 39.9856549267907  28.4836178036331 39.5993131324552  26.5483146976162 39.4061422352874  C 25.0000722128025 39.2129713381196  23.6453600385905 39.0198004409521  22.0971175537768 38.8266295437843  C 21.32299631137 38.8266295437843  20.5488750689633 38.6334586466165  19.7747538265563 38.6334586466165  C 19.0006325841496 38.6334586466165  18.2265113417428 38.4402877494488  17.4523900993358 38.247116852281  C 16.4847385463274 38.247116852281  15.7106173039205 38.0539459551132  14.9364960615137 37.8607750579457  C 14.5494354403104 37.667604160778  14.162374819107 37.667604160778  13.7753141979034 37.4744332636102  C 13.3882535767002 37.2812623664424  13.0011929554967 37.2812623664424  12.807662644895 37.0880914692747  C 9.90470798586955 35.9290660862683  9.90470798586955 34.9632116004296  10.098238296471 34.1905280117588  L 10.098238296471 33.997357114591  C 10.098238296471 33.8041862174233  10.098238296471 33.8041862174233  10.098238296471 33.6110153202555  C 10.098238296471 33.4178444230877  10.2917686070728 33.0315026287524  10.098238296471 32.6451608344169  C 10.098238296471 32.4519899372491  9.90470798586955 32.2588190400813  9.71117767526778 32.0656481429136  C 9.517647364666 31.872477245746  9.32411705406423 31.6793063485783  8.9370564328608 31.4861354514105  C 8.54999581165748 31.0997936570749  8.16293519045405 30.9066227599072  7.96940487985228 30.7134518627396  L 7.77587456925062 30.7134518627396  C 7.38881394804707 30.5202809655719  7.00175332684387 30.3271100684041  6.61469270564032 30.1339391712364  C 6.22763208443712 30.1339391712364  5.84057146323357 29.9407682740686  5.45351084203014 29.7475973769008  L 4.09879866781819 29.5544264797333  C 3.32467742541144 29.3612555825655  2.55055618300469 29.1680846853977  1.77643494059771 28.7817428910622  C 1.58290462999594 28.7817428910622  1.38937431939439 28.5885719938944  1.38937431939439 28.5885719938944  C 1.19584400879273 28.3954010967267  1.00231369819096 28.3954010967267  0.808783387589187 28.2022301995591  C 0.615253076987415 28.0090593023913  0.421722766385756 27.6227175080558  0.421722766385756 27.4295466108881  C 0.421722766385756 27.2363757137205  0.421722766385756 27.2363757137205  0.421722766385756 27.0432048165527  C 0.421722766385756 26.8500339193849  0.421722766385756 26.8500339193849  0.615253076987415 26.6568630222172  C 0.615253076987415 26.4636921250494  0.808783387589187 26.0773503307139  1.00231369819096 25.8841794335464  C 1.19584400879273 25.6910085363786  1.38937431939439 25.4978376392108  1.77643494059771 25.3046667420431  C 2.16349556180114 25.1114958448753  2.35702587240291 24.9183249477075  2.74408649360623 24.72515405054  C 3.32467742541144 24.5319831533722  3.90526835721664 24.1456413590367  4.29232897841985 23.9524704618689  C 4.87291991022505 23.5661286675336  5.25998053142837 23.1797868731981  5.45351084203014 22.7934450788625  C 5.84057146323357 22.2139323873594  5.84057146323357 21.8275905930239  5.6470411526318 21.4412487986884  C 5.6470411526318 21.4412487986884  5.6470411526318 21.2480779015208  5.6470411526318 21.2480779015208  C 5.6470411526318 21.2480779015208  5.6470411526318 21.054907004353  5.6470411526318 21.054907004353  C 5.25998053142837 21.054907004353  5.0664502208266 20.8617361071853  4.87291991022505 20.8617361071853  C 4.87291991022505 20.6685652100175  4.67938959962339 20.6685652100175  4.48585928902162 20.4753943128497  C 4.48585928902162 20.282223415682  4.29232897841985 20.282223415682  4.29232897841985 20.0890525185142  C 4.29232897841985 19.7027107241789  4.67938959962339 19.3163689298434  5.25998053142837 18.9300271355078  L 6.8082230162421 18.9300271355078  C 6.22763208443712 19.3163689298434  6.03410177383535 19.7027107241789  6.03410177383535 19.8958816213467  C 6.03410177383535 20.0890525185142  6.03410177383535 20.0890525185142  6.03410177383535 20.0890525185142  L 6.22763208443712 20.282223415682  C 6.42116239503866 20.4753943128497  6.42116239503866 20.4753943128497  6.61469270564032 20.6685652100175  C 6.8082230162421 20.8617361071853  6.8082230162421 20.8617361071853  7.00175332684387 21.054907004353  C 7.00175332684387 21.054907004353  7.19528363744553 21.2480779015208  7.19528363744553 21.2480779015208  L 7.38881394804707 21.4412487986884  C 7.58234425864885 21.8275905930239  7.58234425864885 22.0207614901917  7.38881394804707 22.6002741816948  C 7.00175332684387 22.9866159760303  6.61469270564032 23.3729577703658  6.03410177383535 23.7592995647012  C 5.6470411526318 24.1456413590367  5.0664502208266 24.5319831533722  4.29232897841985 24.72515405054  C 4.09879866781819 24.9183249477075  3.71173804661487 25.1114958448753  3.5182077360131 25.3046667420431  C 3.13114711480966 25.4978376392108  2.93761680420789 25.6910085363786  2.74408649360623 25.8841794335464  C 2.55055618300469 26.0773503307139  2.35702587240291 26.2705212278817  2.35702587240291 26.4636921250494  C 2.35702587240291 26.6568630222172  2.35702587240291 26.6568630222172  2.35702587240291 26.6568630222172  C 2.35702587240291 26.8500339193849  2.35702587240291 27.0432048165527  2.35702587240291 27.0432048165527  C 2.55055618300469 27.2363757137203  2.55055618300469 27.6227175080558  2.74408649360623 27.8158884052236  C 2.93761680420789 28.0090593023913  2.93761680420789 28.0090593023913  2.93761680420789 28.0090593023913  C 3.13114711480966 28.2022301995591  3.32467742541144 28.2022301995591  3.5182077360131 28.3954010967267  C 4.29232897841985 28.7817428910622  5.0664502208266 28.97491378823  5.84057146323357 29.1680846853977  L 7.19528363744553 29.5544264797333  C 7.58234425864885 29.5544264797333  7.96940487985228 29.7475973769008  8.35646550105582 29.9407682740686  C 8.74352612225903 30.1339391712364  9.13058674346257 30.3271100684041  9.517647364666 30.5202809655719  L 9.71117767526778 30.5202809655719  C 10.098238296471 30.7134518627396  10.4852989176745 30.9066227599072  10.872359538878 31.0997936570749  C 11.2594201600813 31.4861354514105  11.452950470683 31.6793063485783  11.6464807812847 31.872477245746  C 11.8400110918865 32.0656481429136  12.0335414024883 32.2588190400813  12.0335414024883 32.6451608344169  C 12.2270717130899 33.0315026287524  12.0335414024883 33.22467352592  12.0335414024883 33.6110153202555  C 12.0335414024883 33.8041862174233  12.0335414024883 33.8041862174233  12.0335414024883 33.997357114591  L 12.0335414024883 34.1905280117588  C 12.0335414024883 34.9632116004296  11.8400110918865 35.7358951891005  14.5494354403104 36.8949205721069  C 14.9364960615137 37.0880914692747  15.3235566827171 37.0880914692747  15.5170869933189 37.2812623664424  C 15.9041476145223 37.4744332636102  16.2912082357257 37.4744332636102  16.6782688569291 37.667604160778  C 17.6459204099376 37.4744332636102  18.2265113417428 37.667604160778  19.0006325841496 37.8607750579457  C 19.7747538265563 37.8607750579457  20.3553447583615 38.0539459551132  21.1294660007683 38.0539459551132  C 21.903587243175 38.0539459551132  22.4841781749803 38.247116852281  23.4518297279888 38.247116852281  C 25.0000722128025 38.4402877494488  26.5483146976162 38.6334586466165  28.0965571824297 38.8266295437843  C 30.0318602884469 39.0198004409521  31.9671633944639 39.4061422352874  33.7089361898791 39.9856549267907  C 35.837769606498 40.371996721126  37.3860120913115 40.9515094126293  38.7407242655236 41.3378512069648  C 39.708375818532 41.917363898468  40.482497060939 42.3037056928035  41.2566183033457 42.690047487139  C 41.6436789245491 42.8832183843065  42.0307395457527 43.0763892814743  42.4178001669559 43.2695601786421  C 42.8048607881594 43.4627310758099  43.3854517199644 43.6559019729776  43.9660426517696 43.8490728701454  C 44.7401638941764 44.0422437673129  45.5142851365833 44.2354146644807  46.2884063789901 44.4285855616484  C 46.8689973107951 44.6217564588162  47.2560579319986 44.6217564588162  47.8366488638038 44.814927355984  C 48.6107701062106 45.0080982531517  49.3848913486173 45.2012691503193  49.9654822804225 45.2012691503193  C 55.5778612878719 45.9739527389904  59.4484674999061 45.9739527389904  63.1255434013385 45.9739527389904  L 63.7061343331436 45.9739527389904  C 64.2867252649488 45.9739527389904  64.8673161967538 45.9739527389904  65.2543768179572 45.9739527389904  C 66.8026193027709 45.9739527389904  68.3508617875844 45.9739527389904  70.0926345829999 45.9739527389904  C 71.4473467572119 45.9739527389904  72.6085286208221 45.9739527389904  73.963240795034 46.1671236361581  C 75.5114832798477 46.1671236361581  77.0597257646613 46.3602945333257  78.607968249475 46.5534654304935  C 80.1562107342887 46.7466363276612  81.5109229085004 46.7466363276612  82.6721047721107 46.939807224829  L 83.2526957039159 46.939807224829  C 84.6074078781279 47.1329781219968  85.7685897417381 47.1329781219968  86.7362412947466 47.3261490191645  C 87.7038928477551 47.5193199163321  88.6715444007637 47.7124908134998  89.6391959537721 47.9056617106676  L 92.1550899915945 48.4851744021709  C 93.703332476408 48.8715161965062  95.2515749612216 49.064687093674  97.5739386884421 49.4510288880095  C 98.1545296202473 49.4510288880095  98.7351205520524 49.6441997851773  99.3157114838574 49.6441997851773  C 99.8963024156626 49.6441997851773  100.476893347468 49.8373706823448  101.251014589875 49.8373706823448  C 102.799257074688 50.0305415795126  104.347499559502 50.0305415795126  106.282802665519 50.0305415795126  L 106.476332976121 50.0305415795126  C 107.443984529129 50.0305415795126  108.218105771536 50.0305415795126  108.992227013943 50.0305415795126  C 109.76634825635 50.0305415795126  110.540469498756 50.0305415795126  111.314590741163 50.0305415795126  C 112.669302915375 50.0305415795126  114.024015089587 50.0305415795126  115.378727263799 49.8373706823448  C 116.733439438011 49.8373706823448  117.70109099102 49.6441997851773  118.668742544028 49.6441997851773  C 119.636394097036 49.4510288880095  120.604045650045 49.4510288880095  121.571697203054 49.2578579908418  L 121.765227513655 49.2578579908418  C 123.700530619672 49.064687093674  125.635833725689 48.8715161965062  127.95819745291 48.6783452993384  C 130.667621801334 48.4851744021709  133.764106770961 48.2920035050032  137.05412205119 48.2920035050032  C 140.731197952623 48.0988326078354  143.82768292225 48.0988326078354  146.343576960072 48.2920035050032  C 146.730637581275 48.2920035050032  147.311228513081 48.2920035050032  147.698289134284 48.2920035050032  L 148.085349755487 48.2920035050032  C 148.665940687293 48.2920035050032  149.246531619098 48.2920035050032  149.827122550903 48.2920035050032  C 150.794774103911 48.2920035050032  151.76242565692 48.4851744021709  152.730077209928 48.4851744021709  L 152.92360752053 48.4851744021709  C 153.891259073539 48.4851744021709  154.858910626547 48.6783452993384  156.020092490157 48.6783452993384  L 156.407153111361 48.6783452993384  C 157.374804664369 48.6783452993384  158.342456217378 48.6783452993384  159.310107770386 48.6783452993384  C 162.01953211881 48.6783452993384  164.922486777836 48.6783452993384  168.212502058065 48.2920035050032  L 168.382324571749 48.4615106331046  C 171.327568909344 48.2616301150837  173.908563297652 47.890475015708  175.953714482133 47.5193199163323  C 176.72783572454 47.3261490191645  177.501956966947 47.1329781219968  178.082547898752 46.939807224829  L 178.276078209354 46.939807224829  C 177.759997381082 47.0685878229409  177.243916552811 47.1973684210527  176.72783572454 47.3261490191643  C 175.179593239726 48.4851744021709  172.276638580701 48.8715161965062  168.986623300472 49.2578579908418  Z M 228.206898344594 11.9758748374696  C 228.442219534063 12.0933169196711  228.749074818166 12.2107590018726  229.174549897602 12.3622166318051  C 228.795230488824 12.2107706484259  228.475388363342 12.0890080777891  228.206898344594 11.9758748374696  Z M 232.851625799035 13.5212420148115  C 233.406340659921 13.6596631838475  233.961055520807 13.7980843528836  234.59339859445 13.907583809147  C 234.060803179682 13.7746822318977  233.436601353576 13.6417806546484  232.851625799035 13.5212420148115  Z M 235.873234325061 14.2588856926732  C 235.712052836703 14.1882901354869  235.548717751671 14.1467543504093  235.367519836857 14.1007547063145  C 235.515106435257 14.174410960816  235.690830491763 14.2199820124907  235.873234325061 14.2588856926732  Z M 216.595079708491 8.1124568941151  C 216.982140329695 8.1124568941151  217.5627312615 8.30562779128263  217.949791882703 8.30562779128263  L 218.143322193305 8.30562779128263  C 218.530382814509 8.30562779128263  219.110973746314 8.49879868845039  219.498034367517 8.49879868845039  C 220.659216231127 8.69196958561815  221.626867784136 8.88514048278591  222.788049647746 9.27148227712149  L 223.368640579551 9.85099496862455  C 222.207458715941 9.65782407145679  221.239807162932 9.27148227712149  220.272155609924 9.07831137995367  C 219.88509498872 9.07831137995367  219.498034367517 8.88514048278591  219.110973746314 8.88514048278591  L 218.917443435712 8.88514048278591  C 218.530382814508 8.88514048278591  217.949791882703 8.69196958561815  217.5627312615 8.69196958561815  C 217.175670640296 8.69196958561815  216.788610019093 8.49879868845039  216.208019087288 8.49879868845039  C 216.014488776686 8.49879868845039  215.820958466084 8.49879868845039  215.433897844881 8.30562779128263  L 215.240367534279 8.30562779128263  C 215.046837223678 8.30562779128263  214.853306913076 8.30562779128263  214.659776602474 8.30562779128263  C 213.692125049466 8.11245689411487  212.530943185856 7.91928599694734  211.369761322245 7.72611509977958  C 210.208579458635 7.53294420261181  209.434458216228 7.33977330544406  208.660336973821 7.14660240827624  C 207.886215731415 6.76026061394094  207.499155110211 6.76026061394094  207.112094489008 6.56708971677318  C 206.918564178406 6.56708971677318  206.725033867804 6.37391881960542  206.531503557203 6.37391881960542  C 206.337973246601 6.37391881960542  206.144442935999 6.18074792243766  205.757382314796 6.18074792243766  C 205.370321693592 6.18074792243766  204.983261072389 5.9875770252699  204.596200451186 5.9875770252699  C 204.402670140584 5.9875770252699  204.209139829982 5.9875770252699  203.822079208779 5.79440612810214  C 203.628548898177 5.79440612810214  203.241488276974 5.79440612810214  203.047957966372 5.60123523093455  C 202.467367034567 5.40806433376679  201.886776102762 5.40806433376679  201.112654860355 5.40806433376679  C 200.725594239152 5.40806433376679  200.53206392855 5.40806433376679  200.338533617948 5.21489343659903  C 200.145003307346 5.21489343659903  199.757942686143 5.21489343659903  199.564412375541 5.21489343659903  C 198.596760822533 5.02172253943127  197.629109269524 5.02172253943127  196.854988027117 5.02172253943127  L 195.306745542304 4.82855164226351  C 194.726154610499 4.82855164226351  194.339093989295 4.82855164226351  193.75850305749 4.63538074509574  C 193.177912125685 4.63538074509574  192.59732119388 4.44220984792815  192.016730262075 4.44220984792815  L 191.823199951473 4.44220984792815  C 191.242609019668 4.44220984792815  190.662018087863 4.24903895076039  190.081427156058 4.24903895076039  C 189.500836224252 4.24903895076039  188.920245292447 4.05586805359263  188.339654360642 4.05586805359263  C 187.952593739439 4.05586805359263  187.372002807634 3.86269715642487  186.98494218643 3.86269715642487  C 186.404351254625 3.86269715642487  186.017290633422 3.66952625925711  185.630230012218 3.66952625925711  C 185.436699701617 3.66952625925711  185.243169391015 3.66952625925711  185.243169391015 3.66952625925711  L 185.049639080413 3.66952625925711  C 184.081987527405 3.47635536208935  182.920805663795 3.28318446492182  180.211381315371 3.090013567754  C 179.824320694167 3.090013567754  179.630790383565 3.090013567754  179.243729762362 3.090013567754  C 178.856669141159 3.090013567754  178.663138830557 3.090013567754  178.276078209353 3.090013567754  C 177.695487277548 3.090013567754  177.308426656345 3.090013567754  176.72783572454 2.89684267058624  C 176.340775103336 2.89684267058624  175.760184171531 2.89684267058624  175.373123550328 2.89684267058624  C 174.986062929125 2.89684267058624  174.40547199732 2.89684267058624  174.018411376116 2.89684267058624  C 173.050759823107 2.89684267058624  172.276638580701 2.89684267058624  171.308987027692 2.70367177341848  C 170.147805164082 2.70367177341848  168.986623300472 2.51050087625072  167.63191112626 2.51050087625072  C 166.277198952048 2.51050087625072  165.309547399039 2.31732997908296  164.341895846031 2.31732997908296  C 163.567774603624 2.31732997908296  162.987183671819 2.12415908191542  162.213062429412 2.12415908191542  C 161.826001808209 2.12415908191542  161.632471497607 2.12415908191542  161.245410876403 1.93098818474766  C 160.8583502552 1.93098818474766  160.471289633997 1.93098818474766  160.084229012793 1.7378172875799  C 159.69716839159 1.7378172875799  159.116577459785 1.7378172875799  158.729516838581 1.54464639041214  C 158.53598652798 1.54464639041214  158.148925906776 1.54464639041214  157.955395596174 1.54464639041214  C 157.568334974971 1.54464639041214  157.374804664369 1.54464639041214  156.987744043166 1.54464639041214  C 154.278319694742 1.35147549324438  152.730077209928 1.35147549324438  151.181834725115 1.35147549324438  L 150.988304414513 1.35147549324438  C 150.794774103911 1.35147549324438  150.601243793309 1.35147549324438  150.407713482708 1.35147549324438  C 149.827122550903 1.35147549324438  149.246531619097 1.35147549324438  148.472410376691 1.35147549324438  C 147.891819444886 1.35147549324438  147.504758823682 1.35147549324438  146.924167891877 1.35147549324438  C 146.343576960072 1.35147549324438  145.569455717665 1.35147549324438  144.98886478586 1.35147549324438  C 144.408273854055 1.35147549324438  143.82768292225 1.35147549324438  143.247091990445 1.35147549324438  L 143.053561679843 1.35147549324438  C 142.472970748038 1.35147549324438  142.085910126835 1.35147549324438  141.505319195029 1.35147549324438  C 141.118258573826 1.35147549324438  140.731197952623 1.35147549324438  140.344137331419 1.35147549324438  L 139.182955467809 1.35147549324438  C 138.602364536004 1.35147549324438  137.828243293597 1.35147549324438  136.860591740588 1.15830459607656  C 136.667061429987 1.15830459607656  136.473531119385 1.15830459607656  136.086470498182 1.15830459607656  C 135.89294018758 1.15830459607656  135.699409876978 1.15830459607656  135.312349255775 1.15830459607656  C 134.73175832397 1.15830459607656  134.151167392165 1.15830459607656  133.377046149758 1.15830459607656  C 132.989985528554 1.15830459607656  132.796455217953 1.15830459607656  132.409394596749 1.15830459607656  C 132.022333975546 1.15830459607656  131.828803664944 1.15830459607656  131.441743043741 1.15830459607656  C 130.861152111936 1.15830459607656  130.474091490732 1.15830459607656  129.893500558927 1.15830459607656  C 129.312909627122 1.15830459607656  128.925849005918 1.15830459607656  128.732318695317 1.15830459607656  C 128.345258074113 1.15830459607656  127.95819745291 1.15830459607656  127.571136831706 1.15830459607656  C 126.7970155893 1.15830459607656  126.022894346893 1.15830459607656  125.248773104486 1.15830459607656  C 124.087591240876 1.15830459607656  123.119939687867 1.15830459607656  121.765227513655 1.15830459607656  C 120.216985028842 1.15830459607656  119.249333475833 1.15830459607656  118.281681922825 1.15830459607656  C 118.088151612223 1.15830459607656  117.894621301621 1.15830459607656  117.70109099102 1.15830459607656  L 117.507560680418 1.15830459607656  C 117.314030369816 1.15830459607656  117.120500059215 1.15830459607656  116.926969748613 1.15830459607656  C 116.539909127409 1.15830459607656  116.152848506206 1.15830459607656  115.765787885003 1.15830459607656  C 115.378727263799 1.15830459607656  114.991666642596 1.15830459607656  114.604606021392 1.15830459607656  L 114.411075710791 1.15830459607656  C 114.024015089587 1.15830459607656  113.636954468384 1.15830459607656  113.24989384718 1.15830459607656  C 112.282242294172 1.15830459607656  111.121060430562 1.15830459607656  109.76634825635 1.15830459607656  L 110.153408877553 0.385621007405746  C 111.508121051765 0.385621007405746  112.669302915375 0.385621007405746  113.830484778986 0.385621007405746  C 114.217545400189 0.385621007405746  114.604606021392 0.385621007405746  114.991666642596 0.385621007405746  L 115.185196953198 0.385621007405746  C 115.572257574401 0.385621007405746  115.959318195604 0.385621007405746  116.346378816808 0.385621007405746  C 116.733439438011 0.385621007405746  117.120500059215 0.385621007405746  117.507560680418 0.385621007405746  C 117.70109099102 0.385621007405746  117.894621301621 0.385621007405746  118.088151612223 0.385621007405746  L 118.281681922825 0.385621007405746  C 118.475212233427 0.385621007405746  118.668742544028 0.385621007405746  118.668742544028 0.385621007405746  C 119.636394097037 0.385621007405746  120.604045650045 0.385621007405746  121.958757824257 0.385621007405746  C 123.313469998469 0.385621007405746  124.281121551478 0.385621007405746  125.248773104486 0.385621007405746  C 126.216424657495 0.385621007405746  126.7970155893 0.385621007405746  127.571136831707 0.385621007405746  C 127.95819745291 0.385621007405746  128.345258074113 0.385621007405746  128.732318695317 0.385621007405746  C 129.11937931652 0.385621007405746  129.506439937724 0.385621007405746  130.087030869529 0.385621007405746  C 130.667621801334 0.385621007405746  131.054682422537 0.385621007405746  131.635273354342 0.385621007405746  C 132.022333975546 0.385621007405746  132.215864286148 0.385621007405746  132.602924907351 0.385621007405746  C 132.989985528554 0.385621007405746  133.183515839156 0.385621007405746  133.570576460359 0.385621007405746  C 134.344697702766 0.385621007405746  134.925288634571 0.385621007405746  135.505879566377 0.385621007405746  C 135.89294018758 0.385621007405746  136.086470498182 0.385621007405746  136.280000808783 0.385621007405746  C 136.473531119385 0.385621007405746  136.860591740588 0.385621007405746  137.05412205119 0.385621007405746  C 138.021773604199 0.385621007405746  138.795894846606 0.385621007405746  139.376485778411 0.578791904573507  L 140.537667642021 0.578791904573507  C 140.924728263224 0.578791904573507  141.311788884428 0.578791904573507  141.698849505631 0.578791904573507  C 142.085910126835 0.578791904573507  142.66650105864 0.578791904573507  143.053561679843 0.578791904573507  L 143.247091990445 0.578791904573507  C 143.634152611648 0.578791904573507  144.214743543453 0.578791904573507  144.795334475259 0.578791904573507  C 145.375925407064 0.578791904573507  146.15004664947 0.578791904573507  146.730637581275 0.578791904573507  C 147.311228513081 0.578791904573507  147.698289134284 0.578791904573507  148.278880066089 0.578791904573507  C 148.859470997894 0.578791904573507  149.440061929699 0.578791904573507  150.020652861504 0.578791904573507  C 150.214183172106 0.578791904573507  150.407713482708 0.578791904573507  150.601243793309 0.578791904573507  L 150.794774103911 0.578791904573507  C 152.343016588725 0.578791904573507  154.08478938414 0.578791904573507  156.794213732564 0.771962801741267  C 157.181274353768 0.771962801741267  157.568334974971 0.771962801741267  157.761865285573 0.771962801741267  C 158.148925906776 0.771962801741267  158.342456217378 0.771962801741267  158.729516838581 0.771962801741267  C 159.310107770386 0.771962801741267  159.69716839159 0.771962801741267  160.277759323395 0.965133698909028  C 160.664819944598 0.965133698909028  161.051880565802 0.965133698909028  161.438941187005 1.15830459607656  C 161.826001808209 1.15830459607656  162.01953211881 1.15830459607656  162.406592740014 1.35147549324438  C 162.987183671819 1.35147549324438  163.567774603624 1.54464639041214  164.341895846031 1.54464639041214  C 165.309547399039 1.54464639041214  166.277198952048 1.7378172875799  167.438380815658 1.7378172875799  C 168.79309298987 1.93098818474766  169.760744542879 1.93098818474766  170.921926406489 1.93098818474766  C 171.889577959497 1.93098818474766  172.663699201904 1.93098818474766  173.437820444311 2.12415908191542  C 173.824881065514 2.12415908191542  174.211941686718 2.12415908191542  174.792532618523 2.12415908191542  C 175.373123550328 2.12415908191542  175.760184171531 2.12415908191542  176.340775103336 2.12415908191542  C 176.921366035142 2.12415908191542  177.501956966947 2.12415908191542  178.082547898752 2.31732997908296  C 178.469608519955 2.31732997908296  178.663138830557 2.31732997908296  179.05019945176 2.31732997908296  C 179.437260072964 2.31732997908296  179.824320694167 2.31732997908296  180.017851004769 2.51050087625072  C 182.920805663795 2.70367177341848  184.081987527405 3.090013567754  185.049639080413 3.28318446492182  L 185.243169391015 3.28318446492182  C 185.436699701617 3.28318446492182  185.630230012218 3.28318446492182  185.630230012218 3.28318446492182  C 186.017290633422 3.28318446492182  186.404351254625 3.47635536208935  186.98494218643 3.47635536208935  C 187.372002807634 3.47635536208935  187.759063428837 3.66952625925711  188.146124050041 3.66952625925711  C 188.726714981846 3.66952625925711  189.307305913651 3.86269715642487  189.887896845456 3.86269715642487  C 190.468487777261 3.86269715642487  191.049078709066 4.05586805359263  191.43613933027 4.05586805359263  L 191.629669640871 4.05586805359263  C 192.210260572676 4.05586805359263  192.59732119388 4.24903895076039  193.177912125685 4.24903895076039  C 193.564972746888 4.24903895076039  194.145563678694 4.24903895076039  194.532624299897 4.44220984792815  L 195.887336474109 4.63538074509574  C 196.661457716516 4.63538074509574  197.629109269524 4.82855164226351  198.790291133134 4.82855164226351  C 198.983821443736 4.82855164226351  199.37088206494 4.82855164226351  199.564412375541 4.82855164226351  C 199.757942686143 4.82855164226351  200.145003307346 4.82855164226351  200.53206392855 5.02172253943127  C 201.112654860355 5.02172253943127  201.886776102762 5.21489343659903  202.467367034567 5.21489343659903  C 202.85442765577 5.21489343659903  203.047957966372 5.40806433376679  203.435018587575 5.40806433376679  C 203.628548898177 5.40806433376679  204.01560951938 5.60123523093455  204.209139829982 5.60123523093455  C 204.596200451186 5.60123523093455  204.983261072389 5.79440612810214  205.370321693592 5.79440612810214  C 205.757382314796 5.79440612810214  205.950912625397 5.9875770252699  206.337973246601 5.9875770252699  C 206.531503557203 5.9875770252699  206.725033867804 6.18074792243766  206.918564178406 6.18074792243766  C 207.305624799609 6.37391881960542  207.692685420813 6.37391881960542  208.273276352618 6.56708971677318  C 209.047397595025 6.76026061394094  209.821518837432 6.9534315111087  210.78917039044 7.14660240827624  C 211.95035225405 7.33977330544406  213.111534117661 7.53294420261181  214.079185670669 7.72611509977958  C 214.079185670669 7.72611509977958  214.466246291873 7.72611509977958  214.659776602474 7.72611509977958  L 214.853306913076 7.72611509977958  C 215.046837223678 7.72611509977958  215.240367534279 7.72611509977958  215.433897844881 7.91928599694734  C 215.820958466085 7.91928599694734  216.208019087288 8.1124568941151  216.595079708491 8.1124568941151  Z M 11.452950470683 16.9983181638306  C 11.0658898494795 17.1914890609984  10.6788292282763 17.1914890609984  10.2917686070728 17.3846599581661  L 10.098238296471 17.3846599581661  C 9.71117767526778 17.5778308553339  9.32411705406423 17.5778308553339  8.9370564328608 17.7710017525015  C 8.16293519045405 18.157343546837  7.38881394804707 18.3505144440048  6.8082230162421 18.9300271355078  L 5.25998053142837 18.9300271355078  C 5.84057146323357 18.5436853411725  6.61469270564032 18.157343546837  7.58234425864885 17.7710017525015  C 7.96940487985228 17.5778308553339  8.35646550105582 17.5778308553339  8.74352612225903 17.3846599581661  L 8.9370564328608 17.3846599581661  C 9.32411705406423 17.1914890609984  9.71117767526755 17.1914890609984  10.2917686070728 16.9983181638306  C 10.6788292282763 16.8051472666629  11.0658898494795 16.8051472666629  11.452950470683 16.6119763694951  C 11.6464807812847 16.6119763694951  11.8400110918865 16.4188054723275  12.0335414024883 16.4188054723275  L 12.2270717130899 16.4188054723275  C 12.4206020236915 16.4188054723275  12.6141323342932 16.4188054723275  12.6141323342932 16.2256345751597  C 13.3882535767 16.032463677992  14.3559051297087 15.6461218836565  15.1300263721155 15.2597800893212  C 16.0976779251239 14.8734382949856  16.4847385463274 14.6802673978178  16.8717991675309 14.2939256034823  C 17.0653294781324 14.1007547063145  17.2588597887342 13.907583809147  17.2588597887342 13.7144129119793  C 17.2588597887342 13.5212420148115  17.4523900993358 13.5212420148115  17.4523900993358 13.3280711176437  C 17.4523900993358 13.3280711176437  17.6459204099376 13.1349002204759  17.8394507205394 12.9417293233082  C 18.0329810311409 12.7485584261406  18.4200416523444 12.7485584261406  18.6135719629461 12.5553875289729  C 18.8071022735479 12.5553875289729  19.0006325841496 12.3622166318051  19.1941628947511 12.3622166318051  C 19.3876932053529 12.3622166318051  19.5812235159547 12.1690457346373  19.9682841371581 12.1690457346373  C 20.5488750689631 11.9758748374696  21.1294660007683 11.7827039403018  21.7100569325734 11.7827039403018  C 21.903587243175 11.7827039403018  22.2906478643786 11.5895330431342  22.4841781749803 11.5895330431342  C 22.6777084855818 11.5895330431342  23.0647691067853 11.3963621459665  23.2582994173871 11.3963621459665  C 24.2259509703955 11.2031912487987  25.3871328340058 11.0100203516309  26.1612540764125 10.8168494544632  L 27.5159662506245 10.6236785572954  C 28.0965571824297 10.6236785572954  28.4836178036331 10.4305076601278  28.8706784248365 10.4305076601278  C 29.4512693566417 10.2373367629601  29.838329977845 10.2373367629601  30.4189209096502 10.0441658657923  L 30.6124512202518 10.0441658657923  C 30.9995118414552 9.85099496862455  31.5801027732604 9.85099496862455  32.1606937050653 9.65782407145679  C 32.7412846368707 9.46465317428903  33.1283452580741 9.46465317428903  33.7089361898791 9.27148227712149  C 34.0959968110826 9.07831137995367  34.4830574322858 9.07831137995367  34.6765877428876 8.88514048278591  C 35.2571786746928 8.88514048278591  35.4507089852946 8.69196958561815  35.6442392958963 8.49879868845039  L 36.0312999170998 8.49879868845039  L 36.2248302277013 8.49879868845039  C 36.9989514701083 8.1124568941151  37.773072712515 7.91928599694734  40.482497060939 7.33977330544406  C 40.8695576821424 7.33977330544406  41.0630879927439 7.14660240827624  41.4501486139475 7.14660240827624  C 41.8372092351509 7.14660240827624  42.0307395457527 6.95343151110848  42.4178001669559 6.95343151110848  C 42.9983910987612 6.95343151110848  43.5789820305664 6.76026061394094  44.1595729623714 6.76026061394094  C 44.5466335835748 6.56708971677318  44.9336942047781 6.56708971677318  45.5142851365833 6.56708971677318  C 46.0948760683883 6.56708971677318  46.4819366895919 6.37391881960542  46.8689973107953 6.37391881960542  C 47.8366488638038 6.18074792243766  48.6107701062106 6.18074792243766  49.5784216592191 5.9875770252699  C 50.7396035228293 5.79440612810214  51.9007853864396 5.79440612810214  53.0619672500497 5.60123523093455  C 54.2231491136602 5.40806433376679  55.1908006666687 5.21489343659903  55.9649219090754 5.02172253943127  C 56.7390431514822 4.82855164226351  57.1261037726856 4.82855164226351  57.7066947044909 4.63538074509574  C 57.9002250150924 4.63538074509574  58.2872856362959 4.44220984792815  58.4808159468976 4.44220984792815  C 58.8678765681011 4.44220984792815  59.2549371893044 4.24903895076039  59.4484674999061 4.24903895076039  C 59.8355281211096 4.24903895076039  60.2225887423128 4.05586805359263  60.803179674118 4.05586805359263  C 60.9967099847198 4.05586805359263  61.3837706059231 4.05586805359263  61.5773009165248 3.86269715642487  C 61.9643615377283 3.86269715642487  62.1578918483301 3.86269715642487  62.5449524695335 3.66952625925711  C 65.2543768179572 3.28318446492182  67.1896799239745 3.28318446492182  68.9314527193897 3.090013567754  L 69.1249830299914 3.090013567754  C 69.3185133405932 3.090013567754  69.7055739617964 3.090013567754  69.8991042723982 3.090013567754  C 70.4796952042034 3.090013567754  71.2538164466101 3.090013567754  71.8344073784153 2.89684267058624  C 72.4149983102204 2.89684267058624  72.8020589314239 2.89684267058624  73.3826498632288 2.70367177341848  C 73.963240795034 2.70367177341848  74.7373620374408 2.51050087625072  75.3179529692461 2.51050087625072  C 75.8985439010511 2.51050087625072  76.4791348328563 2.31732997908296  76.8661954540596 2.31732997908296  L 77.0597257646613 2.31732997908296  C 77.6403166964665 2.31732997908296  78.0273773176698 2.12415908191542  78.4144379388732 2.12415908191542  C 78.8014985600768 2.12415908191542  78.9950288706784 2.12415908191542  79.3820894918817 1.93098818474766  L 80.3497410448905 1.7378172875799  C 80.9303319766955 1.7378172875799  81.5109229085007 1.54464639041214  82.4785744615092 1.54464639041214  C 82.672104772111 1.54464639041214  82.8656350827124 1.54464639041214  83.2526957039159 1.54464639041214  C 83.4462260145176 1.54464639041214  83.8332866357212 1.54464639041214  84.0268169463227 1.54464639041214  C 84.6074078781279 1.54464639041214  85.1879988099331 1.35147549324438  85.9621200523399 1.35147549324438  C 86.3491806735432 1.35147549324438  86.7362412947466 1.35147549324438  86.9297716053484 1.35147549324438  C 87.3168322265516 1.35147549324438  87.5103625371536 1.35147549324438  87.8974231583568 1.35147549324438  C 88.4780140901621 1.35147549324438  89.0586050219671 1.35147549324438  89.6391959537723 1.35147549324438  C 90.2197868855773 1.35147549324438  90.6068475067808 1.35147549324438  90.9939081279842 1.35147549324438  C 91.3809687491876 1.35147549324438  91.768029370391 1.35147549324438  92.348620302196 1.35147549324438  C 93.1227415446029 1.35147549324438  93.8968627870097 1.35147549324438  94.8645143400184 1.35147549324438  C 96.0256962036285 1.35147549324438  96.9933477566371 1.35147549324438  98.3480599308489 1.15830459607656  C 99.7027721050608 1.15830459607656  100.863953968671 0.965133698908801  101.638075211078 0.965133698908801  C 101.638075211078 0.965133698908801  102.025135832281 0.965133698908801  102.025135832281 0.965133698908801  L 102.218666142883 0.965133698908801  C 102.412196453485 0.965133698908801  102.605726764087 0.965133698908801  102.799257074688 0.965133698908801  C 103.186317695892 0.965133698908801  103.379848006493 0.965133698908801  103.766908627697 0.965133698908801  C 104.1539692489 0.965133698908801  104.347499559502 0.965133698908801  104.734560180705 0.965133698908801  L 104.928090491307 0.965133698908801  C 105.315151112511 0.965133698908801  105.702211733714 0.965133698908801  106.089272354917 0.965133698908801  C 107.056923907926 0.965133698908801  108.218105771536 0.771962801741267  109.572817945748 0.771962801741267  L 109.76634825635 0.965133698908801  C 108.411636082138 0.965133698908801  107.443984529129 0.965133698908801  106.476332976121 1.15830459607656  C 106.089272354917 1.15830459607656  105.702211733714 1.15830459607656  105.508681423112 1.15830459607656  L 105.315151112511 1.15830459607656  C 104.928090491307 1.15830459607656  104.541029870104 1.15830459607656  104.347499559502 1.15830459607656  C 103.960438938298 1.15830459607656  103.766908627697 1.15830459607656  103.379848006493 1.15830459607656  C 103.186317695892 1.15830459607656  102.99278738529 1.15830459607656  102.799257074688 1.15830459607656  L 102.605726764087 1.15830459607656  C 102.412196453485 1.15830459607656  102.218666142883 1.15830459607656  102.218666142883 1.15830459607656  C 101.251014589875 1.15830459607656  100.089832726264 1.35147549324438  98.5415902414506 1.35147549324438  C 97.1868780672389 1.35147549324438  96.0256962036285 1.54464639041214  94.8645143400184 1.54464639041214  C 93.8968627870097 1.54464639041214  93.1227415446029 1.54464639041214  92.348620302196 1.54464639041214  C 91.9615596809928 1.54464639041214  91.5744990597893 1.54464639041214  91.187438438586 1.54464639041214  C 90.8003778173825 1.54464639041214  90.413317196179 1.54464639041214  89.8327262643741 1.54464639041214  C 89.2521353325689 1.54464639041214  88.8650747113653 1.54464639041214  88.2844837795603 1.54464639041214  C 87.8974231583568 1.54464639041214  87.7038928477551 1.54464639041214  87.3168322265516 1.54464639041214  C 86.9297716053484 1.54464639041214  86.7362412947466 1.54464639041214  86.3491806735432 1.54464639041214  C 85.5750594311364 1.54464639041214  84.9944684993311 1.7378172875799  84.4138775675261 1.7378172875799  C 84.2203472569245 1.7378172875799  83.8332866357212 1.7378172875799  83.6397563251194 1.7378172875799  C 83.4462260145176 1.7378172875799  83.2526957039159 1.7378172875799  83.0591653933142 1.7378172875799  C 82.2850441509074 1.7378172875799  81.7044532191022 1.93098818474766  81.1238622872972 1.93098818474766  L 80.1562107342887 2.12415908191542  C 79.7691501130853 2.12415908191542  79.3820894918817 2.31732997908296  78.9950288706784 2.31732997908296  C 78.607968249475 2.31732997908296  78.0273773176698 2.51050087625072  77.6403166964665 2.51050087625072  L 77.4467863858648 2.51050087625072  C 77.0597257646613 2.51050087625072  76.4791348328563 2.70367177341848  75.7050135904493 2.70367177341848  C 75.1244226586443 2.70367177341848  74.3503014162374 2.89684267058624  73.7697104844324 2.89684267058624  C 73.1891195526273 2.89684267058624  72.6085286208221 2.89684267058624  72.0279376890169 3.090013567754  C 71.2538164466101 3.090013567754  70.6732255148049 3.090013567754  69.8991042723982 3.28318446492182  C 69.7055739617964 3.28318446492182  69.512043651195 3.28318446492182  69.1249830299914 3.28318446492182  L 68.9314527193897 3.28318446492182  C 67.3832102345759 3.28318446492182  65.6414374391608 3.47635536208935  62.9320130907367 3.86269715642487  C 62.5449524695335 3.86269715642487  62.1578918483301 3.86269715642487  61.9643615377283 4.05586805359263  C 61.7708312271266 4.05586805359263  61.3837706059231 4.05586805359263  61.1902402953216 4.24903895076039  C 60.803179674118 4.24903895076039  60.2225887423128 4.44220984792815  59.8355281211096 4.44220984792815  C 59.4484674999061 4.44220984792815  59.2549371893044 4.63538074509574  58.8678765681011 4.63538074509574  C 58.6743462574993 4.63538074509574  58.2872856362959 4.82855164226351  58.0937553256941 4.82855164226351  C 57.5131643938892 5.02172253943127  57.1261037726856 5.02172253943127  56.3519825302789 5.21489343659903  C 55.5778612878719 5.40806433376679  54.6102097348635 5.60123523093455  53.2554975606515 5.79440612810214  C 52.0943156970412 5.9875770252699  50.933133833431 6.18074792243766  49.7719519698207 6.37391881960542  C 48.8043004168123 6.56708971677318  47.8366488638038 6.56708971677318  46.8689973107953 6.76026061394094  C 46.8689973107953 6.56708971677318  46.4819366895919 6.56708971677318  45.9013457577867 6.56708971677318  C 45.3207548259816 6.56708971677318  44.9336942047781 6.76026061394094  44.5466335835748 6.76026061394094  C 43.9660426517696 6.76026061394094  43.5789820305662 6.95343151110848  42.9983910987612 6.95343151110848  C 42.6113304775577 6.95343151110848  42.4178001669559 6.95343151110848  42.0307395457525 7.14660240827624  C 41.8372092351509 7.14660240827624  41.4501486139475 7.33977330544406  41.0630879927439 7.33977330544406  C 38.7407242655236 7.72611509977958  37.9666030231167 8.1124568941151  37.1924817807101 8.49879868845039  L 36.9989514701083 8.49879868845039  C 36.9989514701083 8.49879868845039  36.8054211595065 8.49879868845039  36.8054211595065 8.69196958561815  C 36.6118908489047 8.69196958561815  36.4183605383031 8.88514048278591  35.837769606498 8.88514048278591  C 35.6442392958963 9.07831137995367  35.2571786746928 9.27148227712149  34.8701180534896 9.27148227712149  C 34.483057432286 9.46465317428903  33.9024665004811 9.46465317428903  33.3218755686759 9.65782407145679  C 32.7412846368707 9.85099496862455  32.3542240156673 10.0441658657923  31.7736330838621 10.0441658657923  L 31.5801027732604 10.0441658657923  C 31.1930421520572 10.2373367629601  30.6124512202518 10.2373367629601  30.0318602884469 10.4305076601278  C 29.6447996672434 10.4305076601278  29.0642087354382 10.6236785572954  28.4836178036331 10.6236785572954  L 27.1289056294212 11.0100203516309  C 26.3547843870144 11.0100203516309  25.3871328340058 11.2031912487987  24.4194812809973 11.3963621459665  C 24.2259509703957 11.3963621459665  23.8388903491923 11.5895330431342  23.6453600385905 11.5895330431342  C 23.4518297279888 11.5895330431342  23.2582994173872 11.7827039403018  22.8712387961838 11.7827039403018  C 22.4841781749803 11.9758748374696  21.903587243175 11.9758748374696  21.32299631137 12.1690457346373  C 21.1294660007683 12.3622166318051  20.7424053795648 12.3622166318051  20.5488750689633 12.5553875289729  C 20.3553447583615 12.5553875289729  20.1618144477599 12.7485584261406  19.9682841371581 12.7485584261406  C 19.7747538265563 12.7485584261406  19.5812235159547 12.9417293233082  19.3876932053531 13.1349002204759  C 19.1941628947513 13.1349002204759  19.0006325841496 13.3280711176437  19.0006325841496 13.3280711176437  C 19.0006325841496 13.5212420148115  18.8071022735479 13.5212420148115  18.8071022735479 13.5212420148115  L 18.8071022735479 13.7144129119793  C 18.8071022735479 13.907583809147  18.6135719629461 14.1007547063148  18.2265113417428 14.2939256034823  C 17.8394507205394 14.6802673978178  17.4523900993358 14.8734382949856  16.4847385463274 15.2597800893212  C 15.7106173039205 15.6461218836565  14.9364960615137 16.032463677992  13.9688445085052 16.2256345751597  C 13.9688445085052 16.2256345751597  13.5817838873018 16.4188054723275  13.3882535767 16.4188054723275  L 13.1947232660984 16.4188054723275  C 13.0011929554967 16.4188054723275  12.807662644895 16.6119763694951  12.6141323342932 16.6119763694951  C 12.2270717130899 16.8051472666629  11.8400110918865 16.8051472666629  11.452950470683 16.9983181638306  Z M 235.369340570054 14.1065529239717  C 235.268741197053 14.081035667563  235.171979237665 14.0613166288113  235.077028094353 14.0415975900594  C 235.180005550965 14.0654316057683  235.27680753209 14.085814722573  235.369340570054 14.1065529239717  Z M 178.276078209354 46.939807224829  C 178.554670003486 46.8702886224861  178.808196800203 46.8007700201433  179.05019945176 46.7466363276612  C 178.792159037625 46.8110266267171  178.534118623489 46.875416925773  178.276078209354 46.939807224829  Z M 234.58697881673 13.9365055219196  C 234.745383233539 13.9715362112996  234.90834826926 14.0065669006795  235.07702809421 14.0415975900263  C 234.930212452703 14.0076172760715  234.770844296376 13.9666225291163  234.58697881673 13.9365055219196  Z M 229.170954769996 12.3716108889578  C 229.440451237956 12.4743629046585  229.756885142461 12.5948289029543  230.131593210817 12.7443245572316  C 229.820889826236 12.6192864998411  229.507422033853 12.4951182098613  229.170954769996 12.3716108889578  Z " fill-rule="nonzero" fill="#00efef" stroke="none" transform="matrix(1 0 0 1 811 465 )" />
  </g>
</svg>