<?xml version="1.0" encoding="utf-8"?>
<svg version="1.1" xmlns:xlink="http://www.w3.org/1999/xlink" width="461px" height="105px" xmlns="http://www.w3.org/2000/svg">
  <g transform="matrix(1 0 0 1 -8 -140 )">
    <path d="M 461 105  L 461 0.428798300215881  C 461 0.428798300215881  444.040225265804 13.3885398906119  440.200651630965 22.3750377600725  C 434.222455375686 36.3646925894406  429.413041250182 84.7605176325015  420.291567096951 84.4676991625976  C 413.114747466029 84.240512418707  407.852741111549 42.8672820590277  400.69084210356 41.8727089802166  C 393.546350488993 40.8831844957143  384.031966598519 69.4026937454797  378.451653621461 78.5103578783485  C 374.224143790356 85.4067377040133  363.685210458461 102.380111769815  358.850928628069 97.3870519985246  C 347.334694494042 85.4875152129522  350.771411309681 10.3240431452398  338.747875995922 0.711519581502277  C 333.570419838063 -3.42832775162018  323.399528538523 14.6557370620919  319.020325707597 21.627845802387  C 313.83789600876 29.8822974970883  305.086950658374 53.7823429544062  298.53928396114 55.2969212470119  C 293.535901737503 56.4580979380096  284.456702682584 41.3678495493479  279.440886606502 42.2866937135288  C 273.828245613089 43.311558358192  264.629681574703 58.8511316403265  259.588997793733 63.9704062693338  C 254.976038536851 68.6555017877942  244.9643005486 77.7379229491196  239.861447505408 76.2132474678966  C 234.189124020261 74.5219683744871  225.187014850497 56.3318830802924  219.507231053884 54.7870132218346  C 214.575965174425 53.4440871357243  204.897454431684 61.1633878337046  200.157669879869 64.2228359847681  C 195.208996606988 67.4185961821663  185.366359011981 76.2283932508228  180.178955772167 75.7639225744237  C 175.01890700773 75.3045004923333  165.544311445078 64.4146825684983  160.389236221619 63.7129279595908  C 155.430615866783 63.036416322227  144.876761911954 68.7059877308811  140.505019392494 63.904774543321  C 134.188622350726 56.9629573688782  127.802595735269 24.0057337217778  120.715299841947 21.6227972080784  C 115.540330454578 19.8860807658904  105.78721659717 37.5107234975121  100.736585734245 34.6330247415613  C 94.5718816922987 31.1192031027162  87.4423107006652 3.41756613095772  81.1358607408527 1.15074728635791  C 75.6624788948167 -0.818204494029587  64.9594187106555 13.1007700150169  61.3138131739499 21.6227972080784  C 55.2460931810704 35.8093472154851  50.5883720553887 85.2401340918265  41.3350990662475 84.8867324902187  C 34.0911366321253 84.609059803241  28.7197123761335 41.4082383038175  21.483210253478 42.0342639980944  C 12.8391960341135 42.7814559557801  0 97.1346222830902  0 97.1346222830902  L 0 105  L 461 105  Z " fill-rule="nonzero" fill="#1890ff" stroke="none" fill-opacity="0.298039215686275" transform="matrix(1 0 0 1 8 140 )" />
  </g>
</svg>