<?xml version="1.0" encoding="utf-8"?>
<svg version="1.1" xmlns:xlink="http://www.w3.org/1999/xlink" width="400px" height="90px" xmlns="http://www.w3.org/2000/svg">
  <g transform="matrix(1 0 0 1 -736 -536 )">
    <path d="M 291.291314081888 82.8557340720221  C 290.12907177822 83.2417728531854  289.160536525163 83.6278116343489  287.998294221495 84.0138504155124  L 287.610880120272 84.2068698060941  C 286.448637816604 84.5929085872574  285.286395512935 84.7859279778392  283.736739108044 85.1719667590027  C 279.862598095816 85.7510249307479  275.601042982366 86.3300831024929  270.177245565247 86.9091412742382  L 268.627589160356 85.5580055401662  C 273.663972476252 84.9789473684209  277.731820539091 84.3998891966759  281.218547450096 83.8208310249308  C 282.574496804376 83.6278116343491  283.543032057433 83.2417728531856  284.705274361101 83.0487534626038  L 285.092688462324 82.8557340720221  C 286.254930765992 82.4696952908588  287.41717306966 82.0836565096953  288.385708322717 81.8906371191135  L 288.579415373329 81.8906371191135  C 289.547950626386 81.5045983379503  290.516485879443 81.3115789473685  291.678728183111 80.925540166205  C 292.259849334945 80.7325207756232  292.840970486779 80.5395013850415  293.422091638613 80.3464819944597  L 293.809505739836 80.1534626038782  C 294.196919841059 79.9604432132965  294.778040992893 79.9604432132965  295.359162144727 79.7674238227147  C 298.071060853287 78.9953462603879  301.557787764292 78.4162880886427  306.400464029576 77.6442105263159  C 310.468312092416 76.8721329639891  314.342453104643 76.4860941828256  318.410301167482 76.2930747922438  C 321.703321027876 76.1000554016621  324.608926787047 75.9070360110803  327.514532546218 75.9070360110803  L 327.708239596829 75.9070360110803  C 329.25789600172 75.9070360110803  330.613845356 75.7140166204986  332.163501760891 75.7140166204986  C 333.325744064559 75.7140166204986  334.681693418839 75.520997229917  336.618763924953 75.3279778393353  C 338.168420329844 75.1349584487535  339.911783785347 74.9419390581718  341.461440190238 74.74891966759  C 342.236268392683 74.5559002770085  343.20480364574 74.3628808864268  344.173338898797 74.3628808864268  C 344.948167101243 74.169861495845  345.722995303688 73.9768421052632  346.691530556745 73.7838227146815  L 346.885237607357 73.7838227146815  C 348.628601062859 73.3977839335182  350.17825746775 72.818725761773  351.340499771419 72.4326869806094  C 351.921620923253 72.2396675900279  352.502742075087 72.0466481994461  352.89015617631 71.8536288088644  C 353.277570277532 71.6606094182827  353.664984378755 71.4675900277009  354.052398479978 71.2745706371193  C 355.408347834257 70.5024930747923  356.183176036703 69.7304155124655  356.764297188537 68.9583379501385  L 357.732832441594 67.8002216066482  C 358.120246542817 67.4141828254849  358.50766064404 67.0281440443214  359.088781795874 66.6421052631579  C 359.669902947708 66.2560664819946  360.444731150154 65.8700277008311  361.41326640321 65.2909695290861  L 361.800680504433 65.0979501385043  C 362.575508706879 64.7119113573408  363.544043959936 64.3258725761773  364.706286263604 63.7468144044323  C 365.868528567273 63.3607756232688  367.030770870941 62.9747368421055  368.386720225221 62.588698060942  C 369.355255478278 62.2026592797785  370.517497781946 62.0096398891967  371.679740085614 61.6236011080334  C 373.229396490505 61.2375623268699  374.779052895396 61.0445429362882  376.328709300288 60.8515235457064  C 376.909830452122 60.8515235457064  377.490951603956 60.6585041551249  377.878365705179 60.6585041551249  L 378.459486857013 60.6585041551249  C 381.946213768018 60.0794459833796  385.626647729634 59.3073684210528  388.338546438194 57.3771745152355  C 388.725960539417 57.1841551246538  389.113374640639 56.7981163434905  389.307081691251 56.6050969529088  C 389.500788741862 56.412077562327  389.694495792473 56.2190581717452  389.888202843085 55.8330193905817  C 390.081909893696 55.4469806094185  390.275616944308 55.060941828255  390.275616944308 54.6749030470917  C 390.275616944308 54.2888642659282  390.275616944308 53.9028254847647  390.081909893696 53.7098060941829  C 389.888202843085 53.3237673130196  389.694495792473 53.1307479224379  389.500788741862 52.7447091412744  C 388.919667590028 51.9726315789476  388.532253488805 51.3935734072023  388.338546438194 50.6214958448754  C 387.951132336971 49.8494182825485  388.144839387582 48.88432132964  388.919667590028 48.1122437673131  C 389.307081691251 47.1471468144046  390.081909893696 46.5680886426593  391.050445146753 45.9890304709143  C 391.825273349199 45.409972299169  392.793808602255 45.0239335180057  393.762343855312 44.6378947368422  C 394.343465007147 44.4448753462605  394.73087910837 44.2518559556787  395.118293209592 44.058836565097  C 395.505707310815 43.8658171745154  395.893121412038 43.6727977839337  396.086828462649 43.2867590027702  C 396.474242563872 43.0937396121884  396.667949614483 42.7077008310251  396.667949614483 42.3216620498616  C 396.667949614483 42.1286426592799  396.861656665095 41.9356232686981  396.861656665095 41.7426038781164  C 396.861656665095 41.5495844875346  396.861656665095 41.3565650969531  396.667949614483 41.1635457063713  C 396.28053551326 39.4263711911358  394.149757956535 38.4612742382272  392.01898039981 37.4961772853187  L 391.825273349199 37.303157894737  C 391.631566298587 37.1101385041552  391.244152197364 37.1101385041552  390.856738096142 36.9171191135734  C 390.081909893696 36.5310803324102  389.113374640639 36.1450415512467  388.532253488805 35.7590027700832  C 387.951132336971 35.3729639889198  387.563718235748 35.1799445983381  387.176304134525 34.7939058171746  C 386.595182982691 34.4078670360113  386.207768881468 34.0218282548478  385.820354780245 33.6357894736843  C 385.432940679023 33.2497506925208  385.239233628412 33.0567313019392  385.0455265778 32.6706925207757  L 385.0455265778 32.477673130194  C 384.658112476577 32.0916343490305  384.658112476577 31.8986149584487  384.658112476577 31.5125761772853  C 384.658112476577 31.3195567867037  384.658112476577 31.1265373961219  384.851819527189 30.9335180055402  L 385.0455265778 30.3544598337949  C 385.239233628412 29.9684210526316  385.432940679023 29.5823822714681  385.239233628412 29.1963434903046  C 385.239233628412 29.1963434903046  385.0455265778 29.0033240997229  385.0455265778 28.8103047091413  C 384.851819527189 28.6172853185596  384.851819527189 28.6172853185596  384.658112476577 28.4242659279778  C 384.270698375355 28.0382271468143  383.883284274132 27.8452077562326  383.108456071686 27.4591689750693  C 382.721041970463 27.2661495844876  382.527334919852 27.0731301939058  382.139920818629 27.0731301939058  C 381.752506717407 26.880110803324  381.365092616184 26.6870914127425  381.171385565572 26.6870914127425  C 380.590264413738 26.4940720221608  379.815436211293 26.1080332409973  379.234315059458 25.9150138504155  C 378.459486857013 25.7219944598338  377.878365705179 25.5289750692522  377.297244553344 25.3359556786705  C 376.71612340151 25.1429362880887  375.941295199065 24.949916897507  375.166466996619 24.7568975069252  L 374.972759946008 24.7568975069252  C 373.616810591728 24.3708587257619  372.260861237448 24.1778393351801  370.904911883169 23.5987811634349  C 369.161548427666 23.2127423822714  367.805599073386 22.6336842105263  366.449649719107 22.0546260387811  C 364.899993314215 21.475567867036  363.931458061159 20.8965096952908  363.156629858713 20.5104709141275  C 363.156629858713 20.5104709141275  362.962922808101 20.3174515235457  362.76921575749 20.3174515235457  C 362.575508706879 20.3174515235457  362.575508706879 20.124432132964  362.381801656267 20.124432132964  C 362.188094605656 19.9314127423822  361.994387555045 19.7383933518005  361.800680504433 19.7383933518005  C 361.606973453822 19.545373961219  361.41326640321 19.3523545706372  361.219559352599 19.3523545706372  C 361.219559352599 19.3523545706372  360.832145251376 19.1593351800555  360.444731150154 18.9663157894737  C 359.669902947708 18.5802770083102  358.313953593428 18.1942382271469  356.764297188537 17.6151800554017  L 358.50766064404 17.6151800554017  C 360.251024099542 18.1942382271469  361.41326640321 18.5802770083102  362.381801656267 18.9663157894737  C 362.76921575749 19.1593351800555  362.962922808101 19.3523545706372  363.156629858713 19.545373961219  C 363.350336909324 19.7383933518005  363.544043959936 19.9314127423822  363.737751010547 20.124432132964  C 363.931458061159 20.3174515235457  364.12516511177 20.5104709141275  364.318872162381 20.5104709141275  C 364.318872162381 20.5104709141275  364.512579212993 20.7034903047092  364.706286263604 20.7034903047092  L 364.899993314215 20.7034903047092  C 364.899993314215 20.7034903047092  365.093700364827 20.896509695291  365.287407415438 20.896509695291  C 365.868528567272 21.2825484764543  366.837063820329 21.6685872576178  368.38672022522 22.2476454293629  C 369.7426695795 22.8267036011081  371.09861893378 23.2127423822716  372.841982389283 23.7918005540167  C 374.197931743562 24.1778393351801  375.36017404723 24.5638781163435  376.71612340151 24.7568975069252  L 376.909830452122 24.7568975069252  C 377.684658654567 24.949916897507  378.265779806401 25.1429362880887  379.040608008847 25.3359556786705  C 379.621729160681 25.5289750692522  380.396557363126 25.7219944598338  381.171385565572 25.9150138504155  C 381.946213768018 26.1080332409973  382.721041970463 26.4940720221608  383.302163122297 26.6870914127425  C 383.68957722352 26.8801108033243  384.076991324743 27.0731301939058  384.464405425966 27.0731301939058  C 384.851819527188 27.2661495844876  385.0455265778 27.4591689750693  385.432940679023 27.6521883656511  C 386.014061830857 28.0382271468146  386.595182982691 28.4242659279778  386.982597083914 28.6172853185596  C 387.176304134525 28.8103047091413  387.370011185136 29.0033240997231  387.370011185136 29.0033240997231  C 387.563718235748 29.1963434903049  387.563718235748 29.1963434903049  387.563718235748 29.3893628808864  C 387.757425286359 29.9684210526316  387.563718235748 30.3544598337951  387.563718235748 30.5474792243767  L 387.370011185136 31.1265373961219  C 387.370011185136 31.3195567867037  387.176304134525 31.5125761772853  387.176304134525 31.705595567867  C 387.176304134525 31.8986149584487  387.370011185136 32.2846537396122  387.563718235748 32.477673130194  L 387.563718235748 32.6706925207757  C 387.757425286359 32.8637119113573  387.951132336971 33.2497506925208  388.338546438193 33.6357894736843  C 388.725960539416 34.0218282548476  389.113374640639 34.4078670360111  389.694495792473 34.7939058171746  C 390.081909893696 35.1799445983379  390.469323994919 35.3729639889197  391.050445146753 35.7590027700832  C 391.825273349199 36.1450415512464  392.600101551644 36.5310803324099  393.374929754089 36.9171191135734  C 393.762343855312 37.1101385041552  393.956050905924 37.1101385041552  394.343465007146 37.303157894737  L 394.730879108369 37.4961772853185  C 396.861656665094 38.461274238227  399.186141272431 39.6193905817175  399.767262424265 41.3565650969529  C 399.767262424265 41.5495844875346  399.960969474876 41.7426038781164  399.960969474876 42.1286426592796  C 399.960969474876 42.3216620498614  399.960969474876 42.5146814404432  399.767262424265 42.7077008310249  C 399.573555373654 43.0937396121884  399.379848323043 43.2867590027702  398.99243422182 43.6727977839334  C 398.798727171208 43.8658171745152  398.411313069986 44.2518559556787  397.830191918152 44.4448753462605  C 397.442777816929 44.637894736842  396.861656665094 44.8309141274237  396.474242563872 45.0239335180055  C 395.505707310815 45.409972299169  394.537172057758 45.7960110803323  393.762343855312 46.3750692520775  C 392.793808602255 46.9541274238228  392.01898039981 47.7262049861496  391.631566298587 48.4982825484765  C 391.050445146753 49.463379501385  390.856738096142 50.2354570637119  391.244152197364 51.0075346260388  C 391.437859247976 51.7796121883656  391.825273349199 52.3586703601109  392.406394501033 52.9377285318559  C 392.600101551644 53.3237673130194  392.987515652867 53.5167867036012  393.181222703478 53.9028254847647  C 393.374929754089 54.2888642659279  393.374929754089 54.6749030470915  393.374929754089 55.060941828255  C 393.374929754089 55.4469806094182  393.181222703478 55.8330193905817  392.987515652867 56.4120775623268  C 392.793808602255 56.6050969529085  392.600101551644 56.991135734072  392.406394501033 57.1841551246538  C 392.212687450421 57.3771745152355  391.825273349199 57.7632132963988  391.437859247976 57.9562326869806  C 388.532253488805 60.0794459833794  384.464405425966 60.8515235457064  380.977678514961 61.4305817174514  L 380.396557363126 61.4305817174514  C 379.815436211292 61.4305817174514  379.234315059458 61.6236011080332  378.653193907624 61.6236011080332  C 377.297244553344 61.816620498615  375.747588148453 62.0096398891967  374.391638794174 62.39567867036  C 373.035689439894 62.39567867036  372.067154186837 62.7817174515235  371.09861893378 62.9747368421052  C 369.7426695795 63.3607756232688  368.580427275832 63.746814404432  367.418184972164 64.1328531855955  C 366.255942668495 64.518891966759  365.48111446605 64.9049307479223  364.706286263604 65.2909695290858  L 364.318872162381 65.4839889196676  C 363.544043959936 65.8700277008309  362.76921575749 66.2560664819944  362.188094605656 66.6421052631579  C 361.606973453822 67.0281440443212  361.219559352599 67.4141828254847  360.832145251376 67.8002216066482  L 359.86360999832 68.9583379501385  C 359.476195897097 69.9234349030471  358.701367694651 70.6955124653739  357.15171128976 71.6606094182827  C 356.764297188537 71.8536288088644  356.376883087315 72.0466481994459  355.989468986092 72.2396675900277  C 355.408347834257 72.4326869806094  354.827226682423 72.6257063711912  354.246105530589 73.0117451523545  C 352.89015617631 73.397783933518  351.340499771419 73.9768421052632  349.597136315916 74.3628808864265  L 349.403429265305 74.3628808864265  C 348.434894012248 74.5559002770083  347.660065809802 74.74891966759  346.691530556745 74.9419390581718  C 345.722995303688 75.1349584487535  344.754460050631 75.3279778393351  343.785924797574 75.5209972299168  C 342.042561342072 75.7140166204986  340.299197886569 76.1000554016621  338.555834431067 76.2930747922436  C 336.618763924953 76.4860941828254  335.069107520062 76.6791135734071  333.713158165782 76.6791135734071  C 331.96979471028 76.6791135734071  330.420138305388 76.8721329639889  329.064188951109 76.8721329639889  L 328.870481900498 76.8721329639889  C 325.964876141327 77.0651523545706  323.252977432767 77.0651523545706  320.153664622985 77.2581717451524  C 316.279523610757 77.4511911357341  312.599089649141 78.0302493074792  308.531241586302 78.6093074792242  C 303.882272371628 79.3813850415512  300.395545460623 79.9604432132962  297.877353802676 80.7325207756232  C 297.296232650841 80.9255401662048  296.908818549618 80.9255401662048  296.521404448396 81.1185595567865  L 296.133990347173 81.3115789473683  C 295.552869195339 81.50459833795  294.971748043505 81.6976177285318  294.39062689167 81.8906371191135  C 293.422091638613 82.2766759002768  292.453556385557 82.4696952908586  291.4850211325 82.8557340720221  L 291.291314081888 82.8557340720221  Z M 8.47902018926186 33.4427700831026  L 8.67272723987332 33.4427700831026  C 9.83496954354155 32.6706925207756  10.9972118472099 32.0916343490305  12.546868252101 31.3195567867037  C 13.1279894039351 31.1265373961219  13.9028176063808 30.9335180055402  14.4839387582149 30.7404986149584  L 14.6776458088264 30.7404986149584  C 15.2587669606605 30.3544598337949  15.8398881124946 30.1614404432132  16.6147163149401 29.9684210526316  C 17.1958374667744 29.7754016620499  17.9706656692199 29.5823822714681  18.5517868210541 29.3893628808864  C 18.9392009222768 29.1963434903046  19.1329079728881 29.1963434903046  19.520322074111 29.0033240997229  L 19.7140291247224 29.0033240997229  C 19.9077361753339 29.0033240997229  20.2951502765565 28.8103047091413  20.4888573271679 28.8103047091413  C 21.8448066814476 28.2312465373961  23.2007560357274 27.6521883656511  24.5567053900071 26.880110803324  C 25.7189476936754 26.301052631579  26.6874829467324 25.9150138504155  27.0748970479552 25.3359556786705  C 27.6560181997893 24.949916897507  27.6560181997893 24.5638781163435  27.8497252504006 24.3708587257617  C 27.8497252504006 24.17783933518  28.0434323010121 23.9848199445984  28.2371393516236 23.7918005540167  C 28.4308464022349 23.5987811634349  28.6245534528462 23.4057617728532  29.011967554069 23.2127423822714  C 29.2056746046804 22.8267036011081  29.7867957565145 22.6336842105263  30.1742098577373 22.4406648199446  C 30.3679169083488 22.2476454293629  30.7553310095716 22.2476454293629  31.1427451107942 22.0546260387811  C 31.5301592120171 21.8616066481994  31.9175733132399 21.8616066481994  32.3049874144625 21.6685872576178  C 33.2735226675195 21.2825484764543  34.0483508699651 21.0895290858725  35.016886123022 20.8965096952908  C 35.5980072748563 20.5104709141275  35.9854213760789 20.5104709141275  36.3728354773018 20.3174515235457  C 36.7602495785246 20.124432132964  37.3413707303587 20.124432132964  37.7287848315815 19.9314127423822  C 39.4721482870839 19.5453739612187  41.021804691975 19.1593351800555  42.3777540462548 18.9663157894737  L 44.50853160298 18.5802770083102  C 45.4770668560369 18.5802770083102  46.0581880078712 18.3872576177284  46.8330162103167 18.1942382271469  C 47.6078444127621 18.0012188365652  48.3826726152079 17.8081994459834  49.1575008176533 17.6151800554017  L 49.5449149188762 17.6151800554017  C 50.3197431213216 17.4221606648199  51.0945713237674 17.2291412742381  51.8693995262128 17.0361218836566  C 52.6442277286583 16.8431024930749  53.4190559311039 16.4570637119114  54.1938841335494 16.2640443213296  C 54.7750052853837 16.0710249307479  55.3561264372178 15.8780055401661  55.7435405384406 15.6849861495846  C 56.5183687408861 15.4919667590028  56.9057828421089 15.2989473684211  57.2931969433315 15.1059279778393  C 57.486903993943 15.1059279778393  57.6806110445544 14.9129085872576  57.6806110445544 14.9129085872576  L 57.8743180951658 14.9129085872576  C 59.0365603988341 14.3338504155125  60.3925097531139 13.7547922437673  64.6540648665643 12.7896952908587  C 65.2351860183986 12.596675900277  65.8163071702327 12.596675900277  66.2037212714555 12.4036565096952  C 66.7848424232898 12.2106371191136  67.1722565245124 12.2106371191136  67.7533776763466 12.2106371191136  C 68.7219129294035 12.0176177285319  69.496741131849 11.8245983379501  70.4652763849059 11.8245983379501  C 71.2401045873517 11.6315789473684  72.0149327897971 11.6315789473684  72.983468042854 11.4385595567867  C 73.7582962452997 11.2455401662049  74.5331244477452 11.2455401662049  75.3079526501906 11.2455401662049  C 76.8576090550818 11.0525207756233  78.2135584093616 10.8595013850416  79.5695077636412 10.6664819944598  C 81.5065782697551 10.4734626038781  83.0562346746462 10.0874238227146  84.99330518076 9.89440443213289  C 86.9303756868741 9.50836565096955  88.480032091765 9.3153462603878  89.6422743954333 8.92930747922429  C 90.8045166991019 8.73628808864254  91.5793449015473 8.54326869806101  92.3541731039928 8.35024930747926  C 92.7415872052156 8.15722991689751  93.1290013064383 8.15722991689751  93.7101224582725 7.96421052631575  C 94.2912436101068 7.771191135734  94.8723647619408 7.771191135734  95.2597788631638 7.57817174515225  C 96.0346070656092 7.38515235457072  96.8094352680547 7.19213296398897  97.5842634705003 7.19213296398897  C 97.971677571723 6.99911357340721  98.5527987235573 6.99911357340721  98.9402128247799 6.99911357340721  C 99.5213339766142 6.99911357340721  99.908748077837 6.80609418282546  100.683576280283 6.80609418282546  C 105.138838444344 6.22703601108043  108.238151254127 6.03401662049868  110.756342912075 5.84099722991692  L 111.143757013297 5.84099722991692  C 111.53117111452 5.84099722991692  111.918585215743 5.84099722991692  112.305999316966 5.84099722991692  C 113.274534570023 5.84099722991692  114.436776873691 5.64797783933517  115.405312126748 5.64797783933517  C 116.180140329193 5.64797783933517  117.14867558225 5.45495844875342  117.923503784696 5.45495844875342  C 119.085746088364 5.26193905817166  120.054281341421 5.26193905817166  121.022816594478 5.06891966759014  C 121.991351847535 4.87590027700838  122.766180049981 4.87590027700838  123.541008252426 4.87590027700838  L 123.928422353649 4.87590027700838  C 124.703250556095 4.87590027700838  125.47807875854 4.68288088642663  126.059199910374 4.68288088642663  C 126.640321062208 4.68288088642663  127.221442214043 4.48986149584488  127.802563365877 4.48986149584488  L 129.352219770768 4.29684210526312  C 130.320755023825 4.1038227146816  131.289290276882 3.91080332409985  132.645239631161 3.71778393351809  C 133.032653732384 3.71778393351809  133.420067833607 3.71778393351809  133.80748193483 3.52476454293634  C 134.194896036053 3.52476454293634  134.582310137275 3.52476454293634  135.163431289109 3.33174515235459  C 136.131966542167 3.33174515235459  137.100501795224 3.13872576177283  138.262744098892 3.13872576177283  L 138.456451149503 3.13872576177283  C 139.037572301337 3.13872576177283  139.618693453172 3.13872576177283  140.006107554394 2.94570637119125  C 140.587228706228 2.94570637119125  140.974642807451 2.94570637119125  141.555763959285 2.94570637119125  C 142.524299212342 2.94570637119125  143.299127414788 2.94570637119125  144.267662667845 2.7526869806095  C 145.236197920902 2.7526869806095  145.817319072736 2.7526869806095  146.592147275181 2.7526869806095  C 147.366975477627 2.7526869806095  147.948096629461 2.7526869806095  148.722924831907 2.7526869806095  L 148.916631882518 2.7526869806095  C 150.272581236798 2.7526869806095  151.434823540466 2.7526869806095  152.790772894746 2.7526869806095  C 154.534136350248 2.7526869806095  156.277499805751 2.5596675900278  158.408277362476 2.5596675900278  C 160.732761969813 2.36664819944605  162.282418374704 2.36664819944605  163.638367728983 2.17362880886429  C 163.832074779595 2.17362880886429  164.219488880818 2.17362880886429  164.413195931429 2.17362880886429  L 164.60690298204 2.17362880886429  C 164.994317083263 2.17362880886429  165.188024133875 2.17362880886429  165.575438235098 2.17362880886429  C 166.156559386932 2.17362880886429  166.543973488154 1.98060941828254  167.125094639988 1.98060941828254  C 167.706215791823 1.98060941828254  168.287336943657 1.78759002770096  168.868458095491 1.78759002770096  L 169.062165146102 1.78759002770096  C 169.643286297936 1.78759002770096  170.224407449771 1.5945706371192  170.805528601605 1.5945706371192  C 172.355185006496 1.40155124653745  174.29225551261 1.40155124653745  176.423033069335 1.40155124653745  L 176.616740119946 1.5945706371192  C 174.485962563221 1.5945706371192  172.742599107719 1.78759002770096  171.192942702828 1.78759002770096  C 170.611821550993 1.78759002770096  170.030700399159 1.78759002770096  169.643286297936 1.98060941828254  L 169.449579247325 1.98060941828254  C 168.868458095491 1.98060941828254  168.287336943657 2.17362880886429  167.899922842434 2.17362880886429  C 167.3188016906 2.17362880886429  166.931387589377 2.36664819944605  166.350266437543 2.36664819944605  C 165.96285233632 2.36664819944605  165.769145285709 2.36664819944605  165.381731184486 2.36664819944605  L 165.188024133875 2.36664819944605  C 164.994317083263 2.36664819944605  164.60690298204 2.36664819944605  164.413195931429 2.36664819944605  C 163.057246577149 2.5596675900278  161.313883121647 2.5596675900278  158.795691463699 2.7526869806095  C 156.664913906974 2.94570637119125  154.921550451471 2.94570637119125  152.984479945357 2.94570637119125  C 151.434823540466 2.94570637119125  150.078874186186 2.94570637119125  148.916631882518 2.94570637119125  L 148.335510730684 2.94570637119125  C 147.560682528238 2.94570637119125  146.979561376404 2.94570637119125  146.39844022457 2.94570637119125  C 145.817319072736 2.94570637119125  145.236197920902 2.94570637119125  144.267662667845 2.94570637119125  C 143.492834465399 2.94570637119125  142.718006262954 2.94570637119125  141.749471009897 3.13872576177283  C 141.362056908674 3.13872576177283  140.78093575684 3.13872576177283  140.199814605006 3.13872576177283  C 139.812400503783 3.13872576177283  139.231279351949 3.13872576177283  138.650158200114 3.33174515235459  L 138.456451149503 3.33174515235459  C 137.294208845835 3.33174515235459  136.325673592778 3.52476454293634  135.550845390332 3.52476454293634  C 135.163431289109 3.52476454293634  134.776017187887 3.52476454293634  134.388603086664 3.71778393351809  C 134.001188985441 3.71778393351809  133.80748193483 3.71778393351809  133.420067833607 3.91080332409985  C 132.064118479327 4.1038227146816  131.09558322627 4.29684210526312  130.320755023825 4.29684210526312  L 128.771098618934 4.48986149584488  C 128.1899774671 4.68288088642663  127.608856315265 4.68288088642663  127.027735163431 4.68288088642663  C 126.252906960986 4.87590027700838  125.47807875854 4.87590027700838  124.703250556095 5.06891966759014  L 124.315836454872 5.06891966759014  C 123.541008252426 5.06891966759014  122.766180049981 5.26193905817166  121.603937746312 5.45495844875342  C 120.635402493255 5.64797783933517  119.473160189587 5.64797783933517  118.50462493653 5.84099722991692  C 117.536089683473 5.84099722991692  116.761261481028 6.03401662049868  115.792726227971 6.03401662049868  C 114.630483924302 6.03401662049868  113.468241620634 6.2270360110802  112.499706367577 6.2270360110802  C 112.112292266355 6.2270360110802  111.724878165132 6.2270360110802  111.337464063909 6.2270360110802  L 110.950049962686 6.2270360110802  C 108.431858304738 6.03401662049868  105.719959596179 6.22703601108043  101.458404482728 6.80609418282546  C 100.877283330894 6.99911357340721  100.489869229671 6.99911357340721  99.908748077837 6.99911357340721  C 99.5213339766142 6.99911357340721  98.9402128247799 7.19213296398897  98.5527987235573 7.19213296398897  C 97.971677571723 7.38515235457072  97.1968493692775 7.57817174515225  96.6157282174435 7.57817174515225  C 96.0346070656092 7.771191135734  95.6471929643864 7.771191135734  95.0660718125523 7.96421052631575  C 94.6786577113295 8.15722991689751  94.2912436101068 8.15722991689751  93.903829508884 8.35024930747926  C 93.1290013064383 8.54326869806101  92.1604660533814 8.73628808864254  91.1919308003245 8.92930747922429  C 89.8359814460448 9.3153462603878  88.2863250411535 9.50836565096955  86.1555474844283 9.89440443213289  C 84.2184769783146 10.2804432132963  82.475113522812 10.4734626038781  80.5380430166982 10.8595013850416  C 78.9883866118071 11.0525207756233  77.438730206916 11.2455401662049  75.8890738020249 11.4385595567867  C 75.3079526501906 11.4385595567867  74.5331244477452 11.6315789473684  73.7582962452997 11.6315789473684  C 72.983468042854 11.6315789473684  72.2086398404085 11.8245983379501  71.433811637963 12.0176177285319  C 70.6589834355174 12.0176177285319  69.6904481824605 12.2106371191135  68.915619980015 12.4036565096952  C 68.5282058787922 12.4036565096952  67.9470847269581 12.596675900277  67.5596706257352 12.596675900277  C 66.978549473901 12.596675900277  66.5911353726783 12.7896952908587  66.010014220844 12.9827146814405  C 61.9421661580051 13.7547922437673  60.7799238543368 14.3338504155125  59.8113886012796 14.7198891966758  L 59.6176815506682 14.7198891966758  C 59.4239745000569 14.7198891966758  59.2302674494456 14.9129085872576  59.2302674494456 14.9129085872576  C 58.6491462976113 15.2989473684211  58.2617321963887 15.4919667590028  57.6806110445544 15.8780055401661  C 57.0994898927204 15.8780055401661  56.5183687408861 16.0710249307479  55.937247589052 16.2640443213296  C 55.1624193866063 16.6500831024931  54.3875911841609 16.8431024930749  53.4190559311039 17.0361218836566  C 52.6442277286583 17.2291412742381  51.8693995262128 17.6151800554017  51.0945713237674 17.6151800554017  L 50.7071572225444 17.6151800554017  C 49.932329020099 18.0012188365652  49.1575008176533 18.1942382271469  48.1889655645964 18.3872576177284  C 47.4141373621509 18.5802770083102  46.6393091597052 18.5802770083102  45.8644809572597 18.7732963988919  L 43.5399963499232 19.1593351800555  C 42.1840469956434 19.5453739612187  40.8280976413637 19.7383933518005  39.2784412364726 20.124432132964  C 38.8910271352498 20.124432132964  38.503613034027 20.3174515235457  38.1161989328043 20.3174515235457  C 37.7287848315815 20.3174515235457  37.3413707303587 20.5104709141275  36.9539566291361 20.7034903047091  C 35.9854213760789 21.0895290858725  35.2105931736335 21.2825484764543  34.2420579205766 21.475567867036  C 33.8546438193537 21.6685872576178  33.4672297181309 21.8616066481994  33.0798156169083 22.0546260387811  C 32.8861085662968 22.0546260387811  32.498694465074 22.2476454293629  32.3049874144625 22.4406648199446  C 31.7238662626285 22.6336842105263  31.3364521614056 22.8267036011081  31.1427451107942 23.0197229916898  C 30.7553310095716 23.2127423822714  30.5616239589601 23.4057617728532  30.5616239589601 23.4057617728532  C 30.3679169083488 23.7918005540167  30.1742098577373 23.9848199445984  30.1742098577373 24.17783933518  C 29.980502807126 24.5638781163435  29.7867957565145 24.7568975069252  29.3993816552918 25.3359556786705  C 28.8182605034576 25.7219944598338  28.0434323010121 26.301052631579  26.6874829467324 26.880110803324  C 25.3315335924526 27.6521883656511  23.9755842381728 28.2312465373961  22.6196348838931 28.8103047091413  C 22.4259278332819 28.8103047091413  22.0385137320591 29.0033240997229  21.8448066814476 29.0033240997229  L 21.6510996308363 29.0033240997229  C 21.2636855296136 29.1963434903046  20.8762714283907 29.3893628808864  20.4888573271679 29.3893628808864  C 19.9077361753339 29.5823822714681  19.1329079728881 29.7754016620499  18.5517868210541 29.9684210526316  C 17.7769586186087 30.1614404432132  17.1958374667744 30.3544598337949  16.4210092643289 30.7404986149584  L 16.2273022137175 30.7404986149584  C 15.6461810618832 30.9335180055402  15.0650599100492 31.1265373961219  14.6776458088264 31.3195567867037  C 13.3216964545466 31.8986149584487  12.1594541508782 32.4776731301938  11.1909188978213 33.2497506925208  L 10.9972118472099 33.2497506925208  C 10.2223836447645 34.0218282548476  9.83496954354155 34.6008864265929  9.83496954354155 35.1799445983379  C 9.83496954354155 35.3729639889197  10.028676594153 35.5659833795014  10.028676594153 35.7590027700832  C 10.2223836447645 35.9520221606649  10.4160906953758 36.1450415512464  10.8035047965985 36.3380609418282  C 10.9972118472099 36.5310803324099  11.1909188978213 36.7240997229917  11.3846259484328 36.9171191135734  C 11.5783329990442 37.1101385041552  11.5783329990442 37.1101385041552  11.5783329990442 37.303157894737  L 11.7720400496556 37.4961772853185  C 12.1594541508782 38.2682548476455  12.1594541508782 38.8473130193905  11.7720400496556 39.8124099722991  C 11.3846259484328 40.5844875346261  10.8035047965985 41.3565650969529  9.83496954354155 42.1286426592796  C 9.06014134109614 42.7077008310249  8.09160608803927 43.2867590027702  7.12307083498206 43.8658171745152  C 6.73565673375947 44.058836565097  6.15453558192519 44.4448753462602  5.7671214807026 44.637894736842  C 5.37970737947978 45.0239335180055  4.99229327825685 45.2169529085872  4.60487917703404 45.6029916897508  C 4.4111721264228 45.989030470914  4.02375802519998 46.3750692520775  4.02375802519998 46.7611080332408  C 4.02375802519998 46.9541274238227  3.83005097458852 47.1471468144043  3.83005097458852 47.3401662049861  C 3.83005097458852 47.5331855955678  3.83005097458852 47.7262049861496  4.02375802519998 47.9192243767313  C 4.21746507581145 48.3052631578947  4.4111721264228 48.88432132964  4.7985862276455 49.2703601108034  C 4.7985862276455 49.463379501385  4.99229327825685 49.6563988919668  5.18600032886832 49.8494182825485  C 5.37970737947978 50.0424376731303  5.57341443009113 50.0424376731303  5.96082853131384 50.2354570637119  C 7.12307083498206 50.8145152354571  8.28531313865039 51.2005540166206  9.6412624929302 51.5865927977841  L 11.5783329990442 52.1656509695291  C 12.3531612014897 52.3586703601109  13.1279894039351 52.5516897506926  13.7091105557694 52.9377285318559  C 14.4839387582149 53.3237673130194  15.0650599100492 53.5167867036012  15.6461810618832 53.9028254847647  L 15.8398881124946 54.0958448753462  C 16.4210092643289 54.4818836565097  17.0021304161629 54.8679224376732  17.5832515679972 55.2539612188365  C 18.1643727198312 55.4469806094182  18.5517868210541 56.0260387811635  18.939200922277 56.4120775623268  C 19.3266150234996 56.7981163434903  19.520322074111 57.1841551246538  19.7140291247224 57.5701939058173  C 19.9077361753339 58.1492520775623  19.9077361753339 58.7283102493073  19.7140291247224 59.3073684210526  C 19.7140291247224 59.5003878116344  19.7140291247224 59.6934072022161  19.7140291247224 59.8864265927979  L 19.7140291247224 60.0794459833794  C 19.7140291247224 61.4305817174514  19.520322074111 62.7817174515235  23.7818771875617 64.7119113573406  C 24.3629983393957 65.0979501385041  24.9441194912298 65.2909695290858  25.3315335924526 65.4839889196676  C 25.9126547442869 65.6770083102493  26.493775896121 65.8700277008311  27.0748970479552 66.0630470914126  C 28.4308464022349 66.2560664819944  29.3993816552918 66.6421052631579  30.7553310095716 66.8351246537396  C 31.7238662626285 67.0281440443212  32.8861085662968 67.2211634349031  34.0483508699651 67.4141828254847  C 35.2105931736335 67.6072022160664  36.3728354773018 67.6072022160664  37.5350777809701 67.8002216066482  C 40.2469764895296 67.9932409972299  42.5714610968662 68.1862603878117  45.2833598054254 68.7653185595568  C 48.3826726152079 69.1513573407202  51.2882783743785 69.7304155124654  54.3875911841609 70.6955124653739  C 57.6806110445544 71.4675900277009  60.005095651891 72.2396675900277  61.9421661580049 73.2047645429365  C 63.6855296135075 73.9768421052632  64.8477719171758 74.5559002770083  66.2037212714555 75.3279778393353  C 66.7848424232898 75.7140166204986  67.3659635751238 76.1000554016621  68.1407917775693 76.4860941828256  C 68.915619980015 76.8721329639889  69.8841552330719 77.2581717451524  70.6589834355174 77.6442105263159  C 71.8212257391857 78.0302493074792  72.983468042854 78.4162880886427  74.5331244477452 78.8023268698062  C 75.3079526501906 78.9953462603879  76.2764879032476 79.1883656509697  77.0513161056932 79.3813850415512  C 78.0198513587501 79.574404432133  79.1820936624184 79.7674238227147  80.1506289154753 79.9604432132965  C 89.0611532435993 81.5045983379503  95.2597788631638 81.5045983379503  101.070990381505 81.3115789473685  L 101.845818583951 81.3115789473685  C 102.620646786396 81.3115789473685  103.589182039453 81.3115789473685  104.364010241899 81.3115789473685  C 106.882201899847 81.3115789473685  109.206686507184 81.3115789473685  112.112292266355 81.3115789473685  C 114.24306982308 81.3115789473685  116.180140329193 81.5045983379503  118.310917885919 81.5045983379503  C 120.829109543867 81.6976177285318  123.153594151203 81.8906371191135  125.671785809152 82.0836565096953  C 127.996270416488 82.276675900277  130.127047973214 82.4696952908588  132.064118479327 82.8557340720221  L 132.838946681773 83.0487534626038  C 134.776017187887 83.2417728531856  136.713087694001 83.6278116343489  138.456451149503 83.8208310249306  C 140.006107554394 84.0138504155124  141.362056908674 84.3998891966759  142.911713313565 84.7859279778394  L 146.785854325793 85.7510249307479  C 149.304045983741 86.3300831024929  151.822237641689 86.9091412742382  155.308964552694 87.2951800554015  C 156.277499805751 87.4881994459832  157.052328008196 87.4881994459832  158.020863261253 87.681218836565  C 158.98939851431 87.681218836565  159.957933767367 87.8742382271467  161.120176071036 87.8742382271467  C 163.444660678372 88.0672576177285  166.156559386932 88.2602770083103  169.062165146102 88.2602770083103  L 169.449579247325 88.2602770083103  C 170.805528601605 88.2602770083103  172.161477955885 88.2602770083103  173.323720259553 88.4532963988918  C 174.679669613833 88.4532963988918  176.035618968112 88.4532963988918  177.197861271781 88.4532963988918  C 179.522345879117 88.4532963988918  181.653123435843 88.2602770083103  183.783900992568 88.2602770083103  C 185.914678549293 88.0672576177285  187.658042004796 88.0672576177285  189.013991359075 87.8742382271467  C 190.563647763967 87.681218836565  192.113304168857 87.4881994459832  193.85666762436 87.2951800554015  L 194.050374674971 87.2951800554015  C 197.149687484754 86.9091412742382  200.249000294536 86.5231024930747  204.123141306764 86.1370637119114  C 208.578403470825 85.7510249307479  213.227372685499 85.3649861495844  218.651170102618 85.3649861495844  C 224.656088671571 85.1719667590027  229.305057886244 85.1719667590027  233.372905949083 85.3649861495844  C 234.147734151529 85.3649861495844  234.922562353974 85.3649861495844  235.503683505808 85.5580055401662  L 236.084804657643 85.5580055401662  C 237.0533399107 85.5580055401662  237.828168113145 85.5580055401662  238.796703366202 85.7510249307479  C 240.346359771093 85.9440443213297  242.089723226596 85.9440443213297  243.639379631487 86.1370637119114  L 243.833086682098 86.1370637119114  C 245.382743086989 86.3300831024929  247.126106542492 86.3300831024929  248.869469997994 86.5231024930747  L 249.450591149829 86.5231024930747  C 251.000247554719 86.5231024930747  252.549903959611 86.7161218836565  254.099560364502 86.7161218836565  C 258.554822528564 86.7161218836565  263.010084692625 86.5231024930747  268.240175059133 86.1370637119114  L 269.596124413413 87.4881994459832  C 264.172326996294 87.8742382271467  259.135943680398 88.0672576177285  254.486974465724 88.0672576177285  C 252.549903959611 88.0672576177285  250.806540504108 88.0672576177285  249.256884099217 87.8742382271467  L 248.675762947383 87.8742382271467  C 246.738692441269 87.681218836565  244.995328985766 87.681218836565  243.445672580875 87.4881994459832  L 243.251965530264 87.4881994459832  C 241.702309125373 87.2951800554015  240.152652720482 87.2951800554015  238.602996315591 87.10216066482  C 237.828168113145 87.10216066482  236.859632860088 87.10216066482  236.084804657643 86.9091412742382  L 235.309976455197 86.9091412742382  C 234.728855303363 86.9091412742382  233.954027100917 86.9091412742382  233.179198898472 86.7161218836565  C 229.305057886244 86.5231024930747  224.849795722182 86.5231024930747  219.038584203841 86.7161218836565  C 213.808493837333 86.9091412742382  209.353231673271 87.10216066482  204.897969509209 87.4881994459832  C 201.217535547593 87.8742382271467  198.311929788422 88.2602770083103  195.21261697864 88.6463157894736  L 195.018909928028 88.6463157894736  C 193.275546472526 88.8393351800553  191.725890067635 89.032354570637  189.982526612132 89.2253739612188  C 188.432870207241 89.4183933518005  186.495799701127 89.6114127423822  184.171315093791 89.8044321329639  C 181.846830486454 89.9974515235456  179.522345879117 89.9974515235456  177.197861271781 89.9974515235456  C 176.423033069335 89.8044321329641  174.873376664444 89.8044321329641  173.517427310164 89.8044321329641  C 172.161477955885 89.8044321329641  170.611821550994 89.8044321329641  169.255872196714 89.6114127423823  L 168.868458095491 89.6114127423823  C 165.769145285709 89.4183933518005  163.057246577149 89.4183933518005  160.34534786859 89.2253739612188  C 159.183105564922 89.032354570637  158.020863261253 89.032354570637  156.858620957585 88.8393351800553  C 155.696378653917 88.6463157894736  154.72784340086 88.6463157894736  153.759308147803 88.453296398892  C 150.078874186186 87.8742382271467  147.173268427016 87.2951800554015  144.655076769067 86.7161218836565  L 140.78093575684 85.7510249307479  C 139.231279351949 85.3649861495844  137.875329997669 85.1719667590027  136.519380643389 84.9789473684209  C 134.776017187887 84.5929085872576  133.032653732384 84.3998891966759  131.09558322627 84.2068698060941  L 130.127047973214 84.0138504155124  C 128.383684517711 83.8208310249308  126.252906960986 83.6278116343491  123.928422353649 83.2417728531856  C 121.410230695701 83.0487534626038  119.085746088364 82.8557340720223  116.761261481028 82.6627146814405  C 114.630483924302 82.4696952908588  112.8871204688 82.4696952908588  110.950049962686 82.4696952908588  C 108.431858304738 82.4696952908588  105.91366664679 82.4696952908588  103.589182039453 82.4696952908588  C 102.620646786396 82.4696952908588  101.845818583951 82.4696952908588  100.877283330894 82.4696952908588  L 99.9087480778368 82.4696952908588  C 93.7101224582725 82.4696952908588  86.9303756868738 82.4696952908588  77.4387302069158 80.925540166205  C 76.4701949538589 80.925540166205  75.3079526501906 80.7325207756232  74.1457103465223 80.5395013850415  C 73.1771750934654 80.3464819944597  72.40234689102 79.9604432132965  71.433811637963 79.7674238227147  C 69.8841552330719 79.3813850415512  68.7219129294035 78.9953462603877  67.3659635751238 78.6093074792244  C 66.397428322067 78.2232686980609  65.42889306901 77.8372299168976  64.6540648665643 77.4511911357341  C 63.8792366641188 76.8721329639889  63.2981155122845 76.4860941828256  62.7169943604505 76.1000554016621  C 61.5547520567823 75.3279778393353  60.3925097531139 74.74891966759  58.8428533482228 73.9768421052632  C 56.9057828421089 73.0117451523545  54.5812982347722 72.2396675900277  51.4819854249899 71.4675900277009  C 48.5763796658192 70.6955124653739  45.6707739066484 70.1164542936287  42.7651681474777 69.5373961218837  C 40.2469764895296 69.1513573407202  38.1161989328042 68.9583379501385  35.4043002242448 68.7653185595568  C 34.0483508699651 68.572299168975  32.8861085662968 68.572299168975  31.7238662626285 68.3792797783933  C 30.3679169083488 68.1862603878117  29.011967554069 67.9932409972299  28.0434323010121 67.8002216066482  C 26.6874829467324 67.4141828254847  25.3315335924526 67.2211634349031  24.1692912887843 66.8351246537396  C 23.5881701369502 66.6421052631579  22.8133419345046 66.4490858725761  22.2322207826705 66.2560664819944  C 21.6510996308363 66.0630470914126  21.0699784790022 65.6770083102493  20.4888573271679 65.4839889196676  C 16.033595163106 63.3607756232688  16.2273022137175 61.816620498615  16.2273022137175 60.4654847645429  L 16.2273022137175 60.2724653739612  C 16.2273022137175 60.0794459833794  16.2273022137175 59.8864265927979  16.4210092643289 59.6934072022161  C 16.6147163149401 59.1143490304709  16.6147163149401 58.7283102493073  16.4210092643289 58.1492520775623  C 16.4210092643289 57.7632132963988  16.033595163106 57.3771745152355  15.8398881124946 56.991135734072  C 15.4524740112718 56.4120775623268  15.0650599100492 56.0260387811635  14.4839387582149 55.4469806094182  C 13.9028176063808 55.060941828255  13.3216964545466 54.6749030470915  12.7405753027125 54.4818836565097  L 12.546868252101 54.2888642659279  C 11.9657471002669 53.9028254847647  11.3846259484328 53.7098060941829  10.8035047965985 53.3237673130194  C 10.2223836447645 53.1307479224376  9.6412624929302 52.9377285318559  8.86643429048468 52.7447091412744  L 6.92936378437093 52.1656509695291  C 5.57341443009113 51.7796121883656  4.21746507581145 51.3935734072023  3.05522277214311 50.8145152354571  C 2.66780867092029 50.6214958448753  2.47410162030883 50.4284764542936  2.28039456969736 50.2354570637119  C 1.89298046847477 50.2354570637119  1.69927341786331 50.0424376731303  1.69927341786331 49.8494182825485  C 1.31185931664049 49.2703601108034  0.924445215417904 48.88432132964  0.924445215417904 48.4982825484765  C 0.924445215417904 48.3052631578947  0.730738164806439 48.112243767313  0.924445215417904 47.7262049861496  C 0.924445215417904 47.5331855955678  1.11815226602903 47.3401662049861  1.11815226602903 46.9541274238227  C 1.11815226602903 46.5680886426593  1.31185931664049 46.1820498614958  1.69927341786331 45.7960110803323  C 2.08668751908624 45.409972299169  2.47410162030883 45.0239335180055  3.05522277214311 44.8309141274237  C 3.63634392397717 44.4448753462605  4.02375802519998 44.2518559556787  4.60487917703404 43.8658171745152  C 5.57341443009113 43.2867590027702  6.541949683148 42.7077008310249  7.12307083498206 42.1286426592796  C 8.09160608803927 41.3565650969529  8.67272723987332 40.7775069252078  9.06014134109614 40.0054293628808  C 9.44755544231873 39.0403324099723  9.6412624929302 38.461274238227  9.25384839170749 38.0752354570637  C 9.25384839170749 37.882216066482  9.06014134109614 37.882216066482  9.06014134109614 37.882216066482  C 9.06014134109614 37.6891966759002  8.86643429048468 37.6891966759002  8.86643429048468 37.4961772853185  C 8.47902018926186 37.1101385041552  8.28531313865039 36.9171191135734  8.09160608803927 36.7240997229917  C 7.89789903742781 36.5310803324099  7.70419198681634 36.3380609418282  7.51048493620499 36.1450415512464  C 7.31677788559352 35.9520221606649  7.12307083498206 35.5659833795014  7.12307083498206 35.3729639889197  C 7.12307083498206 34.7939058171746  7.70419198681634 34.2148476454294  8.47902018926186 33.4427700831026  Z M 349.597136315916 14.9129085872576  C 350.371964518362 15.1059279778393  351.146792720807 15.1059279778393  351.921620923253 15.2989473684211  L 352.115327973864 15.2989473684211  C 352.696449125698 15.4919667590028  353.471277328144 15.4919667590028  354.24610553059 15.6849861495843  C 355.989468986092 16.0710249307479  357.732832441595 16.4570637119114  359.669902947708 17.0361218836564  L 356.958004239149 17.2291412742381  C 355.214640783646 16.8431024930749  353.664984378755 16.2640443213296  351.921620923253 16.0710249307479  C 351.340499771418 15.8780055401663  350.565671568973 15.8780055401663  349.984550417139 15.6849861495846  L 349.790843366527 15.6849861495846  C 349.016015164082 15.4919667590028  348.241186961636 15.4919667590028  347.660065809802 15.2989473684211  L 347.466358759191 15.2989473684211  C 346.885237607356 15.1059279778393  346.110409404911 15.1059279778393  345.335581202465 14.9129085872576  C 344.948167101242 14.9129085872576  344.56075300002 14.719889196676  344.173338898797 14.719889196676  L 343.979631848186 14.719889196676  C 343.592217746963 14.719889196676  343.398510696351 14.5268698060943  343.011096595129 14.5268698060943  C 341.267733139626 14.3338504155125  339.718076734735 13.947811634349  337.58729917801 13.368753462604  C 335.843935722507 12.9827146814405  334.487986368227 12.596675900277  333.325744064559 12.2106371191136  C 332.357208811502 12.0176177285319  331.776087659668 11.8245983379501  331.001259457223 11.4385595567867  C 330.613845356 11.2455401662049  330.420138305388 11.2455401662049  330.032724204166 11.0525207756233  C 329.645310102943 10.8595013850416  329.25789600172 10.8595013850416  328.676774849886 10.6664819944598  C 328.095653698052 10.4734626038781  327.514532546218 10.2804432132963  326.933411394383 10.2804432132963  C 326.545997293161 10.2804432132963  326.158583191938 10.0874238227146  325.771169090715 10.0874238227146  C 325.383754989492 10.0874238227146  324.99634088827 9.89440443213306  324.415219736435 9.89440443213306  L 324.221512685824 9.89440443213306  C 323.252977432767 9.7013850415513  322.28444217971 9.50836565096955  321.315906926653 9.50836565096955  C 320.928492825431 9.50836565096955  320.347371673596 9.3153462603878  319.959957572374 9.3153462603878  C 319.572543471151 9.3153462603878  319.185129369928 9.12232686980605  318.797715268705 9.12232686980605  C 317.248058863814 8.92930747922452  315.698402458923 8.73628808864277  314.342453104643 8.73628808864277  L 312.211675547918 8.54326869806101  C 311.436847345473 8.54326869806101  310.662019143027 8.35024930747926  309.887190940581 8.35024930747926  C 308.918655687525 8.35024930747926  308.143827485079 8.15722991689751  307.175292232022 7.96421052631575  L 306.787878130799 7.96421052631575  C 306.013049928354 7.77119113573423  305.044514675297 7.77119113573423  304.07597942224 7.57817174515247  C 303.107444169183 7.38515235457072  302.138908916126 7.38515235457072  301.170373663069 7.19213296398897  C 300.395545460623 6.99911357340721  299.620717258178 6.99911357340721  299.039596106344 6.80609418282569  C 298.071060853287 6.61307479224394  297.489939701453 6.42005540166218  296.908818549618 6.42005540166218  C 296.715111499007 6.42005540166218  296.521404448396 6.22703601108043  296.133990347173 6.22703601108043  L 295.940283296562 6.22703601108043  C 294.39062689167 5.84099722991692  292.647263436168 5.45495844875364  288.385708322717 5.06891966759014  C 287.804587170883 5.06891966759014  287.223466019049 4.87590027700838  286.836051917826 4.87590027700838  C 286.448637816604 4.87590027700838  285.867516664769 4.87590027700838  285.480102563547 4.68288088642663  C 284.51156731049 4.68288088642663  283.736739108044 4.48986149584505  282.961910905599 4.48986149584505  C 282.187082703153 4.48986149584505  281.605961551319 4.48986149584505  280.831133348873 4.29684210526335  C 280.056305146428 4.29684210526335  279.475183994594 4.29684210526335  278.700355792148 4.29684210526335  C 277.150699387257 4.29684210526335  275.988457083589 4.1038227146816  274.438800678697 4.1038227146816  C 272.695437223195 4.1038227146816  270.758366717081 3.91080332409985  268.627589160356 3.71778393351809  C 266.496811603631 3.52476454293651  264.753448148128 3.33174515235476  263.397498793849 3.138725761773  C 262.041549439569 2.94570637119125  261.073014186512 2.94570637119125  260.104478933455 2.7526869806095  C 259.523357781621 2.7526869806095  259.135943680398 2.5596675900278  258.554822528564 2.5596675900278  C 257.97370137673 2.5596675900278  257.392580224895 2.36664819944622  256.811459073061 2.36664819944622  C 256.036630870616 2.36664819944622  255.455509718782 2.17362880886446  254.486974465725 2.17362880886446  C 254.099560364502 2.17362880886446  253.518439212668 2.17362880886446  253.131025111445 1.98060941828271  C 252.549903959611 1.98060941828271  252.162489858388 1.98060941828271  251.581368706554 1.98060941828271  C 247.319813593103 1.78759002770096  244.801621935155 1.78759002770096  242.477137327818 1.78759002770096  L 242.089723226596 1.78759002770096  C 241.702309125373 1.78759002770096  241.31489502415 1.78759002770096  241.121187973539 1.78759002770096  C 240.152652720482 1.78759002770096  239.184117467425 1.78759002770096  238.021875163757 1.78759002770096  C 237.247046961311 1.78759002770096  236.278511708254 1.78759002770096  235.503683505809 1.78759002770096  C 234.535148252752 1.78759002770096  233.372905949083 1.78759002770096  232.404370696027 1.78759002770096  C 231.435835442969 1.78759002770096  230.467300189912 1.78759002770096  229.692471987467 1.5945706371192  L 229.305057886244 1.5945706371192  C 228.530229683799 1.5945706371192  227.561694430742 1.5945706371192  226.786866228296 1.40155124653745  C 226.205745076462 1.40155124653745  225.430916874016 1.40155124653745  224.849795722182 1.20853185595593  L 223.10643226668 1.01551246537417  C 221.944189963012 1.01551246537417  220.975654709954 0.822493074792419  219.425998305063 0.822493074792419  C 219.038584203841 0.822493074792419  218.651170102618 0.822493074792419  218.263756001395 0.822493074792419  C 217.876341900172 0.822493074792419  217.48892779895 0.822493074792419  217.101513697727 0.822493074792419  C 216.13297844467 0.822493074792419  215.164443191613 0.822493074792419  214.002200887945 0.822493074792419  L 213.808493837333 0.822493074792419  C 213.227372685499 0.822493074792419  212.839958584276 0.822493074792419  212.258837432442 0.822493074792419  C 211.871423331219 0.822493074792419  211.290302179385 0.822493074792419  210.902888078162 0.822493074792419  C 210.128059875717 0.822493074792419  209.353231673271 0.822493074792419  208.578403470826 0.822493074792419  C 207.80357526838 0.822493074792419  207.222454116546 0.822493074792419  206.641332964712 0.822493074792419  C 206.060211812878 0.822493074792419  205.479090661043 0.822493074792419  204.897969509209 0.822493074792419  C 203.735727205541 0.822493074792419  202.573484901873 1.01551246537417  201.023828496982 1.01551246537417  C 199.280465041479 1.01551246537417  197.537101585977 1.20853185595593  195.406324029251 1.20853185595593  C 193.081839421915 1.20853185595593  191.338475966412 1.20853185595593  189.788819561521 1.20853185595593  C 189.59511251091 1.20853185595593  189.207698409687 1.20853185595593  189.013991359076 1.20853185595593  L 188.820284308464 1.20853185595593  C 188.432870207241 1.20853185595593  188.23916315663 1.20853185595593  187.851749055407 1.20853185595593  C 187.270627903573 1.20853185595593  186.689506751739 1.20853185595593  186.108385599905 1.20853185595593  L 185.914678549293 1.20853185595593  C 185.333557397459 1.20853185595593  184.752436245625 1.20853185595593  184.171315093791 1.20853185595593  L 183.97760804318 1.20853185595593  C 183.396486891345 1.20853185595593  182.815365739511 1.20853185595593  182.234244587677 1.20853185595593  C 180.490881132174 1.20853185595593  178.747517676672 1.20853185595593  176.616740119947 1.20853185595593  L 176.423033069335 1.01551246537417  C 178.553810626061 1.01551246537417  180.490881132175 1.01551246537417  182.234244587677 1.01551246537417  C 183.009072790123 1.01551246537417  183.590193941957 1.01551246537417  184.171315093791 1.01551246537417  L 184.365022144402 1.01551246537417  C 184.946143296237 1.01551246537417  185.527264448071 1.01551246537417  186.302092650516 1.01551246537417  L 186.495799701127 1.01551246537417  C 187.076920852962 1.01551246537417  187.658042004796 1.01551246537417  188.23916315663 1.01551246537417  C 188.626577257853 1.01551246537417  188.820284308464 1.01551246537417  189.207698409687 1.01551246537417  L 189.59511251091 1.01551246537417  C 189.788819561521 1.01551246537417  190.176233662744 1.01551246537417  190.369940713355 1.01551246537417  C 191.725890067635 1.01551246537417  193.469253523138 1.01551246537417  195.793738130474 1.01551246537417  C 197.730808636588 1.01551246537417  199.47417209209 1.01551246537417  201.217535547593 0.822493074792419  C 202.573484901873 0.822493074792419  203.735727205541 0.629473684210666  204.897969509209 0.629473684210666  C 205.479090661043 0.629473684210666  206.060211812878 0.629473684210666  206.641332964712 0.629473684210666  C 207.222454116546 0.629473684210666  207.80357526838 0.629473684210666  208.772110521437 0.629473684210666  C 209.546938723883 0.629473684210666  210.51547397694 0.629473684210666  211.290302179385 0.629473684210666  C 211.871423331219 0.629473684210666  212.258837432442 0.629473684210666  212.839958584276 0.629473684210666  C 213.42107973611 0.629473684210666  213.808493837333 0.629473684210666  214.389614989167 0.629473684210666  L 214.583322039779 0.629473684210666  C 215.745564343447 0.629473684210666  216.714099596504 0.629473684210666  217.876341900172 0.629473684210666  C 218.457463052006 0.629473684210666  218.844877153229 0.629473684210666  219.232291254452 0.629473684210666  C 219.619705355675 0.629473684210666  220.007119456897 0.629473684210666  220.39453355812 0.629473684210666  C 221.944189963012 0.629473684210666  223.10643226668 0.822493074792419  224.074967519737 0.822493074792419  L 225.818330975239 1.01551246537417  C 226.399452127073 1.01551246537417  226.980573278908 1.01551246537417  227.755401481353 1.20853185595593  C 228.530229683799 1.20853185595593  229.305057886244 1.20853185595593  230.07988608869 1.40155124653745  L 230.467300189912 1.40155124653745  C 231.242128392358 1.40155124653745  232.210663645415 1.40155124653745  233.179198898472 1.5945706371192  C 234.147734151529 1.5945706371192  235.116269404586 1.5945706371192  236.278511708254 1.5945706371192  C 237.0533399107 1.5945706371192  238.021875163757 1.5945706371192  238.796703366202 1.5945706371192  C 239.765238619259 1.5945706371192  240.733773872316 1.5945706371192  241.702309125373 1.5945706371192  C 242.089723226596 1.5945706371192  242.477137327818 1.5945706371192  242.67084437843 1.5945706371192  L 243.058258479653 1.5945706371192  C 245.382743086989 1.5945706371192  248.28834884616 1.5945706371192  252.743611010222 1.78759002770096  C 253.324732162056 1.78759002770096  253.90585331389 1.78759002770096  254.486974465725 1.98060941828271  C 255.068095617559 1.98060941828271  255.455509718782 1.98060941828271  256.036630870616 2.17362880886446  C 256.811459073061 2.17362880886446  257.586287275507 2.36664819944622  258.361115477952 2.36664819944622  C 258.942236629787 2.36664819944622  259.717064832232 2.5596675900278  260.298185984066 2.5596675900278  C 260.8793071359 2.5596675900278  261.266721237123 2.7526869806095  261.847842388957 2.7526869806095  C 263.010084692626 2.94570637119125  263.784912895071 2.94570637119125  265.140862249351 3.138725761773  C 266.496811603631 3.33174515235476  268.240175059133 3.52476454293634  270.177245565247 3.52476454293634  C 272.114316071361 3.71778393351809  273.857679526863 3.91080332409985  275.601042982366 3.91080332409985  C 277.150699387257 3.91080332409985  278.312941690926 4.1038227146816  279.862598095816 4.1038227146816  C 280.443719247651 4.1038227146816  281.218547450096 4.1038227146816  281.993375652542 4.1038227146816  C 282.768203854987 4.1038227146816  283.543032057433 4.1038227146816  284.317860259878 4.29684210526335  C 285.286395512935 4.29684210526335  286.061223715381 4.48986149584505  287.029758968438 4.48986149584505  C 287.610880120272 4.48986149584505  287.998294221495 4.48986149584505  288.579415373329 4.68288088642663  C 289.160536525163 4.68288088642663  289.741657676997 4.87590027700838  290.322778828831 4.87590027700838  C 294.971748043505 5.45495844875364  296.715111499007 5.84099722991692  298.458474954509 6.03401662049868  L 298.652182005121 6.03401662049868  C 298.845889055732 6.03401662049868  299.233303156955 6.22703601108043  299.427010207567 6.22703601108043  C 300.008131359401 6.42005540166218  300.782959561846 6.42005540166218  301.557787764292 6.61307479224394  C 302.138908916126 6.80609418282546  302.913737118572 6.80609418282546  303.494858270406 6.99911357340721  C 304.463393523463 7.19213296398897  305.238221725908 7.19213296398897  306.206756978965 7.38515235457072  C 307.175292232022 7.57817174515247  307.950120434468 7.57817174515247  308.918655687525 7.77119113573423  L 309.306069788748 7.77119113573423  C 310.080897991193 7.96421052631575  310.855726193638 7.96421052631575  311.824261446695 7.96421052631575  C 312.599089649141 7.96421052631575  313.180210800975 8.15722991689751  313.955039003421 8.15722991689751  L 316.085816560146 8.35024930747926  C 317.441765914426 8.54326869806101  318.991422319317 8.54326869806101  320.734785774819 8.73628808864277  C 321.122199876042 8.73628808864277  321.703321027876 8.92930747922429  322.090735129099 8.92930747922429  C 322.478149230322 8.92930747922429  323.059270382156 9.12232686980605  323.446684483379 9.12232686980605  C 324.415219736436 9.3153462603878  325.383754989493 9.50836565096955  326.545997293161 9.7013850415513  L 326.739704343772 9.7013850415513  C 327.320825495607 9.7013850415513  327.708239596829 9.89440443213306  328.289360748664 9.89440443213306  C 328.676774849886 9.89440443213306  329.25789600172 10.0874238227146  329.645310102943 10.0874238227146  C 330.420138305389 10.2804432132963  331.001259457223 10.4734626038781  331.582380609057 10.4734626038781  C 332.163501760891 10.6664819944598  332.550915862114 10.8595013850416  332.938329963337 10.8595013850416  C 333.32574406456 11.0525207756233  333.519451115171 11.0525207756233  333.906865216394 11.2455401662049  C 334.487986368228 11.4385595567867  335.069107520062 11.6315789473684  336.037642773119 12.0176177285319  C 337.199885076787 12.4036565096952  338.362127380456 12.7896952908587  340.105490835958 13.1757340720222  C 342.042561342072 13.5617728531855  343.592217746963 13.947811634349  345.141874151854 14.1408310249308  C 345.529288253077 14.1408310249308  345.722995303689 14.3338504155125  346.110409404911 14.3338504155125  L 346.304116455523 14.3338504155125  C 346.691530556745 14.3338504155125  347.078944657968 14.5268698060941  347.466358759191 14.5268698060941  C 348.047479911025 14.7198891966758  348.822308113471 14.7198891966758  349.403429265305 14.9129085872576  L 349.597136315916 14.9129085872576  Z " fill-rule="nonzero" fill="#00d6ef" stroke="none" transform="matrix(1 0 0 1 736 536 )" />
  </g>
</svg>