<?xml version="1.0" encoding="utf-8"?>
<svg version="1.1" xmlns:xlink="http://www.w3.org/1999/xlink" width="293px" height="71px" xmlns="http://www.w3.org/2000/svg">
  <g transform="matrix(1 0 0 1 -790 -488 )">
    <path d="M 196.601830663616 68.4547190344282  L 196.44067475622 68.3137920406101  C 192.8032823364 68.648268698061  189.67625560878 68.648268698061  186.724918704083 68.648268698061  L 185.950258942551 68.648268698061  C 184.59460435987 68.648268698061  183.238949777189 68.648268698061  182.270625075274 68.4547190344282  L 181.689630254125 68.4547190344282  C 180.333975671444 68.4547190344282  178.978321088763 68.2611693707954  177.816331446465 68.2611693707954  L 177.622666506082 68.2611693707954  C 176.460676863784 68.2611693707954  175.298687221486 68.0676197071626  174.330362519571 68.0676197071626  C 173.749367698422 68.0676197071626  173.168372877273 68.0676197071626  172.587378056124 67.8740700435298  L 170.457063711911 67.6805203798972  C 167.745754546549 67.4869707162644  164.453450560039 67.4869707162644  160.192821871613 67.6805203798972  C 156.319523063953 67.6805203798972  153.220884017825 67.8740700435298  150.122244971697 68.2611693707954  C 147.410935806335 68.4547190344282  145.280621462122 68.8418183616938  143.150307117909 69.0353680253266  L 142.956642177526 69.0353680253266  C 141.794652535228 69.2289176889592  140.63266289293 69.422467352592  139.277008310249 69.6160170162248  C 138.115018667951 69.8095666798576  136.75936408527 69.8095666798576  135.016379621823 70.0031163434904  C 133.273395158377 70.196666007123  131.724075635312 70.196666007123  129.787426231483 70.196666007123  C 128.819101529568 70.3902156707558  127.850776827653 70.5837653343885  126.882452125738 70.5837653343885  C 125.914127423823 70.5837653343885  124.945802721908 70.5837653343885  123.977478019993 70.5837653343885  L 123.590148139227 70.5837653343885  C 121.266168854631 70.5837653343885  119.329519450801 70.3902156707558  117.392870046971 70.196666007123  C 116.424545345056 70.196666007123  115.649885583524 70.0031163434904  114.875225821992 70.0031163434904  C 114.10056606046 69.8095666798576  113.325906298928 69.8095666798576  112.551246537396 69.6160170162248  C 109.839937372034 69.2289176889592  107.709623027821 68.648268698061  105.966638564374 68.2611693707954  L 103.061664458629 67.4869707162644  C 102.093339756714 67.2934210526316  101.1250150548 67.0998713889988  99.9630254125016 66.906321725366  C 98.8010357702036 66.7127720617332  97.4453811875226 66.5192223981006  96.0897266048416 66.3256727344678  L 95.5087317836926 66.3256727344678  C 94.1530772010118 66.132123070835  92.7974226183308 65.9385734072022  91.0544381548838 65.7450237435694  C 89.3114536914369 65.5514740799366  87.5684692279899 65.357924416304  85.825484764543 65.357924416304  C 84.276165241479 65.1643747526712  82.9205106587981 65.1643747526712  81.5648560761171 65.1643747526712  C 79.6282066722872 65.1643747526712  77.8852222088401 65.1643747526712  76.3359026857761 65.1643747526712  L 71.6879441165843 65.1643747526712  C 67.6209803685415 65.1643747526712  62.9730217993497 64.9708250890384  57.1630735878597 64.0030767708746  C 56.1947488859448 63.615977443609  55.2264241840298 63.615977443609  54.4517644224979 63.4224277799763  C 53.8707696013489 63.2288781163434  53.0961098398169 63.0353284527106  52.5151150186679 62.841778789078  C 51.3531253763699 62.4546794618124  50.3848006744549 62.2611297981796  49.4164759725401 61.874030470914  C 48.6418162110082 61.4869311436486  47.8671564494761 61.2933814800159  47.2861616283271 60.9062821527502  C 46.7051668071781 60.5191828254847  46.317836926412 60.1320834982192  45.9305070456462 59.9385338345865  C 44.962182343731 59.3578848436883  44.1875225821991 58.7772358527899  43.2191978802842 58.3901365255243  C 41.8635432976032 57.6159378709933  40.1205588341563 57.0352888800949  37.9902444899433 56.4546398891967  C 35.8599301457305 55.8739908982983  33.9232807419005 55.4868915710329  31.7929663976877 55.0997922437673  C 29.8563169938576 54.7126929165017  28.3069974707936 54.5191432528691  26.5640130073467 54.3255935892363  C 25.5956883054318 54.3255935892363  24.6273636035169 54.1320439256035  23.8527038419847 54.1320439256035  C 22.6907141996868 53.9384942619707  21.9160544381549 53.7449445983379  20.9477297362399 53.5513949347051  C 19.9794050343248 53.3578452710723  19.0110803324098 53.1642956074397  18.236420570878 52.9707459438069  C 17.6554257497289 52.7771962801741  17.2680958689631 52.5836466165413  16.6871010478139 52.3900969529085  C 16.2997711670479 52.1965472892757  15.7187763458991 52.0029976256431  15.331446465133 51.8094479620103  C 11.8454775382392 50.0675009893154  11.6518125978563 48.5191036802534  11.6518125978563 46.9707063711912  C 11.6518125978563 46.5836070439256  11.6518125978563 46.5836070439256  11.6518125978563 46.3900573802928  C 11.6518125978563 46.0029580530274  11.8454775382392 45.8094083893945  11.6518125978563 45.6158587257618  C 11.6518125978563 45.422309062129  11.4581476574733 45.2287593984961  11.2644827170902 45.0352097348634  C 11.2644827170902 44.648110407598  11.0708177767073 44.2610110803324  10.6834878959412 44.0674614166996  C 10.4898229555581 43.6803620894342  10.1024930747923 43.4868124258014  9.71516319402622 43.2932627621686  L 9.52149825364324 43.0997130985358  C 9.1341683728773 42.906163434903  8.74683849211135 42.7126137712702  8.35950861134529 42.5190641076376  C 7.97217873057923 42.3255144440048  7.58484884981328 42.3255144440048  7.00385402866425 42.131964780372  L 5.45453450560046 41.7448654531064  C 4.48620980368548 41.357766125841  3.51788510177039 41.1642164622082  2.54956039985541 40.5835674713098  C 2.35589545947244 40.390017807677  2.16223051908935 40.390017807677  1.9685655787066 40.1964681440444  C 1.58123569794054 40.0029184804116  1.38757075755746 39.8093688167788  1.38757075755746 39.615819153146  C 1.00024087679139 39.2287198258804  0.612910996025562 38.6480708349822  0.612910996025562 38.2609715077166  C 0.612910996025562 37.873872180451  0.419246055642589 37.6803225168184  0.419246055642589 37.2932231895528  C 0.419246055642589 36.9061238622872  0.612910996025562 36.7125741986546  0.612910996025562 36.5190245350219  C 0.806575936408649 35.9383755441235  1.19390581717448 35.5512762168578  1.38757075755746 35.1641768895925  C 1.77490063832352 34.7770775623268  1.9685655787066 34.5835278986941  2.35589545947244 34.1964285714287  C 2.93689028062147 34.0028789077959  3.3242201613873 33.8093292441631  3.51788510177039 33.6157795805303  C 4.29254486330251 33.2286802532647  4.87353968445132 32.8415809259993  5.26086956521738 32.4544815987337  C 5.8418643863663 31.8738326078353  6.22919426713236 31.4867332805699  6.42285920751533 31.0996339533043  C 6.61652414789842 30.5189849624061  6.61652414789842 30.3254352987733  6.61652414789842 30.3254352987733  L 6.61652414789842 30.1318856351405  L 7.19751896904734 29.3576869806095  L 6.42285920751533 29.9383359715077  C 6.42285920751533 29.9383359715077  6.22919426713236 29.7447863078749  6.03552932674927 29.7447863078749  C 5.8418643863663 29.5512366442421  5.64819944598332 29.3576869806095  5.64819944598332 29.1641373169767  C 5.26086956521738 28.7770379897111  5.0672046248344 28.3899386624455  5.0672046248344 27.8092896715473  C 5.0672046248344 27.6768398443684  5.08735840155703 27.5343191269761  5.12996456047131 27.3840247555152  L 4.09887992291942 27.4221903442817  L 6.61652414789842 25.4866937079541  C 7.39118390943031 24.9060447170557  8.35950861134529 24.3253957261575  9.52149825364324 23.7447467352591  C 9.9088281344093 23.5511970716263  10.4898229555581 23.3576474079937  10.8771528363242 23.164097744361  C 11.4581476574733 22.9705480807281  12.0391424786221 22.7769984170953  12.6201372997713 22.5834487534626  L 15.525111405516 21.6157004352988  C 16.4934361074312 21.2286011080332  17.2680958689631 20.8415017807678  18.236420570878 20.4544024535022  C 19.0110803324098 20.0673031262365  19.592075153559 19.6802037989711  19.785740093942 19.4866541353384  C 19.9794050343248 19.2931044717056  20.1730699747078 19.0995548080728  20.1730699747078 18.90600514444  C 20.3667349150909 18.90600514444  20.3667349150909 18.7124554808074  20.5603998554739 18.5189058171746  C 20.7540647958569 18.3253561535418  20.9477297362399 18.131806489909  21.3350596170058 17.7447071626434  C 21.7223894977719 17.5511574990106  21.9160544381549 17.357607835378  22.4970492593038 17.1640581717452  C 22.6907141996868 16.9705085081124  22.8843791400699 16.9705085081124  23.0780440804529 16.7769588444796  C 23.4653739612189 16.7769588444796  23.6590389016018 16.5834091808468  24.0463687823678 16.389859517214  C 24.8210285439 16.1963098535814  25.4020233650488 15.8092105263158  26.1766831265807 15.615660862683  C 26.5640130073467 15.4221111990502  26.7576779477298 15.4221111990502  27.1450078284959 15.4221111990502  C 27.5323377092617 15.4221111990502  27.7260026496447 15.2285615354174  28.1133325304107 15.2285615354174  C 29.2753221727087 15.0350118717848  30.4373118150066 14.6479125445192  31.4056365169216 14.4543628808864  L 33.1486209803686 14.0672635536208  C 33.7296158015175 13.8737138899882  34.3106106226666 13.8737138899882  34.6979405034324 13.6801642263554  C 35.2789353245815 13.6801642263554  35.8599301457305 13.6801642263554  36.2472600264964 13.4866145627226  L 36.4409249668795 13.4866145627226  C 37.0219197880284 13.2930648990898  37.6029146091774 13.099515235457  38.1839094303264 12.9059655718242  C 38.9585691918584 12.7124159081916  39.3458990726243 12.5188662445588  39.9268938937734 12.5188662445588  C 40.3142237745392 12.325316580926  40.7015536553052 12.325316580926  41.0888835360713 12.1317669172932  C 41.4762134168374 11.9382172536604  41.6698783572202 11.7446675900276  42.0572082379863 11.5511179263949  L 42.4445381187523 11.3575682627622  C 43.4128628206672 10.9704689354966  44.3811875225822 10.3898199445985  47.673491509093 9.61562129006722  C 48.060821389859 9.42207162643444  48.4481512706251 9.42207162643444  48.8354811513909 9.42207162643444  L 49.8038058533061 9.22852196280166  C 50.3848006744549 9.03497229916905  51.1594604359869 9.03497229916905  51.740455257136 8.84142263553628  C 52.3214500782849 8.84142263553628  52.9024448994339 8.64787297190344  53.4834397205829 8.64787297190344  L 55.2264241840298 8.45432330827066  C 56.5820787667109 8.26077364463788  57.5504034686257 8.26077364463788  58.5187281705407 8.06722398100504  C 59.8743827532217 7.87367431737249  61.0363723955196 7.68012465373965  62.3920269782006 7.48657499010687  C 63.7476815608816 7.29302532647409  64.9096712031795 7.09947566284126  65.6843309647115 6.90592599920848  C 66.4589907262435 6.71237633557587  67.0399855473925 6.51882667194309  67.6209803685415 6.32527700831025  L 68.5893050704565 6.13172734467747  C 68.9766349512223 5.93817768104469  69.3639648319884 5.93817768104469  69.7512947127544 5.93817768104469  C 70.3322895339033 5.74462801741186  70.7196194146694 5.74462801741186  71.3006142358184 5.5510783537793  L 73.6245935204143 5.16397902651369  C 76.9168975069253 4.77687969924807  79.0472118511381 4.58333003561529  80.9838612549679 4.38978037198268  L 82.1458508972661 4.38978037198268  C 82.9205106587981 4.38978037198268  83.69517042033 4.1962307083499  84.4698301818621 4.1962307083499  C 85.0508250030109 4.1962307083499  85.6318198241599 4.00268104471706  86.2128146453089 4.00268104471706  C 86.9874744068408 4.00268104471706  87.7621341683729 3.80913138108428  88.3431289895218 3.80913138108428  C 89.1177887510539 3.80913138108428  89.6987835722027 3.61558171745151  90.2797783933519 3.61558171745151  L 90.4734433337348 3.61558171745151  C 91.0544381548838 3.61558171745151  91.4417680356498 3.42203205381867  92.0227628567986 3.42203205381867  C 92.4100927375647 3.42203205381867  92.7974226183308 3.22848239018612  93.1847524990966 3.22848239018612  L 94.3467421413945 3.03493272655328  C 95.1214019029267 2.8413830629205  95.8960616644586 2.8413830629205  96.8643863663735 2.64783339928772  L 98.6073708298206 2.45428373565488  C 99.3820305913525 2.45428373565488  99.9630254125016 2.2607340720221  100.931350114417 2.2607340720221  L 103.255329399012 2.06718440838949  C 104.029989160544 2.06718440838949  104.610983981693 2.06718440838949  105.191978802842 1.87363474475671  C 105.966638564374 1.87363474475671  106.35396844514 1.87363474475671  106.934963266289 1.87363474475671  L 108.484282789353 1.87363474475671  C 109.452607491268 1.87363474475671  110.420932193183 1.87363474475671  111.389256895098 1.87363474475671  C 112.744911477779 1.87363474475671  113.906901120077 1.87363474475671  115.456220643141 1.68008508112393  C 117.005540166205 1.68008508112393  118.361194748886 1.4865354174911  119.329519450801 1.4865354174911  L 123.396483198844 1.09943609022554  C 123.78381307961 1.09943609022554  124.171142960376 1.09943609022554  124.558472841142 0.905886426592929  C 125.406962756099 0.905886426592929  126.358714511721 0.802686051309422  127.413728103451 0.74700003366911  L 127.076117066121 0.325237435694532  L 129.012766469951 0.131687772061696  C 130.562085993015 0.131687772061696  131.724075635312 0.131687772061696  133.079730217994 0.131687772061696  L 133.273395158376 0.131687772061696  C 133.854389979525 0.131687772061696  134.241719860291 0.131687772061696  134.629049741057 0.131687772061696  L 139.083343369866 0.325237435694532  C 140.051668071781 0.325237435694532  141.407322654462 0.325237435694532  142.956642177526 0.325237435694532  C 144.50596170059 0.325237435694532  145.667951342888 0.325237435694532  146.829940985186 0.325237435694532  C 147.798265687101 0.325237435694532  148.572925448633 0.325237435694532  149.347585210165 0.131687772061696  L 150.703239792846 0.131687772061696  C 151.090569673612 0.131687772061696  151.671564494761 0.131687772061696  152.25255931591 0.131687772061696  C 152.833554137059 0.131687772061696  153.414548958208 0.131687772061696  154.18920871974 0.131687772061696  L 155.351198362038 0.131687772061696  L 156.513188004336 0.131687772061696  C 157.481512706251 0.131687772061696  158.256172467783 0.131687772061696  159.030832229315 0.131687772061696  L 160.967481633145 0.131687772061696  C 162.129471275443 0.131687772061696  162.904131036975 0.325237435694532  163.678790798506 0.325237435694532  L 166.196435023485 0.518787099327312  C 166.777429844635 0.518787099327312  167.164759725401 0.518787099327312  167.745754546549 0.518787099327312  L 167.939419486932 0.518787099327312  C 168.520414308081 0.518787099327312  169.10140912923 0.518787099327312  169.876068890762 0.518787099327312  C 170.650728652294 0.518787099327312  171.425388413826 0.518787099327312  172.006383234975 0.518787099327312  C 172.587378056124 0.518787099327312  173.168372877273 0.518787099327312  173.749367698422 0.518787099327312  L 174.717692400337 0.518787099327312  L 177.816331446465 0.518787099327312  C 179.365650969529 0.518787099327312  181.302300373359 0.518787099327312  184.207274479104 0.712336762960149  L 186.5312537637 0.905886426592701  C 187.112248584849 0.905886426592701  187.693243405998 1.09943609022554  188.274238227147 1.09943609022554  C 188.855233048296 1.09943609022554  189.242562929062 1.29298575385832  189.629892809828 1.29298575385832  L 190.791882452126 1.4865354174911  C 191.566542213658 1.68008508112393  192.147537034807 1.68008508112393  193.115861736722 1.87363474475671  C 194.084186438637 2.06718440838932  195.246176080935 2.06718440838932  196.795495603999 2.2607340720221  C 198.344815127062 2.45428373565488  199.506804769361 2.45428373565488  200.668794411658 2.45428373565488  C 201.830784053956 2.45428373565488  202.605443815488 2.64783339928772  203.767433457786 2.64783339928772  L 205.31675298085 2.64783339928772  C 205.510417921233 3.03493272655328  206.091412742382 3.03493272655328  206.672407563531 3.03493272655328  C 207.25340238468 3.03493272655328  208.028062146212 3.22848239018589  208.609056967361 3.22848239018589  L 210.933036251957 3.42203205381867  C 214.225340238468 3.80913138108428  215.580994821149 4.1962307083499  216.93664940383 4.38978037198251  L 217.711309165362 4.58333003561529  C 218.098639046128 4.77687969924807  218.679633867277 4.77687969924807  219.260628688426 4.97042936288091  C 219.647958569192 4.97042936288091  220.228953390341 5.16397902651369  220.616283271107 5.16397902651369  C 221.197278092256 5.35752869014647  221.971937853788 5.35752869014647  222.552932674937 5.55107835377908  C 223.133927496086 5.74462801741186  223.908587257618 5.74462801741186  224.489582078767 5.74462801741186  L 224.68324701915 5.74462801741186  C 225.264241840299 5.74462801741186  225.845236661448 5.93817768104469  226.426231482597 5.93817768104469  C 227.007226303746 5.93817768104469  227.394556184512 6.13172734467747  227.975551005661 6.13172734467747  L 229.718535469108 6.32527700831025  C 230.686860171023 6.32527700831025  231.655184872938 6.51882667194309  232.817174515236 6.71237633557564  L 234.753823919065 6.90592599920848  C 235.528483680597 7.09947566284126  236.303143442129 7.09947566284126  237.077803203661 7.29302532647409  C 237.65879802481 7.29302532647409  237.852462965193 7.48657499010687  238.239792845959 7.48657499010687  C 238.627122726725 7.48657499010687  238.820787667108 7.68012465373965  239.208117547874 7.68012465373965  C 239.789112369023 7.87367431737226  240.176442249789 7.87367431737226  240.757437070938 8.06722398100504  C 241.144766951704 8.26077364463788  241.53209683247 8.26077364463788  241.919426713236 8.45432330827066  C 242.113091653619 8.64787297190344  242.500421534385 8.64787297190344  242.694086474768 8.84142263553628  C 243.081416355534 9.03497229916883  243.662411176683 9.22852196280166  244.243405997832 9.42207162643444  C 245.018065759364 9.61562129006722  245.986390461279 10.0027206173328  247.148380103577 10.1962702809655  C 248.504034686258 10.583369608231  249.666024328556 10.7769192718638  250.828013970854 10.9704689354966  L 255.863302420812 11.7446675900276  C 256.444297241961 11.7446675900276  257.02529206311 11.9382172536604  257.412621943876 12.1317669172932  C 258.768276526557 12.325316580926  260.123931109238 12.7124159081914  261.285920751535 13.099515235457  L 266.708539082259 14.6479125445192  L 264.892669977424 14.7487341128676  C 264.99192325047 14.8053542330828  265.075571404833 14.841462208152  265.159219559195 14.841462208152  C 265.352884499578 15.0350118717848  265.546549439961 15.2285615354176  265.740214380344 15.4221111990502  C 265.933879320727 15.615660862683  265.933879320727 15.615660862683  266.12754426111 15.8092105263158  L 266.514874141876 16.1963098535814  C 266.902204022642 16.3898595172142  267.483198843791 16.7769588444796  268.645188486089 17.1640581717452  C 269.613513188004 17.5511574990108  270.581837889919 17.9382568262762  271.743827532217 18.3253561535418  C 272.712152234132 18.7124554808074  273.680476936047 18.90600514444  274.455136697579 19.0995548080728  C 275.229796459111 19.2931044717056  275.617126339877 19.4866541353384  276.198121161026 19.4866541353384  C 276.779115982175 19.6802037989711  277.166445862941 19.873753462604  277.74744068409 20.0673031262365  C 278.328435505239 20.2608527898694  278.909430326388 20.4544024535022  279.490425147537 20.647952117135  C 279.68409008792 20.8415017807678  280.071419968686 20.8415017807678  280.265084909069 21.0350514444006  C 280.652414789835 21.2286011080332  280.846079730218 21.2286011080332  281.039744670601 21.4221507716659  C 281.62073949175 21.8092500989316  282.008069372516 22.0027997625643  282.395399253282 22.3898990898297  C 282.589064193665 22.5834487534626  282.782729134048 22.7769984170953  282.782729134048 22.7769984170953  C 282.976394074431 22.9705480807281  282.976394074431 23.164097744361  283.170059014814 23.3576474079937  C 283.363723955197 24.1318460625247  283.170059014814 24.7124950534231  283.170059014814 25.0995943806885  L 282.976394074431 25.4866937079541  L 283.170059014814 25.6802433715869  C 283.363723955197 25.8737930352195  283.363723955197 26.0673426988523  283.55738889558 26.2608923624851  C 283.751053835963 26.4544420261179  284.138383716729 26.8415413533835  284.332048657112 27.0350910170163  C 284.719378537878 27.2286406806489  284.913043478261 27.4221903442817  285.300373359027 27.6157400079145  C 285.687703239793 28.0028393351801  286.268698060942 28.1963889988127  286.84969288209 28.3899386624455  L 287.818017584006 28.7770379897111  C 289.367337107069 29.5512366442421  291.497651451283 30.5189849624061  291.884981332048 32.2609319351009  C 291.884981332048 32.4544815987337  292.078646272432 32.6480312623665  292.078646272432 33.035130589632  C 292.078646272432 33.4222299168974  292.078646272432 33.6157795805303  291.884981332048 33.8093292441631  C 291.691316391666 34.1964285714287  291.497651451283 34.5835278986941  291.110321570516 34.9706272259597  C 290.916656630134 35.1641768895925  290.529326749367 35.5512762168578  290.141996868602 35.7448258804906  C 289.754666987835 35.9383755441235  289.36733710707 36.1319252077562  288.980007226304 36.325474871389  C 288.205347464772 36.7125741986545  287.624352643623 36.9061238622872  287.237022762857 37.2932231895528  C 286.656027941708 37.6803225168184  286.268698060942 38.0674218440838  286.075033120559 38.4545211713494  C 285.687703239793 39.2287198258804  285.687703239793 39.4222694895132  285.881368180176 39.615819153146  C 286.075033120559 40.0029184804116  286.268698060942 40.390017807677  286.656027941708 40.9706667985754  C 286.849692882091 41.357766125841  287.043357822474 41.5513157894736  287.237022762857 41.9384151167392  C 287.43068770324 42.5190641076376  287.624352643623 42.906163434903  287.624352643623 43.2932627621686  C 287.624352643623 43.8739117530667  287.43068770324 44.2610110803324  287.237022762857 44.8416600712308  C 287.043357822474 45.0352097348635  287.043357822474 45.2287593984961  286.849692882091 45.6158587257618  C 286.656027941708 45.8094083893945  286.268698060942 46.1965077166602  285.881368180176 46.3900573802928  C 283.55738889558 48.1320043529877  280.458749849452 48.712653343886  277.74744068409 49.2933023347844  L 276.198121161026 49.4868519984171  C 275.036131518728 49.6804016620499  274.067806816813 49.8739513256825  273.099482114898 50.0675009893154  C 272.324822353366 50.2610506529481  271.550162591834 50.4546003165809  270.969167770685 50.6481499802137  C 270.00084306877 51.0352493074793  269.226183307238 51.2287989711119  268.451523545706 51.6158982983775  C 267.676863784174 52.0029976256431  267.095868963025 52.1965472892759  266.514874141876 52.5836466165413  L 266.321209201493 52.7771962801741  C 265.740214380344 52.9707459438069  265.352884499578 53.3578452710725  264.965554618812 53.5513949347051  C 264.578224738046 53.7449445983379  264.384559797663 53.9384942619707  264.19089485728 54.3255935892363  L 263.416235095749 55.0997922437673  C 262.835240274599 55.6804412346657  262.25424545345 56.4546398891967  261.092255811152 57.2288385437276  C 260.704925930386 57.4223882073605  260.511260990004 57.6159378709933  260.123931109237 57.8094875346261  C 259.736601228471 58.0030371982589  259.349271347706 58.1965868618917  258.768276526557 58.3901365255243  C 257.799951824642 58.7772358527899  256.637962182343 59.1643351800554  255.282307599663 59.5514345073209  C 254.507647838131 59.7449841709537  253.926653016982 59.9385338345865  253.15199325545 60.1320834982192  C 252.377333493918 60.3256331618521  251.796338672769 60.3256331618521  251.021678911237 60.5191828254848  C 249.666024328556 60.7127324891174  248.504034686258 60.9062821527502  247.148380103577 61.099831816383  C 245.792725520896 61.2933814800159  244.630735878598 61.2933814800159  243.662411176683 61.4869311436486  C 242.500421534385 61.4869311436486  241.338431892087 61.6804808072815  240.563772130555 61.6804808072815  L 240.176442249789 61.6804808072815  C 238.239792845959 61.6804808072815  236.109478501746 61.874030470914  233.78549921715 62.0675801345469  C 230.880525111405 62.2611297981796  228.362880886427 62.6482291254452  225.457906780682 63.0353284527106  C 222.165602794171 63.615977443609  219.647958569192 64.0030767708746  217.904974105745 64.5837257617728  C 217.517644224979 64.7772754254056  217.323979284596 64.7772754254056  216.93664940383 64.9708250890384  L 216.549319523064 65.1643747526712  C 216.161989642298 65.3579244163038  215.774659761532 65.3579244163038  215.387329880766 65.5514740799366  C 214.612670119234 65.7450237435694  214.031675298085 65.9385734072022  213.257015536553 66.3256727344678  C 212.288690834638 66.7127720617332  211.514031073106 66.906321725366  210.739371311574 67.2934210526316  L 210.352041430808 67.4869707162644  C 209.577381669276 67.680520379897  208.609056967361 68.0676197071626  207.447067325063 68.2611693707954  C 204.735758159701 68.8418183616936  201.637119113573 69.2289176889592  197.57015536553 69.8095666798576  L 196.601830663616 68.4547190344282  Z M 196.020835842466 65.1643747526712  L 196.333437739475 65.476790597435  C 199.684922901902 65.1138206273446  202.379913146769 64.7399593708691  204.735758159701 64.1966264345072  C 205.704082861616 64.0030767708746  206.478742623148 63.8095271072418  207.059737444297 63.615977443609  L 207.447067325063 63.4224277799763  C 208.221727086595 63.2288781163434  208.996386848127 62.841778789078  209.771046609659 62.6482291254452  C 210.739371311574 62.2611297981796  211.320366132723 62.0675801345469  212.095025894255 61.874030470914  C 212.482355775021 61.6804808072815  212.869685655787 61.6804808072815  213.450680476936 61.4869311436486  L 213.838010357702 61.4869311436486  C 214.225340238468 61.099831816383  214.612670119234 61.099831816383  215 60.9062821527502  C 216.93664940383 60.3256331618521  219.647958569192 59.7449841709537  223.133927496086 59.1643351800554  C 226.232566542214 58.583686189157  228.943875707576 58.1965868618917  232.042514753703 58.0030371982589  C 234.3664940383 57.8094875346261  236.496808382512 57.8094875346261  238.627122726725 57.6159378709933  L 238.820787667108 57.6159378709933  C 239.982777309406 57.6159378709933  240.951102011321 57.6159378709933  241.919426713236 57.4223882073605  C 242.887751415151 57.4223882073605  243.856076117066 57.2288385437276  245.018065759364 57.2288385437276  C 246.180055401662 57.0352888800951  247.34204504396 56.8417392164623  248.504034686258 56.6481895528295  C 249.085029507407 56.4546398891967  249.666024328556 56.4546398891967  250.440684090088 56.2610902255639  C 251.021678911237 56.0675405619311  251.602673732386 56.0675405619311  252.183668553535 55.8739908982985  C 253.539323136216 55.4868915710329  254.701312778514 55.0997922437673  255.475972540046 54.9062425801345  C 255.863302420812 54.7126929165019  256.250632301578 54.5191432528691  256.637962182344 54.5191432528691  C 256.831627122727 54.3255935892363  257.02529206311 54.3255935892363  257.412621943876 54.1320439256035  C 258.380946645791 53.5513949347053  258.768276526557 53.1642956074397  259.155606407323 52.5836466165413  L 259.930266168855 51.8094479620103  C 260.317596049621 51.4223486347449  260.704925930386 51.0352493074793  261.092255811153 50.6481499802137  C 261.673250632302 50.2610506529481  262.25424545345 49.8739513256828  262.8352402746 49.6804016620499  L 263.028905214983 49.4868519984171  C 263.609900036132 49.0997526711517  264.384559797664 48.906203007519  265.159219559196 48.5191036802534  C 265.933879320727 48.1320043529877  266.902204022643 47.938454689355  267.870528724558 47.5513553620896  C 268.645188486089 47.3578056984568  269.419848247621 46.9707063711912  270.194508009153 46.7771567075583  C 271.356497651451 46.5836070439258  272.518487293749 46.390057380293  273.486811995664 46.1965077166602  C 273.87414187643 46.1965077166602  274.261471757196 46.0029580530274  274.648801637962 46.0029580530274  L 275.036131518728 46.0029580530274  C 277.553775743707 45.6158587257618  280.071419968686 45.0352097348635  281.814404432133 43.6803620894342  C 282.008069372516 43.4868124258014  282.201734312899 43.2932627621686  282.395399253282 43.2932627621686  C 282.395399253282 43.2932627621686  282.589064193665 43.099713098536  282.589064193665 42.9061634349032  C 282.782729134048 42.7126137712704  282.782729134048 42.5190641076376  282.782729134048 42.5190641076376  C 282.782729134048 42.3255144440048  282.782729134048 42.131964780372  282.782729134048 42.131964780372  C 282.782729134048 41.9384151167392  282.589064193665 41.7448654531064  282.589064193665 41.5513157894736  C 282.201734312899 40.9706667985754  281.814404432133 40.390017807677  281.62073949175 39.615819153146  C 281.427074551367 38.841620498615  281.427074551367 37.873872180451  282.201734312899 36.9061238622872  C 282.395399253282 36.1319252077562  283.170059014814 35.5512762168578  284.138383716729 34.9706272259597  C 284.719378537878 34.5835278986941  285.49403829941 34.1964285714287  286.268698060942 34.0028789077959  C 286.656027941708 33.8093292441631  286.849692882091 33.8093292441631  287.237022762857 33.6157795805303  C 287.43068770324 33.4222299168974  287.624352643623 33.4222299168974  287.818017584006 33.2286802532647  C 288.011682524389 33.035130589632  288.011682524389 33.035130589632  288.011682524389 32.8415809259993  C 288.011682524389 32.8415809259993  288.011682524389 32.6480312623665  288.011682524389 32.6480312623665  C 287.818017584006 31.6802829442027  286.462363001325 31.0996339533043  285.106708418644 30.5189849624061  L 284.332048657112 30.1318856351405  C 283.55738889558 29.7447863078749  282.976394074431 29.5512366442421  282.395399253282 29.1641373169767  C 282.008069372516 28.9705876533439  281.62073949175 28.5834883260783  281.233409610984 28.3899386624455  C 280.846079730218 28.1963889988129  280.458749849452 27.8092896715473  280.265084909069 27.4221903442817  C 279.877755028303 27.0350910170163  279.68409008792 26.8415413533835  279.68409008792 26.4544420261179  C 279.490425147537 26.0673426988523  279.296760207154 25.6802433715869  279.296760207154 25.2931440443213  C 279.296760207154 24.9060447170557  279.296760207154 24.7124950534231  279.490425147537 24.3253957261575  L 279.68409008792 23.9382963988919  L 279.68409008792 23.7447467352591  C 279.68409008792 23.7447467352591  279.68409008792 23.7447467352591  279.490425147537 23.5511970716266  C 279.296760207154 23.3576474079937  278.909430326388 23.164097744361  278.522100445622 22.9705480807281  C 278.134770564856 22.5834487534626  277.941105624473 22.3898990898297  277.74744068409 22.3898990898297  C 277.553775743707 22.1963494261972  277.360110803324 22.1963494261972  276.972780922558 22.0027997625643  C 276.585451041792 21.8092500989316  276.004456220643 21.6157004352988  275.617126339877 21.4221507716659  C 275.036131518728 21.2286011080332  274.648801637962 21.0350514444006  274.261471757196 21.0350514444006  L 272.905817174515 20.647952117135  L 272.905817174515 20.2608527898694  L 272.712152234132 20.647952117135  C 271.743827532217 20.4544024535022  270.775502830302 20.0673031262365  269.807178128387 19.873753462604  C 268.451523545706 19.4866541353384  267.483198843791 19.0995548080728  266.514874141876 18.7124554808074  C 265.352884499578 18.131806489909  264.578224738046 17.7447071626434  263.997229916897 17.5511574990106  C 263.997229916897 17.5511574990106  263.803564976514 17.357607835378  263.803564976514 17.357607835378  L 263.416235095749 17.1640581717452  C 263.222570155365 16.9705085081124  263.028905214982 16.9705085081124  263.028905214982 16.7769588444796  C 262.835240274599 16.5834091808468  262.835240274599 16.5834091808468  262.641575334216 16.3898595172142  C 262.447910393834 16.1963098535814  262.447910393834 16.1963098535814  262.447910393834 16.1963098535814  C 261.673250632301 15.8092105263158  260.89859087077 15.4221111990502  259.736601228472 15.2285615354174  L 256.497032480969 14.1493480584263  C 256.350085054432 14.119166439631  256.203526207814 14.0916754884892  256.056967361195 14.0672635536208  C 255.669637480429 14.0672635536208  255.08864265928 13.8737138899882  254.701312778514 13.8737138899882  L 252.958328315067 13.4866145627226  L 252.958328315067 13.2930648990898  L 252.764663374684 13.2930648990898  L 252.764663374684 13.4866145627226  L 249.666024328556 12.9059655718242  C 248.504034686258 12.7124159081916  247.148380103577 12.325316580926  245.792725520896 12.1317669172932  C 244.437070938215 11.7446675900276  243.4687462363 11.551117926395  242.500421534385 11.1640185991295  C 241.725761772853 10.9704689354966  241.338431892087 10.7769192718638  240.757437070938 10.583369608231  C 240.370107190172 10.3898199445985  240.176442249789 10.3898199445985  239.982777309406 10.3898199445985  C 239.789112369023 10.3898199445985  239.59544742864 10.1962702809656  239.208117547874 10.1962702809656  C 238.820787667108 10.0027206173328  238.433457786342 10.0027206173328  237.852462965193 9.80917095370006  L 237.077803203661 9.61562129006722  C 236.884138263278 9.61562129006722  236.496808382512 9.42207162643444  236.109478501746 9.42207162643444  C 235.334818740214 9.22852196280183  234.560158978682 9.22852196280183  233.979164157533 9.03497229916905  L 232.236179694086 8.84142263553628  C 231.074190051789 8.64787297190344  230.105865349874 8.64787297190344  229.137540647959 8.45432330827066  L 227.394556184512 8.26077364463788  C 226.813561363363 8.26077364463788  226.232566542214 8.06722398100527  225.651571721065 8.06722398100527  C 225.070576899916 8.06722398100527  224.295917138384 7.87367431737249  223.714922317235 7.87367431737249  L 223.521257376852 7.87367431737249  C 222.74659761532 7.87367431737249  222.165602794171 7.68012465373965  221.584607973022 7.68012465373965  C 220.80994821149 7.48657499010687  220.228953390341 7.29302532647409  219.454293628809 7.09947566284126  C 218.87329880766 7.09947566284126  218.292303986511 6.90592599920848  217.904974105745 6.90592599920848  C 217.323979284596 6.71237633557587  216.742984463447 6.71237633557587  216.355654582681 6.51882667194309  L 215.774659761532 6.32527700831025  C 214.419005178851 5.93817768104469  213.257015536553 5.74462801741186  210.158376490425 5.35752869014647  L 208.028062146212 5.16397902651369  C 207.447067325063 5.16397902651369  206.866072503914 4.97042936288091  206.285077682765 4.97042936288091  C 205.704082861616 4.97042936288091  205.31675298085 4.97042936288091  204.735758159702 4.97042936288091  L 203.186438636637 4.97042936288091  C 202.218113934723 4.97042936288091  201.249789232807 4.97042936288091  200.08779959051 4.77687969924807  C 198.732145007829 4.77687969924807  197.376490425148 4.58333003561529  195.827170902084 4.38978037198268  C 194.27785137902 4.1962307083499  193.115861736722 4.1962307083499  191.953872094424 4.00268104471706  C 190.985547392509 3.80913138108428  190.210887630977 3.80913138108428  189.436227869445 3.61558171745151  L 188.274238227147 3.42203205381867  C 187.886908346381 3.42203205381867  187.499578465615 3.22848239018612  187.112248584849 3.22848239018612  C 186.5312537637 3.22848239018612  186.143923882934 3.03493272655328  185.562929061785 3.03493272655328  L 183.432614717572 3.22848239018589  C 180.72130555221 3.03493272655328  178.978321088763 3.03493272655328  177.622666506082 3.03493272655328  L 174.717692400337 3.03493272655328  L 173.555702758039 3.03493272655328  C 172.97470793689 3.03493272655328  172.393713115741 3.03493272655328  171.619053354209 3.03493272655328  C 170.844393592678 3.03493272655328  170.069733831145 3.03493272655328  169.295074069613 3.03493272655328  C 168.520414308082 3.03493272655328  167.939419486932 3.03493272655328  167.358424665783 3.03493272655328  L 166.971094785017 3.03493272655328  C 166.390099963868 3.03493272655328  165.80910514272 3.03493272655328  165.228110321571 2.8413830629205  C 164.840780440805 2.8413830629205  164.259785619656 2.8413830629205  163.87245573889 2.64783339928772  L 162.710466096592 2.45428373565488  C 161.93580633506 2.45428373565488  161.161146573528 2.2607340720221  160.192821871613 2.2607340720221  L 158.449837408166 2.2607340720221  C 157.868842587017 2.2607340720221  157.094182825485 2.2607340720221  156.319523063953 2.2607340720221  L 155.157533421655 2.2607340720221  L 154.18920871974 2.2607340720221  C 153.608213898591 2.2607340720221  153.027219077442 2.2607340720221  152.446224256293 2.2607340720221  C 151.865229435144 2.2607340720221  151.477899554378 2.2607340720221  151.090569673612 2.2607340720221  L 149.734915090931 2.2607340720221  C 148.766590389016 2.2607340720221  147.991930627484 2.2607340720221  146.829940985186 2.45428373565488  C 145.667951342888 2.45428373565488  144.312296760207 2.45428373565488  142.762977237143 2.45428373565488  C 141.019992773696 2.45428373565488  139.664338191015 2.45428373565488  138.6960134891 2.45428373565488  L 134.435384800674 2.2607340720221  C 133.854389979525 2.2607340720221  133.467060098759 2.2607340720221  133.079730217994 2.2607340720221  C 132.370170317109 2.2607340720221  131.713665993253 2.2607340720221  131.026908170513 2.26075430657033  L 131.53041069493 2.64783339928772  L 129.012766469951 2.64783339928772  C 127.463446946887 2.64783339928772  126.301457304589 2.8413830629205  125.139467662291 2.8413830629205  C 124.752137781525 2.8413830629205  124.558472841142 2.8413830629205  124.171142960376 2.8413830629205  L 124.171142960376 2.64783339928772  L 123.977478019993 2.64783339928772  L 123.977478019993 2.8413830629205  L 120.878838973865 3.22848239018612  L 120.878838973865 3.03493272655328  L 120.685174033482 3.03493272655328  L 120.685174033482 3.22848239018612  L 120.297844152716 3.22848239018612  C 119.329519450801 3.22848239018612  117.97386486812 3.42203205381867  116.230880404673 3.42203205381867  C 114.681560881609 3.42203205381867  113.325906298928 3.61558171745151  111.970251716247 3.61558171745151  C 110.808262073949 3.61558171745151  109.839937372034 3.61558171745151  109.065277610502 3.61558171745151  L 107.515958087438 3.61558171745151  C 107.128628206672 3.61558171745151  106.547633385523 3.61558171745151  105.966638564374 3.61558171745151  C 105.385643743225 3.61558171745151  104.804648922076 3.61558171745151  104.223654100927 3.61558171745151  L 102.093339756714 3.80913138108428  C 101.318679995183 3.80913138108428  100.54402023365 4.00268104471706  99.7693604721185 4.00268104471706  L 98.2200409490545 4.1962307083499  C 97.2517162471396 4.38978037198268  96.6707214259905 4.38978037198268  95.8960616644586 4.58333003561529  L 94.5404070817776 4.97042936288091  C 94.1530772010118 4.97042936288091  93.5720823798626 5.16397902651369  93.1847524990966 5.16397902651369  C 92.6037576779478 5.16397902651369  92.0227628567986 5.35752869014647  91.4417680356498 5.35752869014647  L 91.2481030952667 5.35752869014647  C 90.6671082741177 5.35752869014647  90.0861134529688 5.55107835377908  89.3114536914369 5.55107835377908  C 88.5367939299048 5.55107835377908  87.7621341683729 5.74462801741186  86.987474406841 5.74462801741186  C 86.406479585692 5.74462801741186  85.6318198241599 5.93817768104469  85.0508250030109 5.93817768104469  C 84.276165241479 5.93817768104469  83.5015054799471 6.13172734467747  82.726845718415 6.13172734467747  L 81.3711911357341 6.13172734467747  C 79.4345417319041 6.32527700831025  77.4978923280743 6.32527700831025  74.5929182223293 6.90592599920848  L 72.4626038781164 7.29302532647409  C 71.8816090569676 7.29302532647409  71.4942791762014 7.48657499010687  70.9132843550524 7.48657499010687  C 70.5259544742866 7.48657499010687  70.1386245935205 7.68012465373965  69.9449596531374 7.68012465373965  L 69.1702998916055 7.87367431737226  C 68.5893050704565 8.06722398100504  68.0083102493076 8.26077364463788  67.0399855473925 8.45432330827066  C 66.2653257858606 8.84142263553628  65.1033361435626 9.22852196280166  63.5540166204986 9.42207162643444  C 62.1983620378176 9.61562129006722  60.8427074551366 10.0027206173328  59.4870528724556 10.1962702809656  C 58.3250632301576 10.1962702809656  57.1630735878597 10.3898199445982  56.0010839455617 10.583369608231  L 54.4517644224979 10.7769192718638  C 53.8707696013489 10.7769192718638  53.2897747802 10.9704689354966  52.9024448994339 10.9704689354966  C 52.3214500782849 10.9704689354966  51.740455257136 11.1640185991295  51.1594604359869 11.3575682627622  L 49.029146091774 11.7446675900276  C 46.1241719860292 12.325316580926  45.3495122244971 12.7124159081916  44.5748524629652 13.099515235457  L 44.1875225821991 13.2930648990898  C 43.8001927014333 13.4866145627226  43.6065277610503 13.6801642263554  43.0255329399012 13.8737138899882  C 42.6382030591353 14.0672635536208  42.2508731783693 14.0672635536208  41.6698783572202 14.2608132172536  C 41.2825484764544 14.4543628808864  40.7015536553052 14.6479125445192  39.9268938937734 14.841462208152  C 39.3458990726243 15.0350118717848  38.7649042514754 15.2285615354174  38.1839094303264 15.4221111990502  L 37.7965795495604 15.4221111990502  C 37.2155847284114 15.615660862683  36.6345899072625 15.8092105263158  35.8599301457305 15.8092105263158  C 35.4726002649645 16.0027601899486  35.0852703841985 16.1963098535814  34.3106106226663 16.1963098535814  L 32.7612910996025 16.5834091808468  C 31.7929663976877 16.7769588444796  30.6309767553897 16.9705085081124  29.4689871130918 17.1640581717452  L 28.6943273515597 17.357607835378  C 28.5006624111766 17.357607835378  28.1133325304107 17.5511574990106  27.9196675900278 17.5511574990106  C 27.3386727688786 17.9382568262762  26.7576779477298 18.131806489909  26.1766831265807 18.3253561535418  C 25.7893532458148 18.3253561535418  25.5956883054318 18.5189058171746  25.4020233650488 18.5189058171746  C 25.2083584246658 18.5189058171746  25.0146934842827 18.7124554808072  24.8210285439 18.7124554808072  C 24.4336986631339 19.0995548080728  24.2400337227508 19.0995548080728  24.0463687823678 19.2931044717056  C 23.8527038419847 19.4866541353384  23.6590389016018 19.4866541353384  23.6590389016018 19.4866541353384  C 23.6590389016018 19.4866541353384  23.6590389016018 19.6802037989711  23.6590389016018 19.6802037989711  C 23.4653739612189 20.0673031262365  23.2717090208358 20.4544024535022  22.8843791400699 20.8415017807678  C 22.4970492593038 21.2286011080332  21.7223894977719 21.8092500989316  20.7540647958569 22.3898990898297  C 19.785740093942 22.9705480807281  18.8174153920271 23.3576474079937  17.6554257497289 23.7447467352591  L 16.1061062266651 24.3253957261575  C 15.525111405516 24.5189453897904  15.1377815247502 24.5189453897904  14.5567867036011 24.7124950534231  C 14.1694568228351 24.9060447170557  13.5884620016861 25.0995943806885  13.2011321209201 25.2931440443213  C 12.6201372997713 25.4866937079541  12.2328074190052 25.4866937079541  11.8454775382392 25.6802433715869  C 10.8771528363242 26.0673426988523  10.1024930747923 26.6479916897507  9.52149825364324 27.0350910170163  C 9.1341683728773 27.4221903442817  9.1341683728773 27.6157400079145  8.94050343249432 27.6157400079145  L 9.32783331326016 28.0028393351801  C 9.52149825364324 28.1963889988129  9.71516319402622 28.3899386624455  9.9088281344093 28.5834883260783  C 10.1024930747923 28.7770379897111  10.1024930747923 28.7770379897111  10.1024930747923 28.9705876533439  C 10.1024930747923 28.9705876533439  10.2961580151751 29.1641373169767  10.2961580151751 29.3576869806095  C 10.8771528363242 30.3254352987733  10.2961580151751 31.4867332805699  10.2961580151751 31.8738326078353  C 10.1024930747923 32.4544815987337  9.52149825364324 33.035130589632  8.55317355172826 33.8093292441631  C 7.97217873057923 34.3899782350612  7.19751896904734 34.7770775623268  6.61652414789842 35.1641768895925  C 6.22919426713236 35.3577265532252  5.8418643863663 35.5512762168578  5.64819944598332 35.9383755441235  C 5.45453450560046 35.9383755441235  5.26086956521738 36.1319252077562  5.0672046248344 36.325474871389  C 4.87353968445132 36.5190245350219  4.67987474406834 36.7125741986546  4.67987474406834 36.9061238622872  L 4.67987474406834 37.09967352592  C 4.67987474406834 37.4867728531856  4.87353968445132 37.6803225168184  5.0672046248344 37.873872180451  L 5.26086956521738 38.2609715077166  C 5.26086956521738 38.2609715077166  5.45453450560046 38.4545211713494  5.64819944598332 38.4545211713494  C 6.42285920751533 38.841620498615  7.19751896904734 39.0351701622478  8.1658436709622 39.4222694895132  L 9.52149825364324 39.8093688167788  C 10.1024930747923 40.0029184804116  10.6834878959412 40.1964681440444  11.0708177767073 40.390017807677  C 11.6518125978563 40.5835674713098  12.2328074190052 40.9706667985754  12.6201372997713 41.1642164622082  L 12.813802240154 41.1642164622082  C 13.3947970613032 41.5513157894736  13.7821269420692 41.7448654531064  14.363121763218 42.131964780372  C 14.7504516439841 42.5190641076374  15.331446465133 42.906163434903  15.525111405516 43.4868124258014  C 15.7187763458991 43.8739117530667  16.1061062266651 44.2610110803324  16.1061062266651 44.648110407598  C 16.2997711670479 45.2287593984961  16.2997711670479 45.8094083893945  16.1061062266651 46.3900573802928  C 16.1061062266651 46.5836070439256  16.1061062266651 46.5836070439256  16.1061062266651 46.5836070439256  C 16.1061062266651 47.5513553620893  16.1061062266651 48.3255540166206  18.430085511261 49.4868519984171  C 18.8174153920271 49.6804016620499  19.2047452727929 49.8739513256825  19.592075153559 50.0675009893154  C 19.9794050343248 50.2610506529481  20.3667349150909 50.2610506529481  20.7540647958569 50.4546003165809  C 21.5287245573888 50.6481499802137  22.3033843189207 50.8416996438465  23.2717090208358 51.0352493074791  C 24.0463687823678 51.2287989711119  24.8210285439 51.4223486347447  25.7893532458148 51.4223486347447  C 26.5640130073467 51.6158982983775  27.3386727688786 51.6158982983775  28.3069974707936 51.8094479620103  C 30.2436468746237 52.0029976256431  31.9866313380704 52.1965472892757  33.9232807419005 52.5836466165413  C 36.2472600264964 52.7771962801741  38.3775743707093 53.3578452710723  40.5078887149223 53.9384942619707  C 42.8318679995182 54.5191432528691  44.7685174033483 55.2933419074001  46.1241719860292 55.8739908982983  C 47.673491509093 56.4546398891967  48.4481512706251 57.2288385437276  49.4164759725401 57.8094875346261  C 49.8038058533061 58.0030371982589  50.191135734072 58.3901365255243  50.772130555221 58.583686189157  C 51.1594604359869 58.7772358527899  51.740455257136 59.1643351800554  52.5151150186679 59.3578848436883  C 53.2897747802 59.5514345073209  54.0644345417319 59.9385338345865  55.2264241840298 60.1320834982192  C 55.6137540647959 60.3256331618521  56.1947488859448 60.5191828254847  56.9694086474769 60.7127324891174  C 57.5504034686257 60.7127324891174  58.3250632301576 60.9062821527502  59.0997229916898 61.099831816383  C 64.7160062627966 62.0675801345469  68.7829700108396 62.2611297981796  72.2689389377334 62.2611297981796  L 76.7232325665422 62.2611297981796  C 78.659881970372 62.2611297981796  80.4028664338191 62.2611297981796  82.3395158376489 62.2611297981796  C 83.888835360713 62.2611297981796  85.244489943394 62.4546794618124  86.793809466458 62.4546794618124  C 88.5367939299048 62.6482291254452  90.2797783933519 62.6482291254452  92.2164277971817 62.8417787890778  C 93.9594122606285 63.0353284527106  95.5087317836926 63.2288781163434  96.8643863663735 63.4224277799763  L 97.4453811875226 63.4224277799763  C 98.9947007105865 63.615977443609  100.350355293267 63.8095271072418  101.706009875948 64.0030767708746  C 102.867999518246 64.1966264345072  103.836324220161 64.39017609814  104.998313862459 64.7772754254056  L 107.903287968204 65.357924416304  C 109.646272431651 65.7450237435694  111.582921835481 66.132123070835  114.10056606046 66.5192223981004  C 114.681560881609 66.7127720617332  115.456220643141 66.7127720617332  116.03721546429 66.7127720617332  C 116.618210285439 66.7127720617332  117.392870046971 66.906321725366  118.361194748886 66.906321725366  C 120.104179212333 67.0998713889988  122.040828616163 67.0998713889988  124.171142960376 67.2934210526316  L 124.558472841142 67.2934210526316  C 125.526797543057 67.2934210526316  126.301457304589 67.2934210526316  127.269782006504 67.2934210526316  C 128.238106708419 67.2934210526316  129.206431410334 67.2934210526316  129.981091171866 67.2934210526316  C 131.53041069493 67.2934210526316  133.079730217994 67.0998713889988  134.629049741058 67.0998713889988  C 136.178369264122 66.906321725366  137.340358906419 66.906321725366  138.308683608334 66.7127720617332  C 139.470673250632 66.5192223981004  140.63266289293 66.3256727344678  141.794652535228 66.3256727344678  C 144.118631819824 65.9385734072022  146.44261110442 65.7450237435694  149.347585210165 65.357924416304  C 152.639889196676 64.9708250890384  155.932193183187 64.7772754254056  159.99915693123 64.7772754254056  C 164.453450560039 64.5837257617728  167.745754546549 64.5837257617728  170.844393592678 64.7772754254056  C 171.425388413826 64.7772754254056  172.006383234975 64.7772754254056  172.393713115741 64.7772754254056  L 172.781042996507 64.7772754254056  C 173.362037817656 64.7772754254056  174.136697579188 64.7772754254056  174.717692400337 64.9708250890384  C 175.879682042635 64.9708250890384  176.84800674455 65.1643747526712  178.009996386848 65.1643747526712  L 178.397326267614 65.1643747526712  C 179.559315909912 65.1643747526712  180.72130555221 65.3579244163038  181.883295194508 65.3579244163038  L 182.270625075274 65.3579244163038  C 183.432614717572 65.3579244163038  184.400939419487 65.5514740799366  185.562929061785 65.5514740799366  L 185.950258942551 65.5514740799366  C 189.048897988679 65.5514740799366  192.147537034807 65.3579244163038  195.633505961701 65.1643747526712  L 196.020835842466 65.1643747526712  Z M 2.93689028062147 38.4545211713494  C 2.93689028062147 38.4545211713494  2.93689028062147 38.0674218440838  2.7432253402385 37.873872180451  C 2.7432253402385 37.7026538511223  2.59167159443632 37.3799719865542  2.5566997190117 37.0398145925701  L 2.54956039985541 37.4867728531856  C 2.54956039985541 37.873872180451  2.54956039985541 38.0674218440838  2.7432253402385 38.2609715077166  C 2.7432253402385 38.2609715077166  2.93689028062147 38.4545211713494  2.93689028062147 38.4545211713494  Z M 2.64822035316092 36.9042972739733  C 2.7432253402385 36.897480330035  2.7432253402385 36.8652221170921  2.7432253402385 36.7125741986546  C 2.7432253402385 36.8081313691754  2.69601982654456 36.8565111245224  2.64822035316092 36.9042972739733  Z M 260.511260990004 53.9384942619707  C 260.317596049621 54.1320439256035  260.123931109238 54.3255935892363  259.930266168855 54.5191432528691  C 260.704925930386 53.9384942619707  261.092255811153 53.5513949347051  261.479585691919 52.9707459438069  L 262.25424545345 52.1965472892757  C 261.673250632301 52.5836466165413  261.479585691919 52.7771962801741  261.285920751536 53.1642956074397  L 260.511260990004 53.9384942619707  Z M 283.751053835963 37.6803225168184  C 283.363723955197 38.4545211713494  283.363723955197 38.6480708349822  283.363723955197 38.841620498615  C 283.363723955197 39.2287198258804  283.55738889558 39.4222694895132  283.751053835963 39.615819153146  C 283.55738889558 39.0351701622478  283.55738889558 38.0674218440838  284.138383716729 37.09967352592  C 283.944718776346 37.2932231895528  283.751053835963 37.4867728531856  283.751053835963 37.6803225168184  Z M 14.1694568228351 46.19650771666  C 14.1694568228351 45.8094083893945  14.363121763218 45.6158587257618  14.1694568228351 45.422309062129  C 14.1694568228351 45.2287593984961  13.9757918824522 45.0352097348635  13.7547597621491 44.8494020582567  C 13.7722112971729 44.9113379504589  13.7821269420692 44.9732738426611  13.7821269420692 45.0352097348634  C 13.975791882452 45.6158587257618  13.7821269420692 46.19650771666  13.7821269420692 46.5836070439256  C 13.7821269420692 46.7771567075583  13.7821269420692 46.7771567075583  13.7821269420692 46.9707063711912  C 13.7821269420692 47.7449050257221  13.5884620016861 48.3255540166206  14.9441165843672 49.2933023347844  C 14.1694568228351 48.5191036802534  14.1694568228351 47.5513553620893  14.1694568228351 46.7771567075583  C 14.1694568228351 46.3900573802928  14.1694568228351 46.3900573802928  14.1694568228351 46.19650771666  Z M 284.913043478261 43.6803620894342  C 284.913043478261 43.6803620894342  285.106708418644 43.4868124258014  285.106708418644 43.2932627621686  C 285.300373359027 43.0997130985358  285.300373359027 42.906163434903  285.300373359027 42.7126137712704  C 285.300373359027 42.5190641076376  285.300373359027 42.5190641076376  285.300373359027 42.3255144440048  C 285.106708418644 42.131964780372  284.913043478261 41.9384151167392  284.913043478261 41.7448654531064  C 284.913043478261 41.9384151167392  284.913043478261 42.3255144440048  284.913043478261 42.5190641076376  C 284.913043478261 43.0997130985358  284.719378537878 43.4868124258014  284.525713597495 43.8739117530667  L 284.525713597495 44.0674614166996  C 284.719378537878 43.8739117530667  284.913043478261 43.8739117530667  284.913043478261 43.6803620894342  Z M 13.7821269420692 44.8416600712308  C 13.6235270764088 44.3661436882956  13.4649272107483 44.1502400650874  13.2011321209201 43.8739117530667  C 13.3638046919785 44.1990632373611  13.6631172006654 44.5242147216553  13.7821269420692 44.8416600712308  Z " fill-rule="nonzero" fill="#0059ef" stroke="none" transform="matrix(1 0 0 1 790 488 )" />
  </g>
</svg>