<?xml version="1.0" encoding="utf-8"?>
<svg version="1.1" xmlns:xlink="http://www.w3.org/1999/xlink" width="461px" height="104px" xmlns="http://www.w3.org/2000/svg">
  <g transform="matrix(1 0 0 1 -8 -141 )">
    <path d="M 0 104  L 0 0.424714506880491  C 0 0.424714506880491  16.9597747341961 13.2610299868918  20.7993483690346 22.1619421623575  C 26.7775446243142 36.0183621838269  31.586958749818 83.9532746074301  40.7084329030486 83.6632448848586  C 47.8852525339706 83.4382218242431  53.1472588884514 42.4590222298941  60.3091578964402 41.4739212756431  C 67.453649511007 40.4938208338504  76.9680334014812 68.7417157098084  82.5483463785394 77.762640184269  C 86.775856209644 84.5933402020703  97.3147895415388 101.405063086293  102.149071371931 96.4595562652053  C 113.665305505958 84.6733484014003  110.228588690319 10.2257189248089  122.252124004078 0.704743204535589  C 127.429580161937 -3.39567701112856  137.600471461477 14.5161586138815  141.979674292403 21.4218663185547  C 147.16210399124 29.5977041875922  155.913049341626 53.2701301643642  162.46071603886 54.7702839018023  C 167.464098262497 55.9204017671714  176.543297317416 40.9738700298303  181.559113393498 41.8839632972094  C 187.171754386911 42.8990673262092  196.370318425297 58.2906446723234  201.411002206267 63.3611643048639  C 206.023961463149 68.0016398660057  216.0356994514 76.9975617781756  221.138552494592 75.4874070158214  C 226.810875979739 73.8122353423491  235.812985149503 55.7953889557182  241.492768946116 54.2652321435314  C 246.424034825575 52.9350958296698  256.102545568316 60.5808793781455  260.842330120131 63.6111899277703  C 265.791003393012 66.7765143137647  275.633640988019 75.5024085531959  280.821044227833 75.0423614070482  C 285.98109299227 74.5873147733587  295.455688554922 63.8012094011792  300.610763778381 63.1061381694994  C 305.569384133217 62.4360695001105  316.123238088046 68.051644990587  320.494980607506 63.2961576429084  C 326.811377649274 56.4204530129841  333.197404264731 23.7771076863323  340.284700158053 21.4168658060967  C 345.459669545422 19.696689520501  355.21278340283 37.1534785118215  360.263414265755 34.3031864106892  C 366.428118307701 30.8228297398332  373.557689299335 3.38501788209146  379.864139259147 1.1397877883926  C 385.337521105183 -0.810412070276925  396.040581289345 12.9760007767786  399.68618682605 21.4168658060967  C 405.75390681893 35.4683058134328  410.411627944611 84.428323290952  419.664900933753 84.0782874188833  C 426.908863367875 83.8032592336863  432.280287623867 41.0138741294954  439.516789746522 41.6339376743031  C 448.160803965886 42.374013518106  461 96.2095306422989  461 96.2095306422989  L 461 104  L 0 104  Z " fill-rule="nonzero" fill="#1890ff" stroke="none" fill-opacity="0.298039215686275" transform="matrix(1 0 0 1 8 141 )" />
  </g>
</svg>