<?xml version="1.0" encoding="utf-8"?>
<svg version="1.1" xmlns:xlink="http://www.w3.org/1999/xlink" width="299px" height="114px" xmlns="http://www.w3.org/2000/svg">
  <g transform="matrix(1 0 0 1 -786 -604 )">
    <path d="M 201.211533618736 110.228107863644  L 200.964264351019 109.877589923815  C 197.193557584738 110.429876501198  193.789490522068 110.615291361235  190.570721061026 110.615291361235  L 189.796843784101 110.615291361235  C 188.249089230253 110.615291361235  186.894803995635 110.42169961244  185.733988080249 110.42169961244  L 185.347049441786 110.42169961244  C 183.992764207169 110.228107863644  182.638478972551 110.034516114848  181.671132376396 110.034516114848  L 181.090724418702 110.034516114848  C 180.123377822547 109.840924366053  178.96256190716 109.840924366053  177.995215311005 109.647332617257  C 177.414807353312 109.647332617257  176.834399395618 109.453740868462  176.060522118694 109.453740868462  L 175.480114161001 109.453740868462  C 174.899706203307 109.453740868462  174.512767564845 109.453740868462  173.932359607152 109.260149119666  C 171.030319818686 109.066557370871  167.934810710988 109.066557370871  163.485016368673 109.260149119666  C 159.615629984051 109.453740868462  156.326651557123 109.647332617257  153.231142449425 110.228107863644  C 150.652108611803 110.596774417827  148.599294544073 110.965440972011  146.404628972658 111.501231036282  L 146.459716276337 111.776841854008  C 145.105431041719 111.970433602804  143.944615126333 112.357617100395  142.783799210946 112.551208849191  C 141.622983295559 112.744800597986  140.268698060942 112.938392346782  138.334004868631 113.131984095577  C 136.592780995551 113.325575844373  134.851557122471 113.519167593168  133.110333249391 113.519167593168  C 131.949517334005 113.519167593168  130.982170737849 113.519167593168  130.014824141694 113.519167593168  C 128.854008226307 113.519167593168  127.886661630152 113.519167593168  126.725845714765 113.325575844373  L 126.532376395534 113.325575844373  C 124.210744564761 113.131984095577  122.082582053219 112.938392346782  120.147888860908 112.744800597986  C 119.180542264753 112.551208849191  118.406664987828 112.551208849191  117.632787710904 112.357617100395  C 116.85891043398 112.1640253516  116.085033157055 111.970433602804  115.311155880131 111.776841854008  C 112.409116091664 111.002474858826  110.280953580123 110.228107863644  108.539729707043 109.647332617257  L 105.637689918576 108.485782124484  C 104.670343322421 108.098598626893  103.509527407034 107.711415129302  102.542180810879 107.517823380507  C 101.381364895492 107.130639882915  100.027079660875 106.93704813412  98.672794426257 106.549864636529  L 98.0923864685637 106.356272887733  C 96.7381012339461 106.162681138938  95.1903466800975 105.775497641347  93.6425921262487 105.581905892551  C 91.9013682531687 105.388314143755  90.160144380089 105.001130646164  88.418920507009 105.001130646164  C 86.8711659531605 104.807538897369  85.5168807185428 104.807538897369  84.1625954839251 104.613947148573  C 82.2279022916143 104.613947148573  80.4866784185344 104.613947148573  78.7454545454547 104.613947148573  C 77.9715772685301 104.613947148573  77.391169310837 104.613947148573  76.6172920339125 104.613947148573  L 73.9087215646772 104.613947148573  C 69.6523965415932 104.613947148573  65.009132880047 104.420355399778  58.8181146646521 102.678029660618  C 58.0442373877278 102.484437911822  57.0768907915723 102.097254414231  56.3030135146478 101.903662665436  C 55.5291362377235 101.71007091664  54.7552589607992 101.322887419049  54.1748510031058 101.129295670253  C 52.8205657684882 100.742112172662  51.6597498531016 100.161336926276  50.6924032569462 99.5805616798889  C 49.918525980022 99.1933781822979  49.1446487030975 98.6126029359112  48.5642407454043 98.0318276895244  C 47.9838327877109 97.451052443138  47.5968941492487 97.0638689455468  47.2099555107866 96.4830936991602  C 46.2426089146312 95.5151349551826  45.4687316377067 94.7407679600002  44.3079157223201 93.7728092160226  C 42.9536304877024 92.6112587232492  41.4058759338539 91.8368917280671  39.0842441030808 90.8689329840893  C 36.9560815915386 89.9009742401115  35.0213883992277 89.1266072449293  32.6997565684546 88.5458319985427  C 30.9585326953747 87.9650567521561  29.217308822295 87.7714650033605  27.2826156299842 87.3842815057694  C 26.3152690338285 87.1906897569741  25.3479224376731 86.9970980081782  24.5740451607488 86.8035062593829  C 23.4132292453622 86.6099145105873  22.6393519684377 86.2227310129961  21.6720053722823 86.0291392642005  C 20.704658776127 85.6419557666096  19.7373121799715 85.2547722690184  18.7699655838161 84.8675887714274  C 18.1895576261227 84.6739970226316  17.8026189876605 84.2868135250407  17.2222110299673 84.0932217762452  C 16.6418030722739 83.7060382786542  16.2548644338119 83.318854781063  15.8679257953496 83.1252630322674  C 12.1920087299588 80.2213868003341  12.1920087299588 77.8982858147875  12.3854780491899 76.1559600756277  L 12.3854780491899 75.9623683268321  C 12.3854780491899 75.7687765780365  12.3854780491899 75.575184829241  12.3854780491899 75.1880013316501  C 12.3854780491899 74.4136343364677  12.578947368421 74.0264508388767  12.3854780491899 73.44567559249  C 12.3854780491899 73.0584920948988  12.1920087299588 72.6713085973079  11.9985394107277 72.2841250997167  C 11.8050700914968 71.7033498533302  11.4181314530346 71.1225746069434  11.0311928145723 70.7353911093523  C 10.8377234953412 70.1546158629658  10.4507848568792 69.7674323653746  10.0638462184169 69.3802488677834  L 9.87037689918577 69.186657118988  C 9.48343826072346 68.7994736213968  9.09649962226149 68.4122901238057  8.70956098379918 68.2186983750101  C 8.32262234533698 68.0251066262146  7.9356837068749 67.6379231286236  7.35527574918149 67.444331379828  L 5.8075211953327 66.6699643846459  C 4.84017459917732 66.2827808870547  3.67935868379072 65.7020056406679  2.90548140686644 64.9276386454859  C 2.71201208763534 64.7340468966903  2.51854276840425 64.5404551478949  2.13160412994216 64.3468633990993  C 1.93813481071106 63.9596799015081  1.74466549147996 63.7660881527126  1.55119617224875 63.3789046551215  C 1.35772685301765 62.7981294087349  1.16425753378655 62.2173541623481  0.970788214555455 61.4429871671661  C 0.970788214555455 61.0558036695749  0.77731889532447 60.6686201719839  0.77731889532447 60.2814366743928  C 0.77731889532447 59.8942531768016  0.970788214555455 59.5070696792106  0.970788214555455 59.313477930415  C 1.16425753378655 58.7327026840284  1.35772685301765 58.1519274376418  1.74466549147996 57.571152191255  C 2.13160412994216 56.9903769448686  2.32507344917315 56.6031934472774  2.71201208763534 56.2160099496862  C 3.09895072609766 55.8288264520952  3.48588936455963 55.441642954504  3.87282800302194 55.0544594569129  C 4.64670527994622 54.2800924617308  5.22711323763951 53.6993172153441  5.8075211953327 53.1185419689575  C 6.58139847225721 52.3441749737751  6.77486779148842 51.5698079785931  6.96833711071929 50.7954409834109  C 7.16180642995039 49.827482239433  7.35527574918149 49.2467069930465  7.16180642995039 48.8595234954553  C 7.16180642995039 48.6659317466599  7.16180642995039 48.6659317466599  7.16180642995039 48.6659317466599  C 6.96833711071929 48.0851565002732  6.96833711071929 48.0851565002732  6.96833711071929 47.8915647514776  C 6.77486779148842 47.697973002682  6.77486779148842 47.5043812538867  6.58139847225721 47.3107895050911  C 6.38792915302611 46.9236060075  6.19445983379501 46.7300142587044  6.00099051456391 46.3428307611134  C 5.8075211953327 45.9556472635222  5.61405187610183 45.568463765931  5.61405187610183 44.9876885195446  C 5.61405187610183 44.6015459538027  5.71026709812759 44.1191272799583  5.90269758557088 43.6124454397873  L 5.42058255687073 43.6325462779756  L 6.63929540501192 42.2606267958954  C 6.68308355652789 42.2010713642078  6.72827435201998 42.1420909430132  6.77486779148842 42.0838122876112  L 6.96833711071929 41.6966287900201  L 7.13863935404822 41.6811369718133  C 7.88357083967753 40.7838288424251  8.80710534535183 39.8985281430183  10.0638462184169 39.1799360556781  C 10.257315537648 38.9863443068825  10.8377234953412 38.5991608092913  11.4181314530346 38.4055690604958  L 11.6116007722654 38.2119773117003  C 12.1920087299588 38.0183855629049  12.578947368421 37.6312020653137  13.1593553261142 37.4376103165181  C 13.7397632838076 37.0504268189269  14.1267019222697 36.8568350701315  14.5136405607319 36.663243321336  C 14.9005791991942 36.4696515725404  15.0940485184253 36.4696515725404  15.2875178376562 36.2760598237448  L 16.0613951145807 35.8888763261536  C 17.0287417107362 35.3081010797671  17.9960883068916 34.7273258333804  18.7699655838161 33.9529588381982  C 19.7373121799715 33.1785918430162  20.3177201376647 32.5978165966294  20.5111894568957 32.0170413502428  C 20.8981280953581 31.6298578526518  20.8981280953581 31.2426743550606  21.0915974145892 30.8554908574696  C 21.0915974145892 30.4683073598784  21.2850667338201 30.2747156110828  21.2850667338201 30.0811238622873  C 21.4785360530512 29.6939403646963  21.6720053722823 29.5003486159007  22.0589440107447 29.1131651183096  C 22.2524133299758 28.919573369514  22.6393519684377 28.532389871923  23.0262906069 28.1452063743319  C 23.2197599261311 27.9516146255363  23.4132292453622 27.7580228767407  23.8001678838243 27.5644311279451  C 24.1871065222865 27.3708393791495  24.3805758415177 27.1772476303541  24.7675144799799 26.9836558815585  C 25.5413917569042 26.5964723839675  26.3152690338285 26.2092888863763  26.8956769915219 25.8221053887853  C 27.282615629984 25.6285136399897  27.4760849492151 25.4349218911941  27.8630235876773 25.4349218911941  C 28.2499622261396 25.2413301423985  28.6369008646017 25.2413301423985  28.8303701838328 25.047738393603  C 30.1846554184505 24.6605548960121  31.3454713338369 24.2733713984209  32.3128179299924 23.8861879008297  L 34.0540418030723 23.3054126544431  C 34.6344497607655 23.1118209056476  35.2148577184589 22.918229156852  35.6017963569209 22.7246374080564  C 36.1822043146143 22.5310456592611  36.7626122723077 22.3374539104655  37.3430202300008 22.1438621616699  L 37.536489549232 21.9502704128743  C 38.1168975069252 21.7566786640787  38.6973054646185 21.5630869152832  39.2777134223116 21.1759034176922  C 40.0515906992362 20.9823116688966  40.4385293376982 20.788719920101  41.0189372953915 20.5951281713054  C 41.4058759338539 20.2079446737142  41.7928145723159 20.0143529249187  42.1797532107781 19.8207611761234  C 42.5666918492402 19.6271694273278  42.9536304877024 19.2399859297366  43.1470998069335 19.046394180941  L 43.5340384453958 18.8528024321456  C 44.5013850415512 18.0784354369633  45.4687316377067 17.3040684417812  48.9511793838662 16.1425179490079  C 49.3381180223286 15.9489262002123  49.7250566607908 15.9489262002123  50.1119952992528 15.7553344514167  C 50.498933937715 15.5617427026211  50.8858725761771 15.5617427026211  51.2728112146394 15.3681509538255  C 51.8532191723327 15.1745592050302  52.627096449257 14.9809674562346  53.4009737261815 14.7873757074391  C 53.9813816838747 14.5937839586435  54.5617896415681 14.5937839586435  55.3356669184924 14.4001922098479  C 55.9160748761856 14.2066004610525  56.496482833879 14.2066004610525  57.0768907915722 14.0130087122569  C 58.2377067069586 13.8194169634613  59.205053303114 13.6258252146657  60.3658692185008 13.4322334658701  C 61.5266851338874 13.045049968279  62.6875010492739 12.6578664706881  64.0417862838916 12.2706829730969  C 65.3960715185093 11.8834994755059  66.5568874338958 11.4963159779147  67.5242340300513 11.1091324803236  C 68.2981113069756 10.7219489827324  68.878519264669 10.5283572339371  69.458927222362 10.3347654851415  C 69.8458658608243 10.1411737363459  70.0393351800554 10.1411737363459  70.4262738185175 9.94758198755028  C 70.8132124569797 9.7539902387548  71.200151095442 9.56039848995943  71.7805590531352 9.56039848995943  C 72.3609670108285 9.36680674116383  72.7479056492906 9.17321499236823  73.5217829262151 8.97962324357263  C 73.9087215646772 8.97962324357263  74.1021908839083 8.78603149477703  74.4891295223705 8.78603149477703  C 74.8760681608328 8.78603149477703  75.2630067992948 8.59243974598144  75.8434147569882 8.39884799718607  C 79.1323931839167 7.62448100200379  81.4540250146898 7.43088925320819  83.3887182070008 7.23729750441282  L 84.5495341223874 7.04370575561722  C 85.3234113993117 7.04370575561722  86.097288676236 6.85011400682163  86.8711659531605 6.85011400682163  C 87.4515739108537 6.85011400682163  88.0319818685471 6.65652225802603  88.6123898262402 6.65652225802603  C 89.3862671031648 6.46293050923043  90.160144380089 6.46293050923043  90.9340216570133 6.26933876043495  C 91.7078989339378 6.07574701163958  92.288306891631 6.07574701163958  92.8687148493243 5.88215526284398  L 93.0621841685553 5.88215526284398  C 93.6425921262487 5.68856351404838  94.2230000839418 5.68856351404838  94.6099387224041 5.49497176525279  C 94.9968773608663 5.49497176525279  95.3838159993284 5.30138001645719  95.7707546377905 5.10778826766159  L 96.9315705531772 4.72060477007062  C 97.7054478301016 4.52701302127514  98.4793251070259 4.33342127247954  99.4466717031813 4.13982952368394  L 101.187895576261 3.75264602609297  C 101.961772853186 3.55905427729738  102.73565013011 3.55905427729738  103.509527407034 3.36546252850178  C 104.089935364728 3.36546252850178  104.47687400319 3.17187077970618  104.863812641652 3.17187077970618  L 106.024628557039 3.36546252850155  C 106.798505833963 3.36546252850155  107.378913791656 3.17187077970618  107.959321749349 3.17187077970618  C 108.733199026274 3.17187077970618  109.120137664736 3.17187077970618  109.700545622429 3.17187077970618  L 111.248300176278 3.17187077970618  C 112.215646772433 3.17187077970618  113.182993368589 3.17187077970618  114.150339964744 2.9782790309107  C 115.504625199362 2.9782790309107  116.665441114749 2.7846872821151  118.213195668597 2.5910955333195  C 119.954419541677 2.39750378452391  121.115235457064 2.39750378452391  122.082582053219 2.20391203572854  L 125.951968437841 1.62313678934174  C 126.532376395534 1.62313678934174  126.919315033996 1.42954504054615  127.49972299169 1.42954504054615  C 128.660538907076 1.23595329175066  130.014824141694 1.23595329175066  131.756048014774 1.04236154295529  L 132.336455972467 1.04236154295529  L 132.47207746324 1.22895909876956  C 133.803990034648 1.19427165912964  134.984088559521 1.04236154295506  136.012373037858 1.04236154295506  L 136.205842357089 1.04236154295506  C 136.786250314782 1.04236154295506  137.173188953244 1.04236154295506  137.753596910938 1.04236154295506  L 142.203391253253 1.23595329175066  C 143.364207168639 1.23595329175066  144.525023084026 1.23595329175066  146.266246957106 1.23595329175066  C 147.814001510954 1.23595329175066  148.974817426341 1.23595329175066  150.135633341727 1.04236154295506  C 151.102979937883 1.04236154295506  151.876857214807 0.848769794159693  152.844203810963 0.848769794159693  C 153.424611768656 0.848769794159693  153.811550407118 0.848769794159693  154.391958364811 0.655178045364096  C 154.778897003274 0.655178045364096  155.359304960967 0.655178045364096  155.93971291866 0.655178045364096  C 156.520120876354 0.655178045364096  157.293998153278 0.655178045364096  157.874406110971 0.655178045364096  L 159.035222026358 0.655178045364096  L 160.196037941744 0.655178045364096  C 161.1633845379 0.655178045364096  161.937261814824 0.655178045364096  162.711139091748 0.655178045364096  L 164.645832284059 0.848769794159693  C 165.806648199446 1.04236154295506  166.58052547637 1.04236154295506  167.354402753295 1.23595329175066  L 168.708687987912 1.42954504054615  C 169.095626626374 1.42954504054615  169.676034584068 1.62313678934174  170.06297322253 1.62313678934174  C 170.643381180223 1.62313678934174  171.223789137917 1.81672853813734  171.80419709561 1.81672853813734  L 171.997666414841 1.81672853813734  C 172.771543691765 1.81672853813734  173.351951649458 1.81672853813734  173.932359607152 2.01032028693271  C 174.706236884076 2.01032028693271  175.480114161001 2.01032028693271  176.060522118694 2.20391203572831  C 176.640930076387 2.20391203572831  177.22133803408 2.20391203572831  177.801745991774 2.20391203572831  L 178.769092587929 2.20391203572831  L 181.864601695627 2.20391203572831  C 183.412356249475 2.20391203572831  185.347049441786 2.20391203572831  188.442558549484 2.5910955333195  L 190.764190380257 2.7846872821151  C 191.34459833795 2.7846872821151  191.925006295643 2.9782790309107  192.505414253337 2.9782790309107  C 192.892352891799 2.9782790309107  193.472760849492 3.17187077970607  194.053168807185 3.17187077970607  L 195.213984722572 3.36546252850155  C 195.987861999496 3.55905427729715  196.761739276421 3.75264602609275  197.535616553345 3.94623777488835  C 198.696432468732 4.13982952368394  199.857248384118 4.33342127247931  201.211533618736 4.52701302127491  C 202.759288172584 4.72060477007051  203.920104087971 4.91419651886599  205.274389322589 4.91419651886599  C 206.435205237975 5.10778826766159  207.2090825149 5.10778826766159  208.369898430286 5.10778826766159  L 209.917652984135 5.30138001645696  C 210.498060941828 5.30138001645696  211.078468899521 5.49497176525256  211.658876857215 5.49497176525256  C 212.239284814908 5.49497176525256  213.013162091832 5.68856351404816  213.593570049526 5.68856351404816  L 214.754385964912 5.88215526284375  C 215.141324603374 5.88215526284375  215.721732561068 6.07574701163935  216.10867119953 6.07574701163935  C 219.59111894569 6.6565222580258  220.945404180307 7.2372975044126  222.299689414925 7.62448100200356  L 223.073566691849 7.81807275079916  C 223.460505330311 8.01166449959476  224.040913288005 8.20525624839036  224.621321245698 8.39884799718584  C 225.00825988416 8.59243974598144  225.588667841853 8.59243974598144  225.975606480315 8.78603149477681  C 226.556014438009 8.97962324357241  227.329891714933 9.173214992368  227.910299672627 9.3668067411636  C 228.684176949551 9.5603984899592  229.264584907244 9.7539902387548  229.844992864937 9.7539902387548  L 230.038462184169 9.7539902387548  C 230.618870141862 9.94758198755017  231.199278099555 9.94758198755017  231.779686057248 10.1411737363456  C 232.360094014942 10.1411737363456  232.747032653404 10.3347654851412  233.327440611097 10.3347654851412  L 234.875195164946 10.5283572339368  C 236.036011080332 10.7219489827324  237.003357676488 10.9155407315278  238.357642911106 11.1091324803234  C 238.744581549568 11.1091324803234  238.938050868799 11.302724229119  239.324989507261 11.302724229119  C 239.711928145723 11.302724229119  240.098866784185 11.4963159779146  240.485805422647 11.4963159779146  C 241.259682699572 11.6899077267101  242.033559976496 11.8834994755056  242.807437253421 12.0770912243011  L 243.000906572652 12.0770912243011  C 243.387845211114 12.2706829730967  243.774783849576 12.2706829730967  243.968253168807 12.4642747218923  C 244.355191807269 12.6578664706878  244.548661126501 12.6578664706878  244.935599764963 12.8514582194834  C 245.516007722656 13.0450499682788  245.902946361118 13.2386417170744  246.483354318811 13.43223346587  C 247.063762276505 13.6258252146655  247.257231595736 13.8194169634611  247.644170234198 14.0130087122567  C 248.03110887266 14.2066004610521  248.224578191891 14.4001922098477  248.418047511122 14.5937839586433  C 248.998455468816 14.9809674562345  249.385394107278 15.1745592050298  249.965802064971 15.5617427026209  C 250.739679341895 15.9489262002121  251.707025938051 16.3361096978033  252.867841853437 16.9168849441899  C 254.222127088055 17.4976601905765  255.382943003441 17.8848436881675  256.543758918828 18.2720271857587  L 258.091513472677 18.6592106833498  C 258.67192143037 18.8528024321452  259.058860068832 18.8528024321452  259.639268026525 19.0463941809408  L 259.832737345757 19.0463941809408  C 260.41314530345 19.2399859297363  260.800083941912 19.2399859297363  261.380491899605 19.4335776785319  L 261.573961218837 19.4335776785319  C 262.15436917653 19.6271694273275  262.734777134223 19.8207611761229  263.315185091916 20.0143529249185  C 264.541785815424 20.3650320478506  265.768386538932 20.8745193948231  266.994987252364 21.3989794698725  L 267.378040795769 21.3694951664876  L 267.571510115001 21.5630869152832  C 268.13877785935 21.8063555086122  268.638156825692 22.0835899713367  269.083865257313 22.3663358218606  L 270.667019222698 23.1118209056474  L 270.201011640255 23.1476903252604  C 270.364306020673 23.2700598372271  270.519192376516 23.3880641087321  270.667019222698 23.4990044032387  C 271.05395786116 23.6925961520341  271.247427180391 24.0797796496253  271.440896499622 24.2733713984209  C 271.634365818853 24.6605548960118  271.827835138085 24.8541466448074  272.021304457316 25.047738393603  C 272.214773776547 25.2413301423985  272.214773776547 25.4349218911941  272.408243095778 25.6285136399897  C 272.408243095778 25.6285136399897  272.601712415009 25.8221053887851  272.601712415009 25.8221053887851  L 272.988651053471 26.2092888863763  C 273.375589691933 26.5964723839675  273.955997649627 27.1772476303539  275.116813565013 27.7580228767407  C 276.084160161169 28.3387981231273  277.051506757324 28.919573369514  278.212322672711 29.5003486159005  C 279.179669268866 30.0811238622873  280.147015865021 30.2747156110827  281.114362461177 30.8554908574694  C 281.69477041887 31.049082606265  282.275178376563 31.2426743550606  282.855586334257 31.6298578526515  C 283.43599429195 31.8234496014471  283.822932930412 32.0170413502426  284.596810207336 32.4042248478338  C 285.17721816503 32.7914083454248  285.757626122723 32.9850000942204  286.338034080416 33.3721835918116  C 286.724972718878 33.5657753406072  286.91844203811 33.7593670894026  287.111911357341 33.952958838198  C 287.498849995803 34.1465505869936  287.692319315034 34.3401423357892  287.885788634265 34.7273258333804  C 288.466196591958 35.308101079767  288.853135230421 35.6952845773581  289.240073868883 36.0824680749492  C 289.433543188114 36.2760598237446  289.627012507345 36.4696515725402  289.627012507345 36.6632433213358  C 289.820481826576 37.0504268189269  289.820481826576 37.2440185677223  289.820481826576 37.4376103165179  C 290.013951145807 38.2119773117003  289.820481826576 38.9863443068823  289.820481826576 39.3735278044735  L 289.627012507345 40.1478947996557  C 289.627012507345 40.3414865484513  289.627012507345 40.5350782972467  289.627012507345 40.5350782972467  C 289.627012507345 40.7286700460421  289.627012507345 40.9222617948377  289.820481826576 41.1158535436333  L 289.820481826576 41.3094452924289  C 290.013951145807 41.6966287900201  290.013951145807 41.8902205388155  290.207420465038 42.2774040364066  C 290.400889784269 42.6645875339977  290.787828422732 43.0517710315887  291.174767061194 43.4389545291799  C 291.561705699656 43.8261380267711  291.755175018887 44.213321524362  292.142113657349 44.4069132731576  C 292.529052295811 44.7940967707488  293.109460253504 45.3748720171354  293.689868211198 45.7620555147264  C 293.883337530429 45.955647263522  294.07680684966 46.1492390123176  294.463745488122 46.3428307611132  L 294.657214807353 46.5364225099088  C 296.204969361202 47.697973002682  298.139662553513 49.2467069930462  298.720070511206 51.956991476184  C 298.720070511206 52.3441749737751  298.913539830437 52.7313584713661  298.913539830437 52.9249502201617  C 298.913539830437 53.3121337177529  298.913539830437 53.6993172153441  298.720070511206 53.8929089641395  C 298.526601191975 54.4736842105261  298.333131872744 54.8608677081173  298.139662553513 55.4416429545039  C 297.946193234282 55.828826452095  297.55925459582 56.2160099496859  297.172315957358 56.6031934472771  C 296.785377318895 56.7967851960727  296.398438680433 57.1839686936639  296.011500041971 57.3775604424594  C 295.237622765047 57.7647439400504  294.657214807353 58.3455191864372  294.270276168891 58.7327026840284  C 293.496398891967 59.3134779304148  293.109460253504 60.087844925597  292.915990934273 60.8622119207793  C 292.529052295811 61.830170664757  292.529052295811 62.6045376599391  292.529052295811 63.3789046551215  C 292.722521615043 64.1532716503035  292.915990934273 64.9276386454857  293.302929572736 65.7020056406679  C 293.496398891967 66.0891891382589  293.689868211198 66.6699643846457  293.883337530429 67.0571478822369  C 294.07680684966 67.6379231286234  294.07680684966 68.2186983750101  294.07680684966 68.7994736213967  C 294.07680684966 69.3802488677834  293.883337530429 70.1546158629656  293.689868211198 70.7353911093521  C 293.496398891967 71.1225746069432  293.496398891967 71.5097581045344  293.302929572736 71.70334985333  C 293.109460253504 72.090533350921  292.722521615043 72.477716848512  292.529052295811 72.8649003461032  C 290.207420465038 75.7687765780364  287.111911357341 76.7367353220141  284.209871568874 77.5111023171964  L 283.822932930412 77.7046940659919  C 283.43599429195 77.8982858147873  283.049055653488 77.8982858147873  282.468647695795 78.0918775635829  C 281.501301099639 78.2854693123785  280.340485184253 78.6726528099697  279.373138588097 79.0598363075608  C 278.599261311173 79.4470198051517  277.825384034248 79.6406115539473  277.244976076555 80.0277950515385  C 276.2776294804 80.4149785491297  275.503752203475 80.9957537955163  274.729874926551 81.5765290419027  C 273.955997649627 82.1573042882895  273.375589691933 82.5444877858806  272.79518173424 83.1252630322672  L 272.601712415009 83.3188547810628  C 272.021304457316 83.706038278654  271.634365818853 84.2868135250405  271.247427180391 84.6739970226316  C 270.860488541929 85.0611805202228  270.667019222698 85.4483640178138  270.473549903467 86.0291392642005  L 269.699672626542 87.3842815057694  C 269.119264668849 88.3522402497471  268.538856711156 89.5137907425203  267.378040795769 90.6753412352937  C 266.991102157307 91.0625247328848  266.797632838076 91.2561164816802  266.410694199614 91.6432999792713  C 266.023755561152 92.0304834768625  265.443347603458 92.2240752256581  265.056408964996 92.6112587232491  C 264.089062368841 93.1920339696358  262.928246453454 93.7728092160226  261.380491899606 94.5471762112046  C 260.606614622681 94.9343597087956  259.832737345757 95.1279514575912  259.252329388064 95.5151349551824  C 258.478452111139 95.708726703978  257.704574834215 95.9023184527736  257.124166876521 96.095910201569  C 255.769881641904 96.48309369916  254.609065726517 96.6766854479556  253.2547804919 97.0638689455468  C 251.707025938051 97.2574606943424  250.739679341895 97.451052443138  249.578863426509 97.6446441919334  C 248.418047511122 97.838235940729  247.063762276505 97.838235940729  246.096415680349 97.838235940729  C 243.774783849576 98.0318276895244  241.840090657265 98.0318276895244  239.518458826492 98.4190111871156  C 236.616419038026 98.8061946847066  233.907848568791 99.1933781822978  231.005808780324 100.161336926275  C 227.523361034164 101.129295670253  225.00825988416 101.903662665435  223.26703601108 102.678029660618  C 222.880097372618 102.871621409413  222.686628053387 102.871621409413  222.493158734156 103.065213158209  L 221.912750776463 103.258804907004  C 221.525812138 103.4523966558  220.945404180307 103.645988404595  220.558465541845 103.839580153391  C 219.784588264921 104.226763650982  219.010710987997 104.613947148573  218.430303030303 105.001130646164  C 217.462956434147 105.581905892551  216.689079157223 105.969089390142  215.721732561068 106.356272887733  L 215.334793922606 106.549864636529  C 214.560916645681 106.93704813412  213.593570049526 107.324231631711  212.432754134139 107.711415129302  C 209.724183664904 108.67937387328  206.435205237975 109.453740868462  202.372349534123 110.034516114848  L 201.211533618736 110.228107863644  Z M 200.631125661043 106.162681138938  L 200.936599542298 106.66286381092  C 204.394115133329 106.092099238052  207.314888411065 105.353023193312  209.530714345673 104.613947148573  C 210.498060941828 104.226763650982  211.271938218752 104.033171902186  212.045815495677 103.645988404595  L 212.432754134139 103.4523966558  C 213.206631411063 103.065213158209  213.980508687988 102.678029660618  214.560916645681 102.290846163027  L 215.334793922605 103.065213158209  L 214.947855284143 102.290846163027  C 215.721732561068 101.903662665435  216.495609837992 101.516479167845  217.269487114916 101.129295670253  C 217.656425753378 100.935703921458  218.236833711072 100.742112172662  218.623772349534 100.548520423867  L 219.010710987996 100.354928675071  C 219.397649626458 100.161336926276  219.784588264921 99.9677451774801  220.171526903383 99.7741534286845  C 222.299689414925 98.8061946847068  224.814790564929 98.0318276895244  228.49070763032 97.0638689455468  C 231.586216738017 96.2895019503646  234.488256526483 95.708726703978  237.583765634181 95.3215432063868  C 239.905397464954 94.9343597087958  242.227029295727 94.9343597087958  244.355191807269 94.7407679600002  L 244.5486611265 94.7407679600002  C 245.709477041887 94.7407679600002  246.676823638042 94.5471762112046  247.837639553429 94.5471762112046  C 248.804986149584 94.5471762112046  249.77233274574 94.3535844624091  250.933148661126 94.1599927136137  C 252.093964576513 93.9664009648181  253.2547804919 93.7728092160226  254.415596407286 93.3856257184314  C 254.996004364979 93.192033969636  255.769881641904 92.9984422208404  256.350289599597 92.8048504720448  C 256.93069755729 92.6112587232492  257.511105514984 92.4176669744537  258.091513472677 92.0304834768627  C 259.445798707294 91.4497082304759  260.606614622681 90.8689329840894  261.380491899605 90.2881577377027  C 261.767430538068 90.0945659889071  262.15436917653 89.7073824913161  262.541307814992 89.5137907425205  C 262.734777134223 89.3201989937249  262.928246453454 89.1266072449293  263.315185091916 88.933015496134  C 264.282531688072 87.9650567521561  264.669470326534 87.1906897569741  265.249878284227 86.2227310129963  L 266.023755561152 84.8675887714274  C 266.410694199614 84.2868135250407  266.797632838076 83.7060382786542  267.184571476538 83.1252630322674  C 267.764979434231 82.5444877858808  268.345387391925 81.9637125394942  268.925795349618 81.3829372931076  L 269.119264668849 81.189345544312  C 269.699672626542 80.6085702979253  270.473549903467 80.2213868003344  271.247427180391 79.6406115539476  C 272.214773776547 79.059836307561  272.988651053471 78.4790610611743  274.149466968857 78.0918775635831  C 274.923344245782 77.7046940659922  275.697221522706 77.3175105684011  276.664568118862 76.9303270708099  C 277.825384034248 76.5431435732189  278.986199949635 76.1559600756277  280.147015865021 75.7687765780365  L 281.69477041887 75.3815930804457  C 284.209871568874 74.6072260852633  286.724972718878 73.8328590900812  288.659665911189 71.7033498533302  C 288.85313523042 71.316166355739  289.046604549652 71.1225746069434  289.240073868883 70.9289828581481  C 289.240073868883 70.7353911093525  289.433543188114 70.5417993605569  289.433543188114 70.3482076117614  C 289.627012507345 69.9610241141702  289.627012507345 69.5738406165792  289.627012507345 69.186657118988  C 289.627012507345 68.7994736213968  289.627012507345 68.6058818726015  289.433543188114 68.2186983750104  C 289.240073868883 67.8315148774192  289.046604549652 67.444331379828  289.046604549652 67.0571478822371  C 288.659665911189 66.0891891382591  288.272727272727 65.3148221430771  288.079257953496 64.3468633990993  C 287.885788634265 63.1853129063261  287.885788634265 62.0237624135527  288.466196591958 60.6686201719839  C 288.85313523042 59.5070696792106  289.433543188114 58.5391109352329  290.400889784269 57.5711521912552  C 290.981297741962 56.9903769448686  291.755175018887 56.4096016984818  292.529052295811 55.8288264520952  C 292.915990934273 55.6352347032996  293.109460253504 55.441642954504  293.496398891967 55.0544594569132  C 293.689868211198 54.8608677081176  293.883337530429 54.667275959322  294.07680684966 54.4736842105264  C 294.270276168891 54.280092461731  294.270276168891 53.8929089641398  294.463745488122 53.6993172153442  C 294.463745488122 53.5057254665487  294.463745488122 53.3121337177531  294.463745488122 53.1185419689577  C 294.463745488122 53.1185419689577  294.463745488122 52.9249502201621  294.463745488122 52.537766722571  C 294.07680684966 50.7954409834111  292.915990934273 49.6338904906379  291.368236380425 48.6659317466599  L 290.5943591035 48.0851565002735  C 290.013951145807 47.6979730026823  289.240073868883 47.1171977562957  288.659665911189 46.536422509909  C 288.272727272727 46.149239012318  287.885788634265 45.7620555147269  287.498849995803 45.1812802683401  C 287.111911357341 44.7940967707492  286.724972718878 44.2133215243624  286.531503399647 43.6325462779758  C 286.338034080416 43.0517710315892  286.144564761185 42.664587533998  285.951095441954 42.277404036407  C 285.757626122723 41.6966287900202  285.564156803492 41.3094452924294  285.564156803492 40.7286700460426  C 285.564156803492 40.3414865484514  285.564156803492 39.9543030508604  285.757626122723 39.5671195532693  L 285.951095441954 38.7927525580872  C 285.951095441954 38.405569060496  286.144564761185 38.2119773117005  285.951095441954 37.8247938141093  C 285.951095441954 37.8247938141093  285.951095441954 37.6312020653139  285.951095441954 37.6312020653139  C 285.951095441954 37.6312020653139  285.757626122723 37.4376103165183  285.757626122723 37.4376103165183  C 285.564156803492 37.0504268189271  285.17721816503 36.6632433213362  284.790279526568 36.2760598237451  C 284.596810207336 36.0824680749495  284.403340888105 35.8888763261539  284.209871568874 35.6952845773583  C 284.016402249643 35.5016928285627  283.822932930412 35.3081010797673  283.43599429195 35.1145093309717  C 283.049055653488 34.7273258333806  282.468647695795 34.533734084585  282.081709057332 34.3401423357897  C 281.501301099639 33.9529588381985  281.114362461177 33.7593670894029  280.727423822715 33.5657753406073  C 280.340485184252 33.3721835918119  279.760077226559 33.1785918430163  279.179669268866 32.9850000942208  C 278.018853353479 32.5978165966296  277.051506757324 32.0170413502431  276.084160161168 31.6298578526519  C 274.729874926551 31.0490826062654  273.762528330395 30.4683073598786  272.601712415009 29.6939403646965  C 271.247427180391 28.9195733695142  270.473549903467 28.145206374332  270.086611265005 27.7580228767409  L 269.893141945773 27.37083937915  C 269.699672626542 27.1772476303544  269.699672626542 26.9836558815588  269.506203307311 26.9836558815588  C 269.31273398808 26.7900641327632  269.119264668849 26.5964723839676  269.119264668849 26.4028806351721  C 268.925795349618 26.2092888863767  268.925795349618 26.0156971375811  268.732326030387 25.8221053887855  C 268.538856711156 25.6285136399899  268.538856711156 25.4349218911943  268.345387391925 25.4349218911943  C 267.764979434231 25.0477383936034  266.991102157307 24.4669631472167  265.830286241921 23.8861879008301  L 263.717953787356 22.5945012637196  C 263.051836048726 22.3605608306991  262.382476956504 22.1554156217867  261.767430538068 21.9502704128743  C 261.380491899605 21.7566786640787  260.800083941912 21.7566786640787  260.41314530345 21.5630869152832  L 260.219675984219 21.5630869152832  C 259.832737345757 21.3694951664878  259.252329388063 21.3694951664878  258.865390749601 21.1759034176922  L 255.18947368421 20.2079446737145  C 254.028657768824 19.8207611761234  252.674372534206 19.4335776785322  251.126617980358 18.8528024321456  C 249.77233274574 18.2720271857588  248.611516830353 17.8848436881677  247.837639553429 17.3040684417812  C 247.063762276505 16.91688494419  246.676823638042 16.529701446599  246.096415680349 16.3361096978035  C 245.902946361118 16.1425179490079  245.516007722656 15.9489262002123  245.322538403425 15.9489262002123  C 245.129069084194 15.7553344514167  244.935599764962 15.7553344514167  244.5486611265 15.5617427026211  C 244.161722488038 15.3681509538255  243.774783849576 15.1745592050302  243.194375891883 14.9809674562346  C 243.000906572652 14.7873757074391  242.807437253421 14.5937839586435  242.420498614958 14.5937839586435  C 242.227029295727 14.5937839586435  241.840090657265 14.4001922098479  241.453152018803 14.2066004610525  C 240.679274741879 14.0130087122569  239.905397464954 13.8194169634613  239.324989507261 13.6258252146657  L 237.583765634181 13.2386417170746  C 236.422949718794 13.0450499682792  235.262133803408 12.8514582194837  234.488256526484 12.6578664706881  L 232.940501972635 12.4642747218925  C 232.360094014942 12.2706829730969  231.779686057248 12.2706829730969  231.199278099555 12.0770912243013  C 230.618870141862 11.8834994755059  229.844992864937 11.8834994755059  229.264584907244 11.6899077267103  L 229.071115588013 11.6899077267103  C 228.49070763032 11.4963159779147  227.716830353395 11.4963159779147  226.942953076471 11.3027242291192  C 226.169075799547 11.1091324803236  225.395198522622 10.9155407315283  224.814790564929 10.7219489827327  C 224.234382607236 10.5283572339371  223.653974649543 10.3347654851415  223.26703601108 10.3347654851415  C 222.686628053387 10.1411737363459  222.106220095694 9.94758198755051  221.525812138 9.75399023875491  L 220.945404180307 9.56039848995943  C 219.59111894569 8.97962324357263  218.430303030303 8.59243974598166  215.334793922606 8.01166449959487  C 214.947855284144 8.01166449959487  214.560916645681 7.81807275079939  214.173978007219 7.81807275079939  L 213.206631411064 7.62448100200402  C 212.62622345337 7.62448100200402  212.045815495677 7.43088925320842  211.271938218752 7.43088925320842  C 210.691530261059 7.43088925320842  210.304591622597 7.23729750441282  209.724183664904 7.23729750441282  L 208.369898430286 7.23729750441282  C 207.2090825149 7.23729750441282  206.241735918744 7.04370575561722  205.080920003357 7.04370575561722  C 203.72663476874 6.85011400682163  202.372349534122 6.85011400682163  200.824594980274 6.46293050923066  C 199.276840426425 6.26933876043506  197.922555191807 6.07574701163958  196.761739276421 5.88215526284398  C 195.794392680265 5.68856351404838  195.020515403341 5.49497176525279  194.246638126417 5.30138001645741  C 193.859699487954 5.30138001645741  193.472760849492 5.10778826766182  193.08582221103 5.10778826766182  C 192.698883572568 5.10778826766182  192.311944934106 4.91419651886622  191.925006295643 4.91419651886622  C 191.34459833795 4.91419651886622  190.957659699488 4.72060477007062  190.377251741795 4.72060477007062  L 188.829497187946 4.33342127247954  C 188.442558549484 4.33342127247954  188.055619911021 4.33342127247954  187.668681272559 4.13982952368394  C 184.960110803324 3.94623777488835  183.218886930244 3.94623777488835  181.864601695627 3.94623777488835  L 178.769092587929 3.94623777488835  L 177.801745991774 3.94623777488835  C 177.22133803408 3.94623777488835  176.447460757156 3.94623777488835  175.867052799463 3.94623777488835  C 175.093175522538 3.94623777488835  174.319298245614 3.94623777488835  173.54542096869 3.75264602609275  C 172.771543691765 3.75264602609275  172.191135734072 3.75264602609275  171.417258457148 3.55905427729715  L 171.223789137917 3.55905427729715  C 170.643381180223 3.55905427729715  170.06297322253 3.55905427729715  169.482565264837 3.36546252850155  C 168.708687987912 3.36546252850155  168.32174934945 3.36546252850155  167.741341391757 3.36546252850155  L 166.58052547637 3.17187077970618  C 165.806648199446 2.9782790309107  165.032770922522 2.9782790309107  163.871955007135 2.9782790309107  L 162.130731134055 2.7846872821151  C 161.356853857131 2.7846872821151  160.776445899437 2.7846872821151  159.809099303282 2.7846872821151  C 159.42216066482 2.7846872821151  159.035222026358 2.7846872821151  158.648283387896 2.7846872821151  L 157.68093679174 2.7846872821151  C 157.100528834047 2.7846872821151  156.520120876354 2.7846872821151  155.93971291866 2.7846872821151  C 155.359304960967 2.7846872821151  154.972366322505 2.7846872821151  154.585427684043 2.7846872821151  C 154.19848904558 2.7846872821151  153.811550407118 2.7846872821151  153.231142449425 2.9782790309107  C 152.26379585327 2.9782790309107  151.296449257114 3.17187077970618  150.329102660958 3.17187077970618  C 148.974817426341 3.17187077970618  147.620532191723 3.36546252850155  146.072777637875 3.36546252850155  C 144.331553764795 3.36546252850155  142.977268530177 3.36546252850155  141.81645261479 3.36546252850155  L 137.560127591707 3.17187077970618  L 137.560127591707 2.9782790309107  L 137.366658272475 2.9782790309107  L 137.366658272475 3.17187077970618  C 136.979719634013 3.17187077970618  136.592780995551 3.17187077970618  136.205842357089 3.17187077970618  L 136.012373037858 3.17187077970618  C 135.354008470077 3.17187077970618  134.633411252202 3.17187077970618  133.884210526316 3.17187077970618  L 132.142986653236 3.36546252850178  C 130.595232099387 3.36546252850178  129.24094686477 3.55905427729738  128.273600268614 3.75264602609275  C 127.886661630152 3.75264602609275  127.49972299169 3.75264602609275  127.112784353228 3.94623777488835  L 126.919315033996 3.36546252850155  L 126.725845714765 3.36546252850155  L 126.725845714765 3.55905427729715  L 122.856459330143 4.13982952368394  C 121.695643414757 4.33342127247954  120.53482749937 4.52701302127491  118.793603626291 4.52701302127491  C 117.245849072442 4.72060477007051  115.891563837824 4.72060477007051  114.537278603206 4.91419651886599  C 113.37646268782 4.91419651886599  112.409116091664 4.91419651886599  111.441769495509 5.10778826766159  L 109.89401494166 5.10778826766159  C 109.507076303198 5.10778826766159  108.926668345505 5.10778826766159  108.346260387812 5.10778826766159  C 107.765852430118 5.10778826766159  107.185444472425 5.10778826766159  106.411567195501 5.30138001645719  L 105.250751280114 5.49497176525279  C 104.863812641652 5.49497176525279  104.47687400319 5.49497176525279  104.089935364728 5.68856351404816  C 103.122588768572 5.88215526284375  102.542180810879 5.88215526284375  101.768303533955 6.07574701163935  C 101.381364895492 6.07574701163935  101.187895576261 6.26933876043495  100.99442625703 6.26933876043495  L 100.220548980106 6.46293050923043  C 99.2532023839502 6.6565222580258  98.4793251070259 6.8501140068214  97.8989171493326 7.043705755617  L 97.1250398724083 7.2372975044126  C 96.7381012339461 7.43088925320819  96.1576932762529 7.43088925320819  95.7707546377905 7.62448100200379  C 95.1903466800975 7.81807275079939  94.6099387224041 7.81807275079939  94.0295307647109 8.01166449959476  L 93.8360614454798 8.01166449959476  C 93.2556534877864 8.20525624839036  92.6752455300932 8.20525624839036  91.9013682531687 8.39884799718584  C 91.1274909762444 8.59243974598144  90.3536136993201 8.59243974598144  89.5797364223956 8.78603149477703  C 88.9993284647025 8.97962324357241  88.2254511877782 8.97962324357241  87.6450432300848 8.97962324357241  C 86.8711659531605 9.173214992368  85.9038193570051 9.173214992368  85.1299420800806 9.173214992368  L 83.969126164694 9.3668067411636  C 82.0344329723832 9.5603984899592  80.0997397800721 9.7539902387548  77.0042306723748 10.5283572339368  C 76.4238227146816 10.7219489827324  76.2303533954505 10.7219489827324  75.8434147569882 10.7219489827324  L 74.6825988416017 11.1091324803236  C 74.1021908839083 11.3027242291192  73.7152522454462 11.4963159779147  73.1348442877528 11.4963159779147  C 72.7479056492906 11.6899077267101  72.3609670108285 11.6899077267101  72.1674976915974 11.8834994755057  C 71.7805590531352 12.0770912243013  71.587089733904 12.0770912243013  71.200151095442 12.2706829730969  C 70.6197431377486 12.6578664706881  69.8458658608243 12.8514582194834  69.0719885839001 13.2386417170746  C 68.1046419877445 13.6258252146657  66.9438260723579 14.0130087122569  65.3960715185093 14.4001922098479  C 64.0417862838916 14.7873757074391  62.6875010492739 15.1745592050302  61.1397464954251 15.3681509538255  C 59.9789305800385 15.7553344514167  59.0115839838832 15.9489262002123  57.6572987492655 16.1425179490079  C 57.0768907915723 16.1425179490079  56.6899521531101 16.3361096978035  56.1095441954167 16.529701446599  C 55.5291362377235 16.529701446599  54.9487282800302 16.7232931953944  54.5617896415681 16.91688494419  C 53.7879123646436 16.91688494419  53.2075044069504 17.1104766929856  52.627096449257 17.3040684417812  C 52.240157810795 17.4976601905768  51.8532191723327 17.4976601905768  51.6597498531016 17.6912519393721  C 51.2728112146394 17.6912519393721  50.8858725761773 17.8848436881677  50.498933937715 18.0784354369633  C 47.7903634684798 19.046394180941  47.0164861915555 19.6271694273278  46.2426089146312 20.2079446737142  L 45.8556702761689 20.5951281713054  C 45.4687316377067 20.788719920101  45.0817929992446 21.1759034176922  44.5013850415512 21.5630869152832  C 44.114446403089 21.7566786640787  43.7275077646269 21.9502704128743  43.1470998069335 22.3374539104655  C 42.5666918492404 22.5310456592611  41.986283891547 22.918229156852  41.4058759338539 23.1118209056476  C 40.6319986569293 23.4990044032387  40.0515906992362 23.6925961520343  39.4711827415428 23.8861879008297  L 39.2777134223116 24.0797796496253  C 38.6973054646185 24.2733713984209  38.1168975069252 24.6605548960121  37.3430202300008 24.8541466448075  C 36.7626122723077 25.047738393603  36.1822043146143 25.2413301423985  35.6017963569209 25.4349218911941  L 33.8605724838412 26.0156971375807  C 32.8932258876857 26.2092888863763  31.9258792915301 26.5964723839675  30.7650633761438 26.9836558815585  C 30.3781247376816 27.1772476303541  30.1846554184505 27.1772476303541  29.7977167799881 27.3708393791495  C 29.6042474607571 27.5644311279451  29.4107781415262 27.5644311279451  29.0238395030639 27.7580228767407  C 28.4434315453707 27.9516146255363  27.8630235876773 28.3387981231273  27.282615629984 28.7259816207184  C 26.8956769915219 28.919573369514  26.7022076722908 29.1131651183096  26.5087383530597 29.3067568671052  C 26.1217997145974 29.3067568671052  25.9283303953665 29.5003486159007  25.7348610761353 29.6939403646961  C 25.5413917569042 29.8875321134917  25.3479224376731 30.0811238622873  24.9609837992109 30.4683073598784  C 24.7675144799799 30.661899108674  24.7675144799799 30.8554908574696  24.7675144799799 30.8554908574696  C 24.7675144799799 31.049082606265  24.5740451607488 31.2426743550606  24.5740451607488 31.4362661038562  C 24.3805758415177 31.8234496014472  24.3805758415177 32.4042248478338  23.8001678838243 32.9850000942206  C 23.4132292453622 33.7593670894026  22.8328212876689 34.5337340845848  21.6720053722823 35.3081010797671  C 20.704658776127 36.2760598237448  19.5438428607404 37.0504268189269  18.576496264585 37.6312020653137  C 18.3830269453538 37.8247938141093  18.1895576261227 37.8247938141093  17.9960883068916 38.0183855629047  L 17.8026189876605 38.0183855629047  C 17.4156803491984 38.2119773117003  17.2222110299673 38.4055690604958  17.0287417107362 38.4055690604958  C 16.448333753043 38.7927525580869  16.0613951145807 38.9863443068825  15.4809871568874 39.1799360556781  C 14.9005791991942 39.5671195532691  14.5136405607319 39.7607113020647  13.9332326030387 39.9543030508603  C 13.3528246453454 40.3414865484514  12.9658860068831 40.5350782972467  12.7724166876523 40.7286700460423  C 11.8050700914966 41.3094452924291  11.0311928145723 42.0838122876112  10.257315537648 43.0517710315889  L 10.0638462184169 43.4389545291801  L 9.78730665349008 43.4504843291885  C 9.4201519407394 44.0286205235573  9.28996894149236 44.4764913374108  9.28996894149236 44.794096770749  C 9.28996894149236 44.794096770749  9.28996894149236 44.9876885195446  9.48343826072346 44.9876885195446  C 9.67690757995467 45.1812802683401  9.67690757995467 45.3748720171354  9.87037689918577 45.568463765931  C 10.0638462184169 45.7620555147266  10.257315537648 46.1492390123178  10.4507848568792 46.3428307611132  C 10.4507848568792 46.3428307611132  10.6442541761101 46.7300142587044  10.6442541761101 46.9236060075  C 10.6442541761101 47.1171977562955  10.8377234953412 47.3107895050908  10.8377234953412 47.3107895050908  C 11.2246621338035 48.0851565002732  11.0311928145723 49.0531152442509  10.6442541761101 50.4082574858198  C 10.4507848568792 51.5698079785931  9.87037689918577 52.5377667225707  9.09649962226149 53.6993172153441  C 8.51609166456808 54.4736842105264  7.7422143876438 55.2480512057085  6.96833711071929 56.0224182008906  C 6.58139847225721 56.4096016984818  6.19445983379501 56.796785196073  6.00099051456391 57.1839686936639  C 5.8075211953327 57.3775604424594  5.6140518761016 57.7647439400506  5.42058255687073 58.1519274376418  C 5.22711323763951 58.5391109352328  5.03364391840842 58.9262944328239  5.03364391840842 59.313477930415  C 5.03364391840842 59.5070696792104  5.03364391840842 59.700661428006  4.84017459917732 59.8942531768016  C 4.84017459917732 59.8942531768016  4.84017459917732 60.2814366743928  4.84017459917732 60.4750284231884  C 5.03364391840842 61.0558036695749  5.03364391840842 61.4429871671661  5.22711323763951 61.830170664757  C 5.42058255687073 62.0237624135526  5.42058255687073 62.2173541623481  5.6140518761016 62.4109459111437  C 5.6140518761016 62.4109459111437  5.8075211953327 62.6045376599393  6.00099051456391 62.7981294087349  C 6.77486779148819 63.3789046551215  7.5487450684127 63.7660881527126  8.51609166456808 64.1532716503035  L 10.0638462184169 64.9276386454859  C 10.8377234953412 65.3148221430771  11.4181314530346 65.5084138918726  11.9985394107277 65.8955973894635  C 12.578947368421 66.2827808870547  13.1593553261142 66.6699643846457  13.5462939645765 67.2507396310325  L 13.7397632838076 67.444331379828  C 14.1267019222697 67.8315148774192  14.707109879963 68.4122901238057  15.0940485184253 68.9930653701924  C 15.4809871568874 69.573840616579  15.8679257953496 70.3482076117614  16.2548644338119 70.9289828581478  C 16.4483337530428 71.5097581045346  16.835272391505 72.0905333509212  16.835272391505 72.6713085973076  C 17.0287417107362 73.44567559249  16.835272391505 74.2200425876721  16.835272391505 74.9944095828542  C 16.835272391505 75.1880013316498  16.835272391505 75.3815930804454  16.835272391505 75.575184829241  L 16.835272391505 75.7687765780365  C 16.835272391505 77.3175105684008  16.6418030722739 78.6726528099697  19.5438428607404 80.8021620467208  C 19.9307814992025 81.1893455443118  20.3177201376647 81.3829372931074  20.704658776127 81.576529041903  C 21.0915974145892 81.7701207906986  21.4785360530512 81.9637125394939  21.8654746915134 82.1573042882895  C 22.6393519684377 82.5444877858806  23.4132292453622 82.9316712834716  24.3805758415177 83.1252630322674  C 25.154453118442 83.3188547810628  25.9283303953663 83.5124465298584  26.7022076722908 83.706038278654  C 27.4760849492151 83.8996300274496  28.4434315453705 84.0932217762452  29.4107781415262 84.0932217762452  C 31.3454713338369 84.480405273836  33.0866952069169 84.6739970226316  35.0213883992277 85.2547722690184  C 37.3430202300008 85.835547515405  39.664652060774 86.6099145105873  41.986283891547 87.7714650033605  C 44.5013850415512 88.7394237473383  46.4360782338621 89.9009742401115  47.7903634684798 91.0625247328848  C 49.1446487030975 92.0304834768625  50.1119952992528 92.9984422208402  51.0793418954082 93.9664009648179  C 51.4662805338705 94.3535844624091  51.8532191723327 94.9343597087958  52.4336271300259 95.3215432063868  C 52.8205657684882 95.708726703978  53.5944430454125 96.095910201569  54.1748510031058 96.4830936991602  C 54.9487282800302 96.8702771967512  55.9160748761856 97.451052443138  56.8834214723412 97.8382359407291  C 57.4638294300344 98.0318276895244  58.0442373877278 98.4190111871156  58.624645345421 98.6126029359112  C 59.205053303114 98.8061946847068  60.1723998992697 98.9997864335022  60.946277176194 99.1933781822978  C 66.7503567531268 100.742112172662  70.8132124569797 100.935703921458  74.2956602031394 100.935703921458  L 76.8107613531436 100.935703921458  C 77.3911693108367 100.935703921458  77.9715772685301 100.935703921458  78.7454545454544 100.935703921458  C 80.4866784185344 100.935703921458  82.4213716108452 100.935703921458  84.5495341223872 100.935703921458  C 86.097288676236 100.935703921458  87.6450432300848 101.129295670253  89.1927977839334 101.322887419049  C 91.1274909762444 101.516479167844  92.8687148493241 101.71007091664  94.8034080416352 101.903662665435  C 96.544631914715 102.097254414231  98.0923864685637 102.484437911822  99.4466717031813 102.678029660618  L 100.220548980106 102.871621409413  C 101.768303533955 103.258804907004  103.122588768572 103.4523966558  104.47687400319 103.839580153391  C 105.637689918576 104.226763650982  106.798505833963 104.613947148573  107.959321749349 105.001130646164  L 110.861361537816 106.162681138938  C 112.602585410896 106.743456385324  114.537278603206 107.517823380506  117.052379753211 108.098598626893  C 117.632787710904 108.292190375688  118.406664987828 108.485782124484  118.987072945522 108.485782124484  C 119.567480903215 108.67937387328  120.341358180139 108.67937387328  121.308704776295 108.872965622075  C 123.049928649375 109.066557370871  124.984621841686 109.260149119666  127.112784353228 109.453740868462  L 127.306253672459 109.453740868462  C 128.467069587845 109.453740868462  129.24094686477 109.647332617257  130.208293460925 109.647332617257  C 131.17564005708 109.647332617257  132.142986653236 109.647332617257  133.110333249391 109.647332617257  C 134.851557122471 109.647332617257  136.39931167632 109.453740868462  137.947066230169 109.260149119666  C 139.494820784017 109.066557370871  140.655636699404 108.872965622075  141.81645261479 108.67937387328  C 142.977268530177 108.485782124484  144.138084445564 108.292190375688  145.29890036095 107.905006878097  L 145.492369680181 107.905006878097  C 147.814001510954 107.324231631711  150.135633341727 106.93704813412  152.844203810963 106.549864636529  C 156.133182237891 105.969089390142  159.615629984051 105.581905892551  163.678485687904 105.581905892551  C 168.128280030219 105.388314143755  171.610727776379 105.388314143755  174.706236884076 105.581905892551  C 175.28664484177 105.581905892551  175.673583480232 105.581905892551  176.253991437925 105.775497641347  L 176.834399395618 105.775497641347  C 177.414807353311 105.775497641347  178.188684630236 105.969089390142  178.769092587929 105.969089390142  C 179.929908503316 106.162681138938  181.090724418702 106.162681138938  182.251540334089 106.356272887733  L 182.44500965332 106.356272887733  C 183.605825568706 106.549864636529  184.766641484093 106.743456385324  186.120926718711 106.743456385324  L 186.507865357173 106.743456385324  C 187.668681272559 106.93704813412  188.829497187946 106.93704813412  189.796843784101 106.93704813412  L 190.183782422564 106.93704813412  C 193.279291530261 106.93704813412  196.56826995719 106.743456385324  200.050717703349 106.162681138938  L 200.631125661043 106.162681138938  Z M 3.20267940704787 58.9011186908454  C 3.29242004532853 58.8487063044123  3.29242004532853 58.7327026840284  3.29242004532853 58.7327026840284  C 3.2622622385494 58.7930564659862  3.23210443177027 58.8487063039236  3.20267940704787 58.9011186908454  Z M 296.204969361202 51.7633997273887  C 296.204969361202 51.9083662191163  296.204969361202 52.0261940493895  296.204969356226 52.1270442843436  C 296.390011009918 52.0697733265231  296.358059283742 51.9165865269558  296.204969361202 51.7633997273887  Z M 2.90996020612818 59.6014187792384  C 2.92119631210198 59.3809962694111  2.9606207940385 59.2031293704202  3.09895072609766 58.9262944328239  C 2.9564417463356 59.1801340084094  2.93484946815806 59.3328607253263  2.90996020612818 59.6014187792384  Z M 3.09895072609766 61.0558036695749  C 3.09895072609766 60.6686201719838  2.90548140686644 60.2814366743928  2.90548140686644 59.8942531768016  C 2.90548140686644 59.7839046168068  2.90548140686644 59.6892809066168  2.90996020612818 59.6014187792384  C 2.90996020612818 59.795010528034  2.71201208763534 60.0878449255972  2.71201208763534 60.4750284231884  C 2.71201208763534 60.6686201719838  2.71201208763534 60.8622119207793  2.71201208763534 61.0558036695749  C 2.90548140686644 61.6365789159616  2.90548140686644 62.0237624135526  3.09895072609766 62.6045376599393  C 3.29242004532853 62.7981294087349  3.29242004532853 62.9917211575303  3.29242004532853 62.9917211575303  C 3.48588936455963 63.1853129063259  3.67935868379072 63.3789046551215  3.87282800302194 63.5724964039171  C 3.87282800302194 63.5724964039171  4.06629732225304 63.7660881527126  4.25976664148413 63.7660881527126  C 4.06629732225304 63.5724964039171  3.87282800302194 63.1853129063259  3.67935868379072 62.9917211575303  C 3.29242004532853 62.4109459111437  3.09895072609766 61.830170664757  3.09895072609766 61.0558036695749  Z M 295.431092084278 54.8608677081176  C 295.624561403509 54.667275959322  295.624561403509 54.4736842105264  295.81803072274 54.2800924617308  C 296.011500041971 54.0865007129352  296.204969361202 53.6993172153441  296.204969361202 53.3121337177531  C 296.204969361202 53.1185419689575  296.204969361202 52.9249502201619  296.203764143343 52.7342412456926  C 296.198419264071 53.0027462250586  296.169371006847 53.189783731748  296.011500041971 53.5057254665487  C 295.81803072274 53.8929089641396  295.624561403509 54.4736842105264  295.431092084278 54.8608677081176  Z M 221.525812138 100.742112172662  C 221.138873499538 100.935703921458  220.945404180307 100.935703921458  220.558465541845 101.129295670253  C 221.138873499538 100.935703921458  221.332342818769 100.935703921458  221.525812138 100.742112172662  Z M 12.578947368421 68.6058818726013  L 12.3854780491899 68.4122901238057  C 11.9983413847872 68.283162907524  11.6972791185374 68.0679068242408  11.4181314530346 67.8315148774192  L 11.6116007722654 68.0251066262146  C 11.9985394107277 68.4122901238057  12.578947368421 68.9930653701924  12.9658860068831 69.573840616579  C 13.3528246453454 70.1546158629658  13.7397632838076 70.7353911093523  14.1267019222697 71.5097581045346  C 14.3201712415008 72.0905333509212  14.5136405607319 72.4777168485123  14.707109879963 73.2520838436944  C 14.9005791991942 74.0264508388766  14.707109879963 74.8008178340589  14.707109879963 75.3815930804454  C 14.707109879963 75.7687765780365  14.707109879963 75.9623683268321  14.707109879963 76.1559600756277  L 14.707109879963 76.3495518244231  C 14.707109879963 77.8982858147875  14.5136405607319 79.447019805152  17.4156803491984 81.7701207906986  C 17.8026189876605 82.1573042882895  18.1895576261227 82.3508960370851  18.576496264585 82.7380795346762  C 18.963434903047 82.9316712834718  19.3503735415093 83.1252630322674  19.9307814992025 83.3188547810628  C 19.5438428607404 82.9316712834718  19.1569042222782 82.7380795346762  18.576496264585 82.3508960370851  C 15.0940485184253 79.6406115539473  15.0940485184253 77.5111023171964  15.0940485184253 75.7687765780365  L 15.0940485184253 75.575184829241  C 15.0940485184253 75.3815930804454  15.0940485184253 74.9944095828542  15.0940485184253 74.8008178340589  C 15.0940485184253 74.2200425876721  15.2875178376562 73.6392673412854  15.0940485184253 73.0584920948988  C 15.0940485184253 72.6713085973076  14.9005791991942 72.2841250997167  14.707109879963 71.70334985333  C 14.5136405607319 71.1225746069434  14.1267019222697 70.5417993605568  13.7397632838076 69.9610241141702  C 13.3528246453454 69.3802488677834  12.9658860068831 68.9930653701923  12.578947368421 68.6058818726013  Z M 11.4248789511262 67.8239705044197  C 11.2888878722928 67.7021895098837  11.1600403434326 67.5732604448558  11.0311928145723 67.444331379828  C 11.2246621338035 67.6379231286236  11.2246621338035 67.6379231286236  11.4248789511262 67.8239705044197  Z M 213.593570049526 104.807538897369  L 213.980508687988 104.613947148573  C 214.754385964912 104.226763650982  215.528263241837 103.839580153391  216.495609837992 103.258804907004  C 217.061385323845 102.975738149528  217.627160809698 102.589197471175  218.192936295521 102.250480783415  C 217.999566892391 102.328466492884  217.812298534265 102.406452202353  217.656425753379 102.484437911822  C 216.882548476454 102.871621409413  216.10867119953 103.258804907004  215.334793922606 103.645988404595  L 215.141324603374 103.839580153391  C 214.36744732645 104.226763650982  213.593570049526 104.613947148573  212.819692772601 105.001130646164  L 212.432754134139 105.19472239496  C 212.045815495677 105.388314143755  211.465407537984 105.775497641347  210.88499958029 105.969089390142  C 212.045815495677 105.581905892551  212.819692772601 105.19472239496  213.593570049526 104.807538897369  Z M 9.09649962226149 48.2787482490688  L 9.09649962226149 47.8915647514776  C 8.90303030303028 47.697973002682  8.90303030303028 47.697973002682  8.70956098379918 47.3107895050911  C 8.90303030303028 47.697973002682  8.90303030303028 47.8915647514776  8.90303030303028 48.0851565002732  C 9.09649962226149 48.6659317466598  9.09649962226149 49.2467069930465  9.09649962226149 50.0210739882286  C 9.28996894149236 49.2467069930465  9.28996894149236 48.6659317466598  9.09649962226149 48.2787482490688  Z M 290.403354899138 60.2792571472432  C 290.335215040708 60.4128692809503  290.259584975084 60.5356030840341  290.208212204805 60.6670356905917  C 290.27295399789 60.5374702109542  290.33769948514 60.4079084278187  290.403354899138 60.2792571472432  Z M 290.981297741963 70.3482076117612  C 290.787828422732 70.7353911093523  290.787828422732 70.9289828581478  290.594359103501 71.316166355739  C 290.400889784269 71.70334985333  290.013951145807 72.0905333509212  289.820481826576 72.4777168485123  C 289.509625236636 72.9442968037494  289.073901536122 73.4108767589863  288.613625763334 73.7770781955192  C 289.314410946778 73.2723133935208  290.096649700792 72.7269822001658  290.594359103501 71.8969416021256  C 290.787828422732 71.5097581045346  291.174767061194 71.316166355739  291.174767061194 70.9289828581478  C 291.368236380425 70.7353911093523  291.368236380425 70.5417993605568  291.561705699656 70.1546158629658  C 291.755175018887 69.7674323653746  291.755175018887 69.186657118988  291.755175018887 68.7994736213968  C 291.755175018887 68.4122901238057  291.755175018887 68.0251066262148  291.561705699656 67.6379231286236  C 291.368236380425 67.2507396310325  291.174767061194 66.8635561334415  290.981297741963 66.4763726358503  C 290.594359103501 65.5084138918726  290.207420465038 64.7340468966903  290.013951145807 63.7660881527126  C 289.842373407763 62.7359702664969  289.8229589187 61.7058523802812  290.207420465038 60.6686201719838  C 289.820481826576 61.6365789159616  289.627012507345 62.6045376599393  289.820481826576 63.3789046551215  C 290.013951145807 64.1532716503037  290.207420465038 64.9276386454859  290.5943591035 65.7020056406679  C 290.787828422732 66.0891891382591  290.981297741963 66.4763726358503  291.174767061194 67.0571478822369  C 291.368236380425 67.6379231286236  291.368236380425 68.2186983750101  291.368236380425 68.6058818726013  C 291.368236380425 69.1866571189878  291.174767061194 69.7674323653746  290.981297741963 70.3482076117612  Z M 291.561705699656 58.5391109352328  C 291.078806278855 59.0223159402265  290.72983096409 59.6395297999387  290.400889784269 60.2814366743928  C 290.787828422732 59.700661428006  290.981297741963 59.1198861816194  291.561705699656 58.5391109352328  Z M 267.958448753463 85.2547722690184  C 268.345387391925 84.6739970226316  268.538856711156 84.0932217762452  268.925795349618 83.706038278654  C 269.31273398808 83.1252630322674  269.893141945773 82.5444877858806  270.667019222698 82.1573042882898  L 270.860488541929 81.9637125394942  C 271.634365818853 81.3829372931074  272.214773776547 80.8021620467208  272.988651053471 80.4149785491297  C 272.601712415009 80.6085702979253  272.214773776547 80.8021620467208  272.021304457316 80.8021620467208  C 271.247427180391 81.3829372931074  270.473549903467 81.7701207906986  270.086611265005 82.3508960370851  L 269.893141945773 82.5444877858806  C 269.31273398808 82.9316712834718  268.732326030387 83.5124465298586  268.345387391925 84.0932217762452  C 267.958448753463 84.4804052738363  267.764979434231 84.8675887714272  267.378040795769 85.448364017814  L 266.604163518845 86.8035062593829  C 266.023755561152 87.7714650033605  265.443347603458 88.7394237473383  264.282531688072 89.9009742401115  C 264.089062368841 90.0945659889071  263.702123730378 90.4817494864983  263.315185091916 90.6753412352937  C 262.928246453454 90.8689329840893  262.541307814992 91.2561164816804  261.960899857299 91.4497082304759  C 261.380491899605 91.8368917280671  260.606614622681 92.2240752256581  259.832737345757 92.6112587232492  C 261.187022580374 92.0304834768625  262.347838495761 91.4497082304759  263.315185091916 90.8689329840893  C 263.702123730378 90.6753412352937  264.089062368841 90.2881577377027  264.476001007303 90.0945659889071  C 264.669470326534 89.9009742401115  265.056408964996 89.7073824913159  265.249878284227 89.3201989937249  C 266.217224880383 88.3522402497471  266.797632838076 87.3842815057694  267.184571476538 86.6099145105873  L 267.958448753463 85.2547722690184  Z M 56.6899521531101 100.161336926276  C 56.8834214723412 100.161336926276  57.0768907915722 100.354928675071  57.2703601108033 100.354928675071  C 56.8834214723412 100.161336926276  56.496482833879 99.9677451774801  56.1139336774833 99.974658627139  C 56.2948289890057 100.045627912536  56.4856485522367 100.110228704653  56.6899521531101 100.161336926276  Z M 106.024628557039 106.93704813412  L 108.926668345505 108.098598626893  C 109.414652265868 108.293915715727  109.902636186231 108.489232804561  110.415456144263 108.684549893276  C 110.305280298658 108.624256456151  110.196382279775 108.558426745002  110.087484260891 108.485782124484  L 107.185444472425 107.324231631711  C 106.798505833963 107.130639882915  106.411567195501 106.93704813412  106.024628557039 106.93704813412  Z M 49.9185259800217 96.4830936991602  C 50.498933937715 97.0638689455468  51.2728112146394 97.451052443138  51.8532191723327 97.8382359407291  C 52.5777831381982 98.3820027993075  53.4719453582977 98.7560640799667  54.5357058284229 99.2782028458174  C 54.0431100259723 99.0086918254742  53.6003762188149 98.7138515062949  53.2075044069504 98.4190111871156  C 52.4336271300259 98.0318276895244  51.6597498531016 97.451052443138  51.0793418954084 96.8702771967512  C 50.498933937715 96.4830936991602  50.1119952992528 95.9023184527736  49.7250566607908 95.5151349551826  C 48.7577100646351 94.5471762112046  47.9838327877109 93.579217467227  46.6295475530932 92.8048504720448  C 45.4687316377067 91.8368917280671  44.114446403089 90.8689329840893  42.1797532107781 90.0945659889071  C 43.5340384453958 90.6753412352937  44.5013850415512 91.4497082304759  45.4687316377067 92.2240752256581  C 46.8230168723243 93.192033969636  47.5968941492487 93.9664009648181  48.564240745404 95.1279514575914  C 48.9511793838662 95.5151349551826  49.3381180223286 96.095910201569  49.9185259800217 96.4830936991602  Z " fill-rule="nonzero" fill="#6633ff" stroke="none" transform="matrix(1 0 0 1 786 604 )" />
  </g>
</svg>