<?xml version="1.0" encoding="utf-8"?>
<svg version="1.1" xmlns:xlink="http://www.w3.org/1999/xlink" width="461px" height="104px" xmlns="http://www.w3.org/2000/svg">
  <g transform="matrix(1 0 0 1 -8 -141 )">
    <path d="M 461 104  L 461 0.424714506880491  C 461 0.424714506880491  444.040225265804 13.2610299868918  440.200651630965 22.1619421623575  C 434.222455375686 36.0183621838269  429.413041250182 83.9532746074301  420.291567096951 83.6632448848586  C 413.114747466029 83.4382218242431  407.852741111549 42.4590222298941  400.69084210356 41.4739212756431  C 393.546350488993 40.4938208338504  384.031966598519 68.7417157098084  378.451653621461 77.762640184269  C 374.224143790356 84.5933402020703  363.685210458461 101.405063086293  358.850928628069 96.4595562652053  C 347.334694494042 84.6733484014003  350.771411309681 10.2257189248089  338.747875995922 0.704743204535589  C 333.570419838063 -3.39567701112856  323.399528538523 14.5161586138815  319.020325707597 21.4218663185547  C 313.83789600876 29.5977041875922  305.086950658374 53.2701301643642  298.53928396114 54.7702839018023  C 293.535901737503 55.9204017671714  284.456702682584 40.9738700298303  279.440886606502 41.8839632972094  C 273.828245613089 42.8990673262092  264.629681574703 58.2906446723234  259.588997793733 63.3611643048639  C 254.976038536851 68.0016398660057  244.9643005486 76.9975617781756  239.861447505408 75.4874070158214  C 234.189124020261 73.8122353423491  225.187014850497 55.7953889557182  219.507231053884 54.2652321435314  C 214.575965174425 52.9350958296698  204.897454431684 60.5808793781455  200.157669879869 63.6111899277703  C 195.208996606988 66.7765143137647  185.366359011981 75.5024085531959  180.178955772167 75.0423614070482  C 175.01890700773 74.5873147733587  165.544311445078 63.8012094011792  160.389236221619 63.1061381694994  C 155.430615866783 62.4360695001105  144.876761911954 68.051644990587  140.505019392494 63.2961576429084  C 134.188622350726 56.4204530129841  127.802595735269 23.7771076863323  120.715299841947 21.4168658060967  C 115.540330454578 19.696689520501  105.78721659717 37.1534785118215  100.736585734245 34.3031864106892  C 94.5718816922987 30.8228297398332  87.4423107006652 3.38501788209146  81.1358607408527 1.1397877883926  C 75.6624788948167 -0.810412070276925  64.9594187106555 12.9760007767786  61.3138131739499 21.4168658060967  C 55.2460931810704 35.4683058134328  50.5883720553887 84.428323290952  41.3350990662475 84.0782874188833  C 34.0911366321253 83.8032592336863  28.7197123761335 41.0138741294954  21.483210253478 41.6339376743031  C 12.8391960341135 42.374013518106  0 96.2095306422989  0 96.2095306422989  L 0 104  L 461 104  Z " fill-rule="nonzero" fill="#1890ff" stroke="none" fill-opacity="0.298039215686275" transform="matrix(1 0 0 1 8 141 )" />
  </g>
</svg>