<?xml version="1.0" encoding="utf-8"?>
<svg version="1.1" xmlns:xlink="http://www.w3.org/1999/xlink" width="454px" height="153px" xmlns="http://www.w3.org/2000/svg">
  <defs>
    <linearGradient gradientUnits="userSpaceOnUse" x1="230.736286542799" y1="162.67952856106" x2="223.263713457201" y2="-9.67952856105876" id="LinearGradient1953">
      <stop id="Stop1954" stop-color="#0000cc" stop-opacity="0" offset="0" />
      <stop id="Stop1955" stop-color="#0066ff" stop-opacity="0.498039215686275" offset="1" />
    </linearGradient>
  </defs>
  <g transform="matrix(1 0 0 1 -1297 -926 )">
    <path d="M 268.151942117288 44.958872810358  L 453.874714394516 152  L 169.007996953541 152  L 0.928027418126248 0.722772277227733  L 350.341584158416 1.49733434881952  L 424.26923076923 35  L 269.787128712871 35  C 267.721629855293 33.5986290936786  265.397943640518 32.8240670220868  263.074257425742 32.1355674028941  C 260.664508758568 31.4470677837015  258.254760091394 30.8446306169079  255.75894897182 30.4143183549124  C 253.263137852247 29.8979436405179  250.767326732673 29.5536938309216  248.357578065499 29.2955064737243  C 245.947829398324 29.037319116527  243.624143183549 28.8651942117289  241.386519421173 28.8651942117289  C 238.718583396801 28.8651942117289  236.480959634425 29.1233815689261  234.759710586443 29.4676313785225  C 233.12452399086 29.8979436405179  231.919649657273 30.4143183549124  231.31721249048 31.1028179741051  C 230.714775323686 31.7913175932978  230.714775323686 32.6519421172887  231.31721249048 33.5986290936786  C 231.919649657273 34.5453160700686  233.12452399086 35.5780654988576  235.01789794364 36.6968773800457  C 236.825209444021 37.8156892612338  239.062833206397 38.8484386900229  241.64470677837 39.7951256664128  C 244.226580350343 40.7418126428027  247.066641279512 41.6024371667936  249.992764661081 42.3769992383854  C 253.004950495049 43.1515613099772  256.103198781416 43.7539984767708  259.201447067783 44.1843107387662  C 262.299695354151 44.6146230007616  265.311881188119 44.958872810358  268.151942117288 44.958872810358  Z " fill-rule="nonzero" fill="url(#LinearGradient1953)" stroke="none" transform="matrix(1 0 0 1 1297 926 )" />
  </g>
</svg>