<?xml version="1.0" encoding="utf-8"?>
<svg version="1.1" xmlns:xlink="http://www.w3.org/1999/xlink" width="3000px" height="2198px" xmlns="http://www.w3.org/2000/svg">
  <g transform="matrix(1 0 0 1 877 941 )">
    <path d="M 2935.46407716735 534.820841625449  L 2953.81666051244 491.957900260276  L 2948.4437002568 486.584940004642  L 2977.66294479306 457.365695468383  L 2971.80702181782 426.757933113252  L 2999.93960023496 400  L 2949.59073671587 400  L 2908.05594282962 422.350898296833  L 2895.49891211982 416.072382941934  L 2877.99151353405 433.579781527709  L 2874.06744143724 429.655709430897  L 2869.78114730072 433.942003567415  L 2873.70521939753 437.866075664226  L 2864.52892772499 447.042367336771  L 2801.01933009659 452.777549632111  L 2779.2256373743 420.117195718648  L 2791.42044604439 407.922387048556  L 2773.00749235935 383.412029028471  L 2787.01341122797 363  L 2758.45824043117 363  L 2715.77641008585 319.721320380221  L 2697.42382674076 325.818724715267  L 2673.45680178024 307.828363409884  L 2643.81496486432 313.744656725077  L 2627.63571375747 292.192445362589  L 2634.15571047217 260  L 2620.99497636286 260  L 2615.19942372757 219.023593342039  L 2597.6920251418 201.516194756265  L 2604.4535032163 182  L 2590 182  L 2590 146.941407440608  L 2574.08722222098 124.061048599198  L 2581.21092233519 116.937348484987  L 2568.11055856583 110.356981430333  L 2573.78537052122 99.0073575195549  L 2554.70834309672 79.9303300950553  L 2548.30908706192 55  L 2536 55  L 2536 32.0566505139534  L 2527.84354181855 41.1122015065955  L 2517.03725096733 30  L 2481.17726903647 30  L 2467.95616458721 10.4440688115142  L 2461.13431617275 17.2659172259712  L 2438.13321665144 0  L 2340.3332659309 12.2551790100424  L 2339.30697015174 12.3759196899443  L 2338.58252607233 13.1003637693557  L 2317.15105538974 23.6048029208207  L 2310.63105867504 17.0848062061184  L 2258.71256631722 62.5436721891822  L 2266.07774779124 85  L 2289.80329139196 85  L 2295.23662198755 122.793271460228  L 2251.89071790277 166.139175545009  L 2258.53145529737 172.779912939613  L 2247.6647941062 194.573605661906  L 2228.3462853219 213.892114446209  L 2234.6248006768 226.449145156006  L 2214.64221815303 260  L 2227.86332260229 260  L 2223.39591744592 273.236158617991  L 2212.7103672746 284  L 2188.86408299398 284  L 2147.26891876777 313.623916045175  L 2097.52375864819 288.751335985385  L 2054.54007660312 411.544607445613  L 2042 417.883493140463  L 2042 439.133852803196  L 2063.0522945362 460.263471786028  L 2082.1293219607 441.186444361528  L 2136.46262791655 453.260512351718  L 2160.61076389693 429.112376371339  L 2188.32074993442 434.666447646826  L 2241.44664909125 487.79234680366  L 2252.19256960252 526  L 2221.22258520768 526  L 2208.96740619764 513.208259923009  L 2165.19890973321 519.486775277908  L 2147.26891876777 531.07788054849  L 2133.62522193886 524.256032134033  L 2127.16559556411 544  L 2103.56079264329 544  L 2078.74858292345 580.823040668072  L 2043.7337857519 613  L 2001.17269608648 613  L 1970.5045633914 646.868192574409  L 1947.80531556984 658.217816485187  L 1913.2734811179 652.482634189847  L 1888.88386377772 635  L 1861.53609977994 635  L 1842.27796133558 691.964836517767  L 1865.8827642564 727.341855729022  L 1850.12610552921 743.09851445622  L 1825.97796954883 749.135548451315  L 1777.68169758807 797.431820412073  L 1712.60247112095 815.180700357652  L 1652.05102015015 809.143666362557  L 1548.69699815412 851.704756027975  L 1530.82737752864 869.272524953701  L 1509.69775854581 863.959935038018  L 1503.53998387081 851.644385688024  L 1442.20371848065 845.486611013027  L 1411.89780782527 828  L 1388.17226422455 828  L 1364.02412824417 805  L 1236.34085924792 805  L 1153.75423419502 785.478493101785  L 1153.45238249527 784.693678682423  L 1116.74721580509 790.791083017468  L 1081.91352965339 738.570738959898  L 1075.51427361859 707  L 1065.13057514703 707  L 1071.16760914212 691  L 1037.78281114925 691  L 971.375437203207 643  L 910.522134532651 643  L 872.971783083162 627.670424470007  L 867.357341467723 633.284866085445  L 849.246239482439 621.210798095255  L 845.624019085382 624.833018492313  L 840.734021549355 595.37229259625  L 852.928830219447 570.982675256067  L 847.072907244205 553.475276670292  L 858.965864214542 541.582319699955  L 852.626978519692 509.827520885756  L 801.855522620945 433.217559488003  L 795.335525906242 439.737556202705  L 778.00923834032 422.411268636783  L 760.622580434447 428.206821272074  L 753.861102359941 414.744235463013  L 747.824068364846 420.781269458108  L 737.138518193528 399.349798775521  L 707.31557025776 387.396471465233  L 694.335947168306 335.417608767467  L 679.726324900176 350.027231035597  L 655.578188919797 343.990197040502  L 641.632640391128 357.935745569171  L 635.655976735984 387.81906384489  L 620.020058688689 398.202762316453  L 607.583768658794 391.984617301506  L 580.779337720573 418.789048239727  L 592.913776050713 479.52161023038  L 582.047114859543 495.821602017136  L 553.431573722793 507.291966607816  L 500.36604490591 501.375673292624  L 461.4875459775 481.936423828418  L 424.118305547863 593.802663757525  L 423.93719452801 608.1104343259  L 440.780519374325 624.953759172214  L 438.063854076532 627.670424470007  L 390.492026195185 615.77746749967  L 349.198713668736 633.465977105298  L 342.497605934181 626.764869370743  L 330.423537943991 638.838937360933  L 323.903541229289 632.31894064623  L 307.905401142288 656.346335946708  L 336 669.084477676357  L 336 710.196679182953  L 352 746.418883153522  L 352 767.669242816256  L 330.846130323648 774.551461570664  L 338.211311797664 781.91664304468  L 324 798.759967890994  L 324 840.294761777247  L 238.66062121855 875.732151328453  L 220.489148893315 894  L 207 894  L 207 905.132506884564  L 171.951395572753 899.336954249273  L 141.585114577426 949  L 109.226612363718 949  L 102.344393609309 927.228051306612  L 88.1573637208367 941.415081195084  L 68 934.653603120578  L 68 948  L 57.4288606858042 948  L 40.5855358394897 964.71803241615  L 34.5485018443949 958.680998421055  L 14 979.810617403887  L 14 1003  L 0.318519092207225 1003  L 21.0255456953826 1071.33205276952  L 35.2729459238062 1057.0846525411  L 62.1981175419292 1067.83057305237  L 73.4873711127564 1112.98758733568  L 66.5447820183972 1119.93017643004  L 77.7736652492736 1131.15905966091  L 37.989611221599 1151.02090150478  L 92 1164.48348731384  L 92 1177  L 105.725132646563 1177  L 121.602532053662 1193.09902845059  L 115.565498058567 1211.21013043587  L 135.004747522773 1230.64937990008  L 191.149163677154 1255.82381165962  L 219.462853114149 1250.14899970423  L 231.114328724682 1296.75490214636  L 265.223570796967 1319.51452030787  L 249 1335.87488243458  L 249 1362.37746167304  L 279 1398.59966564361  L 279 1420.39335836591  L 270.838012412406 1428.60372459923  L 258.763944422216 1404.45558861886  L 237 1426.430392361  L 237 1440.97964428918  L 258 1459.09074627446  L 258 1495.31295024503  L 275.245047228825 1515.6577548085  L 293.356149214109 1509.62072081341  L 324.326133608946 1540.59070520824  L 330.96687100355 1533.94996781364  L 352.760563725842 1544.81662900481  L 379.504624324112 1571.56068960308  L 392.423877073615 1545.72218410407  L 418.624604612326 1550.97440367981  L 424.661638607421 1569.02513532514  L 449 1574.88105830038  L 449 1587  L 461.970508697107 1587  L 493.000863431894 1618.64955476482  L 511.715668816689 1606.15289439497  L 518.477146891195 1609.53363343223  L 513.285297655413 1614.72548266801  L 546.911577008091 1648.35176202069  L 563.694531514455 1642.73732040525  L 569.73156550955 1666.88545638563  L 589.170814973755 1660.42583001088  L 613.560432313938 1684.81544735106  L 638.191531013925 1672.49989800107  L 667.652256909987 1690  L 693.249281049189 1690  L 724.340006123928 1683.9098922518  L 735.508519014853 1672.74137936087  L 743.59814456828 1676.78619213758  L 737.561110573185 1706.97136211306  L 744.020736947936 1710.17099013046  L 744.020736947936 1716.08728344565  L 739.734442811419 1720.37357758217  L 744.020736947936 1720.37357758217  L 744.020736947936 1721.52061404124  L 747.522216665091 1720  L 762.131838933221 1720  L 762.131838933221 1715.48358004614  L 769.436650067286 1713.0687664481  L 762.795912672681 1699.84766199885  L 796.241081005506 1666.40249366602  L 842.062169028276 1677.8728582567  L 855.70586585719 1691.51655508561  L 867.17623044787 1680.04619049493  L 884.200666314037 1708  L 895.429549544914 1708  L 901.52695387996 1744.8235652623  L 977.714322898056 1738.6657905873  L 1014.05726754853 1702.32284593683  L 1043.33688242474 1696.46692296159  L 1064 1683.06470749248  L 1064 1671.7150835817  L 1085.3546390306 1666  L 1108.05388685215 1666  L 1145.18164592199 1697.25173738095  L 1167.09607932418 1682.64211511282  L 1160.93830464918 1664.10842074788  L 1172.58978025972 1652.45694513735  L 1172.58978025972 1660.18434865107  L 1175.54792691731 1660.24471899102  L 1185.93162538888 1660.42583001088  L 1186.35421776853 1661.27101477019  L 1197.1001382798 1695.01803480277  L 1215 1712.76691474835  L 1215 1700.69284675816  L 1227 1712.76691474835  L 1227 1759.07096549072  L 1214.48679618567 1783.94354555051  L 1219.85975644131 1794.68946606178  L 1197.28124929965 1805.97871963261  L 1191.54606700431 1823  L 1179 1823  L 1179 1847  L 1165.40570980555 1847  L 1178.20422187515 1885.78830904776  L 1165.3453394656 1898.64719145732  L 1175.36681589746 1908.66866788917  L 1200.78272901681 1889  L 1223.18012513861 1889  L 1219.79938610136 1891.4027506632  L 1232.23567613125 1916.33570106294  L 1225.11197601704 1923.45940117716  L 1261.33417998761 1947.60753715754  L 1250.34677811654 1958.59493902861  L 1256.68566381139 1971.27271041831  L 1243.10233732242 1996  L 1282.16194727069 1996  L 1294.23601526088 2028  L 1321.34229789885 2028  L 1337.09895662605 2018.12009422024  L 1348.56932121673 2046  L 1380 2046  L 1380 2006.58935928961  L 1366.01634946256 1988.96122002394  L 1370.72523597873 1974.77419013546  L 1400.9104059542 1980.81122413056  L 1407.12855096915 1962.21715942567  L 1415.76150958214 1962.21715942567  L 1435.14038870639 1981.59603854992  L 1454.51926783065 1960  L 1515.07071880145 1960  L 1539.21885478182 1932.03198945019  L 1548.57625747422 1932.03198945019  L 1551.59477447177 1935.05050644774  L 1572.96587481441 1956.42160679037  L 1603.15104478988 1950.38457279528  L 1611.96511442272 1959.19864242812  L 1607.5580796063 1963.60567724454  L 1599.95141677248 1986  L 1613 1986  L 1613 2004  L 1626.9973290705 2004  L 1644.98769037589 2022.46675869671  L 1702.46025400919 2028.86601473151  L 1708.07469562463 2017.63713150064  L 1725.76320523025 2026.51157147343  L 1717.55283899693 2034  L 1737.83727322044 2034  L 1754.68059806676 2023.49305447588  L 1761.86466852092 2030.67712493004  L 1752.32615480867 2054.58377955062  L 1751.84319208906 2055.61007532978  L 1765.00392619837 2095  L 1792.59317155595 2095  L 1807.68575654369 2079.99969266997  L 1797.36242841208 2069.67636453835  L 1797.36242841208 2064.90710768223  L 1792.59317155595 2064.90710768223  L 1788.30687741944 2060.62081354571  L 1788.30687741944 2051.32378119326  L 1796.27576229296 2045.58859889793  L 1805.2105726057 2040.09489796239  L 1808.34983028315 2037.68008436435  L 1811.06649558095 2034.420086007  L 1871.25572451204 2022.40638835676  L 1883.08831114243 2008  L 1918.04273797402 2008  L 1924.07977196912 2010.57380172637  L 1930.11680596421 2010.57380172637  L 1931.38458310318 2010.57380172637  L 1946.47716809092 1995.48121673864  L 1951.24642494705 1995.48121673864  L 1951.24642494705 1989.7460344433  L 1955.77420044337 1966.98641628179  L 1962.41493783797 1976.9475223737  L 1954.68753432425 1984.67492588742  L 1963.32049293724 1987.57270220506  L 1963.32049293724 1992  L 1977.93011520537 1992  L 1979.92233642375 1993.12677348055  L 1980.88826186296 1991.25529294207  L 1987 1984.67492588742  L 1987 1995.96417945825  L 1993.143440873 1979.00011393203  L 1996.1015875306 1976.04196727443  L 1999.54269690781 1972.60085789723  L 1999.54269690781 1966.56382390213  L 2008.59824790045 1975.61937489478  L 2026.70934988573 1957.50827290949  L 2038.78341787592 1969.58234089968  L 2052.12526300508 1954  L 2088.46820765555 1954  L 2088.70968901536 1956.24049577052  L 2089.49450343472 1955.0330889715  L 2119.49856239034 1920  L 2136.58336859646 1920  L 2175.03927514521 1881.5623852512  L 2170.14927760918 1866.89239264312  L 2191.27889659202 1872.14461221885  L 2209.3899985773 1837.61277776691  L 2210.05407231676 1835.43944552867  L 2216.57406903146 1835.43944552867  L 2218.38517922999 1837.49203708701  L 2228.3462853219 1829.40241153358  L 2227.07850818293 1829.40241153358  L 2228.88961838146 1827.71204201495  L 2228.88961838146 1818.53575034241  L 2244.76701778856 1823.84834025809  L 2260.28219515595 1808.3331628907  L 2249.17405260498 1797.22502033972  L 2247 1801.63205515614  L 2247 1779.47614039415  L 2260.70478753561 1765.77207322528  L 2254.78849422041 1761.60651976867  L 2257.3844188383 1761.54614942872  L 2258.16923325767 1762.33096384808  L 2258.95404767703 1761.54614942872  L 2259.67849175644 1761.54614942872  L 2259.67849175644 1760.88207568925  L 2272.35626314614 1748.20430429956  L 2266.31922915104 1742.16727030446  L 2279.35922258045 1729.12727687506  L 2280.50625903952 1731.42134979319  L 2282.80033195765 1725.7465378378  L 2288.95810663265 1719.58876316281  L 2294.99514062775 1695.44062718243  L 2304.95624671965 1685.47952109052  L 2319.44512830788 1692.72396188463  L 2319.44512830788 1683.06470749248  L 2322.46364530543 1680.04619049493  L 2324.57660720371 1677.93322859665  L 2343 1658.9165715121  L 2343 1623.5999226408  L 2361 1617.5628886457  L 2361 1589.36993988861  L 2352.58844494095 1584.84216439229  L 2374.683989363 1570  L 2353.73548140002 1570  L 2315.52105621107 1537.33070685089  L 2340.69548797061 1522.23812186316  L 2379.99657927868 1541.85848234721  L 2356.87473907747 1518.736642146  L 2363.09288409241 1512.51849713105  L 2330.73438187871 1483  L 2362.4891806929 1483  L 2355.30511023874 1456.73630301638  L 2307 1414.77891675047  L 2307 1392.01929858896  L 2276.4614462628 1317.46192874954  L 2222.79221404641 1287.63898081377  L 2222.79221404641 1278.58342982113  L 2225.81073104396 1275.56491282358  L 2234.8662820366 1273.75380262505  L 2234.8662820366 1266.50936183094  L 2276.15959456305 1225.21604930449  L 2278.57440816109 1223.16345774616  L 2278.39329714123 1222.98234672631  L 2311.59698411425 1189.77865975328  L 2358.86696029585 1165.87200513271  L 2378.66843179976 1172.45237218736  L 2393.03657270808 1129  L 2331 1129  L 2331 1118.17943657146  L 2292.39921600985 1105.13944314206  L 2262.21404603438 1112.68573563592  L 2269.5792275084 1120.05091710994  L 2247 1136.95461229621  L 2247 1147  L 2227.38035988268 1147  L 2211.26147911578 1126.08795110503  L 2215.60814359225 1117  L 2225.81073104396 1117  L 2231.4251726594 1117.33425181215  L 2215.48740291235 1093.42759719157  L 2173.04705392683 1087.39056319648  L 2161.81817069595 1073.92797738742  L 2165.0781690533 1069  L 2150 1069  L 2150 1057.62798560066  L 2150.40817644522 1049.17613800753  L 2163.75002157438 1035.83429287837  L 2159.04113505821 1031.12540636219  L 2168 1027.92577834479  L 2168 1038.0076251166  L 2192 1046.03688033008  L 2192 1033  L 2209.2692578974 1033  L 2228 1006.67541868206  L 2228 989.409501456088  L 2253.03775436183 977.335433465899  L 2289 959.284701820565  L 2289 946.606930430866  L 2311.83846547406 924.028423289211  L 2345.58548550664 918.413981673773  L 2366.71510448947 939.543600656605  L 2311.71772479416 1006.73578902201  L 2331 1016.63652477397  L 2331 1028.58985208425  L 2328.50067930052 1025.57133508671  L 2313 1040.66392007444  L 2313 1059.55983647909  L 2419.96174432621 991  L 2456.18394829678 991  L 2478.09838169897 976.007285986978  L 2471.57838498427 969.487289272275  L 2481.11689869652 959.888405220074  L 2536.77835213129 921.37212833137  L 2536.77835213129 922.458794450486  L 2540.2194615085 919.017685073283  L 2559.59834063275 905.615469604173  L 2567.80870686608 891.428439715699  L 2585 874.222892829679  L 2585 863.054379938754  L 2590.26647332783 861.303640080176  L 2610.79238891115 881.829555663499  L 2655.52681081481 888.228811698299  L 2670.31754410279 873.438078410317  L 2653.71570061628 847  L 2698.38975217998 847  L 2716.13863212556 816.206996136818  L 2735.39677056991 822.606252171619  L 2741.43380456501 780.347014205955  L 2754 784.572938002522  L 2754 795.741450893447  L 2782.06304335199 823.753288630687  L 2772.88675167945 796.224413613054  L 2801.743774176 784.693678682423  L 2805.30562423311 774.008128511106  L 2807.901548851 772.257388652528  L 2815.20635998506 750.403325590285  L 2813.39524978653 749.739251850824  L 2813.87821250614 748.290363692002  L 2824.20154063775 744  L 2812 744  L 2812 710.196679182953  L 2814.48191590565 709.713716463346  L 2796.55192494022 655.8633732271  L 2801.20044111644 647  L 2818.94932106202 647  L 2836.51708998775 623.142648973686  L 2890.54854424385 647.170044274164  L 2899 638.778567020981  L 2899 614.992653080309  L 2916.4474200828 603.341177469775  L 2941.50111116244 546.894909615639  L 2935.46407716735 534.820841625449  Z M 1209 913.644724817648  L 1174.03866841854 878.690297986049  L 1185.38829232932 867.34067407527  L 1156.53126983277 792.239971176291  L 1235.31456346875 811  L 1361.48857396623 811  L 1385.63670994661 834  L 1410.20743830665 834  L 1439.66816420271 850.919941608613  L 1499.615911774 857.198456963511  L 1505.5322050892 869.031043593897  L 1532.69885806712 875.792521668403  L 1551.59477447177 856.896605263757  L 1652.95657524941 815.180700357652  L 1712.60247112095 821.157364012796  L 1713.14580418051 821.217734352747  L 1780.88132560547 802.744410327756  L 1829.17759756623 754.448138366998  L 1853.32573354661 748.411104371903  L 1873.79127878998 727.945559128532  L 1849.09980975004 690.87817039865  L 1866.06387527626 640  L 1887.01238323924 640  L 1910.91903785981 657.915964785432  L 1948.83161134901 664.254850480281  L 1973.88530242865 651.758190110435  L 2004.13084274408 619  L 2046.08822900998 619  L 2083.15561773987 584.928223784736  L 2107.00190202049 550  L 2131.69337106043 550  L 2137.30781267587 532.587139047264  L 2147.81225182733 537.839358622996  L 2166.82890891188 525.161587233297  L 2206.91481463931 519.426404937957  L 2218.80777160965 532  L 2260.28219515595 532  L 2246.87997968684 484.471978106358  L 2191.33926693196 428.931265351486  L 2158.6789130185 422.411268636784  L 2134.53077703812 446.559404617163  L 2080.19747108227 434.485336626973  L 2063.0522945362 451.630513173042  L 2048 436.537928185305  L 2048 421.56608387747  L 2059.4904444791 415.83090158213  L 2101.02523836535 297.142813238566  L 2147.87262216728 320.566505139534  L 2190.79593387241 290  L 2215.24592155254 290  L 2228.7085073616 276.435786635391  L 2236.31517019542 254  L 2225.3881386643 254  L 2241.6277601111 226.630256175859  L 2235.83220747581 215.039150905277  L 2252.43405096232 198.437307418766  L 2266.01737745129 171.572506140594  L 2260.5840468557 166.139175545009  L 2301.75661870225 124.966603698462  L 2295.11588130764 79  L 2270.54515294761 79  L 2265.83626643144 64.4755230676126  L 2310.51031799514 25.4159131193489  L 2316.06438927062 30.9699843948363  L 2332.24364037748 22.8803588414094  L 2343.4121532684 45.1570142833091  L 2318.84142490837 81.9829216533874  L 2346.85326264561 109.994759390627  L 2364.96436463089 91.883657405343  L 2381.80768947721 108.726982251658  L 2391.46694386936 108.726982251658  L 2385.97324293382 136.195486929339  L 2405.23138137817 184  L 2500 184  L 2500 167.708804383734  L 2515.16577042885 158.109920331533  L 2548.61093876168 202.663231215332  L 2507.13651521537 291.588741963079  L 2506.77429317567 292.373556382441  L 2512.63021615091 339.40205120423  L 2489.02541323009 351.234637834616  L 2478.70208509848 413.174606624289  L 2468.80134934652 383.412029028471  L 2430.04359109801 429  L 2418.27137480758 429  L 2380.53991233824 460.142731106126  L 2373.65769358383 480.849757709301  L 2398 505.420486069337  L 2398 518.098257459036  L 2413.92471033111 525.946401652659  L 2429.68136905831 510.189742925462  L 2426.66285206076 507.171225927915  L 2429.25877667865 507.171225927915  L 2433.72618183502 520.513071057074  L 2403.7221228794 532.526768707313  L 2410.48360095391 559.693421685239  L 2388.26731585196 590.784146759978  L 2345.16289312698 566.153048059991  L 2337.49585995321 589.214517921253  L 2367.37917822893 631.05116350726  L 2355.7277026184 648.558562093035  L 2369.06954774756 702.046683289575  L 2411.75137809288 677.657065949392  L 2421.77285452473 702.771127368986  L 2415.01137645023 709.532605443492  L 2427.68914783993 722.210376833191  L 2414.40767305072 749  L 2439.58210481026 749  L 2434.81284795414 767.850353836108  L 2408.18952803577 781.192198965268  L 2412.05322979263 785  L 2382.23028185686 785  L 2346.00807788629 810  L 2319.74698000763 810  L 2319.74698000763 815.905144437063  L 2297.04773218608 821.579956392452  L 2265.41367405178 853.214014526749  L 2265.41367405178 847.176980531654  L 2232.20998707876 813.973293558633  L 2215.84962495205 830.33365568534  L 2226 843.675500814499  L 2226 877.422520847079  L 2219.04925296945 889  L 2185.54371429667 889  L 2175.03927514521 871.989190251494  L 2181.55927185991 839.449577017933  L 2173.10742426678 839.449577017933  L 2175.52223786482 837.034763419895  L 2155.2378036413 796.526265312809  L 2115.57449029353 809.747369762066  L 2101.56857142491 830.756248064996  L 2106.76042066069 835.948097300778  L 2093.78079757123 844.581055913764  L 2087.38154153643 838.181799878963  L 2069.27043955115 856.292901864247  L 2057.80007496047 844.822537273567  L 2030.02971858303 858.707715462286  L 2030.02971858303 868.487710534339  L 2017.53305821319 864.322157077724  L 2011.37528353819 834  L 1995.43751379114 834  L 1957.28345894214 877.905483566687  L 1969.65937863209 927.348791986513  L 1969.65937863209 937.189157398518  L 1948.28827828945 947.874707569836  L 1929.87532460441 941.716932894839  L 1906.57237338334 959.224331480614  L 1893.41163927404 946.063597371307  L 1868.4786888743 995.92949817079  L 1843.96833085421 989.771723495793  L 1837.75018583926 1008.48652888059  L 1829.72093062579 1008.48652888059  L 1822.65760085153 994.359869332066  L 1803.09761070742 1013.91985947617  L 1776 1000.63838468696  L 1776 1015  L 1760.17429900229 1015  L 1769.35059067484 1023.76022488818  L 1721.77876279349 1077.24834608472  L 1727.03098236922 1093  L 1716.76802457756 1093  L 1710.73099058247 1117  L 1684.16804100405 1117  L 1672.15434335381 1105.19981348201  L 1659.71805332392 1104.8375914423  L 1642.33139541804 1087.45093353643  L 1609.18807878497 1076.4031613254  L 1631 1042.71651163277  L 1631 1028.46911140435  L 1611.30104068326 1008.12430684088  L 1589.38660728106 1015.42911797495  L 1589.38660728106 1022.37170706931  L 1585.5229055242 1018.50800531244  L 1571.57735699553 1046.39910236978  L 1565.41958232054 1105.86388722147  L 1499.73665245391 1128.01980198346  L 1459 1106.22610926117  L 1459 1073.74686636756  L 1479.81444027009 1062.09539075703  L 1499.615911774 1029.13318514381  L 1488.02480650342 1017.54207987323  L 1497.08035749606 1009  L 1452.58741695222 1009  L 1429.1033547113 1026.11466814626  L 1405.43818145052 1014.28208151588  L 1369.75931053951 1028.58985208425  L 1382.92004464882 1041.75058619356  L 1373.86449365618 1050.8061371862  L 1364.26560960398 1050.8061371862  L 1346.15450761869 1033  L 1330 1033  L 1330 1009.69393567961  L 1271.95935981898 980.776542843102  L 1299.30712381676 958.862109440908  L 1305.88749087141 926.020644507592  L 1291.76083132289 913  L 1245.21529922071 913  L 1245.21529922071 919.681758812742  L 1242.19678222316 916.663241815195  L 1228.854937094 930  L 1209 930  L 1209 913.644724817648  Z M 2197.37630092706 922.096572410781  L 2235.59072611601 941.233970175231  L 2246.87997968684 963.872847656837  L 2246.87997968684 973.230250349234  L 2223 985.304318339424  L 2223 1004.26060508402  L 2206.37148157975 1026.41651984602  L 2204.86222308098 1026.41651984602  L 2204.86222308098 1023.39800284847  L 2198.82518908588 1023.39800284847  L 2198.82518908588 1027  L 2186.75112109569 1027  L 2186.75112109569 1029.43503684357  L 2186.75112109569 1037.34355137714  L 2174 1033.29873860043  L 2174 1021.22467061024  L 2174.6770531055 1019.23244939186  L 2171.65853610796 1020.25874517102  L 2157.35076553958 1015.4894883149  L 2163.38779953468 997.378386329613  L 2145.69928992905 991.46209301442  L 2157.47150621948 967.91766043355  L 2127.28633624401 949.806558448266  L 2140.26595933346 924  L 2113.09930635554 924  L 2099.99894258618 897.586214390696  L 2067.33858867272 930.246568304159  L 2045.24304425067 937.611749778174  L 2059.24896311929 951.617668646794  L 2054.72118762297 960.612849299486  L 2035 966.951734994335  L 2035 988.503946356823  L 2055.56637238228 1009  L 2082.18969230065 1009  L 2092.99598315187 997.559497349466  L 2107.66597575995 1012.22948995755  L 2095.16931539011 1049.77984140704  L 2144.37114245013 1062.09539075703  L 2144.37114245013 1071.81501548913  L 2144.37114245013 1074.83353248668  L 2153.84928582243 1074.83353248668  L 2133.74596261876 1105  L 2110.20153003789 1105  L 2085.26857963815 1123.73350784695  L 2085.38932031805 1123.9146188668  L 2060 1136.3509088967  L 2060 1149.08905062635  L 2029.48638552347 1179.51570196162  L 2034.6178644193 1205.23346678073  L 2026.10564648622 1201.00754298416  L 2013.79009713623 1213.32309233415  L 1961.93197511836 1195.99680476823  L 1945.93383503136 1179.99866468123  L 1957.58531064189 1158.9897863783  L 1957.88716234165 1159.17089739815  L 1974.91159820782 1127.77832062366  L 1975.51530160733 1126.63128416459  L 1969.05567523257 1094.45389297074  L 1951.85012834655 1077.24834608472  L 1963.50160395709 1053.94539486365  L 1958.12864370145 1037.8868844367  L 1986.3819627985 1032.21207248131  L 1999.66343758771 1005.64912290289  L 1993.20381121295 986.33061411859  L 1992.9019595132 985.425059019325  L 1971.59122951051 969.426918932324  L 2007.27010042153 948  L 1986.14048143869 948  L 1975.03233888772 925.83953348774  L 1963.44123361714 879.35437172551  L 1997.73158670928 839.328836338031  L 2005.9419529426 839.328836338031  L 2011.8582462578 868.789562234094  L 2035 876.698076767668  L 2035 862.329935859342  L 2056.10970544184 852.066978067681  L 2068.78747683154 864.74474945738  L 2086.89857881683 846.633647472096  L 2092.57339077222 852.308459427485  L 2115.81597165333 836.793282060091  L 2108.93375289892 829.911063305683  L 2119.07597001068 814.697737638044  L 2151.85706460405 803.770706106923  L 2167.7948343511 835.706615940974  L 2158.13557995894 846  L 2173.83186834619 846  L 2168.2777970707 873.196597050513  L 2181.92149389962 895  L 2214.40073679323 895  L 2197.37630092706 922.096572410781  Z M 1074.91057021908 857.017345943659  L 1099.54166891907 850.859571268662  L 1106.54462835338 829.790322625782  L 1095.25537478255 812.826257099565  L 1116.38499376538 796.888487352514  L 1149.4679400585 791.394786416978  L 1178.08348119525 865.771045236546  L 1165.28496912565 878.569557306147  L 1203 916.059538415686  L 1203 936  L 1231.20938035209 936  L 1242.01567120331 925.115089408328  L 1251 934.170640400971  L 1251 919  L 1289.0441660251 919  L 1299.06564245695 927.831754706121  L 1293.57194152142 955.360629723753  L 1260.54936556825 981.742468282318  L 1324 1013.19541539676  L 1324 1039  L 1343.317101641 1039  L 1361.42820362628 1057  L 1375.97745555446 1057  L 1391.0700405422 1041.50910483376  L 1380.08263867113 1030.52170296268  L 1404.77410771106 1020.68133755068  L 1429.40520641105 1032.99688690067  L 1454.21741613089 1015  L 1482.16888352818 1015  L 1479.15036653063 1017.42133919333  L 1491.70739724043 1029.97836990312  L 1475.28666477377 1057.38650424086  L 1453 1069.8831646107  L 1453 1109.84832965823  L 1523.76404775438 1146.61386668836  L 1545 1175.47088918491  L 1545 1223.40493910596  L 1554.00958806981 1237  L 1565 1237  L 1565 1249.84714800448  L 1572.7243934546 1249.84714800448  L 1571.81883835534 1250.75270310374  L 1568.86069169774 1253.71084976134  L 1600.31363881218 1269.40713814858  L 1606.83363552689 1236.80715457507  L 1631 1224.55197556503  L 1631 1208.73494649788  L 1605 1196.66087850769  L 1605 1163.57793221457  L 1617.5191856982 1153  L 1637 1153  L 1637 1164.06089493418  L 1683.14174522488 1190.20125213294  L 1688.45433514057 1184.88866221726  L 1708.79913970404 1210.30457533661  L 1695 1221.35234754763  L 1695 1261.31751259516  L 1661 1255.28047860006  L 1661 1280  L 1641.30509963888 1280  L 1622.28844255433 1267.2941762503  L 1599.40808371292 1282.50750191794  L 1605.92808042762 1289.02749863264  L 1593.85401243743 1301.10156662283  L 1608.94659742517 1316.19415161057  L 1599.28734303302 1316.19415161057  L 1606.53178382713 1330.6830331988  L 1594.21623447714 1342.99858254879  L 1604.53956260875 1357  L 1571.75846801539 1357  L 1564.21217552152 1381.09226705784  L 1576.1655028318 1387.06893071298  L 1570.12846883671 1402.46336740047  L 1570.67180189627 1402.64447842033  L 1563.18587974235 1410.13040057425  L 1555.82069826833 1388.0348561522  L 1547.61033203501 1411  L 1514.82923744164 1411  L 1498.95183803454 1396.78855544509  L 1504.80776100978 1379.28115685931  L 1491.46591588062 1352.59746660099  L 1449.08593723506 1346.5604326059  L 1430.06928015051 1314.86600413165  L 1388.17226422455 1342.81747152894  L 1400.72929493435 1355.37450223874  L 1391.67374394171 1364  L 1406.16262552993 1364  L 1403.14410853239 1370  L 1390 1370  L 1390 1381.39411875759  L 1378.6337505123 1377.65115768064  L 1387.74967184489 1350.24302334291  L 1375.25301147505 1362.73968371275  L 1352.55376365349 1352.89931830075  L 1330.57895991135 1325.43081362307  L 1339.09117784443 1316.91859568998  L 1368.6726444204 1334.66747563556  L 1396.80522283754 1320.60118642699  L 1384.42930314759 1289.6915723721  L 1409.30188320738 1264.81899231231  L 1404.1100339716 1259.62714307653  L 1427.23187417281 1248.0964081459  L 1420.83261813801 1235.23752573635  L 1438.76260910345 1217.30753477092  L 1407.85299504856 1137.01498263616  L 1380.86745309049 1109.66721863838  L 1374.10597501598 1116.42869671288  L 1346.81858135815 1105.50166518176  L 1333.35599554909 1078.63686390359  L 1326.29266577483 1085.70019367785  L 1294 1059.31835511929  L 1294 1074.65242146683  L 1285.54268630794 1074.65242146683  L 1236.40122958787 1025.51096474676  L 1218.29012760258 1037.58503273694  L 1205.37087485308 1024.66577998744  L 1192.75347380333 1043.62206673204  L 1143 1018.50800531245  L 1143 1057  L 1131.23609739332 1057  L 1124.89721169847 1075.61834690604  L 1103.52611135583 1086.30389707736  L 1079.92130843501 1068.61538747173  L 1026.67466859827 1074.53168078693  L 1014.41948958823 1043.86354809184  L 995.402832503683 1050.20243378669  L 983.75135689315 1039  L 960.508776012035 1039  L 954.47174201694 1021  L 923.381016942202 1021  L 930.92730943607 1012.89356369701  L 948.796930061551 935.559158219842  L 984.294689952709 929.64286490465  L 1008.9257886527 892.696216854669  L 1043.94058582425 863.47697231841  L 1053.05650715684 863.47697231841  L 1060.60279965071 878.509186966197  L 1074.91057021908 857.017345943659  Z M 2166.94964959178 1358  L 2156.08298840061 1380.18671195857  L 2174 1398.96188768332  L 2174 1412  L 2185.60408463663 1412  L 2192.48630339103 1433.37298145536  L 2173.77149800624 1458.36630219505  L 2189.83000843319 1474.424812622  L 2192.84852543074 1471.40629562446  L 2192.84852543074 1479.19406947813  L 2200.63629928441 1479.19406947813  L 2191.58074829177 1488.24962047077  L 2200.63629928441 1497  L 2224.72406492484 1497  L 2239.21294651307 1512.75997849086  L 2230.39887688023 1527  L 2212.77073761455 1527  L 2227.25961920278 1541.97922302712  L 2197.07444922731 1560.0903250124  L 2199.7911145251 1562.80699031019  L 2203.71518662191 1566.731062407  L 2174.79779378541 1595.64845524351  L 2174.79779378541 1587  L 2148.89891794645 1587  L 2130.78781596116 1569  L 2112.67671397588 1569  L 2099.33486884672 1556.40773427539  L 2079.95598972247 1575.78661339965  L 2072 1575.78661339965  L 2072 1553.38921727784  L 2060 1541.31514928766  L 2060 1519.64219724526  L 2074.22080742713 1505.51553769674  L 2037.51564073695 1487.16295435165  L 2052.54785538474 1467  L 2064 1467  L 2064 1424  L 2040.83600943425 1424  L 2029.24490416367 1401.67855298111  L 2018.7404650122 1394.6755935468  L 2022.72490744897 1394.6755935468  L 2035.10082713891 1369.98412450686  L 2054.90229864282 1363.40375745221  L 2048.50304260802 1344.20598934781  L 2056.7737791813 1335.93525277453  L 2074.28117776708 1359.29857433555  L 2103.37968162343 1344.74932240737  L 2089.97746615432 1317.8845211292  L 2079.47302700286 1307.13860061793  L 2081.58598890114 1305.02563871964  L 2122.57744972783 1334  L 2139.78299661386 1334  L 2151.85706460405 1358  L 2166.94964959178 1358  Z M 2242.47294487042 1699.42506961919  L 2247.96664580595 1721.33950302138  L 2272.71848518584 1715.18172834639  L 2276.70292762261 1723.15061321991  L 2257.92775189786 1741.80504826475  L 2263.96478589296 1747.84208225985  L 2256.53923407899 1755.26763407382  L 2236.79813291503 1755.87133747332  L 2251.52849586306 1766.31540628484  L 2241 1776.75947509635  L 2241 1799  L 2224.72406492484 1799  L 2241.98998215081 1816.42278844413  L 2223 1810.08390274928  L 2223 1825.05574705711  L 2218.32480889004 1829  L 2205.64703750034 1829  L 2203.89629764176 1835.37907518872  L 2188.20000925452 1865.14165278454  L 2161.03335627659 1858.31980437008  L 2168.21742673075 1879.87201573257  L 2134.22892533837 1913.86051712496  L 2124.81115230602 1913.86051712496  L 2127.52781760381 1910.66088910756  L 2114 1897.50015499825  L 2114 1873.35201901787  L 2082.43117366045 1841  L 2060.03377753865 1841  L 2060.03377753865 1839.00129558578  L 2089.55487377467 1768.12651648337  L 2102.95708924378 1761.42540874881  L 2096.73894422883 1742.83134404392  L 2126.9241142043 1718.68320806354  L 2120.82670986926 1700.33062471845  L 2136.2815168967 1684.87581769101  L 2153.78891548248 1690.73174066625  L 2179.74816166138 1677.7521175768  L 2186.9926024555 1667.54953012509  L 2197.61778228686 1671.11138018219  L 2192.48630339103 1681.43470831381  L 2205.76777818024 1708.05802823217  L 2226.83702682312 1715.06098766648  L 2242.47294487042 1699.42506961919  Z M 1806.17649804492 2147.61447341503  L 1831.35092980446 2116.10115596063  L 1810.46279218143 2088.21005890329  L 1778.64762302728 2101.00857097289  L 1772.73132971209 2101.06894131284  L 1735.3017189425 2107.28708632779  L 1717.37172797707 2131  L 1704 2131  L 1704 2184.86297316476  L 1755.52578282607 2197.78222591426  L 1799.95835302997 2172.36631279491  L 1806.17649804492 2147.61447341503  Z M 1515.01034846149 1660  L 1499.85739313381 1660  L 1505.8944271289 1639  L 1474.38110967451 1639  L 1475 1642.19398734569  L 1475 1655.11324009519  L 1456.69260006888 1661.02953341038  L 1450.47445505393 1692.05988814517  L 1425.90372669389 1716.63061650521  L 1431.94076068899 1758.88985447087  L 1420 1770.78281144121  L 1420 1760.64059432945  L 1386.72337606573 1780.62317685321  L 1366 1770.11873770175  L 1366 1746.57430512088  L 1341.02302872286 1721.88283608094  L 1330.15636753169 1700.08914335865  L 1339.81562192384 1690  L 1303.95563999298 1690  L 1293.57194152142 1674.9147115991  L 1299.72971619641 1656.44138757411  L 1272.14047083883 1628.85214221653  L 1257 1643.94472720427  L 1257 1662.05582918955  L 1250.8901111761 1655.89805451455  L 1244.67196616115 1602.83252569767  L 1245.33603990061 1601.98734093836  L 1244.4908551413 1601.3232671989  L 1239.11789488566 1555.68329019598  L 1245.39641024056 1549.40477484108  L 1232.59789817096 1504.67035293743  L 1223.42160649841 1495.49406126489  L 1242.74011528272 1489.03443489013  L 1220.28234882097 1474.0625905823  L 1202.11087649573 1425.64557794164  L 1161.60237838864 1402.46336740047  L 1178.98903629452 1373.48560422402  L 1166.97533864428 1349.51857926349  L 1182.79236771143 1328.44933062061  L 1203.6201349945 1333.64117985639  L 1227.16456757537 1380.66967467818  L 1265.01677072462 1412  L 1280.35083707216 1412  L 1285.54268630794 1397.03003680489  L 1292.6060160822 1404.09336657915  L 1284.27490916897 1420.75558040561  L 1307.51749005009 1413.02817689189  L 1319.65192838023 1425.16261522203  L 1354.00265181232 1411.39817771321  L 1348.20709917702 1382  L 1360.76412988682 1382  L 1372 1404.21410725905  L 1372 1381.5148594375  L 1396 1389.54411465097  L 1396 1376  L 1406.76632892944 1376  L 1415.82187992209 1358.21190821643  L 1406.16262552993 1358.21190821643  L 1409.18114252748 1355.19339121888  L 1397.5900372569 1343.6022859483  L 1428.13742927208 1323.25748138483  L 1445.3429761581 1351.93339286153  L 1487.48147344386 1357.97042685663  L 1498.28776429508 1379.58300855907  L 1492.06961928013 1398.29781394386  L 1512.4144238436 1417  L 1552.07773719138 1417  L 1555.94143894824 1407.05151323675  L 1560.65032546441 1421.17817278527  L 1575.32031807249 1406.50818017719  L 1583 1406.50818017719  L 1583 1419.06521088699  L 1626.33325533104 1412.90743621199  L 1632.55140034599 1431.50150091688  L 1649 1425.82668896149  L 1649 1440.97964428918  L 1658.6313872048 1431.92409329654  L 1675.47471205111 1448  L 1697 1448  L 1697 1468.62925998671  L 1672.45619505357 1494.04517310606  L 1679.09693244817 1500.68591050067  L 1669.19619669622 1520.54775234453  L 1651.08509471093 1514.51071834943  L 1626.57473669085 1563.47106404965  L 1618.54548147737 1563.47106404965  L 1612.26696612247 1544.57514764501  L 1593.06919801807 1550.97440367981  L 1580.75364866808 1538.65885432981  L 1550.93070073231 1553.5703282977  L 1563.84995348181 1566.4895810472  L 1539.70181750143 1590.63771702758  L 1562.09921362323 1613.03511314938  L 1565 1610.01659615183  L 1565 1631.74991853418  L 1579.30476050925 1624.68658875991  L 1590.11105136047 1639.11510000819  L 1581.53846308744 1636.2776940305  L 1580.75364866808 1635.73436097094  L 1580.33105628842 1635.85510165084  L 1579.36513084921 1636.09658301064  L 1558.05440084652 1641.59028394618  L 1559.20143730559 1665.01397584715  L 1588.66216320165 1679.98582015498  L 1582.86661056636 1681.97804137336  L 1567.65328489872 1685.78137279027  L 1550.99107107226 1689.58470420718  L 1531.3707105882 1663.44434700842  L 1523.70367741443 1678.77841335596  L 1508.55072208674 1683.84952191184  L 1499.91776347376 1675.21656329886  L 1515.01034846149 1660  Z M 2092.09042805261 1126.14832144499  L 2112.37486227613 1111  L 2137.12670165601 1111  L 2158.5581723386 1078.75760458349  L 2170.08890726923 1092.64278277221  L 2212.16703421504 1098.6798167673  L 2220.37740044837 1110.9953661173  L 2212.10666387509 1110.9953661173  L 2204.37926036137 1126.38980280479  L 2224.48258356504 1153  L 2253 1153  L 2253 1139.671277594  L 2278.87625986084 1120.35276880969  L 2274.16737334467 1115.64388229352  L 2292.27847532995 1111.1161067972  L 2325 1122.22424934817  L 2325 1135  L 2384.82620647475 1135  L 2375.0462114027 1164.54385765379  L 2358.62547893604 1159.05015671825  L 2311.1743917346 1182.77570031897  L 2306.64661623828 1178.24792482265  L 2302.36032210176 1182.53421895917  L 2306.28439419857 1186.45829105598  L 2303.26587720102 1189  L 2285.15477521574 1189  L 2294.21032620838 1198.53235904617  L 2283.40403535716 1209.33864989739  L 2283.40403535716 1201  L 2267.04367323045 1201  L 2257.98812223781 1210.60642703636  L 2269.88107920815 1222.4993840067  L 2229.07072940131 1257.51418117825  L 2229.07072940131 1263.67195585325  L 2223.03369540621 1269.70898984834  L 2199.85148486505 1274.35750602456  L 2181.92149389962 1310.21748795543  L 2173.34890562658 1310.21748795543  L 2160.12780117733 1290.35564611156  L 2146.78595604817 1303.69749124072  L 2127.95040998347 1297.41897588583  L 2123.42263448715 1306.41415653852  L 2113.46152839524 1286.55231469465  L 2092.09042805261 1279.42861458044  L 2073.55673368767 1304  L 2052.18563334503 1304  L 2022.00046336956 1274  L 2011.67713523794 1274  L 2011.67713523794 1266.32825081109  L 2080.62006346193 1211.21013043587  L 2041.56045351366 1218.99790428954  L 2041.19823147396 1215.07383219273  L 2043.06971201244 1216.03975763195  L 2036.12712291808 1181.3871825001  L 2066 1151.44349388443  L 2066 1140.0334996337  L 2092.57339077222 1127.1142468842  L 2092.09042805261 1126.14832144499  Z M 1172.16718788006 1373.72708558382  L 1153.33164181536 1405.11966235832  L 1184.54310757 1422.92891264385  L 1153.09016045556 1418.46150748747  L 1156.59164017272 1428.78483561909  L 1156.16904779306 1428.36224323943  L 1149.28682903865 1449  L 1123.14647183989 1449  L 1128.21758039577 1464.22222517029  L 1107.45018345264 1453.83852669873  L 1101.83574183721 1470.6214812051  L 1091.8746357453 1460.66037511319  L 1073.76353376001 1466.69740910828  L 1064.52687174752 1457.46074709579  L 1070.80538710242 1444.96408672594  L 1058.79168945218 1437  L 1073.70316342006 1437  L 1025.0446694196 1412.60558451223  L 976.869138138743 1424.67965250242  L 947.046190202975 1405  L 910.703245552504 1405  L 861.924010872138 1382.42041453676  L 843.812908886853 1388.45744853185  L 821.355142425101 1377.22856530098  L 787.366641032717 1337.56525195321  L 801 1326.57785008213  L 801 1287.88046217358  L 780.242940918505 1269.76936018829  L 780.242940918505 1259.80825409638  L 799.62182004276 1227.57049256258  L 779.095904459437 1217.30753477092  L 787.849603752325 1214.40975845327  L 812.359961772409 1211.27050077582  L 844.537352966265 1220.14494074861  L 859 1205.95791086014  L 859 1184.40569949765  L 840.613280869454 1178.36866550255  L 840.613280869454 1170.15829926923  L 871.704005944191 1151.50386422438  L 856.490680276553 1121.13758322906  L 850.091424241752 1127.53683926386  L 839.164392710631 1111  L 829.022175598871 1111  L 835.30069095377 1073.50538500776  L 815.318108430006 1080.14612240236  L 811.273295653293 1067.95131373227  L 927.727681418671 1037.28318103719  L 917.766575326764 1027  L 950.064707200522 1027  L 956.101741195617 1045  L 981.15543227526 1045  L 993.652092645106 1057.205393221  L 1010.85763953113 1051.47021092566  L 1022.75059650146 1081.17241818153  L 1078.17056857643 1075.01464350653  L 1102.86203761637 1093.54833787147  L 1129.78720923449 1080.08575206241  L 1135.52239152983 1063  L 1149 1063  L 1149 1028.5294817443  L 1194.74569502171 1051.71169228547  L 1206.27642995235 1034.44577505949  L 1217.50531318322 1045.67465829037  L 1235.61641516851 1033.60059030018  L 1283.06750236995 1081  L 1299.42786449666 1081  L 1299.42786449666 1072.23760786879  L 1326.83599883439 1094.15204127098  L 1331.84673705032 1089.14130305505  L 1342.53228722164 1110.57277373764  L 1375.61523351475 1123.7938781869  L 1380.92782343044 1118.48128827121  L 1402.48003479293 1140.0334996337  L 1431.75964966914 1216.1001279719  L 1413.467436664 1234.39234097704  L 1419.14224861939 1245.74196488781  L 1393.96781685984 1258.35936593756  L 1400.85003561425 1265.24158469197  L 1377.42634371328 1288.66527659294  L 1389.19856000372 1318.126002489  L 1369.0348664601 1328.20784926081  L 1338.24599308512 1309.73452523582  L 1322.61007503782 1325.37044328311  L 1348.93154325644 1358.27227855638  L 1370.78560631868 1367.75042192868  L 1365.89560878265 1372.64041946471  L 1365.89560878265 1379.22078651936  L 1364.74857232358 1377  L 1341.08339906281 1377  L 1347.36191441771 1408.25892003577  L 1321.34229789885 1418.64261850733  L 1309.32860024861 1406.62892085709  L 1296.34897715916 1410.97558533356  L 1300.09193823612 1403.48966317964  L 1283.00713203 1386.40485697352  L 1276.12491327559 1407.1118835767  L 1267.31084364275 1407.1118835767  L 1232.41678715111 1378.01337972034  L 1207.90642913102 1329.05303402012  L 1180.43792445334 1322.17081526571  L 1160.03274954992 1349.39783858359  L 1172.16718788006 1373.72708558382  Z M 2116.8422674325 1913.80014678501  L 2109.71856731828 1913.80014678501  L 2085.5704313379 1948  L 2049.65007906709 1948  L 2049.65007906709 1950.08272109552  L 2038.84378821587 1960.88901194674  L 2026.76972022568 1948.81494395655  L 2008.6586182404 1966.92604594184  L 1995.25640277129 1953.52383047273  L 1993.56603325266 1951.8334609541  L 1993.56603325266 1952.37679401366  L 1988.31381367693 1962.94160350508  L 1975.81715330708 1969.15974852002  L 1971.59122951051 1967.77123070115  L 1970.26308203159 1969.09937818007  L 1966.82197265439 1972.54048755728  L 1952.75568344582 1951.41086857445  L 1945.45087231175 1987.87455390482  L 1928.84902882524 2004.47639739133  L 1924.07977196912 2004.47639739133  L 1918.04273797402 2002  L 1880.55275686448 2002  L 1868.23720751449 2016.79194674132  L 1808.77242266281 2028.68490371166  L 1807.68575654369 2028.92638507146  L 1806.53872008462 2030.31490289033  L 1784.38280532262 2046.61489467709  L 1782 2048.18452351582  L 1782 2063.0959974837  L 1799.0527979307 2079.93932233001  L 1789.99724693806 2089  L 1769.29022033489 2089  L 1758.30281846381 2056.03266770944  L 1770.79947883366 2031.03934696975  L 1769.35059067484 2029.59045881092  L 1787.70317401993 2009.24565424745  L 1817.34501093584 1967.77123070115  L 1835.51648326108 1961.73419670606  L 1848.97906907014 1941.51013282249  L 1843.06277575495 1923.76125287691  L 1872 1893.99867528109  L 1872 1846.6079584196  L 1848 1852.64499241469  L 1848 1836.28463028799  L 1879.52646108532 1828.55722677427  L 1923.29495754976 1850.35091949656  L 1915.56755403604 1827.10833861544  L 1924.80421604853 1817.87167660295  L 1948.95235202891 1829.94574459314  L 1960.42271661959 1818.47538000246  L 1971.22900747081 1829  L 1996.40343923035 1829  L 1974.48900582816 1856.68980519141  L 1989.9438128556 1872.14461221885  L 2032.56527286097 1853.85239921371  L 2052.60822572469 1867.19424434287  L 2059.18859277934 1847  L 2079.89561938252 1847  L 2108 1875.82720295586  L 2108 1899.97533893624  L 2119.31745137048 1910.96274080731  L 2116.8422674325 1913.80014678501  Z M 2185.42297361677 1316  L 2203.71518662191 1279.48898492039  L 2216 1276.8930603025  L 2216 1290.65749781132  L 2271.93367076648 1321.3256305064  L 2301 1392.26077994876  L 2301 1417.19373034851  L 2350.05289066301 1459.75482001392  L 2354.94288819903 1477  L 2314.2532790721 1477  L 2354.33918479952 1512.63923781096  L 2348.48326182428 1518.4951607862  L 2349.50955760345 1519.52145656536  L 2340.51437695076 1514.99368106904  L 2326.02549536253 1523.68701002198  L 2304.41291366009 1502.07442831954  L 2285.9395896351 1520.54775234453  L 2249.11368226502 1496.03739432444  L 2242.29183385057 1507.38701823522  L 2227.19924886283 1491  L 2202.9907425425 1491  L 2199.97222554495 1488.24962047077  L 2215.06481053269 1473  L 2198 1473  L 2198 1456.79667335633  L 2189.64889741334 1465.85222434897  L 2181.55927185991 1457.76259879554  L 2199.06667044569 1434.45964757448  L 2194.84074664912 1421.78187618478  L 2215.84962495205 1432.28631533624  L 2223.45628778587 1401.79929366101  L 2198 1393.52855708773  L 2198 1406  L 2180.5933464207 1406  L 2180.5933464207 1396.42633340538  L 2163.14631817487 1378.97930515956  L 2176.42779296408 1352  L 2155.29817398125 1352  L 2143.22410599106 1328  L 2124.20744890651 1328  L 2084.24228385898 1299.71304880396  L 2094.14301961094 1286.4919443547  L 2108.99412323887 1291.44231223068  L 2123.18115312735 1319.87674234758  L 2130.72744562121 1304.72378701989  L 2148.11410352709 1310.51933965518  L 2158.92039437831 1299.71304880396  L 2169.84742590943 1316  L 2185.42297361677 1316  Z M 2800.35525635713 769.721834374588  L 2767.87601346352 791.394786416978  L 2765.52157020543 792.360711856194  L 2768.41934652308 801.05404080913  L 2760 792.722933895899  L 2760 779.743310806445  L 2736.66454770888 771.895166612822  L 2730.62751371378 814.154404578486  L 2713.66344818757 808.479592623096  L 2695.19012416258 841  L 2643.27163180476 841  L 2662.89199228882 871.989190251494  L 2653.53458959642 881.346592943891  L 2613.75053556875 875.671780988502  L 2598.47683956116 860.398084980912  L 2611.39609231066 847.478832231409  L 2579.0979604369 858.224752742678  L 2579.0979604369 859.61327056155  L 2563.58278306951 886.719553199526  L 2542 907.426579802701  L 2542 889.496588837269  L 2519.27095354551 859.975492601255  L 2532.67316901463 834  L 2517.58058402689 834  L 2507.31762623523 812.645146079712  L 2513.11317887052 806.849593444421  L 2504.96318297714 782.339235424336  L 2500 786.685899900805  L 2500 762.537763920425  L 2480.09060291735 783.063679503748  L 2463.97172215045 756.198878225576  L 2444.17025064654 743  L 2424.00655710292 743  L 2434.87321829409 720.942599694222  L 2423.40285370341 709.472235103542  L 2428.71544361909 704.159645187859  L 2414.58878407057 668.903366656505  L 2372.75213848456 692.81002127708  L 2361.94584763334 649.705598552103  L 2374.44250800319 630.99079316731  L 2343.95548632796 588.308962821989  L 2348.36252114438 575.148228712682  L 2389.77657435073 598.813401973454  L 2416.82248664876 560.96119882421  L 2442.23839976811 555.89009026833  L 2452 565.911566700187  L 2452 583.841557665619  L 2452.25987619996 590.059702680566  L 2477.13245625975 614.932282740357  L 2478.33986305877 616.441541239131  L 2478.58134441858 616.38117089918  L 2496.69244640386 610.344136904085  L 2509.00799575385 622.659686254079  L 2509.61169915336 623.263389653588  L 2511.42280935189 621.45227945506  L 2530.56020711634 611.853395402859  L 2529.53391133718 612.879691182025  L 2537.3820555308 620.727835375648  L 2544.0227929254 634.009310164857  L 2550.66353032001 637  L 2592.92276828567 637  L 2596 638.295604301374  L 2596 669.567440395965  L 2597.87313616165 669.748551415818  L 2596.24313698297 677.777806629294  L 2610.67164823125 672.948179433218  L 2618.82164412463 675.00077099155  L 2621.35719840257 680.011509207479  L 2621.35719840257 686.591876262133  L 2627.93756545722 693.172243316786  L 2634.75941387168 706.876310485651  L 2640.49459616702 705.729274026583  L 2641.52089194619 706.755569805749  L 2666.09162030622 701.865572269722  L 2694.28456906331 741.347774597643  L 2695.06938348268 743  L 2711.06752356968 743  L 2711.91270832899 742.736292416515  L 2711.91270832899 740.200738138574  L 2716.44048382531 726.617411649611  L 2738.59639858731 713.335936860403  L 2751.15342929711 725.8929675702  L 2760 716.837416577558  L 2760 735.552221962351  L 2762.02009048828 736.457777061616  L 2799.44970125787 755.17258244641  L 2804.8226615135 752.516287488568  L 2805.96969797257 752.938879868225  L 2800.35525635713 769.721834374588  Z M 2168.76075979031 1593  L 2168.76075979031 1601.62511889865  L 2162 1607.66215289375  L 2162 1622.21140482193  L 2180 1640.44324748711  L 2180 1665.49693856676  L 2180.9555684604 1665.55730890671  L 2175.64297854472 1672.98286072067  L 2153.30595276287 1684.1513736116  L 2134.59114737807 1677.93322859665  L 2113.82375043495 1698.70062553978  L 2119.80041409009 1716.57024616526  L 2089.61524411462 1740.71838214564  L 2095.47116708986 1758.34652141131  L 2084.72524657859 1763.71948166695  L 2054.11748422346 1837.19018538725  L 2053.87600286366 1843.83092278186  L 2049.22748668743 1857.77647131053  L 2033.04823558058 1846.97018045931  L 1991.15121965462 1864.90017142474  L 1982.45789070169 1856.2068424718  L 2008.83972926025 1822  L 1973.64382106885 1822  L 1964.58827007621 1814.18908586594  L 1968.99530489262 1809.78205104952  L 1982.63900172154 1769  L 1971.28937781076 1769  L 1975.87752364703 1759.73503923019  L 1957.64568098185 1729.30838789491  L 1964.58827007621 1708  L 1951.36716562695 1708  L 1951.36716562695 1700.57210607826  L 1981 1664.34990210769  L 1981 1650.22324255917  L 1969.90085999189 1633.92325077241  L 1985.83862973894 1615  L 2022.06083370951 1615  L 2014.33343019579 1610.25807751164  L 2032.44453218107 1604.22104351654  L 2026.16601682617 1597.94252816165  L 2050.2537824666 1588.28327376949  L 2062.99192419625 1601.02141549914  L 2093.59968655138 1572.7680964021  L 2092.57339077222 1571.62105994303  L 2099.33486884672 1564.85958186853  L 2107.54523508005 1573.06994810186  L 2090.52079921388 1598.60660190111  L 2128.55411338298 1579.58994481656  L 2124.69041162612 1575.7262430597  L 2128.25226168323 1575.7262430597  L 2146.36336366851 1593  L 2168.76075979031 1593  Z M 2951.2811062345 406  L 2985.45071864674 406  L 2965.28702510312 424.765711894871  L 2971.32405909822 454.950881870345  L 2940.11259334357 486.101977285034  L 2946.81370107813 492.803085019589  L 2928.94408045265 534.458619585743  L 2934.98111444774 546.532687575933  L 2911.73853356663 598.753031633503  L 2893 611.249692003349  L 2893 635.760050023434  L 2889.34113744483 639.442640760442  L 2834.70597978922 615.173764100161  L 2816.05154474438 640  L 2797.57822071939 640  L 2790.15266890542 654.897447787885  L 2808.44488191056 709.713716463345  L 2802.52858859536 745.151106014552  L 2766 731.567779525589  L 2766 702.227794309428  L 2751.15342929711 717.320379297165  L 2739.68306470643 705.850014706485  L 2737.63047314809 706.876310485651  L 2712.5164117285 719.433341195448  L 2711.49011594933 722.572598872897  L 2706 725.8929675702  L 2706 736.638888081468  L 2698.63123353978 736.638888081468  L 2674.2416161996 694.017428076099  L 2668.74791526406 695.104094195216  L 2667.9631008447 694.017428076099  L 2642.4868173854 699.088536631978  L 2632.8879333332 689.489652579778  L 2627.39423239766 678.502250708705  L 2627.39423239766 670.835217534935  L 2622.98719758124 669.748551415818  L 2619.84793990379 663.470036060919  L 2610.43016687145 666.609293738368  L 2604.87609559596 665.220775919497  L 2609.52461177218 642.038565378333  L 2603.24609641728 635.760050023434  L 2603.24609641728 627.972276169761  L 2595.45832256361 631  L 2553.19908459795 631  L 2542.33242340678 617.105614978591  L 2539.49501742908 611.430803023202  L 2547.16205060285 604  L 2535.69168601217 604  L 2535.14835295261 602.737474070266  L 2533.09576139428 604  L 2520.47836034453 604  L 2509.67206949331 614.570060700651  L 2498.38281592249 603.280807129824  L 2480.51319529701 609.257470784968  L 2458 581.547484747483  L 2458 563.255271742345  L 2458.35728053501 556.614534347741  L 2445.0758057458 549.973796953137  L 2444.29099132644 549.188982533774  L 2443.02321418747 550  L 2417.60730106812 550  L 2414.89063577032 553.233795310488  L 2410.60434163381 536.209359444321  L 2440.97062262914 524.07492111418  L 2433.36395979532 502  L 2411.81174843283 502  L 2420.86729942547 510.250113265413  L 2412.47582217229 518.641590518595  L 2404 514.415666722028  L 2404 502.945302131348  L 2380.29843097843 479.219758530626  L 2385.49028021421 463.704581163232  L 2420.20322568601 435  L 2432.57914537595 435  L 2466.26579506858 395.546467358612  L 2480.51319529701 438.228297703932  L 2494.33800314577 355.279450611329  L 2519.02947218571 342.963901261336  L 2512.81132717076 293.399852161607  L 2555.49315751608 201.999157475872  L 2516.49391790777 149.959924438155  L 2494 164.509176366333  L 2494 178  L 2409.09508313504 178  L 2392.13101760882 135.65215386978  L 2398.71138466347 103  L 2384.22250307524 103  L 2364.84362395099 83.371439472259  L 2346.73252196571 101.482541457543  L 2326.44808774219 81.198107234025  L 2350.17363134291 45.5796066629655  L 2338.28067437257 21.7936927222922  L 2342.08400578948 18.1111019852844  L 2436.44284713281 6.33888569484952  L 2461.73801957226 25.2951724394472  L 2467.05060948795 19.9825825237638  L 2477.97764101907 39  L 2514.56206702934 39  L 2527.9039121585 49.6847897796301  L 2531 46.6662727820828  L 2531 61  L 2543.6605708857 61  L 2549.33538284109 83.1903284524064  L 2566.48055938716 100.335504998476  L 2560.0209330124 113.194387408028  L 2571.06870522343 118.688088343564  L 2566.11833734745 123.638456219542  L 2584 149.054369338891  L 2584 188  L 2596.12239630307 188  L 2590.80980638739 203.14619393494  L 2609.52461177218 221.860999319734  L 2615.80312712708 266  L 2626.79052899815 266  L 2621.23645772267 293.58096318146  L 2641.27941058638 320.32502377973  L 2672.00791362141 314.167249104734  L 2696.33716062165 332.39909176992  L 2714.20678124713 326.422428114776  L 2756.04342683313 369  L 2775.78452799709 369  L 2765.64231088533 383.472399368422  L 2783.45156117086 407.258313309096  L 2771.49823386058 419.211640619384  L 2798.00081309904 458.995694647058  L 2867.30596336273 452.777549632111  L 2896.70631891884 423.377194075999  L 2908.29742418942 429.17274671129  L 2951.2811062345 406  Z M 1782.99428750375 2005.50269317049  L 1767.53948047631 2022.58749937661  L 1762.28726090058 2022.58749937661  L 1755.40504214617 2015.7052806222  L 1736.08653336187 2028.56416303176  L 1732.22283160501 2028.56416303176  L 1736.08653336187 2024.7004612749  L 1705.47877100674 2009.42676526731  L 1699.01914463198 2022.34601801681  L 1647.82509635358 2016.67120606142  L 1629.59325368839 1998  L 1619 1998  L 1619 1980  L 1608.34289402566 1980  L 1612.81029918203 1966.86567560189  L 1620.4773323558 1959.19864242812  L 1618.36437045752 1957.08568052983  L 1605.14326600826 1943.86457608058  L 1574.95809603279 1949.90161007567  L 1560.10699240485 1935.05050644774  L 1573.93180025362 1921.22569859897  L 1580.81401900803 1928.10791735338  L 1595.72549297591 1898.28496941761  L 1580.99513002788 1883.55460646958  L 1551.11181175216 1889.53127012472  L 1533.24219112668 1865  L 1510.60331364508 1865  L 1510.60331364508 1858.50091538994  L 1543.56551925829 1842.01981258333  L 1580.39142662837 1866.59054094336  L 1596.32919637542 1850.65277119631  L 1591.62030985925 1845.94388468014  L 1624.40140445261 1835.01685314902  L 1635.69065802344 1812.43834600736  L 1643 1816.30204776422  L 1643 1828.97981915392  L 1677.5876739494 1835.80166756838  L 1692.92174029694 1820.46760122084  L 1692.43877757733 1819.98463850123  L 1709 1824.3313029777  L 1709 1813.28353076668  L 1719.42431953541 1818.11315796275  L 1734.75838588295 1802.77909161521  L 1744.90060299471 1806.15983065246  L 1751.1791183496 1787.26391424782  L 1759.20837356308 1787.26391424782  L 1759.38948458293 1787.68650662747  L 1756.79355996504 1790.28243124537  L 1778.10428996773 1811.59316124805  L 1766.75466605695 1788.83354308654  L 1773.15392209175 1782.43428705174  L 1784.86576804223 1794.14613300223  L 1821.93315677212 1769.45466396229  L 1835.75796462088 1774.04280979856  L 1829.35870858608 1793  L 1840.94981385666 1793  L 1815.29241937751 1851.01499323602  L 1842 1837.37129640711  L 1842 1860.49313660832  L 1866 1854.45610261322  L 1866 1891.58386168306  L 1836.12018666059 1922.19162403819  L 1842.27796133558 1940.66494806318  L 1831.59241116427 1956.66308815018  L 1813.54167951893 1962.70012214527  L 1782.99428750375 2005.50269317049  Z M 2523.01391462247 839.389206677982  L 2512.2679941112 860.881047700519  L 2537 891.730291415454  L 2537 913.705095157599  L 2477.43430795951 954.877667004145  L 2463.24727807104 969.064696892618  L 2468.80134934652 974.618768168105  L 2454.49357877815 985  L 2418.27137480758 985  L 2343 1032.39318350116  L 2343 1015.4894883149  L 2321.25623850641 1004.26060508402  L 2374.9254707228 938.63804555734  L 2347.75881774487 911.471392579414  L 2309.06142983631 917.931018954165  L 2283 943.648783773269  L 2283 955.119148363949  L 2253.15849504174 969.970251991882  L 2253.15849504174 962.303218818112  L 2240.29961263218 936.645824338959  L 2206.06962988 919.561018132841  L 2222.067769967 892.937698214472  L 2232 879.776964105166  L 2232 841.079576196608  L 2224.24110220523 830.273285345389  L 2232.0288760589 822.485511491716  L 2259 849.652164469643  L 2259 867.763266454927  L 2300.00587884367 826.952916648087  L 2325.60290298287 820.553660613286  L 2325.60290298287 816  L 2347.63807706497 816  L 2383.86028103554 793  L 2426.48174104091 793  L 2418.27137480758 782.822198143943  L 2439.94432684997 772.015907292724  L 2445.25691676565 750.705177290039  L 2459.26283563427 760.002209642485  L 2479.00393679823 792.904044915751  L 2494 777.207756528505  L 2494 801.355892508884  L 2502.4276286992 793.628488995163  L 2506.35170079601 805.340334945647  L 2500.07318544111 811.618850300545  L 2513.95836362983 839.389206677982  L 2523.01391462247 839.389206677982  Z M 1588.66216320165 1899.37163553673  L 1579.42550118916 1917.84495956172  L 1574.23365195337 1912.65311032594  L 1556.12254996809 1930.76421231122  L 1551.11181175216 1926  L 1536.32107846418 1926  L 1512.1729424838 1954  L 1451.9837135527 1954  L 1435.14038870639 1972.96307993693  L 1418.29706386008 1956  L 1402.78188649268 1956  L 1396.92596351744 1973.7478943563  L 1366.74079354197 1967.7108603612  L 1359.37561206795 1989.7460344433  L 1374 2008.34009914819  L 1374 2040  L 1352.67450433339 2040  L 1339.9967329437 2008.88343220775  L 1319.53118770032 2022  L 1298.34119837754 2022  L 1286.26713038735 1990  L 1252.88233239448 1990  L 1263.44714188589 1971.21234007836  L 1257.71195959055 1959.74197548768  L 1270.87269369986 1946.58124137837  L 1234.65048972929 1922.43310539799  L 1239.60085760527 1917.48273752201  L 1227.88901165479 1894.05904562104  L 1248.71677893786 1882  L 1198.66976711853 1882  L 1175.78940827712 1900.82052369555  L 1173.73681671879 1898.76793213722  L 1185.02607028961 1887.47867856639  L 1173.67644637883 1853  L 1185 1853  L 1185 1829  L 1195.83236114083 1829  L 1202.17124683568 1810.32538410908  L 1227.88901165479 1797.46650169953  L 1221.18790392023 1784.06428623042  L 1233 1760.64059432945  L 1233 1710.35210115031  L 1209 1686.20396516993  L 1209 1698.27803316012  L 1202.35235785554 1691.87877712532  L 1195.83236114083 1671.41323188195  L 1205.73309689279 1661.51249612999  L 1217.80716488298 1673.58656412018  L 1233.74493463003 1657.64879437313  L 1221.12753358028 1638.69250762853  L 1225.17234635699 1626.61843963835  L 1239 1640.38287714716  L 1239 1610.01659615183  L 1239.35937624547 1609.53363343223  L 1245.03418820086 1657.64879437313  L 1245.15492888076 1658.6750901523  L 1263 1676.66545145768  L 1263 1646.48028148221  L 1272.20084117878 1637.42473048957  L 1292.90786778196 1658.13175709274  L 1286.99157446676 1675.88063703832  L 1300.75601197558 1696  L 1325.26636999566 1696  L 1322.85155639763 1699.00247723953  L 1335.89154982703 1725.08246409834  L 1360 1749.10985939882  L 1360 1773.86169877871  L 1387.02522776548 1787.50539560762  L 1414 1771.26577416082  L 1414 1785.27169302944  L 1438.40038706374 1760.94244602921  L 1432.36335306865 1718.68320806354  L 1456.08889666937 1694.95766446282  L 1461.94481964461 1665.61767924666  L 1481 1659.45990457166  L 1481 1648  L 1497.44257953577 1648  L 1491.40554554067 1666.34212332607  L 1500.40072619337 1666.34212332607  L 1491.34517520072 1675.39767431871  L 1506.86035256812 1690.91285168611  L 1527.929601211 1683.9098922518  L 1532.33663602742 1675.09582261896  L 1545.85959217643 1693.14655426429  L 1541.45255736001 1703.5906230758  L 1525.57515795291 1714.21580290717  L 1501.06479993283 1701.96062389713  L 1489.59443534215 1713.43098848781  L 1476.67518259264 1700.51173573831  L 1462.12593066446 1729.61023959466  L 1475.95073851323 1764.08170370665  L 1501.66850333234 1751.2228212971  L 1510.30146194532 1755.50911543362  L 1498.40850497498 1809.17834765001  L 1516.15738492056 1826.92722759559  L 1504.74739066983 1849.74721609705  L 1504.74739066983 1854.63721363308  L 1504 1856.50869417156  L 1504 1871  L 1530.40478514899 1871  L 1548.75736849407 1896.05126683943  L 1579.2443901693 1889.95386250438  L 1588.66216320165 1899.37163553673  Z M 2155.84150704081 1001.24208808647  L 2149.80447304571 1019.35319007176  L 2162.18039273566 1023.45837318842  L 2148.05373318714 1028.1672597046  L 2155.29817398125 1035.47207083866  L 2144.49188313003 1046.27836168988  L 2144.49188313003 1055.75650506218  L 2103.13820026363 1045.43317693057  L 2114.78967587416 1010.53912043892  L 2098 994.299498992115  L 2098 969.064696892618  L 2124.75078196607 955.360629723753  L 2149.68373236581 970.332474031588  L 2137.30781267587 995.084313411477  L 2155.84150704081 1001.24208808647  Z M 2070.53821669012 935.498787879891  L 2098.2482027276 907.788801842406  L 2109.29597493863 930  L 2130.42559392146 930  L 2120.0418954499 950.893224567383  L 2092 965.32173581566  L 2092 989.650982815892  L 2079.83524904257 1003  L 2058.16229700017 1003  L 2041 985.908021738933  L 2041 971.238029130852  L 2059.00748175949 965.502846835512  L 2066.55377425336 950.349891507824  L 2056.4115571416 940.207674396065  L 2070.53821669012 935.498787879891  Z M 1190.09717884549 1654.69064771554  L 1189.97643816559 1654  L 1179 1654  L 1179 1638.02843388908  L 1153.99571555482 1662.53879190916  L 1159.91200887002 1680.22730151479  L 1145.60423830164 1689.76581522704  L 1110.28758943034 1660  L 1085.05278733084 1660  L 1058 1667.00619706553  L 1058 1679.80470913513  L 1041.58614256616 1690.6713703263  L 1011.09912089093 1696.76877466135  L 974.997657600264 1732.87023795201  L 906.416951415987 1738.60542024735  L 900.440287760843 1702  L 887.52103501134 1702  L 868.323266906939 1670.56804712263  L 855.645495517239 1683.24581851233  L 845.141056365774 1672.74137936087  L 794.369600467027 1660.06360797117  L 756.034434598175 1698.39877384002  L 755.370360858714 1699.06284757948  L 756.034434598175 1700.3909950584  L 756.034434598175 1709.8691384307  L 753 1706.85062143316  L 753 1675.82026669837  L 750.419992982737 1673.82804547999  L 734.361482555785 1665.79879026651  L 721.381859466331 1678.77841335596  L 692.705947989631 1684  L 669.402996768564 1684  L 638.493382713679 1666.04027162632  L 614.828209452907 1677.8728582567  L 590.921554832332 1653.96620363612  L 574.138600325969 1659.58064525156  L 568.101566330874 1635.43250927118  L 548.662316866668 1641.89213564594  L 521.918256268399 1615.14807504767  L 528.800475022806 1608.26585629326  L 511.413817116933 1599.57252734032  L 493.906418531159 1611.22400295085  L 464.566433314998 1581  L 455 1581  L 455 1570.47402348396  L 429.430895463546 1564.25587846902  L 423.393861468451 1546.08440614378  L 389.224249056215 1539.26255772932  L 377.995365825338 1561.72032419108  L 356.805376502556 1540.53033486829  L 329.940575224384 1526.94700837933  L 324.507244628798 1532.38033897492  L 295.106889072687 1502.9799834188  L 276.995787087402 1509.0170174139  L 264 1493.1396180068  L 264 1456.91741403623  L 243.007285695018 1438.80631205095  L 243.007285695018 1429.20742799875  L 257.254685923442 1414.96002777032  L 269.328753913632 1439.1081637507  L 286 1423.17039400365  L 286 1396.66781476518  L 255 1360.44561079462  L 255 1338.65191807232  L 274.94319552907 1318.79007622846  L 277.47874980701 1316  L 301.626885787389 1316  L 315.210212276352 1302.67119546156  L 320.341691172183 1277.13454166231  L 325.352429388111 1282.14527987824  L 338.332052477565 1256.24640403928  L 410.112386679243 1268.19973134957  L 440.539038014521 1237  L 455.209030622601 1237  L 461.185694277745 1255.64270063977  L 518.416776551244 1261.98158633462  L 571.603046048029 1232.46049009861  L 583.375262338464 1244.23270638904  L 603.961548261737 1237.41085797458  L 634.08634789726 1207.28605833906  L 681.235583398951 1195  L 728.565929920494 1195  L 760.079247374889 1208.13124309837  L 765.754059330278 1202.45643114299  L 778.673312079781 1211.08938975597  L 763.520356752093 1216.16049831185  L 791.290713129529 1230.04567650057  L 775 1258.17825491771  L 775 1272.36528480618  L 795 1290.47638679147  L 795 1324.22340682405  L 779.397756159192 1337.38414093335  L 817.431070328289 1381.7563407973  L 843.631797867001 1395.09818592646  L 861.742899852285 1389.06115193137  L 909.556209093436 1411  L 945.657672384103 1411  L 976.205064399283 1431.32038989703  L 1024.62207703994 1419.24632190684  L 1048.40799098062 1431.13927887718  L 1039.17132896812 1431.13927887718  L 1063.37983528845 1447.25815964408  L 1057.58428265316 1458.90963525461  L 1072.49575662105 1473.8211092225  L 1090.60685860633 1467.7840752274  L 1104.7938884948 1481.97110511587  L 1111.25351486955 1462.53185565167  L 1138.78238988719 1476.29629316049  L 1131.77943045288 1455  L 1153.93534521487 1455  L 1159.12719445066 1439.71186715021  L 1170.77867006119 1451.36334276074  L 1162.2664521281 1425.76631862154  L 1197.94532303912 1430.83742717742  L 1215.75457332464 1478.34888471882  L 1229.51901083346 1487.52517639136  L 1212.6153156472 1493.1396180068  L 1227.58715995503 1508.11146231463  L 1238.93678386581 1547.89551634231  L 1233.14123123052 1553.6910689776  L 1238.75567284596 1601.202526519  L 1234 1608.08474527341  L 1234 1626.01473623884  L 1222.93864377881 1615.63103776727  L 1214.90938856533 1639.77917374765  L 1226.44012349596 1657.04509097362  L 1218.22975726263 1665.25545720695  L 1206.15568927244 1653.18138921676  L 1194.92680604157 1664.41027244764  L 1192.39125176363 1659.27879355181  L 1190.9423636048 1654.69064771554  L 1190.09717884549 1654.69064771554  Z M 2308.69920779661 1534.13107883349  L 2305.43920943926 1536.12330005187  L 2306.16365351867 1536.72700345138  L 2351.74326018163 1575.78661339965  L 2354.88251785908 1575.78661339965  L 2340.75585831056 1585.20438643199  L 2355 1592.75067892586  L 2355 1612.85400212953  L 2337 1618.89103612462  L 2337 1656.01879519446  L 2322.58438598533 1671.11138018219  L 2313 1662.05582918955  L 2313 1678.41619131626  L 2310.51031799514 1678.41619131626  L 2310.51031799514 1681.0724862741  L 2303.86958060053 1677.7521175768  L 2290.28625411157 1691.33544406576  L 2289.68255071206 1691.93914746527  L 2289.1392176525 1694.1124797035  L 2280.02329631991 1716.32876480545  L 2275.91811320324 1708.11839857212  L 2252.37368062237 1714.03469188732  L 2245.79331356772 1687.65285332875  L 2225.20702764445 1708.23913925203  L 2210.05407231676 1703.16803069615  L 2199.18741112559 1681.49507865376  L 2206.13000021995 1667.67027080499  L 2186 1661.21064443024  L 2186 1637.96806354912  L 2168.64001911041 1619.85696156384  L 2168.64001911041 1610.25807751164  L 2212.16703421504 1566.731062407  L 2206.73370361946 1561.29773181142  L 2236.91887359493 1543.18662982614  L 2227.25961920278 1533.52737543398  L 2233.77961591748 1533.52737543398  L 2251.16627382335 1504.60998259748  L 2286.78477439441 1528.39589653815  L 2304.53365433999 1510.64701659257  L 2318.35846218876 1524.47182444134  L 2308.69920779661 1534.13107883349  Z M 1741.15764191775 1798.55316781865  L 1724.13320605158 1792.87835586326  L 1711.63654568173 1805  L 1723.65024333197 1805  L 1718.27728307634 1810.56686546888  L 1703 1803.32242467477  L 1703 1816.42278844412  L 1672.81841709327 1808.6953849304  L 1684.40952236386 1820.28649020099  L 1675.59545273102 1829.10055983382  L 1649 1823.84834025809  L 1649 1812.37797566741  L 1632.97399272565 1804.16760943408  L 1620.1151103161 1829.88537425319  L 1580.45179696832 1843.10647870244  L 1587.81697844234 1850.47166017646  L 1579.60661220901 1858.68202640979  L 1543.98811163795 1834.95648280907  L 1510.54294330512 1851.67906697548  L 1510.54294330512 1851.25647459582  L 1523.28108503477 1825.78019113652  L 1504.80776100979 1807.30686711153  L 1517.06294001983 1752.30948741622  L 1501.54776265243 1744.52171356255  L 1478.96925551078 1755.81096713337  L 1468.64592737917 1729.91209129442  L 1478.24481143137 1710.71432319002  L 1489.47369466224 1721.94320642089  L 1502.15146605194 1709.26543503119  L 1525.93737999262 1721.15839200153  L 1546.28218455609 1707.63543585252  L 1550.99107107226 1696.40655262164  L 1569.34365441735 1691.81840678537  L 1581.41772240754 1689.04137114763  L 1584.25512838523 1688.07544570841  L 1605.50548804797 1682.76285579273  L 1603.51326682959 1681.43470831381  L 1603.87548886929 1681.3139676339  L 1601.4003049313 1680.04619049493  L 1564.93661960093 1655.77731383465  L 1564.93661960093 1647.50657726137  L 1579.60661220901 1642.61657972535  L 1596.51030739528 1653.84546295622  L 1601.4003049313 1654.99249941529  L 1604.237710909 1654  L 1618.18325943767 1654  L 1629.89510538815 1630.90473377486  L 1649 1637.42473048956  L 1649 1614.0010385886  L 1670.28286281533 1624.38473706016  L 1691 1619.01177680453  L 1691 1642  L 1703 1642  L 1703 1652.6380561572  L 1725.4613535305 1674.25063785964  L 1734 1661.39175545009  L 1734 1676.30322941798  L 1745.74578775402 1699.72692131894  L 1741.2180122577 1708  L 1722.80505857266 1708  L 1714.41358131948 1733.89653373118  L 1745.02134367461 1727.79912939613  L 1733.18875704422 1775  L 1746.10800979372 1775  L 1746.10800979372 1783.76243453066  L 1741.15764191775 1798.55316781865  Z M 1783.47725022336 1400  L 1768.44503557557 1400  L 1756.37096758538 1387  L 1817.82797365545 1387  L 1821.26908303265 1375.05523306274  L 1824.77056274981 1392.98522402818  L 1851.51462334808 1426.37002202105  L 1858.27610142259 1419.60854394654  L 1887.13312391914 1435  L 1952.21235038626 1435  L 1964.4675293963 1473.63999820264  L 1993 1467.7840752274  L 1993 1478.04703301906  L 2008.47750722054 1485.47258483303  L 2025.56231342666 1479.79777287764  L 2030.15045926293 1486.92147299185  L 2028.3393490644 1489.39665692984  L 2064.07859031537 1507.26627755532  L 2054 1517.28775398718  L 2054 1543.91107390555  L 2066 1555.98514189574  L 2066 1581.88401773469  L 2075.00562184649 1581.88401773469  L 2063.1730352161 1592.81104926581  L 2051.76304096537 1581.40105501509  L 2015.48046665485 1595.88993660331  L 2021.27601929014 1601.6854892386  L 2003.16491730486 1607.7225232337  L 2007.51158178133 1612  L 1983.36344580095 1612  L 1966.39938027473 1629.03325323638  L 1950 1608.0847452734  L 1950 1566.54995138715  L 1919.73310749265 1591.90549416655  L 1913.93755485736 1574.57920660063  L 1888.34053071816 1587.37771867023  L 1865.70165323655 1570.35328280406  L 1816.31871515668 1557  L 1794 1557  L 1794 1579  L 1747.31541659274 1579  L 1736.20727404177 1604.03993249669  L 1708.31617698443 1569.8099497445  L 1700.46803279081 1569.8099497445  L 1710.79136092242 1554.35514271706  L 1702.09803196948 1545.66181376412  L 1708.73876936409 1545.66181376412  L 1714.77580335918 1531  L 1756.00874554568 1531  L 1788 1514.14849630973  L 1788 1499.11628166194  L 1760.95911342166 1472.43259140362  L 1757.4576337045 1464.88629890976  L 1752.32615480867 1429.02631697889  L 1761.80429818097 1419.54817360659  L 1775.02540263023 1426.1889110012  L 1783.47725022336 1400  Z M 1975.57567194728 939.845452356359  L 1982.75974240144 954.213593264685  L 1985.77825939899 954.213593264685  L 1961.08679035905 969.004326552667  L 1988.01196197717 989.047279416382  L 1993.38492223281 1005.10578984333  L 1982.51826104164 1026.83911222568  L 1950.40124018773 1033.23836826048  L 1957.10234792229 1053.40206180409  L 1944.60568755244 1078.39538254379  L 1963.62234463699 1097.41203962833  L 1969.23678625243 1125.60498838543  L 1938.50828321739 1180.96459012045  L 1940.13828239607 1182.59458929912  L 1951.18605460709 1193.64236151015  L 1945.5112426517 1239.28233851306  L 1917.31829389461 1261.86084565472  L 1873.85164912993 1255.64270063977  L 1868.53905921425 1271.52010004687  L 1863.83017269807 1266.81121353069  L 1844.14944187406 1286.4919443547  L 1797.00020637237 1298.26416064514  L 1793.49872665522 1298.26416064514  L 1788.54835877924 1283.4130570172  L 1806.53872008462 1247.49270474639  L 1805.93501668511 1242.78381823022  L 1806.53872008462 1241.33493007139  L 1794.52502243438 1157.11830583982  L 1819.39760249417 1119.80943575014  L 1800.44131574958 1100.85314900554  L 1800.44131574958 1091.25426495334  L 1818.31093637506 1073.38464432786  L 1824.34797037015 1043.19947435238  L 1837.0861120998 1030.46133262273  L 1831.77352218412 1015  L 1841.85536895593 1015  L 1847.71129193117 997.076534629858  L 1871.49720587184 1002.99282794505  L 1894.86052743286 956.266184823017  L 1905.84792930393 967.253586694089  L 1930.84125004362 948.538781309296  L 1948.65050032916 954.455074624488  L 1975.57567194728 940.992488815427  L 1975.57567194728 939.845452356359  Z M 1956.55901486273 1199.07569210573  L 1958.73234710096 1201.24902434396  L 2015.5408369948 1220.14494074861  L 2027.37342362519 1208.31235411822  L 2034.73860509921 1211.87420417533  L 2036.12712291808 1226.24234508366  L 2057.43785292076 1221.95605094714  L 2005 1263.43047449344  L 2005 1280  L 2019.46490909162 1280  L 2049.65007906709 1310  L 2073.79821504747 1310  L 2084.66487623864 1321.02377880665  L 2095.16931539011 1342.03265710958  L 2075.9715472857 1351.63154116178  L 2057.25674190091 1326.69859076203  L 2041.37934249381 1342.57599016913  L 2047.0541544492 1359.6004260353  L 2030.63342198254 1365.09412697084  L 2018.86120569211 1388  L 1998.69751214849 1388  L 2024.41527696759 1405.84410643773  L 2036.97230767739 1431  L 2058 1431  L 2058 1461.1433378328  L 2049.40859770729 1461.1433378328  L 2033.95379067984 1481.78999409602  L 2028.0978677046 1472.61370242348  L 2008.96046994015 1479.01295845828  L 1999 1474.36444228205  L 1999 1460.47926409334  L 1968.45197183307 1466.69740910828  L 1956.55901486273 1429  L 1888.82349343776 1429  L 1857.31017598337 1412.06225145268  L 1851.99758606769 1417.37484136836  L 1830.4453747052 1390.38929941028  L 1824.77056274981 1361.23042521398  L 1824.83093308976 1360.98894385417  L 1824.64982206991 1360.74746249437  L 1824.52908139 1360.20412943481  L 1824.2876000302 1360.26449977476  L 1794.22317073463 1312.14933883386  L 1792.6535418959 1304.24082430028  L 1797.78502079173 1304.24082430028  L 1847.22832921156 1291.86490461034  L 1863.76980235812 1275.32343146378  L 1871.13498383214 1282.68861293779  L 1877.89646190664 1262.34380837432  L 1918.94829307329 1268.19973134957  L 1951.12568426714 1242.48196653046  L 1956.55901486273 1199.07569210573  Z M 1643.35769119721 1160.68015589693  L 1643.35769119721 1153.37534476286  L 1643 1147.33831076777  L 1643 1127.47646892391  L 1660.08027536362 1110.63314407759  L 1669.31693737612 1110.8746254374  L 1681.45137570626 1123  L 1715.25876607879 1123  L 1721.29580007388 1099  L 1735.1809782626 1099  L 1728.35912984815 1078.45575288374  L 1777.37984588831 1023.27726216857  L 1774.48206957067 1020.37948585092  L 1782 1020.37948585092  L 1782 1010.17689839921  L 1804.00316580668 1021.04355959038  L 1820.7257499731 1004.32097542397  L 1824.71019240986 1012.2898602975  L 1830.14352300544 1028.6502224242  L 1818.73352875471 1040.06021667493  L 1812.69649475962 1070.24538665041  L 1794 1088.5979699955  L 1794 1103.14722192367  L 1795.24946651379 1104.05277702294  L 1811.6098286405 1120.41313914964  L 1788.18613673953 1155.5486770011  L 1788.42761809934 1157.05793549987  L 1799.71687167017 1241.817892791  L 1782.5716951241 1281.78305783853  L 1782.02836206454 1282.8093536177  L 1782.39058410424 1283.83564939686  L 1788.36724775939 1313.77933801253  L 1818.25056603511 1362.01523963334  L 1813.11908713928 1381  L 1741.76134531726 1381  L 1765.90948129763 1406.81003187694  L 1775.02540263023 1406.81003187694  L 1771.40318223317 1417.61632272816  L 1760.47615070205 1412.18299213258  L 1745.80615809397 1426.85298474066  L 1751.11874800965 1464.10148449039  L 1750.45467427019 1464.40333619015  L 1751.48097004936 1466.57666842838  L 1752.02430310892 1470.62148120509  L 1753.23170990793 1470.44037018524  L 1755.58615316602 1475.45110840117  L 1782.20947308439 1501.65183593988  L 1782.20947308439 1510.76775727248  L 1754.19763534715 1525  L 1710.91210160232 1525  L 1704.87506760723 1539  L 1687.36766902145 1539  L 1702.82247604889 1555.07958679647  L 1688.99766820013 1575  L 1705.29765998688 1575  L 1733.61134942388 1610.62029955134  L 1731 1610.37881819154  L 1731 1650.40435357902  L 1724.37468741138 1664.71212414739  L 1709 1650.10250187926  L 1709 1636  L 1697 1636  L 1697 1611.2843732908  L 1670.88656621484 1617.98548102536  L 1643 1604.22104351654  L 1643 1629.09362357633  L 1626.7558477107 1623.53955230085  L 1614.3195576808 1648  L 1604.17734056904 1648  L 1580.87438934798 1617.38177762585  L 1571 1622.39251584178  L 1571 1595.82956626336  L 1561.85773226343 1604.885117256  L 1548.03292441466 1591.06030940724  L 1572.18106039504 1566.91217342686  L 1560.95217716417 1555.68329019598  L 1579.42550118916 1546.44662818349  L 1591.25808781954 1558.27921481387  L 1608.28252368571 1552.60440285848  L 1614.078076321 1570  L 1630.1969570879 1570  L 1653.98287102858 1522.29849220311  L 1672.09397301386 1528.3355261982  L 1686.34137324228 1499.9010960813  L 1680.9080426467 1494.46776548572  L 1703 1471.58740664431  L 1703 1443  L 1677.88952564915 1443  L 1658.5106465249 1423.77409740316  L 1655.49212952735 1426.79261440071  L 1655.49212952735 1417.79743374802  L 1636.29436142295 1424.19668978282  L 1630.43843844771 1406.56855051714  L 1589 1412.48484383233  L 1589 1400  L 1577.43327997077 1400  L 1583.89290634553 1384.35226541519  L 1571.69809767543 1378.25486108014  L 1576.22587317176 1363  L 1615.88918651953 1363  L 1602.06437867076 1343.90413764805  L 1613.89696530115 1332.07155101767  L 1609.06733810507 1322  L 1623.5562196933 1322  L 1602.42660071047 1301.28267764269  L 1614.50066870066 1289.2086096525  L 1608.94659742517 1283.65453837701  L 1622.28844255433 1274.71972806427  L 1639.49398944035 1286  L 1667 1286  L 1667 1262.58528973413  L 1701 1268.62232372922  L 1701 1224.06901284542  L 1716.88876525746 1210.96864907607  L 1688.93729786018 1176.01422224447  L 1682.11544944572 1182.83607065893  L 1643.35769119721 1160.68015589693  Z M 1779.25132642679 2106.98523462804  L 1808.4102006231 2095.57524037731  L 1823.74426697064 2115.98041528073  L 1801.04501914909 2144.41484539763  L 1794.76650379419 2168.4422406981  L 1754.68059806676 2191.32259953951  L 1710 2180.09371630864  L 1710 2137  L 1720.39024497462 2137  L 1738.68245797976 2112.78078726333  L 1773.2142924317 2106.98523462804  L 1779.25132642679 2106.98523462804  Z M 1974.42863548821 1775  L 1963.92419633674 1806.52205269217  L 1947.86568590979 1822.58056311912  L 1925.64940080784 1811.47242056815  L 1923.53643890956 1810.56686546888  L 1908.62496494168 1825.47833943677  L 1912.97162941814 1838.45796252622  L 1880.25090516473 1822.15797073947  L 1848.73758771033 1830.06648527304  L 1848.73758771033 1827.47056065515  L 1827.7287094074 1837.97499980661  L 1850.36758688901 1787  L 1837.81055617921 1787  L 1843.4853681346 1770.0583673618  L 1821.0879720128 1762.57244520788  L 1785.71095280154 1786.1772481287  L 1773.27466277165 1773.7409580988  L 1764.03800075916 1782.9776201113  L 1763.07207531994 1781  L 1752 1781  L 1752 1769  L 1740.91616055794 1769  L 1753.23170990793 1719.76987418266  L 1723.46913231212 1725.7465378378  L 1727.15172304913 1714  L 1744.96097333466 1714  L 1752.50726582852 1699.54581029909  L 1740 1674.6732302393  L 1740 1609.71474445208  L 1750.99800732975 1585  L 1800 1585  L 1800 1563  L 1815.17167869761 1563  L 1862.50202521915 1575.54513203984  L 1887.6764569787 1594.38067810454  L 1910.37570480025 1583.03105419376  L 1916.65422015515 1601.92697059841  L 1944 1578.98624141705  L 1944 1609.89585547193  L 1975 1652.1550934376  L 1975 1662.17656986945  L 1945 1698.39877384002  L 1945 1714  L 1956.25716316297 1714  L 1951.12568426714 1730.03283197432  L 1969.11604557252 1759.97652058999  L 1961.63012341861 1775  L 1974.42863548821 1775  Z M 309.475029981012 1299.53193778411  L 298.910220489596 1310  L 274.762084509217 1310  L 269.570235273436 1315.28859651131  L 236.426918640365 1293.19305208926  L 223.930258270519 1243.20641060987  L 191.873607756565 1249.66603698463  L 138.928819619584 1226.12160440376  L 122.508087152926 1209.7008719371  L 128.545121148021 1191.58976995181  L 108.200316584552 1171  L 98 1171  L 98 1159.83497113761  L 55.1951581076189 1149.1494209663  L 87.8555120210819 1132.78905883959  L 74.936259271579 1119.86980609009  L 80.0677381674097 1114.73832719426  L 67.2088557578577 1063.30279755605  L 33.7636874250325 1049.90058208694  L 23.8629516730771 1059.80131783889  L 8.34777430568352 1009  L 20 1009  L 20 982.285801341876  L 34.4881315044438 967.193216354139  L 40.5251654995386 973.230250349234  L 59.9040446237932 954  L 74 954  L 74 942.924339693858  L 89.6062518796593 948.236929609541  L 99.5673579715658 938.275823517635  L 104.759207207347 955  L 144.845112934777 955  L 174.849171890398 905.796580624025  L 213 912.075095978923  L 213 899.457694929175  L 222.903962491353 899.457694929175  L 241.498027196245 880.863630224283  L 330 844.098093194156  L 330 801.114411149081  L 346.663159390796 781.735532024826  L 341.954272874622 777.026645508652  L 358 771.834796272871  L 358 744.788883974846  L 342 708.566680004277  L 342 665.160405579545  L 316.598730095224 653.750411328816  L 324.748725988602 641.555602658725  L 330.302797264089 647.109673934212  L 342.376865254279 635.035605944022  L 347.749825509914 640.408566199657  L 390.974988914793 621.874871834716  L 439.935334615011 634.130050844758  L 449.292737307408 624.772648152361  L 430 605.393769028107  L 430 595.251551916348  L 464.868285014753 490.3279010816  L 497.951231307872 506.86937422816  L 554.035277122303 513.26863026296  L 585.790075936502 500.590858873261  L 599.07155072571 480.668646689448  L 587.057853075472 420.660528778206  L 608.549694098009 399.168687755669  L 620.261540048493 405.024610730911  L 640.847825971766 391.260173222094  L 646.945230306812 360.773151546866  L 657.147817758523 350.570564095156  L 681.295953738902 356.60759809025  L 690.834467451151 347.069084378001  L 702.002980342077 391.682765601751  L 732.550372357256 403.877574271843  L 746.012958166318 430.742375550014  L 752.049992161413 424.70534155492  L 757.362582077096 435.390891726237  L 776.198128141792 429.112376371339  L 795.094044546439 448.008292775985  L 800.648115821926 442.454221500498  L 846.589944524597 511.33677938453  L 852.204386140036 539.34861712177  L 839.949207129993 551.603796131812  L 846.167352144941 570.318601516606  L 834.214024834653 594.225256137182  L 841.398095288816 637.208938182257  L 849.849942881949 628.757090589124  L 867.961044867233 640.831158579314  L 874.420671241985 634.371532204562  L 908.892135353976 649  L 969.262475304924 649  L 1035.66984925097 695  L 1062.65539120904 695  L 1056.61835721395 713  L 1070.38279472276 713  L 1075.93686599825 740.200738138574  L 1111.01203350975 793.205896615506  L 1086.86389752937 811.316998600791  L 1099.72277993892 830.575137045144  L 1094.65167138304 845.728092372831  L 1070.98649812227 851.644385688024  L 1061.14613271027 866.374748636055  L 1056.61835721395 858  L 1041.58614256616 858  L 1004.51875383628 888.168441358348  L 980.491358535801 923.96805294926  L 943.54471048582 930.125827624257  L 925.192127140732 1009.75430601956  L 908.590283654221 1026.35614950607  L 909.375098073584 1026.35614950607  L 916.257316827992 1033.78170132003  L 803.304410779768 1063.4839085759  L 811.333665993244 1087.51130387638  L 827.573287440049 1082.07797328079  L 821.777734804758 1116  L 835.783653673377 1116  L 849.004758122635 1136.7131309364  L 854.679570078024 1131.03831898101  L 863.614380390764 1148.96830994644  L 835 1166.53607887217  L 835 1182.47384861922  L 853 1188.51088261431  L 853 1203.18087522239  L 842.484761407933 1213.1419813143  L 812.541072792263 1204.87124474102  L 792.317008908695 1207.46716935891  L 783.925531655513 1207.46716935891  L 764.546652531259 1194.54791660941  L 758.147396496459 1200.94717264421  L 729.833707059464 1189  L 680.390398639638 1189  L 630.524497840155 1201.73198706357  L 600.278957524729 1231.977527379  L 584.643039477434 1237.22974695473  L 572.26711978749 1224.85382726479  L 516.786777372568 1255.70307097972  L 465.35124773436 1249.96788868438  L 459.253843399315 1231  L 437.701632036826 1231  L 407.757943421156 1261.55899395496  L 334.649461740558 1249.36418528487  L 323.480948849633 1271.76158140667  L 316.417619075371 1264.69825163241  L 309.475029981012 1299.53193778411  Z M 2319.56586898778 1048.02910154846  L 2319.56586898778 1042.77688197273  L 2328.62141998042 1033.72133098008  L 2333.75289887625 1038.85280987591  L 2319.56586898778 1048.02910154846  Z M 2341.11808035027 1034.14392335974  L 2337.67697097306 1036.31725559797  L 2337.67697097306 1030.70281398254  L 2341.11808035027 1034.14392335974  Z M 2797.27636901963 778.958496387083  L 2797.09525799978 779.622570126544  L 2795.1030367814 780.407384545906  L 2797.27636901963 778.958496387083  Z M 2249.11368226502 1811.11019852844  L 2250.9851628035 1807.30686711153  L 2251.95108824272 1808.27279255075  L 2249.11368226502 1811.11019852844  Z M 1625.24658921193 1040.42243871464  L 1599.40808371292 1079.18019696315  L 1638.70917502099 1092.2805607325  L 1654.16398204843 1107.73536775995  L 1637 1124.75980362611  L 1637 1147  L 1614.98363142026 1147  L 1599 1160.98200759668  L 1599 1198.47198870622  L 1601.1588235715 1200.3434692447  L 1625.30695955188 1212.41753723489  L 1625.30695955188 1220.74864414812  L 1601.5210456112 1232.64160111846  L 1595.96697433572 1260.41195749589  L 1579.1236494894 1251.96010990276  L 1582.2025368269 1248.88122256526  L 1587.33401572273 1243  L 1571 1243  L 1571 1231  L 1557.75254914677 1231  L 1551 1221.89568060719  L 1551 1173.23718660672  L 1528.0503418909 1142.20683187194  L 1506.98109324802 1131.58165204057  L 1570.73217223622 1110.08981101803  L 1576.88994691122 1048.33095324821  L 1586.85105300312 1028.4087410644  L 1595 1036.61910729773  L 1595 1019.41356041171  L 1609.36918980483 1014.64430355558  L 1625.24658921193 1030.52170296268  L 1625.24658921193 1040.42243871464  Z M 2266.5003401709 1210.54605669641  L 2269.51885716844 1207.52753969886  L 2277 1207.52753969886  L 2277 1221.35234754763  L 2266.5003401709 1210.54605669641  Z M 1976.96418976615 1985.64085132663  L 1969.41789727228 1983.10529704869  L 1969.41789727228 1979.12085461193  L 1976.30011602669 1975.67974523473  L 1981.12974322276 1977.3097444134  L 1976.96418976615 1985.64085132663  Z M 2245.24998050816 1805.19390521325  L 2243.31812962973 1809.17834765001  L 2239.33368719297 1805.19390521325  L 2245.24998050816 1805.19390521325  Z M 2118.29115559132 1577.95994563788  L 2108.02819779966 1583.09142453371  L 2114.18597247465 1573.85476252122  L 2118.29115559132 1577.95994563788  Z M 2331.82104799782 1016.33467307421  L 2337.67697097306 1022.1302257095  L 2337.67697097306 1019.23244939186  L 2331.82104799782 1016.33467307421  Z M 2204 1412  L 2204 1401.85966400097  L 2216.33258767166 1405.66299541787  L 2211.86518251529 1423.4722457034  L 2190.49408217265 1412  L 2204 1412  Z M 2109.11486391877 997  L 2126 997  L 2126 964.899143436003  L 2101.447830745 973.230250349234  L 2109.11486391877 997  Z M 1371.75153175789 1379.10004583946  L 1371.75153175789 1374.81375170294  L 1373.92486399613 1372.64041946471  L 1371.75153175789 1379.10004583946  Z M 2120 990.19431587545  L 2113.46152839524 990.19431587545  L 2109.05449357882 977.033581766143  L 2120 973.290620689185  L 2120 990.19431587545  Z " fill-rule="nonzero" fill="#0a7294" stroke="none" fill-opacity="0.498039215686275" transform="matrix(1 0 0 1 -877 -941 )" />
  </g>
</svg>