<?xml version="1.0" encoding="utf-8"?>
<svg version="1.1" xmlns:xlink="http://www.w3.org/1999/xlink" width="28px" height="8px" preserveAspectRatio="xMinYMid meet" viewBox="104 165  28 6" xmlns="http://www.w3.org/2000/svg">
  <g transform="matrix(-0.838670567945423 -0.544639035015029 0.544639035015029 -0.838670567945426 125.463769135035 373.164061546605 )">
    <path d="M 460.842470175911 0.327910991751359  C 460.842470175911 0.327910991751359  443.890148277954 13.3278726261271  440.052261912786 22.3422597352771  C 434.07669272764 36.3753309035106  429.269392060389 84.9213504699788  420.151926265417 84.6276232495685  C 412.978260430006 84.3997314406292  407.718566421783 42.8981009015921  400.559814652558 41.9004412046805  C 393.418462627216 40.9078457701898  383.908259756015 69.5158641856896  378.330399002494 78.6517935929408  C 374.104746916493 85.5695760598502  363.570444833861 102.595626318818  358.738287389634 97.5870707845772  C 347.227113971827 85.6506042585843  350.662320549976 10.2538653366584  338.644068881849 0.61150968732025  C 333.468887915347 -3.54118549779389  323.302466131967 14.5990024937655  318.92518770641 21.5927488969883  C 313.745035384512 29.8728179551124  304.997935566489 53.847036255515  298.453146188583 55.3663149817764  C 293.451962660915 56.5310953385767  284.376753386803 41.3940149625935  279.363141470648 42.315710723192  C 273.752966907057 43.343755994629  264.558445103458 58.9315557260694  259.519976410326 64.0667178208326  C 254.909044281189 68.7663533474008  244.901705870459 77.8769614425475  239.801095234886 76.3475541914444  C 234.131264406551 74.6510262804527  225.133111141066 56.404488778055  219.455823279639 54.8548244772685  C 214.526724405203 53.5077306733167  204.852466805958 61.2509879148284  200.114765114242 64.3199309418761  C 195.168266495922 67.5256090542873  185.329954168633 76.362746978707  180.144830491339 75.8968348359869  C 174.98704926872 75.4359869556877  165.516617240682 64.5123729138692  160.363807373458 63.8084404373682  C 155.407366044349 63.1298292729716  144.858149895532 68.8169959716095  140.488328503067 64.0008824093611  C 134.174707151041 57.0375215806639  127.791486823482 23.9780164972185  120.707305385186 21.5876846345674  C 115.534610096381 19.8455783617877  105.785782166206 37.529982735469  100.739856439981 34.6433531555725  C 94.5778614275123 31.1186265106465  87.4514234683561 3.33101860732781  81.1477448271214 1.05716478035689  C 75.6767682145986 -0.917897563782791  64.9784114039226 13.0442739305582  61.3344078991711 21.5927488969883  C 55.2693543169105 35.8233262996356  50.6136799892162 85.4075196623825  41.3644732762688 85.0530212929216  C 34.1236941430208 84.7744868597736  28.7546303161017 41.4395933243813  21.5213082159467 42.0675618645694  C 12.8786068612253 42.8120084404375  0.0450529082698239 97.3338576635335  0.0450529082698239 97.3338576635335  " stroke-width="1.99501246882793" stroke="#1890ff" fill="none" transform="matrix(1 0 0 1 8 140 )" />
  </g>
</svg>