<?xml version="1.0" encoding="utf-8"?>
<svg version="1.1" xmlns:xlink="http://www.w3.org/1999/xlink" width="463px" height="100px" xmlns="http://www.w3.org/2000/svg">
  <g transform="matrix(1 0 0 1 -7.5 -140.5 )">
    <path d="M 0.157529824088552 0.324598759511446  C 0.157529824088552 0.324598759511446  17.1098517220461 13.1932476501056  20.9477380872144 22.1165803440117  C 26.9233072723599 36.0079033186266  31.7306079396105 84.0635590510901  40.8480737345829 83.7727987723001  C 48.0217395699938 83.5472089008249  53.2814335782166 42.464786751071  60.4401853474423 41.4772044248352  C 67.5815373727841 40.4946352068546  77.0917402439846 68.8136837393695  82.6696009975063 77.8573310313959  C 86.8952530835075 84.7052369077305  97.4295551661388 101.559306861052  102.261712610366 96.6013427968542  C 113.772886028173 84.7854466398107  110.337679450024 10.1502909393184  122.355931118151 0.605332821791762  C 127.531112084653 -3.50541594731112  137.697533868033 14.4515378221113  142.07481229359 21.3746403222713  C 147.254964615488 29.5710723192021  156.002064433511 53.3031267983886  162.546853811417 54.8070592748898  C 167.548037339085 55.9600741735405  176.623246613197 40.975893599335  181.636858529352 41.8882793017456  C 187.247033092943 42.9059402775115  196.441554896542 58.3362874864122  201.480023589674 63.4195792569858  C 206.090955718811 68.071743717629  216.098294129541 77.0903254683803  221.198904765114 75.5763667753693  C 226.868735593449 73.8969755099431  235.866888858934 55.8347464671656  241.544176720361 54.3007353411344  C 246.473275594797 52.9672485453034  256.147533194042 60.6322910672038  260.885234885758 63.6702346697359  C 265.831733504078 66.8435321951531  275.670045831367 75.5914061001342  280.855169508661 75.1302001406739  C 286.01295073128 74.6740072894686  295.483382759318 63.8607327834261  300.636192626542 63.1639107359806  C 305.592633955651 62.4921542298102  316.141850104468 68.1218748001791  320.511671496933 63.3544088496706  C 326.825292848959 56.461384999041  333.208513176518 23.7358143103779  340.292694614814 21.3696272140162  C 345.465389903619 19.6451179742949  355.214217833794 37.1508920007673  360.260143560019 34.2934202954152  C 366.422138572488 30.8042969499329  373.548576531644 3.29737195472853  379.852255172879 1.04648634823207  C 385.323231785401 -0.908625871219328  396.021588596077 12.9125135878253  399.665592100829 21.3746403222713  C 405.73064568309 35.4614745188312  410.386320010784 84.5448174435705  419.635526723731 84.1938998657204  C 426.876305856979 83.9181789116951  432.245369683898 41.0210115736299  439.478691784053 41.6426369972505  C 448.121393138775 42.3795639107361  460.95494709173 96.3506873841038  460.95494709173 96.3506873841038  " stroke-width="1.99501246882793" stroke="#1890ff" fill="none" transform="matrix(1 0 0 1 8 141 )" />
  </g>
</svg>