<?xml version="1.0" encoding="utf-8"?>
<svg version="1.1" xmlns:xlink="http://www.w3.org/1999/xlink" width="28px" height="4px" preserveAspectRatio="xMinYMid meet" viewBox="164 209  28 2" xmlns="http://www.w3.org/2000/svg">
  <g transform="matrix(-0.857167300702111 0.515038074910059 -0.515038074910057 -0.857167300702121 438.733775256088 298.328355813455 )">
    <path d="M 460.842470175911 0.324598759511446  C 460.842470175911 0.324598759511446  443.890148277954 13.1932476501056  440.052261912786 22.1165803440117  C 434.07669272764 36.0079033186266  429.269392060389 84.0635590510901  420.151926265417 83.7727987723001  C 412.978260430006 83.5472089008249  407.718566421783 42.464786751071  400.559814652558 41.4772044248352  C 393.418462627216 40.4946352068546  383.908259756015 68.8136837393695  378.330399002494 77.8573310313959  C 374.104746916493 84.7052369077305  363.570444833861 101.559306861052  358.738287389634 96.6013427968542  C 347.227113971827 84.7854466398107  350.662320549976 10.1502909393184  338.644068881849 0.605332821791762  C 333.468887915347 -3.50541594731112  323.302466131967 14.4515378221113  318.92518770641 21.3746403222713  C 313.745035384512 29.5710723192021  304.997935566489 53.3031267983886  298.453146188583 54.8070592748898  C 293.451962660915 55.9600741735405  284.376753386803 40.975893599335  279.363141470648 41.8882793017456  C 273.752966907057 42.9059402775115  264.558445103458 58.3362874864122  259.519976410326 63.4195792569858  C 254.909044281189 68.071743717629  244.901705870459 77.0903254683803  239.801095234886 75.5763667753693  C 234.131264406551 73.8969755099431  225.133111141066 55.8347464671656  219.455823279639 54.3007353411344  C 214.526724405203 52.9672485453034  204.852466805958 60.6322910672038  200.114765114242 63.6702346697359  C 195.168266495922 66.8435321951531  185.329954168633 75.5914061001342  180.144830491339 75.1302001406739  C 174.98704926872 74.6740072894686  165.516617240682 63.8607327834261  160.363807373458 63.1639107359806  C 155.407366044349 62.4921542298102  144.858149895532 68.1218748001791  140.488328503067 63.3544088496706  C 134.174707151041 56.461384999041  127.791486823482 23.7358143103779  120.707305385186 21.3696272140162  C 115.534610096381 19.6451179742949  105.785782166206 37.1508920007673  100.739856439981 34.2934202954152  C 94.5778614275123 30.8042969499329  87.4514234683561 3.29737195472853  81.1477448271214 1.04648634823207  C 75.6767682145986 -0.908625871219328  64.9784114039226 12.9125135878253  61.3344078991711 21.3746403222713  C 55.2693543169105 35.4614745188312  50.6136799892162 84.5448174435705  41.3644732762688 84.1938998657204  C 34.1236941430208 83.9181789116951  28.7546303161017 41.0210115736299  21.5213082159467 41.6426369972505  C 12.8786068612253 42.3795639107361  0.0450529082698239 96.3506873841038  0.0450529082698239 96.3506873841038  " stroke-width="1.99501246882793" stroke="#1890ff" fill="none" transform="matrix(1 0 0 1 8 141 )" />
  </g>
</svg>