<?xml version="1.0" encoding="utf-8"?>
<svg version="1.1" xmlns:xlink="http://www.w3.org/1999/xlink" width="1920px" height="1080px" xmlns="http://www.w3.org/2000/svg">
  <g transform="matrix(1 0 0 1 1 1 )">
    <path d="M 1810 118  L 1920 118  L 1920 114  L 1810 114  L 1810 0  L 1806 0  L 1806 114  L 1641 114  L 1641 0  L 1637 0  L 1637 114  L 1471 114  L 1471 0  L 1467 0  L 1467 114  L 1301 114  L 1301 0  L 1297 0  L 1297 114  L 1131 114  L 1131 0  L 1127 0  L 1127 114  L 962 114  L 962 0  L 958 0  L 958 114  L 793 114  L 793 0  L 789 0  L 789 114  L 623 114  L 623 0  L 619 0  L 619 114  L 453 114  L 453 0  L 449 0  L 449 114  L 283 114  L 283 0  L 279 0  L 279 114  L 114 114  L 114 0  L 110 0  L 110 114  L 0 114  L 0 118  L 110 118  L 110 284  L 0 284  L 0 288  L 110 288  L 110 454  L 0 454  L 0 458  L 110 458  L 110 622  L 0 622  L 0 626  L 110 626  L 110 792  L 0 792  L 0 796  L 110 796  L 110 962  L 0 962  L 0 966  L 110 966  L 110 1080  L 114 1080  L 114 966  L 279 966  L 279 1080  L 283 1080  L 283 966  L 449 966  L 449 1080  L 453 1080  L 453 966  L 619 966  L 619 1080  L 623 1080  L 623 966  L 789 966  L 789 1080  L 793 1080  L 793 966  L 958 966  L 958 1080  L 962 1080  L 962 966  L 1127 966  L 1127 1080  L 1131 1080  L 1131 966  L 1297 966  L 1297 1080  L 1301 1080  L 1301 966  L 1467 966  L 1467 1080  L 1471 1080  L 1471 966  L 1637 966  L 1637 1080  L 1641 1080  L 1641 966  L 1806 966  L 1806 1080  L 1810 1080  L 1810 966  L 1920 966  L 1920 962  L 1810 962  L 1810 796  L 1920 796  L 1920 792  L 1810 792  L 1810 626  L 1920 626  L 1920 622  L 1810 622  L 1810 458  L 1920 458  L 1920 454  L 1810 454  L 1810 288  L 1920 288  L 1920 284  L 1810 284  L 1810 118  Z M 1471 118  L 1637 118  L 1637 284  L 1471 284  L 1471 118  Z M 623 622  L 623 458  L 789 458  L 789 622  L 623 622  Z M 619 458  L 619 622  L 453 622  L 453 458  L 619 458  Z M 793 622  L 793 458  L 958 458  L 958 622  L 793 622  Z M 962 622  L 962 458  L 1127 458  L 1127 622  L 962 622  Z M 1131 622  L 1131 458  L 1297 458  L 1297 622  L 1131 622  Z M 1301 622  L 1301 458  L 1467 458  L 1467 622  L 1301 622  Z M 1467 454  L 1301 454  L 1301 288  L 1467 288  L 1467 454  Z M 1297 288  L 1297 454  L 1131 454  L 1131 288  L 1297 288  Z M 1127 288  L 1127 454  L 962 454  L 962 288  L 1127 288  Z M 958 288  L 958 454  L 793 454  L 793 288  L 958 288  Z M 789 288  L 789 454  L 623 454  L 623 288  L 789 288  Z M 619 288  L 619 454  L 453 454  L 453 288  L 619 288  Z M 449 453.12  L 448.69 454  L 283 454  L 283 288  L 449 288  L 449 453.12  Z M 283 458  L 449 458  L 449 622  L 283 622  L 283 458  Z M 283 626  L 449 626  L 449 792  L 283 792  L 283 626  Z M 453 792  L 453 626  L 619 626  L 619 792  L 453 792  Z M 623 792  L 623 626  L 789 626  L 789 792  L 623 792  Z M 793 792  L 793 626  L 958 626  L 958 792  L 793 792  Z M 962 792  L 962 626  L 1127 626  L 1127 792  L 962 792  Z M 1131 792  L 1131 626  L 1297 626  L 1297 792  L 1131 792  Z M 1301 792  L 1301 626  L 1467 626  L 1467 792  L 1301 792  Z M 1471 792  L 1471 626  L 1637 626  L 1637 792  L 1471 792  Z M 1471.31 622  L 1471 622.88  L 1471 458  L 1637 458  L 1637 622  L 1471.31 622  Z M 1637 454  L 1471 454  L 1471 288  L 1637 288  L 1637 454  Z M 1301 118  L 1467 118  L 1467 284  L 1301 284  L 1301 118  Z M 1131 118  L 1297 118  L 1297 284  L 1131 284  L 1131 118  Z M 962 118  L 1127 118  L 1127 284  L 962 284  L 962 118  Z M 793 118  L 958 118  L 958 284  L 793 284  L 793 118  Z M 623 118  L 789 118  L 789 284  L 623 284  L 623 118  Z M 453 118  L 619 118  L 619 284  L 453 284  L 453 118  Z M 283 118  L 449 118  L 449 284  L 283 284  L 283 118  Z M 114 284  L 114 118  L 279 118  L 279 284  L 114 284  Z M 114 454  L 114 288  L 279 288  L 279 454  L 114 454  Z M 114 622  L 114 458  L 279 458  L 279 622  L 114 622  Z M 114 792  L 114 626  L 279 626  L 279 792  L 114 792  Z M 279 962  L 114 962  L 114 796  L 279 796  L 279 962  Z M 449 962  L 283 962  L 283 796  L 449 796  L 449 962  Z M 619 962  L 453 962  L 453 796  L 619 796  L 619 962  Z M 789 962  L 623 962  L 623 796  L 789 796  L 789 962  Z M 958 962  L 793 962  L 793 796  L 958 796  L 958 962  Z M 1127 962  L 962 962  L 962 796  L 1127 796  L 1127 962  Z M 1297 962  L 1131 962  L 1131 796  L 1297 796  L 1297 962  Z M 1467 962  L 1301 962  L 1301 796  L 1467 796  L 1467 962  Z M 1637 962  L 1471 962  L 1471 796  L 1637 796  L 1637 962  Z M 1806 796  L 1806 962  L 1641 962  L 1641 796  L 1806 796  Z M 1806 626  L 1806 792  L 1641 792  L 1641 626  L 1806 626  Z M 1806 458  L 1806 622  L 1641 622  L 1641 458  L 1806 458  Z M 1806 288  L 1806 454  L 1641 454  L 1641 288  L 1806 288  Z M 1806 118  L 1806 284  L 1641 284  L 1641 118  L 1806 118  Z " fill-rule="nonzero" fill="#ffffff" stroke="none" fill-opacity="0.0470588235294118" transform="matrix(1 0 0 1 -1 -1 )" />
  </g>
</svg>