<?xml version="1.0" encoding="utf-8"?>
<svg version="1.1" xmlns:xlink="http://www.w3.org/1999/xlink" width="1904px" height="339px" xmlns="http://www.w3.org/2000/svg">
  <defs>
    <linearGradient gradientUnits="userSpaceOnUse" x1="961.120882434742" y1="379.87822963604" x2="942.879117565258" y2="-40.8782296360441" id="LinearGradient1938">
      <stop id="Stop1939" stop-color="#0000cc" stop-opacity="0" offset="0" />
      <stop id="Stop1940" stop-color="#0066ff" stop-opacity="0.498039215686275" offset="1" />
    </linearGradient>
  </defs>
  <g transform="matrix(1 0 0 1 0 -741 )">
    <path d="M 1848.46953541508 14  L 1903.4634424981 21.6877380045697  L 1903.4634424981 21.6016755521706  L 1848.38347296268 14  L 1507.1458492003 14  L 1554.9105102818 24.958111195735  C 1553.87776085301 24.958111195735  1553.01713632902 25.044173648134  1552.32863670982 25.1302361005331  C 1551.72619954303 25.2162985529322  1551.29588728104 25.3023610053313  1551.03769992384 25.4744859101295  C 1550.86557501904 25.5605483625286  1550.86557501904 25.7326732673267  1551.12376237624 25.9047981721249  C 1551.38194973343 26.0769230769231  1551.89832444783 26.2490479817212  1552.67288651942 27  L 1480.03617669459 27  L 1389.58453922315 1.03274942878903  C 1389.92878903275 1.03274942878903  1390.27303884235 1.03274942878903  1390.53122619954 0.946686976389944  C 1390.78941355674 0.946686976389944  1390.96153846154 0.860624523990858  1391.04760091394 0.860624523990858  C 1391.13366336634 0.860624523990858  1391.21972581874 0.774562071591772  1391.13366336634 0.688499619192686  C 1391.04760091394 0.6024371667936  1390.96153846154 0.6024371667936  1390.70335110434 0.516374714394513  C 1390.44516374714 0.430312261995427  1390.10091393755 0.430312261995427  1389.75666412795 0.344249809596341  C 1389.32635186596 0.258187357197255  1388.89603960396 0.258187357197255  1388.37966488957 0.172124904798169  C 1387.86329017517 0.172124904798169  1387.43297791318 0.0860624523990831  1386.83054074638 0.0860624523990831  C 1386.22810357959 0.0860624523990831  1385.79779131759 0.0860624523990831  1385.2814166032 0.0860624523990831  C 1384.7650418888 0.0860624523990831  1384.33472962681 0.0860624523990831  1384.07654226961 0.0860624523990831  C 1383.73229246002 0.0860624523990831  1383.47410510282 0.172124904798169  1383.30198019802 0.172124904798169  C 1383.12985529322 0.258187357197255  1383.04379284082 0.258187357197255  1383.12985529322 0.344249809596341  C 1383.12985529322 0.430312261995427  1383.30198019802 0.430312261995427  1383.56016755522 0.516374714394513  C 1383.56016755522 0.516374714394513  1383.56016755522 0.516374714394513  1383.64623000762 0.516374714394513  C 1383.64623000762 0.516374714394513  1383.64623000762 0.516374714394513  1383.73229246001 0.516374714394513  C 1383.73229246001 0.516374714394513  1383.73229246001 0.516374714394513  1383.81835491241 0.516374714394513  C 1383.81835491241 0.516374714394513  1383.81835491241 0.516374714394513  1383.90441736481 1  L 1168.4900990099 1  L 1175.80540746382 5  L 784.049124143183 5  L 773.1191926885 12.4790555978675  C 772.947067783701 12.4790555978675  772.688880426504 12.4790555978675  772.430693069307 12.3929931454684  C 772.17250571211 12.3929931454684  772.000380807311 12.3929931454684  771.742193450114 12.3929931454684  C 771.484006092917 12.3929931454684  771.22581873572 12.3929931454684  770.967631378522 12.3929931454684  L 770.107006854532 12.3929931454684  C 769.246382330541 12.3929931454684  768.38575780655 12.3929931454684  767.611195734958 12.4790555978675  C 766.836633663366 12.5651180502666  766.062071591774 12.5651180502666  765.287509520183 12.6511805026656  C 764.59900990099 12.7372429550647  763.996572734196 12.8233054074638  763.480198019802 12.995430312262  C 762.963823305407 13.0814927646611  762.619573495811 13.2536176694593  762.361386138614 14  L 577.929550647372 14  L 547.0331302361 24.0974866717441  C 545.22581873572 24.0974866717441  543.33244478294 24.1835491241432  541.43907083016 24.3556740289414  C 539.54569687738 24.4417364813404  537.6523229246 24.6138613861386  535.845011424219 24.8720487433359  C 534.037699923838 25.044173648134  532.316450875857 25.3023610053313  530.767326732673 25.5605483625286  C 529.21820258949 25.8187357197258  527.841203351104 26.0769230769231  526.636329017517 27  L 441.864813404417 27  L 531.111576542269 1.2048743335872  C 531.541888804265 1.2048743335872  531.97220106626 1.2048743335872  532.402513328256 1.11881188118812  C 532.832825590251 1.11881188118812  533.177075399847 1.03274942878903  533.607387661843 1.03274942878903  C 533.951637471439 1.03274942878903  534.295887281036 0.946686976389944  534.640137090632 0.860624523990858  C 534.898324447829 0.774562071591772  535.242574257426 0.774562071591772  535.414699162224 0.688499619192686  C 535.672886519421 0.6024371667936  535.845011424219 0.516374714394513  535.845011424219 0.516374714394513  C 535.845011424219 0.430312261995427  535.845011424219 0.430312261995427  535.672886519421 0.344249809596341  C 535.500761614623 0.344249809596341  535.242574257426 0.258187357197255  534.898324447829 0.258187357197255  C 534.554074638233 0.258187357197255  534.123762376237 0.258187357197255  533.693450114242 0.258187357197255  C 533.263137852246 0.258187357197255  532.832825590251 0.258187357197255  532.402513328256 0.258187357197255  C 531.97220106626 0.258187357197255  531.541888804265 0.258187357197255  531.111576542269 0.344249809596341  C 530.681264280274 0.344249809596341  530.250952018279 0.430312261995427  529.906702208682 0.430312261995427  C 529.562452399086 0.516374714394513  529.218202589489 0.516374714394513  528.873952779893 1  L 318.193069306931 1  L 53.8952779893373 50.0883472962681  C 51.3994668697638 50.0883472962681  48.4733434881948 50.1744097486672  45.2890327494287 50.3465346534653  C 42.1047220106625 50.6047220106626  38.7482863670981 50.8629093678599  35.3057882711347 51.1210967250571  C 31.8632901751712 51.4653465346535  28.3347296268087 51.8956587966489  24.9782939832443 52.3259710586443  C 21.62185833968 52.7562833206397  18.4375476009138 53.2726580350343  15.597486671744 53.7890327494288  C 15.597486671744 53.7890327494288  15.5114242193449 53.7890327494288  15.5114242193449 53.7890327494288  C 15.5114242193449 53.7890327494288  15.4253617669458 53.7890327494288  15.4253617669458 53.7890327494288  C 15.4253617669458 53.7890327494288  15.3392993145467 53.7890327494288  15.3392993145467 53.7890327494288  C 15.3392993145467 53.7890327494288  15.2532368621476 53.7890327494288  15.2532368621476 54  L 0.5365575019039 54  L 13.8762376237622 54  C 11.3804265041887 54.6496572734196  9.48705255140885 55.0799695354151  8.19611576542256 55.5102817974105  C 6.99124143183536 55.9405940594059  6.21667936024358 56.2848438690023  6.21667936024358 56.6290936785986  C 6.13061690784449 56.973343488195  6.64699162223901 57.2315308453922  7.85186595582621 57.4036557501904  C 9.05674028941342 57.5757806549886  10.8640517897942 57.6618431073877  13.3598629093677 57.6618431073877  L 0.5365575019039 60.0715917745621  L 0.5365575019039 60.3297791317593  L 14.650799695354 57.6618431073877  C 17.1466108149275 57.6618431073877  19.9866717440973 57.4897182025895  22.9988575780654 57.3175932977913  C 26.0110434120334 57.1454683929932  29.2814166031986 56.8872810357959  32.4657273419648 56.5430312261995  C 35.650038080731 56.1987814166032  38.9204112718963 55.8545316070068  42.0186595582634 55.4242193450114  C 45.1169078446305 54.993907083016  48.0430312261994 54.5635948210206  50.624904798172 55  L 104.672124904798 55  C 103.467250571211 54.3914699162224  102.520563594821 54.6496572734196  101.918126428027 54.9078446306169  C 101.315689261234 55.1660319878142  100.971439451637 55.3381568926123  100.885376999238 55.5102817974105  C 100.885376999238 55.6824067022087  101.143564356436 55.8545316070068  101.746001523229 55.9405940594059  C 102.348438690023 56.026656511805  103.209063214014 56.1127189642041  104.413937547601 56.1127189642041  L 0.5365575019039 77.5422696115765  L 0.5365575019039 77.8004569687738  L 105.618811881188 56.1987814166032  C 107.081873571972 56.1987814166032  108.717060167555 56.1127189642041  110.438309215537 56.026656511805  C 112.159558263519 55.9405940594059  113.966869763899 55.7684691546078  115.77418126428 55.5963442498096  C 117.581492764661 55.4242193450114  119.388804265042 55.1660319878142  121.023990860624 54.9078446306169  C 122.745239908606 54.6496572734196  124.29436405179 54.3914699162224  125.671363290175 54.1332825590251  C 127.04836252856 53.8750952018279  128.081111957349 53.5308453922315  128.769611576542 53.2726580350343  C 129.458111195735 53.014470677837  129.802361005331 52.8423457730388  129.802361005331 52.5841584158416  C 129.802361005331 52.4120335110434  129.458111195735 52.2399086062452  128.683549124143 52.1538461538462  C 127.99504950495 52.0677837014471  126.962300076161 51.981721249048  125.499238385377 51.981721249048  C 124.122239146991 51.981721249048  122.659177456207 52.0677837014471  120.937928408225 52.1538461538462  C 119.302741812643 52.2399086062452  117.581492764661 52.4120335110434  115.77418126428 52.5841584158416  C 113.966869763899 52.7562833206397  112.245620715918 52.9284082254379  110.524371667936 53.1865955826352  C 108.803122619954 53.4447829398325  107.253998476771 53.7029702970297  105.790936785986 54  L 52.0019040365574 54  C 52.0019040365574 53.961157654227  52.0879664889565 53.961157654227  52.0879664889565 53.961157654227  C 52.0879664889565 53.961157654227  52.1740289413555 53.961157654227  52.1740289413555 53.961157654227  C 52.1740289413555 53.961157654227  52.2600913937546 53.961157654227  52.2600913937546 53.961157654227  C 52.2600913937546 53.961157654227  52.3461538461537 53.961157654227  52.3461538461537 53.961157654227  C 54.9280274181263 53.4447829398325  56.9935262757044 53.014470677837  58.3705255140897 52.5841584158416  C 59.9196496572733 51.981721249048  60.694211728865 51.5514089870526  60.9523990860623 51.2932216298553  C 61.1245239908605 50.9489718202589  60.7802741812642 50.6047220106626  59.7475247524751 50.4325971058644  C 58.8008377760852 50.2604722010663  57.1656511805025 50.0883472962681  55.0140898705254 50.0883472962681  L 318.365194211729 1  L 528.1854531607 1  C 528.1854531607 0.688499619192689  528.1854531607 0.688499619192689  528.1854531607 0.688499619192689  C 527.927265803503 0.774562071591775  527.755140898705 0.860624523990861  527.755140898705 0.860624523990861  C 527.755140898705 0.946686976389947  527.755140898705 0.946686976389947  527.927265803503 1.03274942878903  C 528.099390708301 1.11881188118812  528.357578065499 1.11881188118812  528.701827875095 1.11881188118812  C 529.046077684691 1.11881188118812  529.476389946687 1.11881188118812  529.906702208682 1.11881188118812  L 530.250952018279 1.11881188118812  L 440.832063975628 27  L 365.871667936024 27  L 0.5365575019039 116.184310738766  L 0.5365575019039 116.528560548363  L 366.129855293221 27  L 440.229626808835 27  L 135.224295506474 112.397562833206  L 109.405559786748 120  L 0.5365575019039 120  L 0.5365575019039 121  L 109.405559786748 121  L 188.152703731912 97.9390708301599  L 441.262376237624 27  L 526.033891850723 27  C 525.947829398324 26.5932977913176  525.947829398324 26.5932977913176  525.861766945925 26.6793602437167  C 525.775704493526 26.6793602437167  525.775704493526 26.6793602437167  525.689642041127 26.7654226961158  C 525.603579588728 26.7654226961158  525.603579588728 26.7654226961158  525.517517136329 26.8514851485149  C 525.43145468393 26.8514851485149  525.43145468393 26.9375476009139  525.345392231531 26.9375476009139  C 524.312642802742 27.2817974105103  523.710205635948 27.6260472201066  523.452018278751 27.970297029703  C 523.279893373953 28.3145468392993  523.452018278751 28.5727341964966  523.968392993145 28.8309215536938  C 524.570830159939 29.0891089108911  525.517517136329 29.2612338156893  526.722391469916 29.4333587204874  C 528.013328255902 29.6054836252856  529.648514851485 29.6915460776847  531.541888804265 29.6915460776847  L 356.83511043412 91  L 466.392612338157 91  C 464.843488194973 91.1401370906321  463.810738766184 91.8286367098248  463.466488956588 92.4310738766184  C 463.122239146991 93.033511043412  463.380426504189 93.6359482102056  464.15498857578 94.1523229246001  C 464.929550647372 94.6686976389947  466.392612338157 95.0990099009901  468.285986290937 95.3571972581874  C 470.179360243716 95.6153846153846  472.67517136329 95.7875095201828  475.601294744859 95.8735719725819  L 420.779512566641 120.315308453922  L 420.177075399847 121  L 269.137471439451 121  L 81.8655750190402 185  L 0.5365575019039 185  L 0.5365575019039 186  L 79.7140137090631 186  L 0.5365575019039 214.037319116527  L 0.5365575019039 220  L 473.277608530084 220  L 305.886138613861 337  L 0.5365575019039 337  L 0.5365575019039 339  L 1903.4634424981 339  L 1903.4634424981 337  L 1753.88690022848 337  L 1567.38956587966 230.044935262757  C 1570.05750190404 229.958872810358  1572.12300076161 229.700685453161  1573.6721249048 229.270373191165  C 1575.22124904798 228.84006092917  1576.16793602437 228.237623762376  1576.59824828637 227.463061690784  C 1577.02856054836 226.688499619193  1576.85643564356 225.827875095202  1576.08187357197 224.881188118812  C 1575.30731150038 223.934501142422  1574.01637471439 222.901751713633  1572.03693830922 221.782939832445  C 1571.77875095202 221.610814927647  1571.60662604722 221.524752475248  1571.34843869002 221.352627570449  C 1571.09025133283 221.26656511805  1570.83206397563 221.094440213252  1570.57387661843 221.008377760853  C 1570.31568926123 220.922315308454  1570.05750190404 220.750190403656  1569.79931454684 220.664127951257  C 1569.54112718964 220.578065498858  1569.28293983244 220.405940594059  1569.02475247525 220  L 1723.42079207921 220  L 1903.54950495049 300.530083777609  L 1903.54950495049 299.325209444021  L 1725.65841584158 220  L 1903.5495049505 220  L 1903.5495049505 219  L 1723.59291698401 219  L 1649.40708301599 186  L 1773.16488956588 186  L 1596.82292460015 121  L 1675.74219345011 121  C 1675.82825590251 120.315308453922  1675.82825590251 120.315308453922  1675.82825590251 120.401370906321  C 1675.91431835491 120.401370906321  1675.91431835491 120.401370906321  1675.91431835491 120.401370906321  C 1676.00038080731 120.401370906321  1676.00038080731 120.401370906321  1676.08644325971 120.48743335872  C 1676.08644325971 120.48743335872  1676.17250571211 120.48743335872  1676.25856816451 120.48743335872  C 1677.89375476009 121.003808073115  1679.87319116527 121.606245239909  1682.02475247525 122.036557501904  C 1684.17631378522 122.552932216299  1686.5 122.983244478294  1688.90974866717 123.32749428789  C 1691.31949733435 123.671744097487  1693.72924600152 124.015993907083  1696.0529322163 124.188118811881  C 1698.37661843107 124.446306169078  1700.61424219345 124.532368621477  1702.59367859863 124.532368621477  L 1891.67288651942 186  L 1903.3773800457 186  L 1903.3773800457 185  L 1891.41469916222 185  L 1704.05674028941 124.532368621477  C 1705.691926885 124.446306169078  1706.89680121858 124.360243716679  1707.75742574257 124.102056359482  C 1708.61805026656 123.843869002285  1709.04836252856 123.585681645088  1709.04836252856 123.241431835491  C 1709.04836252856 122.897182025895  1708.70411271896 122.466869763899  1707.84348819497 122.036557501904  C 1707.06892612338 121.606245239909  1705.86405178979 121.089870525514  1704.22886519421 120.57349581112  C 1704.14280274181 120.57349581112  1704.14280274181 120.57349581112  1704.05674028941 120.57349581112  C 1703.97067783701 120.57349581112  1703.97067783701 120.57349581112  1703.88461538462 120.48743335872  C 1703.79855293222 120.48743335872  1703.79855293222 120.48743335872  1703.71249047982 120.48743335872  C 1703.62642802742 120.48743335872  1703.62642802742 120.48743335872  1703.54036557502 121  L 1814.13061690784 121  L 1480.72467631379 27  L 1553.44744859101 27  C 1554.308073115 26.6793602437167  1555.25476009139 26.8514851485149  1556.37357197258 27.023610053313  C 1557.49238385377 27.1957349581112  1558.61119573496 27.3678598629094  1559.90213252094 27.4539223153085  C 1561.10700685453 27.5399847677075  1562.39794364052 27.6260472201066  1563.6028179741 27.7121096725057  C 1564.80769230769 27.7981721249048  1566.01256664128 27.7981721249048  1567.13137852247 27.7981721249048  L 1824.54417364813 91  L 1903.4634424981 91  L 1903.4634424981 90  L 1824.45811119573 90  L 1567.99200304646 27.7981721249048  C 1569.02475247525 27.7981721249048  1569.79931454684 27.7121096725057  1570.48781416603 27.7121096725057  C 1571.09025133283 27.6260472201066  1571.52056359482 27.5399847677075  1571.77875095202 27.4539223153085  C 1572.03693830921 27.2817974105103  1572.03693830921 27.1957349581112  1571.77875095202 27.023610053313  C 1571.52056359482 26.8514851485149  1571.09025133283 26.6793602437167  1570.48781416603 27  L 1670.75057121097 27  L 1903.4634424981 74.3579588728104  L 1903.4634424981 74.0997715156131  L 1670.92269611576 27  L 1569.88537699924 27  C 1569.02475247525 26.1629855293222  1568.07806549886 25.990860624524  1566.95925361767 25.8187357197258  C 1565.84044173648 25.6466108149276  1564.63556740289 25.4744859101295  1563.34463061691 25.3884234577304  C 1562.05369383092 25.3023610053313  1560.76275704493 25.1302361005331  1559.55788271135 25.044173648134  C 1558.26694592536 24.958111195735  1557.06207159177 24.958111195735  1555.94325971059 24.8720487433359  L 1508.69497334349 14  L 1848.46953541508 14  Z M 773.893754760091 12.8233054074638  L 784.651561309977 5  L 1175.97753236862 5  L 1214.27532368621 27  L 1073.90746382331 27  L 1080.87852246763 35.974105102818  C 1078.98514851485 36.0601675552171  1077.34996191927 36.1462300076161  1075.80083777608 36.3183549124143  C 1074.3377760853 36.4904798172125  1073.04683929931 36.7486671744097  1072.01408987053 37.006854531607  C 1070.98134044174 37.2650418888043  1070.20677837014 37.6092916984006  1069.77646610815 37.953541507997  C 1069.34615384615 38.2977913175933  1069.26009139375 38.6420411271896  1069.51827875095 39.0723533891851  C 1069.51827875095 39.0723533891851  1069.51827875095 39.0723533891851  1069.51827875095 39  L 965.12452399086 39  L 964.694211728865 27  L 920.974485910129 27  C 920.974485910129 27.023610053313  920.974485910129 27.023610053313  920.974485910129 27.023610053313  C 920.974485910129 26.8514851485149  920.88842345773 26.6793602437167  920.630236100533 26.5932977913176  C 920.372048743335 26.4211728865194  919.94173648134 26.3351104341203  919.425361766945 26.2490479817213  C 918.908987052551 26.1629855293222  918.306549885757 26.0769230769231  917.618050266565 25.990860624524  C 916.929550647372 25.9047981721249  916.15498857578 25.9047981721249  915.294364051789 25.8187357197258  L 918.99504950495 14  L 775.184691546078 14  C 775.270753998477 13.4257425742574  775.270753998477 13.3396801218583  775.270753998477 13.3396801218583  C 775.270753998477 13.2536176694593  775.184691546078 13.1675552170602  775.098629093679 13.1675552170602  C 775.012566641279 13.0814927646611  774.840441736481 13.0814927646611  774.582254379284 12.995430312262  C 774.410129474486 12.9093678598629  774.151942117289 12.9093678598629  773.893754760091 12.8233054074638  Z M 1298.01408987053 185  L 1167.71553693831 69  L 1107.47182025895 69  L 1096.36976389947 55  L 1243.6226199543 55  C 1244.48324447829 54.6496572734196  1245.86024371668 55.0799695354151  1247.58149276466 55.5963442498096  C 1249.21667936024 56.026656511805  1251.28217821782 56.4569687738005  1253.5198019802 56.8012185833968  C 1255.75742574257 57.1454683929931  1258.16717440975 57.4036557501904  1260.66298552932 57.5757806549886  C 1263.1587966489 57.7479055597867  1265.74067022087 57.9200304645849  1268.32254379284 57.9200304645849  L 1376.50304645849 121  L 1498.3674790556 121  L 1645.79246001523 185  L 1298.01408987053 185  Z M 1166.76884996192 69  L 1295.86252856055 185  L 1199.90289413557 185  L 1107.64394516375 69  L 1166.76884996192 69  Z M 1050.24028941356 68.1614623000762  C 1050.06816450876 67.8172124904798  1049.72391469916 67.5590251332826  1049.12147753237 67.3008377760853  C 1048.51904036557 67.042650418888  1047.74447829398 66.7844630616908  1046.79779131759 66.6123381568926  C 1045.8511043412 66.4402132520945  1044.81835491241 66.1820258948972  1043.61348057883 66.0959634424981  C 1042.40860624524 65.9238385376999  1041.20373191165 65.8377760853008  1039.82673267327 65.8377760853008  L 1034.74904798172 55  L 1095.07882711348 55  L 1106.09482102056 68.3335872048743  L 1050.24028941356 68.1614623000762  Z M 1067.53884234577 213.77913175933  C 1066.42003046458 215.242193450114  1065.98971820259 216.963442498096  1066.42003046458 218.770753998477  C 1066.42003046458 218.942878903275  1066.50609291698 219.115003808073  1066.59215536938 219.201066260472  C 1066.59215536938 219.201066260472  1066.59215536938 219.201066260472  1066.59215536938 219.287128712871  C 1066.59215536938 219.287128712871  1066.59215536938 219.287128712871  1066.59215536938 219  L 681.634805788271 219  C 681.979055597867 218.856816450876  682.065118050266 218.42650418888  681.892993145468 217.996191926885  C 681.72086824067 217.56587966489  681.376618431074 217.221629855293  680.860243716679 216.877380045697  C 680.343869002285 216.533130236101  679.569306930693 216.274942878903  678.708682406702 216.102817974105  C 677.848057882711 215.930693069307  676.815308453922 215.758568164509  675.610434120335 215.758568164509  L 693.597486671744 194.501142421935  L 700.310357958873 186  L 970.460396039604 186  L 966.243335872049 69  L 1028.38042650419 69  C 1028.63861386139 68.8499619192689  1029.24105102818 69.1942117288652  1029.92955064737 69.4523990860625  C 1030.61805026656 69.7105864432598  1031.56473724296 69.968773800457  1032.59748667174 70.1408987052552  C 1033.63023610053 70.3130236100534  1034.83511043412 70.4851485148515  1036.12604722011 70.5712109672506  C 1037.41698400609 70.6572734196497  1038.79398324448 70.7433358720488  1040.17098248286 70.7433358720488  L 1040.42916984006 70.7433358720488  C 1040.42916984006 70.7433358720488  1040.51523229246 70.7433358720488  1040.51523229246 70.7433358720488  L 1040.60129474486 70.7433358720488  L 1098.09101294745 205.431073876618  L 1097.74676313785 205.431073876618  C 1097.66070068545 205.431073876618  1097.48857578066 205.431073876618  1097.40251332826 205.431073876618  L 1096.71401370906 205.431073876618  C 1091.89451637471 205.431073876618  1087.50533130236 205.775323686215  1083.6325209444 206.463823305408  C 1079.75971058644 207.1523229246  1076.31721249048 208.09900990099  1073.64927646611 209.389946686976  C 1070.89527798934 210.594821020564  1068.82977913176 212.143945163747  1067.53884234577 213.77913175933  Z M 397.628712871287 184.60396039604  C 397.886900228484 184.259710586443  397.972962680883 183.915460776847  397.886900228484 183.65727341965  C 397.714775323686 183.399086062452  397.456587966489 183.140898705255  396.940213252094 182.968773800457  C 396.4238385377 182.796648895659  395.735338918507 182.624523990861  394.874714394516 182.538461538462  L 509.509900990099 121.175932977913  L 509.940213252094 121  L 615.366717440975 121  L 522.849581111957 185  L 396.165651180503 185  C 396.854150799695 185.292460015232  397.37052551409 184.948210205636  397.628712871287 184.60396039604  Z M 1242.41774562072 52.4120335110434  C 1242.24562071592 52.9284082254379  1242.41774562072 53.3587204874334  1243.19230769231 54  L 1096.11157654227 54  L 1086.90289413557 42.0845392231531  C 1087.07501904037 42.0845392231531  1087.24714394516 42.0845392231531  1087.41926884996 42.0845392231531  C 1087.59139375476 42.0845392231531  1087.76351865956 42.0845392231531  1087.93564356436 42.0845392231531  L 1089.05445544554 42.0845392231531  C 1091.29207920792 42.0845392231531  1093.4436405179 41.998476770754  1095.25095201828 41.8263518659558  C 1097.14432597106 41.6542269611577  1098.69345011424 41.4821020563595  1099.98438690023 41.2239146991622  C 1101.27532368621 40.965727341965  1102.2220106626 40.6214775323686  1102.8244478294 40.2772277227723  C 1103.42688499619 39.9329779131759  1103.59900990099 39.5026656511805  1103.42688499619 39  L 1235.61881188119 39  L 1254.98286367098 50.1744097486672  C 1252.57311500381 50.1744097486672  1250.50761614623 50.2604722010662  1248.70030464585 50.5186595582635  C 1246.89299314547 50.6907844630617  1245.42993145468 50.9489718202589  1244.39718202589 51.2932216298553  C 1243.36443259711 51.6374714394516  1242.67593297791 51.981721249048  1242.41774562072 52.4120335110434  Z M 1103.34082254379 39  L 1103.34082254379 38.986290936786  C 1103.34082254379 38.9002284843869  1103.34082254379 38.9002284843869  1103.34082254379 38.986290936786  C 1102.9105102818 38.5559786747906  1102.04988575781 38.1256664127951  1100.93107387662 37.6953541507997  C 1099.72619954303 37.3511043412034  1098.26313785225 37.006854531607  1096.45582635187 36.7486671744097  C 1094.73457730388 36.4904798172125  1092.7551408987 36.2322924600152  1090.60357958873 36.0601675552171  C 1088.53808073115 35.8880426504189  1086.21439451637 35.8019801980198  1083.976770754 35.8019801980198  L 1082.94402132521 35.8019801980198  C 1082.77189642041 35.8019801980198  1082.59977151561 35.8019801980198  1082.42764661081 35.8019801980198  C 1082.25552170602 35.8019801980198  1082.08339680122 35.8019801980198  1081.91127189642 35.8019801980198  L 1074.94021325209 27  L 1214.53351104341 27  L 1235.27456207159 39  L 1103.34082254379 39  Z M 1080.27608530084 41.6542269611576  C 1081.91127189642 41.9124143183549  1083.8046458492 42.0845392231531  1085.78408225438 42.0845392231531  L 1094.99276466108 54  L 1033.54417364813 54  L 1038.62185833968 65.7517136329018  L 1038.27760853008 65.7517136329018  C 1038.27760853008 65.7517136329018  1038.19154607768 65.7517136329018  1038.19154607768 65.7517136329018  C 1036.7284843869 65.7517136329018  1035.26542269612 65.8377760853008  1034.06054836253 65.9238385376999  C 1032.76961157654 66.0959634424981  1031.73686214775 66.2680883472963  1030.79017517136 66.4402132520944  C 1029.84348819497 66.6984006092917  1029.15498857578 66.9565879664889  1028.72467631379 67.2147753236862  C 1028.29436405179 67.4729626808835  1028.03617669459 67.8172124904798  1028.20830159939 68.1614623000762  C 1028.20830159939 68.1614623000762  1028.20830159939 68.1614623000762  1028.20830159939 69  L 966.243335872048 69  L 965.210586443259 39  L 1069.77646610815 39  C 1070.20677837014 39.4166031987814  1070.89527798934 39.7608530083778  1071.84196496573 40.1051028179741  C 1072.78865194212 40.4493526275704  1073.9935262757 40.7075399847677  1075.45658796649 40.965727341965  C 1076.91964965727 41.2239146991622  1078.46877380046 41.4821020563595  1080.27608530084 41.6542269611576  Z M 700.912795125666 185  L 756.164889565879 121  L 617.604341203351 121  L 660.549504950495 91  L 895.930312261995 91  L 902.212871287129 69.6245239908606  C 902.901370906321 69.6245239908606  903.503808073115 69.5384615384615  904.106245239908 69.5384615384615  C 904.708682406702 69.4523990860625  905.225057121096 69.3663366336634  905.741431835491 69.2802741812643  C 906.171744097486 69.1942117288652  906.602056359482 69.022086824067  906.946306169078 68.936024371668  C 907.290555978675 68.8499619192689  907.462680883473 68.6778370144707  907.634805788271 69  L 965.210586443259 69  L 968.653084539223 185  L 700.912795125666 185  Z M 754.099390708301 121  L 699.449733434882 185.120335110434  L 698.933358720487 185  L 524.829017517136 185  L 524.829017517136 185.722772277228  L 616.915841584158 121  L 754.099390708301 121  Z M 660.97981721249 91  L 660.97981721249 90.021325209444  L 691.704112718964 69  L 896.360624523991 69  C 896.360624523991 68.6778370144707  896.532749428789 68.7638994668698  896.790936785986 68.936024371668  C 897.049124143183 69.022086824067  897.307311500381 69.1942117288652  897.737623762376 69.2802741812643  C 898.167936024371 69.3663366336634  898.598248286367 69.4523990860625  899.114623000761 69.5384615384615  C 899.630997715156 69.6245239908606  900.233434881949 69.6245239908606  900.835872048743 69.6245239908606  L 894.467250571211 91  L 660.97981721249 91  Z M 964.952399086062 69  L 907.548743335872 69  C 907.548743335872 68.0753998476771  907.376618431074 67.989337395278  907.118431073877 67.8172124904798  C 906.860243716679 67.7311500380807  906.515993907083 67.5590251332826  906.171744097487 67.4729626808835  C 905.741431835491 67.3869002284844  905.311119573496 67.3008377760853  904.708682406702 67.2147753236862  C 904.192307692308 67.1287128712871  903.589870525514 67.1287128712871  902.901370906321 67.1287128712871  L 911.335491241432 40  L 964.091774562072 40  L 964.952399086062 69  Z M 964.091774562071 39  L 911.421553693831 39  L 914.691926884996 28.0563594821021  C 915.466488956588 28.0563594821021  916.154988575781 27.970297029703  916.843488194973 27.970297029703  C 917.531987814166 27.8842345773039  918.134424980959 27.8842345773039  918.650799695354 27.7121096725057  C 919.167174409748 27.6260472201066  919.683549124143 27.5399847677075  920.027798933739 27.4539223153085  C 920.372048743336 27.3678598629094  920.716298552932 27.2817974105103  920.88842345773 28  L 963.747524752475 28  L 964.091774562071 39  Z M 913.659177456207 28.0563594821021  L 910.388804265042 39  L 736.886900228484 39  L 753.583015993907 28  L 907.032368621477 28  C 907.118431073877 27.2817974105103  907.376618431074 27.3678598629094  907.806930693069 27.4539223153085  C 908.151180502666 27.6260472201066  908.66755521706 27.7121096725057  909.269992383854 27.7981721249048  C 909.872429550647 27.8842345773039  910.56092916984 27.970297029703  911.249428789033 27.970297029703  C 912.023990860624 28.0563594821021  912.798552932216 28.0563594821021  913.659177456207 28.0563594821021  Z M 752.636329017517 28  L 735.509900990099 40  L 910.302741812643 40  L 901.610434120335 67.1287128712871  C 901.007996953541 67.1287128712871  900.405559786748 67.2147753236862  899.803122619954 67.2147753236862  C 899.200685453161 67.3008377760853  898.684310738766 67.3869002284844  898.253998476771 67.4729626808835  C 897.823686214775 67.5590251332826  897.39337395278 67.6450875856816  897.049124143183 67.8172124904798  C 896.704874333587 67.9032749428789  896.532749428789 68.0753998476771  896.360624523991 69  L 690.671363290175 69  L 659.430693069307 91  L 567.688118811881 91  L 685.421553693831 28  L 752.636329017517 28  Z M 566.999619192688 91  L 659.08644325971 91  L 615.969154607768 121  L 510.714775323686 121  L 566.999619192688 91  Z M 476.892231530845 219  L 523.710205635948 186  L 698.244859101295 186  L 673.28674790556 215.758568164509  C 672.081873571972 215.844630616908  670.876999238385 215.930693069307  669.672124904798 216.188880426504  C 668.467250571211 216.447067783701  667.348438690023 216.705255140899  666.315689261234 216.963442498096  C 665.282939832444 217.307692307692  664.336252856055 217.651942117289  663.475628332064 218.082254379284  C 662.615003808073 218.512566641279  661.92650418888 218.942878903275  661.496191926885 219  L 476.892231530845 219  Z M 1281.6622239147 55.4242193450114  C 1281.7482863671 55.0799695354151  1281.4040365575 54.6496572734196  1280.54341203351 55  L 1349.99581111957 55  L 1497.24866717441 119.62680883473  L 1497.24866717441 120  L 1377.19154607768 120  L 1269.35529322163 57.8339680121858  C 1271.7650418888 57.8339680121858  1273.91660319878 57.6618431073877  1275.72391469916 57.4897182025895  C 1277.53122619954 57.3175932977913  1278.90822543793 56.973343488195  1279.94097486672 56.6290936785986  C 1280.97372429551 56.2848438690023  1281.4900990099 55.8545316070069  1281.6622239147 55.4242193450114  Z M 1498.88385376999 120  L 1350.59824828637 54  L 1280.11309977152 54  C 1279.76884996192 53.7029702970297  1279.25247524752 53.5308453922315  1278.73610053313 53.2726580350343  C 1277.96153846154 53.014470677837  1277.01485148515 52.6702208682407  1275.98210205636 52.4120335110434  C 1274.26085300838 51.981721249048  1272.2814166032 51.6374714394516  1270.12985529322 51.2932216298553  C 1267.97829398324 50.9489718202589  1265.65460776847 50.6907844630617  1263.24485910129 50.5186595582635  C 1260.83511043412 50.3465346534653  1258.42536176695 50.2604722010663  1256.01561309977 50.1744097486672  L 1236.56549885758 39  L 1317.29207920792 39  L 1290.8709063214 27.3678598629094  C 1291.3012185834 27.3678598629094  1291.64546839299 27.3678598629094  1291.98971820259 27.3678598629094  C 1292.33396801219 27.3678598629094  1292.59215536938 27.3678598629094  1292.85034272658 27.2817974105103  C 1293.10853008378 27.2817974105103  1293.28065498858 27.1957349581112  1293.45277989337 27.1957349581112  C 1293.62490479817 27.1957349581112  1293.71096725057 27.1096725057121  1293.79702970297 27  L 1348.36062452399 27  L 1593.89680121858 120  L 1498.88385376999 120  Z M 1290.01028179741 27.5399847677075  L 1315.91507996954 39  L 1236.30731150038 39  L 1215.5662604722 28  L 1286.30959634425 28  C 1286.56778370145 27.1096725057121  1286.82597105864 27.1957349581112  1287.08415841584 27.2817974105103  C 1287.34234577304 27.2817974105103  1287.68659558263 27.3678598629094  1288.03084539223 27.3678598629094  C 1288.37509520183 27.3678598629094  1288.71934501142 27.4539223153085  1288.97753236862 27.4539223153085  C 1289.32178217822 27.4539223153085  1289.66603198781 27.4539223153085  1290.01028179741 27.5399847677075  Z M 1286.73990860625 26.0769230769231  C 1286.22353389185 25.990860624524  1285.87928408225 25.990860624524  1285.53503427266 26.0769230769231  C 1285.19078446306 26.0769230769231  1285.01865955826 26.1629855293222  1284.84653465347 26.2490479817212  C 1284.67440974867 26.3351104341203  1284.58834729627 26.4211728865194  1284.58834729627 26.5072353389185  C 1284.58834729627 26.5932977913176  1284.67440974867 26.6793602437167  1284.93259710586 26.7654226961158  C 1284.93259710586 26.7654226961158  1285.01865955826 26.7654226961158  1285.01865955826 26.8514851485148  C 1285.01865955826 26.8514851485148  1285.10472201066 26.8514851485148  1285.19078446306 26.9375476009139  C 1285.27684691546 26.9375476009139  1285.27684691546 26.9375476009139  1285.36290936786 27.023610053313  C 1285.44897182026 27.023610053313  1285.44897182026 27.023610053313  1285.53503427266 27  L 1215.308073115 27  L 1176.92421934501 5  L 1239.40555978675 5  L 1286.73990860625 26.0769230769231  Z M 753.927265803503 27  L 771.656130997715 14.2003046458492  C 772.000380807311 14.2003046458492  772.430693069307 14.1142421934501  772.774942878903 14.028179741051  C 773.119192688499 13.9421172886519  773.463442498096 13.9421172886519  773.721629855293 13.8560548362529  C 773.97981721249 13.7699923838538  774.238004569688 13.7699923838538  774.496191926885 13.6839299314547  C 774.754379284082 13.5978674790556  774.92650418888 13.5118050266565  775.012566641279 14  L 918.306549885757 14  L 914.519801980198 25.6466108149276  C 913.573115003808 25.6466108149276  912.626428027418 25.6466108149276  911.765803503427 25.7326732673267  C 910.905178979436 25.8187357197258  910.130616907844 25.9047981721249  909.442117288652 25.990860624524  C 908.753617669459 26.0769230769231  908.237242955065 26.2490479817212  907.806930693069 26.3351104341203  C 907.376618431074 26.5072353389185  907.118431073877 26.6793602437167  907.118431073877 26.8514851485148  L 907.118431073877 27  L 753.927265803503 27  Z M 547.97981721249 24.1835491241432  L 578.445925361767 14  L 762.189261233816 14  C 762.103198781416 13.5978674790556  762.103198781416 13.7699923838538  762.275323686215 13.8560548362529  C 762.447448591013 13.9421172886519  762.791698400609 14.028179741051  763.222010662605 14.1142421934501  C 763.6523229246 14.2003046458492  764.254760091394 14.2863670982483  764.943259710586 14.2863670982483  C 765.631759329779 14.3724295506474  766.406321401371 14.3724295506474  767.266945925362 14.3724295506474  C 767.525133282559 14.3724295506474  767.869383092155 14.3724295506474  768.127570449352 14.3724295506474  C 768.38575780655 14.3724295506474  768.730007616146 14.3724295506474  768.988194973343 14.3724295506474  C 769.246382330541 14.3724295506474  769.590632140137 14.3724295506474  769.848819497334 14.3724295506474  C 770.107006854531 14.3724295506474  770.365194211729 14.3724295506474  770.623381568926 14.2863670982483  L 752.808453922315 27  L 684.733054074638 27  L 566.311119573496 90  L 511.833587204874 90  C 513.382711348058 89.2467631378523  514.243335872049 88.5582635186596  514.415460776847 87.955826351866  C 514.673648134044 87.3533891850724  514.329398324448 86.7509520182788  513.382711348058 86.3206397562833  C 512.522086824067 85.8903274942879  511.059025133282 85.4600152322925  509.079588728103 85.2018278750952  C 507.186214775323 84.9436405178979  504.776466108149 84.7715156130998  501.85034272658 84.7715156130998  L 632.579207920792 27  L 557.360624523991 27  C 557.963061690784 25.990860624524  558.221249047982 25.7326732673267  558.049124143183 25.4744859101295  C 557.963061690784 25.2162985529322  557.44668697639 24.958111195735  556.672124904798 24.7859862909368  C 555.897562833206 24.6138613861386  554.778750952018 24.4417364813404  553.401751713633 24.3556740289414  C 552.024752475248 24.2696115765423  550.389565879665 24.1835491241432  548.410129474486 24.1835491241432  L 547.97981721249 24.1835491241432  Z M 482.228103579589 86.3206397562833  C 479.215917745621 86.8370144706778  476.375856816451 87.3533891850724  473.793983244478 87.955826351866  C 471.212109672506 88.5582635186596  468.974485910129 89.2467631378523  467.167174409749 90  L 359.244859101295 90  L 532.488575780655 29.5194211728865  L 532.91888804265 29.5194211728865  C 535.070449352627 29.5194211728865  537.394135567403 29.4333587204874  539.717821782178 29.3472962680884  C 542.041507996953 29.1751713632902  544.27913175933 29.003046458492  546.430693069307 28.7448591012947  C 548.582254379284 28.4866717440975  550.561690784463 28.2284843869002  552.282939832445 27.8842345773039  C 554.004188880426 27.5399847677075  555.381188118812 27.1957349581112  556.413937547601 26.8514851485149  C 556.5 26.8514851485149  556.5 26.8514851485149  556.586062452399 26.7654226961158  C 556.672124904798 26.7654226961158  556.672124904798 26.7654226961158  556.758187357197 26.6793602437167  C 556.844249809596 26.6793602437167  556.844249809596 26.6793602437167  556.930312261995 26.5932977913176  C 557.016374714394 26.5932977913176  557.016374714394 26.5932977913176  557.102437166793 27  L 631.374333587205 27  L 500.559405940594 84.7715156130998  C 497.633282559025 84.7715156130998  494.535034272658 84.9436405178979  491.436785986291 85.2018278750952  C 488.338537699924 85.4600152322925  485.154226961158 85.8903274942879  482.228103579589 86.3206397562833  Z M 421.81226199543 121  L 422.414699162224 120.229246001523  L 477.064356435643 95.7875095201828  C 480.162604722011 95.7875095201828  483.346915460777 95.6153846153846  486.617288651942 95.3571972581874  C 489.887661843107 95.0990099009901  493.071972581873 94.6686976389947  496.170220868241 94.1523229246001  C 499.182406702209 93.6359482102056  502.108530083778 93.033511043412  504.604341203351 92.4310738766184  C 507.100152322924 91.7425742574257  509.337776085301 91.054074638233  510.972962680883 91  L 565.536557501904 91  L 510.112338156893 119.884996191927  L 508.993526275704 121  L 421.81226199543 121  Z M 83.8450114242192 185  L 269.395658796649 121  L 419.144325971058 121  L 273.870906321401 185  L 83.8450114242192 185  Z M 1.56930693069293 219  L 1.56930693069293 219.37319116527  C 3.20449352627557 218.684691546078  4.49543031226186 217.996191926885  5.35605483625272 217.393754760091  C 6.21667936024358 216.791317593298  6.7330540746381 216.274942878903  6.81911652703718 215.758568164509  C 6.90517897943627 215.328255902513  6.56092916983993 214.897943640518  5.87242955064724 214.639756283321  C 5.18392993145455 214.381568926123  4.06511805026643 214.123381568926  2.51599390708288 214.037319116527  L 81.7795125666412 186  L 274.301218583397 186  L 420.86557501904 121  L 508.305026656512 121  L 507.960776846915 121.089870525514  L 392.981340441736 182.366336633663  C 391.776466108149 182.366336633663  390.399466869764 182.452399086062  389.022467631378 182.624523990861  C 387.645468392993 182.796648895659  386.268469154608 183.054836252856  384.891469916222 183.313023610053  C 383.514470677837 183.571210967251  382.223533891851 183.915460776847  381.018659558263 184.345773038842  C 379.813785224676 184.690022848439  378.781035795887 185.120335110434  377.920411271896 185.55064737243  C 377.059786747905 185.980959634425  376.457349581112 186.41127189642  376.199162223915 186.841584158416  C 375.940974866717 187.271896420411  375.854912414318 187.616146230008  376.113099771516 187.874333587205  C 376.371287128713 188.218583396801  376.887661843107 188.390708301599  377.662223914699 188.562833206398  C 378.436785986291 188.734958111196  379.46953541508 188.821020563595  380.760472201066 188.821020563595  C 381.879284082254 188.821020563595  383.084158415841 188.734958111196  384.289032749429 188.648895658797  C 385.493907083016 188.562833206398  386.784843869002 188.3046458492  387.989718202589 188.132520944402  C 389.194592536177 187.874333587205  390.399466869764 187.616146230008  391.518278750952 187.271896420411  C 392.63709063214 186.927646610815  393.669840060929 186.583396801219  394.616527037319 186  L 521.730769230769 186  L 475.601294744859 218.512566641279  L 474.740670220868 219  L 1.56930693069293 219  Z M 569.495430312262 337  L 308.898324447829 337  L 475.601294744859 220  L 660.893754760091 220  C 660.635567402894 220.664127951257  660.635567402894 221.094440213252  660.807692307692 221.524752475247  C 660.97981721249 221.869002284844  661.324067022087 222.299314546839  661.754379284082 222.557501904037  C 662.270753998477 222.901751713633  662.87319116527 223.073876618431  663.733815689261 223.332063975628  C 664.508377760853 223.504188880426  665.455064737243 223.676313785225  666.487814166032 223.762376237624  L 569.495430312262 337  Z M 572.50761614623 337  L 572.50761614623 337.364813404417  L 668.725437928408 223.762376237624  C 669.930312261995 223.762376237624  671.135186595582 223.590251332826  672.34006092917 223.418126428027  C 673.544935262757 223.246001523229  674.663747143945 222.987814166032  675.782559025133 222.643564356436  C 676.815308453922 222.299314546839  677.848057882711 221.955064737243  678.708682406702 221.610814927647  C 679.569306930693 221.180502665651  680.257806549886 220.750190403656  680.860243716679 220  L 1067.02246763138 220  C 1067.96915460777 222.21325209444  1069.77646610815 224.020563594821  1072.27227722772 225.655750190404  C 1074.8541507997 227.290936785986  1078.03846153846 228.84006092917  1081.82520944402 230.130997715156  C 1085.61195734958 231.421934501142  1089.91507996954 232.454683929931  1094.47638994669 233.229246001523  C 1099.12376237624 234.003808073115  1104.02932216299 234.348057882711  1108.93488194973 234.348057882711  C 1109.02094440213 234.348057882711  1109.19306930693 234.348057882711  1109.36519421173 234.348057882711  L 1110.13975628332 234.348057882711  C 1110.22581873572 234.348057882711  1110.39794364052 234.348057882711  1110.48400609292 234.348057882711  L 1154.46191926885 337  L 572.50761614623 337  Z M 1312.12833206398 337  L 1157.56016755522 337  L 1112.89375476009 234.261995430312  C 1117.28293983244 234.089870525514  1121.3278750952 233.57349581112  1124.85643564356 232.712871287129  C 1128.38499619193 231.938309215537  1131.3111195735 230.819497334349  1133.63480578827 229.614623000762  C 1135.95849200305 228.323686214775  1137.59367859863 226.94668697639  1138.54036557502 225.311500380807  C 1139.48705255141 223.762376237624  1139.65917745621 222.041127189642  1139.05674028941 220  L 1221.76275704493 220  L 1312.12833206398 337  Z M 1315.22658035034 337  L 1315.22658035034 337.364813404417  L 1223.31188118812 219  L 1138.62642802742 219  C 1138.62642802742 219.37319116527  1138.62642802742 219.37319116527  1138.62642802742 219.287128712871  C 1138.62642802742 219.287128712871  1138.62642802742 219.287128712871  1138.62642802742 219.201066260472  C 1137.67974105103 217.307692307692  1135.87242955065 215.586443259711  1133.37661843107 213.951256664128  C 1130.9668697639 212.402132520944  1127.95468392993 210.93907083016  1124.51218583397 209.734196496573  C 1121.069687738 208.529322162986  1117.28293983244 207.496572734196  1113.15194211729 206.808073115004  C 1109.10700685453 206.033511043412  1104.71782178218 205.603198781417  1100.32863670982 205.431073876618  L 1041.97829398324 70.5712109672506  C 1043.18316831683 70.5712109672506  1044.30198019802 70.4851485148515  1045.24866717441 70.3130236100533  C 1046.1953541508 70.2269611576542  1047.14204112719 70.0548362528561  1047.83054074638 69.8827113480579  C 1048.51904036557 69.7105864432597  1049.12147753237 69.4523990860624  1049.55178979436 69.2802741812643  C 1049.98210205636 69.022086824067  1050.24028941356 68.7638994668698  1050.24028941356 69  L 1106.35300837776 69  L 1198.43983244478 186  L 1296.72315308454 186  L 1462.99581111957 337  L 1315.22658035034 337  Z M 1647.34158415842 186  L 1721.26923076923 219  L 1566.78712871287 219  C 1564.72162985529 218.598629093679  1562.39794364052 217.824067022087  1560.07425742574 217.135567402894  C 1557.66450875857 216.447067783701  1555.25476009139 215.844630616908  1552.75894897182 215.414318354912  C 1550.26313785225 214.897943640518  1547.76732673267 214.553693830922  1545.3575780655 214.295506473724  C 1542.94782939832 214.037319116527  1540.62414318355 213.865194211729  1538.38651942117 213.865194211729  C 1535.7185833968 213.865194211729  1533.48095963442 214.123381568926  1531.75971058644 214.467631378522  C 1530.12452399086 214.897943640518  1528.91964965727 215.414318354912  1528.31721249048 216.102817974105  C 1527.71477532369 216.791317593298  1527.71477532369 217.651942117289  1528.31721249048 218.598629093679  C 1528.91964965727 219.545316070069  1530.12452399086 220.578065498858  1532.01789794364 221.696877380046  C 1533.82520944402 222.815689261234  1536.0628332064 223.848438690023  1538.64470677837 224.795125666413  C 1541.22658035034 225.741812642803  1544.06664127951 226.602437166794  1546.99276466108 227.376999238385  C 1550.00495049505 228.151561309977  1553.10319878142 228.753998476771  1556.20144706778 229.184310738766  C 1559.29969535415 229.614623000762  1562.31188118812 229.958872810358  1565.15194211729 229.958872810358  L 1750.96077684692 337  L 1466.09405940594 337  L 1298.78865194212 186  L 1647.34158415842 186  Z M 1595.10167555217 121  L 1677.4634424981 151.211728865194  L 1767.39870525514 185.120335110434  L 1769.03389185072 185  L 1647.68583396801 185  L 1499.83054074638 121  L 1595.10167555217 121  Z M 1678.32406702209 116.184310738766  C 1676.6028179741 116.356435643564  1675.22581873572 116.442498095963  1674.19306930693 116.614623000762  C 1673.16031987814 116.78674790556  1672.47182025895 117.044935262757  1672.12757044935 117.303122619954  C 1671.78332063976 117.647372429551  1671.86938309216 117.905559786748  1672.21363290175 118.335872048743  C 1672.64394516375 118.766184310739  1673.33244478294 119.196496572734  1674.53731911653 120  L 1595.53198781417 120  L 1348.96306169078 27  L 1293.88309215537 27  C 1293.88309215537 26.8514851485149  1293.88309215537 26.8514851485149  1293.88309215537 26.8514851485149  C 1293.88309215537 26.8514851485149  1293.88309215537 26.8514851485149  1293.79702970297 26.7654226961158  C 1293.79702970297 26.7654226961158  1293.71096725057 26.7654226961158  1293.71096725057 26.6793602437167  C 1293.71096725057 26.6793602437167  1293.62490479817 26.6793602437167  1293.62490479817 26.5932977913176  C 1293.36671744097 26.5072353389185  1293.02246763138 26.4211728865194  1292.59215536938 26.3351104341203  C 1292.16184310739 26.2490479817213  1291.64546839299 26.1629855293222  1291.1290936786 26.0769230769231  C 1290.6127189642 25.990860624524  1290.01028179741 25.990860624524  1289.40784463062 25.9047981721249  C 1288.80540746382 25.9047981721249  1288.20297029703 25.8187357197258  1287.60053313024 25.8187357197258  L 1239.83587204874 5  L 1176.57996953542 5  L 1169.43678598629 1  L 1384.42079207921 1  C 1384.67897943641 0.602437166793614  1385.023229246 0.602437166793614  1385.3674790556 0.6884996191927  C 1385.71172886519 0.774562071591786  1386.05597867479 0.774562071591786  1386.48629093679 0.774562071591786  C 1386.83054074638 0.774562071591786  1387.26085300838 0.860624523990873  1387.69116527037 0.860624523990873  C 1388.12147753237 0.860624523990873  1388.46572734196 0.860624523990873  1388.89603960396 0.860624523990873  L 1479.0894897182 27  L 1409.46496572734 27  C 1409.12071591775 26.1629855293222  1408.69040365575 26.0769230769231  1408.17402894136 25.990860624524  C 1407.65765422696 25.9047981721249  1407.14127951257 25.8187357197258  1406.62490479817 25.7326732673267  C 1406.02246763138 25.6466108149277  1405.50609291698 25.6466108149277  1404.90365575019 25.5605483625286  C 1404.3012185834 25.5605483625286  1403.6987814166 25.4744859101295  1403.18240670221 25.4744859101295  C 1402.57996953541 25.4744859101295  1402.06359482102 25.4744859101295  1401.71934501142 25.5605483625286  C 1401.28903274943 25.5605483625286  1401.03084539223 25.6466108149277  1400.85872048743 25.7326732673267  C 1400.68659558263 25.8187357197258  1400.60053313024 25.9047981721249  1400.60053313024 25.990860624524  C 1400.68659558263 26.0769230769231  1400.85872048743 26.1629855293222  1401.11690784463 26.2490479817213  C 1401.37509520183 26.3351104341203  1401.71934501142 26.4211728865194  1402.14965727342 26.5072353389185  C 1402.57996953542 26.5932977913176  1403.01028179741 26.6793602437167  1403.5266565118 26.7654226961158  C 1404.0430312262 26.8514851485149  1404.55940594059 26.8514851485149  1405.07578065499 26.9375476009139  C 1405.59215536938 27.023610053313  1406.19459253618 27.023610053313  1406.71096725057 27.023610053313  L 1678.32406702209 116.184310738766  Z M 1479.691926885 27  L 1811.20449352628 120  L 1702.24942878903 120  C 1700.61424219345 119.196496572734  1698.89299314547 118.766184310739  1696.99961919269 118.421934501142  C 1695.10624523991 118.077684691546  1693.21287128713 117.73343488195  1691.23343488195 117.389185072353  C 1689.25399847677 117.130997715156  1687.27456207159 116.872810357959  1685.38118811881 116.700685453161  C 1683.48781416603 116.528560548363  1681.59444021325 116.442498095963  1679.95925361767 116.356435643564  L 1407.74371667936 27.1957349581112  C 1408.26009139375 27.1957349581112  1408.77646610815 27.1957349581112  1409.20677837014 27.1096725057121  C 1409.63709063214 27.1096725057121  1409.89527798934 27.023610053313  1410.06740289414 26.9375476009139  C 1410.23952779893 26.8514851485149  1410.41165270373 26.8514851485149  1410.32559025133 26.7654226961158  C 1410.32559025133 26.6793602437167  1410.23952779893 26.5932977913176  1409.98134044174 27  L 1479.691926885 27  Z " fill-rule="nonzero" fill="url(#LinearGradient1938)" stroke="none" transform="matrix(1 0 0 1 0 741 )" />
  </g>
</svg>