<?xml version="1.0" encoding="utf-8"?>
<svg version="1.1" xmlns:xlink="http://www.w3.org/1999/xlink" width="1661px" height="270px" xmlns="http://www.w3.org/2000/svg">
  <defs>
    <linearGradient gradientUnits="userSpaceOnUse" x1="837.900005404619" y1="305.6852431724" x2="823.099994595381" y2="-35.6852431724001" id="LinearGradient1941">
      <stop id="Stop1942" stop-color="#0000cc" stop-opacity="0" offset="0" />
      <stop id="Stop1943" stop-color="#0066ff" stop-opacity="0.498039215686275" offset="1" />
    </linearGradient>
  </defs>
  <g transform="matrix(1 0 0 1 -109 -809 )">
    <path d="M 367.892231530845 151.975628332064  L 179.329398324448 151.717440974867  L 367.892231530845 150.770753998477  L 367.892231530845 151.975628332064  Z M 1660.11993198289 117.055479244717  L 1660.29207920792 117.120335110434  L 1660.11995430312 117.602285679303  L 1660.11995430312 118.325209444021  L 1540.40708301599 118.49733434882  L 1656.61699721519 117.076971363513  L 1487.82292460015 52.1431835491242  L 1660.11993198289 117.055479244717  Z M 506.710967250571 53.5201827875096  L 505.936405178979 52.4874333587204  L 550.602817974105 22.0213252094441  L 506.710967250571 53.5201827875096  Z M 159.190784463062 7.9931454683931  L 0.577684691545926 52.7456207159178  L 0.23343488194962 51.5407463823306  L 159.190784463062 7.9931454683931  Z M 413.763518659558 117.722772277228  L 591.912795125666 117.034272658035  L 591.912794612005 117.683652513718  L 592.429169840061 118.153084539223  L 571.946306169078 139.754760091394  L 590.587959936479 118.320729325024  L 413.763518659558 117.722772277228  Z M 957.592155369383 150.770753998477  L 957.592155369383 151.975628332064  L 572.634805788271 151.37319116527  L 957.592155369383 150.770753998477  Z M 1205.71020563595 269.795125666413  L 1114.39794364052 151.37319116527  L 1206.74295506474 269.020563594821  L 1205.71020563595 269.795125666413  Z M 226.835872048743 52.5734958111195  L 401.714775323686 51.9710586443259  L 401.714775323686 53.1759329779131  L 226.835872048743 52.5734958111195  Z M 1189.35833968012 118.927646610815  L 1058.71553693831 0.247524752475329  L 1190.21896420411 117.980959634425  L 1189.35833968012 118.927646610815  Z M 1268.19154607768 52.3153084539224  L 1268.19154607768 51.0243716679361  L 1389.88385376999 51.6268088347297  L 1268.19154607768 52.3153084539224  Z " fill-rule="nonzero" fill="url(#LinearGradient1941)" stroke="none" transform="matrix(1 0 0 1 109 809 )" />
  </g>
</svg>