<?xml version="1.0" encoding="utf-8"?>
<svg version="1.1" xmlns:xlink="http://www.w3.org/1999/xlink" width="306px" height="209px" xmlns="http://www.w3.org/2000/svg">
  <defs>
    <mask fill="white" id="clip2124">
      <path d="M 251.935 82.64  L 252.865 81.66  L 252.865 83.57  L 259.555 85.48  L 266.245 80.7  L 272.935 83.57  L 275.805 79.75  L 280.585 80.71  L 285.365 86.44  L 278.675 95.99  L 280.585 98.86  L 279.625 100.77  L 272.935 101.73  L 271 109.37  L 271 121.79  L 264.335 122.75  L 264.335 128.48  L 266.245 128.48  L 259.555 132.3  L 257.645 130.39  L 247.135 128.48  L 239.495 129.44  L 237.585 131.35  L 230.895 131.35  L 228.985 125.62  L 225.165 122.75  L 221.345 122.75  L 219.435 126.57  L 217.525 124.66  L 214.655 125.62  L 214.655 123.71  L 212.745 123.71  L 212.745 121.8  L 210.835 120.84  L 208.925 124.66  L 202.235 125.62  L 201.275 128.49  L 203.185 133.27  L 204.145 134.23  L 207.965 132.32  L 209.875 138.05  L 209.875 143.78  L 207.005 144.74  L 206.045 148.56  L 212.735 151.43  L 212.735 155.25  L 215.605 156.21  L 216.565 153.34  L 219.435 156.21  L 221.345 162.9  L 223.255 163.86  L 225.165 172.46  L 222.295 176.28  L 224.205 181.06  L 223.245 183.93  L 220.375 183.93  L 216.555 181.06  L 209.865 181.06  L 207.955 183.93  L 205.085 184.89  L 198.395 183.93  L 198.395 181.06  L 194.575 186.79  L 189.795 185.83  L 189.795 187.74  L 176.425 185.83  L 171.645 188.7  L 167.825 184.88  L 170.695 182.01  L 172.605 162.91  L 165.915 162.91  L 162.095 156.22  L 162.095 148.58  L 156.365 141.89  L 154.455 141.89  L 155.415 145.71  L 149.685 148.58  L 145.865 144.76  L 145.865 140.94  L 142.995 137.12  L 130.575 142.85  L 122.935 133.3  L 118.155 134.26  L 117.195 136.17  L 113.375 134.26  L 110.505 137.13  L 99.0450000000001 134.26  L 99.0450000000001 131.39  L 95.2250000000001 131.39  L 94.2650000000001 127.57  L 83.7550000000001 121.84  L 82.7950000000001 118.97  L 85.6650000000001 110.37  L 82.7950000000001 110.37  L 81.8350000000001 108.46  L 75.1450000000001 104.64  L 75.1450000000001 97.95  L 77.0550000000001 95.08  L 77.0550000000001 93.17  L 74.1850000000001 92.21  L 75.1450000000001 88.39  L 69.4150000000001 85.52  L 64.6350000000001 86.48  L 62.7250000000001 88.39  L 57.9450000000001 88.39  L 52.2150000000001 82.66  L 51.2550000000001 78.84  L 45.5250000000001 75.97  L 27.3750000000001 74.06  L 26.4150000000001 73.1  L 30.2350000000001 72.14  L 29.2750000000001 70.23  L 18.7650000000001 63.54  L 14.9450000000001 54.94  L 9.285 53.01  L 9.285 49.19  L 1.645 51.1  L 0.684999999999998 49.19  L 4.505 41.55  L 0.684999999999998 39.63  L 1.645 35.81  L 5.465 33.9  L 6.425 19.57  L 12.155 11.93  L 15.025 12.89  L 25.535 10.98  L 32.225 9.07000000000001  L 33.185 6.20000000000001  L 37.005 8.11000000000001  L 41.785 7.15000000000001  L 52.295 10.02  L 54.205 5.24000000000001  L 52.295 3.33000000000001  L 53.255 0.460000000000008  L 55.165 1.42000000000001  L 55.165 8.11000000000001  L 56.125 1.42000000000001  L 57.085 8.11000000000001  L 61.865 8.11000000000001  L 69.505 12.89  L 69.505 16.71  L 76.195 16.71  L 71.415 17.67  L 70.455 20.54  L 75.235 20.54  L 77.145 25.32  L 73.285 25.32  L 73.285 28.19  L 77.105 32.97  L 81.885 32.97  L 87.615 39.66  L 88.575 42.53  L 86.665 48.26  L 88.575 51.13  L 91.445 50.17  L 98.135 63.54  L 96.225 68.32  L 100.045 81.69  L 103.865 81.69  L 107.685 78.82  L 109.595 79.78  L 109.595 75  L 112.465 75  L 111.505 72.13  L 113.415 71.17  L 112.455 67.35  L 116.275 65.44  L 115.315 63.53  L 120.095 61.62  L 118.185 62.58  L 118.185 60.67  L 120.095 61.63  L 123.915 58.76  L 128.695 61.63  L 128.695 65.45  L 131.565 66.41  L 131.565 68.32  L 136.345 74.05  L 139.215 75.01  L 139.215 76.92  L 148.765 75.96  L 149.725 77.87  L 152.595 77.87  L 154.505 73.09  L 156.415 74.05  L 157.375 72.14  L 160.245 72.14  L 163.115 67.36  L 163.115 64.49  L 174.575 67.36  L 176 69.27  L 176 49.19  L 190.815 50.15  L 190.815 46.33  L 194.635 47.29  L 196.545 45.38  L 201.325 46.34  L 203.235 50.16  L 205.145 48.25  L 214.695 50.16  L 213.735 52.07  L 216.605 53.98  L 211.825 61.62  L 217.555 63.53  L 219.465 62.57  L 225.195 65.44  L 222.325 71.17  L 219.455 72.13  L 218.495 74.04  L 224 78.82  L 224 90.28  L 225.185 88.37  L 225.185 90.28  L 229.005 90.28  L 229.005 86.46  L 236.645 86.46  L 237.605 83.59  L 249.065 84.55  L 251.935 82.64  Z " fill-rule="evenodd" />
    </mask>
    <filter x="604px" y="242px" width="306px" height="209px" filterUnits="userSpaceOnUse" id="filter2125">
      <feOffset dx="0" dy="10" in="SourceAlpha" result="shadowOffsetInner" />
      <feGaussianBlur stdDeviation="5" in="shadowOffsetInner" result="shadowGaussian" />
      <feComposite in2="shadowGaussian" operator="atop" in="SourceAlpha" result="shadowComposite" />
      <feColorMatrix type="matrix" values="0 0 0 0 0.2  0 0 0 0 0.6  0 0 0 0 1  0 0 0 1 0  " in="shadowComposite" />
    </filter>
    <g id="widget2126">
      <path d="M 251.935 82.64  L 252.865 81.66  L 252.865 83.57  L 259.555 85.48  L 266.245 80.7  L 272.935 83.57  L 275.805 79.75  L 280.585 80.71  L 285.365 86.44  L 278.675 95.99  L 280.585 98.86  L 279.625 100.77  L 272.935 101.73  L 271 109.37  L 271 121.79  L 264.335 122.75  L 264.335 128.48  L 266.245 128.48  L 259.555 132.3  L 257.645 130.39  L 247.135 128.48  L 239.495 129.44  L 237.585 131.35  L 230.895 131.35  L 228.985 125.62  L 225.165 122.75  L 221.345 122.75  L 219.435 126.57  L 217.525 124.66  L 214.655 125.62  L 214.655 123.71  L 212.745 123.71  L 212.745 121.8  L 210.835 120.84  L 208.925 124.66  L 202.235 125.62  L 201.275 128.49  L 203.185 133.27  L 204.145 134.23  L 207.965 132.32  L 209.875 138.05  L 209.875 143.78  L 207.005 144.74  L 206.045 148.56  L 212.735 151.43  L 212.735 155.25  L 215.605 156.21  L 216.565 153.34  L 219.435 156.21  L 221.345 162.9  L 223.255 163.86  L 225.165 172.46  L 222.295 176.28  L 224.205 181.06  L 223.245 183.93  L 220.375 183.93  L 216.555 181.06  L 209.865 181.06  L 207.955 183.93  L 205.085 184.89  L 198.395 183.93  L 198.395 181.06  L 194.575 186.79  L 189.795 185.83  L 189.795 187.74  L 176.425 185.83  L 171.645 188.7  L 167.825 184.88  L 170.695 182.01  L 172.605 162.91  L 165.915 162.91  L 162.095 156.22  L 162.095 148.58  L 156.365 141.89  L 154.455 141.89  L 155.415 145.71  L 149.685 148.58  L 145.865 144.76  L 145.865 140.94  L 142.995 137.12  L 130.575 142.85  L 122.935 133.3  L 118.155 134.26  L 117.195 136.17  L 113.375 134.26  L 110.505 137.13  L 99.0450000000001 134.26  L 99.0450000000001 131.39  L 95.2250000000001 131.39  L 94.2650000000001 127.57  L 83.7550000000001 121.84  L 82.7950000000001 118.97  L 85.6650000000001 110.37  L 82.7950000000001 110.37  L 81.8350000000001 108.46  L 75.1450000000001 104.64  L 75.1450000000001 97.95  L 77.0550000000001 95.08  L 77.0550000000001 93.17  L 74.1850000000001 92.21  L 75.1450000000001 88.39  L 69.4150000000001 85.52  L 64.6350000000001 86.48  L 62.7250000000001 88.39  L 57.9450000000001 88.39  L 52.2150000000001 82.66  L 51.2550000000001 78.84  L 45.5250000000001 75.97  L 27.3750000000001 74.06  L 26.4150000000001 73.1  L 30.2350000000001 72.14  L 29.2750000000001 70.23  L 18.7650000000001 63.54  L 14.9450000000001 54.94  L 9.285 53.01  L 9.285 49.19  L 1.645 51.1  L 0.684999999999998 49.19  L 4.505 41.55  L 0.684999999999998 39.63  L 1.645 35.81  L 5.465 33.9  L 6.425 19.57  L 12.155 11.93  L 15.025 12.89  L 25.535 10.98  L 32.225 9.07000000000001  L 33.185 6.20000000000001  L 37.005 8.11000000000001  L 41.785 7.15000000000001  L 52.295 10.02  L 54.205 5.24000000000001  L 52.295 3.33000000000001  L 53.255 0.460000000000008  L 55.165 1.42000000000001  L 55.165 8.11000000000001  L 56.125 1.42000000000001  L 57.085 8.11000000000001  L 61.865 8.11000000000001  L 69.505 12.89  L 69.505 16.71  L 76.195 16.71  L 71.415 17.67  L 70.455 20.54  L 75.235 20.54  L 77.145 25.32  L 73.285 25.32  L 73.285 28.19  L 77.105 32.97  L 81.885 32.97  L 87.615 39.66  L 88.575 42.53  L 86.665 48.26  L 88.575 51.13  L 91.445 50.17  L 98.135 63.54  L 96.225 68.32  L 100.045 81.69  L 103.865 81.69  L 107.685 78.82  L 109.595 79.78  L 109.595 75  L 112.465 75  L 111.505 72.13  L 113.415 71.17  L 112.455 67.35  L 116.275 65.44  L 115.315 63.53  L 120.095 61.62  L 118.185 62.58  L 118.185 60.67  L 120.095 61.63  L 123.915 58.76  L 128.695 61.63  L 128.695 65.45  L 131.565 66.41  L 131.565 68.32  L 136.345 74.05  L 139.215 75.01  L 139.215 76.92  L 148.765 75.96  L 149.725 77.87  L 152.595 77.87  L 154.505 73.09  L 156.415 74.05  L 157.375 72.14  L 160.245 72.14  L 163.115 67.36  L 163.115 64.49  L 174.575 67.36  L 176 69.27  L 176 49.19  L 190.815 50.15  L 190.815 46.33  L 194.635 47.29  L 196.545 45.38  L 201.325 46.34  L 203.235 50.16  L 205.145 48.25  L 214.695 50.16  L 213.735 52.07  L 216.605 53.98  L 211.825 61.62  L 217.555 63.53  L 219.465 62.57  L 225.195 65.44  L 222.325 71.17  L 219.455 72.13  L 218.495 74.04  L 224 78.82  L 224 90.28  L 225.185 88.37  L 225.185 90.28  L 229.005 90.28  L 229.005 86.46  L 236.645 86.46  L 237.605 83.59  L 249.065 84.55  L 251.935 82.64  Z " fill-rule="nonzero" fill="#0fd0e6" stroke="none" transform="matrix(1 0 0 1 614 242 )" />
      <path d="M 251.935 82.64  L 252.865 81.66  L 252.865 83.57  L 259.555 85.48  L 266.245 80.7  L 272.935 83.57  L 275.805 79.75  L 280.585 80.71  L 285.365 86.44  L 278.675 95.99  L 280.585 98.86  L 279.625 100.77  L 272.935 101.73  L 271 109.37  L 271 121.79  L 264.335 122.75  L 264.335 128.48  L 266.245 128.48  L 259.555 132.3  L 257.645 130.39  L 247.135 128.48  L 239.495 129.44  L 237.585 131.35  L 230.895 131.35  L 228.985 125.62  L 225.165 122.75  L 221.345 122.75  L 219.435 126.57  L 217.525 124.66  L 214.655 125.62  L 214.655 123.71  L 212.745 123.71  L 212.745 121.8  L 210.835 120.84  L 208.925 124.66  L 202.235 125.62  L 201.275 128.49  L 203.185 133.27  L 204.145 134.23  L 207.965 132.32  L 209.875 138.05  L 209.875 143.78  L 207.005 144.74  L 206.045 148.56  L 212.735 151.43  L 212.735 155.25  L 215.605 156.21  L 216.565 153.34  L 219.435 156.21  L 221.345 162.9  L 223.255 163.86  L 225.165 172.46  L 222.295 176.28  L 224.205 181.06  L 223.245 183.93  L 220.375 183.93  L 216.555 181.06  L 209.865 181.06  L 207.955 183.93  L 205.085 184.89  L 198.395 183.93  L 198.395 181.06  L 194.575 186.79  L 189.795 185.83  L 189.795 187.74  L 176.425 185.83  L 171.645 188.7  L 167.825 184.88  L 170.695 182.01  L 172.605 162.91  L 165.915 162.91  L 162.095 156.22  L 162.095 148.58  L 156.365 141.89  L 154.455 141.89  L 155.415 145.71  L 149.685 148.58  L 145.865 144.76  L 145.865 140.94  L 142.995 137.12  L 130.575 142.85  L 122.935 133.3  L 118.155 134.26  L 117.195 136.17  L 113.375 134.26  L 110.505 137.13  L 99.0450000000001 134.26  L 99.0450000000001 131.39  L 95.2250000000001 131.39  L 94.2650000000001 127.57  L 83.7550000000001 121.84  L 82.7950000000001 118.97  L 85.6650000000001 110.37  L 82.7950000000001 110.37  L 81.8350000000001 108.46  L 75.1450000000001 104.64  L 75.1450000000001 97.95  L 77.0550000000001 95.08  L 77.0550000000001 93.17  L 74.1850000000001 92.21  L 75.1450000000001 88.39  L 69.4150000000001 85.52  L 64.6350000000001 86.48  L 62.7250000000001 88.39  L 57.9450000000001 88.39  L 52.2150000000001 82.66  L 51.2550000000001 78.84  L 45.5250000000001 75.97  L 27.3750000000001 74.06  L 26.4150000000001 73.1  L 30.2350000000001 72.14  L 29.2750000000001 70.23  L 18.7650000000001 63.54  L 14.9450000000001 54.94  L 9.285 53.01  L 9.285 49.19  L 1.645 51.1  L 0.684999999999998 49.19  L 4.505 41.55  L 0.684999999999998 39.63  L 1.645 35.81  L 5.465 33.9  L 6.425 19.57  L 12.155 11.93  L 15.025 12.89  L 25.535 10.98  L 32.225 9.07000000000001  L 33.185 6.20000000000001  L 37.005 8.11000000000001  L 41.785 7.15000000000001  L 52.295 10.02  L 54.205 5.24000000000001  L 52.295 3.33000000000001  L 53.255 0.460000000000008  L 55.165 1.42000000000001  L 55.165 8.11000000000001  L 56.125 1.42000000000001  L 57.085 8.11000000000001  L 61.865 8.11000000000001  L 69.505 12.89  L 69.505 16.71  L 76.195 16.71  L 71.415 17.67  L 70.455 20.54  L 75.235 20.54  L 77.145 25.32  L 73.285 25.32  L 73.285 28.19  L 77.105 32.97  L 81.885 32.97  L 87.615 39.66  L 88.575 42.53  L 86.665 48.26  L 88.575 51.13  L 91.445 50.17  L 98.135 63.54  L 96.225 68.32  L 100.045 81.69  L 103.865 81.69  L 107.685 78.82  L 109.595 79.78  L 109.595 75  L 112.465 75  L 111.505 72.13  L 113.415 71.17  L 112.455 67.35  L 116.275 65.44  L 115.315 63.53  L 120.095 61.62  L 118.185 62.58  L 118.185 60.67  L 120.095 61.63  L 123.915 58.76  L 128.695 61.63  L 128.695 65.45  L 131.565 66.41  L 131.565 68.32  L 136.345 74.05  L 139.215 75.01  L 139.215 76.92  L 148.765 75.96  L 149.725 77.87  L 152.595 77.87  L 154.505 73.09  L 156.415 74.05  L 157.375 72.14  L 160.245 72.14  L 163.115 67.36  L 163.115 64.49  L 174.575 67.36  L 176 69.27  L 176 49.19  L 190.815 50.15  L 190.815 46.33  L 194.635 47.29  L 196.545 45.38  L 201.325 46.34  L 203.235 50.16  L 205.145 48.25  L 214.695 50.16  L 213.735 52.07  L 216.605 53.98  L 211.825 61.62  L 217.555 63.53  L 219.465 62.57  L 225.195 65.44  L 222.325 71.17  L 219.455 72.13  L 218.495 74.04  L 224 78.82  L 224 90.28  L 225.185 88.37  L 225.185 90.28  L 229.005 90.28  L 229.005 86.46  L 236.645 86.46  L 237.605 83.59  L 249.065 84.55  L 251.935 82.64  Z " stroke-width="2" stroke-dasharray="3,1" stroke="#ffffff" fill="none" stroke-opacity="0.2" transform="matrix(1 0 0 1 614 242 )" mask="url(#clip2124)" />
    </g>
  </defs>
  <g transform="matrix(1 0 0 1 -604 -242 )">
    <use xlink:href="#widget2126" filter="url(#filter2125)" />
    <use xlink:href="#widget2126" />
  </g>
</svg>