<?xml version="1.0" encoding="utf-8"?>
<svg version="1.1" xmlns:xlink="http://www.w3.org/1999/xlink" width="199px" height="224px" xmlns="http://www.w3.org/2000/svg">
  <defs>
    <mask fill="white" id="clip2136">
      <path d="M 133.785 191.25  L 122.385 187.51  L 112.835 187.51  L 106.145 179.87  L 105.185 175.09  L 101.365 175.09  L 101.365 173.18  L 103.275 172.22  L 100.405 167.44  L 91.805 169.35  L 90.845 171.26  L 86.0650000000001 170.3  L 85.1050000000001 167.43  L 80.3250000000001 168.39  L 79.3650000000001 175.08  L 76.4950000000001 173.17  L 75.5350000000001 182.72  L 67 183.68  L 67 195.14  L 68.8450000000001 199.92  L 65.0250000000001 202.79  L 54.5150000000002 198.97  L 46.8750000000002 202  L 35.4150000000002 202  L 32.5450000000002 201.83  L 31.5850000000002 198.96  L 26.8050000000002 203.74  L 22.0250000000002 202.78  L 22.0250000000002 197.05  L 19.1550000000002 195.14  L 17.2450000000002 197.05  L 16.2850000000002 194.18  L 12.4650000000002 193.22  L 13.4250000000002 184.62  L 11.5150000000002 184.62  L 11.5150000000002 182.71  L 6.73500000000021 183.67  L 4.82500000000022 172.21  L 14.3750000000002 167.43  L 6.73500000000024 164.56  L 5.77500000000023 155.01  L 4.81500000000023 153.1  L 1.94500000000022 153.1  L 3.85500000000022 149.28  L 0.985000000000212 149.28  L 2.89500000000021 149.28  L 1.9350000000002 145.46  L 3.8450000000002 134.95  L 8.6250000000002 132.08  L 28.6850000000002 133.99  L 39.1950000000002 123.48  L 71.6750000000002 111.06  L 67.8550000000002 105.33  L 72.6350000000002 96.73  L 71.6750000000002 90.04  L 73.5850000000003 87.17  L 75.4950000000003 77.62  L 70.7150000000003 72.84  L 69.7550000000003 68.06  L 74.5350000000003 66.15  L 73.5750000000003 63.28  L 76.4450000000003 58.5  L 76.4450000000003 53.72  L 74.5350000000003 52.76  L 75.4950000000003 48.94  L 73.5850000000003 47.98  L 75.4950000000003 45.11  L 74.5350000000003 42.24  L 76.4450000000003 37.46  L 82.1750000000004 30.77  L 87.9050000000004 30.77  L 95.5450000000004 25.99  L 97.4550000000004 28.86  L 99.3650000000004 28.86  L 98.4050000000004 29.82  L 100.315 29.82  L 106.045 23.13  L 104.135 19.31  L 107.955 17.4  L 112.735 10.71  L 117.515 7.83999999999998  L 120.385 0.199999999999989  L 129.935 9.75  L 136.625 7.84  L 138.535 9.75  L 147.135 8.78999999999999  L 149.045 13.57  L 151.915 13.57  L 152.875 17.39  L 163.385 10.7  L 162.425 9.73999999999998  L 165.295 9.73999999999998  L 165.295 11.65  L 167.205 11.65  L 170.075000000001 14.52  L 172.945000000001 14.52  L 172.945000000001 17.39  L 175.815000000001 22.17  L 178.685000000001 22.17  L 177.725000000001 28.86  L 167.215000000001 39.37  L 163.395000000001 47.97  L 161.485000000001 55.6099999999999  L 158.615000000001 59.43  L 158.615000000001 65.1599999999999  L 160.525000000001 65.1599999999999  L 156.705000000001 68.0299999999999  L 155.745000000001 67.0699999999999  L 160.525000000001 85.2199999999999  L 168.165000000001 92.8599999999999  L 170.075000000001 91.8999999999999  L 175.805000000001 97.6299999999999  L 169.115000000001 103.36  L 166.245000000001 100.49  L 164.335000000001 100.49  L 159.555000000001 101.45  L 153.825000000001 105.27  L 134.725000000001 108.14  L 128.035000000001 111.01  L 131.855000000001 117.7  L 118.485000000001 120.57  L 117.525000000001 119.61  L 119.435000000001 121.52  L 116.565000000001 128.21  L 117.525000000001 130.12  L 125.165000000001 132.03  L 126.125 131.07  L 127.085 139.67  L 129.955 138.71  L 136.645 141.58  L 141.425 152.09  L 144.295 154  L 143.335 157.82  L 139.515 161.64  L 139.515 169.28  L 142.385000000001 180.74  L 140.475 188.38  L 133.785 191.25  Z " fill-rule="evenodd" />
    </mask>
    <filter x="830px" y="374px" width="199px" height="224px" filterUnits="userSpaceOnUse" id="filter2137">
      <feOffset dx="0" dy="10" in="SourceAlpha" result="shadowOffsetInner" />
      <feGaussianBlur stdDeviation="5" in="shadowOffsetInner" result="shadowGaussian" />
      <feComposite in2="shadowGaussian" operator="atop" in="SourceAlpha" result="shadowComposite" />
      <feColorMatrix type="matrix" values="0 0 0 0 0.2  0 0 0 0 0.6  0 0 0 0 1  0 0 0 1 0  " in="shadowComposite" />
    </filter>
    <g id="widget2138">
      <path d="M 133.785 191.25  L 122.385 187.51  L 112.835 187.51  L 106.145 179.87  L 105.185 175.09  L 101.365 175.09  L 101.365 173.18  L 103.275 172.22  L 100.405 167.44  L 91.805 169.35  L 90.845 171.26  L 86.0650000000001 170.3  L 85.1050000000001 167.43  L 80.3250000000001 168.39  L 79.3650000000001 175.08  L 76.4950000000001 173.17  L 75.5350000000001 182.72  L 67 183.68  L 67 195.14  L 68.8450000000001 199.92  L 65.0250000000001 202.79  L 54.5150000000002 198.97  L 46.8750000000002 202  L 35.4150000000002 202  L 32.5450000000002 201.83  L 31.5850000000002 198.96  L 26.8050000000002 203.74  L 22.0250000000002 202.78  L 22.0250000000002 197.05  L 19.1550000000002 195.14  L 17.2450000000002 197.05  L 16.2850000000002 194.18  L 12.4650000000002 193.22  L 13.4250000000002 184.62  L 11.5150000000002 184.62  L 11.5150000000002 182.71  L 6.73500000000021 183.67  L 4.82500000000022 172.21  L 14.3750000000002 167.43  L 6.73500000000024 164.56  L 5.77500000000023 155.01  L 4.81500000000023 153.1  L 1.94500000000022 153.1  L 3.85500000000022 149.28  L 0.985000000000212 149.28  L 2.89500000000021 149.28  L 1.9350000000002 145.46  L 3.8450000000002 134.95  L 8.6250000000002 132.08  L 28.6850000000002 133.99  L 39.1950000000002 123.48  L 71.6750000000002 111.06  L 67.8550000000002 105.33  L 72.6350000000002 96.73  L 71.6750000000002 90.04  L 73.5850000000003 87.17  L 75.4950000000003 77.62  L 70.7150000000003 72.84  L 69.7550000000003 68.06  L 74.5350000000003 66.15  L 73.5750000000003 63.28  L 76.4450000000003 58.5  L 76.4450000000003 53.72  L 74.5350000000003 52.76  L 75.4950000000003 48.94  L 73.5850000000003 47.98  L 75.4950000000003 45.11  L 74.5350000000003 42.24  L 76.4450000000003 37.46  L 82.1750000000004 30.77  L 87.9050000000004 30.77  L 95.5450000000004 25.99  L 97.4550000000004 28.86  L 99.3650000000004 28.86  L 98.4050000000004 29.82  L 100.315 29.82  L 106.045 23.13  L 104.135 19.31  L 107.955 17.4  L 112.735 10.71  L 117.515 7.83999999999998  L 120.385 0.199999999999989  L 129.935 9.75  L 136.625 7.84  L 138.535 9.75  L 147.135 8.78999999999999  L 149.045 13.57  L 151.915 13.57  L 152.875 17.39  L 163.385 10.7  L 162.425 9.73999999999998  L 165.295 9.73999999999998  L 165.295 11.65  L 167.205 11.65  L 170.075000000001 14.52  L 172.945000000001 14.52  L 172.945000000001 17.39  L 175.815000000001 22.17  L 178.685000000001 22.17  L 177.725000000001 28.86  L 167.215000000001 39.37  L 163.395000000001 47.97  L 161.485000000001 55.6099999999999  L 158.615000000001 59.43  L 158.615000000001 65.1599999999999  L 160.525000000001 65.1599999999999  L 156.705000000001 68.0299999999999  L 155.745000000001 67.0699999999999  L 160.525000000001 85.2199999999999  L 168.165000000001 92.8599999999999  L 170.075000000001 91.8999999999999  L 175.805000000001 97.6299999999999  L 169.115000000001 103.36  L 166.245000000001 100.49  L 164.335000000001 100.49  L 159.555000000001 101.45  L 153.825000000001 105.27  L 134.725000000001 108.14  L 128.035000000001 111.01  L 131.855000000001 117.7  L 118.485000000001 120.57  L 117.525000000001 119.61  L 119.435000000001 121.52  L 116.565000000001 128.21  L 117.525000000001 130.12  L 125.165000000001 132.03  L 126.125 131.07  L 127.085 139.67  L 129.955 138.71  L 136.645 141.58  L 141.425 152.09  L 144.295 154  L 143.335 157.82  L 139.515 161.64  L 139.515 169.28  L 142.385000000001 180.74  L 140.475 188.38  L 133.785 191.25  Z " fill-rule="nonzero" fill="#0fd0e6" stroke="none" transform="matrix(1 0 0 1 840 374 )" />
      <path d="M 133.785 191.25  L 122.385 187.51  L 112.835 187.51  L 106.145 179.87  L 105.185 175.09  L 101.365 175.09  L 101.365 173.18  L 103.275 172.22  L 100.405 167.44  L 91.805 169.35  L 90.845 171.26  L 86.0650000000001 170.3  L 85.1050000000001 167.43  L 80.3250000000001 168.39  L 79.3650000000001 175.08  L 76.4950000000001 173.17  L 75.5350000000001 182.72  L 67 183.68  L 67 195.14  L 68.8450000000001 199.92  L 65.0250000000001 202.79  L 54.5150000000002 198.97  L 46.8750000000002 202  L 35.4150000000002 202  L 32.5450000000002 201.83  L 31.5850000000002 198.96  L 26.8050000000002 203.74  L 22.0250000000002 202.78  L 22.0250000000002 197.05  L 19.1550000000002 195.14  L 17.2450000000002 197.05  L 16.2850000000002 194.18  L 12.4650000000002 193.22  L 13.4250000000002 184.62  L 11.5150000000002 184.62  L 11.5150000000002 182.71  L 6.73500000000021 183.67  L 4.82500000000022 172.21  L 14.3750000000002 167.43  L 6.73500000000024 164.56  L 5.77500000000023 155.01  L 4.81500000000023 153.1  L 1.94500000000022 153.1  L 3.85500000000022 149.28  L 0.985000000000212 149.28  L 2.89500000000021 149.28  L 1.9350000000002 145.46  L 3.8450000000002 134.95  L 8.6250000000002 132.08  L 28.6850000000002 133.99  L 39.1950000000002 123.48  L 71.6750000000002 111.06  L 67.8550000000002 105.33  L 72.6350000000002 96.73  L 71.6750000000002 90.04  L 73.5850000000003 87.17  L 75.4950000000003 77.62  L 70.7150000000003 72.84  L 69.7550000000003 68.06  L 74.5350000000003 66.15  L 73.5750000000003 63.28  L 76.4450000000003 58.5  L 76.4450000000003 53.72  L 74.5350000000003 52.76  L 75.4950000000003 48.94  L 73.5850000000003 47.98  L 75.4950000000003 45.11  L 74.5350000000003 42.24  L 76.4450000000003 37.46  L 82.1750000000004 30.77  L 87.9050000000004 30.77  L 95.5450000000004 25.99  L 97.4550000000004 28.86  L 99.3650000000004 28.86  L 98.4050000000004 29.82  L 100.315 29.82  L 106.045 23.13  L 104.135 19.31  L 107.955 17.4  L 112.735 10.71  L 117.515 7.83999999999998  L 120.385 0.199999999999989  L 129.935 9.75  L 136.625 7.84  L 138.535 9.75  L 147.135 8.78999999999999  L 149.045 13.57  L 151.915 13.57  L 152.875 17.39  L 163.385 10.7  L 162.425 9.73999999999998  L 165.295 9.73999999999998  L 165.295 11.65  L 167.205 11.65  L 170.075000000001 14.52  L 172.945000000001 14.52  L 172.945000000001 17.39  L 175.815000000001 22.17  L 178.685000000001 22.17  L 177.725000000001 28.86  L 167.215000000001 39.37  L 163.395000000001 47.97  L 161.485000000001 55.6099999999999  L 158.615000000001 59.43  L 158.615000000001 65.1599999999999  L 160.525000000001 65.1599999999999  L 156.705000000001 68.0299999999999  L 155.745000000001 67.0699999999999  L 160.525000000001 85.2199999999999  L 168.165000000001 92.8599999999999  L 170.075000000001 91.8999999999999  L 175.805000000001 97.6299999999999  L 169.115000000001 103.36  L 166.245000000001 100.49  L 164.335000000001 100.49  L 159.555000000001 101.45  L 153.825000000001 105.27  L 134.725000000001 108.14  L 128.035000000001 111.01  L 131.855000000001 117.7  L 118.485000000001 120.57  L 117.525000000001 119.61  L 119.435000000001 121.52  L 116.565000000001 128.21  L 117.525000000001 130.12  L 125.165000000001 132.03  L 126.125 131.07  L 127.085 139.67  L 129.955 138.71  L 136.645 141.58  L 141.425 152.09  L 144.295 154  L 143.335 157.82  L 139.515 161.64  L 139.515 169.28  L 142.385000000001 180.74  L 140.475 188.38  L 133.785 191.25  Z " stroke-width="2" stroke-dasharray="3,1" stroke="#ffffff" fill="none" stroke-opacity="0.2" transform="matrix(1 0 0 1 840 374 )" mask="url(#clip2136)" />
    </g>
  </defs>
  <g transform="matrix(1 0 0 1 -830 -374 )">
    <use xlink:href="#widget2138" filter="url(#filter2137)" />
    <use xlink:href="#widget2138" />
  </g>
</svg>