<?xml version="1.0" encoding="utf-8"?>
<svg version="1.1" xmlns:xlink="http://www.w3.org/1999/xlink" width="131px" height="132px" xmlns="http://www.w3.org/2000/svg">
  <defs>
    <mask fill="white" id="clip2127">
      <path d="M 102.865 7.86000000000001  L 102.865 7.92000000000002  L 108.595 12.7  L 106.685 16.52  L 108.595 20.34  L 105.725 24.16  L 107.635 26.07  L 104.765 29.89  L 106.675 30.85  L 106.675 33.72  L 108.585 34.6799999999999  L 109.545 32.7699999999999  L 111.455 34.6799999999999  L 118.145 29.9  L 127.695 27.03  L 128.655 28.94  L 126.745 34.67  L 128.655 35.63  L 127.695 37.54  L 130.565 44.23  L 124 44.23  L 124 54.74  L 121.965 54.74  L 121.005 62.38  L 115.275 65.25  L 113.365 69.0700000000001  L 114.325 73.85  L 118.145 73.85  L 119.105 78.63  L 121.975 80.54  L 119.105 83.41  L 120.065 86.28  L 113.375 89.15  L 111.465 94.88  L 111.465 100.61  L 118.155 102.52  L 118.155 104.43  L 113.375 104.43  L 109.555 100.61  L 108.595 97.7399999999999  L 111.465 83.4099999999999  L 110.505 81.4999999999999  L 105.725 79.5899999999999  L 105.725 81.4999999999999  L 102.855 78.6299999999999  L 102.855 75.7599999999999  L 98.0750000000001 72.8899999999999  L 89.4750000000001 73.8499999999999  L 87.5650000000001 76.7199999999999  L 85.655 76.7199999999999  L 80.8750000000001 72.8999999999999  L 72.275 72.8999999999999  L 67.4950000000001 66.2099999999998  L 63.6750000000001 65.2499999999998  L 61.765 66.2099999999998  L 62.725 70.0299999999999  L 56.035 76.7199999999999  L 55.075 80.54  L 53.165 80.54  L 54.125 83.41  L 52.215 86.28  L 55.085 85.3199999999999  L 55.085 89.14  L 54.125 91.05  L 51.255 90.0899999999999  L 51.255 93.91  L 49.345 93.91  L 47.4349999999999 107.28  L 49.345 111.1  L 47.4349999999999 117.79  L 51.2549999999999 120.66  L 51.2549999999999 127.35  L 48.3849999999999 130.22  L 43.605 129.26  L 42.645 131.17  L 35.005 126.39  L 34.045 128.3  L 32.135 127.34  L 31.175 125.43  L 33.085 125.43  L 30.215 125.43  L 27.345 122.56  L 30.215 113.96  L 27.345 109.18  L 24.475 115.87  L 19.6950000000001 114.91  L 15.8750000000001 116.82  L 14.9150000000001 114.91  L 8.22500000000008 114.91  L 7.2650000000001 111.09  L 5.35500000000008 110.13  L 10.135 102.49  L 8.22500000000002 99.62  L 4.40500000000003 97.71  L 3.44500000000005 89.11  L 0.575000000000045 89.11  L 2.48500000000007 83.38  L 1.52500000000009 81.47  L 5.34500000000008 80.51  L 7.25500000000011 77.64  L 5.34500000000008 76.6799999999999  L 6.30500000000006 73.8099999999999  L 10.1250000000001 70.9399999999999  L 12.0350000000001 62.3399999999999  L 17.7650000000001 60.4299999999999  L 21.5850000000001 56.61  L 23.4950000000001 48.0099999999999  L 20.6250000000001 47.05  L 20.6250000000001 42.27  L 22.5350000000001 38.45  L 21.5750000000002 35.58  L 24.4450000000002 32.71  L 23.4850000000002 30.8  L 25.3950000000002 28.8899999999999  L 28.2650000000002 28.8899999999999  L 29.2250000000002 30.8  L 37.8250000000002 33.67  L 35.9150000000002 31.7599999999999  L 34.9550000000002 26.98  L 38.7750000000002 25.0699999999999  L 45.4650000000002 29.8499999999999  L 53.1050000000002 29.8499999999999  L 57.8850000000002 34.6299999999999  L 58.8450000000001 38.4499999999999  L 62.6650000000001 38.4499999999999  L 68.3950000000002 44.1799999999999  L 74.1250000000002 47.0499999999999  L 73.1650000000002 46.0899999999999  L 75.0750000000002 40.3599999999999  L 76.9850000000002 36.5399999999999  L 79.8550000000002 36.5399999999999  L 79.8550000000002 33.6699999999999  L 82.7250000000003 29.8499999999999  L 77.9450000000003 30.8099999999999  L 76.0350000000003 26.0299999999999  L 78.9050000000003 21.2499999999999  L 76.9950000000002 20.29  L 79.8650000000002 20.29  L 77.9550000000002 15.51  L 80.8250000000002 1.18000000000001  L 90.3750000000002 0.220000000000027  L 96.1050000000002 7.86000000000001  L 99.9250000000002 7.86000000000001  L 102.865 7.86000000000001  Z " fill-rule="evenodd" />
    </mask>
  </defs>
  <g transform="matrix(1 0 0 1 -956 -673 )">
    <path d="M 102.865 7.86000000000001  L 102.865 7.92000000000002  L 108.595 12.7  L 106.685 16.52  L 108.595 20.34  L 105.725 24.16  L 107.635 26.07  L 104.765 29.89  L 106.675 30.85  L 106.675 33.72  L 108.585 34.6799999999999  L 109.545 32.7699999999999  L 111.455 34.6799999999999  L 118.145 29.9  L 127.695 27.03  L 128.655 28.94  L 126.745 34.67  L 128.655 35.63  L 127.695 37.54  L 130.565 44.23  L 124 44.23  L 124 54.74  L 121.965 54.74  L 121.005 62.38  L 115.275 65.25  L 113.365 69.0700000000001  L 114.325 73.85  L 118.145 73.85  L 119.105 78.63  L 121.975 80.54  L 119.105 83.41  L 120.065 86.28  L 113.375 89.15  L 111.465 94.88  L 111.465 100.61  L 118.155 102.52  L 118.155 104.43  L 113.375 104.43  L 109.555 100.61  L 108.595 97.7399999999999  L 111.465 83.4099999999999  L 110.505 81.4999999999999  L 105.725 79.5899999999999  L 105.725 81.4999999999999  L 102.855 78.6299999999999  L 102.855 75.7599999999999  L 98.0750000000001 72.8899999999999  L 89.4750000000001 73.8499999999999  L 87.5650000000001 76.7199999999999  L 85.655 76.7199999999999  L 80.8750000000001 72.8999999999999  L 72.275 72.8999999999999  L 67.4950000000001 66.2099999999998  L 63.6750000000001 65.2499999999998  L 61.765 66.2099999999998  L 62.725 70.0299999999999  L 56.035 76.7199999999999  L 55.075 80.54  L 53.165 80.54  L 54.125 83.41  L 52.215 86.28  L 55.085 85.3199999999999  L 55.085 89.14  L 54.125 91.05  L 51.255 90.0899999999999  L 51.255 93.91  L 49.345 93.91  L 47.4349999999999 107.28  L 49.345 111.1  L 47.4349999999999 117.79  L 51.2549999999999 120.66  L 51.2549999999999 127.35  L 48.3849999999999 130.22  L 43.605 129.26  L 42.645 131.17  L 35.005 126.39  L 34.045 128.3  L 32.135 127.34  L 31.175 125.43  L 33.085 125.43  L 30.215 125.43  L 27.345 122.56  L 30.215 113.96  L 27.345 109.18  L 24.475 115.87  L 19.6950000000001 114.91  L 15.8750000000001 116.82  L 14.9150000000001 114.91  L 8.22500000000008 114.91  L 7.2650000000001 111.09  L 5.35500000000008 110.13  L 10.135 102.49  L 8.22500000000002 99.62  L 4.40500000000003 97.71  L 3.44500000000005 89.11  L 0.575000000000045 89.11  L 2.48500000000007 83.38  L 1.52500000000009 81.47  L 5.34500000000008 80.51  L 7.25500000000011 77.64  L 5.34500000000008 76.6799999999999  L 6.30500000000006 73.8099999999999  L 10.1250000000001 70.9399999999999  L 12.0350000000001 62.3399999999999  L 17.7650000000001 60.4299999999999  L 21.5850000000001 56.61  L 23.4950000000001 48.0099999999999  L 20.6250000000001 47.05  L 20.6250000000001 42.27  L 22.5350000000001 38.45  L 21.5750000000002 35.58  L 24.4450000000002 32.71  L 23.4850000000002 30.8  L 25.3950000000002 28.8899999999999  L 28.2650000000002 28.8899999999999  L 29.2250000000002 30.8  L 37.8250000000002 33.67  L 35.9150000000002 31.7599999999999  L 34.9550000000002 26.98  L 38.7750000000002 25.0699999999999  L 45.4650000000002 29.8499999999999  L 53.1050000000002 29.8499999999999  L 57.8850000000002 34.6299999999999  L 58.8450000000001 38.4499999999999  L 62.6650000000001 38.4499999999999  L 68.3950000000002 44.1799999999999  L 74.1250000000002 47.0499999999999  L 73.1650000000002 46.0899999999999  L 75.0750000000002 40.3599999999999  L 76.9850000000002 36.5399999999999  L 79.8550000000002 36.5399999999999  L 79.8550000000002 33.6699999999999  L 82.7250000000003 29.8499999999999  L 77.9450000000003 30.8099999999999  L 76.0350000000003 26.0299999999999  L 78.9050000000003 21.2499999999999  L 76.9950000000002 20.29  L 79.8650000000002 20.29  L 77.9550000000002 15.51  L 80.8250000000002 1.18000000000001  L 90.3750000000002 0.220000000000027  L 96.1050000000002 7.86000000000001  L 99.9250000000002 7.86000000000001  L 102.865 7.86000000000001  Z " fill-rule="nonzero" fill="#0fd0e6" stroke="none" fill-opacity="0.0980392156862745" transform="matrix(1 0 0 1 956 673 )" />
    <path d="M 102.865 7.86000000000001  L 102.865 7.92000000000002  L 108.595 12.7  L 106.685 16.52  L 108.595 20.34  L 105.725 24.16  L 107.635 26.07  L 104.765 29.89  L 106.675 30.85  L 106.675 33.72  L 108.585 34.6799999999999  L 109.545 32.7699999999999  L 111.455 34.6799999999999  L 118.145 29.9  L 127.695 27.03  L 128.655 28.94  L 126.745 34.67  L 128.655 35.63  L 127.695 37.54  L 130.565 44.23  L 124 44.23  L 124 54.74  L 121.965 54.74  L 121.005 62.38  L 115.275 65.25  L 113.365 69.0700000000001  L 114.325 73.85  L 118.145 73.85  L 119.105 78.63  L 121.975 80.54  L 119.105 83.41  L 120.065 86.28  L 113.375 89.15  L 111.465 94.88  L 111.465 100.61  L 118.155 102.52  L 118.155 104.43  L 113.375 104.43  L 109.555 100.61  L 108.595 97.7399999999999  L 111.465 83.4099999999999  L 110.505 81.4999999999999  L 105.725 79.5899999999999  L 105.725 81.4999999999999  L 102.855 78.6299999999999  L 102.855 75.7599999999999  L 98.0750000000001 72.8899999999999  L 89.4750000000001 73.8499999999999  L 87.5650000000001 76.7199999999999  L 85.655 76.7199999999999  L 80.8750000000001 72.8999999999999  L 72.275 72.8999999999999  L 67.4950000000001 66.2099999999998  L 63.6750000000001 65.2499999999998  L 61.765 66.2099999999998  L 62.725 70.0299999999999  L 56.035 76.7199999999999  L 55.075 80.54  L 53.165 80.54  L 54.125 83.41  L 52.215 86.28  L 55.085 85.3199999999999  L 55.085 89.14  L 54.125 91.05  L 51.255 90.0899999999999  L 51.255 93.91  L 49.345 93.91  L 47.4349999999999 107.28  L 49.345 111.1  L 47.4349999999999 117.79  L 51.2549999999999 120.66  L 51.2549999999999 127.35  L 48.3849999999999 130.22  L 43.605 129.26  L 42.645 131.17  L 35.005 126.39  L 34.045 128.3  L 32.135 127.34  L 31.175 125.43  L 33.085 125.43  L 30.215 125.43  L 27.345 122.56  L 30.215 113.96  L 27.345 109.18  L 24.475 115.87  L 19.6950000000001 114.91  L 15.8750000000001 116.82  L 14.9150000000001 114.91  L 8.22500000000008 114.91  L 7.2650000000001 111.09  L 5.35500000000008 110.13  L 10.135 102.49  L 8.22500000000002 99.62  L 4.40500000000003 97.71  L 3.44500000000005 89.11  L 0.575000000000045 89.11  L 2.48500000000007 83.38  L 1.52500000000009 81.47  L 5.34500000000008 80.51  L 7.25500000000011 77.64  L 5.34500000000008 76.6799999999999  L 6.30500000000006 73.8099999999999  L 10.1250000000001 70.9399999999999  L 12.0350000000001 62.3399999999999  L 17.7650000000001 60.4299999999999  L 21.5850000000001 56.61  L 23.4950000000001 48.0099999999999  L 20.6250000000001 47.05  L 20.6250000000001 42.27  L 22.5350000000001 38.45  L 21.5750000000002 35.58  L 24.4450000000002 32.71  L 23.4850000000002 30.8  L 25.3950000000002 28.8899999999999  L 28.2650000000002 28.8899999999999  L 29.2250000000002 30.8  L 37.8250000000002 33.67  L 35.9150000000002 31.7599999999999  L 34.9550000000002 26.98  L 38.7750000000002 25.0699999999999  L 45.4650000000002 29.8499999999999  L 53.1050000000002 29.8499999999999  L 57.8850000000002 34.6299999999999  L 58.8450000000001 38.4499999999999  L 62.6650000000001 38.4499999999999  L 68.3950000000002 44.1799999999999  L 74.1250000000002 47.0499999999999  L 73.1650000000002 46.0899999999999  L 75.0750000000002 40.3599999999999  L 76.9850000000002 36.5399999999999  L 79.8550000000002 36.5399999999999  L 79.8550000000002 33.6699999999999  L 82.7250000000003 29.8499999999999  L 77.9450000000003 30.8099999999999  L 76.0350000000003 26.0299999999999  L 78.9050000000003 21.2499999999999  L 76.9950000000002 20.29  L 79.8650000000002 20.29  L 77.9550000000002 15.51  L 80.8250000000002 1.18000000000001  L 90.3750000000002 0.220000000000027  L 96.1050000000002 7.86000000000001  L 99.9250000000002 7.86000000000001  L 102.865 7.86000000000001  Z " stroke-width="2" stroke-dasharray="3,1" stroke="#ffffff" fill="none" stroke-opacity="0.2" transform="matrix(1 0 0 1 956 673 )" mask="url(#clip2127)" />
  </g>
</svg>