<?xml version="1.0" encoding="utf-8"?>
<svg version="1.1" xmlns:xlink="http://www.w3.org/1999/xlink" width="195px" height="192px" xmlns="http://www.w3.org/2000/svg">
  <defs>
    <mask fill="white" id="clip2132">
      <path d="M 172.765 96.05  L 174.715 96.98  L 172.805 101.76  L 170.895 101.76  L 171.855 104.63  L 169.945 107.5  L 171.855 111.32  L 168.985 113.23  L 168.025 116.1  L 166.115 116.1  L 166.115 119.92  L 164.205 120.88  L 164.205 122.79  L 135.545 142.85  L 135.545 144.76  L 138.415 143.8  L 137.455 148.58  L 139.365 152.4  L 141.275 151.44  L 145.095 155.26  L 145.095 157.17  L 141.275 159.08  L 143.185 166.72  L 139.365 165.76  L 139.365 163.85  L 136.495 163.85  L 137.455 164.81  L 126.945 171.5  L 125.985 167.68  L 123.115 167.68  L 123.115 164.81  L 121.205 162.9  L 112.605 164.81  L 110.695 162.9  L 105.915 161.94  L 104.005 163.85  L 102.095 162.89  L 94.4549999999999 154.29  L 94.4549999999999 150.47  L 88.7249999999999 146.65  L 90.6349999999999 144.74  L 89.6749999999999 138.05  L 85.8549999999999 137.09  L 83.9449999999999 133.27  L 84.9049999999999 129.45  L 82.0349999999999 129.45  L 82.9949999999998 121.81  L 82.0349999999999 117.03  L 81.0749999999999 117.99  L 80.1149999999999 115.12  L 81.0749999999999 107.48  L 83.9449999999999 107.48  L 83.9449999999999 105.57  L 78.2149999999999 105.57  L 77.2549999999999 109.39  L 72.4749999999999 108.43  L 72.4749999999999 110.34  L 67.6949999999999 116.07  L 67.6949999999999 113.2  L 65.7849999999999 111.29  L 58.1449999999999 114.16  L 53.3649999999999 113.2  L 44.7649999999999 122.75  L 41.8949999999999 118.93  L 40.9349999999999 119.89  L 29.475 115.11  L 29.475 111.29  L 33.295 108.42  L 29.475 102.69  L 24.695 101.73  L 20.875 106.51  L 18.005 103.64  L 14.185 102.68  L 7.495 107.46  L 1.76500000000001 105.55  L 0.805000000000007 103.64  L 1.76500000000001 97.91  L 4.63499999999999 93.13  L 2.72499999999999 79.76  L 4.63499999999999 74.98  L 8.45499999999998 75.94  L 6.54499999999996 70.21  L 7.50499999999994 68.3  L 14.1949999999999 65.4299999999999  L 15.1549999999999 62.56  L 18.9749999999999 63.52  L 23.7549999999999 61.61  L 24.7149999999999 64.48  L 28.5349999999999 66.39  L 30.4449999999999 64.48  L 34.2649999999999 67.35  L 44.7749999999999 63.53  L 46.6849999999999 60.66  L 43.8149999999999 57.79  L 40.9449999999999 58.75  L 39.9849999999999 56.84  L 38.0749999999999 56.84  L 38.0749999999999 54.93  L 39.9849999999999 53.97  L 40.9449999999999 50.15  L 45.7249999999999 50.15  L 46.6849999999998 45.37  L 44.7749999999998 43.46  L 49.5549999999998 41.55  L 49.5549999999998 38.68  L 57 27.22  L 57 15.78  L 61.9749999999998 11.96  L 66.7549999999998 12.92  L 73.4449999999998 11  L 86.8149999999998 11  L 90.6349999999998 4.32  L 98.2749999999997 2.41  L 100.185 3.37  L 103.055 0.499999999999997  L 108.785 1.46  L 110.695 5.28  L 108.785 9.1  L 110.695 13.88  L 108.785 14.84  L 107.825 9.11  L 102.095 11.98  L 99.2249999999998 21.53  L 98.2649999999998 35.86  L 100.175 41.59  L 99.2149999999998 44.46  L 102.085 49.24  L 106.865 49.24  L 112.595 54  L 126.925 54  L 126.925 51.15  L 134.565 54.97  L 133.605 56.88  L 127.875 54.97  L 119.275 54.97  L 129.785 56.88  L 135.515 59.75  L 137.425 58.79  L 137.425 60.7  L 133.605 62.61  L 132.645 65.48  L 131.685 64.52  L 130.725 68.34  L 139.325 74.07  L 142.195 74.07  L 143.155 76.94  L 149.845 80.76  L 151.755 83.63  L 168.945 91.27  L 172.765 96.05  Z " fill-rule="evenodd" />
    </mask>
    <filter x="856px" y="220px" width="195px" height="192px" filterUnits="userSpaceOnUse" id="filter2133">
      <feOffset dx="0" dy="10" in="SourceAlpha" result="shadowOffsetInner" />
      <feGaussianBlur stdDeviation="5" in="shadowOffsetInner" result="shadowGaussian" />
      <feComposite in2="shadowGaussian" operator="atop" in="SourceAlpha" result="shadowComposite" />
      <feColorMatrix type="matrix" values="0 0 0 0 0.2  0 0 0 0 0.6  0 0 0 0 1  0 0 0 1 0  " in="shadowComposite" />
    </filter>
    <g id="widget2134">
      <path d="M 172.765 96.05  L 174.715 96.98  L 172.805 101.76  L 170.895 101.76  L 171.855 104.63  L 169.945 107.5  L 171.855 111.32  L 168.985 113.23  L 168.025 116.1  L 166.115 116.1  L 166.115 119.92  L 164.205 120.88  L 164.205 122.79  L 135.545 142.85  L 135.545 144.76  L 138.415 143.8  L 137.455 148.58  L 139.365 152.4  L 141.275 151.44  L 145.095 155.26  L 145.095 157.17  L 141.275 159.08  L 143.185 166.72  L 139.365 165.76  L 139.365 163.85  L 136.495 163.85  L 137.455 164.81  L 126.945 171.5  L 125.985 167.68  L 123.115 167.68  L 123.115 164.81  L 121.205 162.9  L 112.605 164.81  L 110.695 162.9  L 105.915 161.94  L 104.005 163.85  L 102.095 162.89  L 94.4549999999999 154.29  L 94.4549999999999 150.47  L 88.7249999999999 146.65  L 90.6349999999999 144.74  L 89.6749999999999 138.05  L 85.8549999999999 137.09  L 83.9449999999999 133.27  L 84.9049999999999 129.45  L 82.0349999999999 129.45  L 82.9949999999998 121.81  L 82.0349999999999 117.03  L 81.0749999999999 117.99  L 80.1149999999999 115.12  L 81.0749999999999 107.48  L 83.9449999999999 107.48  L 83.9449999999999 105.57  L 78.2149999999999 105.57  L 77.2549999999999 109.39  L 72.4749999999999 108.43  L 72.4749999999999 110.34  L 67.6949999999999 116.07  L 67.6949999999999 113.2  L 65.7849999999999 111.29  L 58.1449999999999 114.16  L 53.3649999999999 113.2  L 44.7649999999999 122.75  L 41.8949999999999 118.93  L 40.9349999999999 119.89  L 29.475 115.11  L 29.475 111.29  L 33.295 108.42  L 29.475 102.69  L 24.695 101.73  L 20.875 106.51  L 18.005 103.64  L 14.185 102.68  L 7.495 107.46  L 1.76500000000001 105.55  L 0.805000000000007 103.64  L 1.76500000000001 97.91  L 4.63499999999999 93.13  L 2.72499999999999 79.76  L 4.63499999999999 74.98  L 8.45499999999998 75.94  L 6.54499999999996 70.21  L 7.50499999999994 68.3  L 14.1949999999999 65.4299999999999  L 15.1549999999999 62.56  L 18.9749999999999 63.52  L 23.7549999999999 61.61  L 24.7149999999999 64.48  L 28.5349999999999 66.39  L 30.4449999999999 64.48  L 34.2649999999999 67.35  L 44.7749999999999 63.53  L 46.6849999999999 60.66  L 43.8149999999999 57.79  L 40.9449999999999 58.75  L 39.9849999999999 56.84  L 38.0749999999999 56.84  L 38.0749999999999 54.93  L 39.9849999999999 53.97  L 40.9449999999999 50.15  L 45.7249999999999 50.15  L 46.6849999999998 45.37  L 44.7749999999998 43.46  L 49.5549999999998 41.55  L 49.5549999999998 38.68  L 57 27.22  L 57 15.78  L 61.9749999999998 11.96  L 66.7549999999998 12.92  L 73.4449999999998 11  L 86.8149999999998 11  L 90.6349999999998 4.32  L 98.2749999999997 2.41  L 100.185 3.37  L 103.055 0.499999999999997  L 108.785 1.46  L 110.695 5.28  L 108.785 9.1  L 110.695 13.88  L 108.785 14.84  L 107.825 9.11  L 102.095 11.98  L 99.2249999999998 21.53  L 98.2649999999998 35.86  L 100.175 41.59  L 99.2149999999998 44.46  L 102.085 49.24  L 106.865 49.24  L 112.595 54  L 126.925 54  L 126.925 51.15  L 134.565 54.97  L 133.605 56.88  L 127.875 54.97  L 119.275 54.97  L 129.785 56.88  L 135.515 59.75  L 137.425 58.79  L 137.425 60.7  L 133.605 62.61  L 132.645 65.48  L 131.685 64.52  L 130.725 68.34  L 139.325 74.07  L 142.195 74.07  L 143.155 76.94  L 149.845 80.76  L 151.755 83.63  L 168.945 91.27  L 172.765 96.05  Z " fill-rule="nonzero" fill="#0fd0e6" stroke="none" transform="matrix(1 0 0 1 866 220 )" />
      <path d="M 172.765 96.05  L 174.715 96.98  L 172.805 101.76  L 170.895 101.76  L 171.855 104.63  L 169.945 107.5  L 171.855 111.32  L 168.985 113.23  L 168.025 116.1  L 166.115 116.1  L 166.115 119.92  L 164.205 120.88  L 164.205 122.79  L 135.545 142.85  L 135.545 144.76  L 138.415 143.8  L 137.455 148.58  L 139.365 152.4  L 141.275 151.44  L 145.095 155.26  L 145.095 157.17  L 141.275 159.08  L 143.185 166.72  L 139.365 165.76  L 139.365 163.85  L 136.495 163.85  L 137.455 164.81  L 126.945 171.5  L 125.985 167.68  L 123.115 167.68  L 123.115 164.81  L 121.205 162.9  L 112.605 164.81  L 110.695 162.9  L 105.915 161.94  L 104.005 163.85  L 102.095 162.89  L 94.4549999999999 154.29  L 94.4549999999999 150.47  L 88.7249999999999 146.65  L 90.6349999999999 144.74  L 89.6749999999999 138.05  L 85.8549999999999 137.09  L 83.9449999999999 133.27  L 84.9049999999999 129.45  L 82.0349999999999 129.45  L 82.9949999999998 121.81  L 82.0349999999999 117.03  L 81.0749999999999 117.99  L 80.1149999999999 115.12  L 81.0749999999999 107.48  L 83.9449999999999 107.48  L 83.9449999999999 105.57  L 78.2149999999999 105.57  L 77.2549999999999 109.39  L 72.4749999999999 108.43  L 72.4749999999999 110.34  L 67.6949999999999 116.07  L 67.6949999999999 113.2  L 65.7849999999999 111.29  L 58.1449999999999 114.16  L 53.3649999999999 113.2  L 44.7649999999999 122.75  L 41.8949999999999 118.93  L 40.9349999999999 119.89  L 29.475 115.11  L 29.475 111.29  L 33.295 108.42  L 29.475 102.69  L 24.695 101.73  L 20.875 106.51  L 18.005 103.64  L 14.185 102.68  L 7.495 107.46  L 1.76500000000001 105.55  L 0.805000000000007 103.64  L 1.76500000000001 97.91  L 4.63499999999999 93.13  L 2.72499999999999 79.76  L 4.63499999999999 74.98  L 8.45499999999998 75.94  L 6.54499999999996 70.21  L 7.50499999999994 68.3  L 14.1949999999999 65.4299999999999  L 15.1549999999999 62.56  L 18.9749999999999 63.52  L 23.7549999999999 61.61  L 24.7149999999999 64.48  L 28.5349999999999 66.39  L 30.4449999999999 64.48  L 34.2649999999999 67.35  L 44.7749999999999 63.53  L 46.6849999999999 60.66  L 43.8149999999999 57.79  L 40.9449999999999 58.75  L 39.9849999999999 56.84  L 38.0749999999999 56.84  L 38.0749999999999 54.93  L 39.9849999999999 53.97  L 40.9449999999999 50.15  L 45.7249999999999 50.15  L 46.6849999999998 45.37  L 44.7749999999998 43.46  L 49.5549999999998 41.55  L 49.5549999999998 38.68  L 57 27.22  L 57 15.78  L 61.9749999999998 11.96  L 66.7549999999998 12.92  L 73.4449999999998 11  L 86.8149999999998 11  L 90.6349999999998 4.32  L 98.2749999999997 2.41  L 100.185 3.37  L 103.055 0.499999999999997  L 108.785 1.46  L 110.695 5.28  L 108.785 9.1  L 110.695 13.88  L 108.785 14.84  L 107.825 9.11  L 102.095 11.98  L 99.2249999999998 21.53  L 98.2649999999998 35.86  L 100.175 41.59  L 99.2149999999998 44.46  L 102.085 49.24  L 106.865 49.24  L 112.595 54  L 126.925 54  L 126.925 51.15  L 134.565 54.97  L 133.605 56.88  L 127.875 54.97  L 119.275 54.97  L 129.785 56.88  L 135.515 59.75  L 137.425 58.79  L 137.425 60.7  L 133.605 62.61  L 132.645 65.48  L 131.685 64.52  L 130.725 68.34  L 139.325 74.07  L 142.195 74.07  L 143.155 76.94  L 149.845 80.76  L 151.755 83.63  L 168.945 91.27  L 172.765 96.05  Z " stroke-width="2" stroke-dasharray="3,1" stroke="#ffffff" fill="none" stroke-opacity="0.2" transform="matrix(1 0 0 1 866 220 )" mask="url(#clip2132)" />
    </g>
  </defs>
  <g transform="matrix(1 0 0 1 -856 -220 )">
    <use xlink:href="#widget2134" filter="url(#filter2133)" />
    <use xlink:href="#widget2134" />
  </g>
</svg>