<?xml version="1.0" encoding="utf-8"?>
<svg version="1.1" xmlns:xlink="http://www.w3.org/1999/xlink" width="154px" height="148px" xmlns="http://www.w3.org/2000/svg">
  <defs>
    <mask fill="white" id="clip2112">
      <path d="M 102.675 2.70999999999952  L 104.585 0.829999999999984  L 104.585 5.60999999999996  L 107.455 9.42999999999995  L 105.545 12.3  L 117.005 15.17  L 117.005 17.08  L 119.875 18.04  L 120.835 22.8199999999999  L 124.655 24.73  L 124.655 30.46  L 129.435 29.5  L 131.345 31.41  L 131.345 34.28  L 133.255 36.1900000000001  L 130.385 39.0600000000001  L 133.255 41.9300000000001  L 128.475 45.7500000000001  L 128.475 49.5700000000001  L 132.295 50.5300000000001  L 131.335 52.4400000000001  L 133.245 55.3100000000001  L 125.605 57.22  L 126.565 61.0400000000001  L 132.295 61.0400000000001  L 133.255 68.6800000000001  L 132.295 69.6400000000001  L 132.295 67.7300000000001  L 129.425 70.6000000000001  L 127.515 70.6000000000001  L 127.515 74.4200000000002  L 119.875 79.2000000000002  L 110.325 79.2000000000002  L 84.5349999999999 94.4800000000001  L 73.0749999999999 105.94  L 49.1949999999999 119.31  L 44.415 121.22  L 42.5049999999999 119.31  L 37.725 119.31  L 37.725 122.18  L 35.8149999999999 122.18  L 31.9949999999999 118.36  L 24.355 120.27  L 22.4449999999999 122.18  L 19.5749999999999 119.31  L 14.795 122.18  L 13.835 125.05  L 8.10499999999996 127.92  L 1.41499999999996 121.23  L 3.32499999999999 118.36  L 4.28499999999997 111.67  L 0.464999999999975 108.8  L 2.375 102.11  L 0.464999999999975 98.2899999999998  L 2.375 84.9199999999998  L 4.28500000000003 84.9199999999998  L 4.28500000000003 81.0999999999998  L 7.15500000000003 82.0599999999998  L 9.06500000000005 77.2799999999999  L 5.24500000000006 77.2799999999999  L 7.15500000000009 74.4099999999999  L 6.19500000000011 71.5399999999998  L 8.10500000000013 71.5399999999998  L 9.06500000000011 67.7199999999998  L 15.7550000000001 61.0299999999997  L 14.7950000000001 57.2099999999997  L 18.6150000000001 56.2499999999997  L 24.3450000000001 63.8899999999996  L 33.8950000000002 63.8899999999996  L 38.6750000000001 67.7099999999997  L 40.5850000000002 67.7099999999997  L 42.4950000000002 64.8399999999997  L 51.0950000000002 63.8799999999997  L 55.8750000000002 66.7499999999997  L 55.8750000000002 69.6199999999997  L 58.7450000000002 72.4899999999997  L 58.7450000000002 70.5799999999997  L 64.4750000000002 73.4499999999997  L 61.6050000000002 88.7299999999997  L 64.4750000000002 94.4599999999997  L 70.2050000000002 96.3699999999997  L 71.1650000000002 93.4999999999997  L 64.4750000000002 92.5399999999996  L 64.4750000000002 85.8499999999996  L 66.3850000000002 81.0699999999996  L 73.0750000000002 77.2499999999995  L 72.1150000000003 74.3799999999995  L 74.9850000000002 71.5099999999995  L 73.0750000000002 69.5999999999996  L 72.1150000000003 70.5599999999996  L 71.1550000000003 64.8299999999996  L 67.3350000000003 64.8299999999996  L 66.3750000000003 60.0499999999996  L 68.2850000000003 56.2299999999996  L 74.0150000000003 53.3599999999996  L 74.9750000000003 45.7199999999996  L 77 45.7199999999996  L 77 35.2099999999996  L 83.5750000000003 35.2099999999996  L 80.7050000000003 28.5199999999996  L 81.6650000000003 26.6099999999996  L 79.7550000000003 25.6499999999996  L 81.6650000000003 19.9199999999996  L 80.7050000000003 18.0099999999995  L 69.2450000000003 20.8799999999995  L 64.4650000000004 25.6599999999995  L 62.5550000000003 23.7499999999995  L 61.5950000000004 25.6599999999995  L 59.6850000000003 24.6999999999995  L 59.6850000000003 21.8299999999995  L 57.7750000000003 20.8699999999995  L 60.6450000000003 17.9999999999995  L 58.7350000000003 15.1299999999995  L 61.6050000000003 11.3099999999995  L 59.6950000000003 8.43999999999954  L 61.6050000000003 4.61999999999955  L 80.7050000000003 9.39999999999952  L 88.3450000000003 9.39999999999952  L 102.675 2.70999999999952  Z " fill-rule="evenodd" />
    </mask>
    <filter x="993px" y="682px" width="154px" height="148px" filterUnits="userSpaceOnUse" id="filter2113">
      <feOffset dx="0" dy="10" in="SourceAlpha" result="shadowOffsetInner" />
      <feGaussianBlur stdDeviation="5" in="shadowOffsetInner" result="shadowGaussian" />
      <feComposite in2="shadowGaussian" operator="atop" in="SourceAlpha" result="shadowComposite" />
      <feColorMatrix type="matrix" values="0 0 0 0 0.2  0 0 0 0 0.6  0 0 0 0 1  0 0 0 1 0  " in="shadowComposite" />
    </filter>
    <g id="widget2114">
      <path d="M 102.675 2.70999999999952  L 104.585 0.829999999999984  L 104.585 5.60999999999996  L 107.455 9.42999999999995  L 105.545 12.3  L 117.005 15.17  L 117.005 17.08  L 119.875 18.04  L 120.835 22.8199999999999  L 124.655 24.73  L 124.655 30.46  L 129.435 29.5  L 131.345 31.41  L 131.345 34.28  L 133.255 36.1900000000001  L 130.385 39.0600000000001  L 133.255 41.9300000000001  L 128.475 45.7500000000001  L 128.475 49.5700000000001  L 132.295 50.5300000000001  L 131.335 52.4400000000001  L 133.245 55.3100000000001  L 125.605 57.22  L 126.565 61.0400000000001  L 132.295 61.0400000000001  L 133.255 68.6800000000001  L 132.295 69.6400000000001  L 132.295 67.7300000000001  L 129.425 70.6000000000001  L 127.515 70.6000000000001  L 127.515 74.4200000000002  L 119.875 79.2000000000002  L 110.325 79.2000000000002  L 84.5349999999999 94.4800000000001  L 73.0749999999999 105.94  L 49.1949999999999 119.31  L 44.415 121.22  L 42.5049999999999 119.31  L 37.725 119.31  L 37.725 122.18  L 35.8149999999999 122.18  L 31.9949999999999 118.36  L 24.355 120.27  L 22.4449999999999 122.18  L 19.5749999999999 119.31  L 14.795 122.18  L 13.835 125.05  L 8.10499999999996 127.92  L 1.41499999999996 121.23  L 3.32499999999999 118.36  L 4.28499999999997 111.67  L 0.464999999999975 108.8  L 2.375 102.11  L 0.464999999999975 98.2899999999998  L 2.375 84.9199999999998  L 4.28500000000003 84.9199999999998  L 4.28500000000003 81.0999999999998  L 7.15500000000003 82.0599999999998  L 9.06500000000005 77.2799999999999  L 5.24500000000006 77.2799999999999  L 7.15500000000009 74.4099999999999  L 6.19500000000011 71.5399999999998  L 8.10500000000013 71.5399999999998  L 9.06500000000011 67.7199999999998  L 15.7550000000001 61.0299999999997  L 14.7950000000001 57.2099999999997  L 18.6150000000001 56.2499999999997  L 24.3450000000001 63.8899999999996  L 33.8950000000002 63.8899999999996  L 38.6750000000001 67.7099999999997  L 40.5850000000002 67.7099999999997  L 42.4950000000002 64.8399999999997  L 51.0950000000002 63.8799999999997  L 55.8750000000002 66.7499999999997  L 55.8750000000002 69.6199999999997  L 58.7450000000002 72.4899999999997  L 58.7450000000002 70.5799999999997  L 64.4750000000002 73.4499999999997  L 61.6050000000002 88.7299999999997  L 64.4750000000002 94.4599999999997  L 70.2050000000002 96.3699999999997  L 71.1650000000002 93.4999999999997  L 64.4750000000002 92.5399999999996  L 64.4750000000002 85.8499999999996  L 66.3850000000002 81.0699999999996  L 73.0750000000002 77.2499999999995  L 72.1150000000003 74.3799999999995  L 74.9850000000002 71.5099999999995  L 73.0750000000002 69.5999999999996  L 72.1150000000003 70.5599999999996  L 71.1550000000003 64.8299999999996  L 67.3350000000003 64.8299999999996  L 66.3750000000003 60.0499999999996  L 68.2850000000003 56.2299999999996  L 74.0150000000003 53.3599999999996  L 74.9750000000003 45.7199999999996  L 77 45.7199999999996  L 77 35.2099999999996  L 83.5750000000003 35.2099999999996  L 80.7050000000003 28.5199999999996  L 81.6650000000003 26.6099999999996  L 79.7550000000003 25.6499999999996  L 81.6650000000003 19.9199999999996  L 80.7050000000003 18.0099999999995  L 69.2450000000003 20.8799999999995  L 64.4650000000004 25.6599999999995  L 62.5550000000003 23.7499999999995  L 61.5950000000004 25.6599999999995  L 59.6850000000003 24.6999999999995  L 59.6850000000003 21.8299999999995  L 57.7750000000003 20.8699999999995  L 60.6450000000003 17.9999999999995  L 58.7350000000003 15.1299999999995  L 61.6050000000003 11.3099999999995  L 59.6950000000003 8.43999999999954  L 61.6050000000003 4.61999999999955  L 80.7050000000003 9.39999999999952  L 88.3450000000003 9.39999999999952  L 102.675 2.70999999999952  Z " fill-rule="nonzero" fill="#0fd0e6" stroke="none" transform="matrix(1 0 0 1 1003 682 )" />
      <path d="M 102.675 2.70999999999952  L 104.585 0.829999999999984  L 104.585 5.60999999999996  L 107.455 9.42999999999995  L 105.545 12.3  L 117.005 15.17  L 117.005 17.08  L 119.875 18.04  L 120.835 22.8199999999999  L 124.655 24.73  L 124.655 30.46  L 129.435 29.5  L 131.345 31.41  L 131.345 34.28  L 133.255 36.1900000000001  L 130.385 39.0600000000001  L 133.255 41.9300000000001  L 128.475 45.7500000000001  L 128.475 49.5700000000001  L 132.295 50.5300000000001  L 131.335 52.4400000000001  L 133.245 55.3100000000001  L 125.605 57.22  L 126.565 61.0400000000001  L 132.295 61.0400000000001  L 133.255 68.6800000000001  L 132.295 69.6400000000001  L 132.295 67.7300000000001  L 129.425 70.6000000000001  L 127.515 70.6000000000001  L 127.515 74.4200000000002  L 119.875 79.2000000000002  L 110.325 79.2000000000002  L 84.5349999999999 94.4800000000001  L 73.0749999999999 105.94  L 49.1949999999999 119.31  L 44.415 121.22  L 42.5049999999999 119.31  L 37.725 119.31  L 37.725 122.18  L 35.8149999999999 122.18  L 31.9949999999999 118.36  L 24.355 120.27  L 22.4449999999999 122.18  L 19.5749999999999 119.31  L 14.795 122.18  L 13.835 125.05  L 8.10499999999996 127.92  L 1.41499999999996 121.23  L 3.32499999999999 118.36  L 4.28499999999997 111.67  L 0.464999999999975 108.8  L 2.375 102.11  L 0.464999999999975 98.2899999999998  L 2.375 84.9199999999998  L 4.28500000000003 84.9199999999998  L 4.28500000000003 81.0999999999998  L 7.15500000000003 82.0599999999998  L 9.06500000000005 77.2799999999999  L 5.24500000000006 77.2799999999999  L 7.15500000000009 74.4099999999999  L 6.19500000000011 71.5399999999998  L 8.10500000000013 71.5399999999998  L 9.06500000000011 67.7199999999998  L 15.7550000000001 61.0299999999997  L 14.7950000000001 57.2099999999997  L 18.6150000000001 56.2499999999997  L 24.3450000000001 63.8899999999996  L 33.8950000000002 63.8899999999996  L 38.6750000000001 67.7099999999997  L 40.5850000000002 67.7099999999997  L 42.4950000000002 64.8399999999997  L 51.0950000000002 63.8799999999997  L 55.8750000000002 66.7499999999997  L 55.8750000000002 69.6199999999997  L 58.7450000000002 72.4899999999997  L 58.7450000000002 70.5799999999997  L 64.4750000000002 73.4499999999997  L 61.6050000000002 88.7299999999997  L 64.4750000000002 94.4599999999997  L 70.2050000000002 96.3699999999997  L 71.1650000000002 93.4999999999997  L 64.4750000000002 92.5399999999996  L 64.4750000000002 85.8499999999996  L 66.3850000000002 81.0699999999996  L 73.0750000000002 77.2499999999995  L 72.1150000000003 74.3799999999995  L 74.9850000000002 71.5099999999995  L 73.0750000000002 69.5999999999996  L 72.1150000000003 70.5599999999996  L 71.1550000000003 64.8299999999996  L 67.3350000000003 64.8299999999996  L 66.3750000000003 60.0499999999996  L 68.2850000000003 56.2299999999996  L 74.0150000000003 53.3599999999996  L 74.9750000000003 45.7199999999996  L 77 45.7199999999996  L 77 35.2099999999996  L 83.5750000000003 35.2099999999996  L 80.7050000000003 28.5199999999996  L 81.6650000000003 26.6099999999996  L 79.7550000000003 25.6499999999996  L 81.6650000000003 19.9199999999996  L 80.7050000000003 18.0099999999995  L 69.2450000000003 20.8799999999995  L 64.4650000000004 25.6599999999995  L 62.5550000000003 23.7499999999995  L 61.5950000000004 25.6599999999995  L 59.6850000000003 24.6999999999995  L 59.6850000000003 21.8299999999995  L 57.7750000000003 20.8699999999995  L 60.6450000000003 17.9999999999995  L 58.7350000000003 15.1299999999995  L 61.6050000000003 11.3099999999995  L 59.6950000000003 8.43999999999954  L 61.6050000000003 4.61999999999955  L 80.7050000000003 9.39999999999952  L 88.3450000000003 9.39999999999952  L 102.675 2.70999999999952  Z " stroke-width="2" stroke-dasharray="3,1" stroke="#ffffff" fill="none" stroke-opacity="0.2" transform="matrix(1 0 0 1 1003 682 )" mask="url(#clip2112)" />
    </g>
  </defs>
  <g transform="matrix(1 0 0 1 -993 -682 )">
    <use xlink:href="#widget2114" filter="url(#filter2113)" />
    <use xlink:href="#widget2114" />
  </g>
</svg>