<?xml version="1.0" encoding="utf-8"?>
<svg version="1.1" xmlns:xlink="http://www.w3.org/1999/xlink" width="240px" height="181px" xmlns="http://www.w3.org/2000/svg">
  <defs>
    <mask fill="white" id="clip2116">
      <path d="M 87.4950000000002 11.2799999999998  L 96.0849999999999 8.39999999999998  L 97.045 12.22  L 94.175 16.04  L 101.815 16.9999999999999  L 118.055 27.5099999999999  L 134.295 35.1499999999999  L 141.935 36.1099999999999  L 150.535 39.9299999999999  L 153.405 51.3899999999999  L 154.365 63.8099999999999  L 160.095 66.6799999999999  L 160.095 74.3199999999999  L 156.275 76.2299999999999  L 155.315 79.0999999999999  L 161.045 80.0599999999999  L 165.825 82.9299999999999  L 163.915 84.8399999999999  L 165.825 86.7499999999999  L 192.575 96.3  L 204.035 111.58  L 218.365 145.01  L 219.325 160.29  L 173.475 146.92  L 172.515 147.88  L 160.095 140.24  L 152.455 138.33  L 146.725 128.78  L 136.215 123.05  L 131.435 124.01  L 123.795 128.79  L 113.285 139.3  L 106.595 136  L 94.1750000000001 136  L 88.4450000000001 134.52  L 72.205 102.04  L 53.105 104.91  L 44.505 102.04  L 43.545 97.2599999999998  L 39.725 95.3499999999998  L 38.765 91.5299999999998  L 29.215 86.7499999999998  L 19.665 85.7899999999998  L 18.705 80.0599999999998  L 21.575 73.3699999999998  L 19 68.5899999999999  L 19 54.2599999999999  L 20.6150000000001 52.3499999999999  L 19.6550000000001 49.4799999999998  L 13.9250000000001 52.3499999999999  L 11.0550000000001 49.4799999999998  L 11.0550000000001 41.8399999999999  L 9 32.2899999999998  L 9 20.8299999999999  L 7.22500000000008 17.9599999999999  L 3.40500000000009 19.8699999999999  L 0.535000000000082 16.9999999999999  L 2.44500000000011 16.9999999999999  L 1.48500000000013 16.0399999999999  L 4.35500000000013 6.4899999999999  L 10.0850000000002 5.52999999999991  L 14.8650000000001 1.70999999999992  L 15.8250000000001 2.6699999999999  L 22.5150000000001 0.759999999999877  L 24.4250000000001 1.71999999999986  L 24.4250000000001 4.58999999999986  L 29.2050000000001 6.49999999999989  L 31.1150000000001 11.2799999999999  L 30.1550000000001 13.1899999999999  L 36.8450000000001 14.1499999999999  L 36.8450000000001 11.2799999999999  L 47.3550000000001 12.2399999999998  L 50.2250000000001 10.3299999999998  L 53.0950000000001 13.1999999999998  L 52.1350000000001 16.0699999999998  L 54.0450000000001 15.1099999999998  L 56.9150000000001 17.0199999999999  L 56.9150000000001 21.7999999999998  L 59.7850000000001 17.9799999999998  L 62.6550000000001 17.0199999999999  L 64.5650000000001 17.0199999999999  L 64.5650000000001 18.9299999999999  L 67.4350000000001 19.8899999999999  L 67.4350000000001 17.9799999999998  L 74.1250000000001 17.0199999999999  L 73.1650000000001 20.8399999999999  L 78.8950000000001 17.9699999999999  L 78.8950000000001 16.0599999999998  L 82.7150000000001 16.0599999999998  L 80.8050000000002 16.0599999999998  L 82.7150000000001 15.0999999999999  L 82.7150000000001 13.1899999999998  L 86.5350000000002 13.1899999999998  L 87.4950000000002 11.2799999999998  Z " fill-rule="evenodd" />
    </mask>
    <filter x="1076px" y="577px" width="240px" height="181px" filterUnits="userSpaceOnUse" id="filter2117">
      <feOffset dx="0" dy="10" in="SourceAlpha" result="shadowOffsetInner" />
      <feGaussianBlur stdDeviation="5" in="shadowOffsetInner" result="shadowGaussian" />
      <feComposite in2="shadowGaussian" operator="atop" in="SourceAlpha" result="shadowComposite" />
      <feColorMatrix type="matrix" values="0 0 0 0 0.2  0 0 0 0 0.6  0 0 0 0 1  0 0 0 1 0  " in="shadowComposite" />
    </filter>
    <g id="widget2118">
      <path d="M 87.4950000000002 11.2799999999998  L 96.0849999999999 8.39999999999998  L 97.045 12.22  L 94.175 16.04  L 101.815 16.9999999999999  L 118.055 27.5099999999999  L 134.295 35.1499999999999  L 141.935 36.1099999999999  L 150.535 39.9299999999999  L 153.405 51.3899999999999  L 154.365 63.8099999999999  L 160.095 66.6799999999999  L 160.095 74.3199999999999  L 156.275 76.2299999999999  L 155.315 79.0999999999999  L 161.045 80.0599999999999  L 165.825 82.9299999999999  L 163.915 84.8399999999999  L 165.825 86.7499999999999  L 192.575 96.3  L 204.035 111.58  L 218.365 145.01  L 219.325 160.29  L 173.475 146.92  L 172.515 147.88  L 160.095 140.24  L 152.455 138.33  L 146.725 128.78  L 136.215 123.05  L 131.435 124.01  L 123.795 128.79  L 113.285 139.3  L 106.595 136  L 94.1750000000001 136  L 88.4450000000001 134.52  L 72.205 102.04  L 53.105 104.91  L 44.505 102.04  L 43.545 97.2599999999998  L 39.725 95.3499999999998  L 38.765 91.5299999999998  L 29.215 86.7499999999998  L 19.665 85.7899999999998  L 18.705 80.0599999999998  L 21.575 73.3699999999998  L 19 68.5899999999999  L 19 54.2599999999999  L 20.6150000000001 52.3499999999999  L 19.6550000000001 49.4799999999998  L 13.9250000000001 52.3499999999999  L 11.0550000000001 49.4799999999998  L 11.0550000000001 41.8399999999999  L 9 32.2899999999998  L 9 20.8299999999999  L 7.22500000000008 17.9599999999999  L 3.40500000000009 19.8699999999999  L 0.535000000000082 16.9999999999999  L 2.44500000000011 16.9999999999999  L 1.48500000000013 16.0399999999999  L 4.35500000000013 6.4899999999999  L 10.0850000000002 5.52999999999991  L 14.8650000000001 1.70999999999992  L 15.8250000000001 2.6699999999999  L 22.5150000000001 0.759999999999877  L 24.4250000000001 1.71999999999986  L 24.4250000000001 4.58999999999986  L 29.2050000000001 6.49999999999989  L 31.1150000000001 11.2799999999999  L 30.1550000000001 13.1899999999999  L 36.8450000000001 14.1499999999999  L 36.8450000000001 11.2799999999999  L 47.3550000000001 12.2399999999998  L 50.2250000000001 10.3299999999998  L 53.0950000000001 13.1999999999998  L 52.1350000000001 16.0699999999998  L 54.0450000000001 15.1099999999998  L 56.9150000000001 17.0199999999999  L 56.9150000000001 21.7999999999998  L 59.7850000000001 17.9799999999998  L 62.6550000000001 17.0199999999999  L 64.5650000000001 17.0199999999999  L 64.5650000000001 18.9299999999999  L 67.4350000000001 19.8899999999999  L 67.4350000000001 17.9799999999998  L 74.1250000000001 17.0199999999999  L 73.1650000000001 20.8399999999999  L 78.8950000000001 17.9699999999999  L 78.8950000000001 16.0599999999998  L 82.7150000000001 16.0599999999998  L 80.8050000000002 16.0599999999998  L 82.7150000000001 15.0999999999999  L 82.7150000000001 13.1899999999998  L 86.5350000000002 13.1899999999998  L 87.4950000000002 11.2799999999998  Z " fill-rule="nonzero" fill="#0fd0e6" stroke="none" transform="matrix(1 0 0 1 1086 577 )" />
      <path d="M 87.4950000000002 11.2799999999998  L 96.0849999999999 8.39999999999998  L 97.045 12.22  L 94.175 16.04  L 101.815 16.9999999999999  L 118.055 27.5099999999999  L 134.295 35.1499999999999  L 141.935 36.1099999999999  L 150.535 39.9299999999999  L 153.405 51.3899999999999  L 154.365 63.8099999999999  L 160.095 66.6799999999999  L 160.095 74.3199999999999  L 156.275 76.2299999999999  L 155.315 79.0999999999999  L 161.045 80.0599999999999  L 165.825 82.9299999999999  L 163.915 84.8399999999999  L 165.825 86.7499999999999  L 192.575 96.3  L 204.035 111.58  L 218.365 145.01  L 219.325 160.29  L 173.475 146.92  L 172.515 147.88  L 160.095 140.24  L 152.455 138.33  L 146.725 128.78  L 136.215 123.05  L 131.435 124.01  L 123.795 128.79  L 113.285 139.3  L 106.595 136  L 94.1750000000001 136  L 88.4450000000001 134.52  L 72.205 102.04  L 53.105 104.91  L 44.505 102.04  L 43.545 97.2599999999998  L 39.725 95.3499999999998  L 38.765 91.5299999999998  L 29.215 86.7499999999998  L 19.665 85.7899999999998  L 18.705 80.0599999999998  L 21.575 73.3699999999998  L 19 68.5899999999999  L 19 54.2599999999999  L 20.6150000000001 52.3499999999999  L 19.6550000000001 49.4799999999998  L 13.9250000000001 52.3499999999999  L 11.0550000000001 49.4799999999998  L 11.0550000000001 41.8399999999999  L 9 32.2899999999998  L 9 20.8299999999999  L 7.22500000000008 17.9599999999999  L 3.40500000000009 19.8699999999999  L 0.535000000000082 16.9999999999999  L 2.44500000000011 16.9999999999999  L 1.48500000000013 16.0399999999999  L 4.35500000000013 6.4899999999999  L 10.0850000000002 5.52999999999991  L 14.8650000000001 1.70999999999992  L 15.8250000000001 2.6699999999999  L 22.5150000000001 0.759999999999877  L 24.4250000000001 1.71999999999986  L 24.4250000000001 4.58999999999986  L 29.2050000000001 6.49999999999989  L 31.1150000000001 11.2799999999999  L 30.1550000000001 13.1899999999999  L 36.8450000000001 14.1499999999999  L 36.8450000000001 11.2799999999999  L 47.3550000000001 12.2399999999998  L 50.2250000000001 10.3299999999998  L 53.0950000000001 13.1999999999998  L 52.1350000000001 16.0699999999998  L 54.0450000000001 15.1099999999998  L 56.9150000000001 17.0199999999999  L 56.9150000000001 21.7999999999998  L 59.7850000000001 17.9799999999998  L 62.6550000000001 17.0199999999999  L 64.5650000000001 17.0199999999999  L 64.5650000000001 18.9299999999999  L 67.4350000000001 19.8899999999999  L 67.4350000000001 17.9799999999998  L 74.1250000000001 17.0199999999999  L 73.1650000000001 20.8399999999999  L 78.8950000000001 17.9699999999999  L 78.8950000000001 16.0599999999998  L 82.7150000000001 16.0599999999998  L 80.8050000000002 16.0599999999998  L 82.7150000000001 15.0999999999999  L 82.7150000000001 13.1899999999998  L 86.5350000000002 13.1899999999998  L 87.4950000000002 11.2799999999998  Z " stroke-width="2" stroke-dasharray="3,1" stroke="#ffffff" fill="none" stroke-opacity="0.2" transform="matrix(1 0 0 1 1086 577 )" mask="url(#clip2116)" />
    </g>
  </defs>
  <g transform="matrix(1 0 0 1 -1076 -577 )">
    <use xlink:href="#widget2118" filter="url(#filter2117)" />
    <use xlink:href="#widget2118" />
  </g>
</svg>