<?xml version="1.0" encoding="utf-8"?>
<svg version="1.1" xmlns:xlink="http://www.w3.org/1999/xlink" width="109px" height="200px" xmlns="http://www.w3.org/2000/svg">
  <defs>
    <mask fill="white" id="clip2119">
      <path d="M 107.105 142.37  L 107.115 142.37  L 105.205 150.97  L 100.425 155.75  L 102.335 156.71  L 100.425 160.53  L 96.605 161.49  L 95.645 168.18  L 97.5550000000001 170.09  L 98.515 169.13  L 99.475 177.73  L 103.295 179.64  L 103.295 181.55  L 105.205 182.51  L 100.425 190.15  L 97.5550000000001 190.15  L 96.5950000000001 193.02  L 92.7750000000001 194.93  L 90.8650000000001 198.75  L 84.1750000000001 199.71  L 80.3550000000001 197.8  L 76.5350000000001 199.71  L 62.2050000000001 197.8  L 52.6550000000001 199.71  L 48.8350000000001 193.02  L 42.1450000000001 190.15  L 44.0550000000001 190.15  L 44.0550000000001 186.33  L 47.8750000000001 177.73  L 49.7850000000001 176.77  L 49.7850000000001 180.59  L 57.4250000000001 178.68  L 59.3350000000002 175.81  L 60.2950000000001 176.77  L 64.1150000000001 161.49  L 64.1150000000001 156.71  L 62.2050000000001 156.71  L 64.1150000000001 151.93  L 62.2050000000001 150.02  L 63.1650000000001 148.11  L 61.2550000000001 147.15  L 61.2550000000001 143.33  L 53.6150000000001 143.33  L 51.705 138.55  L 53.6150000000001 136.64  L 50.7450000000001 134.73  L 46.9250000000001 135.69  L 45.9650000000001 141.42  L 44.0550000000001 142.38  L 43.0950000000001 140.47  L 39.2750000000001 141.43  L 34.4950000000001 139.52  L 34.4950000000001 134.74  L 35.4550000000001 135.7  L 41.1850000000001 130.92  L 39.2750000000001 129.96  L 39.2750000000001 128.05  L 35.4550000000001 128.05  L 34.4950000000001 123.27  L 32.5850000000001 123.27  L 31.6250000000001 125.18  L 29.7150000000001 124.22  L 23.0250000000001 128.04  L 20.1550000000001 126.13  L 21.1150000000001 123.26  L 19.205 123.26  L 17.295 120.39  L 14.425 120.39  L 17.295 111.79  L 15.385 111.79  L 12.515 108.92  L 13.475 106.05  L 2.96499999999997 101.27  L 0.0949999999999704 98.4000000000003  L 2.96499999999997 86.9400000000003  L 4.87499999999997 85.9800000000003  L 2.96499999999997 84.0700000000003  L 4.87499999999997 76.4300000000003  L 8.69499999999996 76.4300000000003  L 16.335 69.7400000000003  L 16.335 67.8300000000003  L 17.295 68.7900000000002  L 16.335 63.0600000000002  L 18.245 60.1900000000002  L 19.205 61.1500000000002  L 23.025 59.2400000000002  L 26.845 60.2000000000002  L 34.485 58.2900000000001  L 38.3049999999999 51.6000000000001  L 36.3949999999999 49.6900000000001  L 36.3949999999999 43.9600000000001  L 41.1749999999999 42.0500000000001  L 39.2649999999999 41.0900000000001  L 42.1349999999999 41.0900000000001  L 40.2249999999999 37.2700000000001  L 41.1849999999998 32.4900000000001  L 40.2249999999999 33.4500000000001  L 38.3149999999998 31.5400000000001  L 40.2249999999999 27.7200000000001  L 40.2249999999999 21.0300000000001  L 34.4949999999998 19.1200000000001  L 32.5849999999998 21.0300000000001  L 27.8049999999998 18.1600000000001  L 27.8049999999998 16.2500000000001  L 30.6749999999998 14.34  L 29.7149999999999 10.52  L 24.9349999999999 7.65000000000003  L 24.9349999999999 2.87000000000006  L 28.7549999999999 0.960000000000036  L 32.5749999999999 4.78000000000003  L 36.3949999999999 1.91000000000002  L 40.2149999999999 2.87  L 41.1749999999998 0  L 44.0449999999998 0  L 44.0449999999998 1.91000000000002  L 45.9549999999999 2.87  L 48.8249999999999 0.95999999999998  L 51.6949999999999 3.82999999999998  L 53.6049999999999 3.82999999999998  L 56.4749999999999 0.95999999999998  L 56.4749999999999 5.73999999999995  L 66.0249999999999 2.86999999999995  L 66.0249999999999 6.68999999999994  L 64.1149999999999 7.64999999999992  L 70.8049999999999 7.64999999999992  L 75.5849999999999 15.2899999999999  L 83.2249999999999 13.3799999999999  L 84.1849999999998 17.1999999999999  L 86.0949999999999 18.1599999999999  L 86.0949999999999 21.0299999999999  L 82.2749999999999 22.9399999999999  L 81.3149999999999 21.9799999999999  L 82.2749999999999 26.7599999999999  L 80.3649999999998 28.6699999999999  L 81.3249999999998 32.4899999999999  L 83.2349999999998 32.4899999999999  L 81.3249999999998 33.4499999999999  L 83.2349999999998 35.3599999999999  L 81.3249999999998 37.2699999999999  L 83 40.1399999999999  L 83 50.6499999999999  L 88.9649999999999 54  L 100.425 54  L 108.065 57.3399999999999  L 105.195 59.25  L 105.195 61.16  L 101.375 62.12  L 94.6849999999998 60.2099999999999  L 88.9549999999998 63.0799999999999  L 87.9949999999998 64.99  L 84.1749999999998 64.99  L 85.1349999999998 65.9499999999999  L 83.2249999999998 65.9499999999999  L 79.4049999999998 70.7299999999999  L 85.1349999999998 73.5999999999999  L 87.0449999999998 72.6399999999999  L 88.9549999999999 75.5099999999999  L 89.9149999999998 86.9699999999999  L 92.7849999999999 91.7499999999999  L 90.8749999999998 93.6599999999999  L 87.0549999999998 92.6999999999999  L 81.3249999999998 94.61  L 83.2349999999998 97.48  L 90.8749999999998 98.4399999999999  L 92.7849999999999 104.17  L 89.9149999999998 108.95  L 87.0449999999998 107.99  L 74.6249999999998 112.77  L 77.4949999999998 117.55  L 79.4049999999999 117.55  L 78.4449999999999 120.42  L 75.5749999999999 120.42  L 75.5749999999999 122.33  L 78.4449999999999 122.33  L 78.4449999999999 120.42  L 82.2649999999999 119.46  L 87.9949999999999 120.42  L 89.9049999999999 124.24  L 93.7249999999999 127.11  L 93.7249999999999 129.02  L 101.365 132.84  L 101.365 139.53  L 103.275 139.53  L 104.235 142.4  L 107.105 141.44  L 107.105 142.37  Z " fill-rule="evenodd" />
    </mask>
  </defs>
  <g transform="matrix(1 0 0 1 -861 -593 )">
    <path d="M 107.105 142.37  L 107.115 142.37  L 105.205 150.97  L 100.425 155.75  L 102.335 156.71  L 100.425 160.53  L 96.605 161.49  L 95.645 168.18  L 97.5550000000001 170.09  L 98.515 169.13  L 99.475 177.73  L 103.295 179.64  L 103.295 181.55  L 105.205 182.51  L 100.425 190.15  L 97.5550000000001 190.15  L 96.5950000000001 193.02  L 92.7750000000001 194.93  L 90.8650000000001 198.75  L 84.1750000000001 199.71  L 80.3550000000001 197.8  L 76.5350000000001 199.71  L 62.2050000000001 197.8  L 52.6550000000001 199.71  L 48.8350000000001 193.02  L 42.1450000000001 190.15  L 44.0550000000001 190.15  L 44.0550000000001 186.33  L 47.8750000000001 177.73  L 49.7850000000001 176.77  L 49.7850000000001 180.59  L 57.4250000000001 178.68  L 59.3350000000002 175.81  L 60.2950000000001 176.77  L 64.1150000000001 161.49  L 64.1150000000001 156.71  L 62.2050000000001 156.71  L 64.1150000000001 151.93  L 62.2050000000001 150.02  L 63.1650000000001 148.11  L 61.2550000000001 147.15  L 61.2550000000001 143.33  L 53.6150000000001 143.33  L 51.705 138.55  L 53.6150000000001 136.64  L 50.7450000000001 134.73  L 46.9250000000001 135.69  L 45.9650000000001 141.42  L 44.0550000000001 142.38  L 43.0950000000001 140.47  L 39.2750000000001 141.43  L 34.4950000000001 139.52  L 34.4950000000001 134.74  L 35.4550000000001 135.7  L 41.1850000000001 130.92  L 39.2750000000001 129.96  L 39.2750000000001 128.05  L 35.4550000000001 128.05  L 34.4950000000001 123.27  L 32.5850000000001 123.27  L 31.6250000000001 125.18  L 29.7150000000001 124.22  L 23.0250000000001 128.04  L 20.1550000000001 126.13  L 21.1150000000001 123.26  L 19.205 123.26  L 17.295 120.39  L 14.425 120.39  L 17.295 111.79  L 15.385 111.79  L 12.515 108.92  L 13.475 106.05  L 2.96499999999997 101.27  L 0.0949999999999704 98.4000000000003  L 2.96499999999997 86.9400000000003  L 4.87499999999997 85.9800000000003  L 2.96499999999997 84.0700000000003  L 4.87499999999997 76.4300000000003  L 8.69499999999996 76.4300000000003  L 16.335 69.7400000000003  L 16.335 67.8300000000003  L 17.295 68.7900000000002  L 16.335 63.0600000000002  L 18.245 60.1900000000002  L 19.205 61.1500000000002  L 23.025 59.2400000000002  L 26.845 60.2000000000002  L 34.485 58.2900000000001  L 38.3049999999999 51.6000000000001  L 36.3949999999999 49.6900000000001  L 36.3949999999999 43.9600000000001  L 41.1749999999999 42.0500000000001  L 39.2649999999999 41.0900000000001  L 42.1349999999999 41.0900000000001  L 40.2249999999999 37.2700000000001  L 41.1849999999998 32.4900000000001  L 40.2249999999999 33.4500000000001  L 38.3149999999998 31.5400000000001  L 40.2249999999999 27.7200000000001  L 40.2249999999999 21.0300000000001  L 34.4949999999998 19.1200000000001  L 32.5849999999998 21.0300000000001  L 27.8049999999998 18.1600000000001  L 27.8049999999998 16.2500000000001  L 30.6749999999998 14.34  L 29.7149999999999 10.52  L 24.9349999999999 7.65000000000003  L 24.9349999999999 2.87000000000006  L 28.7549999999999 0.960000000000036  L 32.5749999999999 4.78000000000003  L 36.3949999999999 1.91000000000002  L 40.2149999999999 2.87  L 41.1749999999998 0  L 44.0449999999998 0  L 44.0449999999998 1.91000000000002  L 45.9549999999999 2.87  L 48.8249999999999 0.95999999999998  L 51.6949999999999 3.82999999999998  L 53.6049999999999 3.82999999999998  L 56.4749999999999 0.95999999999998  L 56.4749999999999 5.73999999999995  L 66.0249999999999 2.86999999999995  L 66.0249999999999 6.68999999999994  L 64.1149999999999 7.64999999999992  L 70.8049999999999 7.64999999999992  L 75.5849999999999 15.2899999999999  L 83.2249999999999 13.3799999999999  L 84.1849999999998 17.1999999999999  L 86.0949999999999 18.1599999999999  L 86.0949999999999 21.0299999999999  L 82.2749999999999 22.9399999999999  L 81.3149999999999 21.9799999999999  L 82.2749999999999 26.7599999999999  L 80.3649999999998 28.6699999999999  L 81.3249999999998 32.4899999999999  L 83.2349999999998 32.4899999999999  L 81.3249999999998 33.4499999999999  L 83.2349999999998 35.3599999999999  L 81.3249999999998 37.2699999999999  L 83 40.1399999999999  L 83 50.6499999999999  L 88.9649999999999 54  L 100.425 54  L 108.065 57.3399999999999  L 105.195 59.25  L 105.195 61.16  L 101.375 62.12  L 94.6849999999998 60.2099999999999  L 88.9549999999998 63.0799999999999  L 87.9949999999998 64.99  L 84.1749999999998 64.99  L 85.1349999999998 65.9499999999999  L 83.2249999999998 65.9499999999999  L 79.4049999999998 70.7299999999999  L 85.1349999999998 73.5999999999999  L 87.0449999999998 72.6399999999999  L 88.9549999999999 75.5099999999999  L 89.9149999999998 86.9699999999999  L 92.7849999999999 91.7499999999999  L 90.8749999999998 93.6599999999999  L 87.0549999999998 92.6999999999999  L 81.3249999999998 94.61  L 83.2349999999998 97.48  L 90.8749999999998 98.4399999999999  L 92.7849999999999 104.17  L 89.9149999999998 108.95  L 87.0449999999998 107.99  L 74.6249999999998 112.77  L 77.4949999999998 117.55  L 79.4049999999999 117.55  L 78.4449999999999 120.42  L 75.5749999999999 120.42  L 75.5749999999999 122.33  L 78.4449999999999 122.33  L 78.4449999999999 120.42  L 82.2649999999999 119.46  L 87.9949999999999 120.42  L 89.9049999999999 124.24  L 93.7249999999999 127.11  L 93.7249999999999 129.02  L 101.365 132.84  L 101.365 139.53  L 103.275 139.53  L 104.235 142.4  L 107.105 141.44  L 107.105 142.37  Z " fill-rule="nonzero" fill="#0fd0e6" stroke="none" fill-opacity="0.0980392156862745" transform="matrix(1 0 0 1 861 593 )" />
    <path d="M 107.105 142.37  L 107.115 142.37  L 105.205 150.97  L 100.425 155.75  L 102.335 156.71  L 100.425 160.53  L 96.605 161.49  L 95.645 168.18  L 97.5550000000001 170.09  L 98.515 169.13  L 99.475 177.73  L 103.295 179.64  L 103.295 181.55  L 105.205 182.51  L 100.425 190.15  L 97.5550000000001 190.15  L 96.5950000000001 193.02  L 92.7750000000001 194.93  L 90.8650000000001 198.75  L 84.1750000000001 199.71  L 80.3550000000001 197.8  L 76.5350000000001 199.71  L 62.2050000000001 197.8  L 52.6550000000001 199.71  L 48.8350000000001 193.02  L 42.1450000000001 190.15  L 44.0550000000001 190.15  L 44.0550000000001 186.33  L 47.8750000000001 177.73  L 49.7850000000001 176.77  L 49.7850000000001 180.59  L 57.4250000000001 178.68  L 59.3350000000002 175.81  L 60.2950000000001 176.77  L 64.1150000000001 161.49  L 64.1150000000001 156.71  L 62.2050000000001 156.71  L 64.1150000000001 151.93  L 62.2050000000001 150.02  L 63.1650000000001 148.11  L 61.2550000000001 147.15  L 61.2550000000001 143.33  L 53.6150000000001 143.33  L 51.705 138.55  L 53.6150000000001 136.64  L 50.7450000000001 134.73  L 46.9250000000001 135.69  L 45.9650000000001 141.42  L 44.0550000000001 142.38  L 43.0950000000001 140.47  L 39.2750000000001 141.43  L 34.4950000000001 139.52  L 34.4950000000001 134.74  L 35.4550000000001 135.7  L 41.1850000000001 130.92  L 39.2750000000001 129.96  L 39.2750000000001 128.05  L 35.4550000000001 128.05  L 34.4950000000001 123.27  L 32.5850000000001 123.27  L 31.6250000000001 125.18  L 29.7150000000001 124.22  L 23.0250000000001 128.04  L 20.1550000000001 126.13  L 21.1150000000001 123.26  L 19.205 123.26  L 17.295 120.39  L 14.425 120.39  L 17.295 111.79  L 15.385 111.79  L 12.515 108.92  L 13.475 106.05  L 2.96499999999997 101.27  L 0.0949999999999704 98.4000000000003  L 2.96499999999997 86.9400000000003  L 4.87499999999997 85.9800000000003  L 2.96499999999997 84.0700000000003  L 4.87499999999997 76.4300000000003  L 8.69499999999996 76.4300000000003  L 16.335 69.7400000000003  L 16.335 67.8300000000003  L 17.295 68.7900000000002  L 16.335 63.0600000000002  L 18.245 60.1900000000002  L 19.205 61.1500000000002  L 23.025 59.2400000000002  L 26.845 60.2000000000002  L 34.485 58.2900000000001  L 38.3049999999999 51.6000000000001  L 36.3949999999999 49.6900000000001  L 36.3949999999999 43.9600000000001  L 41.1749999999999 42.0500000000001  L 39.2649999999999 41.0900000000001  L 42.1349999999999 41.0900000000001  L 40.2249999999999 37.2700000000001  L 41.1849999999998 32.4900000000001  L 40.2249999999999 33.4500000000001  L 38.3149999999998 31.5400000000001  L 40.2249999999999 27.7200000000001  L 40.2249999999999 21.0300000000001  L 34.4949999999998 19.1200000000001  L 32.5849999999998 21.0300000000001  L 27.8049999999998 18.1600000000001  L 27.8049999999998 16.2500000000001  L 30.6749999999998 14.34  L 29.7149999999999 10.52  L 24.9349999999999 7.65000000000003  L 24.9349999999999 2.87000000000006  L 28.7549999999999 0.960000000000036  L 32.5749999999999 4.78000000000003  L 36.3949999999999 1.91000000000002  L 40.2149999999999 2.87  L 41.1749999999998 0  L 44.0449999999998 0  L 44.0449999999998 1.91000000000002  L 45.9549999999999 2.87  L 48.8249999999999 0.95999999999998  L 51.6949999999999 3.82999999999998  L 53.6049999999999 3.82999999999998  L 56.4749999999999 0.95999999999998  L 56.4749999999999 5.73999999999995  L 66.0249999999999 2.86999999999995  L 66.0249999999999 6.68999999999994  L 64.1149999999999 7.64999999999992  L 70.8049999999999 7.64999999999992  L 75.5849999999999 15.2899999999999  L 83.2249999999999 13.3799999999999  L 84.1849999999998 17.1999999999999  L 86.0949999999999 18.1599999999999  L 86.0949999999999 21.0299999999999  L 82.2749999999999 22.9399999999999  L 81.3149999999999 21.9799999999999  L 82.2749999999999 26.7599999999999  L 80.3649999999998 28.6699999999999  L 81.3249999999998 32.4899999999999  L 83.2349999999998 32.4899999999999  L 81.3249999999998 33.4499999999999  L 83.2349999999998 35.3599999999999  L 81.3249999999998 37.2699999999999  L 83 40.1399999999999  L 83 50.6499999999999  L 88.9649999999999 54  L 100.425 54  L 108.065 57.3399999999999  L 105.195 59.25  L 105.195 61.16  L 101.375 62.12  L 94.6849999999998 60.2099999999999  L 88.9549999999998 63.0799999999999  L 87.9949999999998 64.99  L 84.1749999999998 64.99  L 85.1349999999998 65.9499999999999  L 83.2249999999998 65.9499999999999  L 79.4049999999998 70.7299999999999  L 85.1349999999998 73.5999999999999  L 87.0449999999998 72.6399999999999  L 88.9549999999999 75.5099999999999  L 89.9149999999998 86.9699999999999  L 92.7849999999999 91.7499999999999  L 90.8749999999998 93.6599999999999  L 87.0549999999998 92.6999999999999  L 81.3249999999998 94.61  L 83.2349999999998 97.48  L 90.8749999999998 98.4399999999999  L 92.7849999999999 104.17  L 89.9149999999998 108.95  L 87.0449999999998 107.99  L 74.6249999999998 112.77  L 77.4949999999998 117.55  L 79.4049999999999 117.55  L 78.4449999999999 120.42  L 75.5749999999999 120.42  L 75.5749999999999 122.33  L 78.4449999999999 122.33  L 78.4449999999999 120.42  L 82.2649999999999 119.46  L 87.9949999999999 120.42  L 89.9049999999999 124.24  L 93.7249999999999 127.11  L 93.7249999999999 129.02  L 101.365 132.84  L 101.365 139.53  L 103.275 139.53  L 104.235 142.4  L 107.105 141.44  L 107.105 142.37  Z " stroke-width="2" stroke-dasharray="3,1" stroke="#ffffff" fill="none" stroke-opacity="0.2" transform="matrix(1 0 0 1 861 593 )" mask="url(#clip2119)" />
  </g>
</svg>