<?xml version="1.0" encoding="utf-8"?>
<svg version="1.1" xmlns:xlink="http://www.w3.org/1999/xlink" width="179px" height="186px" xmlns="http://www.w3.org/2000/svg">
  <defs>
    <mask fill="white" id="clip2107">
      <path d="M 0.0949999999997999 126.28  L 0.175000000000011 126.28  L 24.055 112.91  L 35.515 101.45  L 61.305 86.17  L 67.035 87.13  L 73.725 85.22  L 78.505 81.4  L 78.505 77.5799999999999  L 80.415 77.5799999999999  L 83.285 74.7099999999999  L 83.285 76.6199999999999  L 84.245 75.6599999999999  L 83.285 68.0199999999999  L 77.5549999999999 68.0199999999999  L 76.5949999999999 64.1999999999998  L 84.2349999999999 62.2899999999998  L 79.4549999999999 52.7399999999998  L 84.2349999999999 48.9199999999998  L 81.3649999999999 46.0499999999998  L 84.2349999999999 43.1799999999998  L 82.3249999999999 38.3999999999999  L 80.415 36.4899999999998  L 75.635 37.4499999999998  L 75.635 31.7199999999998  L 71.8150000000001 29.8099999999998  L 70.8550000000001 25.0299999999998  L 67.9850000000001 24.0699999999998  L 67.9850000000001 22.1599999999998  L 56.5250000000001 19.2899999999998  L 58.4350000000001 17.3799999999998  L 55.5650000000001 12.5999999999998  L 55.5650000000001 7.81999999999982  L 59.3850000000001 3.99999999999983  L 67.0250000000001 0.179999999999836  L 87.085 6.86999999999983  L 106.185 3.99999999999983  L 122.425 36.4799999999998  L 128.155 39  L 140.575 39  L 145.355 41.2599999999999  L 151.085 42.2199999999999  L 168.275 62.2799999999999  L 178.785 70.8799999999999  L 174.965 77.5699999999999  L 170.185 78.53  L 170.185 80.4399999999999  L 166.365 80.4399999999999  L 165.405 82.3499999999999  L 163.495 82.3499999999999  L 162.535 79.4799999999999  L 161.575 82.3499999999999  L 151.065 87.1299999999999  L 152.975 89.0399999999998  L 151.065 89.9999999999999  L 152.975 91.9099999999999  L 151.065 94.7799999999999  L 147.245 96.6899999999998  L 148.205 97.6499999999999  L 146.295 98.6099999999999  L 146.295 100.52  L 149.165 101.48  L 149.165 107.21  L 151.075 106.25  L 152.985 110.07  L 148.205 110.07  L 146.295 111.98  L 144.385 109.11  L 143.425 111.98  L 140.555 111.98  L 142.465 128.22  L 138.645 129.18  L 138.645 131.09  L 131.005 132.05  L 124.315 130.14  L 121.445 132.05  L 118.575 131.09  L 115.705 134.91  L 116.665 136.82  L 121.445 138.73  L 121.445 145.42  L 119.535 150.2  L 114.755 152.11  L 109.025 150.2  L 105.205 151.16  L 105.205 154.03  L 101.385 155.94  L 95.6549999999997 154.98  L 94.6949999999997 156.89  L 97.5649999999997 160.71  L 96.6049999999997 169.31  L 93.7349999999997 167.4  L 91.8249999999997 171.22  L 90.8649999999997 170.26  L 90.8649999999997 173.13  L 88.9549999999997 171.22  L 82.2649999999996 172.18  L 79.3949999999996 174.09  L 71.7549999999997 185.55  L 69.8449999999997 184.59  L 68.8849999999997 179.81  L 66.0149999999997 176.94  L 66.9749999999997 175.03  L 64.1049999999997 171.21  L 66.0149999999997 170.25  L 62.1949999999997 161.65  L 62.1949999999997 164.52  L 54.5549999999997 168.34  L 53.5949999999997 163.56  L 55.5049999999998 157.83  L 52.6349999999998 159.74  L 41.1749999999998 161.65  L 26.8449999999998 158.78  L 16.3349999999998 150.18  L 10.6049999999998 147.31  L 0.0949999999997999 127.25  L 0.0949999999997999 126.28  Z " fill-rule="evenodd" />
    </mask>
  </defs>
  <g transform="matrix(1 0 0 1 -1052 -675 )">
    <path d="M 0.0949999999997999 126.28  L 0.175000000000011 126.28  L 24.055 112.91  L 35.515 101.45  L 61.305 86.17  L 67.035 87.13  L 73.725 85.22  L 78.505 81.4  L 78.505 77.5799999999999  L 80.415 77.5799999999999  L 83.285 74.7099999999999  L 83.285 76.6199999999999  L 84.245 75.6599999999999  L 83.285 68.0199999999999  L 77.5549999999999 68.0199999999999  L 76.5949999999999 64.1999999999998  L 84.2349999999999 62.2899999999998  L 79.4549999999999 52.7399999999998  L 84.2349999999999 48.9199999999998  L 81.3649999999999 46.0499999999998  L 84.2349999999999 43.1799999999998  L 82.3249999999999 38.3999999999999  L 80.415 36.4899999999998  L 75.635 37.4499999999998  L 75.635 31.7199999999998  L 71.8150000000001 29.8099999999998  L 70.8550000000001 25.0299999999998  L 67.9850000000001 24.0699999999998  L 67.9850000000001 22.1599999999998  L 56.5250000000001 19.2899999999998  L 58.4350000000001 17.3799999999998  L 55.5650000000001 12.5999999999998  L 55.5650000000001 7.81999999999982  L 59.3850000000001 3.99999999999983  L 67.0250000000001 0.179999999999836  L 87.085 6.86999999999983  L 106.185 3.99999999999983  L 122.425 36.4799999999998  L 128.155 39  L 140.575 39  L 145.355 41.2599999999999  L 151.085 42.2199999999999  L 168.275 62.2799999999999  L 178.785 70.8799999999999  L 174.965 77.5699999999999  L 170.185 78.53  L 170.185 80.4399999999999  L 166.365 80.4399999999999  L 165.405 82.3499999999999  L 163.495 82.3499999999999  L 162.535 79.4799999999999  L 161.575 82.3499999999999  L 151.065 87.1299999999999  L 152.975 89.0399999999998  L 151.065 89.9999999999999  L 152.975 91.9099999999999  L 151.065 94.7799999999999  L 147.245 96.6899999999998  L 148.205 97.6499999999999  L 146.295 98.6099999999999  L 146.295 100.52  L 149.165 101.48  L 149.165 107.21  L 151.075 106.25  L 152.985 110.07  L 148.205 110.07  L 146.295 111.98  L 144.385 109.11  L 143.425 111.98  L 140.555 111.98  L 142.465 128.22  L 138.645 129.18  L 138.645 131.09  L 131.005 132.05  L 124.315 130.14  L 121.445 132.05  L 118.575 131.09  L 115.705 134.91  L 116.665 136.82  L 121.445 138.73  L 121.445 145.42  L 119.535 150.2  L 114.755 152.11  L 109.025 150.2  L 105.205 151.16  L 105.205 154.03  L 101.385 155.94  L 95.6549999999997 154.98  L 94.6949999999997 156.89  L 97.5649999999997 160.71  L 96.6049999999997 169.31  L 93.7349999999997 167.4  L 91.8249999999997 171.22  L 90.8649999999997 170.26  L 90.8649999999997 173.13  L 88.9549999999997 171.22  L 82.2649999999996 172.18  L 79.3949999999996 174.09  L 71.7549999999997 185.55  L 69.8449999999997 184.59  L 68.8849999999997 179.81  L 66.0149999999997 176.94  L 66.9749999999997 175.03  L 64.1049999999997 171.21  L 66.0149999999997 170.25  L 62.1949999999997 161.65  L 62.1949999999997 164.52  L 54.5549999999997 168.34  L 53.5949999999997 163.56  L 55.5049999999998 157.83  L 52.6349999999998 159.74  L 41.1749999999998 161.65  L 26.8449999999998 158.78  L 16.3349999999998 150.18  L 10.6049999999998 147.31  L 0.0949999999997999 127.25  L 0.0949999999997999 126.28  Z " fill-rule="nonzero" fill="#0fd0e6" stroke="none" fill-opacity="0.0980392156862745" transform="matrix(1 0 0 1 1052 675 )" />
    <path d="M 0.0949999999997999 126.28  L 0.175000000000011 126.28  L 24.055 112.91  L 35.515 101.45  L 61.305 86.17  L 67.035 87.13  L 73.725 85.22  L 78.505 81.4  L 78.505 77.5799999999999  L 80.415 77.5799999999999  L 83.285 74.7099999999999  L 83.285 76.6199999999999  L 84.245 75.6599999999999  L 83.285 68.0199999999999  L 77.5549999999999 68.0199999999999  L 76.5949999999999 64.1999999999998  L 84.2349999999999 62.2899999999998  L 79.4549999999999 52.7399999999998  L 84.2349999999999 48.9199999999998  L 81.3649999999999 46.0499999999998  L 84.2349999999999 43.1799999999998  L 82.3249999999999 38.3999999999999  L 80.415 36.4899999999998  L 75.635 37.4499999999998  L 75.635 31.7199999999998  L 71.8150000000001 29.8099999999998  L 70.8550000000001 25.0299999999998  L 67.9850000000001 24.0699999999998  L 67.9850000000001 22.1599999999998  L 56.5250000000001 19.2899999999998  L 58.4350000000001 17.3799999999998  L 55.5650000000001 12.5999999999998  L 55.5650000000001 7.81999999999982  L 59.3850000000001 3.99999999999983  L 67.0250000000001 0.179999999999836  L 87.085 6.86999999999983  L 106.185 3.99999999999983  L 122.425 36.4799999999998  L 128.155 39  L 140.575 39  L 145.355 41.2599999999999  L 151.085 42.2199999999999  L 168.275 62.2799999999999  L 178.785 70.8799999999999  L 174.965 77.5699999999999  L 170.185 78.53  L 170.185 80.4399999999999  L 166.365 80.4399999999999  L 165.405 82.3499999999999  L 163.495 82.3499999999999  L 162.535 79.4799999999999  L 161.575 82.3499999999999  L 151.065 87.1299999999999  L 152.975 89.0399999999998  L 151.065 89.9999999999999  L 152.975 91.9099999999999  L 151.065 94.7799999999999  L 147.245 96.6899999999998  L 148.205 97.6499999999999  L 146.295 98.6099999999999  L 146.295 100.52  L 149.165 101.48  L 149.165 107.21  L 151.075 106.25  L 152.985 110.07  L 148.205 110.07  L 146.295 111.98  L 144.385 109.11  L 143.425 111.98  L 140.555 111.98  L 142.465 128.22  L 138.645 129.18  L 138.645 131.09  L 131.005 132.05  L 124.315 130.14  L 121.445 132.05  L 118.575 131.09  L 115.705 134.91  L 116.665 136.82  L 121.445 138.73  L 121.445 145.42  L 119.535 150.2  L 114.755 152.11  L 109.025 150.2  L 105.205 151.16  L 105.205 154.03  L 101.385 155.94  L 95.6549999999997 154.98  L 94.6949999999997 156.89  L 97.5649999999997 160.71  L 96.6049999999997 169.31  L 93.7349999999997 167.4  L 91.8249999999997 171.22  L 90.8649999999997 170.26  L 90.8649999999997 173.13  L 88.9549999999997 171.22  L 82.2649999999996 172.18  L 79.3949999999996 174.09  L 71.7549999999997 185.55  L 69.8449999999997 184.59  L 68.8849999999997 179.81  L 66.0149999999997 176.94  L 66.9749999999997 175.03  L 64.1049999999997 171.21  L 66.0149999999997 170.25  L 62.1949999999997 161.65  L 62.1949999999997 164.52  L 54.5549999999997 168.34  L 53.5949999999997 163.56  L 55.5049999999998 157.83  L 52.6349999999998 159.74  L 41.1749999999998 161.65  L 26.8449999999998 158.78  L 16.3349999999998 150.18  L 10.6049999999998 147.31  L 0.0949999999997999 127.25  L 0.0949999999997999 126.28  Z " stroke-width="2" stroke-dasharray="3,1" stroke="#ffffff" fill="none" stroke-opacity="0.2" transform="matrix(1 0 0 1 1052 675 )" mask="url(#clip2107)" />
  </g>
</svg>