<?xml version="1.0" encoding="utf-8"?>
<svg version="1.1" xmlns:xlink="http://www.w3.org/1999/xlink" width="131px" height="197px" xmlns="http://www.w3.org/2000/svg">
  <defs>
    <mask fill="white" id="clip2144">
      <path d="M 83.4650000000001 29.2499999999998  L 85.385 29.25  L 85.385 33.07  L 84.425 32.11  L 78.695 37.84  L 77.735 42.62  L 77.735 46.44  L 82.515 51.22  L 83.475 59.82  L 85.385 60.78  L 83.475 67.47  L 86.345 71.29  L 86.345 76.0699999999999  L 90.165 77.0299999999999  L 93.985 74.1599999999999  L 96.855 81.7999999999999  L 94.9449999999999 89.4399999999999  L 97.8149999999999 91.3499999999999  L 99.725 90.3899999999999  L 100.685 94.2099999999999  L 104.505 95.1699999999999  L 101.635 99.9499999999999  L 106.415 105.68  L 105.455 108.55  L 108.325 109.51  L 110.235 117.15  L 108.325 118.11  L 101.635 114.29  L 98.7649999999999 118.11  L 98.7649999999999 123.84  L 100.675 127.66  L 98.7649999999999 139.12  L 100.675 141.03  L 103.545 140.07  L 103.545 142.94  L 105.455 143.9  L 102.585 147.72  L 103.545 149.63  L 101.635 150.59  L 103.545 152.5  L 103.545 155.37  L 101.635 155.37  L 102.595 160.15  L 98.7749999999999 163.97  L 94.9549999999999 161.1  L 90.175 162.06  L 85.395 167.79  L 82.525 166.83  L 81.565 168.74  L 75.835 170.65  L 74.875 176.38  L 72.965 170.65  L 72.005 173.52  L 68.185 174.48  L 69.145 165.88  L 65.325 166.84  L 61.505 171.62  L 56.725 169.71  L 49.085 171.62  L 46.215 175.44  L 33.795 173.53  L 26.155 175.44  L 20.425 172  L 8.96500000000003 172  L 4 169.7  L 4 159.19  L 1.32499999999999 157.28  L 3.23500000000001 154.41  L 1.32499999999999 153.45  L 3.23500000000001 152.49  L 0.365000000000009 149.62  L 2.27500000000003 145.8  L 1.31500000000005 141.02  L 2.27500000000003 141.98  L 6.09500000000003 140.07  L 8.96500000000003 141.98  L 14.6950000000001 136.25  L 16.6050000000001 136.25  L 15.6450000000001 135.29  L 18.5150000000001 129.56  L 17.5550000000001 126.69  L 20.4250000000001 120.96  L 21.3850000000001 120  L 22.3450000000001 123.82  L 24.2550000000001 123.82  L 26.1650000000001 119.04  L 25 114.26  L 25 99.9299999999999  L 21.3850000000001 92.2899999999999  L 21.3850000000001 87.5099999999999  L 32.8450000000001 91.3299999999999  L 36.6650000000001 90.3699999999999  L 39.5350000000001 88.4599999999999  L 41.4450000000001 80.8199999999999  L 38.5750000000001 69.36  L 38.5750000000001 61.72  L 42.3950000000001 57.9  L 43.3550000000001 54.08  L 40.4850000000001 52.17  L 35.7050000000001 41.66  L 29.0150000000001 38.79  L 26.1450000000001 39.7499999999999  L 25.1850000000001 31.1499999999999  L 24.2250000000001 32.1099999999999  L 16.5850000000002 30.1999999999999  L 15.6250000000002 28.2899999999998  L 18.4950000000002 21.5999999999999  L 16.5850000000002 19.6899999999998  L 17.5450000000001 20.6499999999998  L 30.9150000000001 17.7799999999998  L 27.0950000000001 11.0899999999998  L 28.0550000000001 10.1299999999998  L 52.8950000000001 5.34999999999985  L 58.6250000000001 1.52999999999986  L 65.3150000000001 0.569999999999851  L 69.1350000000001 6.29999999999984  L 72.9550000000001 6.29999999999984  L 73.9150000000001 12.9899999999998  L 76.7850000000001 13.9499999999998  L 76.7850000000001 18.7299999999998  L 78.6950000000001 20.6399999999998  L 84.4250000000001 18.7299999999998  L 86.3350000000002 21.5999999999998  L 84.4250000000001 22.5599999999998  L 83.4650000000001 29.2499999999998  Z " fill-rule="evenodd" />
    </mask>
    <filter x="931px" y="474px" width="131px" height="197px" filterUnits="userSpaceOnUse" id="filter2145">
      <feOffset dx="0" dy="10" in="SourceAlpha" result="shadowOffsetInner" />
      <feGaussianBlur stdDeviation="5" in="shadowOffsetInner" result="shadowGaussian" />
      <feComposite in2="shadowGaussian" operator="atop" in="SourceAlpha" result="shadowComposite" />
      <feColorMatrix type="matrix" values="0 0 0 0 0.2  0 0 0 0 0.6  0 0 0 0 1  0 0 0 1 0  " in="shadowComposite" />
    </filter>
    <g id="widget2146">
      <path d="M 83.4650000000001 29.2499999999998  L 85.385 29.25  L 85.385 33.07  L 84.425 32.11  L 78.695 37.84  L 77.735 42.62  L 77.735 46.44  L 82.515 51.22  L 83.475 59.82  L 85.385 60.78  L 83.475 67.47  L 86.345 71.29  L 86.345 76.0699999999999  L 90.165 77.0299999999999  L 93.985 74.1599999999999  L 96.855 81.7999999999999  L 94.9449999999999 89.4399999999999  L 97.8149999999999 91.3499999999999  L 99.725 90.3899999999999  L 100.685 94.2099999999999  L 104.505 95.1699999999999  L 101.635 99.9499999999999  L 106.415 105.68  L 105.455 108.55  L 108.325 109.51  L 110.235 117.15  L 108.325 118.11  L 101.635 114.29  L 98.7649999999999 118.11  L 98.7649999999999 123.84  L 100.675 127.66  L 98.7649999999999 139.12  L 100.675 141.03  L 103.545 140.07  L 103.545 142.94  L 105.455 143.9  L 102.585 147.72  L 103.545 149.63  L 101.635 150.59  L 103.545 152.5  L 103.545 155.37  L 101.635 155.37  L 102.595 160.15  L 98.7749999999999 163.97  L 94.9549999999999 161.1  L 90.175 162.06  L 85.395 167.79  L 82.525 166.83  L 81.565 168.74  L 75.835 170.65  L 74.875 176.38  L 72.965 170.65  L 72.005 173.52  L 68.185 174.48  L 69.145 165.88  L 65.325 166.84  L 61.505 171.62  L 56.725 169.71  L 49.085 171.62  L 46.215 175.44  L 33.795 173.53  L 26.155 175.44  L 20.425 172  L 8.96500000000003 172  L 4 169.7  L 4 159.19  L 1.32499999999999 157.28  L 3.23500000000001 154.41  L 1.32499999999999 153.45  L 3.23500000000001 152.49  L 0.365000000000009 149.62  L 2.27500000000003 145.8  L 1.31500000000005 141.02  L 2.27500000000003 141.98  L 6.09500000000003 140.07  L 8.96500000000003 141.98  L 14.6950000000001 136.25  L 16.6050000000001 136.25  L 15.6450000000001 135.29  L 18.5150000000001 129.56  L 17.5550000000001 126.69  L 20.4250000000001 120.96  L 21.3850000000001 120  L 22.3450000000001 123.82  L 24.2550000000001 123.82  L 26.1650000000001 119.04  L 25 114.26  L 25 99.9299999999999  L 21.3850000000001 92.2899999999999  L 21.3850000000001 87.5099999999999  L 32.8450000000001 91.3299999999999  L 36.6650000000001 90.3699999999999  L 39.5350000000001 88.4599999999999  L 41.4450000000001 80.8199999999999  L 38.5750000000001 69.36  L 38.5750000000001 61.72  L 42.3950000000001 57.9  L 43.3550000000001 54.08  L 40.4850000000001 52.17  L 35.7050000000001 41.66  L 29.0150000000001 38.79  L 26.1450000000001 39.7499999999999  L 25.1850000000001 31.1499999999999  L 24.2250000000001 32.1099999999999  L 16.5850000000002 30.1999999999999  L 15.6250000000002 28.2899999999998  L 18.4950000000002 21.5999999999999  L 16.5850000000002 19.6899999999998  L 17.5450000000001 20.6499999999998  L 30.9150000000001 17.7799999999998  L 27.0950000000001 11.0899999999998  L 28.0550000000001 10.1299999999998  L 52.8950000000001 5.34999999999985  L 58.6250000000001 1.52999999999986  L 65.3150000000001 0.569999999999851  L 69.1350000000001 6.29999999999984  L 72.9550000000001 6.29999999999984  L 73.9150000000001 12.9899999999998  L 76.7850000000001 13.9499999999998  L 76.7850000000001 18.7299999999998  L 78.6950000000001 20.6399999999998  L 84.4250000000001 18.7299999999998  L 86.3350000000002 21.5999999999998  L 84.4250000000001 22.5599999999998  L 83.4650000000001 29.2499999999998  Z " fill-rule="nonzero" fill="#0fd0e6" stroke="none" transform="matrix(1 0 0 1 941 474 )" />
      <path d="M 83.4650000000001 29.2499999999998  L 85.385 29.25  L 85.385 33.07  L 84.425 32.11  L 78.695 37.84  L 77.735 42.62  L 77.735 46.44  L 82.515 51.22  L 83.475 59.82  L 85.385 60.78  L 83.475 67.47  L 86.345 71.29  L 86.345 76.0699999999999  L 90.165 77.0299999999999  L 93.985 74.1599999999999  L 96.855 81.7999999999999  L 94.9449999999999 89.4399999999999  L 97.8149999999999 91.3499999999999  L 99.725 90.3899999999999  L 100.685 94.2099999999999  L 104.505 95.1699999999999  L 101.635 99.9499999999999  L 106.415 105.68  L 105.455 108.55  L 108.325 109.51  L 110.235 117.15  L 108.325 118.11  L 101.635 114.29  L 98.7649999999999 118.11  L 98.7649999999999 123.84  L 100.675 127.66  L 98.7649999999999 139.12  L 100.675 141.03  L 103.545 140.07  L 103.545 142.94  L 105.455 143.9  L 102.585 147.72  L 103.545 149.63  L 101.635 150.59  L 103.545 152.5  L 103.545 155.37  L 101.635 155.37  L 102.595 160.15  L 98.7749999999999 163.97  L 94.9549999999999 161.1  L 90.175 162.06  L 85.395 167.79  L 82.525 166.83  L 81.565 168.74  L 75.835 170.65  L 74.875 176.38  L 72.965 170.65  L 72.005 173.52  L 68.185 174.48  L 69.145 165.88  L 65.325 166.84  L 61.505 171.62  L 56.725 169.71  L 49.085 171.62  L 46.215 175.44  L 33.795 173.53  L 26.155 175.44  L 20.425 172  L 8.96500000000003 172  L 4 169.7  L 4 159.19  L 1.32499999999999 157.28  L 3.23500000000001 154.41  L 1.32499999999999 153.45  L 3.23500000000001 152.49  L 0.365000000000009 149.62  L 2.27500000000003 145.8  L 1.31500000000005 141.02  L 2.27500000000003 141.98  L 6.09500000000003 140.07  L 8.96500000000003 141.98  L 14.6950000000001 136.25  L 16.6050000000001 136.25  L 15.6450000000001 135.29  L 18.5150000000001 129.56  L 17.5550000000001 126.69  L 20.4250000000001 120.96  L 21.3850000000001 120  L 22.3450000000001 123.82  L 24.2550000000001 123.82  L 26.1650000000001 119.04  L 25 114.26  L 25 99.9299999999999  L 21.3850000000001 92.2899999999999  L 21.3850000000001 87.5099999999999  L 32.8450000000001 91.3299999999999  L 36.6650000000001 90.3699999999999  L 39.5350000000001 88.4599999999999  L 41.4450000000001 80.8199999999999  L 38.5750000000001 69.36  L 38.5750000000001 61.72  L 42.3950000000001 57.9  L 43.3550000000001 54.08  L 40.4850000000001 52.17  L 35.7050000000001 41.66  L 29.0150000000001 38.79  L 26.1450000000001 39.7499999999999  L 25.1850000000001 31.1499999999999  L 24.2250000000001 32.1099999999999  L 16.5850000000002 30.1999999999999  L 15.6250000000002 28.2899999999998  L 18.4950000000002 21.5999999999999  L 16.5850000000002 19.6899999999998  L 17.5450000000001 20.6499999999998  L 30.9150000000001 17.7799999999998  L 27.0950000000001 11.0899999999998  L 28.0550000000001 10.1299999999998  L 52.8950000000001 5.34999999999985  L 58.6250000000001 1.52999999999986  L 65.3150000000001 0.569999999999851  L 69.1350000000001 6.29999999999984  L 72.9550000000001 6.29999999999984  L 73.9150000000001 12.9899999999998  L 76.7850000000001 13.9499999999998  L 76.7850000000001 18.7299999999998  L 78.6950000000001 20.6399999999998  L 84.4250000000001 18.7299999999998  L 86.3350000000002 21.5999999999998  L 84.4250000000001 22.5599999999998  L 83.4650000000001 29.2499999999998  Z " stroke-width="2" stroke-dasharray="3,1" stroke="#ffffff" fill="none" stroke-opacity="0.2" transform="matrix(1 0 0 1 941 474 )" mask="url(#clip2144)" />
    </g>
  </defs>
  <g transform="matrix(1 0 0 1 -931 -474 )">
    <use xlink:href="#widget2146" filter="url(#filter2145)" />
    <use xlink:href="#widget2146" />
  </g>
</svg>