<?xml version="1.0" encoding="utf-8"?>
<svg version="1.1" xmlns:xlink="http://www.w3.org/1999/xlink" width="144px" height="122px" xmlns="http://www.w3.org/2000/svg">
  <defs>
    <mask fill="white" id="clip2148">
      <path d="M 33.1249999999997 100.37  L 33.115 100.37  L 30.245 100.37  L 29.285 97.5  L 27.375 97.5  L 27.375 91.77  L 23.555 89.86  L 21.645 86.99  L 19.735 86.99  L 19.735 85.0799999999999  L 11.1349999999999 77.4399999999999  L 4.44499999999994 78.3999999999999  L 4.44499999999994 80.3099999999999  L 1.57499999999993 80.3099999999999  L 1.57499999999993 78.3999999999999  L 4.44499999999994 78.3999999999999  L 5.40499999999992 75.5299999999999  L 3.49499999999989 75.5299999999999  L 0.624999999999886 71.7099999999999  L 1.58499999999987 69.7999999999999  L 13.0449999999998 65.9799999999999  L 15.9149999999998 66.9399999999999  L 18.7849999999999 62.1599999999999  L 16.8749999999998 56.4299999999999  L 10.1849999999998 55.4699999999999  L 7.31499999999983 52.5999999999999  L 12.0949999999998 50.6899999999999  L 16.8749999999998 51.6499999999999  L 18.7849999999998 49.7399999999998  L 16 44.9599999999999  L 16 33.5  L 14.0049999999998 30.63  L 11.1349999999998 31.59  L 5.40499999999975 29.68  L 8.27499999999975 24.9  L 11.1449999999998 23.94  L 10.1849999999998 22.98  L 14.0049999999998 22.98  L 14.0049999999998 21.07  L 20.6949999999998 18.2  L 27.3849999999998 20.11  L 31.2049999999998 19.15  L 31.2049999999998 17.24  L 34.0749999999998 15.33  L 32.1649999999997 14.37  L 35.9849999999997 12.46  L 52.2249999999997 14.37  L 55.0949999999997 10.55  L 60.8249999999998 8.63999999999999  L 67.5149999999998 10.55  L 71.3349999999998 5.77000000000004  L 75.1549999999997 4.81000000000006  L 74.1949999999998 13.4100000000001  L 78.0149999999998 12.4500000000001  L 78.9749999999997 9.5800000000001  L 80.8849999999998 15.3100000000001  L 81.8449999999997 10.5300000000001  L 87.5749999999998 7.66000000000014  L 88.5349999999997 5.75000000000011  L 91.4049999999997 6.71000000000009  L 96.1849999999997 0.980000000000075  L 102.875 0.980000000000075  L 112.425 10.5300000000001  L 119.115 35.3700000000001  L 123.895 45.8800000000001  L 117.205 45.8800000000001  L 111.475 38.2400000000001  L 101.925 39.2  L 99.0549999999997 53.53  L 100.965 57.35  L 98.0949999999997 57.35  L 100.005 61.17  L 97.1349999999997 64.04  L 99.0449999999997 68.82  L 103.825 67.86  L 100.955 73.59  L 98.0849999999997 74.55  L 94.2649999999997 84.1  L 95.2249999999997 85.06  L 91.4049999999997 84.1  L 88.5349999999997 80.28  L 84.7149999999997 79.3200000000001  L 83.7549999999997 76.45  L 79.9349999999997 76.45  L 76.1149999999997 68.8100000000001  L 72.2949999999997 66.9  L 66.5649999999997 67.86  L 59.8749999999997 63.08  L 56.0549999999997 64.9900000000001  L 56.0549999999997 67.8600000000001  L 58.9249999999997 71.6800000000001  L 54.1449999999998 70.7200000000001  L 49.3649999999998 66.9000000000001  L 46.4949999999998 66.9000000000001  L 44.5849999999998 68.8100000000001  L 45.5449999999997 70.7200000000001  L 42.6749999999997 73.5900000000001  L 41.7149999999997 80.2800000000001  L 41.7149999999997 85.0600000000001  L 44.5849999999998 86.0200000000001  L 44.5849999999998 89.8400000000001  L 42.6749999999997 94.6200000000001  L 33.1249999999997 101.31  L 33.1249999999997 100.37  Z " fill-rule="evenodd" />
    </mask>
    <filter x="925px" y="635px" width="144px" height="122px" filterUnits="userSpaceOnUse" id="filter2149">
      <feOffset dx="0" dy="10" in="SourceAlpha" result="shadowOffsetInner" />
      <feGaussianBlur stdDeviation="5" in="shadowOffsetInner" result="shadowGaussian" />
      <feComposite in2="shadowGaussian" operator="atop" in="SourceAlpha" result="shadowComposite" />
      <feColorMatrix type="matrix" values="0 0 0 0 0.2  0 0 0 0 0.6  0 0 0 0 1  0 0 0 1 0  " in="shadowComposite" />
    </filter>
    <g id="widget2150">
      <path d="M 33.1249999999997 100.37  L 33.115 100.37  L 30.245 100.37  L 29.285 97.5  L 27.375 97.5  L 27.375 91.77  L 23.555 89.86  L 21.645 86.99  L 19.735 86.99  L 19.735 85.0799999999999  L 11.1349999999999 77.4399999999999  L 4.44499999999994 78.3999999999999  L 4.44499999999994 80.3099999999999  L 1.57499999999993 80.3099999999999  L 1.57499999999993 78.3999999999999  L 4.44499999999994 78.3999999999999  L 5.40499999999992 75.5299999999999  L 3.49499999999989 75.5299999999999  L 0.624999999999886 71.7099999999999  L 1.58499999999987 69.7999999999999  L 13.0449999999998 65.9799999999999  L 15.9149999999998 66.9399999999999  L 18.7849999999999 62.1599999999999  L 16.8749999999998 56.4299999999999  L 10.1849999999998 55.4699999999999  L 7.31499999999983 52.5999999999999  L 12.0949999999998 50.6899999999999  L 16.8749999999998 51.6499999999999  L 18.7849999999998 49.7399999999998  L 16 44.9599999999999  L 16 33.5  L 14.0049999999998 30.63  L 11.1349999999998 31.59  L 5.40499999999975 29.68  L 8.27499999999975 24.9  L 11.1449999999998 23.94  L 10.1849999999998 22.98  L 14.0049999999998 22.98  L 14.0049999999998 21.07  L 20.6949999999998 18.2  L 27.3849999999998 20.11  L 31.2049999999998 19.15  L 31.2049999999998 17.24  L 34.0749999999998 15.33  L 32.1649999999997 14.37  L 35.9849999999997 12.46  L 52.2249999999997 14.37  L 55.0949999999997 10.55  L 60.8249999999998 8.63999999999999  L 67.5149999999998 10.55  L 71.3349999999998 5.77000000000004  L 75.1549999999997 4.81000000000006  L 74.1949999999998 13.4100000000001  L 78.0149999999998 12.4500000000001  L 78.9749999999997 9.5800000000001  L 80.8849999999998 15.3100000000001  L 81.8449999999997 10.5300000000001  L 87.5749999999998 7.66000000000014  L 88.5349999999997 5.75000000000011  L 91.4049999999997 6.71000000000009  L 96.1849999999997 0.980000000000075  L 102.875 0.980000000000075  L 112.425 10.5300000000001  L 119.115 35.3700000000001  L 123.895 45.8800000000001  L 117.205 45.8800000000001  L 111.475 38.2400000000001  L 101.925 39.2  L 99.0549999999997 53.53  L 100.965 57.35  L 98.0949999999997 57.35  L 100.005 61.17  L 97.1349999999997 64.04  L 99.0449999999997 68.82  L 103.825 67.86  L 100.955 73.59  L 98.0849999999997 74.55  L 94.2649999999997 84.1  L 95.2249999999997 85.06  L 91.4049999999997 84.1  L 88.5349999999997 80.28  L 84.7149999999997 79.3200000000001  L 83.7549999999997 76.45  L 79.9349999999997 76.45  L 76.1149999999997 68.8100000000001  L 72.2949999999997 66.9  L 66.5649999999997 67.86  L 59.8749999999997 63.08  L 56.0549999999997 64.9900000000001  L 56.0549999999997 67.8600000000001  L 58.9249999999997 71.6800000000001  L 54.1449999999998 70.7200000000001  L 49.3649999999998 66.9000000000001  L 46.4949999999998 66.9000000000001  L 44.5849999999998 68.8100000000001  L 45.5449999999997 70.7200000000001  L 42.6749999999997 73.5900000000001  L 41.7149999999997 80.2800000000001  L 41.7149999999997 85.0600000000001  L 44.5849999999998 86.0200000000001  L 44.5849999999998 89.8400000000001  L 42.6749999999997 94.6200000000001  L 33.1249999999997 101.31  L 33.1249999999997 100.37  Z " fill-rule="nonzero" fill="#0fd0e6" stroke="none" transform="matrix(1 0 0 1 935 635 )" />
      <path d="M 33.1249999999997 100.37  L 33.115 100.37  L 30.245 100.37  L 29.285 97.5  L 27.375 97.5  L 27.375 91.77  L 23.555 89.86  L 21.645 86.99  L 19.735 86.99  L 19.735 85.0799999999999  L 11.1349999999999 77.4399999999999  L 4.44499999999994 78.3999999999999  L 4.44499999999994 80.3099999999999  L 1.57499999999993 80.3099999999999  L 1.57499999999993 78.3999999999999  L 4.44499999999994 78.3999999999999  L 5.40499999999992 75.5299999999999  L 3.49499999999989 75.5299999999999  L 0.624999999999886 71.7099999999999  L 1.58499999999987 69.7999999999999  L 13.0449999999998 65.9799999999999  L 15.9149999999998 66.9399999999999  L 18.7849999999999 62.1599999999999  L 16.8749999999998 56.4299999999999  L 10.1849999999998 55.4699999999999  L 7.31499999999983 52.5999999999999  L 12.0949999999998 50.6899999999999  L 16.8749999999998 51.6499999999999  L 18.7849999999998 49.7399999999998  L 16 44.9599999999999  L 16 33.5  L 14.0049999999998 30.63  L 11.1349999999998 31.59  L 5.40499999999975 29.68  L 8.27499999999975 24.9  L 11.1449999999998 23.94  L 10.1849999999998 22.98  L 14.0049999999998 22.98  L 14.0049999999998 21.07  L 20.6949999999998 18.2  L 27.3849999999998 20.11  L 31.2049999999998 19.15  L 31.2049999999998 17.24  L 34.0749999999998 15.33  L 32.1649999999997 14.37  L 35.9849999999997 12.46  L 52.2249999999997 14.37  L 55.0949999999997 10.55  L 60.8249999999998 8.63999999999999  L 67.5149999999998 10.55  L 71.3349999999998 5.77000000000004  L 75.1549999999997 4.81000000000006  L 74.1949999999998 13.4100000000001  L 78.0149999999998 12.4500000000001  L 78.9749999999997 9.5800000000001  L 80.8849999999998 15.3100000000001  L 81.8449999999997 10.5300000000001  L 87.5749999999998 7.66000000000014  L 88.5349999999997 5.75000000000011  L 91.4049999999997 6.71000000000009  L 96.1849999999997 0.980000000000075  L 102.875 0.980000000000075  L 112.425 10.5300000000001  L 119.115 35.3700000000001  L 123.895 45.8800000000001  L 117.205 45.8800000000001  L 111.475 38.2400000000001  L 101.925 39.2  L 99.0549999999997 53.53  L 100.965 57.35  L 98.0949999999997 57.35  L 100.005 61.17  L 97.1349999999997 64.04  L 99.0449999999997 68.82  L 103.825 67.86  L 100.955 73.59  L 98.0849999999997 74.55  L 94.2649999999997 84.1  L 95.2249999999997 85.06  L 91.4049999999997 84.1  L 88.5349999999997 80.28  L 84.7149999999997 79.3200000000001  L 83.7549999999997 76.45  L 79.9349999999997 76.45  L 76.1149999999997 68.8100000000001  L 72.2949999999997 66.9  L 66.5649999999997 67.86  L 59.8749999999997 63.08  L 56.0549999999997 64.9900000000001  L 56.0549999999997 67.8600000000001  L 58.9249999999997 71.6800000000001  L 54.1449999999998 70.7200000000001  L 49.3649999999998 66.9000000000001  L 46.4949999999998 66.9000000000001  L 44.5849999999998 68.8100000000001  L 45.5449999999997 70.7200000000001  L 42.6749999999997 73.5900000000001  L 41.7149999999997 80.2800000000001  L 41.7149999999997 85.0600000000001  L 44.5849999999998 86.0200000000001  L 44.5849999999998 89.8400000000001  L 42.6749999999997 94.6200000000001  L 33.1249999999997 101.31  L 33.1249999999997 100.37  Z " stroke-width="2" stroke-dasharray="3,1" stroke="#ffffff" fill="none" stroke-opacity="0.2" transform="matrix(1 0 0 1 935 635 )" mask="url(#clip2148)" />
    </g>
  </defs>
  <g transform="matrix(1 0 0 1 -925 -635 )">
    <use xlink:href="#widget2150" filter="url(#filter2149)" />
    <use xlink:href="#widget2150" />
  </g>
</svg>