<?xml version="1.0" encoding="utf-8"?>
<svg version="1.1" xmlns:xlink="http://www.w3.org/1999/xlink" width="153px" height="191px" xmlns="http://www.w3.org/2000/svg">
  <defs>
    <mask fill="white" id="clip2155">
      <path d="M 151.575 47.4  L 152.475 49.29  L 149.605 56.93  L 144.825 59.8  L 140.045 66.49  L 136.225 68.4  L 138.135 72.22  L 132.405 78.91  L 130.495 78.91  L 131.455 77.95  L 129.545 77.95  L 127.635 75.08  L 119.995 79.86  L 114.265 79.86  L 108.535 86.55  L 106.625 91.33  L 107.585 94.2  L 105.675 97.07  L 107.585 98.03  L 106.625 101.85  L 108.535 102.81  L 108.535 107.59  L 105.665 112.37  L 106.625 115.24  L 101.845 117.15  L 102.805 121.93  L 107.585 126.71  L 105.675 136.26  L 103.765 139.13  L 104.725 145.82  L 99.9449999999999 154.42  L 103.765 160.15  L 71.2849999999999 172.57  L 60.7749999999999 183.08  L 40.7149999999999 181.17  L 35.9349999999999 184.04  L 30.2049999999999 179.26  L 27.3349999999999 182.13  L 28.2949999999999 184.04  L 26.3849999999999 185.95  L 16.8349999999999 190.73  L 13.9649999999999 190.73  L 7.27499999999986 185  L 5.36499999999987 177.36  L 2.49499999999986 178.32  L 0.584999999999866 176.41  L 0.584999999999866 172.59  L 5.36499999999987 169.72  L 6.32499999999987 166.85  L 7.28499999999988 162.07  L 4.41499999999988 159.2  L 7.28499999999988 160.16  L 12.0649999999999 156.34  L 12.0649999999999 153.47  L 10.1549999999999 151.56  L 11.1149999999999 145.83  L 14.9349999999999 138.19  L 22 141.06  L 22 120.05  L 29.2649999999999 113.36  L 29.2649999999999 105.72  L 27.3549999999999 104.76  L 31.1749999999999 100.94  L 29.2649999999999 100.94  L 30.2249999999999 98.0700000000001  L 28.3149999999999 93.29  L 29.2749999999999 90.42  L 31.1849999999999 90.42  L 29.2749999999999 80.87  L 27.3649999999999 79.91  L 23.5449999999999 70.36  L 22.5849999999999 73.23  L 18.7649999999999 72.27  L 18.7649999999999 68.45  L 12.0749999999999 65.58  L 13.0349999999999 61.76  L 15.9049999999999 60.8  L 15.9049999999999 56.02  L 13.9949999999999 49.33  L 10.1749999999999 51.24  L 9.21499999999992 50.28  L 7.30499999999992 45.5  L 8.26499999999993 42.63  L 14.9549999999999 41.67  L 16.8649999999999 37.85  L 18.7749999999999 38.81  L 18.7749999999999 40.72  L 20.6849999999999 40.72  L 20.6849999999999 42.63  L 23.5549999999999 41.67  L 25.4649999999999 43.58  L 27.3749999999999 41.67  L 26.4149999999999 39.76  L 30.2349999999999 39.76  L 35.0149999999999 42.63  L 36.9249999999999 48.36  L 43.6149999999999 48.36  L 45.5249999999999 46.45  L 53.1649999999999 45.49  L 63.6749999999999 47.4  L 65.5849999999999 49.31  L 72.2749999999999 45.49  L 70.3649999999999 45.49  L 70.3649999999999 39.76  L 77.0549999999999 38.8  L 78.9649999999999 28.29  L 77.0549999999999 26.38  L 78.9649999999999 18.74  L 84.6949999999999 17.78  L 86.6049999999999 15.87  L 85.645 13  L 87.555 10.13  L 91.375 13  L 93.285 12.04  L 99.015 14.91  L 99.975 13.95  L 102.845 17.77  L 111.445 8.22000000000001  L 116.225 9.18000000000001  L 123.865 6.31  L 125.775 8.22  L 125.775 11.09  L 130.555 5.36  L 130.555 3.45  L 135.335 4.41  L 136.295 0.590000000000003  L 142.025 0.590000000000003  L 142.025 2.5  L 139.155 2.5  L 138.195 6.31999999999999  L 138.195 10.14  L 139.155 13.01  L 140.115 12.05  L 141.075 16.83  L 140.115 24.47  L 142.985 24.47  L 142.025 28.29  L 143.935 32.11  L 147.755 33.07  L 148.715 39.76  L 146.805 41.67  L 152.535 45.49  L 151.575 47.4  Z " fill-rule="evenodd" />
    </mask>
  </defs>
  <g transform="matrix(1 0 0 1 -808 -325 )">
    <path d="M 151.575 47.4  L 152.475 49.29  L 149.605 56.93  L 144.825 59.8  L 140.045 66.49  L 136.225 68.4  L 138.135 72.22  L 132.405 78.91  L 130.495 78.91  L 131.455 77.95  L 129.545 77.95  L 127.635 75.08  L 119.995 79.86  L 114.265 79.86  L 108.535 86.55  L 106.625 91.33  L 107.585 94.2  L 105.675 97.07  L 107.585 98.03  L 106.625 101.85  L 108.535 102.81  L 108.535 107.59  L 105.665 112.37  L 106.625 115.24  L 101.845 117.15  L 102.805 121.93  L 107.585 126.71  L 105.675 136.26  L 103.765 139.13  L 104.725 145.82  L 99.9449999999999 154.42  L 103.765 160.15  L 71.2849999999999 172.57  L 60.7749999999999 183.08  L 40.7149999999999 181.17  L 35.9349999999999 184.04  L 30.2049999999999 179.26  L 27.3349999999999 182.13  L 28.2949999999999 184.04  L 26.3849999999999 185.95  L 16.8349999999999 190.73  L 13.9649999999999 190.73  L 7.27499999999986 185  L 5.36499999999987 177.36  L 2.49499999999986 178.32  L 0.584999999999866 176.41  L 0.584999999999866 172.59  L 5.36499999999987 169.72  L 6.32499999999987 166.85  L 7.28499999999988 162.07  L 4.41499999999988 159.2  L 7.28499999999988 160.16  L 12.0649999999999 156.34  L 12.0649999999999 153.47  L 10.1549999999999 151.56  L 11.1149999999999 145.83  L 14.9349999999999 138.19  L 22 141.06  L 22 120.05  L 29.2649999999999 113.36  L 29.2649999999999 105.72  L 27.3549999999999 104.76  L 31.1749999999999 100.94  L 29.2649999999999 100.94  L 30.2249999999999 98.0700000000001  L 28.3149999999999 93.29  L 29.2749999999999 90.42  L 31.1849999999999 90.42  L 29.2749999999999 80.87  L 27.3649999999999 79.91  L 23.5449999999999 70.36  L 22.5849999999999 73.23  L 18.7649999999999 72.27  L 18.7649999999999 68.45  L 12.0749999999999 65.58  L 13.0349999999999 61.76  L 15.9049999999999 60.8  L 15.9049999999999 56.02  L 13.9949999999999 49.33  L 10.1749999999999 51.24  L 9.21499999999992 50.28  L 7.30499999999992 45.5  L 8.26499999999993 42.63  L 14.9549999999999 41.67  L 16.8649999999999 37.85  L 18.7749999999999 38.81  L 18.7749999999999 40.72  L 20.6849999999999 40.72  L 20.6849999999999 42.63  L 23.5549999999999 41.67  L 25.4649999999999 43.58  L 27.3749999999999 41.67  L 26.4149999999999 39.76  L 30.2349999999999 39.76  L 35.0149999999999 42.63  L 36.9249999999999 48.36  L 43.6149999999999 48.36  L 45.5249999999999 46.45  L 53.1649999999999 45.49  L 63.6749999999999 47.4  L 65.5849999999999 49.31  L 72.2749999999999 45.49  L 70.3649999999999 45.49  L 70.3649999999999 39.76  L 77.0549999999999 38.8  L 78.9649999999999 28.29  L 77.0549999999999 26.38  L 78.9649999999999 18.74  L 84.6949999999999 17.78  L 86.6049999999999 15.87  L 85.645 13  L 87.555 10.13  L 91.375 13  L 93.285 12.04  L 99.015 14.91  L 99.975 13.95  L 102.845 17.77  L 111.445 8.22000000000001  L 116.225 9.18000000000001  L 123.865 6.31  L 125.775 8.22  L 125.775 11.09  L 130.555 5.36  L 130.555 3.45  L 135.335 4.41  L 136.295 0.590000000000003  L 142.025 0.590000000000003  L 142.025 2.5  L 139.155 2.5  L 138.195 6.31999999999999  L 138.195 10.14  L 139.155 13.01  L 140.115 12.05  L 141.075 16.83  L 140.115 24.47  L 142.985 24.47  L 142.025 28.29  L 143.935 32.11  L 147.755 33.07  L 148.715 39.76  L 146.805 41.67  L 152.535 45.49  L 151.575 47.4  Z " fill-rule="nonzero" fill="#0fd0e6" stroke="none" fill-opacity="0.0980392156862745" transform="matrix(1 0 0 1 808 325 )" />
    <path d="M 151.575 47.4  L 152.475 49.29  L 149.605 56.93  L 144.825 59.8  L 140.045 66.49  L 136.225 68.4  L 138.135 72.22  L 132.405 78.91  L 130.495 78.91  L 131.455 77.95  L 129.545 77.95  L 127.635 75.08  L 119.995 79.86  L 114.265 79.86  L 108.535 86.55  L 106.625 91.33  L 107.585 94.2  L 105.675 97.07  L 107.585 98.03  L 106.625 101.85  L 108.535 102.81  L 108.535 107.59  L 105.665 112.37  L 106.625 115.24  L 101.845 117.15  L 102.805 121.93  L 107.585 126.71  L 105.675 136.26  L 103.765 139.13  L 104.725 145.82  L 99.9449999999999 154.42  L 103.765 160.15  L 71.2849999999999 172.57  L 60.7749999999999 183.08  L 40.7149999999999 181.17  L 35.9349999999999 184.04  L 30.2049999999999 179.26  L 27.3349999999999 182.13  L 28.2949999999999 184.04  L 26.3849999999999 185.95  L 16.8349999999999 190.73  L 13.9649999999999 190.73  L 7.27499999999986 185  L 5.36499999999987 177.36  L 2.49499999999986 178.32  L 0.584999999999866 176.41  L 0.584999999999866 172.59  L 5.36499999999987 169.72  L 6.32499999999987 166.85  L 7.28499999999988 162.07  L 4.41499999999988 159.2  L 7.28499999999988 160.16  L 12.0649999999999 156.34  L 12.0649999999999 153.47  L 10.1549999999999 151.56  L 11.1149999999999 145.83  L 14.9349999999999 138.19  L 22 141.06  L 22 120.05  L 29.2649999999999 113.36  L 29.2649999999999 105.72  L 27.3549999999999 104.76  L 31.1749999999999 100.94  L 29.2649999999999 100.94  L 30.2249999999999 98.0700000000001  L 28.3149999999999 93.29  L 29.2749999999999 90.42  L 31.1849999999999 90.42  L 29.2749999999999 80.87  L 27.3649999999999 79.91  L 23.5449999999999 70.36  L 22.5849999999999 73.23  L 18.7649999999999 72.27  L 18.7649999999999 68.45  L 12.0749999999999 65.58  L 13.0349999999999 61.76  L 15.9049999999999 60.8  L 15.9049999999999 56.02  L 13.9949999999999 49.33  L 10.1749999999999 51.24  L 9.21499999999992 50.28  L 7.30499999999992 45.5  L 8.26499999999993 42.63  L 14.9549999999999 41.67  L 16.8649999999999 37.85  L 18.7749999999999 38.81  L 18.7749999999999 40.72  L 20.6849999999999 40.72  L 20.6849999999999 42.63  L 23.5549999999999 41.67  L 25.4649999999999 43.58  L 27.3749999999999 41.67  L 26.4149999999999 39.76  L 30.2349999999999 39.76  L 35.0149999999999 42.63  L 36.9249999999999 48.36  L 43.6149999999999 48.36  L 45.5249999999999 46.45  L 53.1649999999999 45.49  L 63.6749999999999 47.4  L 65.5849999999999 49.31  L 72.2749999999999 45.49  L 70.3649999999999 45.49  L 70.3649999999999 39.76  L 77.0549999999999 38.8  L 78.9649999999999 28.29  L 77.0549999999999 26.38  L 78.9649999999999 18.74  L 84.6949999999999 17.78  L 86.6049999999999 15.87  L 85.645 13  L 87.555 10.13  L 91.375 13  L 93.285 12.04  L 99.015 14.91  L 99.975 13.95  L 102.845 17.77  L 111.445 8.22000000000001  L 116.225 9.18000000000001  L 123.865 6.31  L 125.775 8.22  L 125.775 11.09  L 130.555 5.36  L 130.555 3.45  L 135.335 4.41  L 136.295 0.590000000000003  L 142.025 0.590000000000003  L 142.025 2.5  L 139.155 2.5  L 138.195 6.31999999999999  L 138.195 10.14  L 139.155 13.01  L 140.115 12.05  L 141.075 16.83  L 140.115 24.47  L 142.985 24.47  L 142.025 28.29  L 143.935 32.11  L 147.755 33.07  L 148.715 39.76  L 146.805 41.67  L 152.535 45.49  L 151.575 47.4  Z " stroke-width="2" stroke-dasharray="3,1" stroke="#ffffff" fill="none" stroke-opacity="0.2" transform="matrix(1 0 0 1 808 325 )" mask="url(#clip2155)" />
  </g>
</svg>