<?xml version="1.0" encoding="utf-8"?>
<svg version="1.1" xmlns:xlink="http://www.w3.org/1999/xlink" width="190px" height="283px" xmlns="http://www.w3.org/2000/svg">
  <defs>
    <mask fill="white" id="clip2139">
      <path d="M 45.7050000000002 3.74000000000035  L 46.715 0.980000000000004  L 63.905 3.85000000000001  L 81.095 14.36  L 106.885 26.78  L 106.885 34.42  L 113.575 59.26  L 129.815 99.38  L 133.635 104.16  L 140.325 121.35  L 151.785 143.32  L 156.565 155.74  L 159.435 170.07  L 162.305 174.85  L 168.035 174.85  L 170.905 178.67  L 168.995 185.36  L 171.865 186.32  L 175.685 213.07  L 181.415 215.94  L 183.325 218.81  L 185.235 232.18  L 189.055 240.78  L 188.095 255.11  L 186.185 256.07  L 185.225 261.8  L 180.445 261.8  L 180.445 263.71  L 185.225 265.62  L 188.095 269.44  L 179.495 272.31  L 178.535 274.22  L 174.715 274.22  L 172.805 278.04  L 170.895 277.08  L 170.895 278.99  L 165.165 281.86  L 166.125 278.04  L 159.435 279  L 159.435 280.91  L 156.565 279.95  L 156.565 278.04  L 154.655 278.04  L 151.785 279  L 149.875 282.82  L 147.965 280.91  L 148.925 279  L 147.015 276.13  L 144.145 278.04  L 145.105 274.22  L 142.235 271.35  L 139.365 273.26  L 128.855 272.3  L 128.855 275.17  L 122.165 274.21  L 123.125 272.3  L 121.215 267.52  L 116.435 265.61  L 116.435 262.74  L 114.525 261.78  L 108.795 263.69  L 106.885 262.73  L 102.105 266.55  L 96.3750000000002 267.51  L 96.3750000000002 271.33  L 93.5050000000002 277.06  L 94.4650000000002 278.02  L 92.5550000000002 278.02  L 92.5550000000002 275.15  L 89.6850000000002 274.19  L 82.9950000000002 277.06  L 81.0850000000002 274.19  L 82.9950000000002 273.23  L 82.9950000000002 266.54  L 85.8650000000002 262.72  L 87.7750000000002 263.68  L 86.8150000000002 261.77  L 90.6350000000002 260.81  L 90.6350000000002 257.94  L 92.5450000000002 257.94  L 96.3650000000002 252.21  L 95.4050000000003 250.3  L 90.6250000000003 253.17  L 87.7550000000003 252.21  L 87.7550000000003 247.43  L 91.5750000000003 247.43  L 90.6150000000003 244.56  L 93.4850000000003 241.69  L 92.5250000000003 237.87  L 89.6550000000003 237.87  L 89.6550000000003 229.27  L 95.3850000000003 232.14  L 103.025 231.18  L 103.025 226.4  L 104.935 226.4  L 106.845 220.67  L 106.845 213.03  L 103.975 208.25  L 104.935 200.61  L 94.4250000000004 199.65  L 78.1850000000003 192.96  L 74.3650000000004 195.83  L 66.7250000000004 197.74  L 60.0350000000004 196.78  L 51.4350000000003 198.69  L 52.3950000000003 196.78  L 37.1150000000004 200.6  L 36.1550000000004 197.73  L 38.0650000000004 195.82  L 35.1950000000004 194.86  L 35.1950000000004 190.08  L 32.3250000000004 187.21  L 30.4150000000004 187.21  L 29.4550000000004 184.34  L 33.2750000000004 179.56  L 31.3650000000004 176.69  L 25.6350000000003 178.6  L 23.7250000000003 176.69  L 23.7250000000003 171.91  L 20.8550000000003 170.95  L 19.8950000000003 164.26  L 16.0750000000003 164.26  L 15.1150000000004 161.39  L 21.8050000000003 155.66  L 16.0750000000003 149.93  L 14.1650000000003 150.89  L 5.56500000000028 141.34  L 2.69500000000028 127.97  L 0.785000000000252 125.1  L 2.69500000000028 126.06  L 6.51500000000027 123.19  L 4.60500000000025 123.19  L 4.60500000000025 118.41  L 13.2050000000003 97.4000000000003  L 18.9350000000003 90.7100000000003  L 23.7150000000003 87.8400000000003  L 24.6750000000002 83.0600000000003  L 24.6750000000002 80.1900000000003  L 21.8050000000002 80.1900000000003  L 17.9850000000002 75.4100000000003  L 18.9450000000002 72.5400000000003  L 16.0750000000002 72.5400000000003  L 15.1150000000002 70.6300000000003  L 13.2050000000002 62.9900000000004  L 16.0750000000002 62.0300000000003  L 17.0350000000002 59.1600000000003  L 15.1250000000002 56.2900000000003  L 11.3050000000002 56.2900000000003  L 9.39500000000015 52.4700000000003  L 10.3550000000001 47.6900000000003  L 7.48500000000013 48.6500000000003  L 7.48500000000013 46.7400000000004  L 13.2150000000001 41.0100000000004  L 16.0850000000002 41.0100000000004  L 20.8650000000001 38.1400000000004  L 36.1450000000001 26.6800000000003  L 38.0550000000001 20.9500000000003  L 40.9250000000001 17.1300000000004  L 43.7950000000001 16.1700000000004  L 41.8850000000001 11.3900000000004  L 43.7950000000001 8.52000000000035  L 42.8350000000002 5.65000000000035  L 44.7450000000002 5.65000000000035  L 45.7050000000002 3.74000000000035  Z " fill-rule="evenodd" />
    </mask>
  </defs>
  <g transform="matrix(1 0 0 1 -994 -316 )">
    <path d="M 45.7050000000002 3.74000000000035  L 46.715 0.980000000000004  L 63.905 3.85000000000001  L 81.095 14.36  L 106.885 26.78  L 106.885 34.42  L 113.575 59.26  L 129.815 99.38  L 133.635 104.16  L 140.325 121.35  L 151.785 143.32  L 156.565 155.74  L 159.435 170.07  L 162.305 174.85  L 168.035 174.85  L 170.905 178.67  L 168.995 185.36  L 171.865 186.32  L 175.685 213.07  L 181.415 215.94  L 183.325 218.81  L 185.235 232.18  L 189.055 240.78  L 188.095 255.11  L 186.185 256.07  L 185.225 261.8  L 180.445 261.8  L 180.445 263.71  L 185.225 265.62  L 188.095 269.44  L 179.495 272.31  L 178.535 274.22  L 174.715 274.22  L 172.805 278.04  L 170.895 277.08  L 170.895 278.99  L 165.165 281.86  L 166.125 278.04  L 159.435 279  L 159.435 280.91  L 156.565 279.95  L 156.565 278.04  L 154.655 278.04  L 151.785 279  L 149.875 282.82  L 147.965 280.91  L 148.925 279  L 147.015 276.13  L 144.145 278.04  L 145.105 274.22  L 142.235 271.35  L 139.365 273.26  L 128.855 272.3  L 128.855 275.17  L 122.165 274.21  L 123.125 272.3  L 121.215 267.52  L 116.435 265.61  L 116.435 262.74  L 114.525 261.78  L 108.795 263.69  L 106.885 262.73  L 102.105 266.55  L 96.3750000000002 267.51  L 96.3750000000002 271.33  L 93.5050000000002 277.06  L 94.4650000000002 278.02  L 92.5550000000002 278.02  L 92.5550000000002 275.15  L 89.6850000000002 274.19  L 82.9950000000002 277.06  L 81.0850000000002 274.19  L 82.9950000000002 273.23  L 82.9950000000002 266.54  L 85.8650000000002 262.72  L 87.7750000000002 263.68  L 86.8150000000002 261.77  L 90.6350000000002 260.81  L 90.6350000000002 257.94  L 92.5450000000002 257.94  L 96.3650000000002 252.21  L 95.4050000000003 250.3  L 90.6250000000003 253.17  L 87.7550000000003 252.21  L 87.7550000000003 247.43  L 91.5750000000003 247.43  L 90.6150000000003 244.56  L 93.4850000000003 241.69  L 92.5250000000003 237.87  L 89.6550000000003 237.87  L 89.6550000000003 229.27  L 95.3850000000003 232.14  L 103.025 231.18  L 103.025 226.4  L 104.935 226.4  L 106.845 220.67  L 106.845 213.03  L 103.975 208.25  L 104.935 200.61  L 94.4250000000004 199.65  L 78.1850000000003 192.96  L 74.3650000000004 195.83  L 66.7250000000004 197.74  L 60.0350000000004 196.78  L 51.4350000000003 198.69  L 52.3950000000003 196.78  L 37.1150000000004 200.6  L 36.1550000000004 197.73  L 38.0650000000004 195.82  L 35.1950000000004 194.86  L 35.1950000000004 190.08  L 32.3250000000004 187.21  L 30.4150000000004 187.21  L 29.4550000000004 184.34  L 33.2750000000004 179.56  L 31.3650000000004 176.69  L 25.6350000000003 178.6  L 23.7250000000003 176.69  L 23.7250000000003 171.91  L 20.8550000000003 170.95  L 19.8950000000003 164.26  L 16.0750000000003 164.26  L 15.1150000000004 161.39  L 21.8050000000003 155.66  L 16.0750000000003 149.93  L 14.1650000000003 150.89  L 5.56500000000028 141.34  L 2.69500000000028 127.97  L 0.785000000000252 125.1  L 2.69500000000028 126.06  L 6.51500000000027 123.19  L 4.60500000000025 123.19  L 4.60500000000025 118.41  L 13.2050000000003 97.4000000000003  L 18.9350000000003 90.7100000000003  L 23.7150000000003 87.8400000000003  L 24.6750000000002 83.0600000000003  L 24.6750000000002 80.1900000000003  L 21.8050000000002 80.1900000000003  L 17.9850000000002 75.4100000000003  L 18.9450000000002 72.5400000000003  L 16.0750000000002 72.5400000000003  L 15.1150000000002 70.6300000000003  L 13.2050000000002 62.9900000000004  L 16.0750000000002 62.0300000000003  L 17.0350000000002 59.1600000000003  L 15.1250000000002 56.2900000000003  L 11.3050000000002 56.2900000000003  L 9.39500000000015 52.4700000000003  L 10.3550000000001 47.6900000000003  L 7.48500000000013 48.6500000000003  L 7.48500000000013 46.7400000000004  L 13.2150000000001 41.0100000000004  L 16.0850000000002 41.0100000000004  L 20.8650000000001 38.1400000000004  L 36.1450000000001 26.6800000000003  L 38.0550000000001 20.9500000000003  L 40.9250000000001 17.1300000000004  L 43.7950000000001 16.1700000000004  L 41.8850000000001 11.3900000000004  L 43.7950000000001 8.52000000000035  L 42.8350000000002 5.65000000000035  L 44.7450000000002 5.65000000000035  L 45.7050000000002 3.74000000000035  Z " fill-rule="nonzero" fill="#0fd0e6" stroke="none" fill-opacity="0.0980392156862745" transform="matrix(1 0 0 1 994 316 )" />
    <path d="M 45.7050000000002 3.74000000000035  L 46.715 0.980000000000004  L 63.905 3.85000000000001  L 81.095 14.36  L 106.885 26.78  L 106.885 34.42  L 113.575 59.26  L 129.815 99.38  L 133.635 104.16  L 140.325 121.35  L 151.785 143.32  L 156.565 155.74  L 159.435 170.07  L 162.305 174.85  L 168.035 174.85  L 170.905 178.67  L 168.995 185.36  L 171.865 186.32  L 175.685 213.07  L 181.415 215.94  L 183.325 218.81  L 185.235 232.18  L 189.055 240.78  L 188.095 255.11  L 186.185 256.07  L 185.225 261.8  L 180.445 261.8  L 180.445 263.71  L 185.225 265.62  L 188.095 269.44  L 179.495 272.31  L 178.535 274.22  L 174.715 274.22  L 172.805 278.04  L 170.895 277.08  L 170.895 278.99  L 165.165 281.86  L 166.125 278.04  L 159.435 279  L 159.435 280.91  L 156.565 279.95  L 156.565 278.04  L 154.655 278.04  L 151.785 279  L 149.875 282.82  L 147.965 280.91  L 148.925 279  L 147.015 276.13  L 144.145 278.04  L 145.105 274.22  L 142.235 271.35  L 139.365 273.26  L 128.855 272.3  L 128.855 275.17  L 122.165 274.21  L 123.125 272.3  L 121.215 267.52  L 116.435 265.61  L 116.435 262.74  L 114.525 261.78  L 108.795 263.69  L 106.885 262.73  L 102.105 266.55  L 96.3750000000002 267.51  L 96.3750000000002 271.33  L 93.5050000000002 277.06  L 94.4650000000002 278.02  L 92.5550000000002 278.02  L 92.5550000000002 275.15  L 89.6850000000002 274.19  L 82.9950000000002 277.06  L 81.0850000000002 274.19  L 82.9950000000002 273.23  L 82.9950000000002 266.54  L 85.8650000000002 262.72  L 87.7750000000002 263.68  L 86.8150000000002 261.77  L 90.6350000000002 260.81  L 90.6350000000002 257.94  L 92.5450000000002 257.94  L 96.3650000000002 252.21  L 95.4050000000003 250.3  L 90.6250000000003 253.17  L 87.7550000000003 252.21  L 87.7550000000003 247.43  L 91.5750000000003 247.43  L 90.6150000000003 244.56  L 93.4850000000003 241.69  L 92.5250000000003 237.87  L 89.6550000000003 237.87  L 89.6550000000003 229.27  L 95.3850000000003 232.14  L 103.025 231.18  L 103.025 226.4  L 104.935 226.4  L 106.845 220.67  L 106.845 213.03  L 103.975 208.25  L 104.935 200.61  L 94.4250000000004 199.65  L 78.1850000000003 192.96  L 74.3650000000004 195.83  L 66.7250000000004 197.74  L 60.0350000000004 196.78  L 51.4350000000003 198.69  L 52.3950000000003 196.78  L 37.1150000000004 200.6  L 36.1550000000004 197.73  L 38.0650000000004 195.82  L 35.1950000000004 194.86  L 35.1950000000004 190.08  L 32.3250000000004 187.21  L 30.4150000000004 187.21  L 29.4550000000004 184.34  L 33.2750000000004 179.56  L 31.3650000000004 176.69  L 25.6350000000003 178.6  L 23.7250000000003 176.69  L 23.7250000000003 171.91  L 20.8550000000003 170.95  L 19.8950000000003 164.26  L 16.0750000000003 164.26  L 15.1150000000004 161.39  L 21.8050000000003 155.66  L 16.0750000000003 149.93  L 14.1650000000003 150.89  L 5.56500000000028 141.34  L 2.69500000000028 127.97  L 0.785000000000252 125.1  L 2.69500000000028 126.06  L 6.51500000000027 123.19  L 4.60500000000025 123.19  L 4.60500000000025 118.41  L 13.2050000000003 97.4000000000003  L 18.9350000000003 90.7100000000003  L 23.7150000000003 87.8400000000003  L 24.6750000000002 83.0600000000003  L 24.6750000000002 80.1900000000003  L 21.8050000000002 80.1900000000003  L 17.9850000000002 75.4100000000003  L 18.9450000000002 72.5400000000003  L 16.0750000000002 72.5400000000003  L 15.1150000000002 70.6300000000003  L 13.2050000000002 62.9900000000004  L 16.0750000000002 62.0300000000003  L 17.0350000000002 59.1600000000003  L 15.1250000000002 56.2900000000003  L 11.3050000000002 56.2900000000003  L 9.39500000000015 52.4700000000003  L 10.3550000000001 47.6900000000003  L 7.48500000000013 48.6500000000003  L 7.48500000000013 46.7400000000004  L 13.2150000000001 41.0100000000004  L 16.0850000000002 41.0100000000004  L 20.8650000000001 38.1400000000004  L 36.1450000000001 26.6800000000003  L 38.0550000000001 20.9500000000003  L 40.9250000000001 17.1300000000004  L 43.7950000000001 16.1700000000004  L 41.8850000000001 11.3900000000004  L 43.7950000000001 8.52000000000035  L 42.8350000000002 5.65000000000035  L 44.7450000000002 5.65000000000035  L 45.7050000000002 3.74000000000035  Z " stroke-width="2" stroke-dasharray="3,1" stroke="#ffffff" fill="none" stroke-opacity="0.2" transform="matrix(1 0 0 1 994 316 )" mask="url(#clip2139)" />
  </g>
</svg>