<?xml version="1.0" encoding="utf-8"?>
<svg version="1.1" xmlns:xlink="http://www.w3.org/1999/xlink" width="134px" height="209px" xmlns="http://www.w3.org/2000/svg">
  <defs>
    <mask fill="white" id="clip2152">
      <path d="M 24.7049999999998 135.93  L 22.755 134.93  L 26.575 131.11  L 25.615 126.33  L 27.525 126.33  L 27.525 123.46  L 25.615 121.55  L 27.525 120.59  L 26.5650000000001 118.68  L 29.4350000000001 114.86  L 27.525 113.9  L 27.525 111.03  L 24.655 111.99  L 22.745 110.08  L 24.655 98.62  L 22.745 94.8  L 22.745 87.16  L 24.655 85.25  L 29.435 88.12  L 33.255 88.12  L 32.295 80.48  L 29.425 79.52  L 30.385 76.65  L 27.515 74.74  L 25.605 70.92  L 28.475 67.1  L 24.655 65.19  L 24.655 61.37  L 21.785 62.33  L 18.915 60.42  L 20.825 57.55  L 20.825 52.77  L 17.955 45.13  L 14.135 48  L 11.265 47.04  L 9.35499999999996 44.17  L 10.3149999999999 42.26  L 7.44499999999994 38.44  L 9.35499999999996 31.75  L 7.44499999999994 30.79  L 6.48499999999996 22.19  L 0.754999999999939 15.5  L 2.66499999999996 9.76999999999998  L 8.39499999999998 3.07999999999998  L 9.35499999999996 4.03999999999996  L 9.35499999999996 0.21999999999997  L 12.225 2.13  L 12.225 7.86000000000001  L 15.095 8.81999999999999  L 13.1849999999999 10.73  L 14.1449999999999 13.6  L 29.4249999999999 9.78000000000003  L 28.4649999999999 11.6900000000001  L 37.0649999999999 9.78000000000003  L 43.7549999999999 10.74  L 51.3949999999999 8.82999999999998  L 55.2149999999999 5.95999999999998  L 71.4549999999999 12.65  L 81.9649999999999 13.61  L 81.0049999999999 21.2499999999999  L 83.8749999999999 26.0299999999999  L 83.8749999999999 33.6699999999999  L 81.9649999999999 39.3999999999999  L 80.0549999999999 39.3999999999999  L 80.0549999999999 44.1799999999999  L 74.3249999999999 43.2199999999999  L 72.4149999999998 45.1299999999999  L 66.6849999999998 42.2599999999999  L 66.6849999999998 50.86  L 69.5549999999998 50.86  L 70.5149999999998 54.6799999999999  L 67.6449999999998 57.55  L 68.6049999999998 60.42  L 64.7849999999998 60.42  L 64.7849999999998 64.24  L 67.6549999999998 66.15  L 72.4349999999998 63.28  L 73.3949999999998 65.19  L 70.5249999999997 68.06  L 70.5249999999997 70.93  L 67.6549999999997 70.93  L 67.6549999999997 73.8  L 63.8349999999998 74.76  L 64.7949999999997 76.67  L 62.8849999999997 75.71  L 60.0149999999997 79.53  L 60.0149999999997 86.22  L 58.1049999999997 87.18  L 60.0149999999997 90.05  L 69.5649999999997 88.14  L 69.5649999999997 91.01  L 72.4349999999997 93.88  L 76.2549999999997 91.97  L 78.1649999999997 98.66  L 77.2049999999998 106.3  L 80.0749999999998 115.85  L 80.0749999999998 123.49  L 82.9449999999998 126.36  L 88.6749999999998 123.49  L 89.6349999999998 126.36  L 87.7249999999997 128.27  L 89.6349999999998 134  L 87.7249999999997 142.6  L 90.5949999999997 147.38  L 87.7249999999997 153.11  L 88.6849999999997 159.8  L 98.2349999999997 160.76  L 104.925 163.63  L 107.795 165.54  L 108.755 169.36  L 112.575 171.27  L 113.535 176.05  L 102.075 172.23  L 94.4349999999998 176.05  L 88.7049999999998 181.78  L 74.3749999999998 188.47  L 66.7349999999998 188.47  L 47.6349999999998 183.69  L 41.9049999999998 177.96  L 39.0349999999998 172.23  L 30.4349999999998 142.62  L 24.7049999999998 135.93  Z " fill-rule="evenodd" />
    </mask>
    <filter x="1007px" y="503px" width="134px" height="209px" filterUnits="userSpaceOnUse" id="filter2153">
      <feOffset dx="0" dy="10" in="SourceAlpha" result="shadowOffsetInner" />
      <feGaussianBlur stdDeviation="5" in="shadowOffsetInner" result="shadowGaussian" />
      <feComposite in2="shadowGaussian" operator="atop" in="SourceAlpha" result="shadowComposite" />
      <feColorMatrix type="matrix" values="0 0 0 0 0.2  0 0 0 0 0.6  0 0 0 0 1  0 0 0 1 0  " in="shadowComposite" />
    </filter>
    <g id="widget2154">
      <path d="M 24.7049999999998 135.93  L 22.755 134.93  L 26.575 131.11  L 25.615 126.33  L 27.525 126.33  L 27.525 123.46  L 25.615 121.55  L 27.525 120.59  L 26.5650000000001 118.68  L 29.4350000000001 114.86  L 27.525 113.9  L 27.525 111.03  L 24.655 111.99  L 22.745 110.08  L 24.655 98.62  L 22.745 94.8  L 22.745 87.16  L 24.655 85.25  L 29.435 88.12  L 33.255 88.12  L 32.295 80.48  L 29.425 79.52  L 30.385 76.65  L 27.515 74.74  L 25.605 70.92  L 28.475 67.1  L 24.655 65.19  L 24.655 61.37  L 21.785 62.33  L 18.915 60.42  L 20.825 57.55  L 20.825 52.77  L 17.955 45.13  L 14.135 48  L 11.265 47.04  L 9.35499999999996 44.17  L 10.3149999999999 42.26  L 7.44499999999994 38.44  L 9.35499999999996 31.75  L 7.44499999999994 30.79  L 6.48499999999996 22.19  L 0.754999999999939 15.5  L 2.66499999999996 9.76999999999998  L 8.39499999999998 3.07999999999998  L 9.35499999999996 4.03999999999996  L 9.35499999999996 0.21999999999997  L 12.225 2.13  L 12.225 7.86000000000001  L 15.095 8.81999999999999  L 13.1849999999999 10.73  L 14.1449999999999 13.6  L 29.4249999999999 9.78000000000003  L 28.4649999999999 11.6900000000001  L 37.0649999999999 9.78000000000003  L 43.7549999999999 10.74  L 51.3949999999999 8.82999999999998  L 55.2149999999999 5.95999999999998  L 71.4549999999999 12.65  L 81.9649999999999 13.61  L 81.0049999999999 21.2499999999999  L 83.8749999999999 26.0299999999999  L 83.8749999999999 33.6699999999999  L 81.9649999999999 39.3999999999999  L 80.0549999999999 39.3999999999999  L 80.0549999999999 44.1799999999999  L 74.3249999999999 43.2199999999999  L 72.4149999999998 45.1299999999999  L 66.6849999999998 42.2599999999999  L 66.6849999999998 50.86  L 69.5549999999998 50.86  L 70.5149999999998 54.6799999999999  L 67.6449999999998 57.55  L 68.6049999999998 60.42  L 64.7849999999998 60.42  L 64.7849999999998 64.24  L 67.6549999999998 66.15  L 72.4349999999998 63.28  L 73.3949999999998 65.19  L 70.5249999999997 68.06  L 70.5249999999997 70.93  L 67.6549999999997 70.93  L 67.6549999999997 73.8  L 63.8349999999998 74.76  L 64.7949999999997 76.67  L 62.8849999999997 75.71  L 60.0149999999997 79.53  L 60.0149999999997 86.22  L 58.1049999999997 87.18  L 60.0149999999997 90.05  L 69.5649999999997 88.14  L 69.5649999999997 91.01  L 72.4349999999997 93.88  L 76.2549999999997 91.97  L 78.1649999999997 98.66  L 77.2049999999998 106.3  L 80.0749999999998 115.85  L 80.0749999999998 123.49  L 82.9449999999998 126.36  L 88.6749999999998 123.49  L 89.6349999999998 126.36  L 87.7249999999997 128.27  L 89.6349999999998 134  L 87.7249999999997 142.6  L 90.5949999999997 147.38  L 87.7249999999997 153.11  L 88.6849999999997 159.8  L 98.2349999999997 160.76  L 104.925 163.63  L 107.795 165.54  L 108.755 169.36  L 112.575 171.27  L 113.535 176.05  L 102.075 172.23  L 94.4349999999998 176.05  L 88.7049999999998 181.78  L 74.3749999999998 188.47  L 66.7349999999998 188.47  L 47.6349999999998 183.69  L 41.9049999999998 177.96  L 39.0349999999998 172.23  L 30.4349999999998 142.62  L 24.7049999999998 135.93  Z " fill-rule="nonzero" fill="#0fd0e6" stroke="none" transform="matrix(1 0 0 1 1017 503 )" />
      <path d="M 24.7049999999998 135.93  L 22.755 134.93  L 26.575 131.11  L 25.615 126.33  L 27.525 126.33  L 27.525 123.46  L 25.615 121.55  L 27.525 120.59  L 26.5650000000001 118.68  L 29.4350000000001 114.86  L 27.525 113.9  L 27.525 111.03  L 24.655 111.99  L 22.745 110.08  L 24.655 98.62  L 22.745 94.8  L 22.745 87.16  L 24.655 85.25  L 29.435 88.12  L 33.255 88.12  L 32.295 80.48  L 29.425 79.52  L 30.385 76.65  L 27.515 74.74  L 25.605 70.92  L 28.475 67.1  L 24.655 65.19  L 24.655 61.37  L 21.785 62.33  L 18.915 60.42  L 20.825 57.55  L 20.825 52.77  L 17.955 45.13  L 14.135 48  L 11.265 47.04  L 9.35499999999996 44.17  L 10.3149999999999 42.26  L 7.44499999999994 38.44  L 9.35499999999996 31.75  L 7.44499999999994 30.79  L 6.48499999999996 22.19  L 0.754999999999939 15.5  L 2.66499999999996 9.76999999999998  L 8.39499999999998 3.07999999999998  L 9.35499999999996 4.03999999999996  L 9.35499999999996 0.21999999999997  L 12.225 2.13  L 12.225 7.86000000000001  L 15.095 8.81999999999999  L 13.1849999999999 10.73  L 14.1449999999999 13.6  L 29.4249999999999 9.78000000000003  L 28.4649999999999 11.6900000000001  L 37.0649999999999 9.78000000000003  L 43.7549999999999 10.74  L 51.3949999999999 8.82999999999998  L 55.2149999999999 5.95999999999998  L 71.4549999999999 12.65  L 81.9649999999999 13.61  L 81.0049999999999 21.2499999999999  L 83.8749999999999 26.0299999999999  L 83.8749999999999 33.6699999999999  L 81.9649999999999 39.3999999999999  L 80.0549999999999 39.3999999999999  L 80.0549999999999 44.1799999999999  L 74.3249999999999 43.2199999999999  L 72.4149999999998 45.1299999999999  L 66.6849999999998 42.2599999999999  L 66.6849999999998 50.86  L 69.5549999999998 50.86  L 70.5149999999998 54.6799999999999  L 67.6449999999998 57.55  L 68.6049999999998 60.42  L 64.7849999999998 60.42  L 64.7849999999998 64.24  L 67.6549999999998 66.15  L 72.4349999999998 63.28  L 73.3949999999998 65.19  L 70.5249999999997 68.06  L 70.5249999999997 70.93  L 67.6549999999997 70.93  L 67.6549999999997 73.8  L 63.8349999999998 74.76  L 64.7949999999997 76.67  L 62.8849999999997 75.71  L 60.0149999999997 79.53  L 60.0149999999997 86.22  L 58.1049999999997 87.18  L 60.0149999999997 90.05  L 69.5649999999997 88.14  L 69.5649999999997 91.01  L 72.4349999999997 93.88  L 76.2549999999997 91.97  L 78.1649999999997 98.66  L 77.2049999999998 106.3  L 80.0749999999998 115.85  L 80.0749999999998 123.49  L 82.9449999999998 126.36  L 88.6749999999998 123.49  L 89.6349999999998 126.36  L 87.7249999999997 128.27  L 89.6349999999998 134  L 87.7249999999997 142.6  L 90.5949999999997 147.38  L 87.7249999999997 153.11  L 88.6849999999997 159.8  L 98.2349999999997 160.76  L 104.925 163.63  L 107.795 165.54  L 108.755 169.36  L 112.575 171.27  L 113.535 176.05  L 102.075 172.23  L 94.4349999999998 176.05  L 88.7049999999998 181.78  L 74.3749999999998 188.47  L 66.7349999999998 188.47  L 47.6349999999998 183.69  L 41.9049999999998 177.96  L 39.0349999999998 172.23  L 30.4349999999998 142.62  L 24.7049999999998 135.93  Z " stroke-width="2" stroke-dasharray="3,1" stroke="#ffffff" fill="none" stroke-opacity="0.2" transform="matrix(1 0 0 1 1017 503 )" mask="url(#clip2152)" />
    </g>
  </defs>
  <g transform="matrix(1 0 0 1 -1007 -503 )">
    <use xlink:href="#widget2154" filter="url(#filter2153)" />
    <use xlink:href="#widget2154" />
  </g>
</svg>