<?xml version="1.0" encoding="utf-8"?>
<svg version="1.1" xmlns:xlink="http://www.w3.org/1999/xlink" width="47px" height="59px" xmlns="http://www.w3.org/2000/svg">
  <defs>
    <mask fill="white" id="clip2079">
      <path d="M 28.8207547169811 2.20149253731343  C 28.8207547169811 2.20149253731343  31.4811320754717 0.440298507462687  31.4811320754717 0.440298507462687  C 31.4811320754717 0.440298507462687  30.5943396226415 2.20149253731343  30.5943396226415 2.20149253731343  C 30.5943396226415 2.20149253731343  32.3679245283019 6.6044776119403  32.3679245283019 6.6044776119403  C 32.3679245283019 6.6044776119403  35.0283018867924 5.72388059701493  35.0283018867924 5.72388059701493  C 35.0283018867924 5.72388059701493  35.9150943396226 7.48507462686567  35.9150943396226 7.48507462686567  C 35.9150943396226 7.48507462686567  35.9150943396226 10.1268656716418  35.9150943396226 10.1268656716418  C 35.9150943396226 10.1268656716418  32.3679245283019 11.8880597014925  32.3679245283019 11.8880597014925  C 32.3679245283019 11.8880597014925  36.8018867924528 18.0522388059701  36.8018867924528 18.0522388059701  C 36.8018867924528 18.0522388059701  35.9150943396226 26.8582089552239  35.9150943396226 26.8582089552239  C 35.9150943396226 26.8582089552239  30.5943396226415 28.6194029850746  30.5943396226415 28.6194029850746  C 30.5943396226415 28.6194029850746  34.1415094339623 33.9029850746269  34.1415094339623 33.9029850746269  C 34.1415094339623 33.9029850746269  35.0283018867924 40.0671641791045  35.0283018867924 40.0671641791045  C 35.0283018867924 40.0671641791045  41.2358490566038 48.8731343283582  41.2358490566038 48.8731343283582  C 41.2358490566038 48.8731343283582  46.5566037735849 53.2761194029851  46.5566037735849 53.2761194029851  C 46.5566037735849 53.2761194029851  41.2358490566038 55.0373134328358  41.2358490566038 55.0373134328358  C 41.2358490566038 55.0373134328358  36.8018867924528 58.5597014925373  36.8018867924528 58.5597014925373  C 36.8018867924528 58.5597014925373  14.6320754716981 58.5597014925373  14.6320754716981 58.5597014925373  C 14.6320754716981 58.5597014925373  11.9716981132075 55.0373134328358  11.9716981132075 55.0373134328358  C 11.9716981132075 55.0373134328358  2.21698113207547 48.8731343283582  2.21698113207547 48.8731343283582  C 2.21698113207547 48.8731343283582  0.443396226415094 46.2313432835821  0.443396226415094 46.2313432835821  C 0.443396226415094 46.2313432835821  0.443396226415094 41.8283582089552  0.443396226415094 41.8283582089552  C 0.443396226415094 41.8283582089552  3.10377358490566 41.8283582089552  3.10377358490566 41.8283582089552  C 3.10377358490566 41.8283582089552  7.5377358490566 39.1865671641791  7.5377358490566 39.1865671641791  C 7.5377358490566 39.1865671641791  14.6320754716981 39.1865671641791  14.6320754716981 39.1865671641791  C 14.6320754716981 39.1865671641791  14.6320754716981 37.4253731343284  14.6320754716981 37.4253731343284  C 14.6320754716981 37.4253731343284  16.4056603773585 36.544776119403  16.4056603773585 36.544776119403  C 16.4056603773585 36.544776119403  16.4056603773585 33.0223880597015  16.4056603773585 33.0223880597015  C 16.4056603773585 33.0223880597015  18.1792452830189 33.0223880597015  18.1792452830189 33.0223880597015  C 18.1792452830189 33.0223880597015  18.1792452830189 30.3805970149254  18.1792452830189 30.3805970149254  C 18.1792452830189 30.3805970149254  14.6320754716981 31.2611940298507  14.6320754716981 31.2611940298507  C 14.6320754716981 31.2611940298507  11.9716981132075 20.6940298507463  11.9716981132075 20.6940298507463  C 11.9716981132075 20.6940298507463  15.5188679245283 19.8134328358209  15.5188679245283 19.8134328358209  C 15.5188679245283 19.8134328358209  17.2924528301887 5.72388059701493  17.2924528301887 5.72388059701493  C 17.2924528301887 5.72388059701493  24.3867924528302 11.0074626865672  24.3867924528302 11.0074626865672  C 24.3867924528302 11.0074626865672  28.8207547169811 5.72388059701493  28.8207547169811 5.72388059701493  C 28.8207547169811 5.72388059701493  28.8207547169811 2.20149253731343  28.8207547169811 2.20149253731343  Z " fill-rule="evenodd" />
    </mask>
  </defs>
  <g transform="matrix(1 0 0 1 -785 -580 )">
    <path d="M 28.8207547169811 2.20149253731343  C 28.8207547169811 2.20149253731343  31.4811320754717 0.440298507462687  31.4811320754717 0.440298507462687  C 31.4811320754717 0.440298507462687  30.5943396226415 2.20149253731343  30.5943396226415 2.20149253731343  C 30.5943396226415 2.20149253731343  32.3679245283019 6.6044776119403  32.3679245283019 6.6044776119403  C 32.3679245283019 6.6044776119403  35.0283018867924 5.72388059701493  35.0283018867924 5.72388059701493  C 35.0283018867924 5.72388059701493  35.9150943396226 7.48507462686567  35.9150943396226 7.48507462686567  C 35.9150943396226 7.48507462686567  35.9150943396226 10.1268656716418  35.9150943396226 10.1268656716418  C 35.9150943396226 10.1268656716418  32.3679245283019 11.8880597014925  32.3679245283019 11.8880597014925  C 32.3679245283019 11.8880597014925  36.8018867924528 18.0522388059701  36.8018867924528 18.0522388059701  C 36.8018867924528 18.0522388059701  35.9150943396226 26.8582089552239  35.9150943396226 26.8582089552239  C 35.9150943396226 26.8582089552239  30.5943396226415 28.6194029850746  30.5943396226415 28.6194029850746  C 30.5943396226415 28.6194029850746  34.1415094339623 33.9029850746269  34.1415094339623 33.9029850746269  C 34.1415094339623 33.9029850746269  35.0283018867924 40.0671641791045  35.0283018867924 40.0671641791045  C 35.0283018867924 40.0671641791045  41.2358490566038 48.8731343283582  41.2358490566038 48.8731343283582  C 41.2358490566038 48.8731343283582  46.5566037735849 53.2761194029851  46.5566037735849 53.2761194029851  C 46.5566037735849 53.2761194029851  41.2358490566038 55.0373134328358  41.2358490566038 55.0373134328358  C 41.2358490566038 55.0373134328358  36.8018867924528 58.5597014925373  36.8018867924528 58.5597014925373  C 36.8018867924528 58.5597014925373  14.6320754716981 58.5597014925373  14.6320754716981 58.5597014925373  C 14.6320754716981 58.5597014925373  11.9716981132075 55.0373134328358  11.9716981132075 55.0373134328358  C 11.9716981132075 55.0373134328358  2.21698113207547 48.8731343283582  2.21698113207547 48.8731343283582  C 2.21698113207547 48.8731343283582  0.443396226415094 46.2313432835821  0.443396226415094 46.2313432835821  C 0.443396226415094 46.2313432835821  0.443396226415094 41.8283582089552  0.443396226415094 41.8283582089552  C 0.443396226415094 41.8283582089552  3.10377358490566 41.8283582089552  3.10377358490566 41.8283582089552  C 3.10377358490566 41.8283582089552  7.5377358490566 39.1865671641791  7.5377358490566 39.1865671641791  C 7.5377358490566 39.1865671641791  14.6320754716981 39.1865671641791  14.6320754716981 39.1865671641791  C 14.6320754716981 39.1865671641791  14.6320754716981 37.4253731343284  14.6320754716981 37.4253731343284  C 14.6320754716981 37.4253731343284  16.4056603773585 36.544776119403  16.4056603773585 36.544776119403  C 16.4056603773585 36.544776119403  16.4056603773585 33.0223880597015  16.4056603773585 33.0223880597015  C 16.4056603773585 33.0223880597015  18.1792452830189 33.0223880597015  18.1792452830189 33.0223880597015  C 18.1792452830189 33.0223880597015  18.1792452830189 30.3805970149254  18.1792452830189 30.3805970149254  C 18.1792452830189 30.3805970149254  14.6320754716981 31.2611940298507  14.6320754716981 31.2611940298507  C 14.6320754716981 31.2611940298507  11.9716981132075 20.6940298507463  11.9716981132075 20.6940298507463  C 11.9716981132075 20.6940298507463  15.5188679245283 19.8134328358209  15.5188679245283 19.8134328358209  C 15.5188679245283 19.8134328358209  17.2924528301887 5.72388059701493  17.2924528301887 5.72388059701493  C 17.2924528301887 5.72388059701493  24.3867924528302 11.0074626865672  24.3867924528302 11.0074626865672  C 24.3867924528302 11.0074626865672  28.8207547169811 5.72388059701493  28.8207547169811 5.72388059701493  C 28.8207547169811 5.72388059701493  28.8207547169811 2.20149253731343  28.8207547169811 2.20149253731343  Z " fill-rule="nonzero" fill="#0fd0e6" stroke="none" fill-opacity="0.0980392156862745" transform="matrix(1 0 0 1 785 580 )" />
    <path d="M 28.8207547169811 2.20149253731343  C 28.8207547169811 2.20149253731343  31.4811320754717 0.440298507462687  31.4811320754717 0.440298507462687  C 31.4811320754717 0.440298507462687  30.5943396226415 2.20149253731343  30.5943396226415 2.20149253731343  C 30.5943396226415 2.20149253731343  32.3679245283019 6.6044776119403  32.3679245283019 6.6044776119403  C 32.3679245283019 6.6044776119403  35.0283018867924 5.72388059701493  35.0283018867924 5.72388059701493  C 35.0283018867924 5.72388059701493  35.9150943396226 7.48507462686567  35.9150943396226 7.48507462686567  C 35.9150943396226 7.48507462686567  35.9150943396226 10.1268656716418  35.9150943396226 10.1268656716418  C 35.9150943396226 10.1268656716418  32.3679245283019 11.8880597014925  32.3679245283019 11.8880597014925  C 32.3679245283019 11.8880597014925  36.8018867924528 18.0522388059701  36.8018867924528 18.0522388059701  C 36.8018867924528 18.0522388059701  35.9150943396226 26.8582089552239  35.9150943396226 26.8582089552239  C 35.9150943396226 26.8582089552239  30.5943396226415 28.6194029850746  30.5943396226415 28.6194029850746  C 30.5943396226415 28.6194029850746  34.1415094339623 33.9029850746269  34.1415094339623 33.9029850746269  C 34.1415094339623 33.9029850746269  35.0283018867924 40.0671641791045  35.0283018867924 40.0671641791045  C 35.0283018867924 40.0671641791045  41.2358490566038 48.8731343283582  41.2358490566038 48.8731343283582  C 41.2358490566038 48.8731343283582  46.5566037735849 53.2761194029851  46.5566037735849 53.2761194029851  C 46.5566037735849 53.2761194029851  41.2358490566038 55.0373134328358  41.2358490566038 55.0373134328358  C 41.2358490566038 55.0373134328358  36.8018867924528 58.5597014925373  36.8018867924528 58.5597014925373  C 36.8018867924528 58.5597014925373  14.6320754716981 58.5597014925373  14.6320754716981 58.5597014925373  C 14.6320754716981 58.5597014925373  11.9716981132075 55.0373134328358  11.9716981132075 55.0373134328358  C 11.9716981132075 55.0373134328358  2.21698113207547 48.8731343283582  2.21698113207547 48.8731343283582  C 2.21698113207547 48.8731343283582  0.443396226415094 46.2313432835821  0.443396226415094 46.2313432835821  C 0.443396226415094 46.2313432835821  0.443396226415094 41.8283582089552  0.443396226415094 41.8283582089552  C 0.443396226415094 41.8283582089552  3.10377358490566 41.8283582089552  3.10377358490566 41.8283582089552  C 3.10377358490566 41.8283582089552  7.5377358490566 39.1865671641791  7.5377358490566 39.1865671641791  C 7.5377358490566 39.1865671641791  14.6320754716981 39.1865671641791  14.6320754716981 39.1865671641791  C 14.6320754716981 39.1865671641791  14.6320754716981 37.4253731343284  14.6320754716981 37.4253731343284  C 14.6320754716981 37.4253731343284  16.4056603773585 36.544776119403  16.4056603773585 36.544776119403  C 16.4056603773585 36.544776119403  16.4056603773585 33.0223880597015  16.4056603773585 33.0223880597015  C 16.4056603773585 33.0223880597015  18.1792452830189 33.0223880597015  18.1792452830189 33.0223880597015  C 18.1792452830189 33.0223880597015  18.1792452830189 30.3805970149254  18.1792452830189 30.3805970149254  C 18.1792452830189 30.3805970149254  14.6320754716981 31.2611940298507  14.6320754716981 31.2611940298507  C 14.6320754716981 31.2611940298507  11.9716981132075 20.6940298507463  11.9716981132075 20.6940298507463  C 11.9716981132075 20.6940298507463  15.5188679245283 19.8134328358209  15.5188679245283 19.8134328358209  C 15.5188679245283 19.8134328358209  17.2924528301887 5.72388059701493  17.2924528301887 5.72388059701493  C 17.2924528301887 5.72388059701493  24.3867924528302 11.0074626865672  24.3867924528302 11.0074626865672  C 24.3867924528302 11.0074626865672  28.8207547169811 5.72388059701493  28.8207547169811 5.72388059701493  C 28.8207547169811 5.72388059701493  28.8207547169811 2.20149253731343  28.8207547169811 2.20149253731343  Z " stroke-width="2" stroke-dasharray="1,1" stroke="#999999" fill="none" transform="matrix(1 0 0 1 785 580 )" mask="url(#clip2079)" />
  </g>
</svg>