<?xml version="1.0" encoding="utf-8"?>
<svg version="1.1" xmlns:xlink="http://www.w3.org/1999/xlink" width="40px" height="34px" xmlns="http://www.w3.org/2000/svg">
  <defs>
    <mask fill="white" id="clip2081">
      <path d="M 28.8888888888889 6.71052631578947  C 28.8888888888889 6.71052631578947  31.5555555555556 4.92105263157895  31.5555555555556 4.92105263157895  C 31.5555555555556 4.92105263157895  32.4444444444444 6.71052631578947  32.4444444444444 6.71052631578947  C 32.4444444444444 6.71052631578947  29.7777777777778 10.2894736842105  29.7777777777778 10.2894736842105  C 29.7777777777778 10.2894736842105  31.5555555555556 11.1842105263158  31.5555555555556 11.1842105263158  C 31.5555555555556 11.1842105263158  32.4444444444444 14.7631578947368  32.4444444444444 14.7631578947368  C 32.4444444444444 14.7631578947368  34.2222222222222 12.9736842105263  34.2222222222222 12.9736842105263  C 34.2222222222222 12.9736842105263  35.1111111111111 13.8684210526316  35.1111111111111 13.8684210526316  C 35.1111111111111 13.8684210526316  36 29.9736842105263  36 29.9736842105263  C 36 29.9736842105263  39.5555555555556 31.7631578947368  39.5555555555556 31.7631578947368  C 39.5555555555556 31.7631578947368  31.5555555555556 33.5526315789474  31.5555555555556 33.5526315789474  C 31.5555555555556 33.5526315789474  15.5555555555556 29.0789473684211  15.5555555555556 29.0789473684211  C 15.5555555555556 29.0789473684211  6.66666666666667 32.6578947368421  6.66666666666667 32.6578947368421  C 6.66666666666667 32.6578947368421  7.55555555555556 21.9210526315789  7.55555555555556 21.9210526315789  C 7.55555555555556 21.9210526315789  4 20.1315789473684  4 20.1315789473684  C 4 20.1315789473684  2.22222222222222 17.4473684210526  2.22222222222222 17.4473684210526  C 2.22222222222222 17.4473684210526  4.88888888888889 17.4473684210526  4.88888888888889 17.4473684210526  C 4.88888888888889 17.4473684210526  6.66666666666667 14.7631578947368  6.66666666666667 14.7631578947368  C 6.66666666666667 14.7631578947368  6.66666666666667 12.0789473684211  6.66666666666667 12.0789473684211  C 6.66666666666667 12.0789473684211  5.77777777777778 10.2894736842105  5.77777777777778 10.2894736842105  C 5.77777777777778 10.2894736842105  3.11111111111111 11.1842105263158  3.11111111111111 11.1842105263158  C 3.11111111111111 11.1842105263158  0.444444444444444 0.447368421052632  0.444444444444444 0.447368421052632  C 0.444444444444444 0.447368421052632  6.66666666666667 2.23684210526316  6.66666666666667 2.23684210526316  C 6.66666666666667 2.23684210526316  6.66666666666667 4.02631578947368  6.66666666666667 4.02631578947368  C 6.66666666666667 4.02631578947368  9.33333333333333 5.81578947368421  9.33333333333333 5.81578947368421  C 9.33333333333333 5.81578947368421  7.55555555555556 9.39473684210526  7.55555555555556 9.39473684210526  C 7.55555555555556 9.39473684210526  9.33333333333333 10.2894736842105  9.33333333333333 10.2894736842105  C 9.33333333333333 10.2894736842105  13.7777777777778 11.1842105263158  13.7777777777778 11.1842105263158  C 13.7777777777778 11.1842105263158  15.5555555555556 8.5  15.5555555555556 8.5  C 15.5555555555556 8.5  19.1111111111111 8.5  19.1111111111111 8.5  C 19.1111111111111 8.5  19.1111111111111 6.71052631578947  19.1111111111111 6.71052631578947  C 19.1111111111111 6.71052631578947  26.2222222222222 7.60526315789474  26.2222222222222 7.60526315789474  C 26.2222222222222 7.60526315789474  27.1111111111111 4.92105263157895  27.1111111111111 4.92105263157895  C 27.1111111111111 4.92105263157895  28.8888888888889 6.71052631578947  28.8888888888889 6.71052631578947  Z " fill-rule="evenodd" />
    </mask>
  </defs>
  <g transform="matrix(1 0 0 1 -813 -575 )">
    <path d="M 28.8888888888889 6.71052631578947  C 28.8888888888889 6.71052631578947  31.5555555555556 4.92105263157895  31.5555555555556 4.92105263157895  C 31.5555555555556 4.92105263157895  32.4444444444444 6.71052631578947  32.4444444444444 6.71052631578947  C 32.4444444444444 6.71052631578947  29.7777777777778 10.2894736842105  29.7777777777778 10.2894736842105  C 29.7777777777778 10.2894736842105  31.5555555555556 11.1842105263158  31.5555555555556 11.1842105263158  C 31.5555555555556 11.1842105263158  32.4444444444444 14.7631578947368  32.4444444444444 14.7631578947368  C 32.4444444444444 14.7631578947368  34.2222222222222 12.9736842105263  34.2222222222222 12.9736842105263  C 34.2222222222222 12.9736842105263  35.1111111111111 13.8684210526316  35.1111111111111 13.8684210526316  C 35.1111111111111 13.8684210526316  36 29.9736842105263  36 29.9736842105263  C 36 29.9736842105263  39.5555555555556 31.7631578947368  39.5555555555556 31.7631578947368  C 39.5555555555556 31.7631578947368  31.5555555555556 33.5526315789474  31.5555555555556 33.5526315789474  C 31.5555555555556 33.5526315789474  15.5555555555556 29.0789473684211  15.5555555555556 29.0789473684211  C 15.5555555555556 29.0789473684211  6.66666666666667 32.6578947368421  6.66666666666667 32.6578947368421  C 6.66666666666667 32.6578947368421  7.55555555555556 21.9210526315789  7.55555555555556 21.9210526315789  C 7.55555555555556 21.9210526315789  4 20.1315789473684  4 20.1315789473684  C 4 20.1315789473684  2.22222222222222 17.4473684210526  2.22222222222222 17.4473684210526  C 2.22222222222222 17.4473684210526  4.88888888888889 17.4473684210526  4.88888888888889 17.4473684210526  C 4.88888888888889 17.4473684210526  6.66666666666667 14.7631578947368  6.66666666666667 14.7631578947368  C 6.66666666666667 14.7631578947368  6.66666666666667 12.0789473684211  6.66666666666667 12.0789473684211  C 6.66666666666667 12.0789473684211  5.77777777777778 10.2894736842105  5.77777777777778 10.2894736842105  C 5.77777777777778 10.2894736842105  3.11111111111111 11.1842105263158  3.11111111111111 11.1842105263158  C 3.11111111111111 11.1842105263158  0.444444444444444 0.447368421052632  0.444444444444444 0.447368421052632  C 0.444444444444444 0.447368421052632  6.66666666666667 2.23684210526316  6.66666666666667 2.23684210526316  C 6.66666666666667 2.23684210526316  6.66666666666667 4.02631578947368  6.66666666666667 4.02631578947368  C 6.66666666666667 4.02631578947368  9.33333333333333 5.81578947368421  9.33333333333333 5.81578947368421  C 9.33333333333333 5.81578947368421  7.55555555555556 9.39473684210526  7.55555555555556 9.39473684210526  C 7.55555555555556 9.39473684210526  9.33333333333333 10.2894736842105  9.33333333333333 10.2894736842105  C 9.33333333333333 10.2894736842105  13.7777777777778 11.1842105263158  13.7777777777778 11.1842105263158  C 13.7777777777778 11.1842105263158  15.5555555555556 8.5  15.5555555555556 8.5  C 15.5555555555556 8.5  19.1111111111111 8.5  19.1111111111111 8.5  C 19.1111111111111 8.5  19.1111111111111 6.71052631578947  19.1111111111111 6.71052631578947  C 19.1111111111111 6.71052631578947  26.2222222222222 7.60526315789474  26.2222222222222 7.60526315789474  C 26.2222222222222 7.60526315789474  27.1111111111111 4.92105263157895  27.1111111111111 4.92105263157895  C 27.1111111111111 4.92105263157895  28.8888888888889 6.71052631578947  28.8888888888889 6.71052631578947  Z " fill-rule="nonzero" fill="#0fd0e6" stroke="none" fill-opacity="0.0980392156862745" transform="matrix(1 0 0 1 813 575 )" />
    <path d="M 28.8888888888889 6.71052631578947  C 28.8888888888889 6.71052631578947  31.5555555555556 4.92105263157895  31.5555555555556 4.92105263157895  C 31.5555555555556 4.92105263157895  32.4444444444444 6.71052631578947  32.4444444444444 6.71052631578947  C 32.4444444444444 6.71052631578947  29.7777777777778 10.2894736842105  29.7777777777778 10.2894736842105  C 29.7777777777778 10.2894736842105  31.5555555555556 11.1842105263158  31.5555555555556 11.1842105263158  C 31.5555555555556 11.1842105263158  32.4444444444444 14.7631578947368  32.4444444444444 14.7631578947368  C 32.4444444444444 14.7631578947368  34.2222222222222 12.9736842105263  34.2222222222222 12.9736842105263  C 34.2222222222222 12.9736842105263  35.1111111111111 13.8684210526316  35.1111111111111 13.8684210526316  C 35.1111111111111 13.8684210526316  36 29.9736842105263  36 29.9736842105263  C 36 29.9736842105263  39.5555555555556 31.7631578947368  39.5555555555556 31.7631578947368  C 39.5555555555556 31.7631578947368  31.5555555555556 33.5526315789474  31.5555555555556 33.5526315789474  C 31.5555555555556 33.5526315789474  15.5555555555556 29.0789473684211  15.5555555555556 29.0789473684211  C 15.5555555555556 29.0789473684211  6.66666666666667 32.6578947368421  6.66666666666667 32.6578947368421  C 6.66666666666667 32.6578947368421  7.55555555555556 21.9210526315789  7.55555555555556 21.9210526315789  C 7.55555555555556 21.9210526315789  4 20.1315789473684  4 20.1315789473684  C 4 20.1315789473684  2.22222222222222 17.4473684210526  2.22222222222222 17.4473684210526  C 2.22222222222222 17.4473684210526  4.88888888888889 17.4473684210526  4.88888888888889 17.4473684210526  C 4.88888888888889 17.4473684210526  6.66666666666667 14.7631578947368  6.66666666666667 14.7631578947368  C 6.66666666666667 14.7631578947368  6.66666666666667 12.0789473684211  6.66666666666667 12.0789473684211  C 6.66666666666667 12.0789473684211  5.77777777777778 10.2894736842105  5.77777777777778 10.2894736842105  C 5.77777777777778 10.2894736842105  3.11111111111111 11.1842105263158  3.11111111111111 11.1842105263158  C 3.11111111111111 11.1842105263158  0.444444444444444 0.447368421052632  0.444444444444444 0.447368421052632  C 0.444444444444444 0.447368421052632  6.66666666666667 2.23684210526316  6.66666666666667 2.23684210526316  C 6.66666666666667 2.23684210526316  6.66666666666667 4.02631578947368  6.66666666666667 4.02631578947368  C 6.66666666666667 4.02631578947368  9.33333333333333 5.81578947368421  9.33333333333333 5.81578947368421  C 9.33333333333333 5.81578947368421  7.55555555555556 9.39473684210526  7.55555555555556 9.39473684210526  C 7.55555555555556 9.39473684210526  9.33333333333333 10.2894736842105  9.33333333333333 10.2894736842105  C 9.33333333333333 10.2894736842105  13.7777777777778 11.1842105263158  13.7777777777778 11.1842105263158  C 13.7777777777778 11.1842105263158  15.5555555555556 8.5  15.5555555555556 8.5  C 15.5555555555556 8.5  19.1111111111111 8.5  19.1111111111111 8.5  C 19.1111111111111 8.5  19.1111111111111 6.71052631578947  19.1111111111111 6.71052631578947  C 19.1111111111111 6.71052631578947  26.2222222222222 7.60526315789474  26.2222222222222 7.60526315789474  C 26.2222222222222 7.60526315789474  27.1111111111111 4.92105263157895  27.1111111111111 4.92105263157895  C 27.1111111111111 4.92105263157895  28.8888888888889 6.71052631578947  28.8888888888889 6.71052631578947  Z " stroke-width="2" stroke-dasharray="1,1" stroke="#999999" fill="none" transform="matrix(1 0 0 1 813 575 )" mask="url(#clip2081)" />
  </g>
</svg>