<?xml version="1.0" encoding="utf-8"?>
<svg version="1.1" xmlns:xlink="http://www.w3.org/1999/xlink" width="83px" height="36px" xmlns="http://www.w3.org/2000/svg">
  <defs>
    <mask fill="white" id="clip2084">
      <path d="M 32.2287234042553 3.95121951219512  C 32.2287234042553 3.95121951219512  37.5265957446809 3.07317073170732  37.5265957446809 3.07317073170732  C 37.5265957446809 3.07317073170732  64.8989361702128 3.07317073170732  64.8989361702128 3.07317073170732  C 64.8989361702128 3.07317073170732  72.8457446808511 4.82926829268293  72.8457446808511 4.82926829268293  C 72.8457446808511 4.82926829268293  79.9095744680851 8.34146341463415  79.9095744680851 8.34146341463415  C 79.9095744680851 8.34146341463415  79.9095744680851 10.9756097560976  79.9095744680851 10.9756097560976  C 79.9095744680851 10.9756097560976  82.5585106382979 13.609756097561  82.5585106382979 13.609756097561  C 82.5585106382979 13.609756097561  68.4308510638298 20.6341463414634  68.4308510638298 20.6341463414634  C 68.4308510638298 20.6341463414634  58.718085106383 30.2926829268293  58.718085106383 30.2926829268293  C 58.718085106383 30.2926829268293  56.9521276595745 33.8048780487805  56.9521276595745 33.8048780487805  C 56.9521276595745 33.8048780487805  49.8882978723404 35.5609756097561  49.8882978723404 35.5609756097561  C 49.8882978723404 35.5609756097561  39.2925531914894 32.0487804878049  39.2925531914894 32.0487804878049  C 39.2925531914894 32.0487804878049  16.3351063829787 30.2926829268293  16.3351063829787 30.2926829268293  C 16.3351063829787 30.2926829268293  11.0372340425532 25.9024390243902  11.0372340425532 25.9024390243902  C 11.0372340425532 25.9024390243902  4.8563829787234 16.2439024390244  4.8563829787234 16.2439024390244  C 4.8563829787234 16.2439024390244  3.97340425531915 10.0975609756098  3.97340425531915 10.0975609756098  C 3.97340425531915 10.0975609756098  0.441489361702128 5.70731707317073  0.441489361702128 5.70731707317073  C 0.441489361702128 5.70731707317073  14.5691489361702 0.439024390243902  14.5691489361702 0.439024390243902  C 14.5691489361702 0.439024390243902  24.281914893617 3.95121951219512  24.281914893617 3.95121951219512  C 24.281914893617 3.95121951219512  32.2287234042553 3.95121951219512  32.2287234042553 3.95121951219512  Z " fill-rule="evenodd" />
    </mask>
  </defs>
  <g transform="matrix(1 0 0 1 -814 -603 )">
    <path d="M 32.2287234042553 3.95121951219512  C 32.2287234042553 3.95121951219512  37.5265957446809 3.07317073170732  37.5265957446809 3.07317073170732  C 37.5265957446809 3.07317073170732  64.8989361702128 3.07317073170732  64.8989361702128 3.07317073170732  C 64.8989361702128 3.07317073170732  72.8457446808511 4.82926829268293  72.8457446808511 4.82926829268293  C 72.8457446808511 4.82926829268293  79.9095744680851 8.34146341463415  79.9095744680851 8.34146341463415  C 79.9095744680851 8.34146341463415  79.9095744680851 10.9756097560976  79.9095744680851 10.9756097560976  C 79.9095744680851 10.9756097560976  82.5585106382979 13.609756097561  82.5585106382979 13.609756097561  C 82.5585106382979 13.609756097561  68.4308510638298 20.6341463414634  68.4308510638298 20.6341463414634  C 68.4308510638298 20.6341463414634  58.718085106383 30.2926829268293  58.718085106383 30.2926829268293  C 58.718085106383 30.2926829268293  56.9521276595745 33.8048780487805  56.9521276595745 33.8048780487805  C 56.9521276595745 33.8048780487805  49.8882978723404 35.5609756097561  49.8882978723404 35.5609756097561  C 49.8882978723404 35.5609756097561  39.2925531914894 32.0487804878049  39.2925531914894 32.0487804878049  C 39.2925531914894 32.0487804878049  16.3351063829787 30.2926829268293  16.3351063829787 30.2926829268293  C 16.3351063829787 30.2926829268293  11.0372340425532 25.9024390243902  11.0372340425532 25.9024390243902  C 11.0372340425532 25.9024390243902  4.8563829787234 16.2439024390244  4.8563829787234 16.2439024390244  C 4.8563829787234 16.2439024390244  3.97340425531915 10.0975609756098  3.97340425531915 10.0975609756098  C 3.97340425531915 10.0975609756098  0.441489361702128 5.70731707317073  0.441489361702128 5.70731707317073  C 0.441489361702128 5.70731707317073  14.5691489361702 0.439024390243902  14.5691489361702 0.439024390243902  C 14.5691489361702 0.439024390243902  24.281914893617 3.95121951219512  24.281914893617 3.95121951219512  C 24.281914893617 3.95121951219512  32.2287234042553 3.95121951219512  32.2287234042553 3.95121951219512  Z " fill-rule="nonzero" fill="#0fd0e6" stroke="none" transform="matrix(1 0 0 1 814 603 )" />
    <path d="M 32.2287234042553 3.95121951219512  C 32.2287234042553 3.95121951219512  37.5265957446809 3.07317073170732  37.5265957446809 3.07317073170732  C 37.5265957446809 3.07317073170732  64.8989361702128 3.07317073170732  64.8989361702128 3.07317073170732  C 64.8989361702128 3.07317073170732  72.8457446808511 4.82926829268293  72.8457446808511 4.82926829268293  C 72.8457446808511 4.82926829268293  79.9095744680851 8.34146341463415  79.9095744680851 8.34146341463415  C 79.9095744680851 8.34146341463415  79.9095744680851 10.9756097560976  79.9095744680851 10.9756097560976  C 79.9095744680851 10.9756097560976  82.5585106382979 13.609756097561  82.5585106382979 13.609756097561  C 82.5585106382979 13.609756097561  68.4308510638298 20.6341463414634  68.4308510638298 20.6341463414634  C 68.4308510638298 20.6341463414634  58.718085106383 30.2926829268293  58.718085106383 30.2926829268293  C 58.718085106383 30.2926829268293  56.9521276595745 33.8048780487805  56.9521276595745 33.8048780487805  C 56.9521276595745 33.8048780487805  49.8882978723404 35.5609756097561  49.8882978723404 35.5609756097561  C 49.8882978723404 35.5609756097561  39.2925531914894 32.0487804878049  39.2925531914894 32.0487804878049  C 39.2925531914894 32.0487804878049  16.3351063829787 30.2926829268293  16.3351063829787 30.2926829268293  C 16.3351063829787 30.2926829268293  11.0372340425532 25.9024390243902  11.0372340425532 25.9024390243902  C 11.0372340425532 25.9024390243902  4.8563829787234 16.2439024390244  4.8563829787234 16.2439024390244  C 4.8563829787234 16.2439024390244  3.97340425531915 10.0975609756098  3.97340425531915 10.0975609756098  C 3.97340425531915 10.0975609756098  0.441489361702128 5.70731707317073  0.441489361702128 5.70731707317073  C 0.441489361702128 5.70731707317073  14.5691489361702 0.439024390243902  14.5691489361702 0.439024390243902  C 14.5691489361702 0.439024390243902  24.281914893617 3.95121951219512  24.281914893617 3.95121951219512  C 24.281914893617 3.95121951219512  32.2287234042553 3.95121951219512  32.2287234042553 3.95121951219512  Z " stroke-width="2" stroke-dasharray="1,1" stroke="#999999" fill="none" transform="matrix(1 0 0 1 814 603 )" mask="url(#clip2084)" />
  </g>
</svg>