<?xml version="1.0" encoding="utf-8"?>
<svg version="1.1" xmlns:xlink="http://www.w3.org/1999/xlink" width="68px" height="75px" xmlns="http://www.w3.org/2000/svg">
  <defs>
    <mask fill="white" id="clip2085">
      <path d="M 48.1298701298701 2.20588235294118  C 48.1298701298701 2.20588235294118  48.1298701298701 7.5  48.1298701298701 7.5  C 48.1298701298701 7.5  45.4805194805195 16.3235294117647  45.4805194805195 16.3235294117647  C 45.4805194805195 16.3235294117647  56.961038961039 27.7941176470588  56.961038961039 27.7941176470588  C 56.961038961039 27.7941176470588  55.1948051948052 27.7941176470588  55.1948051948052 27.7941176470588  C 55.1948051948052 27.7941176470588  54.3116883116883 30.4411764705882  54.3116883116883 30.4411764705882  C 54.3116883116883 30.4411764705882  56.0779220779221 31.3235294117647  56.0779220779221 31.3235294117647  C 56.0779220779221 31.3235294117647  53.4285714285714 35.7352941176471  53.4285714285714 35.7352941176471  C 53.4285714285714 35.7352941176471  59.6103896103896 33.9705882352941  59.6103896103896 33.9705882352941  C 59.6103896103896 33.9705882352941  58.7272727272727 36.6176470588235  58.7272727272727 36.6176470588235  C 58.7272727272727 36.6176470588235  56.0779220779221 38.3823529411765  56.0779220779221 38.3823529411765  C 56.0779220779221 38.3823529411765  53.4285714285714 44.5588235294118  53.4285714285714 44.5588235294118  C 53.4285714285714 44.5588235294118  57.8441558441558 44.5588235294118  57.8441558441558 44.5588235294118  C 57.8441558441558 44.5588235294118  61.3766233766234 48.0882352941177  61.3766233766234 48.0882352941177  C 61.3766233766234 48.0882352941177  63.1428571428571 46.3235294117647  63.1428571428571 46.3235294117647  C 63.1428571428571 46.3235294117647  63.1428571428571 51.6176470588235  63.1428571428571 51.6176470588235  C 63.1428571428571 51.6176470588235  67.5584415584416 52.5  67.5584415584416 52.5  C 67.5584415584416 52.5  67.5584415584416 56.0294117647059  67.5584415584416 56.0294117647059  C 67.5584415584416 56.0294117647059  64.025974025974 59.5588235294118  64.025974025974 59.5588235294118  C 64.025974025974 59.5588235294118  64.025974025974 62.2058823529412  64.025974025974 62.2058823529412  C 64.025974025974 62.2058823529412  60.4935064935065 61.3235294117647  60.4935064935065 61.3235294117647  C 60.4935064935065 61.3235294117647  56.0779220779221 71.0294117647059  56.0779220779221 71.0294117647059  C 56.0779220779221 71.0294117647059  53.4285714285714 71.9117647058824  53.4285714285714 71.9117647058824  C 53.4285714285714 71.9117647058824  52.5454545454545 74.5588235294118  52.5454545454545 74.5588235294118  C 52.5454545454545 74.5588235294118  45.4805194805195 71.0294117647059  45.4805194805195 71.0294117647059  C 45.4805194805195 71.0294117647059  37.5324675324675 69.2647058823529  37.5324675324675 69.2647058823529  C 37.5324675324675 69.2647058823529  25.1688311688312 70.1470588235294  25.1688311688312 70.1470588235294  C 25.1688311688312 70.1470588235294  15.4545454545455 68.3823529411765  15.4545454545455 68.3823529411765  C 15.4545454545455 68.3823529411765  10.1558441558442 69.2647058823529  10.1558441558442 69.2647058823529  C 10.1558441558442 69.2647058823529  6.62337662337662 67.5  6.62337662337662 67.5  C 6.62337662337662 67.5  5.74025974025974 52.5  5.74025974025974 52.5  C 5.74025974025974 52.5  4.85714285714286 51.6176470588235  4.85714285714286 51.6176470588235  C 4.85714285714286 51.6176470588235  3.97402597402597 53.3823529411765  3.97402597402597 53.3823529411765  C 3.97402597402597 53.3823529411765  0.441558441558442 48.9705882352941  0.441558441558442 48.9705882352941  C 0.441558441558442 48.9705882352941  3.09090909090909 45.4411764705882  3.09090909090909 45.4411764705882  C 3.09090909090909 45.4411764705882  2.20779220779221 43.6764705882353  2.20779220779221 43.6764705882353  C 2.20779220779221 43.6764705882353  4.85714285714286 44.5588235294118  4.85714285714286 44.5588235294118  C 4.85714285714286 44.5588235294118  3.97402597402597 39.2647058823529  3.97402597402597 39.2647058823529  C 3.97402597402597 39.2647058823529  8.38961038961039 34.8529411764706  8.38961038961039 34.8529411764706  C 8.38961038961039 34.8529411764706  10.1558441558442 36.6176470588235  10.1558441558442 36.6176470588235  C 10.1558441558442 36.6176470588235  14.5714285714286 36.6176470588235  14.5714285714286 36.6176470588235  C 14.5714285714286 36.6176470588235  17.2207792207792 30.4411764705882  17.2207792207792 30.4411764705882  C 17.2207792207792 30.4411764705882  21.6363636363636 25.1470588235294  21.6363636363636 25.1470588235294  C 21.6363636363636 25.1470588235294  22.5194805194805 14.5588235294118  22.5194805194805 14.5588235294118  C 22.5194805194805 14.5588235294118  24.2857142857143 10.1470588235294  24.2857142857143 10.1470588235294  C 24.2857142857143 10.1470588235294  26.9350649350649 8.38235294117647  26.9350649350649 8.38235294117647  C 26.9350649350649 8.38235294117647  35.7662337662338 9.26470588235294  35.7662337662338 9.26470588235294  C 35.7662337662338 9.26470588235294  44.5974025974026 0.441176470588235  44.5974025974026 0.441176470588235  C 44.5974025974026 0.441176470588235  47.2467532467532 0.441176470588235  47.2467532467532 0.441176470588235  C 47.2467532467532 0.441176470588235  48.1298701298701 2.20588235294118  48.1298701298701 2.20588235294118  Z " fill-rule="evenodd" />
    </mask>
  </defs>
  <g transform="matrix(1 0 0 1 -841 -537 )">
    <path d="M 48.1298701298701 2.20588235294118  C 48.1298701298701 2.20588235294118  48.1298701298701 7.5  48.1298701298701 7.5  C 48.1298701298701 7.5  45.4805194805195 16.3235294117647  45.4805194805195 16.3235294117647  C 45.4805194805195 16.3235294117647  56.961038961039 27.7941176470588  56.961038961039 27.7941176470588  C 56.961038961039 27.7941176470588  55.1948051948052 27.7941176470588  55.1948051948052 27.7941176470588  C 55.1948051948052 27.7941176470588  54.3116883116883 30.4411764705882  54.3116883116883 30.4411764705882  C 54.3116883116883 30.4411764705882  56.0779220779221 31.3235294117647  56.0779220779221 31.3235294117647  C 56.0779220779221 31.3235294117647  53.4285714285714 35.7352941176471  53.4285714285714 35.7352941176471  C 53.4285714285714 35.7352941176471  59.6103896103896 33.9705882352941  59.6103896103896 33.9705882352941  C 59.6103896103896 33.9705882352941  58.7272727272727 36.6176470588235  58.7272727272727 36.6176470588235  C 58.7272727272727 36.6176470588235  56.0779220779221 38.3823529411765  56.0779220779221 38.3823529411765  C 56.0779220779221 38.3823529411765  53.4285714285714 44.5588235294118  53.4285714285714 44.5588235294118  C 53.4285714285714 44.5588235294118  57.8441558441558 44.5588235294118  57.8441558441558 44.5588235294118  C 57.8441558441558 44.5588235294118  61.3766233766234 48.0882352941177  61.3766233766234 48.0882352941177  C 61.3766233766234 48.0882352941177  63.1428571428571 46.3235294117647  63.1428571428571 46.3235294117647  C 63.1428571428571 46.3235294117647  63.1428571428571 51.6176470588235  63.1428571428571 51.6176470588235  C 63.1428571428571 51.6176470588235  67.5584415584416 52.5  67.5584415584416 52.5  C 67.5584415584416 52.5  67.5584415584416 56.0294117647059  67.5584415584416 56.0294117647059  C 67.5584415584416 56.0294117647059  64.025974025974 59.5588235294118  64.025974025974 59.5588235294118  C 64.025974025974 59.5588235294118  64.025974025974 62.2058823529412  64.025974025974 62.2058823529412  C 64.025974025974 62.2058823529412  60.4935064935065 61.3235294117647  60.4935064935065 61.3235294117647  C 60.4935064935065 61.3235294117647  56.0779220779221 71.0294117647059  56.0779220779221 71.0294117647059  C 56.0779220779221 71.0294117647059  53.4285714285714 71.9117647058824  53.4285714285714 71.9117647058824  C 53.4285714285714 71.9117647058824  52.5454545454545 74.5588235294118  52.5454545454545 74.5588235294118  C 52.5454545454545 74.5588235294118  45.4805194805195 71.0294117647059  45.4805194805195 71.0294117647059  C 45.4805194805195 71.0294117647059  37.5324675324675 69.2647058823529  37.5324675324675 69.2647058823529  C 37.5324675324675 69.2647058823529  25.1688311688312 70.1470588235294  25.1688311688312 70.1470588235294  C 25.1688311688312 70.1470588235294  15.4545454545455 68.3823529411765  15.4545454545455 68.3823529411765  C 15.4545454545455 68.3823529411765  10.1558441558442 69.2647058823529  10.1558441558442 69.2647058823529  C 10.1558441558442 69.2647058823529  6.62337662337662 67.5  6.62337662337662 67.5  C 6.62337662337662 67.5  5.74025974025974 52.5  5.74025974025974 52.5  C 5.74025974025974 52.5  4.85714285714286 51.6176470588235  4.85714285714286 51.6176470588235  C 4.85714285714286 51.6176470588235  3.97402597402597 53.3823529411765  3.97402597402597 53.3823529411765  C 3.97402597402597 53.3823529411765  0.441558441558442 48.9705882352941  0.441558441558442 48.9705882352941  C 0.441558441558442 48.9705882352941  3.09090909090909 45.4411764705882  3.09090909090909 45.4411764705882  C 3.09090909090909 45.4411764705882  2.20779220779221 43.6764705882353  2.20779220779221 43.6764705882353  C 2.20779220779221 43.6764705882353  4.85714285714286 44.5588235294118  4.85714285714286 44.5588235294118  C 4.85714285714286 44.5588235294118  3.97402597402597 39.2647058823529  3.97402597402597 39.2647058823529  C 3.97402597402597 39.2647058823529  8.38961038961039 34.8529411764706  8.38961038961039 34.8529411764706  C 8.38961038961039 34.8529411764706  10.1558441558442 36.6176470588235  10.1558441558442 36.6176470588235  C 10.1558441558442 36.6176470588235  14.5714285714286 36.6176470588235  14.5714285714286 36.6176470588235  C 14.5714285714286 36.6176470588235  17.2207792207792 30.4411764705882  17.2207792207792 30.4411764705882  C 17.2207792207792 30.4411764705882  21.6363636363636 25.1470588235294  21.6363636363636 25.1470588235294  C 21.6363636363636 25.1470588235294  22.5194805194805 14.5588235294118  22.5194805194805 14.5588235294118  C 22.5194805194805 14.5588235294118  24.2857142857143 10.1470588235294  24.2857142857143 10.1470588235294  C 24.2857142857143 10.1470588235294  26.9350649350649 8.38235294117647  26.9350649350649 8.38235294117647  C 26.9350649350649 8.38235294117647  35.7662337662338 9.26470588235294  35.7662337662338 9.26470588235294  C 35.7662337662338 9.26470588235294  44.5974025974026 0.441176470588235  44.5974025974026 0.441176470588235  C 44.5974025974026 0.441176470588235  47.2467532467532 0.441176470588235  47.2467532467532 0.441176470588235  C 47.2467532467532 0.441176470588235  48.1298701298701 2.20588235294118  48.1298701298701 2.20588235294118  Z " fill-rule="nonzero" fill="#0fd0e6" stroke="none" fill-opacity="0.0980392156862745" transform="matrix(1 0 0 1 841 537 )" />
    <path d="M 48.1298701298701 2.20588235294118  C 48.1298701298701 2.20588235294118  48.1298701298701 7.5  48.1298701298701 7.5  C 48.1298701298701 7.5  45.4805194805195 16.3235294117647  45.4805194805195 16.3235294117647  C 45.4805194805195 16.3235294117647  56.961038961039 27.7941176470588  56.961038961039 27.7941176470588  C 56.961038961039 27.7941176470588  55.1948051948052 27.7941176470588  55.1948051948052 27.7941176470588  C 55.1948051948052 27.7941176470588  54.3116883116883 30.4411764705882  54.3116883116883 30.4411764705882  C 54.3116883116883 30.4411764705882  56.0779220779221 31.3235294117647  56.0779220779221 31.3235294117647  C 56.0779220779221 31.3235294117647  53.4285714285714 35.7352941176471  53.4285714285714 35.7352941176471  C 53.4285714285714 35.7352941176471  59.6103896103896 33.9705882352941  59.6103896103896 33.9705882352941  C 59.6103896103896 33.9705882352941  58.7272727272727 36.6176470588235  58.7272727272727 36.6176470588235  C 58.7272727272727 36.6176470588235  56.0779220779221 38.3823529411765  56.0779220779221 38.3823529411765  C 56.0779220779221 38.3823529411765  53.4285714285714 44.5588235294118  53.4285714285714 44.5588235294118  C 53.4285714285714 44.5588235294118  57.8441558441558 44.5588235294118  57.8441558441558 44.5588235294118  C 57.8441558441558 44.5588235294118  61.3766233766234 48.0882352941177  61.3766233766234 48.0882352941177  C 61.3766233766234 48.0882352941177  63.1428571428571 46.3235294117647  63.1428571428571 46.3235294117647  C 63.1428571428571 46.3235294117647  63.1428571428571 51.6176470588235  63.1428571428571 51.6176470588235  C 63.1428571428571 51.6176470588235  67.5584415584416 52.5  67.5584415584416 52.5  C 67.5584415584416 52.5  67.5584415584416 56.0294117647059  67.5584415584416 56.0294117647059  C 67.5584415584416 56.0294117647059  64.025974025974 59.5588235294118  64.025974025974 59.5588235294118  C 64.025974025974 59.5588235294118  64.025974025974 62.2058823529412  64.025974025974 62.2058823529412  C 64.025974025974 62.2058823529412  60.4935064935065 61.3235294117647  60.4935064935065 61.3235294117647  C 60.4935064935065 61.3235294117647  56.0779220779221 71.0294117647059  56.0779220779221 71.0294117647059  C 56.0779220779221 71.0294117647059  53.4285714285714 71.9117647058824  53.4285714285714 71.9117647058824  C 53.4285714285714 71.9117647058824  52.5454545454545 74.5588235294118  52.5454545454545 74.5588235294118  C 52.5454545454545 74.5588235294118  45.4805194805195 71.0294117647059  45.4805194805195 71.0294117647059  C 45.4805194805195 71.0294117647059  37.5324675324675 69.2647058823529  37.5324675324675 69.2647058823529  C 37.5324675324675 69.2647058823529  25.1688311688312 70.1470588235294  25.1688311688312 70.1470588235294  C 25.1688311688312 70.1470588235294  15.4545454545455 68.3823529411765  15.4545454545455 68.3823529411765  C 15.4545454545455 68.3823529411765  10.1558441558442 69.2647058823529  10.1558441558442 69.2647058823529  C 10.1558441558442 69.2647058823529  6.62337662337662 67.5  6.62337662337662 67.5  C 6.62337662337662 67.5  5.74025974025974 52.5  5.74025974025974 52.5  C 5.74025974025974 52.5  4.85714285714286 51.6176470588235  4.85714285714286 51.6176470588235  C 4.85714285714286 51.6176470588235  3.97402597402597 53.3823529411765  3.97402597402597 53.3823529411765  C 3.97402597402597 53.3823529411765  0.441558441558442 48.9705882352941  0.441558441558442 48.9705882352941  C 0.441558441558442 48.9705882352941  3.09090909090909 45.4411764705882  3.09090909090909 45.4411764705882  C 3.09090909090909 45.4411764705882  2.20779220779221 43.6764705882353  2.20779220779221 43.6764705882353  C 2.20779220779221 43.6764705882353  4.85714285714286 44.5588235294118  4.85714285714286 44.5588235294118  C 4.85714285714286 44.5588235294118  3.97402597402597 39.2647058823529  3.97402597402597 39.2647058823529  C 3.97402597402597 39.2647058823529  8.38961038961039 34.8529411764706  8.38961038961039 34.8529411764706  C 8.38961038961039 34.8529411764706  10.1558441558442 36.6176470588235  10.1558441558442 36.6176470588235  C 10.1558441558442 36.6176470588235  14.5714285714286 36.6176470588235  14.5714285714286 36.6176470588235  C 14.5714285714286 36.6176470588235  17.2207792207792 30.4411764705882  17.2207792207792 30.4411764705882  C 17.2207792207792 30.4411764705882  21.6363636363636 25.1470588235294  21.6363636363636 25.1470588235294  C 21.6363636363636 25.1470588235294  22.5194805194805 14.5588235294118  22.5194805194805 14.5588235294118  C 22.5194805194805 14.5588235294118  24.2857142857143 10.1470588235294  24.2857142857143 10.1470588235294  C 24.2857142857143 10.1470588235294  26.9350649350649 8.38235294117647  26.9350649350649 8.38235294117647  C 26.9350649350649 8.38235294117647  35.7662337662338 9.26470588235294  35.7662337662338 9.26470588235294  C 35.7662337662338 9.26470588235294  44.5974025974026 0.441176470588235  44.5974025974026 0.441176470588235  C 44.5974025974026 0.441176470588235  47.2467532467532 0.441176470588235  47.2467532467532 0.441176470588235  C 47.2467532467532 0.441176470588235  48.1298701298701 2.20588235294118  48.1298701298701 2.20588235294118  Z " stroke-width="2" stroke-dasharray="1,1" stroke="#999999" fill="none" transform="matrix(1 0 0 1 841 537 )" mask="url(#clip2085)" />
  </g>
</svg>