<?xml version="1.0" encoding="utf-8"?>
<svg version="1.1" xmlns:xlink="http://www.w3.org/1999/xlink" width="165px" height="145px" xmlns="http://www.w3.org/2000/svg">
  <defs>
    <mask fill="white" id="clip2088">
      <path d="M 0.441176470588235 68.5213414634146  C 0.441176470588235 68.5213414634146  0.441176470588235 64.1006097560976  0.441176470588235 64.1006097560976  C 0.441176470588235 64.1006097560976  3.08823529411765 64.1006097560976  3.08823529411765 64.1006097560976  C 3.08823529411765 64.1006097560976  2.20588235294118 57.9115853658537  2.20588235294118 57.9115853658537  C 2.20588235294118 57.9115853658537  3.97058823529412 53.4908536585366  3.97058823529412 53.4908536585366  C 3.97058823529412 53.4908536585366  1.32352941176471 47.3018292682927  1.32352941176471 47.3018292682927  C 1.32352941176471 47.3018292682927  7.5 34.9237804878049  7.5 34.9237804878049  C 7.5 34.9237804878049  10.1470588235294 34.0396341463415  10.1470588235294 34.0396341463415  C 10.1470588235294 34.0396341463415  13.6764705882353 34.9237804878049  13.6764705882353 34.9237804878049  C 13.6764705882353 34.9237804878049  14.5588235294118 36.6920731707317  14.5588235294118 36.6920731707317  C 14.5588235294118 36.6920731707317  19.8529411764706 34.0396341463415  19.8529411764706 34.0396341463415  C 19.8529411764706 34.0396341463415  28.6764705882353 35.8079268292683  28.6764705882353 35.8079268292683  C 28.6764705882353 35.8079268292683  29.5588235294118 45.5335365853659  29.5588235294118 45.5335365853659  C 29.5588235294118 45.5335365853659  32.2058823529412 48.1859756097561  32.2058823529412 48.1859756097561  C 32.2058823529412 48.1859756097561  40.1470588235294 48.1859756097561  40.1470588235294 48.1859756097561  C 40.1470588235294 48.1859756097561  41.0294117647059 43.765243902439  41.0294117647059 43.765243902439  C 41.0294117647059 43.765243902439  50.7352941176471 41.9969512195122  50.7352941176471 41.9969512195122  C 50.7352941176471 41.9969512195122  50.7352941176471 39.344512195122  50.7352941176471 39.344512195122  C 50.7352941176471 39.344512195122  48.9705882352941 37.5762195121951  48.9705882352941 37.5762195121951  C 48.9705882352941 37.5762195121951  50.7352941176471 32.2713414634146  50.7352941176471 32.2713414634146  C 50.7352941176471 32.2713414634146  50.7352941176471 34.9237804878049  50.7352941176471 34.9237804878049  C 50.7352941176471 34.9237804878049  53.3823529411765 35.8079268292683  53.3823529411765 35.8079268292683  C 53.3823529411765 35.8079268292683  56.0294117647059 34.0396341463415  56.0294117647059 34.0396341463415  C 56.0294117647059 34.0396341463415  56.0294117647059 31.3871951219512  56.0294117647059 31.3871951219512  C 56.0294117647059 31.3871951219512  61.3235294117647 29.6189024390244  61.3235294117647 29.6189024390244  C 61.3235294117647 29.6189024390244  63.0882352941176 27.8506097560976  63.0882352941176 27.8506097560976  C 63.0882352941176 27.8506097560976  62.2058823529412 26.0823170731707  62.2058823529412 26.0823170731707  C 62.2058823529412 26.0823170731707  66.6176470588235 21.6615853658537  66.6176470588235 21.6615853658537  C 66.6176470588235 21.6615853658537  69.2647058823529 23.4298780487805  69.2647058823529 23.4298780487805  C 69.2647058823529 23.4298780487805  72.7941176470588 17.2408536585366  72.7941176470588 17.2408536585366  C 72.7941176470588 17.2408536585366  76.3235294117647 17.2408536585366  76.3235294117647 17.2408536585366  C 76.3235294117647 17.2408536585366  77.2058823529412 19.0091463414634  77.2058823529412 19.0091463414634  C 77.2058823529412 19.0091463414634  81.6176470588235 19.0091463414634  81.6176470588235 19.0091463414634  C 81.6176470588235 19.0091463414634  85.1470588235294 20.7774390243902  85.1470588235294 20.7774390243902  C 85.1470588235294 20.7774390243902  89.5588235294118 13.7042682926829  89.5588235294118 13.7042682926829  C 89.5588235294118 13.7042682926829  94.8529411764706 12.8201219512195  94.8529411764706 12.8201219512195  C 94.8529411764706 12.8201219512195  97.5 7.51524390243902  97.5 7.51524390243902  C 97.5 7.51524390243902  102.794117647059 7.51524390243902  102.794117647059 7.51524390243902  C 102.794117647059 7.51524390243902  106.323529411765 3.97865853658537  106.323529411765 3.97865853658537  C 106.323529411765 3.97865853658537  108.970588235294 5.7469512195122  108.970588235294 5.7469512195122  C 108.970588235294 5.7469512195122  108.970588235294 7.51524390243902  108.970588235294 7.51524390243902  C 108.970588235294 7.51524390243902  112.5 7.51524390243902  112.5 7.51524390243902  C 112.5 7.51524390243902  113.382352941176 18.125  113.382352941176 18.125  C 113.382352941176 18.125  115.147058823529 19.0091463414634  115.147058823529 19.0091463414634  C 115.147058823529 19.0091463414634  123.088235294118 12.8201219512195  123.088235294118 12.8201219512195  C 123.088235294118 12.8201219512195  126.617647058824 14.5884146341463  126.617647058824 14.5884146341463  C 126.617647058824 14.5884146341463  130.147058823529 11.0518292682927  130.147058823529 11.0518292682927  C 130.147058823529 11.0518292682927  132.794117647059 11.9359756097561  132.794117647059 11.9359756097561  C 132.794117647059 11.9359756097561  135.441176470588 8.39939024390244  135.441176470588 8.39939024390244  C 135.441176470588 8.39939024390244  135.441176470588 4.86280487804878  135.441176470588 4.86280487804878  C 135.441176470588 4.86280487804878  140.735294117647 4.86280487804878  140.735294117647 4.86280487804878  C 140.735294117647 4.86280487804878  147.794117647059 0.442073170731707  147.794117647059 0.442073170731707  C 147.794117647059 0.442073170731707  156.617647058824 3.97865853658537  156.617647058824 3.97865853658537  C 156.617647058824 3.97865853658537  159.264705882353 8.39939024390244  159.264705882353 8.39939024390244  C 159.264705882353 8.39939024390244  156.617647058824 8.39939024390244  156.617647058824 8.39939024390244  C 156.617647058824 8.39939024390244  150.441176470588 14.5884146341463  150.441176470588 14.5884146341463  C 150.441176470588 14.5884146341463  146.911764705882 12.8201219512195  146.911764705882 12.8201219512195  C 146.911764705882 12.8201219512195  145.147058823529 13.7042682926829  145.147058823529 13.7042682926829  C 145.147058823529 13.7042682926829  146.029411764706 18.125  146.029411764706 18.125  C 146.029411764706 18.125  142.5 18.125  142.5 18.125  C 142.5 18.125  141.617647058824 20.7774390243902  141.617647058824 20.7774390243902  C 141.617647058824 20.7774390243902  146.029411764706 19.8932926829268  146.029411764706 19.8932926829268  C 146.029411764706 19.8932926829268  146.029411764706 31.3871951219512  146.029411764706 31.3871951219512  C 146.029411764706 31.3871951219512  149.558823529412 36.6920731707317  149.558823529412 36.6920731707317  C 149.558823529412 36.6920731707317  148.676470588235 38.4603658536585  148.676470588235 38.4603658536585  C 148.676470588235 38.4603658536585  146.029411764706 38.4603658536585  146.029411764706 38.4603658536585  C 146.029411764706 38.4603658536585  146.029411764706 42.8810975609756  146.029411764706 42.8810975609756  C 146.029411764706 42.8810975609756  143.382352941176 45.5335365853659  143.382352941176 45.5335365853659  C 143.382352941176 45.5335365853659  146.911764705882 45.5335365853659  146.911764705882 45.5335365853659  C 146.911764705882 45.5335365853659  146.911764705882 49.9542682926829  146.911764705882 49.9542682926829  C 146.911764705882 49.9542682926829  148.676470588235 51.7225609756098  148.676470588235 51.7225609756098  C 148.676470588235 51.7225609756098  153.088235294118 50.8384146341463  153.088235294118 50.8384146341463  C 153.088235294118 50.8384146341463  155.735294117647 53.4908536585366  155.735294117647 53.4908536585366  C 155.735294117647 53.4908536585366  157.5 52.6067073170732  157.5 52.6067073170732  C 157.5 52.6067073170732  161.911764705882 54.375  161.911764705882 54.375  C 161.911764705882 54.375  163.676470588235 57.0274390243902  163.676470588235 57.0274390243902  C 163.676470588235 57.0274390243902  164.558823529412 62.3323170731707  164.558823529412 62.3323170731707  C 164.558823529412 62.3323170731707  160.147058823529 65.8689024390244  160.147058823529 65.8689024390244  C 160.147058823529 65.8689024390244  158.382352941176 70.2896341463415  158.382352941176 70.2896341463415  C 158.382352941176 70.2896341463415  162.794117647059 74.7103658536585  162.794117647059 74.7103658536585  C 162.794117647059 74.7103658536585  161.911764705882 79.1310975609756  161.911764705882 79.1310975609756  C 161.911764705882 79.1310975609756  162.794117647059 76.4786585365854  162.794117647059 76.4786585365854  C 162.794117647059 76.4786585365854  164.558823529412 77.3628048780488  164.558823529412 77.3628048780488  C 164.558823529412 77.3628048780488  162.794117647059 80.8993902439024  162.794117647059 80.8993902439024  C 162.794117647059 80.8993902439024  158.382352941176 83.5518292682927  158.382352941176 83.5518292682927  C 158.382352941176 83.5518292682927  155.735294117647 87.9725609756098  155.735294117647 87.9725609756098  C 155.735294117647 87.9725609756098  151.323529411765 87.9725609756098  151.323529411765 87.9725609756098  C 151.323529411765 87.9725609756098  150.441176470588 91.5091463414634  150.441176470588 91.5091463414634  C 150.441176470588 91.5091463414634  146.029411764706 91.5091463414634  146.029411764706 91.5091463414634  C 146.029411764706 91.5091463414634  146.911764705882 94.1615853658537  146.911764705882 94.1615853658537  C 146.911764705882 94.1615853658537  146.029411764706 92.3932926829268  146.029411764706 92.3932926829268  C 146.029411764706 92.3932926829268  144.264705882353 93.2774390243902  144.264705882353 93.2774390243902  C 144.264705882353 93.2774390243902  141.617647058824 91.5091463414634  141.617647058824 91.5091463414634  C 141.617647058824 91.5091463414634  133.676470588235 92.3932926829268  133.676470588235 92.3932926829268  C 133.676470588235 92.3932926829268  132.794117647059 91.5091463414634  132.794117647059 91.5091463414634  C 132.794117647059 91.5091463414634  136.323529411765 90.625  136.323529411765 90.625  C 136.323529411765 90.625  133.676470588235 89.7408536585366  133.676470588235 89.7408536585366  C 133.676470588235 89.7408536585366  136.323529411765 88.8567073170732  136.323529411765 88.8567073170732  C 136.323529411765 88.8567073170732  137.205882352941 85.3201219512195  137.205882352941 85.3201219512195  C 137.205882352941 85.3201219512195  135.441176470588 81.7835365853659  135.441176470588 81.7835365853659  C 135.441176470588 81.7835365853659  128.382352941176 80.8993902439024  128.382352941176 80.8993902439024  C 128.382352941176 80.8993902439024  127.5 81.7835365853659  127.5 81.7835365853659  C 127.5 81.7835365853659  130.147058823529 87.9725609756098  130.147058823529 87.9725609756098  C 130.147058823529 87.9725609756098  129.264705882353 89.7408536585366  129.264705882353 89.7408536585366  C 129.264705882353 89.7408536585366  127.5 88.8567073170732  127.5 88.8567073170732  C 127.5 88.8567073170732  125.735294117647 90.625  125.735294117647 90.625  C 125.735294117647 90.625  128.382352941176 91.5091463414634  128.382352941176 91.5091463414634  C 128.382352941176 91.5091463414634  127.5 95.0457317073171  127.5 95.0457317073171  C 127.5 95.0457317073171  126.617647058824 93.2774390243902  126.617647058824 93.2774390243902  C 126.617647058824 93.2774390243902  123.088235294118 92.3932926829268  123.088235294118 92.3932926829268  C 123.088235294118 92.3932926829268  122.205882352941 89.7408536585366  122.205882352941 89.7408536585366  C 122.205882352941 89.7408536585366  118.676470588235 91.5091463414634  118.676470588235 91.5091463414634  C 118.676470588235 91.5091463414634  119.558823529412 95.9298780487805  119.558823529412 95.9298780487805  C 119.558823529412 95.9298780487805  116.911764705882 98.5823170731707  116.911764705882 98.5823170731707  C 116.911764705882 98.5823170731707  116.911764705882 93.2774390243902  116.911764705882 93.2774390243902  C 116.911764705882 93.2774390243902  116.029411764706 91.5091463414634  116.029411764706 91.5091463414634  C 116.029411764706 91.5091463414634  113.382352941176 91.5091463414634  113.382352941176 91.5091463414634  C 113.382352941176 91.5091463414634  104.558823529412 100.350609756098  104.558823529412 100.350609756098  C 104.558823529412 100.350609756098  96.6176470588235 99.4664634146341  96.6176470588235 99.4664634146341  C 96.6176470588235 99.4664634146341  93.9705882352941 101.234756097561  93.9705882352941 101.234756097561  C 93.9705882352941 101.234756097561  92.2058823529412 105.655487804878  92.2058823529412 105.655487804878  C 92.2058823529412 105.655487804878  91.3235294117647 116.265243902439  91.3235294117647 116.265243902439  C 91.3235294117647 116.265243902439  86.9117647058823 121.57012195122  86.9117647058823 121.57012195122  C 86.9117647058823 121.57012195122  86.0294117647059 125.106707317073  86.0294117647059 125.106707317073  C 86.0294117647059 125.106707317073  84.2647058823529 127.759146341463  84.2647058823529 127.759146341463  C 84.2647058823529 127.759146341463  78.9705882352941 127.759146341463  78.9705882352941 127.759146341463  C 78.9705882352941 127.759146341463  77.2058823529412 125.990853658537  77.2058823529412 125.990853658537  C 77.2058823529412 125.990853658537  75.4411764705882 126.875  75.4411764705882 126.875  C 75.4411764705882 126.875  72.7941176470588 129.52743902439  72.7941176470588 129.52743902439  C 72.7941176470588 129.52743902439  73.6764705882353 134.832317073171  73.6764705882353 134.832317073171  C 73.6764705882353 134.832317073171  71.0294117647059 133.948170731707  71.0294117647059 133.948170731707  C 71.0294117647059 133.948170731707  68.3823529411765 135.716463414634  68.3823529411765 135.716463414634  C 68.3823529411765 135.716463414634  67.5 133.948170731707  67.5 133.948170731707  C 67.5 133.948170731707  65.7352941176471 136.600609756098  65.7352941176471 136.600609756098  C 65.7352941176471 136.600609756098  59.5588235294118 135.716463414634  59.5588235294118 135.716463414634  C 59.5588235294118 135.716463414634  59.5588235294118 137.484756097561  59.5588235294118 137.484756097561  C 59.5588235294118 137.484756097561  56.0294117647059 137.484756097561  56.0294117647059 137.484756097561  C 56.0294117647059 137.484756097561  54.2647058823529 140.137195121951  54.2647058823529 140.137195121951  C 54.2647058823529 140.137195121951  48.0882352941176 138.368902439024  48.0882352941176 138.368902439024  C 48.0882352941176 138.368902439024  49.8529411764706 134.832317073171  49.8529411764706 134.832317073171  C 49.8529411764706 134.832317073171  47.2058823529412 133.064024390244  47.2058823529412 133.064024390244  C 47.2058823529412 133.064024390244  47.2058823529412 131.295731707317  47.2058823529412 131.295731707317  C 47.2058823529412 131.295731707317  41.0294117647059 129.52743902439  41.0294117647059 129.52743902439  C 41.0294117647059 129.52743902439  41.0294117647059 133.064024390244  41.0294117647059 133.064024390244  C 41.0294117647059 133.064024390244  42.7941176470588 133.948170731707  42.7941176470588 133.948170731707  C 42.7941176470588 133.948170731707  40.1470588235294 135.716463414634  40.1470588235294 135.716463414634  C 40.1470588235294 135.716463414634  40.1470588235294 139.253048780488  40.1470588235294 139.253048780488  C 40.1470588235294 139.253048780488  35.7352941176471 144.557926829268  35.7352941176471 144.557926829268  C 35.7352941176471 144.557926829268  30.4411764705882 139.253048780488  30.4411764705882 139.253048780488  C 30.4411764705882 139.253048780488  28.6764705882353 143.673780487805  28.6764705882353 143.673780487805  C 28.6764705882353 143.673780487805  24.2647058823529 141.905487804878  24.2647058823529 141.905487804878  C 24.2647058823529 141.905487804878  18.9705882352941 141.905487804878  18.9705882352941 141.905487804878  C 18.9705882352941 141.905487804878  17.2058823529412 140.137195121951  17.2058823529412 140.137195121951  C 17.2058823529412 140.137195121951  17.2058823529412 134.832317073171  17.2058823529412 134.832317073171  C 17.2058823529412 134.832317073171  21.6176470588235 129.52743902439  21.6176470588235 129.52743902439  C 21.6176470588235 129.52743902439  26.0294117647059 127.759146341463  26.0294117647059 127.759146341463  C 26.0294117647059 127.759146341463  26.9117647058824 118.033536585366  26.9117647058824 118.033536585366  C 26.9117647058824 118.033536585366  25.1470588235294 113.612804878049  25.1470588235294 113.612804878049  C 25.1470588235294 113.612804878049  19.8529411764706 109.192073170732  19.8529411764706 109.192073170732  C 19.8529411764706 109.192073170732  18.9705882352941 106.539634146341  18.9705882352941 106.539634146341  C 18.9705882352941 106.539634146341  15.4411764705882 106.539634146341  15.4411764705882 106.539634146341  C 15.4411764705882 106.539634146341  12.7941176470588 103.887195121951  12.7941176470588 103.887195121951  C 12.7941176470588 103.887195121951  11.9117647058824 95.9298780487805  11.9117647058824 95.9298780487805  C 11.9117647058824 95.9298780487805  13.6764705882353 95.9298780487805  13.6764705882353 95.9298780487805  C 13.6764705882353 95.9298780487805  14.5588235294118 91.5091463414634  14.5588235294118 91.5091463414634  C 14.5588235294118 91.5091463414634  12.7941176470588 79.1310975609756  12.7941176470588 79.1310975609756  C 12.7941176470588 79.1310975609756  11.0294117647059 76.4786585365854  11.0294117647059 76.4786585365854  C 11.0294117647059 76.4786585365854  6.61764705882353 74.7103658536585  6.61764705882353 74.7103658536585  C 6.61764705882353 74.7103658536585  4.85294117647059 70.2896341463415  4.85294117647059 70.2896341463415  C 4.85294117647059 70.2896341463415  2.20588235294118 70.2896341463415  2.20588235294118 70.2896341463415  C 2.20588235294118 70.2896341463415  0.441176470588235 68.5213414634146  0.441176470588235 68.5213414634146  Z " fill-rule="evenodd" />
    </mask>
  </defs>
  <g transform="matrix(1 0 0 1 -772 -447 )">
    <path d="M 0.441176470588235 68.5213414634146  C 0.441176470588235 68.5213414634146  0.441176470588235 64.1006097560976  0.441176470588235 64.1006097560976  C 0.441176470588235 64.1006097560976  3.08823529411765 64.1006097560976  3.08823529411765 64.1006097560976  C 3.08823529411765 64.1006097560976  2.20588235294118 57.9115853658537  2.20588235294118 57.9115853658537  C 2.20588235294118 57.9115853658537  3.97058823529412 53.4908536585366  3.97058823529412 53.4908536585366  C 3.97058823529412 53.4908536585366  1.32352941176471 47.3018292682927  1.32352941176471 47.3018292682927  C 1.32352941176471 47.3018292682927  7.5 34.9237804878049  7.5 34.9237804878049  C 7.5 34.9237804878049  10.1470588235294 34.0396341463415  10.1470588235294 34.0396341463415  C 10.1470588235294 34.0396341463415  13.6764705882353 34.9237804878049  13.6764705882353 34.9237804878049  C 13.6764705882353 34.9237804878049  14.5588235294118 36.6920731707317  14.5588235294118 36.6920731707317  C 14.5588235294118 36.6920731707317  19.8529411764706 34.0396341463415  19.8529411764706 34.0396341463415  C 19.8529411764706 34.0396341463415  28.6764705882353 35.8079268292683  28.6764705882353 35.8079268292683  C 28.6764705882353 35.8079268292683  29.5588235294118 45.5335365853659  29.5588235294118 45.5335365853659  C 29.5588235294118 45.5335365853659  32.2058823529412 48.1859756097561  32.2058823529412 48.1859756097561  C 32.2058823529412 48.1859756097561  40.1470588235294 48.1859756097561  40.1470588235294 48.1859756097561  C 40.1470588235294 48.1859756097561  41.0294117647059 43.765243902439  41.0294117647059 43.765243902439  C 41.0294117647059 43.765243902439  50.7352941176471 41.9969512195122  50.7352941176471 41.9969512195122  C 50.7352941176471 41.9969512195122  50.7352941176471 39.344512195122  50.7352941176471 39.344512195122  C 50.7352941176471 39.344512195122  48.9705882352941 37.5762195121951  48.9705882352941 37.5762195121951  C 48.9705882352941 37.5762195121951  50.7352941176471 32.2713414634146  50.7352941176471 32.2713414634146  C 50.7352941176471 32.2713414634146  50.7352941176471 34.9237804878049  50.7352941176471 34.9237804878049  C 50.7352941176471 34.9237804878049  53.3823529411765 35.8079268292683  53.3823529411765 35.8079268292683  C 53.3823529411765 35.8079268292683  56.0294117647059 34.0396341463415  56.0294117647059 34.0396341463415  C 56.0294117647059 34.0396341463415  56.0294117647059 31.3871951219512  56.0294117647059 31.3871951219512  C 56.0294117647059 31.3871951219512  61.3235294117647 29.6189024390244  61.3235294117647 29.6189024390244  C 61.3235294117647 29.6189024390244  63.0882352941176 27.8506097560976  63.0882352941176 27.8506097560976  C 63.0882352941176 27.8506097560976  62.2058823529412 26.0823170731707  62.2058823529412 26.0823170731707  C 62.2058823529412 26.0823170731707  66.6176470588235 21.6615853658537  66.6176470588235 21.6615853658537  C 66.6176470588235 21.6615853658537  69.2647058823529 23.4298780487805  69.2647058823529 23.4298780487805  C 69.2647058823529 23.4298780487805  72.7941176470588 17.2408536585366  72.7941176470588 17.2408536585366  C 72.7941176470588 17.2408536585366  76.3235294117647 17.2408536585366  76.3235294117647 17.2408536585366  C 76.3235294117647 17.2408536585366  77.2058823529412 19.0091463414634  77.2058823529412 19.0091463414634  C 77.2058823529412 19.0091463414634  81.6176470588235 19.0091463414634  81.6176470588235 19.0091463414634  C 81.6176470588235 19.0091463414634  85.1470588235294 20.7774390243902  85.1470588235294 20.7774390243902  C 85.1470588235294 20.7774390243902  89.5588235294118 13.7042682926829  89.5588235294118 13.7042682926829  C 89.5588235294118 13.7042682926829  94.8529411764706 12.8201219512195  94.8529411764706 12.8201219512195  C 94.8529411764706 12.8201219512195  97.5 7.51524390243902  97.5 7.51524390243902  C 97.5 7.51524390243902  102.794117647059 7.51524390243902  102.794117647059 7.51524390243902  C 102.794117647059 7.51524390243902  106.323529411765 3.97865853658537  106.323529411765 3.97865853658537  C 106.323529411765 3.97865853658537  108.970588235294 5.7469512195122  108.970588235294 5.7469512195122  C 108.970588235294 5.7469512195122  108.970588235294 7.51524390243902  108.970588235294 7.51524390243902  C 108.970588235294 7.51524390243902  112.5 7.51524390243902  112.5 7.51524390243902  C 112.5 7.51524390243902  113.382352941176 18.125  113.382352941176 18.125  C 113.382352941176 18.125  115.147058823529 19.0091463414634  115.147058823529 19.0091463414634  C 115.147058823529 19.0091463414634  123.088235294118 12.8201219512195  123.088235294118 12.8201219512195  C 123.088235294118 12.8201219512195  126.617647058824 14.5884146341463  126.617647058824 14.5884146341463  C 126.617647058824 14.5884146341463  130.147058823529 11.0518292682927  130.147058823529 11.0518292682927  C 130.147058823529 11.0518292682927  132.794117647059 11.9359756097561  132.794117647059 11.9359756097561  C 132.794117647059 11.9359756097561  135.441176470588 8.39939024390244  135.441176470588 8.39939024390244  C 135.441176470588 8.39939024390244  135.441176470588 4.86280487804878  135.441176470588 4.86280487804878  C 135.441176470588 4.86280487804878  140.735294117647 4.86280487804878  140.735294117647 4.86280487804878  C 140.735294117647 4.86280487804878  147.794117647059 0.442073170731707  147.794117647059 0.442073170731707  C 147.794117647059 0.442073170731707  156.617647058824 3.97865853658537  156.617647058824 3.97865853658537  C 156.617647058824 3.97865853658537  159.264705882353 8.39939024390244  159.264705882353 8.39939024390244  C 159.264705882353 8.39939024390244  156.617647058824 8.39939024390244  156.617647058824 8.39939024390244  C 156.617647058824 8.39939024390244  150.441176470588 14.5884146341463  150.441176470588 14.5884146341463  C 150.441176470588 14.5884146341463  146.911764705882 12.8201219512195  146.911764705882 12.8201219512195  C 146.911764705882 12.8201219512195  145.147058823529 13.7042682926829  145.147058823529 13.7042682926829  C 145.147058823529 13.7042682926829  146.029411764706 18.125  146.029411764706 18.125  C 146.029411764706 18.125  142.5 18.125  142.5 18.125  C 142.5 18.125  141.617647058824 20.7774390243902  141.617647058824 20.7774390243902  C 141.617647058824 20.7774390243902  146.029411764706 19.8932926829268  146.029411764706 19.8932926829268  C 146.029411764706 19.8932926829268  146.029411764706 31.3871951219512  146.029411764706 31.3871951219512  C 146.029411764706 31.3871951219512  149.558823529412 36.6920731707317  149.558823529412 36.6920731707317  C 149.558823529412 36.6920731707317  148.676470588235 38.4603658536585  148.676470588235 38.4603658536585  C 148.676470588235 38.4603658536585  146.029411764706 38.4603658536585  146.029411764706 38.4603658536585  C 146.029411764706 38.4603658536585  146.029411764706 42.8810975609756  146.029411764706 42.8810975609756  C 146.029411764706 42.8810975609756  143.382352941176 45.5335365853659  143.382352941176 45.5335365853659  C 143.382352941176 45.5335365853659  146.911764705882 45.5335365853659  146.911764705882 45.5335365853659  C 146.911764705882 45.5335365853659  146.911764705882 49.9542682926829  146.911764705882 49.9542682926829  C 146.911764705882 49.9542682926829  148.676470588235 51.7225609756098  148.676470588235 51.7225609756098  C 148.676470588235 51.7225609756098  153.088235294118 50.8384146341463  153.088235294118 50.8384146341463  C 153.088235294118 50.8384146341463  155.735294117647 53.4908536585366  155.735294117647 53.4908536585366  C 155.735294117647 53.4908536585366  157.5 52.6067073170732  157.5 52.6067073170732  C 157.5 52.6067073170732  161.911764705882 54.375  161.911764705882 54.375  C 161.911764705882 54.375  163.676470588235 57.0274390243902  163.676470588235 57.0274390243902  C 163.676470588235 57.0274390243902  164.558823529412 62.3323170731707  164.558823529412 62.3323170731707  C 164.558823529412 62.3323170731707  160.147058823529 65.8689024390244  160.147058823529 65.8689024390244  C 160.147058823529 65.8689024390244  158.382352941176 70.2896341463415  158.382352941176 70.2896341463415  C 158.382352941176 70.2896341463415  162.794117647059 74.7103658536585  162.794117647059 74.7103658536585  C 162.794117647059 74.7103658536585  161.911764705882 79.1310975609756  161.911764705882 79.1310975609756  C 161.911764705882 79.1310975609756  162.794117647059 76.4786585365854  162.794117647059 76.4786585365854  C 162.794117647059 76.4786585365854  164.558823529412 77.3628048780488  164.558823529412 77.3628048780488  C 164.558823529412 77.3628048780488  162.794117647059 80.8993902439024  162.794117647059 80.8993902439024  C 162.794117647059 80.8993902439024  158.382352941176 83.5518292682927  158.382352941176 83.5518292682927  C 158.382352941176 83.5518292682927  155.735294117647 87.9725609756098  155.735294117647 87.9725609756098  C 155.735294117647 87.9725609756098  151.323529411765 87.9725609756098  151.323529411765 87.9725609756098  C 151.323529411765 87.9725609756098  150.441176470588 91.5091463414634  150.441176470588 91.5091463414634  C 150.441176470588 91.5091463414634  146.029411764706 91.5091463414634  146.029411764706 91.5091463414634  C 146.029411764706 91.5091463414634  146.911764705882 94.1615853658537  146.911764705882 94.1615853658537  C 146.911764705882 94.1615853658537  146.029411764706 92.3932926829268  146.029411764706 92.3932926829268  C 146.029411764706 92.3932926829268  144.264705882353 93.2774390243902  144.264705882353 93.2774390243902  C 144.264705882353 93.2774390243902  141.617647058824 91.5091463414634  141.617647058824 91.5091463414634  C 141.617647058824 91.5091463414634  133.676470588235 92.3932926829268  133.676470588235 92.3932926829268  C 133.676470588235 92.3932926829268  132.794117647059 91.5091463414634  132.794117647059 91.5091463414634  C 132.794117647059 91.5091463414634  136.323529411765 90.625  136.323529411765 90.625  C 136.323529411765 90.625  133.676470588235 89.7408536585366  133.676470588235 89.7408536585366  C 133.676470588235 89.7408536585366  136.323529411765 88.8567073170732  136.323529411765 88.8567073170732  C 136.323529411765 88.8567073170732  137.205882352941 85.3201219512195  137.205882352941 85.3201219512195  C 137.205882352941 85.3201219512195  135.441176470588 81.7835365853659  135.441176470588 81.7835365853659  C 135.441176470588 81.7835365853659  128.382352941176 80.8993902439024  128.382352941176 80.8993902439024  C 128.382352941176 80.8993902439024  127.5 81.7835365853659  127.5 81.7835365853659  C 127.5 81.7835365853659  130.147058823529 87.9725609756098  130.147058823529 87.9725609756098  C 130.147058823529 87.9725609756098  129.264705882353 89.7408536585366  129.264705882353 89.7408536585366  C 129.264705882353 89.7408536585366  127.5 88.8567073170732  127.5 88.8567073170732  C 127.5 88.8567073170732  125.735294117647 90.625  125.735294117647 90.625  C 125.735294117647 90.625  128.382352941176 91.5091463414634  128.382352941176 91.5091463414634  C 128.382352941176 91.5091463414634  127.5 95.0457317073171  127.5 95.0457317073171  C 127.5 95.0457317073171  126.617647058824 93.2774390243902  126.617647058824 93.2774390243902  C 126.617647058824 93.2774390243902  123.088235294118 92.3932926829268  123.088235294118 92.3932926829268  C 123.088235294118 92.3932926829268  122.205882352941 89.7408536585366  122.205882352941 89.7408536585366  C 122.205882352941 89.7408536585366  118.676470588235 91.5091463414634  118.676470588235 91.5091463414634  C 118.676470588235 91.5091463414634  119.558823529412 95.9298780487805  119.558823529412 95.9298780487805  C 119.558823529412 95.9298780487805  116.911764705882 98.5823170731707  116.911764705882 98.5823170731707  C 116.911764705882 98.5823170731707  116.911764705882 93.2774390243902  116.911764705882 93.2774390243902  C 116.911764705882 93.2774390243902  116.029411764706 91.5091463414634  116.029411764706 91.5091463414634  C 116.029411764706 91.5091463414634  113.382352941176 91.5091463414634  113.382352941176 91.5091463414634  C 113.382352941176 91.5091463414634  104.558823529412 100.350609756098  104.558823529412 100.350609756098  C 104.558823529412 100.350609756098  96.6176470588235 99.4664634146341  96.6176470588235 99.4664634146341  C 96.6176470588235 99.4664634146341  93.9705882352941 101.234756097561  93.9705882352941 101.234756097561  C 93.9705882352941 101.234756097561  92.2058823529412 105.655487804878  92.2058823529412 105.655487804878  C 92.2058823529412 105.655487804878  91.3235294117647 116.265243902439  91.3235294117647 116.265243902439  C 91.3235294117647 116.265243902439  86.9117647058823 121.57012195122  86.9117647058823 121.57012195122  C 86.9117647058823 121.57012195122  86.0294117647059 125.106707317073  86.0294117647059 125.106707317073  C 86.0294117647059 125.106707317073  84.2647058823529 127.759146341463  84.2647058823529 127.759146341463  C 84.2647058823529 127.759146341463  78.9705882352941 127.759146341463  78.9705882352941 127.759146341463  C 78.9705882352941 127.759146341463  77.2058823529412 125.990853658537  77.2058823529412 125.990853658537  C 77.2058823529412 125.990853658537  75.4411764705882 126.875  75.4411764705882 126.875  C 75.4411764705882 126.875  72.7941176470588 129.52743902439  72.7941176470588 129.52743902439  C 72.7941176470588 129.52743902439  73.6764705882353 134.832317073171  73.6764705882353 134.832317073171  C 73.6764705882353 134.832317073171  71.0294117647059 133.948170731707  71.0294117647059 133.948170731707  C 71.0294117647059 133.948170731707  68.3823529411765 135.716463414634  68.3823529411765 135.716463414634  C 68.3823529411765 135.716463414634  67.5 133.948170731707  67.5 133.948170731707  C 67.5 133.948170731707  65.7352941176471 136.600609756098  65.7352941176471 136.600609756098  C 65.7352941176471 136.600609756098  59.5588235294118 135.716463414634  59.5588235294118 135.716463414634  C 59.5588235294118 135.716463414634  59.5588235294118 137.484756097561  59.5588235294118 137.484756097561  C 59.5588235294118 137.484756097561  56.0294117647059 137.484756097561  56.0294117647059 137.484756097561  C 56.0294117647059 137.484756097561  54.2647058823529 140.137195121951  54.2647058823529 140.137195121951  C 54.2647058823529 140.137195121951  48.0882352941176 138.368902439024  48.0882352941176 138.368902439024  C 48.0882352941176 138.368902439024  49.8529411764706 134.832317073171  49.8529411764706 134.832317073171  C 49.8529411764706 134.832317073171  47.2058823529412 133.064024390244  47.2058823529412 133.064024390244  C 47.2058823529412 133.064024390244  47.2058823529412 131.295731707317  47.2058823529412 131.295731707317  C 47.2058823529412 131.295731707317  41.0294117647059 129.52743902439  41.0294117647059 129.52743902439  C 41.0294117647059 129.52743902439  41.0294117647059 133.064024390244  41.0294117647059 133.064024390244  C 41.0294117647059 133.064024390244  42.7941176470588 133.948170731707  42.7941176470588 133.948170731707  C 42.7941176470588 133.948170731707  40.1470588235294 135.716463414634  40.1470588235294 135.716463414634  C 40.1470588235294 135.716463414634  40.1470588235294 139.253048780488  40.1470588235294 139.253048780488  C 40.1470588235294 139.253048780488  35.7352941176471 144.557926829268  35.7352941176471 144.557926829268  C 35.7352941176471 144.557926829268  30.4411764705882 139.253048780488  30.4411764705882 139.253048780488  C 30.4411764705882 139.253048780488  28.6764705882353 143.673780487805  28.6764705882353 143.673780487805  C 28.6764705882353 143.673780487805  24.2647058823529 141.905487804878  24.2647058823529 141.905487804878  C 24.2647058823529 141.905487804878  18.9705882352941 141.905487804878  18.9705882352941 141.905487804878  C 18.9705882352941 141.905487804878  17.2058823529412 140.137195121951  17.2058823529412 140.137195121951  C 17.2058823529412 140.137195121951  17.2058823529412 134.832317073171  17.2058823529412 134.832317073171  C 17.2058823529412 134.832317073171  21.6176470588235 129.52743902439  21.6176470588235 129.52743902439  C 21.6176470588235 129.52743902439  26.0294117647059 127.759146341463  26.0294117647059 127.759146341463  C 26.0294117647059 127.759146341463  26.9117647058824 118.033536585366  26.9117647058824 118.033536585366  C 26.9117647058824 118.033536585366  25.1470588235294 113.612804878049  25.1470588235294 113.612804878049  C 25.1470588235294 113.612804878049  19.8529411764706 109.192073170732  19.8529411764706 109.192073170732  C 19.8529411764706 109.192073170732  18.9705882352941 106.539634146341  18.9705882352941 106.539634146341  C 18.9705882352941 106.539634146341  15.4411764705882 106.539634146341  15.4411764705882 106.539634146341  C 15.4411764705882 106.539634146341  12.7941176470588 103.887195121951  12.7941176470588 103.887195121951  C 12.7941176470588 103.887195121951  11.9117647058824 95.9298780487805  11.9117647058824 95.9298780487805  C 11.9117647058824 95.9298780487805  13.6764705882353 95.9298780487805  13.6764705882353 95.9298780487805  C 13.6764705882353 95.9298780487805  14.5588235294118 91.5091463414634  14.5588235294118 91.5091463414634  C 14.5588235294118 91.5091463414634  12.7941176470588 79.1310975609756  12.7941176470588 79.1310975609756  C 12.7941176470588 79.1310975609756  11.0294117647059 76.4786585365854  11.0294117647059 76.4786585365854  C 11.0294117647059 76.4786585365854  6.61764705882353 74.7103658536585  6.61764705882353 74.7103658536585  C 6.61764705882353 74.7103658536585  4.85294117647059 70.2896341463415  4.85294117647059 70.2896341463415  C 4.85294117647059 70.2896341463415  2.20588235294118 70.2896341463415  2.20588235294118 70.2896341463415  C 2.20588235294118 70.2896341463415  0.441176470588235 68.5213414634146  0.441176470588235 68.5213414634146  Z " fill-rule="nonzero" fill="#0fd0e6" stroke="none" transform="matrix(1 0 0 1 772 447 )" />
    <path d="M 0.441176470588235 68.5213414634146  C 0.441176470588235 68.5213414634146  0.441176470588235 64.1006097560976  0.441176470588235 64.1006097560976  C 0.441176470588235 64.1006097560976  3.08823529411765 64.1006097560976  3.08823529411765 64.1006097560976  C 3.08823529411765 64.1006097560976  2.20588235294118 57.9115853658537  2.20588235294118 57.9115853658537  C 2.20588235294118 57.9115853658537  3.97058823529412 53.4908536585366  3.97058823529412 53.4908536585366  C 3.97058823529412 53.4908536585366  1.32352941176471 47.3018292682927  1.32352941176471 47.3018292682927  C 1.32352941176471 47.3018292682927  7.5 34.9237804878049  7.5 34.9237804878049  C 7.5 34.9237804878049  10.1470588235294 34.0396341463415  10.1470588235294 34.0396341463415  C 10.1470588235294 34.0396341463415  13.6764705882353 34.9237804878049  13.6764705882353 34.9237804878049  C 13.6764705882353 34.9237804878049  14.5588235294118 36.6920731707317  14.5588235294118 36.6920731707317  C 14.5588235294118 36.6920731707317  19.8529411764706 34.0396341463415  19.8529411764706 34.0396341463415  C 19.8529411764706 34.0396341463415  28.6764705882353 35.8079268292683  28.6764705882353 35.8079268292683  C 28.6764705882353 35.8079268292683  29.5588235294118 45.5335365853659  29.5588235294118 45.5335365853659  C 29.5588235294118 45.5335365853659  32.2058823529412 48.1859756097561  32.2058823529412 48.1859756097561  C 32.2058823529412 48.1859756097561  40.1470588235294 48.1859756097561  40.1470588235294 48.1859756097561  C 40.1470588235294 48.1859756097561  41.0294117647059 43.765243902439  41.0294117647059 43.765243902439  C 41.0294117647059 43.765243902439  50.7352941176471 41.9969512195122  50.7352941176471 41.9969512195122  C 50.7352941176471 41.9969512195122  50.7352941176471 39.344512195122  50.7352941176471 39.344512195122  C 50.7352941176471 39.344512195122  48.9705882352941 37.5762195121951  48.9705882352941 37.5762195121951  C 48.9705882352941 37.5762195121951  50.7352941176471 32.2713414634146  50.7352941176471 32.2713414634146  C 50.7352941176471 32.2713414634146  50.7352941176471 34.9237804878049  50.7352941176471 34.9237804878049  C 50.7352941176471 34.9237804878049  53.3823529411765 35.8079268292683  53.3823529411765 35.8079268292683  C 53.3823529411765 35.8079268292683  56.0294117647059 34.0396341463415  56.0294117647059 34.0396341463415  C 56.0294117647059 34.0396341463415  56.0294117647059 31.3871951219512  56.0294117647059 31.3871951219512  C 56.0294117647059 31.3871951219512  61.3235294117647 29.6189024390244  61.3235294117647 29.6189024390244  C 61.3235294117647 29.6189024390244  63.0882352941176 27.8506097560976  63.0882352941176 27.8506097560976  C 63.0882352941176 27.8506097560976  62.2058823529412 26.0823170731707  62.2058823529412 26.0823170731707  C 62.2058823529412 26.0823170731707  66.6176470588235 21.6615853658537  66.6176470588235 21.6615853658537  C 66.6176470588235 21.6615853658537  69.2647058823529 23.4298780487805  69.2647058823529 23.4298780487805  C 69.2647058823529 23.4298780487805  72.7941176470588 17.2408536585366  72.7941176470588 17.2408536585366  C 72.7941176470588 17.2408536585366  76.3235294117647 17.2408536585366  76.3235294117647 17.2408536585366  C 76.3235294117647 17.2408536585366  77.2058823529412 19.0091463414634  77.2058823529412 19.0091463414634  C 77.2058823529412 19.0091463414634  81.6176470588235 19.0091463414634  81.6176470588235 19.0091463414634  C 81.6176470588235 19.0091463414634  85.1470588235294 20.7774390243902  85.1470588235294 20.7774390243902  C 85.1470588235294 20.7774390243902  89.5588235294118 13.7042682926829  89.5588235294118 13.7042682926829  C 89.5588235294118 13.7042682926829  94.8529411764706 12.8201219512195  94.8529411764706 12.8201219512195  C 94.8529411764706 12.8201219512195  97.5 7.51524390243902  97.5 7.51524390243902  C 97.5 7.51524390243902  102.794117647059 7.51524390243902  102.794117647059 7.51524390243902  C 102.794117647059 7.51524390243902  106.323529411765 3.97865853658537  106.323529411765 3.97865853658537  C 106.323529411765 3.97865853658537  108.970588235294 5.7469512195122  108.970588235294 5.7469512195122  C 108.970588235294 5.7469512195122  108.970588235294 7.51524390243902  108.970588235294 7.51524390243902  C 108.970588235294 7.51524390243902  112.5 7.51524390243902  112.5 7.51524390243902  C 112.5 7.51524390243902  113.382352941176 18.125  113.382352941176 18.125  C 113.382352941176 18.125  115.147058823529 19.0091463414634  115.147058823529 19.0091463414634  C 115.147058823529 19.0091463414634  123.088235294118 12.8201219512195  123.088235294118 12.8201219512195  C 123.088235294118 12.8201219512195  126.617647058824 14.5884146341463  126.617647058824 14.5884146341463  C 126.617647058824 14.5884146341463  130.147058823529 11.0518292682927  130.147058823529 11.0518292682927  C 130.147058823529 11.0518292682927  132.794117647059 11.9359756097561  132.794117647059 11.9359756097561  C 132.794117647059 11.9359756097561  135.441176470588 8.39939024390244  135.441176470588 8.39939024390244  C 135.441176470588 8.39939024390244  135.441176470588 4.86280487804878  135.441176470588 4.86280487804878  C 135.441176470588 4.86280487804878  140.735294117647 4.86280487804878  140.735294117647 4.86280487804878  C 140.735294117647 4.86280487804878  147.794117647059 0.442073170731707  147.794117647059 0.442073170731707  C 147.794117647059 0.442073170731707  156.617647058824 3.97865853658537  156.617647058824 3.97865853658537  C 156.617647058824 3.97865853658537  159.264705882353 8.39939024390244  159.264705882353 8.39939024390244  C 159.264705882353 8.39939024390244  156.617647058824 8.39939024390244  156.617647058824 8.39939024390244  C 156.617647058824 8.39939024390244  150.441176470588 14.5884146341463  150.441176470588 14.5884146341463  C 150.441176470588 14.5884146341463  146.911764705882 12.8201219512195  146.911764705882 12.8201219512195  C 146.911764705882 12.8201219512195  145.147058823529 13.7042682926829  145.147058823529 13.7042682926829  C 145.147058823529 13.7042682926829  146.029411764706 18.125  146.029411764706 18.125  C 146.029411764706 18.125  142.5 18.125  142.5 18.125  C 142.5 18.125  141.617647058824 20.7774390243902  141.617647058824 20.7774390243902  C 141.617647058824 20.7774390243902  146.029411764706 19.8932926829268  146.029411764706 19.8932926829268  C 146.029411764706 19.8932926829268  146.029411764706 31.3871951219512  146.029411764706 31.3871951219512  C 146.029411764706 31.3871951219512  149.558823529412 36.6920731707317  149.558823529412 36.6920731707317  C 149.558823529412 36.6920731707317  148.676470588235 38.4603658536585  148.676470588235 38.4603658536585  C 148.676470588235 38.4603658536585  146.029411764706 38.4603658536585  146.029411764706 38.4603658536585  C 146.029411764706 38.4603658536585  146.029411764706 42.8810975609756  146.029411764706 42.8810975609756  C 146.029411764706 42.8810975609756  143.382352941176 45.5335365853659  143.382352941176 45.5335365853659  C 143.382352941176 45.5335365853659  146.911764705882 45.5335365853659  146.911764705882 45.5335365853659  C 146.911764705882 45.5335365853659  146.911764705882 49.9542682926829  146.911764705882 49.9542682926829  C 146.911764705882 49.9542682926829  148.676470588235 51.7225609756098  148.676470588235 51.7225609756098  C 148.676470588235 51.7225609756098  153.088235294118 50.8384146341463  153.088235294118 50.8384146341463  C 153.088235294118 50.8384146341463  155.735294117647 53.4908536585366  155.735294117647 53.4908536585366  C 155.735294117647 53.4908536585366  157.5 52.6067073170732  157.5 52.6067073170732  C 157.5 52.6067073170732  161.911764705882 54.375  161.911764705882 54.375  C 161.911764705882 54.375  163.676470588235 57.0274390243902  163.676470588235 57.0274390243902  C 163.676470588235 57.0274390243902  164.558823529412 62.3323170731707  164.558823529412 62.3323170731707  C 164.558823529412 62.3323170731707  160.147058823529 65.8689024390244  160.147058823529 65.8689024390244  C 160.147058823529 65.8689024390244  158.382352941176 70.2896341463415  158.382352941176 70.2896341463415  C 158.382352941176 70.2896341463415  162.794117647059 74.7103658536585  162.794117647059 74.7103658536585  C 162.794117647059 74.7103658536585  161.911764705882 79.1310975609756  161.911764705882 79.1310975609756  C 161.911764705882 79.1310975609756  162.794117647059 76.4786585365854  162.794117647059 76.4786585365854  C 162.794117647059 76.4786585365854  164.558823529412 77.3628048780488  164.558823529412 77.3628048780488  C 164.558823529412 77.3628048780488  162.794117647059 80.8993902439024  162.794117647059 80.8993902439024  C 162.794117647059 80.8993902439024  158.382352941176 83.5518292682927  158.382352941176 83.5518292682927  C 158.382352941176 83.5518292682927  155.735294117647 87.9725609756098  155.735294117647 87.9725609756098  C 155.735294117647 87.9725609756098  151.323529411765 87.9725609756098  151.323529411765 87.9725609756098  C 151.323529411765 87.9725609756098  150.441176470588 91.5091463414634  150.441176470588 91.5091463414634  C 150.441176470588 91.5091463414634  146.029411764706 91.5091463414634  146.029411764706 91.5091463414634  C 146.029411764706 91.5091463414634  146.911764705882 94.1615853658537  146.911764705882 94.1615853658537  C 146.911764705882 94.1615853658537  146.029411764706 92.3932926829268  146.029411764706 92.3932926829268  C 146.029411764706 92.3932926829268  144.264705882353 93.2774390243902  144.264705882353 93.2774390243902  C 144.264705882353 93.2774390243902  141.617647058824 91.5091463414634  141.617647058824 91.5091463414634  C 141.617647058824 91.5091463414634  133.676470588235 92.3932926829268  133.676470588235 92.3932926829268  C 133.676470588235 92.3932926829268  132.794117647059 91.5091463414634  132.794117647059 91.5091463414634  C 132.794117647059 91.5091463414634  136.323529411765 90.625  136.323529411765 90.625  C 136.323529411765 90.625  133.676470588235 89.7408536585366  133.676470588235 89.7408536585366  C 133.676470588235 89.7408536585366  136.323529411765 88.8567073170732  136.323529411765 88.8567073170732  C 136.323529411765 88.8567073170732  137.205882352941 85.3201219512195  137.205882352941 85.3201219512195  C 137.205882352941 85.3201219512195  135.441176470588 81.7835365853659  135.441176470588 81.7835365853659  C 135.441176470588 81.7835365853659  128.382352941176 80.8993902439024  128.382352941176 80.8993902439024  C 128.382352941176 80.8993902439024  127.5 81.7835365853659  127.5 81.7835365853659  C 127.5 81.7835365853659  130.147058823529 87.9725609756098  130.147058823529 87.9725609756098  C 130.147058823529 87.9725609756098  129.264705882353 89.7408536585366  129.264705882353 89.7408536585366  C 129.264705882353 89.7408536585366  127.5 88.8567073170732  127.5 88.8567073170732  C 127.5 88.8567073170732  125.735294117647 90.625  125.735294117647 90.625  C 125.735294117647 90.625  128.382352941176 91.5091463414634  128.382352941176 91.5091463414634  C 128.382352941176 91.5091463414634  127.5 95.0457317073171  127.5 95.0457317073171  C 127.5 95.0457317073171  126.617647058824 93.2774390243902  126.617647058824 93.2774390243902  C 126.617647058824 93.2774390243902  123.088235294118 92.3932926829268  123.088235294118 92.3932926829268  C 123.088235294118 92.3932926829268  122.205882352941 89.7408536585366  122.205882352941 89.7408536585366  C 122.205882352941 89.7408536585366  118.676470588235 91.5091463414634  118.676470588235 91.5091463414634  C 118.676470588235 91.5091463414634  119.558823529412 95.9298780487805  119.558823529412 95.9298780487805  C 119.558823529412 95.9298780487805  116.911764705882 98.5823170731707  116.911764705882 98.5823170731707  C 116.911764705882 98.5823170731707  116.911764705882 93.2774390243902  116.911764705882 93.2774390243902  C 116.911764705882 93.2774390243902  116.029411764706 91.5091463414634  116.029411764706 91.5091463414634  C 116.029411764706 91.5091463414634  113.382352941176 91.5091463414634  113.382352941176 91.5091463414634  C 113.382352941176 91.5091463414634  104.558823529412 100.350609756098  104.558823529412 100.350609756098  C 104.558823529412 100.350609756098  96.6176470588235 99.4664634146341  96.6176470588235 99.4664634146341  C 96.6176470588235 99.4664634146341  93.9705882352941 101.234756097561  93.9705882352941 101.234756097561  C 93.9705882352941 101.234756097561  92.2058823529412 105.655487804878  92.2058823529412 105.655487804878  C 92.2058823529412 105.655487804878  91.3235294117647 116.265243902439  91.3235294117647 116.265243902439  C 91.3235294117647 116.265243902439  86.9117647058823 121.57012195122  86.9117647058823 121.57012195122  C 86.9117647058823 121.57012195122  86.0294117647059 125.106707317073  86.0294117647059 125.106707317073  C 86.0294117647059 125.106707317073  84.2647058823529 127.759146341463  84.2647058823529 127.759146341463  C 84.2647058823529 127.759146341463  78.9705882352941 127.759146341463  78.9705882352941 127.759146341463  C 78.9705882352941 127.759146341463  77.2058823529412 125.990853658537  77.2058823529412 125.990853658537  C 77.2058823529412 125.990853658537  75.4411764705882 126.875  75.4411764705882 126.875  C 75.4411764705882 126.875  72.7941176470588 129.52743902439  72.7941176470588 129.52743902439  C 72.7941176470588 129.52743902439  73.6764705882353 134.832317073171  73.6764705882353 134.832317073171  C 73.6764705882353 134.832317073171  71.0294117647059 133.948170731707  71.0294117647059 133.948170731707  C 71.0294117647059 133.948170731707  68.3823529411765 135.716463414634  68.3823529411765 135.716463414634  C 68.3823529411765 135.716463414634  67.5 133.948170731707  67.5 133.948170731707  C 67.5 133.948170731707  65.7352941176471 136.600609756098  65.7352941176471 136.600609756098  C 65.7352941176471 136.600609756098  59.5588235294118 135.716463414634  59.5588235294118 135.716463414634  C 59.5588235294118 135.716463414634  59.5588235294118 137.484756097561  59.5588235294118 137.484756097561  C 59.5588235294118 137.484756097561  56.0294117647059 137.484756097561  56.0294117647059 137.484756097561  C 56.0294117647059 137.484756097561  54.2647058823529 140.137195121951  54.2647058823529 140.137195121951  C 54.2647058823529 140.137195121951  48.0882352941176 138.368902439024  48.0882352941176 138.368902439024  C 48.0882352941176 138.368902439024  49.8529411764706 134.832317073171  49.8529411764706 134.832317073171  C 49.8529411764706 134.832317073171  47.2058823529412 133.064024390244  47.2058823529412 133.064024390244  C 47.2058823529412 133.064024390244  47.2058823529412 131.295731707317  47.2058823529412 131.295731707317  C 47.2058823529412 131.295731707317  41.0294117647059 129.52743902439  41.0294117647059 129.52743902439  C 41.0294117647059 129.52743902439  41.0294117647059 133.064024390244  41.0294117647059 133.064024390244  C 41.0294117647059 133.064024390244  42.7941176470588 133.948170731707  42.7941176470588 133.948170731707  C 42.7941176470588 133.948170731707  40.1470588235294 135.716463414634  40.1470588235294 135.716463414634  C 40.1470588235294 135.716463414634  40.1470588235294 139.253048780488  40.1470588235294 139.253048780488  C 40.1470588235294 139.253048780488  35.7352941176471 144.557926829268  35.7352941176471 144.557926829268  C 35.7352941176471 144.557926829268  30.4411764705882 139.253048780488  30.4411764705882 139.253048780488  C 30.4411764705882 139.253048780488  28.6764705882353 143.673780487805  28.6764705882353 143.673780487805  C 28.6764705882353 143.673780487805  24.2647058823529 141.905487804878  24.2647058823529 141.905487804878  C 24.2647058823529 141.905487804878  18.9705882352941 141.905487804878  18.9705882352941 141.905487804878  C 18.9705882352941 141.905487804878  17.2058823529412 140.137195121951  17.2058823529412 140.137195121951  C 17.2058823529412 140.137195121951  17.2058823529412 134.832317073171  17.2058823529412 134.832317073171  C 17.2058823529412 134.832317073171  21.6176470588235 129.52743902439  21.6176470588235 129.52743902439  C 21.6176470588235 129.52743902439  26.0294117647059 127.759146341463  26.0294117647059 127.759146341463  C 26.0294117647059 127.759146341463  26.9117647058824 118.033536585366  26.9117647058824 118.033536585366  C 26.9117647058824 118.033536585366  25.1470588235294 113.612804878049  25.1470588235294 113.612804878049  C 25.1470588235294 113.612804878049  19.8529411764706 109.192073170732  19.8529411764706 109.192073170732  C 19.8529411764706 109.192073170732  18.9705882352941 106.539634146341  18.9705882352941 106.539634146341  C 18.9705882352941 106.539634146341  15.4411764705882 106.539634146341  15.4411764705882 106.539634146341  C 15.4411764705882 106.539634146341  12.7941176470588 103.887195121951  12.7941176470588 103.887195121951  C 12.7941176470588 103.887195121951  11.9117647058824 95.9298780487805  11.9117647058824 95.9298780487805  C 11.9117647058824 95.9298780487805  13.6764705882353 95.9298780487805  13.6764705882353 95.9298780487805  C 13.6764705882353 95.9298780487805  14.5588235294118 91.5091463414634  14.5588235294118 91.5091463414634  C 14.5588235294118 91.5091463414634  12.7941176470588 79.1310975609756  12.7941176470588 79.1310975609756  C 12.7941176470588 79.1310975609756  11.0294117647059 76.4786585365854  11.0294117647059 76.4786585365854  C 11.0294117647059 76.4786585365854  6.61764705882353 74.7103658536585  6.61764705882353 74.7103658536585  C 6.61764705882353 74.7103658536585  4.85294117647059 70.2896341463415  4.85294117647059 70.2896341463415  C 4.85294117647059 70.2896341463415  2.20588235294118 70.2896341463415  2.20588235294118 70.2896341463415  C 2.20588235294118 70.2896341463415  0.441176470588235 68.5213414634146  0.441176470588235 68.5213414634146  Z " stroke-width="2" stroke-dasharray="1,1" stroke="#999999" fill="none" transform="matrix(1 0 0 1 772 447 )" mask="url(#clip2088)" />
  </g>
</svg>