<?xml version="1.0" encoding="utf-8"?>
<svg version="1.1" xmlns:xlink="http://www.w3.org/1999/xlink" width="96px" height="191px" xmlns="http://www.w3.org/2000/svg">
  <defs>
    <mask fill="white" id="clip2090">
      <path d="M 8.36697247706422 157.840277777778  C 8.36697247706422 157.840277777778  7.48623853211009 156.956018518519  7.48623853211009 156.956018518519  C 7.48623853211009 156.956018518519  8.36697247706422 154.303240740741  8.36697247706422 154.303240740741  C 8.36697247706422 154.303240740741  11.0091743119266 153.418981481481  11.0091743119266 153.418981481481  C 11.0091743119266 153.418981481481  15.4128440366972 143.69212962963  15.4128440366972 143.69212962963  C 15.4128440366972 143.69212962963  18.9357798165138 144.576388888889  18.9357798165138 144.576388888889  C 18.9357798165138 144.576388888889  18.9357798165138 141.923611111111  18.9357798165138 141.923611111111  C 18.9357798165138 141.923611111111  22.4587155963303 134.849537037037  22.4587155963303 134.849537037037  C 22.4587155963303 134.849537037037  18.0550458715596 133.965277777778  18.0550458715596 133.965277777778  C 18.0550458715596 133.965277777778  18.0550458715596 128.659722222222  18.0550458715596 128.659722222222  C 18.0550458715596 128.659722222222  17.1743119266055 130.428240740741  17.1743119266055 130.428240740741  C 17.1743119266055 130.428240740741  12.7706422018349 126.891203703704  12.7706422018349 126.891203703704  C 12.7706422018349 126.891203703704  8.36697247706422 127.775462962963  8.36697247706422 127.775462962963  C 8.36697247706422 127.775462962963  11.0091743119266 120.701388888889  11.0091743119266 120.701388888889  C 11.0091743119266 120.701388888889  14.5321100917431 118.048611111111  14.5321100917431 118.048611111111  C 14.5321100917431 118.048611111111  12.7706422018349 117.164351851852  12.7706422018349 117.164351851852  C 12.7706422018349 117.164351851852  9.24770642201835 118.93287037037  9.24770642201835 118.93287037037  C 9.24770642201835 118.93287037037  11.0091743119266 115.395833333333  11.0091743119266 115.395833333333  C 11.0091743119266 115.395833333333  9.24770642201835 113.627314814815  9.24770642201835 113.627314814815  C 9.24770642201835 113.627314814815  10.1284403669725 110.974537037037  10.1284403669725 110.974537037037  C 10.1284403669725 110.974537037037  11.8899082568807 110.974537037037  11.8899082568807 110.974537037037  C 11.8899082568807 110.974537037037  0.440366972477064 99.4791666666667  0.440366972477064 99.4791666666667  C 0.440366972477064 99.4791666666667  2.20183486238532 91.5208333333333  2.20183486238532 91.5208333333333  C 2.20183486238532 91.5208333333333  5.72477064220184 87.099537037037  5.72477064220184 87.099537037037  C 5.72477064220184 87.099537037037  4.84403669724771 82.6782407407407  4.84403669724771 82.6782407407407  C 4.84403669724771 82.6782407407407  8.36697247706422 80.9097222222222  8.36697247706422 80.9097222222222  C 8.36697247706422 80.9097222222222  9.24770642201835 83.5625  9.24770642201835 83.5625  C 9.24770642201835 83.5625  12.7706422018349 84.4467592592593  12.7706422018349 84.4467592592593  C 12.7706422018349 84.4467592592593  13.651376146789 86.2152777777778  13.651376146789 86.2152777777778  C 13.651376146789 86.2152777777778  14.5321100917431 82.6782407407407  14.5321100917431 82.6782407407407  C 14.5321100917431 82.6782407407407  11.8899082568807 81.7939814814815  11.8899082568807 81.7939814814815  C 11.8899082568807 81.7939814814815  12.7706422018349 80.025462962963  12.7706422018349 80.025462962963  C 12.7706422018349 80.025462962963  15.4128440366972 80.9097222222222  15.4128440366972 80.9097222222222  C 15.4128440366972 80.9097222222222  16.2935779816514 79.1412037037037  16.2935779816514 79.1412037037037  C 16.2935779816514 79.1412037037037  13.651376146789 72.9513888888889  13.651376146789 72.9513888888889  C 13.651376146789 72.9513888888889  14.5321100917431 72.0671296296296  14.5321100917431 72.0671296296296  C 14.5321100917431 72.0671296296296  21.5779816513761 72.9513888888889  21.5779816513761 72.9513888888889  C 21.5779816513761 72.9513888888889  23.3394495412844 76.4884259259259  23.3394495412844 76.4884259259259  C 23.3394495412844 76.4884259259259  22.4587155963303 80.025462962963  22.4587155963303 80.025462962963  C 22.4587155963303 80.025462962963  19.8165137614679 80.9097222222222  19.8165137614679 80.9097222222222  C 19.8165137614679 80.9097222222222  22.4587155963303 81.7939814814815  22.4587155963303 81.7939814814815  C 22.4587155963303 81.7939814814815  19.8165137614679 82.6782407407407  19.8165137614679 82.6782407407407  C 19.8165137614679 82.6782407407407  27.743119266055 82.6782407407407  27.743119266055 82.6782407407407  C 27.743119266055 82.6782407407407  32.1467889908257 83.5625  32.1467889908257 83.5625  C 32.1467889908257 83.5625  33.0275229357798 85.3310185185185  33.0275229357798 85.3310185185185  C 33.0275229357798 85.3310185185185  32.1467889908257 82.6782407407407  32.1467889908257 82.6782407407407  C 32.1467889908257 82.6782407407407  36.5504587155963 82.6782407407407  36.5504587155963 82.6782407407407  C 36.5504587155963 82.6782407407407  37.4311926605505 79.1412037037037  37.4311926605505 79.1412037037037  C 37.4311926605505 79.1412037037037  41.8348623853211 79.1412037037037  41.8348623853211 79.1412037037037  C 41.8348623853211 79.1412037037037  49.7614678899083 72.0671296296296  49.7614678899083 72.0671296296296  C 49.7614678899083 72.0671296296296  51.5229357798165 68.5300925925926  51.5229357798165 68.5300925925926  C 51.5229357798165 68.5300925925926  49.7614678899083 67.6458333333333  49.7614678899083 67.6458333333333  C 49.7614678899083 67.6458333333333  48.8807339449541 70.2986111111111  48.8807339449541 70.2986111111111  C 48.8807339449541 70.2986111111111  49.7614678899083 65.8773148148148  49.7614678899083 65.8773148148148  C 49.7614678899083 65.8773148148148  44.4770642201835 62.3402777777778  44.4770642201835 62.3402777777778  C 44.4770642201835 62.3402777777778  46.2385321100917 57.9189814814815  46.2385321100917 57.9189814814815  C 46.2385321100917 57.9189814814815  51.5229357798165 54.3819444444444  51.5229357798165 54.3819444444444  C 51.5229357798165 54.3819444444444  51.5229357798165 51.7291666666667  51.5229357798165 51.7291666666667  C 51.5229357798165 51.7291666666667  48.8807339449541 46.4236111111111  48.8807339449541 46.4236111111111  C 48.8807339449541 46.4236111111111  43.5963302752294 44.6550925925926  43.5963302752294 44.6550925925926  C 43.5963302752294 44.6550925925926  41.8348623853211 45.5393518518519  41.8348623853211 45.5393518518519  C 41.8348623853211 45.5393518518519  40.0733944954128 42.8865740740741  40.0733944954128 42.8865740740741  C 40.0733944954128 42.8865740740741  34.7889908256881 43.7708333333333  34.7889908256881 43.7708333333333  C 34.7889908256881 43.7708333333333  33.0275229357798 42.8865740740741  33.0275229357798 42.8865740740741  C 33.0275229357798 42.8865740740741  33.0275229357798 37.5810185185185  33.0275229357798 37.5810185185185  C 33.0275229357798 37.5810185185185  29.5045871559633 37.5810185185185  29.5045871559633 37.5810185185185  C 29.5045871559633 37.5810185185185  33.0275229357798 33.1597222222222  33.0275229357798 33.1597222222222  C 33.0275229357798 33.1597222222222  32.1467889908257 30.5069444444444  32.1467889908257 30.5069444444444  C 32.1467889908257 30.5069444444444  34.7889908256881 30.5069444444444  34.7889908256881 30.5069444444444  C 34.7889908256881 30.5069444444444  35.6697247706422 28.7384259259259  35.6697247706422 28.7384259259259  C 35.6697247706422 28.7384259259259  32.1467889908257 23.4328703703704  32.1467889908257 23.4328703703704  C 32.1467889908257 23.4328703703704  32.1467889908257 12.8217592592593  32.1467889908257 12.8217592592593  C 32.1467889908257 12.8217592592593  28.6238532110092 12.8217592592593  28.6238532110092 12.8217592592593  C 28.6238532110092 12.8217592592593  28.6238532110092 10.1689814814815  28.6238532110092 10.1689814814815  C 28.6238532110092 10.1689814814815  32.1467889908257 10.1689814814815  32.1467889908257 10.1689814814815  C 32.1467889908257 10.1689814814815  31.2660550458716 5.74768518518519  31.2660550458716 5.74768518518519  C 31.2660550458716 5.74768518518519  33.0275229357798 4.86342592592593  33.0275229357798 4.86342592592593  C 33.0275229357798 4.86342592592593  36.5504587155963 6.63194444444444  36.5504587155963 6.63194444444444  C 36.5504587155963 6.63194444444444  42.7155963302752 0.44212962962963  42.7155963302752 0.44212962962963  C 42.7155963302752 0.44212962962963  53.2844036697248 2.21064814814815  53.2844036697248 2.21064814814815  C 53.2844036697248 2.21064814814815  53.2844036697248 8.40046296296296  53.2844036697248 8.40046296296296  C 53.2844036697248 8.40046296296296  61.2110091743119 13.7060185185185  61.2110091743119 13.7060185185185  C 61.2110091743119 13.7060185185185  64.7339449541284 12.8217592592593  64.7339449541284 12.8217592592593  C 64.7339449541284 12.8217592592593  64.7339449541284 14.5902777777778  64.7339449541284 14.5902777777778  C 64.7339449541284 14.5902777777778  71.7798165137615 22.5486111111111  71.7798165137615 22.5486111111111  C 71.7798165137615 22.5486111111111  76.1834862385321 20.7800925925926  76.1834862385321 20.7800925925926  C 76.1834862385321 20.7800925925926  80.5871559633027 24.3171296296296  80.5871559633027 24.3171296296296  C 80.5871559633027 24.3171296296296  80.5871559633027 26.0856481481481  80.5871559633027 26.0856481481481  C 80.5871559633027 26.0856481481481  88.5137614678899 34.0439814814815  88.5137614678899 34.0439814814815  C 88.5137614678899 34.0439814814815  84.9908256880734 37.5810185185185  84.9908256880734 37.5810185185185  C 84.9908256880734 37.5810185185185  86.7522935779816 41.1180555555556  86.7522935779816 41.1180555555556  C 86.7522935779816 41.1180555555556  87.6330275229358 40.2337962962963  87.6330275229358 40.2337962962963  C 87.6330275229358 40.2337962962963  88.5137614678899 45.5393518518519  88.5137614678899 45.5393518518519  C 88.5137614678899 45.5393518518519  92.0366972477064 49.0763888888889  92.0366972477064 49.0763888888889  C 92.0366972477064 49.0763888888889  95.5596330275229 49.9606481481481  95.5596330275229 49.9606481481481  C 95.5596330275229 49.9606481481481  92.0366972477064 53.4976851851852  92.0366972477064 53.4976851851852  C 92.0366972477064 53.4976851851852  92.0366972477064 49.9606481481481  92.0366972477064 49.9606481481481  C 92.0366972477064 49.9606481481481  88.5137614678899 48.1921296296296  88.5137614678899 48.1921296296296  C 88.5137614678899 48.1921296296296  88.5137614678899 55.2662037037037  88.5137614678899 55.2662037037037  C 88.5137614678899 55.2662037037037  91.1559633027523 59.6875  91.1559633027523 59.6875  C 91.1559633027523 59.6875  87.6330275229358 59.6875  87.6330275229358 59.6875  C 87.6330275229358 59.6875  86.7522935779816 62.3402777777778  86.7522935779816 62.3402777777778  C 86.7522935779816 62.3402777777778  92.0366972477064 62.3402777777778  92.0366972477064 62.3402777777778  C 92.0366972477064 62.3402777777778  92.9174311926605 64.1087962962963  92.9174311926605 64.1087962962963  C 92.9174311926605 64.1087962962963  93.7981651376147 71.1828703703704  93.7981651376147 71.1828703703704  C 93.7981651376147 71.1828703703704  92.0366972477064 71.1828703703704  92.0366972477064 71.1828703703704  C 92.0366972477064 71.1828703703704  91.1559633027523 72.9513888888889  91.1559633027523 72.9513888888889  C 91.1559633027523 72.9513888888889  92.9174311926605 78.2569444444444  92.9174311926605 78.2569444444444  C 92.9174311926605 78.2569444444444  91.1559633027523 79.1412037037037  91.1559633027523 79.1412037037037  C 91.1559633027523 79.1412037037037  92.0366972477064 80.9097222222222  92.0366972477064 80.9097222222222  C 92.0366972477064 80.9097222222222  93.7981651376147 80.025462962963  93.7981651376147 80.025462962963  C 93.7981651376147 80.025462962963  91.1559633027523 83.5625  91.1559633027523 83.5625  C 91.1559633027523 83.5625  93.7981651376147 84.4467592592593  93.7981651376147 84.4467592592593  C 93.7981651376147 84.4467592592593  90.2752293577982 86.2152777777778  90.2752293577982 86.2152777777778  C 90.2752293577982 86.2152777777778  86.7522935779816 90.6365740740741  86.7522935779816 90.6365740740741  C 86.7522935779816 90.6365740740741  84.9908256880734 96.8263888888889  84.9908256880734 96.8263888888889  C 84.9908256880734 96.8263888888889  86.7522935779816 100.363425925926  86.7522935779816 100.363425925926  C 86.7522935779816 100.363425925926  84.9908256880734 102.131944444444  84.9908256880734 102.131944444444  C 84.9908256880734 102.131944444444  84.9908256880734 104.784722222222  84.9908256880734 104.784722222222  C 84.9908256880734 104.784722222222  83.2293577981651 103.900462962963  83.2293577981651 103.900462962963  C 83.2293577981651 103.900462962963  84.1100917431193 106.553240740741  84.1100917431193 106.553240740741  C 84.1100917431193 106.553240740741  80.5871559633027 108.321759259259  80.5871559633027 108.321759259259  C 80.5871559633027 108.321759259259  83.2293577981651 110.090277777778  83.2293577981651 110.090277777778  C 83.2293577981651 110.090277777778  83.2293577981651 122.469907407407  83.2293577981651 122.469907407407  C 83.2293577981651 122.469907407407  82.348623853211 124.238425925926  82.348623853211 124.238425925926  C 82.348623853211 124.238425925926  77.9449541284404 120.701388888889  77.9449541284404 120.701388888889  C 77.9449541284404 120.701388888889  70.0183486238532 119.81712962963  70.0183486238532 119.81712962963  C 70.0183486238532 119.81712962963  69.1376146788991 123.354166666667  69.1376146788991 123.354166666667  C 69.1376146788991 123.354166666667  71.7798165137615 132.196759259259  71.7798165137615 132.196759259259  C 71.7798165137615 132.196759259259  70.0183486238532 137.502314814815  70.0183486238532 137.502314814815  C 70.0183486238532 137.502314814815  73.5412844036697 140.155092592593  73.5412844036697 140.155092592593  C 73.5412844036697 140.155092592593  73.5412844036697 145.460648148148  73.5412844036697 145.460648148148  C 73.5412844036697 145.460648148148  70.8990825688073 148.113425925926  70.8990825688073 148.113425925926  C 70.8990825688073 148.113425925926  70.0183486238532 152.534722222222  70.0183486238532 152.534722222222  C 70.0183486238532 152.534722222222  70.8990825688073 151.650462962963  70.8990825688073 151.650462962963  C 70.8990825688073 151.650462962963  73.5412844036697 156.956018518519  73.5412844036697 156.956018518519  C 73.5412844036697 156.956018518519  76.1834862385321 156.956018518519  76.1834862385321 156.956018518519  C 76.1834862385321 156.956018518519  76.1834862385321 159.608796296296  76.1834862385321 159.608796296296  C 76.1834862385321 159.608796296296  77.9449541284404 159.608796296296  77.9449541284404 159.608796296296  C 77.9449541284404 159.608796296296  78.8256880733945 164.030092592593  78.8256880733945 164.030092592593  C 78.8256880733945 164.030092592593  72.6605504587156 164.914351851852  72.6605504587156 164.914351851852  C 72.6605504587156 164.914351851852  69.1376146788991 167.56712962963  69.1376146788991 167.56712962963  C 69.1376146788991 167.56712962963  67.3761467889908 174.641203703704  67.3761467889908 174.641203703704  C 67.3761467889908 174.641203703704  61.2110091743119 179.946759259259  61.2110091743119 179.946759259259  C 61.2110091743119 179.946759259259  56.8073394495413 190.55787037037  56.8073394495413 190.55787037037  C 56.8073394495413 190.55787037037  48.8807339449541 178.178240740741  48.8807339449541 178.178240740741  C 48.8807339449541 178.178240740741  32.1467889908257 168.451388888889  32.1467889908257 168.451388888889  C 32.1467889908257 168.451388888889  24.2201834862385 167.56712962963  24.2201834862385 167.56712962963  C 24.2201834862385 167.56712962963  11.0091743119266 173.756944444444  11.0091743119266 173.756944444444  C 11.0091743119266 173.756944444444  3.96330275229358 174.641203703704  3.96330275229358 174.641203703704  C 3.96330275229358 174.641203703704  1.32110091743119 171.988425925926  1.32110091743119 171.988425925926  C 1.32110091743119 171.988425925926  2.20183486238532 169.335648148148  2.20183486238532 169.335648148148  C 2.20183486238532 169.335648148148  0.440366972477064 165.798611111111  0.440366972477064 165.798611111111  C 0.440366972477064 165.798611111111  10.1284403669725 162.261574074074  10.1284403669725 162.261574074074  C 10.1284403669725 162.261574074074  7.48623853211009 159.608796296296  7.48623853211009 159.608796296296  C 7.48623853211009 159.608796296296  8.36697247706422 157.840277777778  8.36697247706422 157.840277777778  Z " fill-rule="evenodd" />
    </mask>
  </defs>
  <g transform="matrix(1 0 0 1 -885 -455 )">
    <path d="M 8.36697247706422 157.840277777778  C 8.36697247706422 157.840277777778  7.48623853211009 156.956018518519  7.48623853211009 156.956018518519  C 7.48623853211009 156.956018518519  8.36697247706422 154.303240740741  8.36697247706422 154.303240740741  C 8.36697247706422 154.303240740741  11.0091743119266 153.418981481481  11.0091743119266 153.418981481481  C 11.0091743119266 153.418981481481  15.4128440366972 143.69212962963  15.4128440366972 143.69212962963  C 15.4128440366972 143.69212962963  18.9357798165138 144.576388888889  18.9357798165138 144.576388888889  C 18.9357798165138 144.576388888889  18.9357798165138 141.923611111111  18.9357798165138 141.923611111111  C 18.9357798165138 141.923611111111  22.4587155963303 134.849537037037  22.4587155963303 134.849537037037  C 22.4587155963303 134.849537037037  18.0550458715596 133.965277777778  18.0550458715596 133.965277777778  C 18.0550458715596 133.965277777778  18.0550458715596 128.659722222222  18.0550458715596 128.659722222222  C 18.0550458715596 128.659722222222  17.1743119266055 130.428240740741  17.1743119266055 130.428240740741  C 17.1743119266055 130.428240740741  12.7706422018349 126.891203703704  12.7706422018349 126.891203703704  C 12.7706422018349 126.891203703704  8.36697247706422 127.775462962963  8.36697247706422 127.775462962963  C 8.36697247706422 127.775462962963  11.0091743119266 120.701388888889  11.0091743119266 120.701388888889  C 11.0091743119266 120.701388888889  14.5321100917431 118.048611111111  14.5321100917431 118.048611111111  C 14.5321100917431 118.048611111111  12.7706422018349 117.164351851852  12.7706422018349 117.164351851852  C 12.7706422018349 117.164351851852  9.24770642201835 118.93287037037  9.24770642201835 118.93287037037  C 9.24770642201835 118.93287037037  11.0091743119266 115.395833333333  11.0091743119266 115.395833333333  C 11.0091743119266 115.395833333333  9.24770642201835 113.627314814815  9.24770642201835 113.627314814815  C 9.24770642201835 113.627314814815  10.1284403669725 110.974537037037  10.1284403669725 110.974537037037  C 10.1284403669725 110.974537037037  11.8899082568807 110.974537037037  11.8899082568807 110.974537037037  C 11.8899082568807 110.974537037037  0.440366972477064 99.4791666666667  0.440366972477064 99.4791666666667  C 0.440366972477064 99.4791666666667  2.20183486238532 91.5208333333333  2.20183486238532 91.5208333333333  C 2.20183486238532 91.5208333333333  5.72477064220184 87.099537037037  5.72477064220184 87.099537037037  C 5.72477064220184 87.099537037037  4.84403669724771 82.6782407407407  4.84403669724771 82.6782407407407  C 4.84403669724771 82.6782407407407  8.36697247706422 80.9097222222222  8.36697247706422 80.9097222222222  C 8.36697247706422 80.9097222222222  9.24770642201835 83.5625  9.24770642201835 83.5625  C 9.24770642201835 83.5625  12.7706422018349 84.4467592592593  12.7706422018349 84.4467592592593  C 12.7706422018349 84.4467592592593  13.651376146789 86.2152777777778  13.651376146789 86.2152777777778  C 13.651376146789 86.2152777777778  14.5321100917431 82.6782407407407  14.5321100917431 82.6782407407407  C 14.5321100917431 82.6782407407407  11.8899082568807 81.7939814814815  11.8899082568807 81.7939814814815  C 11.8899082568807 81.7939814814815  12.7706422018349 80.025462962963  12.7706422018349 80.025462962963  C 12.7706422018349 80.025462962963  15.4128440366972 80.9097222222222  15.4128440366972 80.9097222222222  C 15.4128440366972 80.9097222222222  16.2935779816514 79.1412037037037  16.2935779816514 79.1412037037037  C 16.2935779816514 79.1412037037037  13.651376146789 72.9513888888889  13.651376146789 72.9513888888889  C 13.651376146789 72.9513888888889  14.5321100917431 72.0671296296296  14.5321100917431 72.0671296296296  C 14.5321100917431 72.0671296296296  21.5779816513761 72.9513888888889  21.5779816513761 72.9513888888889  C 21.5779816513761 72.9513888888889  23.3394495412844 76.4884259259259  23.3394495412844 76.4884259259259  C 23.3394495412844 76.4884259259259  22.4587155963303 80.025462962963  22.4587155963303 80.025462962963  C 22.4587155963303 80.025462962963  19.8165137614679 80.9097222222222  19.8165137614679 80.9097222222222  C 19.8165137614679 80.9097222222222  22.4587155963303 81.7939814814815  22.4587155963303 81.7939814814815  C 22.4587155963303 81.7939814814815  19.8165137614679 82.6782407407407  19.8165137614679 82.6782407407407  C 19.8165137614679 82.6782407407407  27.743119266055 82.6782407407407  27.743119266055 82.6782407407407  C 27.743119266055 82.6782407407407  32.1467889908257 83.5625  32.1467889908257 83.5625  C 32.1467889908257 83.5625  33.0275229357798 85.3310185185185  33.0275229357798 85.3310185185185  C 33.0275229357798 85.3310185185185  32.1467889908257 82.6782407407407  32.1467889908257 82.6782407407407  C 32.1467889908257 82.6782407407407  36.5504587155963 82.6782407407407  36.5504587155963 82.6782407407407  C 36.5504587155963 82.6782407407407  37.4311926605505 79.1412037037037  37.4311926605505 79.1412037037037  C 37.4311926605505 79.1412037037037  41.8348623853211 79.1412037037037  41.8348623853211 79.1412037037037  C 41.8348623853211 79.1412037037037  49.7614678899083 72.0671296296296  49.7614678899083 72.0671296296296  C 49.7614678899083 72.0671296296296  51.5229357798165 68.5300925925926  51.5229357798165 68.5300925925926  C 51.5229357798165 68.5300925925926  49.7614678899083 67.6458333333333  49.7614678899083 67.6458333333333  C 49.7614678899083 67.6458333333333  48.8807339449541 70.2986111111111  48.8807339449541 70.2986111111111  C 48.8807339449541 70.2986111111111  49.7614678899083 65.8773148148148  49.7614678899083 65.8773148148148  C 49.7614678899083 65.8773148148148  44.4770642201835 62.3402777777778  44.4770642201835 62.3402777777778  C 44.4770642201835 62.3402777777778  46.2385321100917 57.9189814814815  46.2385321100917 57.9189814814815  C 46.2385321100917 57.9189814814815  51.5229357798165 54.3819444444444  51.5229357798165 54.3819444444444  C 51.5229357798165 54.3819444444444  51.5229357798165 51.7291666666667  51.5229357798165 51.7291666666667  C 51.5229357798165 51.7291666666667  48.8807339449541 46.4236111111111  48.8807339449541 46.4236111111111  C 48.8807339449541 46.4236111111111  43.5963302752294 44.6550925925926  43.5963302752294 44.6550925925926  C 43.5963302752294 44.6550925925926  41.8348623853211 45.5393518518519  41.8348623853211 45.5393518518519  C 41.8348623853211 45.5393518518519  40.0733944954128 42.8865740740741  40.0733944954128 42.8865740740741  C 40.0733944954128 42.8865740740741  34.7889908256881 43.7708333333333  34.7889908256881 43.7708333333333  C 34.7889908256881 43.7708333333333  33.0275229357798 42.8865740740741  33.0275229357798 42.8865740740741  C 33.0275229357798 42.8865740740741  33.0275229357798 37.5810185185185  33.0275229357798 37.5810185185185  C 33.0275229357798 37.5810185185185  29.5045871559633 37.5810185185185  29.5045871559633 37.5810185185185  C 29.5045871559633 37.5810185185185  33.0275229357798 33.1597222222222  33.0275229357798 33.1597222222222  C 33.0275229357798 33.1597222222222  32.1467889908257 30.5069444444444  32.1467889908257 30.5069444444444  C 32.1467889908257 30.5069444444444  34.7889908256881 30.5069444444444  34.7889908256881 30.5069444444444  C 34.7889908256881 30.5069444444444  35.6697247706422 28.7384259259259  35.6697247706422 28.7384259259259  C 35.6697247706422 28.7384259259259  32.1467889908257 23.4328703703704  32.1467889908257 23.4328703703704  C 32.1467889908257 23.4328703703704  32.1467889908257 12.8217592592593  32.1467889908257 12.8217592592593  C 32.1467889908257 12.8217592592593  28.6238532110092 12.8217592592593  28.6238532110092 12.8217592592593  C 28.6238532110092 12.8217592592593  28.6238532110092 10.1689814814815  28.6238532110092 10.1689814814815  C 28.6238532110092 10.1689814814815  32.1467889908257 10.1689814814815  32.1467889908257 10.1689814814815  C 32.1467889908257 10.1689814814815  31.2660550458716 5.74768518518519  31.2660550458716 5.74768518518519  C 31.2660550458716 5.74768518518519  33.0275229357798 4.86342592592593  33.0275229357798 4.86342592592593  C 33.0275229357798 4.86342592592593  36.5504587155963 6.63194444444444  36.5504587155963 6.63194444444444  C 36.5504587155963 6.63194444444444  42.7155963302752 0.44212962962963  42.7155963302752 0.44212962962963  C 42.7155963302752 0.44212962962963  53.2844036697248 2.21064814814815  53.2844036697248 2.21064814814815  C 53.2844036697248 2.21064814814815  53.2844036697248 8.40046296296296  53.2844036697248 8.40046296296296  C 53.2844036697248 8.40046296296296  61.2110091743119 13.7060185185185  61.2110091743119 13.7060185185185  C 61.2110091743119 13.7060185185185  64.7339449541284 12.8217592592593  64.7339449541284 12.8217592592593  C 64.7339449541284 12.8217592592593  64.7339449541284 14.5902777777778  64.7339449541284 14.5902777777778  C 64.7339449541284 14.5902777777778  71.7798165137615 22.5486111111111  71.7798165137615 22.5486111111111  C 71.7798165137615 22.5486111111111  76.1834862385321 20.7800925925926  76.1834862385321 20.7800925925926  C 76.1834862385321 20.7800925925926  80.5871559633027 24.3171296296296  80.5871559633027 24.3171296296296  C 80.5871559633027 24.3171296296296  80.5871559633027 26.0856481481481  80.5871559633027 26.0856481481481  C 80.5871559633027 26.0856481481481  88.5137614678899 34.0439814814815  88.5137614678899 34.0439814814815  C 88.5137614678899 34.0439814814815  84.9908256880734 37.5810185185185  84.9908256880734 37.5810185185185  C 84.9908256880734 37.5810185185185  86.7522935779816 41.1180555555556  86.7522935779816 41.1180555555556  C 86.7522935779816 41.1180555555556  87.6330275229358 40.2337962962963  87.6330275229358 40.2337962962963  C 87.6330275229358 40.2337962962963  88.5137614678899 45.5393518518519  88.5137614678899 45.5393518518519  C 88.5137614678899 45.5393518518519  92.0366972477064 49.0763888888889  92.0366972477064 49.0763888888889  C 92.0366972477064 49.0763888888889  95.5596330275229 49.9606481481481  95.5596330275229 49.9606481481481  C 95.5596330275229 49.9606481481481  92.0366972477064 53.4976851851852  92.0366972477064 53.4976851851852  C 92.0366972477064 53.4976851851852  92.0366972477064 49.9606481481481  92.0366972477064 49.9606481481481  C 92.0366972477064 49.9606481481481  88.5137614678899 48.1921296296296  88.5137614678899 48.1921296296296  C 88.5137614678899 48.1921296296296  88.5137614678899 55.2662037037037  88.5137614678899 55.2662037037037  C 88.5137614678899 55.2662037037037  91.1559633027523 59.6875  91.1559633027523 59.6875  C 91.1559633027523 59.6875  87.6330275229358 59.6875  87.6330275229358 59.6875  C 87.6330275229358 59.6875  86.7522935779816 62.3402777777778  86.7522935779816 62.3402777777778  C 86.7522935779816 62.3402777777778  92.0366972477064 62.3402777777778  92.0366972477064 62.3402777777778  C 92.0366972477064 62.3402777777778  92.9174311926605 64.1087962962963  92.9174311926605 64.1087962962963  C 92.9174311926605 64.1087962962963  93.7981651376147 71.1828703703704  93.7981651376147 71.1828703703704  C 93.7981651376147 71.1828703703704  92.0366972477064 71.1828703703704  92.0366972477064 71.1828703703704  C 92.0366972477064 71.1828703703704  91.1559633027523 72.9513888888889  91.1559633027523 72.9513888888889  C 91.1559633027523 72.9513888888889  92.9174311926605 78.2569444444444  92.9174311926605 78.2569444444444  C 92.9174311926605 78.2569444444444  91.1559633027523 79.1412037037037  91.1559633027523 79.1412037037037  C 91.1559633027523 79.1412037037037  92.0366972477064 80.9097222222222  92.0366972477064 80.9097222222222  C 92.0366972477064 80.9097222222222  93.7981651376147 80.025462962963  93.7981651376147 80.025462962963  C 93.7981651376147 80.025462962963  91.1559633027523 83.5625  91.1559633027523 83.5625  C 91.1559633027523 83.5625  93.7981651376147 84.4467592592593  93.7981651376147 84.4467592592593  C 93.7981651376147 84.4467592592593  90.2752293577982 86.2152777777778  90.2752293577982 86.2152777777778  C 90.2752293577982 86.2152777777778  86.7522935779816 90.6365740740741  86.7522935779816 90.6365740740741  C 86.7522935779816 90.6365740740741  84.9908256880734 96.8263888888889  84.9908256880734 96.8263888888889  C 84.9908256880734 96.8263888888889  86.7522935779816 100.363425925926  86.7522935779816 100.363425925926  C 86.7522935779816 100.363425925926  84.9908256880734 102.131944444444  84.9908256880734 102.131944444444  C 84.9908256880734 102.131944444444  84.9908256880734 104.784722222222  84.9908256880734 104.784722222222  C 84.9908256880734 104.784722222222  83.2293577981651 103.900462962963  83.2293577981651 103.900462962963  C 83.2293577981651 103.900462962963  84.1100917431193 106.553240740741  84.1100917431193 106.553240740741  C 84.1100917431193 106.553240740741  80.5871559633027 108.321759259259  80.5871559633027 108.321759259259  C 80.5871559633027 108.321759259259  83.2293577981651 110.090277777778  83.2293577981651 110.090277777778  C 83.2293577981651 110.090277777778  83.2293577981651 122.469907407407  83.2293577981651 122.469907407407  C 83.2293577981651 122.469907407407  82.348623853211 124.238425925926  82.348623853211 124.238425925926  C 82.348623853211 124.238425925926  77.9449541284404 120.701388888889  77.9449541284404 120.701388888889  C 77.9449541284404 120.701388888889  70.0183486238532 119.81712962963  70.0183486238532 119.81712962963  C 70.0183486238532 119.81712962963  69.1376146788991 123.354166666667  69.1376146788991 123.354166666667  C 69.1376146788991 123.354166666667  71.7798165137615 132.196759259259  71.7798165137615 132.196759259259  C 71.7798165137615 132.196759259259  70.0183486238532 137.502314814815  70.0183486238532 137.502314814815  C 70.0183486238532 137.502314814815  73.5412844036697 140.155092592593  73.5412844036697 140.155092592593  C 73.5412844036697 140.155092592593  73.5412844036697 145.460648148148  73.5412844036697 145.460648148148  C 73.5412844036697 145.460648148148  70.8990825688073 148.113425925926  70.8990825688073 148.113425925926  C 70.8990825688073 148.113425925926  70.0183486238532 152.534722222222  70.0183486238532 152.534722222222  C 70.0183486238532 152.534722222222  70.8990825688073 151.650462962963  70.8990825688073 151.650462962963  C 70.8990825688073 151.650462962963  73.5412844036697 156.956018518519  73.5412844036697 156.956018518519  C 73.5412844036697 156.956018518519  76.1834862385321 156.956018518519  76.1834862385321 156.956018518519  C 76.1834862385321 156.956018518519  76.1834862385321 159.608796296296  76.1834862385321 159.608796296296  C 76.1834862385321 159.608796296296  77.9449541284404 159.608796296296  77.9449541284404 159.608796296296  C 77.9449541284404 159.608796296296  78.8256880733945 164.030092592593  78.8256880733945 164.030092592593  C 78.8256880733945 164.030092592593  72.6605504587156 164.914351851852  72.6605504587156 164.914351851852  C 72.6605504587156 164.914351851852  69.1376146788991 167.56712962963  69.1376146788991 167.56712962963  C 69.1376146788991 167.56712962963  67.3761467889908 174.641203703704  67.3761467889908 174.641203703704  C 67.3761467889908 174.641203703704  61.2110091743119 179.946759259259  61.2110091743119 179.946759259259  C 61.2110091743119 179.946759259259  56.8073394495413 190.55787037037  56.8073394495413 190.55787037037  C 56.8073394495413 190.55787037037  48.8807339449541 178.178240740741  48.8807339449541 178.178240740741  C 48.8807339449541 178.178240740741  32.1467889908257 168.451388888889  32.1467889908257 168.451388888889  C 32.1467889908257 168.451388888889  24.2201834862385 167.56712962963  24.2201834862385 167.56712962963  C 24.2201834862385 167.56712962963  11.0091743119266 173.756944444444  11.0091743119266 173.756944444444  C 11.0091743119266 173.756944444444  3.96330275229358 174.641203703704  3.96330275229358 174.641203703704  C 3.96330275229358 174.641203703704  1.32110091743119 171.988425925926  1.32110091743119 171.988425925926  C 1.32110091743119 171.988425925926  2.20183486238532 169.335648148148  2.20183486238532 169.335648148148  C 2.20183486238532 169.335648148148  0.440366972477064 165.798611111111  0.440366972477064 165.798611111111  C 0.440366972477064 165.798611111111  10.1284403669725 162.261574074074  10.1284403669725 162.261574074074  C 10.1284403669725 162.261574074074  7.48623853211009 159.608796296296  7.48623853211009 159.608796296296  C 7.48623853211009 159.608796296296  8.36697247706422 157.840277777778  8.36697247706422 157.840277777778  Z " fill-rule="nonzero" fill="#0fd0e6" stroke="none" transform="matrix(1 0 0 1 885 455 )" />
    <path d="M 8.36697247706422 157.840277777778  C 8.36697247706422 157.840277777778  7.48623853211009 156.956018518519  7.48623853211009 156.956018518519  C 7.48623853211009 156.956018518519  8.36697247706422 154.303240740741  8.36697247706422 154.303240740741  C 8.36697247706422 154.303240740741  11.0091743119266 153.418981481481  11.0091743119266 153.418981481481  C 11.0091743119266 153.418981481481  15.4128440366972 143.69212962963  15.4128440366972 143.69212962963  C 15.4128440366972 143.69212962963  18.9357798165138 144.576388888889  18.9357798165138 144.576388888889  C 18.9357798165138 144.576388888889  18.9357798165138 141.923611111111  18.9357798165138 141.923611111111  C 18.9357798165138 141.923611111111  22.4587155963303 134.849537037037  22.4587155963303 134.849537037037  C 22.4587155963303 134.849537037037  18.0550458715596 133.965277777778  18.0550458715596 133.965277777778  C 18.0550458715596 133.965277777778  18.0550458715596 128.659722222222  18.0550458715596 128.659722222222  C 18.0550458715596 128.659722222222  17.1743119266055 130.428240740741  17.1743119266055 130.428240740741  C 17.1743119266055 130.428240740741  12.7706422018349 126.891203703704  12.7706422018349 126.891203703704  C 12.7706422018349 126.891203703704  8.36697247706422 127.775462962963  8.36697247706422 127.775462962963  C 8.36697247706422 127.775462962963  11.0091743119266 120.701388888889  11.0091743119266 120.701388888889  C 11.0091743119266 120.701388888889  14.5321100917431 118.048611111111  14.5321100917431 118.048611111111  C 14.5321100917431 118.048611111111  12.7706422018349 117.164351851852  12.7706422018349 117.164351851852  C 12.7706422018349 117.164351851852  9.24770642201835 118.93287037037  9.24770642201835 118.93287037037  C 9.24770642201835 118.93287037037  11.0091743119266 115.395833333333  11.0091743119266 115.395833333333  C 11.0091743119266 115.395833333333  9.24770642201835 113.627314814815  9.24770642201835 113.627314814815  C 9.24770642201835 113.627314814815  10.1284403669725 110.974537037037  10.1284403669725 110.974537037037  C 10.1284403669725 110.974537037037  11.8899082568807 110.974537037037  11.8899082568807 110.974537037037  C 11.8899082568807 110.974537037037  0.440366972477064 99.4791666666667  0.440366972477064 99.4791666666667  C 0.440366972477064 99.4791666666667  2.20183486238532 91.5208333333333  2.20183486238532 91.5208333333333  C 2.20183486238532 91.5208333333333  5.72477064220184 87.099537037037  5.72477064220184 87.099537037037  C 5.72477064220184 87.099537037037  4.84403669724771 82.6782407407407  4.84403669724771 82.6782407407407  C 4.84403669724771 82.6782407407407  8.36697247706422 80.9097222222222  8.36697247706422 80.9097222222222  C 8.36697247706422 80.9097222222222  9.24770642201835 83.5625  9.24770642201835 83.5625  C 9.24770642201835 83.5625  12.7706422018349 84.4467592592593  12.7706422018349 84.4467592592593  C 12.7706422018349 84.4467592592593  13.651376146789 86.2152777777778  13.651376146789 86.2152777777778  C 13.651376146789 86.2152777777778  14.5321100917431 82.6782407407407  14.5321100917431 82.6782407407407  C 14.5321100917431 82.6782407407407  11.8899082568807 81.7939814814815  11.8899082568807 81.7939814814815  C 11.8899082568807 81.7939814814815  12.7706422018349 80.025462962963  12.7706422018349 80.025462962963  C 12.7706422018349 80.025462962963  15.4128440366972 80.9097222222222  15.4128440366972 80.9097222222222  C 15.4128440366972 80.9097222222222  16.2935779816514 79.1412037037037  16.2935779816514 79.1412037037037  C 16.2935779816514 79.1412037037037  13.651376146789 72.9513888888889  13.651376146789 72.9513888888889  C 13.651376146789 72.9513888888889  14.5321100917431 72.0671296296296  14.5321100917431 72.0671296296296  C 14.5321100917431 72.0671296296296  21.5779816513761 72.9513888888889  21.5779816513761 72.9513888888889  C 21.5779816513761 72.9513888888889  23.3394495412844 76.4884259259259  23.3394495412844 76.4884259259259  C 23.3394495412844 76.4884259259259  22.4587155963303 80.025462962963  22.4587155963303 80.025462962963  C 22.4587155963303 80.025462962963  19.8165137614679 80.9097222222222  19.8165137614679 80.9097222222222  C 19.8165137614679 80.9097222222222  22.4587155963303 81.7939814814815  22.4587155963303 81.7939814814815  C 22.4587155963303 81.7939814814815  19.8165137614679 82.6782407407407  19.8165137614679 82.6782407407407  C 19.8165137614679 82.6782407407407  27.743119266055 82.6782407407407  27.743119266055 82.6782407407407  C 27.743119266055 82.6782407407407  32.1467889908257 83.5625  32.1467889908257 83.5625  C 32.1467889908257 83.5625  33.0275229357798 85.3310185185185  33.0275229357798 85.3310185185185  C 33.0275229357798 85.3310185185185  32.1467889908257 82.6782407407407  32.1467889908257 82.6782407407407  C 32.1467889908257 82.6782407407407  36.5504587155963 82.6782407407407  36.5504587155963 82.6782407407407  C 36.5504587155963 82.6782407407407  37.4311926605505 79.1412037037037  37.4311926605505 79.1412037037037  C 37.4311926605505 79.1412037037037  41.8348623853211 79.1412037037037  41.8348623853211 79.1412037037037  C 41.8348623853211 79.1412037037037  49.7614678899083 72.0671296296296  49.7614678899083 72.0671296296296  C 49.7614678899083 72.0671296296296  51.5229357798165 68.5300925925926  51.5229357798165 68.5300925925926  C 51.5229357798165 68.5300925925926  49.7614678899083 67.6458333333333  49.7614678899083 67.6458333333333  C 49.7614678899083 67.6458333333333  48.8807339449541 70.2986111111111  48.8807339449541 70.2986111111111  C 48.8807339449541 70.2986111111111  49.7614678899083 65.8773148148148  49.7614678899083 65.8773148148148  C 49.7614678899083 65.8773148148148  44.4770642201835 62.3402777777778  44.4770642201835 62.3402777777778  C 44.4770642201835 62.3402777777778  46.2385321100917 57.9189814814815  46.2385321100917 57.9189814814815  C 46.2385321100917 57.9189814814815  51.5229357798165 54.3819444444444  51.5229357798165 54.3819444444444  C 51.5229357798165 54.3819444444444  51.5229357798165 51.7291666666667  51.5229357798165 51.7291666666667  C 51.5229357798165 51.7291666666667  48.8807339449541 46.4236111111111  48.8807339449541 46.4236111111111  C 48.8807339449541 46.4236111111111  43.5963302752294 44.6550925925926  43.5963302752294 44.6550925925926  C 43.5963302752294 44.6550925925926  41.8348623853211 45.5393518518519  41.8348623853211 45.5393518518519  C 41.8348623853211 45.5393518518519  40.0733944954128 42.8865740740741  40.0733944954128 42.8865740740741  C 40.0733944954128 42.8865740740741  34.7889908256881 43.7708333333333  34.7889908256881 43.7708333333333  C 34.7889908256881 43.7708333333333  33.0275229357798 42.8865740740741  33.0275229357798 42.8865740740741  C 33.0275229357798 42.8865740740741  33.0275229357798 37.5810185185185  33.0275229357798 37.5810185185185  C 33.0275229357798 37.5810185185185  29.5045871559633 37.5810185185185  29.5045871559633 37.5810185185185  C 29.5045871559633 37.5810185185185  33.0275229357798 33.1597222222222  33.0275229357798 33.1597222222222  C 33.0275229357798 33.1597222222222  32.1467889908257 30.5069444444444  32.1467889908257 30.5069444444444  C 32.1467889908257 30.5069444444444  34.7889908256881 30.5069444444444  34.7889908256881 30.5069444444444  C 34.7889908256881 30.5069444444444  35.6697247706422 28.7384259259259  35.6697247706422 28.7384259259259  C 35.6697247706422 28.7384259259259  32.1467889908257 23.4328703703704  32.1467889908257 23.4328703703704  C 32.1467889908257 23.4328703703704  32.1467889908257 12.8217592592593  32.1467889908257 12.8217592592593  C 32.1467889908257 12.8217592592593  28.6238532110092 12.8217592592593  28.6238532110092 12.8217592592593  C 28.6238532110092 12.8217592592593  28.6238532110092 10.1689814814815  28.6238532110092 10.1689814814815  C 28.6238532110092 10.1689814814815  32.1467889908257 10.1689814814815  32.1467889908257 10.1689814814815  C 32.1467889908257 10.1689814814815  31.2660550458716 5.74768518518519  31.2660550458716 5.74768518518519  C 31.2660550458716 5.74768518518519  33.0275229357798 4.86342592592593  33.0275229357798 4.86342592592593  C 33.0275229357798 4.86342592592593  36.5504587155963 6.63194444444444  36.5504587155963 6.63194444444444  C 36.5504587155963 6.63194444444444  42.7155963302752 0.44212962962963  42.7155963302752 0.44212962962963  C 42.7155963302752 0.44212962962963  53.2844036697248 2.21064814814815  53.2844036697248 2.21064814814815  C 53.2844036697248 2.21064814814815  53.2844036697248 8.40046296296296  53.2844036697248 8.40046296296296  C 53.2844036697248 8.40046296296296  61.2110091743119 13.7060185185185  61.2110091743119 13.7060185185185  C 61.2110091743119 13.7060185185185  64.7339449541284 12.8217592592593  64.7339449541284 12.8217592592593  C 64.7339449541284 12.8217592592593  64.7339449541284 14.5902777777778  64.7339449541284 14.5902777777778  C 64.7339449541284 14.5902777777778  71.7798165137615 22.5486111111111  71.7798165137615 22.5486111111111  C 71.7798165137615 22.5486111111111  76.1834862385321 20.7800925925926  76.1834862385321 20.7800925925926  C 76.1834862385321 20.7800925925926  80.5871559633027 24.3171296296296  80.5871559633027 24.3171296296296  C 80.5871559633027 24.3171296296296  80.5871559633027 26.0856481481481  80.5871559633027 26.0856481481481  C 80.5871559633027 26.0856481481481  88.5137614678899 34.0439814814815  88.5137614678899 34.0439814814815  C 88.5137614678899 34.0439814814815  84.9908256880734 37.5810185185185  84.9908256880734 37.5810185185185  C 84.9908256880734 37.5810185185185  86.7522935779816 41.1180555555556  86.7522935779816 41.1180555555556  C 86.7522935779816 41.1180555555556  87.6330275229358 40.2337962962963  87.6330275229358 40.2337962962963  C 87.6330275229358 40.2337962962963  88.5137614678899 45.5393518518519  88.5137614678899 45.5393518518519  C 88.5137614678899 45.5393518518519  92.0366972477064 49.0763888888889  92.0366972477064 49.0763888888889  C 92.0366972477064 49.0763888888889  95.5596330275229 49.9606481481481  95.5596330275229 49.9606481481481  C 95.5596330275229 49.9606481481481  92.0366972477064 53.4976851851852  92.0366972477064 53.4976851851852  C 92.0366972477064 53.4976851851852  92.0366972477064 49.9606481481481  92.0366972477064 49.9606481481481  C 92.0366972477064 49.9606481481481  88.5137614678899 48.1921296296296  88.5137614678899 48.1921296296296  C 88.5137614678899 48.1921296296296  88.5137614678899 55.2662037037037  88.5137614678899 55.2662037037037  C 88.5137614678899 55.2662037037037  91.1559633027523 59.6875  91.1559633027523 59.6875  C 91.1559633027523 59.6875  87.6330275229358 59.6875  87.6330275229358 59.6875  C 87.6330275229358 59.6875  86.7522935779816 62.3402777777778  86.7522935779816 62.3402777777778  C 86.7522935779816 62.3402777777778  92.0366972477064 62.3402777777778  92.0366972477064 62.3402777777778  C 92.0366972477064 62.3402777777778  92.9174311926605 64.1087962962963  92.9174311926605 64.1087962962963  C 92.9174311926605 64.1087962962963  93.7981651376147 71.1828703703704  93.7981651376147 71.1828703703704  C 93.7981651376147 71.1828703703704  92.0366972477064 71.1828703703704  92.0366972477064 71.1828703703704  C 92.0366972477064 71.1828703703704  91.1559633027523 72.9513888888889  91.1559633027523 72.9513888888889  C 91.1559633027523 72.9513888888889  92.9174311926605 78.2569444444444  92.9174311926605 78.2569444444444  C 92.9174311926605 78.2569444444444  91.1559633027523 79.1412037037037  91.1559633027523 79.1412037037037  C 91.1559633027523 79.1412037037037  92.0366972477064 80.9097222222222  92.0366972477064 80.9097222222222  C 92.0366972477064 80.9097222222222  93.7981651376147 80.025462962963  93.7981651376147 80.025462962963  C 93.7981651376147 80.025462962963  91.1559633027523 83.5625  91.1559633027523 83.5625  C 91.1559633027523 83.5625  93.7981651376147 84.4467592592593  93.7981651376147 84.4467592592593  C 93.7981651376147 84.4467592592593  90.2752293577982 86.2152777777778  90.2752293577982 86.2152777777778  C 90.2752293577982 86.2152777777778  86.7522935779816 90.6365740740741  86.7522935779816 90.6365740740741  C 86.7522935779816 90.6365740740741  84.9908256880734 96.8263888888889  84.9908256880734 96.8263888888889  C 84.9908256880734 96.8263888888889  86.7522935779816 100.363425925926  86.7522935779816 100.363425925926  C 86.7522935779816 100.363425925926  84.9908256880734 102.131944444444  84.9908256880734 102.131944444444  C 84.9908256880734 102.131944444444  84.9908256880734 104.784722222222  84.9908256880734 104.784722222222  C 84.9908256880734 104.784722222222  83.2293577981651 103.900462962963  83.2293577981651 103.900462962963  C 83.2293577981651 103.900462962963  84.1100917431193 106.553240740741  84.1100917431193 106.553240740741  C 84.1100917431193 106.553240740741  80.5871559633027 108.321759259259  80.5871559633027 108.321759259259  C 80.5871559633027 108.321759259259  83.2293577981651 110.090277777778  83.2293577981651 110.090277777778  C 83.2293577981651 110.090277777778  83.2293577981651 122.469907407407  83.2293577981651 122.469907407407  C 83.2293577981651 122.469907407407  82.348623853211 124.238425925926  82.348623853211 124.238425925926  C 82.348623853211 124.238425925926  77.9449541284404 120.701388888889  77.9449541284404 120.701388888889  C 77.9449541284404 120.701388888889  70.0183486238532 119.81712962963  70.0183486238532 119.81712962963  C 70.0183486238532 119.81712962963  69.1376146788991 123.354166666667  69.1376146788991 123.354166666667  C 69.1376146788991 123.354166666667  71.7798165137615 132.196759259259  71.7798165137615 132.196759259259  C 71.7798165137615 132.196759259259  70.0183486238532 137.502314814815  70.0183486238532 137.502314814815  C 70.0183486238532 137.502314814815  73.5412844036697 140.155092592593  73.5412844036697 140.155092592593  C 73.5412844036697 140.155092592593  73.5412844036697 145.460648148148  73.5412844036697 145.460648148148  C 73.5412844036697 145.460648148148  70.8990825688073 148.113425925926  70.8990825688073 148.113425925926  C 70.8990825688073 148.113425925926  70.0183486238532 152.534722222222  70.0183486238532 152.534722222222  C 70.0183486238532 152.534722222222  70.8990825688073 151.650462962963  70.8990825688073 151.650462962963  C 70.8990825688073 151.650462962963  73.5412844036697 156.956018518519  73.5412844036697 156.956018518519  C 73.5412844036697 156.956018518519  76.1834862385321 156.956018518519  76.1834862385321 156.956018518519  C 76.1834862385321 156.956018518519  76.1834862385321 159.608796296296  76.1834862385321 159.608796296296  C 76.1834862385321 159.608796296296  77.9449541284404 159.608796296296  77.9449541284404 159.608796296296  C 77.9449541284404 159.608796296296  78.8256880733945 164.030092592593  78.8256880733945 164.030092592593  C 78.8256880733945 164.030092592593  72.6605504587156 164.914351851852  72.6605504587156 164.914351851852  C 72.6605504587156 164.914351851852  69.1376146788991 167.56712962963  69.1376146788991 167.56712962963  C 69.1376146788991 167.56712962963  67.3761467889908 174.641203703704  67.3761467889908 174.641203703704  C 67.3761467889908 174.641203703704  61.2110091743119 179.946759259259  61.2110091743119 179.946759259259  C 61.2110091743119 179.946759259259  56.8073394495413 190.55787037037  56.8073394495413 190.55787037037  C 56.8073394495413 190.55787037037  48.8807339449541 178.178240740741  48.8807339449541 178.178240740741  C 48.8807339449541 178.178240740741  32.1467889908257 168.451388888889  32.1467889908257 168.451388888889  C 32.1467889908257 168.451388888889  24.2201834862385 167.56712962963  24.2201834862385 167.56712962963  C 24.2201834862385 167.56712962963  11.0091743119266 173.756944444444  11.0091743119266 173.756944444444  C 11.0091743119266 173.756944444444  3.96330275229358 174.641203703704  3.96330275229358 174.641203703704  C 3.96330275229358 174.641203703704  1.32110091743119 171.988425925926  1.32110091743119 171.988425925926  C 1.32110091743119 171.988425925926  2.20183486238532 169.335648148148  2.20183486238532 169.335648148148  C 2.20183486238532 169.335648148148  0.440366972477064 165.798611111111  0.440366972477064 165.798611111111  C 0.440366972477064 165.798611111111  10.1284403669725 162.261574074074  10.1284403669725 162.261574074074  C 10.1284403669725 162.261574074074  7.48623853211009 159.608796296296  7.48623853211009 159.608796296296  C 7.48623853211009 159.608796296296  8.36697247706422 157.840277777778  8.36697247706422 157.840277777778  Z " stroke-width="2" stroke-dasharray="1,1" stroke="#999999" fill="none" transform="matrix(1 0 0 1 885 455 )" mask="url(#clip2090)" />
  </g>
</svg>