<?xml version="1.0" encoding="utf-8"?>
<svg version="1.1" xmlns:xlink="http://www.w3.org/1999/xlink" width="150px" height="112px" xmlns="http://www.w3.org/2000/svg">
  <defs>
    <mask fill="white" id="clip2092">
      <path d="M 3.08823529411765 20.7244094488189  C 3.08823529411765 20.7244094488189  3.08823529411765 18.0787401574803  3.08823529411765 18.0787401574803  C 3.08823529411765 18.0787401574803  7.5 14.5511811023622  7.5 14.5511811023622  C 7.5 14.5511811023622  12.7941176470588 12.7874015748031  12.7941176470588 12.7874015748031  C 12.7941176470588 12.7874015748031  35.7352941176471 14.5511811023622  35.7352941176471 14.5511811023622  C 35.7352941176471 14.5511811023622  45.4411764705882 18.0787401574803  45.4411764705882 18.0787401574803  C 45.4411764705882 18.0787401574803  50.7352941176471 17.1968503937008  50.7352941176471 17.1968503937008  C 50.7352941176471 17.1968503937008  63.9705882352941 3.08661417322835  63.9705882352941 3.08661417322835  C 63.9705882352941 3.08661417322835  68.3823529411765 0.440944881889764  68.3823529411765 0.440944881889764  C 68.3823529411765 0.440944881889764  70.1470588235294 3.08661417322835  70.1470588235294 3.08661417322835  C 70.1470588235294 3.08661417322835  69.2647058823529 6.61417322834646  69.2647058823529 6.61417322834646  C 69.2647058823529 6.61417322834646  71.9117647058824 9.25984251968504  71.9117647058824 9.25984251968504  C 71.9117647058824 9.25984251968504  79.8529411764706 8.37795275590551  79.8529411764706 8.37795275590551  C 79.8529411764706 8.37795275590551  89.5588235294118 3.08661417322835  89.5588235294118 3.08661417322835  C 89.5588235294118 3.08661417322835  96.6176470588235 2.20472440944882  96.6176470588235 2.20472440944882  C 96.6176470588235 2.20472440944882  101.029411764706 3.08661417322835  101.029411764706 3.08661417322835  C 101.029411764706 3.08661417322835  113.382352941176 10.1417322834646  113.382352941176 10.1417322834646  C 113.382352941176 10.1417322834646  116.911764705882 12.7874015748031  116.911764705882 12.7874015748031  C 116.911764705882 12.7874015748031  124.852941176471 25.1338582677165  124.852941176471 25.1338582677165  C 124.852941176471 25.1338582677165  126.617647058824 41.8897637795276  126.617647058824 41.8897637795276  C 126.617647058824 41.8897637795276  130.147058823529 54.2362204724409  130.147058823529 54.2362204724409  C 130.147058823529 54.2362204724409  134.558823529412 60.4094488188976  134.558823529412 60.4094488188976  C 134.558823529412 60.4094488188976  144.264705882353 86.8661417322835  144.264705882353 86.8661417322835  C 144.264705882353 86.8661417322835  149.558823529412 95.6850393700787  149.558823529412 95.6850393700787  C 149.558823529412 95.6850393700787  147.794117647059 102.740157480315  147.794117647059 102.740157480315  C 147.794117647059 102.740157480315  147.794117647059 111.55905511811  147.794117647059 111.55905511811  C 147.794117647059 111.55905511811  124.852941176471 98.3307086614173  124.852941176471 98.3307086614173  C 124.852941176471 98.3307086614173  99.2647058823529 87.748031496063  99.2647058823529 87.748031496063  C 99.2647058823529 87.748031496063  91.3235294117647 86.8661417322835  91.3235294117647 86.8661417322835  C 91.3235294117647 86.8661417322835  78.0882352941177 85.9842519685039  78.0882352941177 85.9842519685039  C 78.0882352941177 85.9842519685039  69.2647058823529 89.511811023622  69.2647058823529 89.511811023622  C 69.2647058823529 89.511811023622  55.1470588235294 90.3937007874016  55.1470588235294 90.3937007874016  C 55.1470588235294 90.3937007874016  51.6176470588235 93.0393700787401  51.6176470588235 93.0393700787401  C 51.6176470588235 93.0393700787401  28.6764705882353 100.976377952756  28.6764705882353 100.976377952756  C 28.6764705882353 100.976377952756  23.3823529411765 100.976377952756  23.3823529411765 100.976377952756  C 23.3823529411765 100.976377952756  12.7941176470588 93.0393700787401  12.7941176470588 93.0393700787401  C 12.7941176470588 93.0393700787401  13.6764705882353 89.511811023622  13.6764705882353 89.511811023622  C 13.6764705882353 89.511811023622  17.2058823529412 89.511811023622  17.2058823529412 89.511811023622  C 17.2058823529412 89.511811023622  15.4411764705882 76.2834645669291  15.4411764705882 76.2834645669291  C 15.4411764705882 76.2834645669291  18.0882352941176 76.2834645669291  18.0882352941176 76.2834645669291  C 18.0882352941176 76.2834645669291  18.9705882352941 74.5196850393701  18.9705882352941 74.5196850393701  C 18.9705882352941 74.5196850393701  22.5 73.6377952755906  22.5 73.6377952755906  C 22.5 73.6377952755906  21.6176470588235 70.992125984252  21.6176470588235 70.992125984252  C 21.6176470588235 70.992125984252  15.4411764705882 63.9370078740157  15.4411764705882 63.9370078740157  C 15.4411764705882 63.9370078740157  11.0294117647059 61.2913385826772  11.0294117647059 61.2913385826772  C 11.0294117647059 61.2913385826772  8.38235294117647 63.0551181102362  8.38235294117647 63.0551181102362  C 8.38235294117647 63.0551181102362  7.5 59.5275590551181  7.5 59.5275590551181  C 7.5 59.5275590551181  0.441176470588235 53.3543307086614  0.441176470588235 53.3543307086614  C 0.441176470588235 53.3543307086614  1.32352941176471 45.4173228346457  1.32352941176471 45.4173228346457  C 1.32352941176471 45.4173228346457  3.97058823529412 42.7716535433071  3.97058823529412 42.7716535433071  C 3.97058823529412 42.7716535433071  3.97058823529412 41.007874015748  3.97058823529412 41.007874015748  C 3.97058823529412 41.007874015748  0.441176470588235 40.1259842519685  0.441176470588235 40.1259842519685  C 0.441176470588235 40.1259842519685  0.441176470588235 35.7165354330709  0.441176470588235 35.7165354330709  C 0.441176470588235 35.7165354330709  4.85294117647059 33.0708661417323  4.85294117647059 33.0708661417323  C 4.85294117647059 33.0708661417323  6.61764705882353 29.5433070866142  6.61764705882353 29.5433070866142  C 6.61764705882353 29.5433070866142  4.85294117647059 28.6614173228346  4.85294117647059 28.6614173228346  C 4.85294117647059 28.6614173228346  3.08823529411765 20.7244094488189  3.08823529411765 20.7244094488189  Z " fill-rule="evenodd" />
    </mask>
  </defs>
  <g transform="matrix(1 0 0 1 -817 -619 )">
    <path d="M 3.08823529411765 20.7244094488189  C 3.08823529411765 20.7244094488189  3.08823529411765 18.0787401574803  3.08823529411765 18.0787401574803  C 3.08823529411765 18.0787401574803  7.5 14.5511811023622  7.5 14.5511811023622  C 7.5 14.5511811023622  12.7941176470588 12.7874015748031  12.7941176470588 12.7874015748031  C 12.7941176470588 12.7874015748031  35.7352941176471 14.5511811023622  35.7352941176471 14.5511811023622  C 35.7352941176471 14.5511811023622  45.4411764705882 18.0787401574803  45.4411764705882 18.0787401574803  C 45.4411764705882 18.0787401574803  50.7352941176471 17.1968503937008  50.7352941176471 17.1968503937008  C 50.7352941176471 17.1968503937008  63.9705882352941 3.08661417322835  63.9705882352941 3.08661417322835  C 63.9705882352941 3.08661417322835  68.3823529411765 0.440944881889764  68.3823529411765 0.440944881889764  C 68.3823529411765 0.440944881889764  70.1470588235294 3.08661417322835  70.1470588235294 3.08661417322835  C 70.1470588235294 3.08661417322835  69.2647058823529 6.61417322834646  69.2647058823529 6.61417322834646  C 69.2647058823529 6.61417322834646  71.9117647058824 9.25984251968504  71.9117647058824 9.25984251968504  C 71.9117647058824 9.25984251968504  79.8529411764706 8.37795275590551  79.8529411764706 8.37795275590551  C 79.8529411764706 8.37795275590551  89.5588235294118 3.08661417322835  89.5588235294118 3.08661417322835  C 89.5588235294118 3.08661417322835  96.6176470588235 2.20472440944882  96.6176470588235 2.20472440944882  C 96.6176470588235 2.20472440944882  101.029411764706 3.08661417322835  101.029411764706 3.08661417322835  C 101.029411764706 3.08661417322835  113.382352941176 10.1417322834646  113.382352941176 10.1417322834646  C 113.382352941176 10.1417322834646  116.911764705882 12.7874015748031  116.911764705882 12.7874015748031  C 116.911764705882 12.7874015748031  124.852941176471 25.1338582677165  124.852941176471 25.1338582677165  C 124.852941176471 25.1338582677165  126.617647058824 41.8897637795276  126.617647058824 41.8897637795276  C 126.617647058824 41.8897637795276  130.147058823529 54.2362204724409  130.147058823529 54.2362204724409  C 130.147058823529 54.2362204724409  134.558823529412 60.4094488188976  134.558823529412 60.4094488188976  C 134.558823529412 60.4094488188976  144.264705882353 86.8661417322835  144.264705882353 86.8661417322835  C 144.264705882353 86.8661417322835  149.558823529412 95.6850393700787  149.558823529412 95.6850393700787  C 149.558823529412 95.6850393700787  147.794117647059 102.740157480315  147.794117647059 102.740157480315  C 147.794117647059 102.740157480315  147.794117647059 111.55905511811  147.794117647059 111.55905511811  C 147.794117647059 111.55905511811  124.852941176471 98.3307086614173  124.852941176471 98.3307086614173  C 124.852941176471 98.3307086614173  99.2647058823529 87.748031496063  99.2647058823529 87.748031496063  C 99.2647058823529 87.748031496063  91.3235294117647 86.8661417322835  91.3235294117647 86.8661417322835  C 91.3235294117647 86.8661417322835  78.0882352941177 85.9842519685039  78.0882352941177 85.9842519685039  C 78.0882352941177 85.9842519685039  69.2647058823529 89.511811023622  69.2647058823529 89.511811023622  C 69.2647058823529 89.511811023622  55.1470588235294 90.3937007874016  55.1470588235294 90.3937007874016  C 55.1470588235294 90.3937007874016  51.6176470588235 93.0393700787401  51.6176470588235 93.0393700787401  C 51.6176470588235 93.0393700787401  28.6764705882353 100.976377952756  28.6764705882353 100.976377952756  C 28.6764705882353 100.976377952756  23.3823529411765 100.976377952756  23.3823529411765 100.976377952756  C 23.3823529411765 100.976377952756  12.7941176470588 93.0393700787401  12.7941176470588 93.0393700787401  C 12.7941176470588 93.0393700787401  13.6764705882353 89.511811023622  13.6764705882353 89.511811023622  C 13.6764705882353 89.511811023622  17.2058823529412 89.511811023622  17.2058823529412 89.511811023622  C 17.2058823529412 89.511811023622  15.4411764705882 76.2834645669291  15.4411764705882 76.2834645669291  C 15.4411764705882 76.2834645669291  18.0882352941176 76.2834645669291  18.0882352941176 76.2834645669291  C 18.0882352941176 76.2834645669291  18.9705882352941 74.5196850393701  18.9705882352941 74.5196850393701  C 18.9705882352941 74.5196850393701  22.5 73.6377952755906  22.5 73.6377952755906  C 22.5 73.6377952755906  21.6176470588235 70.992125984252  21.6176470588235 70.992125984252  C 21.6176470588235 70.992125984252  15.4411764705882 63.9370078740157  15.4411764705882 63.9370078740157  C 15.4411764705882 63.9370078740157  11.0294117647059 61.2913385826772  11.0294117647059 61.2913385826772  C 11.0294117647059 61.2913385826772  8.38235294117647 63.0551181102362  8.38235294117647 63.0551181102362  C 8.38235294117647 63.0551181102362  7.5 59.5275590551181  7.5 59.5275590551181  C 7.5 59.5275590551181  0.441176470588235 53.3543307086614  0.441176470588235 53.3543307086614  C 0.441176470588235 53.3543307086614  1.32352941176471 45.4173228346457  1.32352941176471 45.4173228346457  C 1.32352941176471 45.4173228346457  3.97058823529412 42.7716535433071  3.97058823529412 42.7716535433071  C 3.97058823529412 42.7716535433071  3.97058823529412 41.007874015748  3.97058823529412 41.007874015748  C 3.97058823529412 41.007874015748  0.441176470588235 40.1259842519685  0.441176470588235 40.1259842519685  C 0.441176470588235 40.1259842519685  0.441176470588235 35.7165354330709  0.441176470588235 35.7165354330709  C 0.441176470588235 35.7165354330709  4.85294117647059 33.0708661417323  4.85294117647059 33.0708661417323  C 4.85294117647059 33.0708661417323  6.61764705882353 29.5433070866142  6.61764705882353 29.5433070866142  C 6.61764705882353 29.5433070866142  4.85294117647059 28.6614173228346  4.85294117647059 28.6614173228346  C 4.85294117647059 28.6614173228346  3.08823529411765 20.7244094488189  3.08823529411765 20.7244094488189  Z " fill-rule="nonzero" fill="#0fd0e6" stroke="none" transform="matrix(1 0 0 1 817 619 )" />
    <path d="M 3.08823529411765 20.7244094488189  C 3.08823529411765 20.7244094488189  3.08823529411765 18.0787401574803  3.08823529411765 18.0787401574803  C 3.08823529411765 18.0787401574803  7.5 14.5511811023622  7.5 14.5511811023622  C 7.5 14.5511811023622  12.7941176470588 12.7874015748031  12.7941176470588 12.7874015748031  C 12.7941176470588 12.7874015748031  35.7352941176471 14.5511811023622  35.7352941176471 14.5511811023622  C 35.7352941176471 14.5511811023622  45.4411764705882 18.0787401574803  45.4411764705882 18.0787401574803  C 45.4411764705882 18.0787401574803  50.7352941176471 17.1968503937008  50.7352941176471 17.1968503937008  C 50.7352941176471 17.1968503937008  63.9705882352941 3.08661417322835  63.9705882352941 3.08661417322835  C 63.9705882352941 3.08661417322835  68.3823529411765 0.440944881889764  68.3823529411765 0.440944881889764  C 68.3823529411765 0.440944881889764  70.1470588235294 3.08661417322835  70.1470588235294 3.08661417322835  C 70.1470588235294 3.08661417322835  69.2647058823529 6.61417322834646  69.2647058823529 6.61417322834646  C 69.2647058823529 6.61417322834646  71.9117647058824 9.25984251968504  71.9117647058824 9.25984251968504  C 71.9117647058824 9.25984251968504  79.8529411764706 8.37795275590551  79.8529411764706 8.37795275590551  C 79.8529411764706 8.37795275590551  89.5588235294118 3.08661417322835  89.5588235294118 3.08661417322835  C 89.5588235294118 3.08661417322835  96.6176470588235 2.20472440944882  96.6176470588235 2.20472440944882  C 96.6176470588235 2.20472440944882  101.029411764706 3.08661417322835  101.029411764706 3.08661417322835  C 101.029411764706 3.08661417322835  113.382352941176 10.1417322834646  113.382352941176 10.1417322834646  C 113.382352941176 10.1417322834646  116.911764705882 12.7874015748031  116.911764705882 12.7874015748031  C 116.911764705882 12.7874015748031  124.852941176471 25.1338582677165  124.852941176471 25.1338582677165  C 124.852941176471 25.1338582677165  126.617647058824 41.8897637795276  126.617647058824 41.8897637795276  C 126.617647058824 41.8897637795276  130.147058823529 54.2362204724409  130.147058823529 54.2362204724409  C 130.147058823529 54.2362204724409  134.558823529412 60.4094488188976  134.558823529412 60.4094488188976  C 134.558823529412 60.4094488188976  144.264705882353 86.8661417322835  144.264705882353 86.8661417322835  C 144.264705882353 86.8661417322835  149.558823529412 95.6850393700787  149.558823529412 95.6850393700787  C 149.558823529412 95.6850393700787  147.794117647059 102.740157480315  147.794117647059 102.740157480315  C 147.794117647059 102.740157480315  147.794117647059 111.55905511811  147.794117647059 111.55905511811  C 147.794117647059 111.55905511811  124.852941176471 98.3307086614173  124.852941176471 98.3307086614173  C 124.852941176471 98.3307086614173  99.2647058823529 87.748031496063  99.2647058823529 87.748031496063  C 99.2647058823529 87.748031496063  91.3235294117647 86.8661417322835  91.3235294117647 86.8661417322835  C 91.3235294117647 86.8661417322835  78.0882352941177 85.9842519685039  78.0882352941177 85.9842519685039  C 78.0882352941177 85.9842519685039  69.2647058823529 89.511811023622  69.2647058823529 89.511811023622  C 69.2647058823529 89.511811023622  55.1470588235294 90.3937007874016  55.1470588235294 90.3937007874016  C 55.1470588235294 90.3937007874016  51.6176470588235 93.0393700787401  51.6176470588235 93.0393700787401  C 51.6176470588235 93.0393700787401  28.6764705882353 100.976377952756  28.6764705882353 100.976377952756  C 28.6764705882353 100.976377952756  23.3823529411765 100.976377952756  23.3823529411765 100.976377952756  C 23.3823529411765 100.976377952756  12.7941176470588 93.0393700787401  12.7941176470588 93.0393700787401  C 12.7941176470588 93.0393700787401  13.6764705882353 89.511811023622  13.6764705882353 89.511811023622  C 13.6764705882353 89.511811023622  17.2058823529412 89.511811023622  17.2058823529412 89.511811023622  C 17.2058823529412 89.511811023622  15.4411764705882 76.2834645669291  15.4411764705882 76.2834645669291  C 15.4411764705882 76.2834645669291  18.0882352941176 76.2834645669291  18.0882352941176 76.2834645669291  C 18.0882352941176 76.2834645669291  18.9705882352941 74.5196850393701  18.9705882352941 74.5196850393701  C 18.9705882352941 74.5196850393701  22.5 73.6377952755906  22.5 73.6377952755906  C 22.5 73.6377952755906  21.6176470588235 70.992125984252  21.6176470588235 70.992125984252  C 21.6176470588235 70.992125984252  15.4411764705882 63.9370078740157  15.4411764705882 63.9370078740157  C 15.4411764705882 63.9370078740157  11.0294117647059 61.2913385826772  11.0294117647059 61.2913385826772  C 11.0294117647059 61.2913385826772  8.38235294117647 63.0551181102362  8.38235294117647 63.0551181102362  C 8.38235294117647 63.0551181102362  7.5 59.5275590551181  7.5 59.5275590551181  C 7.5 59.5275590551181  0.441176470588235 53.3543307086614  0.441176470588235 53.3543307086614  C 0.441176470588235 53.3543307086614  1.32352941176471 45.4173228346457  1.32352941176471 45.4173228346457  C 1.32352941176471 45.4173228346457  3.97058823529412 42.7716535433071  3.97058823529412 42.7716535433071  C 3.97058823529412 42.7716535433071  3.97058823529412 41.007874015748  3.97058823529412 41.007874015748  C 3.97058823529412 41.007874015748  0.441176470588235 40.1259842519685  0.441176470588235 40.1259842519685  C 0.441176470588235 40.1259842519685  0.441176470588235 35.7165354330709  0.441176470588235 35.7165354330709  C 0.441176470588235 35.7165354330709  4.85294117647059 33.0708661417323  4.85294117647059 33.0708661417323  C 4.85294117647059 33.0708661417323  6.61764705882353 29.5433070866142  6.61764705882353 29.5433070866142  C 6.61764705882353 29.5433070866142  4.85294117647059 28.6614173228346  4.85294117647059 28.6614173228346  C 4.85294117647059 28.6614173228346  3.08823529411765 20.7244094488189  3.08823529411765 20.7244094488189  Z " stroke-width="2" stroke-dasharray="1,1" stroke="#999999" fill="none" transform="matrix(1 0 0 1 817 619 )" mask="url(#clip2092)" />
  </g>
</svg>