<?xml version="1.0" encoding="utf-8"?>
<svg version="1.1" xmlns:xlink="http://www.w3.org/1999/xlink" width="237px" height="184px" xmlns="http://www.w3.org/2000/svg">
  <defs>
    <mask fill="white" id="clip2093">
      <path d="M 236.559479553903 92.4423076923077  C 236.559479553903 92.4423076923077  234.797397769517 95.0961538461539  234.797397769517 95.0961538461539  C 234.797397769517 95.0961538461539  227.74907063197 99.5192307692308  227.74907063197 99.5192307692308  C 227.74907063197 99.5192307692308  222.46282527881 99.5192307692308  222.46282527881 99.5192307692308  C 222.46282527881 99.5192307692308  222.46282527881 103.057692307692  222.46282527881 103.057692307692  C 222.46282527881 103.057692307692  219.819702602231 106.596153846154  219.819702602231 106.596153846154  C 219.819702602231 106.596153846154  217.176579925651 105.711538461538  217.176579925651 105.711538461538  C 217.176579925651 105.711538461538  214.533457249071 109.25  214.533457249071 109.25  C 214.533457249071 109.25  211.009293680297 107.480769230769  211.009293680297 107.480769230769  C 211.009293680297 107.480769230769  202.198884758364 113.673076923077  202.198884758364 113.673076923077  C 202.198884758364 113.673076923077  200.436802973978 112.788461538462  200.436802973978 112.788461538462  C 200.436802973978 112.788461538462  199.555762081784 102.173076923077  199.555762081784 102.173076923077  C 199.555762081784 102.173076923077  196.031598513011 102.173076923077  196.031598513011 102.173076923077  C 196.031598513011 102.173076923077  196.031598513011 100.403846153846  196.031598513011 100.403846153846  C 196.031598513011 100.403846153846  193.388475836431 98.6346153846154  193.388475836431 98.6346153846154  C 193.388475836431 98.6346153846154  189.864312267658 102.173076923077  189.864312267658 102.173076923077  C 189.864312267658 102.173076923077  184.578066914498 102.173076923077  184.578066914498 102.173076923077  C 184.578066914498 102.173076923077  181.934944237918 107.480769230769  181.934944237918 107.480769230769  C 181.934944237918 107.480769230769  176.648698884758 108.365384615385  176.648698884758 108.365384615385  C 176.648698884758 108.365384615385  173.124535315985 115.442307692308  173.124535315985 115.442307692308  C 173.124535315985 115.442307692308  169.600371747212 113.673076923077  169.600371747212 113.673076923077  C 169.600371747212 113.673076923077  165.195167286245 113.673076923077  165.195167286245 113.673076923077  C 165.195167286245 113.673076923077  164.314126394052 111.903846153846  164.314126394052 111.903846153846  C 164.314126394052 111.903846153846  160.789962825279 111.903846153846  160.789962825279 111.903846153846  C 160.789962825279 111.903846153846  159.027881040892 116.326923076923  159.027881040892 116.326923076923  C 159.027881040892 116.326923076923  157.265799256506 118.096153846154  157.265799256506 118.096153846154  C 157.265799256506 118.096153846154  155.503717472119 116.326923076923  155.503717472119 116.326923076923  C 155.503717472119 116.326923076923  150.217472118959 120.75  150.217472118959 120.75  C 150.217472118959 120.75  151.098513011152 122.519230769231  151.098513011152 122.519230769231  C 151.098513011152 122.519230769231  149.336431226766 124.288461538462  149.336431226766 124.288461538462  C 149.336431226766 124.288461538462  144.050185873606 126.057692307692  144.050185873606 126.057692307692  C 144.050185873606 126.057692307692  144.050185873606 128.711538461538  144.050185873606 128.711538461538  C 144.050185873606 128.711538461538  138.763940520446 130.480769230769  138.763940520446 130.480769230769  C 138.763940520446 130.480769230769  139.644981412639 126.942307692308  139.644981412639 126.942307692308  C 139.644981412639 126.942307692308  137.001858736059 130.480769230769  137.001858736059 130.480769230769  C 137.001858736059 130.480769230769  138.763940520446 135.788461538462  138.763940520446 135.788461538462  C 138.763940520446 135.788461538462  134.35873605948 136.673076923077  134.35873605948 136.673076923077  C 134.35873605948 136.673076923077  132.596654275093 138.442307692308  132.596654275093 138.442307692308  C 132.596654275093 138.442307692308  129.07249070632 138.442307692308  129.07249070632 138.442307692308  C 129.07249070632 138.442307692308  128.191449814126 142.865384615385  128.191449814126 142.865384615385  C 128.191449814126 142.865384615385  120.262081784387 142.865384615385  120.262081784387 142.865384615385  C 120.262081784387 142.865384615385  116.737918215613 140.211538461538  116.737918215613 140.211538461538  C 116.737918215613 140.211538461538  115.85687732342 130.480769230769  115.85687732342 130.480769230769  C 115.85687732342 130.480769230769  112.332713754647 128.711538461538  112.332713754647 128.711538461538  C 112.332713754647 128.711538461538  107.046468401487 128.711538461538  107.046468401487 128.711538461538  C 107.046468401487 128.711538461538  101.760223048327 131.365384615385  101.760223048327 131.365384615385  C 101.760223048327 131.365384615385  100.879182156134 129.596153846154  100.879182156134 129.596153846154  C 100.879182156134 129.596153846154  98.2360594795539 128.711538461538  98.2360594795539 128.711538461538  C 98.2360594795539 128.711538461538  94.7118959107807 129.596153846154  94.7118959107807 129.596153846154  C 94.7118959107807 129.596153846154  88.5446096654275 141.980769230769  88.5446096654275 141.980769230769  C 88.5446096654275 141.980769230769  91.1877323420074 148.173076923077  91.1877323420074 148.173076923077  C 91.1877323420074 148.173076923077  89.4256505576208 152.596153846154  89.4256505576208 152.596153846154  C 89.4256505576208 152.596153846154  90.3066914498141 158.788461538462  90.3066914498141 158.788461538462  C 90.3066914498141 158.788461538462  83.2583643122677 157.019230769231  83.2583643122677 157.019230769231  C 83.2583643122677 157.019230769231  77.0910780669145 151.711538461538  77.0910780669145 151.711538461538  C 77.0910780669145 151.711538461538  76.2100371747212 154.365384615385  76.2100371747212 154.365384615385  C 76.2100371747212 154.365384615385  70.9237918215613 155.25  70.9237918215613 155.25  C 70.9237918215613 155.25  70.9237918215613 153.480769230769  70.9237918215613 153.480769230769  C 70.9237918215613 153.480769230769  67.3996282527881 157.019230769231  67.3996282527881 157.019230769231  C 67.3996282527881 157.019230769231  69.1617100371747 160.557692307692  69.1617100371747 160.557692307692  C 69.1617100371747 160.557692307692  67.3996282527881 163.211538461538  67.3996282527881 163.211538461538  C 67.3996282527881 163.211538461538  61.2323420074349 163.211538461538  61.2323420074349 163.211538461538  C 61.2323420074349 163.211538461538  58.589219330855 165.865384615385  58.589219330855 165.865384615385  C 58.589219330855 165.865384615385  56.8271375464684 164.980769230769  56.8271375464684 164.980769230769  C 56.8271375464684 164.980769230769  51.5408921933086 167.634615384615  51.5408921933086 167.634615384615  C 51.5408921933086 167.634615384615  56.8271375464684 177.365384615385  56.8271375464684 177.365384615385  C 56.8271375464684 177.365384615385  55.9460966542751 183.557692307692  55.9460966542751 183.557692307692  C 55.9460966542751 183.557692307692  43.6115241635688 181.788461538462  43.6115241635688 181.788461538462  C 43.6115241635688 181.788461538462  40.9684014869888 183.557692307692  40.9684014869888 183.557692307692  C 40.9684014869888 183.557692307692  40.0873605947955 181.788461538462  40.0873605947955 181.788461538462  C 40.0873605947955 181.788461538462  43.6115241635688 174.711538461538  43.6115241635688 174.711538461538  C 43.6115241635688 174.711538461538  42.7304832713755 170.288461538462  42.7304832713755 170.288461538462  C 42.7304832713755 170.288461538462  35.682156133829 163.211538461538  35.682156133829 163.211538461538  C 35.682156133829 163.211538461538  35.682156133829 159.673076923077  35.682156133829 159.673076923077  C 35.682156133829 159.673076923077  33.9200743494424 159.673076923077  33.9200743494424 159.673076923077  C 33.9200743494424 159.673076923077  36.5631970260223 148.173076923077  36.5631970260223 148.173076923077  C 36.5631970260223 148.173076923077  30.3959107806691 147.288461538462  30.3959107806691 147.288461538462  C 30.3959107806691 147.288461538462  30.3959107806691 144.634615384615  30.3959107806691 144.634615384615  C 30.3959107806691 144.634615384615  39.2063197026022 133.134615384615  39.2063197026022 133.134615384615  C 39.2063197026022 133.134615384615  38.3252788104089 130.480769230769  38.3252788104089 130.480769230769  C 38.3252788104089 130.480769230769  34.8011152416357 130.480769230769  34.8011152416357 130.480769230769  C 34.8011152416357 130.480769230769  27.7527881040892 138.442307692308  27.7527881040892 138.442307692308  C 27.7527881040892 138.442307692308  25.9907063197026 137.557692307692  25.9907063197026 137.557692307692  C 25.9907063197026 137.557692307692  24.228624535316 131.365384615385  24.228624535316 131.365384615385  C 24.228624535316 131.365384615385  14.5371747211896 131.365384615385  14.5371747211896 131.365384615385  C 14.5371747211896 131.365384615385  13.6561338289963 126.057692307692  13.6561338289963 126.057692307692  C 13.6561338289963 126.057692307692  10.131970260223 121.634615384615  10.131970260223 121.634615384615  C 10.131970260223 121.634615384615  12.775092936803 119.865384615385  12.775092936803 119.865384615385  C 12.775092936803 119.865384615385  11.0130111524164 118.980769230769  11.0130111524164 118.980769230769  C 11.0130111524164 118.980769230769  11.0130111524164 117.211538461538  11.0130111524164 117.211538461538  C 11.0130111524164 117.211538461538  12.775092936803 117.211538461538  12.775092936803 117.211538461538  C 12.775092936803 117.211538461538  11.8940520446097 115.442307692308  11.8940520446097 115.442307692308  C 11.8940520446097 115.442307692308  12.775092936803 113.673076923077  12.775092936803 113.673076923077  C 12.775092936803 113.673076923077  14.5371747211896 113.673076923077  14.5371747211896 113.673076923077  C 14.5371747211896 113.673076923077  12.775092936803 111.019230769231  12.775092936803 111.019230769231  C 12.775092936803 111.019230769231  13.6561338289963 109.25  13.6561338289963 109.25  C 13.6561338289963 109.25  17.1802973977695 106.596153846154  17.1802973977695 106.596153846154  C 17.1802973977695 106.596153846154  19.8234200743494 106.596153846154  19.8234200743494 106.596153846154  C 19.8234200743494 106.596153846154  16.2992565055762 100.403846153846  16.2992565055762 100.403846153846  C 16.2992565055762 100.403846153846  14.5371747211896 99.5192307692308  14.5371747211896 99.5192307692308  C 14.5371747211896 99.5192307692308  11.8940520446097 93.3269230769231  11.8940520446097 93.3269230769231  C 11.8940520446097 93.3269230769231  14.5371747211896 86.25  14.5371747211896 86.25  C 14.5371747211896 86.25  10.131970260223 87.1346153846154  10.131970260223 87.1346153846154  C 10.131970260223 87.1346153846154  7.48884758364312 92.4423076923077  7.48884758364312 92.4423076923077  C 7.48884758364312 92.4423076923077  5.72676579925651 92.4423076923077  5.72676579925651 92.4423076923077  C 5.72676579925651 92.4423076923077  3.08364312267658 95.9807692307692  3.08364312267658 95.9807692307692  C 3.08364312267658 95.9807692307692  1.32156133828996 95.9807692307692  1.32156133828996 95.9807692307692  C 1.32156133828996 95.9807692307692  0.440520446096654 92.4423076923077  0.440520446096654 92.4423076923077  C 0.440520446096654 92.4423076923077  2.20260223048327 86.25  2.20260223048327 86.25  C 2.20260223048327 86.25  3.96468401486989 84.4807692307692  3.96468401486989 84.4807692307692  C 3.96468401486989 84.4807692307692  6.60780669144981 84.4807692307692  6.60780669144981 84.4807692307692  C 6.60780669144981 84.4807692307692  8.36988847583643 76.5192307692308  8.36988847583643 76.5192307692308  C 8.36988847583643 76.5192307692308  10.131970260223 75.6346153846154  10.131970260223 75.6346153846154  C 10.131970260223 75.6346153846154  13.6561338289963 76.5192307692308  13.6561338289963 76.5192307692308  C 13.6561338289963 76.5192307692308  16.2992565055762 74.75  16.2992565055762 74.75  C 16.2992565055762 74.75  19.8234200743494 77.4038461538462  19.8234200743494 77.4038461538462  C 19.8234200743494 77.4038461538462  25.1096654275093 75.6346153846154  25.1096654275093 75.6346153846154  C 25.1096654275093 75.6346153846154  26.8717472118959 78.2884615384615  26.8717472118959 78.2884615384615  C 26.8717472118959 78.2884615384615  25.9907063197026 75.6346153846154  25.9907063197026 75.6346153846154  C 25.9907063197026 75.6346153846154  27.7527881040892 75.6346153846154  27.7527881040892 75.6346153846154  C 27.7527881040892 75.6346153846154  27.7527881040892 73.8653846153846  27.7527881040892 73.8653846153846  C 27.7527881040892 73.8653846153846  31.2769516728625 72.0961538461538  31.2769516728625 72.0961538461538  C 31.2769516728625 72.0961538461538  32.1579925650558 72.9807692307692  32.1579925650558 72.9807692307692  C 32.1579925650558 72.9807692307692  39.2063197026022 71.2115384615385  39.2063197026022 71.2115384615385  C 39.2063197026022 71.2115384615385  41.8494423791822 72.9807692307692  41.8494423791822 72.9807692307692  C 41.8494423791822 72.9807692307692  44.4925650557621 72.0961538461538  44.4925650557621 72.0961538461538  C 44.4925650557621 72.0961538461538  47.135687732342 70.3269230769231  47.135687732342 70.3269230769231  C 47.135687732342 70.3269230769231  48.8977695167286 66.7884615384615  48.8977695167286 66.7884615384615  C 48.8977695167286 66.7884615384615  53.3029739776952 65.9038461538462  53.3029739776952 65.9038461538462  C 53.3029739776952 65.9038461538462  61.2323420074349 59.7115384615385  61.2323420074349 59.7115384615385  C 61.2323420074349 59.7115384615385  69.1617100371747 59.7115384615385  69.1617100371747 59.7115384615385  C 69.1617100371747 59.7115384615385  71.8048327137546 57.9423076923077  71.8048327137546 57.9423076923077  C 71.8048327137546 57.9423076923077  71.8048327137546 54.4038461538462  71.8048327137546 54.4038461538462  C 71.8048327137546 54.4038461538462  73.5669144981413 55.2884615384615  73.5669144981413 55.2884615384615  C 73.5669144981413 55.2884615384615  77.9721189591078 51.75  77.9721189591078 51.75  C 77.9721189591078 51.75  85.9014869888476 54.4038461538462  85.9014869888476 54.4038461538462  C 85.9014869888476 54.4038461538462  89.4256505576208 57.0576923076923  89.4256505576208 57.0576923076923  C 89.4256505576208 57.0576923076923  91.1877323420074 56.1730769230769  91.1877323420074 56.1730769230769  C 91.1877323420074 56.1730769230769  91.1877323420074 53.5192307692308  91.1877323420074 53.5192307692308  C 91.1877323420074 53.5192307692308  94.7118959107807 54.4038461538462  94.7118959107807 54.4038461538462  C 94.7118959107807 54.4038461538462  96.4739776951673 51.75  96.4739776951673 51.75  C 96.4739776951673 51.75  97.3550185873606 52.6346153846154  97.3550185873606 52.6346153846154  C 97.3550185873606 52.6346153846154  97.3550185873606 48.2115384615385  97.3550185873606 48.2115384615385  C 97.3550185873606 48.2115384615385  97.3550185873606 52.6346153846154  97.3550185873606 52.6346153846154  C 97.3550185873606 52.6346153846154  107.92750929368 49.9807692307692  107.92750929368 49.9807692307692  C 107.92750929368 49.9807692307692  106.165427509294 46.4423076923077  106.165427509294 46.4423076923077  C 106.165427509294 46.4423076923077  108.808550185874 42.9038461538462  108.808550185874 42.9038461538462  C 108.808550185874 42.9038461538462  113.21375464684 39.3653846153846  113.21375464684 39.3653846153846  C 113.21375464684 39.3653846153846  114.975836431227 40.25  114.975836431227 40.25  C 114.975836431227 40.25  115.85687732342 38.4807692307692  115.85687732342 38.4807692307692  C 115.85687732342 38.4807692307692  115.85687732342 36.7115384615385  115.85687732342 36.7115384615385  C 115.85687732342 36.7115384615385  113.21375464684 34.9423076923077  113.21375464684 34.9423076923077  C 113.21375464684 34.9423076923077  114.975836431227 32.2884615384615  114.975836431227 32.2884615384615  C 114.975836431227 32.2884615384615  110.57063197026 27.8653846153846  110.57063197026 27.8653846153846  C 110.57063197026 27.8653846153846  111.451672862454 20.7884615384615  111.451672862454 20.7884615384615  C 111.451672862454 20.7884615384615  116.737918215613 16.3653846153846  116.737918215613 16.3653846153846  C 116.737918215613 16.3653846153846  122.905204460967 15.4807692307692  122.905204460967 15.4807692307692  C 122.905204460967 15.4807692307692  123.78624535316 11.9423076923077  123.78624535316 11.9423076923077  C 123.78624535316 11.9423076923077  126.42936802974 11.9423076923077  126.42936802974 11.9423076923077  C 126.42936802974 11.9423076923077  130.834572490706 15.4807692307692  130.834572490706 15.4807692307692  C 130.834572490706 15.4807692307692  131.7156133829 12.8269230769231  131.7156133829 12.8269230769231  C 131.7156133829 12.8269230769231  129.07249070632 5.75  129.07249070632 5.75  C 129.07249070632 5.75  130.834572490706 4.86538461538461  130.834572490706 4.86538461538461  C 130.834572490706 4.86538461538461  132.596654275093 7.51923076923077  132.596654275093 7.51923076923077  C 132.596654275093 7.51923076923077  141.407063197026 3.98076923076923  141.407063197026 3.98076923076923  C 141.407063197026 3.98076923076923  145.812267657993 0.442307692307692  145.812267657993 0.442307692307692  C 145.812267657993 0.442307692307692  147.574349442379 3.98076923076923  147.574349442379 3.98076923076923  C 147.574349442379 3.98076923076923  151.979553903346 7.51923076923077  151.979553903346 7.51923076923077  C 151.979553903346 7.51923076923077  154.622676579926 7.51923076923077  154.622676579926 7.51923076923077  C 154.622676579926 7.51923076923077  155.503717472119 9.28846153846154  155.503717472119 9.28846153846154  C 155.503717472119 9.28846153846154  158.146840148699 10.1730769230769  158.146840148699 10.1730769230769  C 158.146840148699 10.1730769230769  163.433085501859 10.1730769230769  163.433085501859 10.1730769230769  C 163.433085501859 10.1730769230769  166.076208178439 13.7115384615385  166.076208178439 13.7115384615385  C 166.076208178439 13.7115384615385  170.481412639405 13.7115384615385  170.481412639405 13.7115384615385  C 170.481412639405 13.7115384615385  175.767657992565 18.1346153846154  175.767657992565 18.1346153846154  C 175.767657992565 18.1346153846154  167.838289962825 19.9038461538462  167.838289962825 19.9038461538462  C 167.838289962825 19.9038461538462  166.076208178439 22.5576923076923  166.076208178439 22.5576923076923  C 166.076208178439 22.5576923076923  179.291821561338 29.6346153846154  179.291821561338 29.6346153846154  C 179.291821561338 29.6346153846154  181.053903345725 39.3653846153846  181.053903345725 39.3653846153846  C 181.053903345725 39.3653846153846  184.578066914498 38.4807692307692  184.578066914498 38.4807692307692  C 184.578066914498 38.4807692307692  185.459107806691 36.7115384615385  185.459107806691 36.7115384615385  C 185.459107806691 36.7115384615385  190.745353159851 36.7115384615385  190.745353159851 36.7115384615385  C 190.745353159851 36.7115384615385  195.150557620818 39.3653846153846  195.150557620818 39.3653846153846  C 195.150557620818 39.3653846153846  199.555762081784 35.8269230769231  199.555762081784 35.8269230769231  C 199.555762081784 35.8269230769231  201.317843866171 37.5961538461538  201.317843866171 37.5961538461538  C 201.317843866171 37.5961538461538  205.723048327138 37.5961538461538  205.723048327138 37.5961538461538  C 205.723048327138 37.5961538461538  206.604089219331 35.8269230769231  206.604089219331 35.8269230769231  C 206.604089219331 35.8269230769231  209.247211895911 34.9423076923077  209.247211895911 34.9423076923077  C 209.247211895911 34.9423076923077  213.652416356877 37.5961538461538  213.652416356877 37.5961538461538  C 213.652416356877 37.5961538461538  218.057620817844 43.7884615384615  218.057620817844 43.7884615384615  C 218.057620817844 43.7884615384615  220.700743494424 44.6730769230769  220.700743494424 44.6730769230769  C 220.700743494424 44.6730769230769  219.819702602231 46.4423076923077  219.819702602231 46.4423076923077  C 219.819702602231 46.4423076923077  222.46282527881 45.5576923076923  222.46282527881 45.5576923076923  C 222.46282527881 45.5576923076923  223.343866171004 46.4423076923077  223.343866171004 46.4423076923077  C 223.343866171004 46.4423076923077  221.581784386617 48.2115384615385  221.581784386617 48.2115384615385  C 221.581784386617 48.2115384615385  218.938661710037 48.2115384615385  218.938661710037 48.2115384615385  C 218.938661710037 48.2115384615385  219.819702602231 50.8653846153846  219.819702602231 50.8653846153846  C 219.819702602231 50.8653846153846  222.46282527881 52.6346153846154  222.46282527881 52.6346153846154  C 222.46282527881 52.6346153846154  222.46282527881 55.2884615384615  222.46282527881 55.2884615384615  C 222.46282527881 55.2884615384615  217.176579925651 61.4807692307692  217.176579925651 61.4807692307692  C 217.176579925651 61.4807692307692  218.057620817844 65.9038461538462  218.057620817844 65.9038461538462  C 218.057620817844 65.9038461538462  219.819702602231 67.6730769230769  219.819702602231 67.6730769230769  C 219.819702602231 67.6730769230769  228.630111524164 67.6730769230769  228.630111524164 67.6730769230769  C 228.630111524164 67.6730769230769  232.154275092937 76.5192307692308  232.154275092937 76.5192307692308  C 232.154275092937 76.5192307692308  226.868029739777 83.5961538461538  226.868029739777 83.5961538461538  C 226.868029739777 83.5961538461538  232.154275092937 86.25  232.154275092937 86.25  C 232.154275092937 86.25  236.559479553903 92.4423076923077  236.559479553903 92.4423076923077  Z " fill-rule="evenodd" />
    </mask>
  </defs>
  <g transform="matrix(1 0 0 1 -685 -354 )">
    <path d="M 236.559479553903 92.4423076923077  C 236.559479553903 92.4423076923077  234.797397769517 95.0961538461539  234.797397769517 95.0961538461539  C 234.797397769517 95.0961538461539  227.74907063197 99.5192307692308  227.74907063197 99.5192307692308  C 227.74907063197 99.5192307692308  222.46282527881 99.5192307692308  222.46282527881 99.5192307692308  C 222.46282527881 99.5192307692308  222.46282527881 103.057692307692  222.46282527881 103.057692307692  C 222.46282527881 103.057692307692  219.819702602231 106.596153846154  219.819702602231 106.596153846154  C 219.819702602231 106.596153846154  217.176579925651 105.711538461538  217.176579925651 105.711538461538  C 217.176579925651 105.711538461538  214.533457249071 109.25  214.533457249071 109.25  C 214.533457249071 109.25  211.009293680297 107.480769230769  211.009293680297 107.480769230769  C 211.009293680297 107.480769230769  202.198884758364 113.673076923077  202.198884758364 113.673076923077  C 202.198884758364 113.673076923077  200.436802973978 112.788461538462  200.436802973978 112.788461538462  C 200.436802973978 112.788461538462  199.555762081784 102.173076923077  199.555762081784 102.173076923077  C 199.555762081784 102.173076923077  196.031598513011 102.173076923077  196.031598513011 102.173076923077  C 196.031598513011 102.173076923077  196.031598513011 100.403846153846  196.031598513011 100.403846153846  C 196.031598513011 100.403846153846  193.388475836431 98.6346153846154  193.388475836431 98.6346153846154  C 193.388475836431 98.6346153846154  189.864312267658 102.173076923077  189.864312267658 102.173076923077  C 189.864312267658 102.173076923077  184.578066914498 102.173076923077  184.578066914498 102.173076923077  C 184.578066914498 102.173076923077  181.934944237918 107.480769230769  181.934944237918 107.480769230769  C 181.934944237918 107.480769230769  176.648698884758 108.365384615385  176.648698884758 108.365384615385  C 176.648698884758 108.365384615385  173.124535315985 115.442307692308  173.124535315985 115.442307692308  C 173.124535315985 115.442307692308  169.600371747212 113.673076923077  169.600371747212 113.673076923077  C 169.600371747212 113.673076923077  165.195167286245 113.673076923077  165.195167286245 113.673076923077  C 165.195167286245 113.673076923077  164.314126394052 111.903846153846  164.314126394052 111.903846153846  C 164.314126394052 111.903846153846  160.789962825279 111.903846153846  160.789962825279 111.903846153846  C 160.789962825279 111.903846153846  159.027881040892 116.326923076923  159.027881040892 116.326923076923  C 159.027881040892 116.326923076923  157.265799256506 118.096153846154  157.265799256506 118.096153846154  C 157.265799256506 118.096153846154  155.503717472119 116.326923076923  155.503717472119 116.326923076923  C 155.503717472119 116.326923076923  150.217472118959 120.75  150.217472118959 120.75  C 150.217472118959 120.75  151.098513011152 122.519230769231  151.098513011152 122.519230769231  C 151.098513011152 122.519230769231  149.336431226766 124.288461538462  149.336431226766 124.288461538462  C 149.336431226766 124.288461538462  144.050185873606 126.057692307692  144.050185873606 126.057692307692  C 144.050185873606 126.057692307692  144.050185873606 128.711538461538  144.050185873606 128.711538461538  C 144.050185873606 128.711538461538  138.763940520446 130.480769230769  138.763940520446 130.480769230769  C 138.763940520446 130.480769230769  139.644981412639 126.942307692308  139.644981412639 126.942307692308  C 139.644981412639 126.942307692308  137.001858736059 130.480769230769  137.001858736059 130.480769230769  C 137.001858736059 130.480769230769  138.763940520446 135.788461538462  138.763940520446 135.788461538462  C 138.763940520446 135.788461538462  134.35873605948 136.673076923077  134.35873605948 136.673076923077  C 134.35873605948 136.673076923077  132.596654275093 138.442307692308  132.596654275093 138.442307692308  C 132.596654275093 138.442307692308  129.07249070632 138.442307692308  129.07249070632 138.442307692308  C 129.07249070632 138.442307692308  128.191449814126 142.865384615385  128.191449814126 142.865384615385  C 128.191449814126 142.865384615385  120.262081784387 142.865384615385  120.262081784387 142.865384615385  C 120.262081784387 142.865384615385  116.737918215613 140.211538461538  116.737918215613 140.211538461538  C 116.737918215613 140.211538461538  115.85687732342 130.480769230769  115.85687732342 130.480769230769  C 115.85687732342 130.480769230769  112.332713754647 128.711538461538  112.332713754647 128.711538461538  C 112.332713754647 128.711538461538  107.046468401487 128.711538461538  107.046468401487 128.711538461538  C 107.046468401487 128.711538461538  101.760223048327 131.365384615385  101.760223048327 131.365384615385  C 101.760223048327 131.365384615385  100.879182156134 129.596153846154  100.879182156134 129.596153846154  C 100.879182156134 129.596153846154  98.2360594795539 128.711538461538  98.2360594795539 128.711538461538  C 98.2360594795539 128.711538461538  94.7118959107807 129.596153846154  94.7118959107807 129.596153846154  C 94.7118959107807 129.596153846154  88.5446096654275 141.980769230769  88.5446096654275 141.980769230769  C 88.5446096654275 141.980769230769  91.1877323420074 148.173076923077  91.1877323420074 148.173076923077  C 91.1877323420074 148.173076923077  89.4256505576208 152.596153846154  89.4256505576208 152.596153846154  C 89.4256505576208 152.596153846154  90.3066914498141 158.788461538462  90.3066914498141 158.788461538462  C 90.3066914498141 158.788461538462  83.2583643122677 157.019230769231  83.2583643122677 157.019230769231  C 83.2583643122677 157.019230769231  77.0910780669145 151.711538461538  77.0910780669145 151.711538461538  C 77.0910780669145 151.711538461538  76.2100371747212 154.365384615385  76.2100371747212 154.365384615385  C 76.2100371747212 154.365384615385  70.9237918215613 155.25  70.9237918215613 155.25  C 70.9237918215613 155.25  70.9237918215613 153.480769230769  70.9237918215613 153.480769230769  C 70.9237918215613 153.480769230769  67.3996282527881 157.019230769231  67.3996282527881 157.019230769231  C 67.3996282527881 157.019230769231  69.1617100371747 160.557692307692  69.1617100371747 160.557692307692  C 69.1617100371747 160.557692307692  67.3996282527881 163.211538461538  67.3996282527881 163.211538461538  C 67.3996282527881 163.211538461538  61.2323420074349 163.211538461538  61.2323420074349 163.211538461538  C 61.2323420074349 163.211538461538  58.589219330855 165.865384615385  58.589219330855 165.865384615385  C 58.589219330855 165.865384615385  56.8271375464684 164.980769230769  56.8271375464684 164.980769230769  C 56.8271375464684 164.980769230769  51.5408921933086 167.634615384615  51.5408921933086 167.634615384615  C 51.5408921933086 167.634615384615  56.8271375464684 177.365384615385  56.8271375464684 177.365384615385  C 56.8271375464684 177.365384615385  55.9460966542751 183.557692307692  55.9460966542751 183.557692307692  C 55.9460966542751 183.557692307692  43.6115241635688 181.788461538462  43.6115241635688 181.788461538462  C 43.6115241635688 181.788461538462  40.9684014869888 183.557692307692  40.9684014869888 183.557692307692  C 40.9684014869888 183.557692307692  40.0873605947955 181.788461538462  40.0873605947955 181.788461538462  C 40.0873605947955 181.788461538462  43.6115241635688 174.711538461538  43.6115241635688 174.711538461538  C 43.6115241635688 174.711538461538  42.7304832713755 170.288461538462  42.7304832713755 170.288461538462  C 42.7304832713755 170.288461538462  35.682156133829 163.211538461538  35.682156133829 163.211538461538  C 35.682156133829 163.211538461538  35.682156133829 159.673076923077  35.682156133829 159.673076923077  C 35.682156133829 159.673076923077  33.9200743494424 159.673076923077  33.9200743494424 159.673076923077  C 33.9200743494424 159.673076923077  36.5631970260223 148.173076923077  36.5631970260223 148.173076923077  C 36.5631970260223 148.173076923077  30.3959107806691 147.288461538462  30.3959107806691 147.288461538462  C 30.3959107806691 147.288461538462  30.3959107806691 144.634615384615  30.3959107806691 144.634615384615  C 30.3959107806691 144.634615384615  39.2063197026022 133.134615384615  39.2063197026022 133.134615384615  C 39.2063197026022 133.134615384615  38.3252788104089 130.480769230769  38.3252788104089 130.480769230769  C 38.3252788104089 130.480769230769  34.8011152416357 130.480769230769  34.8011152416357 130.480769230769  C 34.8011152416357 130.480769230769  27.7527881040892 138.442307692308  27.7527881040892 138.442307692308  C 27.7527881040892 138.442307692308  25.9907063197026 137.557692307692  25.9907063197026 137.557692307692  C 25.9907063197026 137.557692307692  24.228624535316 131.365384615385  24.228624535316 131.365384615385  C 24.228624535316 131.365384615385  14.5371747211896 131.365384615385  14.5371747211896 131.365384615385  C 14.5371747211896 131.365384615385  13.6561338289963 126.057692307692  13.6561338289963 126.057692307692  C 13.6561338289963 126.057692307692  10.131970260223 121.634615384615  10.131970260223 121.634615384615  C 10.131970260223 121.634615384615  12.775092936803 119.865384615385  12.775092936803 119.865384615385  C 12.775092936803 119.865384615385  11.0130111524164 118.980769230769  11.0130111524164 118.980769230769  C 11.0130111524164 118.980769230769  11.0130111524164 117.211538461538  11.0130111524164 117.211538461538  C 11.0130111524164 117.211538461538  12.775092936803 117.211538461538  12.775092936803 117.211538461538  C 12.775092936803 117.211538461538  11.8940520446097 115.442307692308  11.8940520446097 115.442307692308  C 11.8940520446097 115.442307692308  12.775092936803 113.673076923077  12.775092936803 113.673076923077  C 12.775092936803 113.673076923077  14.5371747211896 113.673076923077  14.5371747211896 113.673076923077  C 14.5371747211896 113.673076923077  12.775092936803 111.019230769231  12.775092936803 111.019230769231  C 12.775092936803 111.019230769231  13.6561338289963 109.25  13.6561338289963 109.25  C 13.6561338289963 109.25  17.1802973977695 106.596153846154  17.1802973977695 106.596153846154  C 17.1802973977695 106.596153846154  19.8234200743494 106.596153846154  19.8234200743494 106.596153846154  C 19.8234200743494 106.596153846154  16.2992565055762 100.403846153846  16.2992565055762 100.403846153846  C 16.2992565055762 100.403846153846  14.5371747211896 99.5192307692308  14.5371747211896 99.5192307692308  C 14.5371747211896 99.5192307692308  11.8940520446097 93.3269230769231  11.8940520446097 93.3269230769231  C 11.8940520446097 93.3269230769231  14.5371747211896 86.25  14.5371747211896 86.25  C 14.5371747211896 86.25  10.131970260223 87.1346153846154  10.131970260223 87.1346153846154  C 10.131970260223 87.1346153846154  7.48884758364312 92.4423076923077  7.48884758364312 92.4423076923077  C 7.48884758364312 92.4423076923077  5.72676579925651 92.4423076923077  5.72676579925651 92.4423076923077  C 5.72676579925651 92.4423076923077  3.08364312267658 95.9807692307692  3.08364312267658 95.9807692307692  C 3.08364312267658 95.9807692307692  1.32156133828996 95.9807692307692  1.32156133828996 95.9807692307692  C 1.32156133828996 95.9807692307692  0.440520446096654 92.4423076923077  0.440520446096654 92.4423076923077  C 0.440520446096654 92.4423076923077  2.20260223048327 86.25  2.20260223048327 86.25  C 2.20260223048327 86.25  3.96468401486989 84.4807692307692  3.96468401486989 84.4807692307692  C 3.96468401486989 84.4807692307692  6.60780669144981 84.4807692307692  6.60780669144981 84.4807692307692  C 6.60780669144981 84.4807692307692  8.36988847583643 76.5192307692308  8.36988847583643 76.5192307692308  C 8.36988847583643 76.5192307692308  10.131970260223 75.6346153846154  10.131970260223 75.6346153846154  C 10.131970260223 75.6346153846154  13.6561338289963 76.5192307692308  13.6561338289963 76.5192307692308  C 13.6561338289963 76.5192307692308  16.2992565055762 74.75  16.2992565055762 74.75  C 16.2992565055762 74.75  19.8234200743494 77.4038461538462  19.8234200743494 77.4038461538462  C 19.8234200743494 77.4038461538462  25.1096654275093 75.6346153846154  25.1096654275093 75.6346153846154  C 25.1096654275093 75.6346153846154  26.8717472118959 78.2884615384615  26.8717472118959 78.2884615384615  C 26.8717472118959 78.2884615384615  25.9907063197026 75.6346153846154  25.9907063197026 75.6346153846154  C 25.9907063197026 75.6346153846154  27.7527881040892 75.6346153846154  27.7527881040892 75.6346153846154  C 27.7527881040892 75.6346153846154  27.7527881040892 73.8653846153846  27.7527881040892 73.8653846153846  C 27.7527881040892 73.8653846153846  31.2769516728625 72.0961538461538  31.2769516728625 72.0961538461538  C 31.2769516728625 72.0961538461538  32.1579925650558 72.9807692307692  32.1579925650558 72.9807692307692  C 32.1579925650558 72.9807692307692  39.2063197026022 71.2115384615385  39.2063197026022 71.2115384615385  C 39.2063197026022 71.2115384615385  41.8494423791822 72.9807692307692  41.8494423791822 72.9807692307692  C 41.8494423791822 72.9807692307692  44.4925650557621 72.0961538461538  44.4925650557621 72.0961538461538  C 44.4925650557621 72.0961538461538  47.135687732342 70.3269230769231  47.135687732342 70.3269230769231  C 47.135687732342 70.3269230769231  48.8977695167286 66.7884615384615  48.8977695167286 66.7884615384615  C 48.8977695167286 66.7884615384615  53.3029739776952 65.9038461538462  53.3029739776952 65.9038461538462  C 53.3029739776952 65.9038461538462  61.2323420074349 59.7115384615385  61.2323420074349 59.7115384615385  C 61.2323420074349 59.7115384615385  69.1617100371747 59.7115384615385  69.1617100371747 59.7115384615385  C 69.1617100371747 59.7115384615385  71.8048327137546 57.9423076923077  71.8048327137546 57.9423076923077  C 71.8048327137546 57.9423076923077  71.8048327137546 54.4038461538462  71.8048327137546 54.4038461538462  C 71.8048327137546 54.4038461538462  73.5669144981413 55.2884615384615  73.5669144981413 55.2884615384615  C 73.5669144981413 55.2884615384615  77.9721189591078 51.75  77.9721189591078 51.75  C 77.9721189591078 51.75  85.9014869888476 54.4038461538462  85.9014869888476 54.4038461538462  C 85.9014869888476 54.4038461538462  89.4256505576208 57.0576923076923  89.4256505576208 57.0576923076923  C 89.4256505576208 57.0576923076923  91.1877323420074 56.1730769230769  91.1877323420074 56.1730769230769  C 91.1877323420074 56.1730769230769  91.1877323420074 53.5192307692308  91.1877323420074 53.5192307692308  C 91.1877323420074 53.5192307692308  94.7118959107807 54.4038461538462  94.7118959107807 54.4038461538462  C 94.7118959107807 54.4038461538462  96.4739776951673 51.75  96.4739776951673 51.75  C 96.4739776951673 51.75  97.3550185873606 52.6346153846154  97.3550185873606 52.6346153846154  C 97.3550185873606 52.6346153846154  97.3550185873606 48.2115384615385  97.3550185873606 48.2115384615385  C 97.3550185873606 48.2115384615385  97.3550185873606 52.6346153846154  97.3550185873606 52.6346153846154  C 97.3550185873606 52.6346153846154  107.92750929368 49.9807692307692  107.92750929368 49.9807692307692  C 107.92750929368 49.9807692307692  106.165427509294 46.4423076923077  106.165427509294 46.4423076923077  C 106.165427509294 46.4423076923077  108.808550185874 42.9038461538462  108.808550185874 42.9038461538462  C 108.808550185874 42.9038461538462  113.21375464684 39.3653846153846  113.21375464684 39.3653846153846  C 113.21375464684 39.3653846153846  114.975836431227 40.25  114.975836431227 40.25  C 114.975836431227 40.25  115.85687732342 38.4807692307692  115.85687732342 38.4807692307692  C 115.85687732342 38.4807692307692  115.85687732342 36.7115384615385  115.85687732342 36.7115384615385  C 115.85687732342 36.7115384615385  113.21375464684 34.9423076923077  113.21375464684 34.9423076923077  C 113.21375464684 34.9423076923077  114.975836431227 32.2884615384615  114.975836431227 32.2884615384615  C 114.975836431227 32.2884615384615  110.57063197026 27.8653846153846  110.57063197026 27.8653846153846  C 110.57063197026 27.8653846153846  111.451672862454 20.7884615384615  111.451672862454 20.7884615384615  C 111.451672862454 20.7884615384615  116.737918215613 16.3653846153846  116.737918215613 16.3653846153846  C 116.737918215613 16.3653846153846  122.905204460967 15.4807692307692  122.905204460967 15.4807692307692  C 122.905204460967 15.4807692307692  123.78624535316 11.9423076923077  123.78624535316 11.9423076923077  C 123.78624535316 11.9423076923077  126.42936802974 11.9423076923077  126.42936802974 11.9423076923077  C 126.42936802974 11.9423076923077  130.834572490706 15.4807692307692  130.834572490706 15.4807692307692  C 130.834572490706 15.4807692307692  131.7156133829 12.8269230769231  131.7156133829 12.8269230769231  C 131.7156133829 12.8269230769231  129.07249070632 5.75  129.07249070632 5.75  C 129.07249070632 5.75  130.834572490706 4.86538461538461  130.834572490706 4.86538461538461  C 130.834572490706 4.86538461538461  132.596654275093 7.51923076923077  132.596654275093 7.51923076923077  C 132.596654275093 7.51923076923077  141.407063197026 3.98076923076923  141.407063197026 3.98076923076923  C 141.407063197026 3.98076923076923  145.812267657993 0.442307692307692  145.812267657993 0.442307692307692  C 145.812267657993 0.442307692307692  147.574349442379 3.98076923076923  147.574349442379 3.98076923076923  C 147.574349442379 3.98076923076923  151.979553903346 7.51923076923077  151.979553903346 7.51923076923077  C 151.979553903346 7.51923076923077  154.622676579926 7.51923076923077  154.622676579926 7.51923076923077  C 154.622676579926 7.51923076923077  155.503717472119 9.28846153846154  155.503717472119 9.28846153846154  C 155.503717472119 9.28846153846154  158.146840148699 10.1730769230769  158.146840148699 10.1730769230769  C 158.146840148699 10.1730769230769  163.433085501859 10.1730769230769  163.433085501859 10.1730769230769  C 163.433085501859 10.1730769230769  166.076208178439 13.7115384615385  166.076208178439 13.7115384615385  C 166.076208178439 13.7115384615385  170.481412639405 13.7115384615385  170.481412639405 13.7115384615385  C 170.481412639405 13.7115384615385  175.767657992565 18.1346153846154  175.767657992565 18.1346153846154  C 175.767657992565 18.1346153846154  167.838289962825 19.9038461538462  167.838289962825 19.9038461538462  C 167.838289962825 19.9038461538462  166.076208178439 22.5576923076923  166.076208178439 22.5576923076923  C 166.076208178439 22.5576923076923  179.291821561338 29.6346153846154  179.291821561338 29.6346153846154  C 179.291821561338 29.6346153846154  181.053903345725 39.3653846153846  181.053903345725 39.3653846153846  C 181.053903345725 39.3653846153846  184.578066914498 38.4807692307692  184.578066914498 38.4807692307692  C 184.578066914498 38.4807692307692  185.459107806691 36.7115384615385  185.459107806691 36.7115384615385  C 185.459107806691 36.7115384615385  190.745353159851 36.7115384615385  190.745353159851 36.7115384615385  C 190.745353159851 36.7115384615385  195.150557620818 39.3653846153846  195.150557620818 39.3653846153846  C 195.150557620818 39.3653846153846  199.555762081784 35.8269230769231  199.555762081784 35.8269230769231  C 199.555762081784 35.8269230769231  201.317843866171 37.5961538461538  201.317843866171 37.5961538461538  C 201.317843866171 37.5961538461538  205.723048327138 37.5961538461538  205.723048327138 37.5961538461538  C 205.723048327138 37.5961538461538  206.604089219331 35.8269230769231  206.604089219331 35.8269230769231  C 206.604089219331 35.8269230769231  209.247211895911 34.9423076923077  209.247211895911 34.9423076923077  C 209.247211895911 34.9423076923077  213.652416356877 37.5961538461538  213.652416356877 37.5961538461538  C 213.652416356877 37.5961538461538  218.057620817844 43.7884615384615  218.057620817844 43.7884615384615  C 218.057620817844 43.7884615384615  220.700743494424 44.6730769230769  220.700743494424 44.6730769230769  C 220.700743494424 44.6730769230769  219.819702602231 46.4423076923077  219.819702602231 46.4423076923077  C 219.819702602231 46.4423076923077  222.46282527881 45.5576923076923  222.46282527881 45.5576923076923  C 222.46282527881 45.5576923076923  223.343866171004 46.4423076923077  223.343866171004 46.4423076923077  C 223.343866171004 46.4423076923077  221.581784386617 48.2115384615385  221.581784386617 48.2115384615385  C 221.581784386617 48.2115384615385  218.938661710037 48.2115384615385  218.938661710037 48.2115384615385  C 218.938661710037 48.2115384615385  219.819702602231 50.8653846153846  219.819702602231 50.8653846153846  C 219.819702602231 50.8653846153846  222.46282527881 52.6346153846154  222.46282527881 52.6346153846154  C 222.46282527881 52.6346153846154  222.46282527881 55.2884615384615  222.46282527881 55.2884615384615  C 222.46282527881 55.2884615384615  217.176579925651 61.4807692307692  217.176579925651 61.4807692307692  C 217.176579925651 61.4807692307692  218.057620817844 65.9038461538462  218.057620817844 65.9038461538462  C 218.057620817844 65.9038461538462  219.819702602231 67.6730769230769  219.819702602231 67.6730769230769  C 219.819702602231 67.6730769230769  228.630111524164 67.6730769230769  228.630111524164 67.6730769230769  C 228.630111524164 67.6730769230769  232.154275092937 76.5192307692308  232.154275092937 76.5192307692308  C 232.154275092937 76.5192307692308  226.868029739777 83.5961538461538  226.868029739777 83.5961538461538  C 226.868029739777 83.5961538461538  232.154275092937 86.25  232.154275092937 86.25  C 232.154275092937 86.25  236.559479553903 92.4423076923077  236.559479553903 92.4423076923077  Z " fill-rule="nonzero" fill="#0fd0e6" stroke="none" fill-opacity="0.0980392156862745" transform="matrix(1 0 0 1 685 354 )" />
    <path d="M 236.559479553903 92.4423076923077  C 236.559479553903 92.4423076923077  234.797397769517 95.0961538461539  234.797397769517 95.0961538461539  C 234.797397769517 95.0961538461539  227.74907063197 99.5192307692308  227.74907063197 99.5192307692308  C 227.74907063197 99.5192307692308  222.46282527881 99.5192307692308  222.46282527881 99.5192307692308  C 222.46282527881 99.5192307692308  222.46282527881 103.057692307692  222.46282527881 103.057692307692  C 222.46282527881 103.057692307692  219.819702602231 106.596153846154  219.819702602231 106.596153846154  C 219.819702602231 106.596153846154  217.176579925651 105.711538461538  217.176579925651 105.711538461538  C 217.176579925651 105.711538461538  214.533457249071 109.25  214.533457249071 109.25  C 214.533457249071 109.25  211.009293680297 107.480769230769  211.009293680297 107.480769230769  C 211.009293680297 107.480769230769  202.198884758364 113.673076923077  202.198884758364 113.673076923077  C 202.198884758364 113.673076923077  200.436802973978 112.788461538462  200.436802973978 112.788461538462  C 200.436802973978 112.788461538462  199.555762081784 102.173076923077  199.555762081784 102.173076923077  C 199.555762081784 102.173076923077  196.031598513011 102.173076923077  196.031598513011 102.173076923077  C 196.031598513011 102.173076923077  196.031598513011 100.403846153846  196.031598513011 100.403846153846  C 196.031598513011 100.403846153846  193.388475836431 98.6346153846154  193.388475836431 98.6346153846154  C 193.388475836431 98.6346153846154  189.864312267658 102.173076923077  189.864312267658 102.173076923077  C 189.864312267658 102.173076923077  184.578066914498 102.173076923077  184.578066914498 102.173076923077  C 184.578066914498 102.173076923077  181.934944237918 107.480769230769  181.934944237918 107.480769230769  C 181.934944237918 107.480769230769  176.648698884758 108.365384615385  176.648698884758 108.365384615385  C 176.648698884758 108.365384615385  173.124535315985 115.442307692308  173.124535315985 115.442307692308  C 173.124535315985 115.442307692308  169.600371747212 113.673076923077  169.600371747212 113.673076923077  C 169.600371747212 113.673076923077  165.195167286245 113.673076923077  165.195167286245 113.673076923077  C 165.195167286245 113.673076923077  164.314126394052 111.903846153846  164.314126394052 111.903846153846  C 164.314126394052 111.903846153846  160.789962825279 111.903846153846  160.789962825279 111.903846153846  C 160.789962825279 111.903846153846  159.027881040892 116.326923076923  159.027881040892 116.326923076923  C 159.027881040892 116.326923076923  157.265799256506 118.096153846154  157.265799256506 118.096153846154  C 157.265799256506 118.096153846154  155.503717472119 116.326923076923  155.503717472119 116.326923076923  C 155.503717472119 116.326923076923  150.217472118959 120.75  150.217472118959 120.75  C 150.217472118959 120.75  151.098513011152 122.519230769231  151.098513011152 122.519230769231  C 151.098513011152 122.519230769231  149.336431226766 124.288461538462  149.336431226766 124.288461538462  C 149.336431226766 124.288461538462  144.050185873606 126.057692307692  144.050185873606 126.057692307692  C 144.050185873606 126.057692307692  144.050185873606 128.711538461538  144.050185873606 128.711538461538  C 144.050185873606 128.711538461538  138.763940520446 130.480769230769  138.763940520446 130.480769230769  C 138.763940520446 130.480769230769  139.644981412639 126.942307692308  139.644981412639 126.942307692308  C 139.644981412639 126.942307692308  137.001858736059 130.480769230769  137.001858736059 130.480769230769  C 137.001858736059 130.480769230769  138.763940520446 135.788461538462  138.763940520446 135.788461538462  C 138.763940520446 135.788461538462  134.35873605948 136.673076923077  134.35873605948 136.673076923077  C 134.35873605948 136.673076923077  132.596654275093 138.442307692308  132.596654275093 138.442307692308  C 132.596654275093 138.442307692308  129.07249070632 138.442307692308  129.07249070632 138.442307692308  C 129.07249070632 138.442307692308  128.191449814126 142.865384615385  128.191449814126 142.865384615385  C 128.191449814126 142.865384615385  120.262081784387 142.865384615385  120.262081784387 142.865384615385  C 120.262081784387 142.865384615385  116.737918215613 140.211538461538  116.737918215613 140.211538461538  C 116.737918215613 140.211538461538  115.85687732342 130.480769230769  115.85687732342 130.480769230769  C 115.85687732342 130.480769230769  112.332713754647 128.711538461538  112.332713754647 128.711538461538  C 112.332713754647 128.711538461538  107.046468401487 128.711538461538  107.046468401487 128.711538461538  C 107.046468401487 128.711538461538  101.760223048327 131.365384615385  101.760223048327 131.365384615385  C 101.760223048327 131.365384615385  100.879182156134 129.596153846154  100.879182156134 129.596153846154  C 100.879182156134 129.596153846154  98.2360594795539 128.711538461538  98.2360594795539 128.711538461538  C 98.2360594795539 128.711538461538  94.7118959107807 129.596153846154  94.7118959107807 129.596153846154  C 94.7118959107807 129.596153846154  88.5446096654275 141.980769230769  88.5446096654275 141.980769230769  C 88.5446096654275 141.980769230769  91.1877323420074 148.173076923077  91.1877323420074 148.173076923077  C 91.1877323420074 148.173076923077  89.4256505576208 152.596153846154  89.4256505576208 152.596153846154  C 89.4256505576208 152.596153846154  90.3066914498141 158.788461538462  90.3066914498141 158.788461538462  C 90.3066914498141 158.788461538462  83.2583643122677 157.019230769231  83.2583643122677 157.019230769231  C 83.2583643122677 157.019230769231  77.0910780669145 151.711538461538  77.0910780669145 151.711538461538  C 77.0910780669145 151.711538461538  76.2100371747212 154.365384615385  76.2100371747212 154.365384615385  C 76.2100371747212 154.365384615385  70.9237918215613 155.25  70.9237918215613 155.25  C 70.9237918215613 155.25  70.9237918215613 153.480769230769  70.9237918215613 153.480769230769  C 70.9237918215613 153.480769230769  67.3996282527881 157.019230769231  67.3996282527881 157.019230769231  C 67.3996282527881 157.019230769231  69.1617100371747 160.557692307692  69.1617100371747 160.557692307692  C 69.1617100371747 160.557692307692  67.3996282527881 163.211538461538  67.3996282527881 163.211538461538  C 67.3996282527881 163.211538461538  61.2323420074349 163.211538461538  61.2323420074349 163.211538461538  C 61.2323420074349 163.211538461538  58.589219330855 165.865384615385  58.589219330855 165.865384615385  C 58.589219330855 165.865384615385  56.8271375464684 164.980769230769  56.8271375464684 164.980769230769  C 56.8271375464684 164.980769230769  51.5408921933086 167.634615384615  51.5408921933086 167.634615384615  C 51.5408921933086 167.634615384615  56.8271375464684 177.365384615385  56.8271375464684 177.365384615385  C 56.8271375464684 177.365384615385  55.9460966542751 183.557692307692  55.9460966542751 183.557692307692  C 55.9460966542751 183.557692307692  43.6115241635688 181.788461538462  43.6115241635688 181.788461538462  C 43.6115241635688 181.788461538462  40.9684014869888 183.557692307692  40.9684014869888 183.557692307692  C 40.9684014869888 183.557692307692  40.0873605947955 181.788461538462  40.0873605947955 181.788461538462  C 40.0873605947955 181.788461538462  43.6115241635688 174.711538461538  43.6115241635688 174.711538461538  C 43.6115241635688 174.711538461538  42.7304832713755 170.288461538462  42.7304832713755 170.288461538462  C 42.7304832713755 170.288461538462  35.682156133829 163.211538461538  35.682156133829 163.211538461538  C 35.682156133829 163.211538461538  35.682156133829 159.673076923077  35.682156133829 159.673076923077  C 35.682156133829 159.673076923077  33.9200743494424 159.673076923077  33.9200743494424 159.673076923077  C 33.9200743494424 159.673076923077  36.5631970260223 148.173076923077  36.5631970260223 148.173076923077  C 36.5631970260223 148.173076923077  30.3959107806691 147.288461538462  30.3959107806691 147.288461538462  C 30.3959107806691 147.288461538462  30.3959107806691 144.634615384615  30.3959107806691 144.634615384615  C 30.3959107806691 144.634615384615  39.2063197026022 133.134615384615  39.2063197026022 133.134615384615  C 39.2063197026022 133.134615384615  38.3252788104089 130.480769230769  38.3252788104089 130.480769230769  C 38.3252788104089 130.480769230769  34.8011152416357 130.480769230769  34.8011152416357 130.480769230769  C 34.8011152416357 130.480769230769  27.7527881040892 138.442307692308  27.7527881040892 138.442307692308  C 27.7527881040892 138.442307692308  25.9907063197026 137.557692307692  25.9907063197026 137.557692307692  C 25.9907063197026 137.557692307692  24.228624535316 131.365384615385  24.228624535316 131.365384615385  C 24.228624535316 131.365384615385  14.5371747211896 131.365384615385  14.5371747211896 131.365384615385  C 14.5371747211896 131.365384615385  13.6561338289963 126.057692307692  13.6561338289963 126.057692307692  C 13.6561338289963 126.057692307692  10.131970260223 121.634615384615  10.131970260223 121.634615384615  C 10.131970260223 121.634615384615  12.775092936803 119.865384615385  12.775092936803 119.865384615385  C 12.775092936803 119.865384615385  11.0130111524164 118.980769230769  11.0130111524164 118.980769230769  C 11.0130111524164 118.980769230769  11.0130111524164 117.211538461538  11.0130111524164 117.211538461538  C 11.0130111524164 117.211538461538  12.775092936803 117.211538461538  12.775092936803 117.211538461538  C 12.775092936803 117.211538461538  11.8940520446097 115.442307692308  11.8940520446097 115.442307692308  C 11.8940520446097 115.442307692308  12.775092936803 113.673076923077  12.775092936803 113.673076923077  C 12.775092936803 113.673076923077  14.5371747211896 113.673076923077  14.5371747211896 113.673076923077  C 14.5371747211896 113.673076923077  12.775092936803 111.019230769231  12.775092936803 111.019230769231  C 12.775092936803 111.019230769231  13.6561338289963 109.25  13.6561338289963 109.25  C 13.6561338289963 109.25  17.1802973977695 106.596153846154  17.1802973977695 106.596153846154  C 17.1802973977695 106.596153846154  19.8234200743494 106.596153846154  19.8234200743494 106.596153846154  C 19.8234200743494 106.596153846154  16.2992565055762 100.403846153846  16.2992565055762 100.403846153846  C 16.2992565055762 100.403846153846  14.5371747211896 99.5192307692308  14.5371747211896 99.5192307692308  C 14.5371747211896 99.5192307692308  11.8940520446097 93.3269230769231  11.8940520446097 93.3269230769231  C 11.8940520446097 93.3269230769231  14.5371747211896 86.25  14.5371747211896 86.25  C 14.5371747211896 86.25  10.131970260223 87.1346153846154  10.131970260223 87.1346153846154  C 10.131970260223 87.1346153846154  7.48884758364312 92.4423076923077  7.48884758364312 92.4423076923077  C 7.48884758364312 92.4423076923077  5.72676579925651 92.4423076923077  5.72676579925651 92.4423076923077  C 5.72676579925651 92.4423076923077  3.08364312267658 95.9807692307692  3.08364312267658 95.9807692307692  C 3.08364312267658 95.9807692307692  1.32156133828996 95.9807692307692  1.32156133828996 95.9807692307692  C 1.32156133828996 95.9807692307692  0.440520446096654 92.4423076923077  0.440520446096654 92.4423076923077  C 0.440520446096654 92.4423076923077  2.20260223048327 86.25  2.20260223048327 86.25  C 2.20260223048327 86.25  3.96468401486989 84.4807692307692  3.96468401486989 84.4807692307692  C 3.96468401486989 84.4807692307692  6.60780669144981 84.4807692307692  6.60780669144981 84.4807692307692  C 6.60780669144981 84.4807692307692  8.36988847583643 76.5192307692308  8.36988847583643 76.5192307692308  C 8.36988847583643 76.5192307692308  10.131970260223 75.6346153846154  10.131970260223 75.6346153846154  C 10.131970260223 75.6346153846154  13.6561338289963 76.5192307692308  13.6561338289963 76.5192307692308  C 13.6561338289963 76.5192307692308  16.2992565055762 74.75  16.2992565055762 74.75  C 16.2992565055762 74.75  19.8234200743494 77.4038461538462  19.8234200743494 77.4038461538462  C 19.8234200743494 77.4038461538462  25.1096654275093 75.6346153846154  25.1096654275093 75.6346153846154  C 25.1096654275093 75.6346153846154  26.8717472118959 78.2884615384615  26.8717472118959 78.2884615384615  C 26.8717472118959 78.2884615384615  25.9907063197026 75.6346153846154  25.9907063197026 75.6346153846154  C 25.9907063197026 75.6346153846154  27.7527881040892 75.6346153846154  27.7527881040892 75.6346153846154  C 27.7527881040892 75.6346153846154  27.7527881040892 73.8653846153846  27.7527881040892 73.8653846153846  C 27.7527881040892 73.8653846153846  31.2769516728625 72.0961538461538  31.2769516728625 72.0961538461538  C 31.2769516728625 72.0961538461538  32.1579925650558 72.9807692307692  32.1579925650558 72.9807692307692  C 32.1579925650558 72.9807692307692  39.2063197026022 71.2115384615385  39.2063197026022 71.2115384615385  C 39.2063197026022 71.2115384615385  41.8494423791822 72.9807692307692  41.8494423791822 72.9807692307692  C 41.8494423791822 72.9807692307692  44.4925650557621 72.0961538461538  44.4925650557621 72.0961538461538  C 44.4925650557621 72.0961538461538  47.135687732342 70.3269230769231  47.135687732342 70.3269230769231  C 47.135687732342 70.3269230769231  48.8977695167286 66.7884615384615  48.8977695167286 66.7884615384615  C 48.8977695167286 66.7884615384615  53.3029739776952 65.9038461538462  53.3029739776952 65.9038461538462  C 53.3029739776952 65.9038461538462  61.2323420074349 59.7115384615385  61.2323420074349 59.7115384615385  C 61.2323420074349 59.7115384615385  69.1617100371747 59.7115384615385  69.1617100371747 59.7115384615385  C 69.1617100371747 59.7115384615385  71.8048327137546 57.9423076923077  71.8048327137546 57.9423076923077  C 71.8048327137546 57.9423076923077  71.8048327137546 54.4038461538462  71.8048327137546 54.4038461538462  C 71.8048327137546 54.4038461538462  73.5669144981413 55.2884615384615  73.5669144981413 55.2884615384615  C 73.5669144981413 55.2884615384615  77.9721189591078 51.75  77.9721189591078 51.75  C 77.9721189591078 51.75  85.9014869888476 54.4038461538462  85.9014869888476 54.4038461538462  C 85.9014869888476 54.4038461538462  89.4256505576208 57.0576923076923  89.4256505576208 57.0576923076923  C 89.4256505576208 57.0576923076923  91.1877323420074 56.1730769230769  91.1877323420074 56.1730769230769  C 91.1877323420074 56.1730769230769  91.1877323420074 53.5192307692308  91.1877323420074 53.5192307692308  C 91.1877323420074 53.5192307692308  94.7118959107807 54.4038461538462  94.7118959107807 54.4038461538462  C 94.7118959107807 54.4038461538462  96.4739776951673 51.75  96.4739776951673 51.75  C 96.4739776951673 51.75  97.3550185873606 52.6346153846154  97.3550185873606 52.6346153846154  C 97.3550185873606 52.6346153846154  97.3550185873606 48.2115384615385  97.3550185873606 48.2115384615385  C 97.3550185873606 48.2115384615385  97.3550185873606 52.6346153846154  97.3550185873606 52.6346153846154  C 97.3550185873606 52.6346153846154  107.92750929368 49.9807692307692  107.92750929368 49.9807692307692  C 107.92750929368 49.9807692307692  106.165427509294 46.4423076923077  106.165427509294 46.4423076923077  C 106.165427509294 46.4423076923077  108.808550185874 42.9038461538462  108.808550185874 42.9038461538462  C 108.808550185874 42.9038461538462  113.21375464684 39.3653846153846  113.21375464684 39.3653846153846  C 113.21375464684 39.3653846153846  114.975836431227 40.25  114.975836431227 40.25  C 114.975836431227 40.25  115.85687732342 38.4807692307692  115.85687732342 38.4807692307692  C 115.85687732342 38.4807692307692  115.85687732342 36.7115384615385  115.85687732342 36.7115384615385  C 115.85687732342 36.7115384615385  113.21375464684 34.9423076923077  113.21375464684 34.9423076923077  C 113.21375464684 34.9423076923077  114.975836431227 32.2884615384615  114.975836431227 32.2884615384615  C 114.975836431227 32.2884615384615  110.57063197026 27.8653846153846  110.57063197026 27.8653846153846  C 110.57063197026 27.8653846153846  111.451672862454 20.7884615384615  111.451672862454 20.7884615384615  C 111.451672862454 20.7884615384615  116.737918215613 16.3653846153846  116.737918215613 16.3653846153846  C 116.737918215613 16.3653846153846  122.905204460967 15.4807692307692  122.905204460967 15.4807692307692  C 122.905204460967 15.4807692307692  123.78624535316 11.9423076923077  123.78624535316 11.9423076923077  C 123.78624535316 11.9423076923077  126.42936802974 11.9423076923077  126.42936802974 11.9423076923077  C 126.42936802974 11.9423076923077  130.834572490706 15.4807692307692  130.834572490706 15.4807692307692  C 130.834572490706 15.4807692307692  131.7156133829 12.8269230769231  131.7156133829 12.8269230769231  C 131.7156133829 12.8269230769231  129.07249070632 5.75  129.07249070632 5.75  C 129.07249070632 5.75  130.834572490706 4.86538461538461  130.834572490706 4.86538461538461  C 130.834572490706 4.86538461538461  132.596654275093 7.51923076923077  132.596654275093 7.51923076923077  C 132.596654275093 7.51923076923077  141.407063197026 3.98076923076923  141.407063197026 3.98076923076923  C 141.407063197026 3.98076923076923  145.812267657993 0.442307692307692  145.812267657993 0.442307692307692  C 145.812267657993 0.442307692307692  147.574349442379 3.98076923076923  147.574349442379 3.98076923076923  C 147.574349442379 3.98076923076923  151.979553903346 7.51923076923077  151.979553903346 7.51923076923077  C 151.979553903346 7.51923076923077  154.622676579926 7.51923076923077  154.622676579926 7.51923076923077  C 154.622676579926 7.51923076923077  155.503717472119 9.28846153846154  155.503717472119 9.28846153846154  C 155.503717472119 9.28846153846154  158.146840148699 10.1730769230769  158.146840148699 10.1730769230769  C 158.146840148699 10.1730769230769  163.433085501859 10.1730769230769  163.433085501859 10.1730769230769  C 163.433085501859 10.1730769230769  166.076208178439 13.7115384615385  166.076208178439 13.7115384615385  C 166.076208178439 13.7115384615385  170.481412639405 13.7115384615385  170.481412639405 13.7115384615385  C 170.481412639405 13.7115384615385  175.767657992565 18.1346153846154  175.767657992565 18.1346153846154  C 175.767657992565 18.1346153846154  167.838289962825 19.9038461538462  167.838289962825 19.9038461538462  C 167.838289962825 19.9038461538462  166.076208178439 22.5576923076923  166.076208178439 22.5576923076923  C 166.076208178439 22.5576923076923  179.291821561338 29.6346153846154  179.291821561338 29.6346153846154  C 179.291821561338 29.6346153846154  181.053903345725 39.3653846153846  181.053903345725 39.3653846153846  C 181.053903345725 39.3653846153846  184.578066914498 38.4807692307692  184.578066914498 38.4807692307692  C 184.578066914498 38.4807692307692  185.459107806691 36.7115384615385  185.459107806691 36.7115384615385  C 185.459107806691 36.7115384615385  190.745353159851 36.7115384615385  190.745353159851 36.7115384615385  C 190.745353159851 36.7115384615385  195.150557620818 39.3653846153846  195.150557620818 39.3653846153846  C 195.150557620818 39.3653846153846  199.555762081784 35.8269230769231  199.555762081784 35.8269230769231  C 199.555762081784 35.8269230769231  201.317843866171 37.5961538461538  201.317843866171 37.5961538461538  C 201.317843866171 37.5961538461538  205.723048327138 37.5961538461538  205.723048327138 37.5961538461538  C 205.723048327138 37.5961538461538  206.604089219331 35.8269230769231  206.604089219331 35.8269230769231  C 206.604089219331 35.8269230769231  209.247211895911 34.9423076923077  209.247211895911 34.9423076923077  C 209.247211895911 34.9423076923077  213.652416356877 37.5961538461538  213.652416356877 37.5961538461538  C 213.652416356877 37.5961538461538  218.057620817844 43.7884615384615  218.057620817844 43.7884615384615  C 218.057620817844 43.7884615384615  220.700743494424 44.6730769230769  220.700743494424 44.6730769230769  C 220.700743494424 44.6730769230769  219.819702602231 46.4423076923077  219.819702602231 46.4423076923077  C 219.819702602231 46.4423076923077  222.46282527881 45.5576923076923  222.46282527881 45.5576923076923  C 222.46282527881 45.5576923076923  223.343866171004 46.4423076923077  223.343866171004 46.4423076923077  C 223.343866171004 46.4423076923077  221.581784386617 48.2115384615385  221.581784386617 48.2115384615385  C 221.581784386617 48.2115384615385  218.938661710037 48.2115384615385  218.938661710037 48.2115384615385  C 218.938661710037 48.2115384615385  219.819702602231 50.8653846153846  219.819702602231 50.8653846153846  C 219.819702602231 50.8653846153846  222.46282527881 52.6346153846154  222.46282527881 52.6346153846154  C 222.46282527881 52.6346153846154  222.46282527881 55.2884615384615  222.46282527881 55.2884615384615  C 222.46282527881 55.2884615384615  217.176579925651 61.4807692307692  217.176579925651 61.4807692307692  C 217.176579925651 61.4807692307692  218.057620817844 65.9038461538462  218.057620817844 65.9038461538462  C 218.057620817844 65.9038461538462  219.819702602231 67.6730769230769  219.819702602231 67.6730769230769  C 219.819702602231 67.6730769230769  228.630111524164 67.6730769230769  228.630111524164 67.6730769230769  C 228.630111524164 67.6730769230769  232.154275092937 76.5192307692308  232.154275092937 76.5192307692308  C 232.154275092937 76.5192307692308  226.868029739777 83.5961538461538  226.868029739777 83.5961538461538  C 226.868029739777 83.5961538461538  232.154275092937 86.25  232.154275092937 86.25  C 232.154275092937 86.25  236.559479553903 92.4423076923077  236.559479553903 92.4423076923077  Z " stroke-width="2" stroke-dasharray="1,1" stroke="#999999" fill="none" transform="matrix(1 0 0 1 685 354 )" mask="url(#clip2093)" />
  </g>
</svg>