<?xml version="1.0" encoding="utf-8"?>
<svg version="1.1" xmlns:xlink="http://www.w3.org/1999/xlink" width="204px" height="195px" xmlns="http://www.w3.org/2000/svg">
  <defs>
    <mask fill="white" id="clip2095">
      <path d="M 3.09090909090909 17.2058823529412  C 3.09090909090909 17.2058823529412  2.20779220779221 15.4411764705882  2.20779220779221 15.4411764705882  C 2.20779220779221 15.4411764705882  7.50649350649351 15.4411764705882  7.50649350649351 15.4411764705882  C 7.50649350649351 15.4411764705882  30.4675324675325 7.5  30.4675324675325 7.5  C 30.4675324675325 7.5  34 4.85294117647059  34 4.85294117647059  C 34 4.85294117647059  48.1298701298701 3.97058823529412  48.1298701298701 3.97058823529412  C 48.1298701298701 3.97058823529412  55.1948051948052 0.441176470588235  55.1948051948052 0.441176470588235  C 55.1948051948052 0.441176470588235  69.3246753246753 1.32352941176471  69.3246753246753 1.32352941176471  C 69.3246753246753 1.32352941176471  77.2727272727273 2.20588235294118  77.2727272727273 2.20588235294118  C 77.2727272727273 2.20588235294118  97.5844155844156 11.9117647058824  97.5844155844156 11.9117647058824  C 97.5844155844156 11.9117647058824  103.766233766234 12.7941176470588  103.766233766234 12.7941176470588  C 103.766233766234 12.7941176470588  126.727272727273 26.0294117647059  126.727272727273 26.0294117647059  C 126.727272727273 26.0294117647059  132.025974025974 38.3823529411765  132.025974025974 38.3823529411765  C 132.025974025974 38.3823529411765  145.272727272727 52.5  145.272727272727 52.5  C 145.272727272727 52.5  177.948051948052 93.9705882352941  177.948051948052 93.9705882352941  C 177.948051948052 93.9705882352941  192.961038961039 131.029411764706  192.961038961039 131.029411764706  C 192.961038961039 131.029411764706  203.558441558442 185.735294117647  203.558441558442 185.735294117647  C 203.558441558442 185.735294117647  201.792207792208 188.382352941176  201.792207792208 188.382352941176  C 201.792207792208 188.382352941176  197.376623376623 191.911764705882  197.376623376623 191.911764705882  C 197.376623376623 191.911764705882  187.662337662338 194.558823529412  187.662337662338 194.558823529412  C 187.662337662338 194.558823529412  162.935064935065 194.558823529412  162.935064935065 194.558823529412  C 162.935064935065 194.558823529412  157.636363636364 178.676470588235  157.636363636364 178.676470588235  C 157.636363636364 178.676470588235  146.155844155844 160.147058823529  146.155844155844 160.147058823529  C 146.155844155844 160.147058823529  139.090909090909 155.735294117647  139.090909090909 155.735294117647  C 139.090909090909 155.735294117647  134.675324675325 155.735294117647  134.675324675325 155.735294117647  C 134.675324675325 155.735294117647  127.61038961039 150.441176470588  127.61038961039 150.441176470588  C 127.61038961039 150.441176470588  126.727272727273 152.205882352941  126.727272727273 152.205882352941  C 126.727272727273 152.205882352941  122.311688311688 149.558823529412  122.311688311688 149.558823529412  C 122.311688311688 149.558823529412  109.064935064935 125.735294117647  109.064935064935 125.735294117647  C 109.064935064935 125.735294117647  111.714285714286 124.852941176471  111.714285714286 124.852941176471  C 111.714285714286 124.852941176471  112.597402597403 120.441176470588  112.597402597403 120.441176470588  C 112.597402597403 120.441176470588  79.9220779220779 95.7352941176471  79.9220779220779 95.7352941176471  C 79.9220779220779 95.7352941176471  77.2727272727273 93.0882352941177  77.2727272727273 93.0882352941177  C 77.2727272727273 93.0882352941177  78.1558441558442 88.6764705882353  78.1558441558442 88.6764705882353  C 78.1558441558442 88.6764705882353  69.3246753246753 85.1470588235294  69.3246753246753 85.1470588235294  C 69.3246753246753 85.1470588235294  56.0779220779221 83.3823529411765  56.0779220779221 83.3823529411765  C 56.0779220779221 83.3823529411765  32.2337662337662 67.5  32.2337662337662 67.5  C 32.2337662337662 67.5  27.8181818181818 56.9117647058824  27.8181818181818 56.9117647058824  C 27.8181818181818 56.9117647058824  34.8831168831169 55.1470588235294  34.8831168831169 55.1470588235294  C 34.8831168831169 55.1470588235294  35.7662337662338 56.9117647058824  35.7662337662338 56.9117647058824  C 35.7662337662338 56.9117647058824  40.1818181818182 54.2647058823529  40.1818181818182 54.2647058823529  C 40.1818181818182 54.2647058823529  44.5974025974026 48.9705882352941  44.5974025974026 48.9705882352941  C 44.5974025974026 48.9705882352941  36.6493506493507 42.7941176470588  36.6493506493507 42.7941176470588  C 36.6493506493507 42.7941176470588  31.3506493506493 41.9117647058824  31.3506493506493 41.9117647058824  C 31.3506493506493 41.9117647058824  26.0519480519481 42.7941176470588  26.0519480519481 42.7941176470588  C 26.0519480519481 42.7941176470588  26.0519480519481 44.5588235294118  26.0519480519481 44.5588235294118  C 26.0519480519481 44.5588235294118  18.987012987013 44.5588235294118  18.987012987013 44.5588235294118  C 18.987012987013 44.5588235294118  15.4545454545455 41.9117647058824  15.4545454545455 41.9117647058824  C 15.4545454545455 41.9117647058824  8.38961038961039 40.1470588235294  8.38961038961039 40.1470588235294  C 8.38961038961039 40.1470588235294  6.62337662337662 28.6764705882353  6.62337662337662 28.6764705882353  C 6.62337662337662 28.6764705882353  0.441558441558442 25.1470588235294  0.441558441558442 25.1470588235294  C 0.441558441558442 25.1470588235294  0.441558441558442 23.3823529411765  0.441558441558442 23.3823529411765  C 0.441558441558442 23.3823529411765  3.09090909090909 21.6176470588235  3.09090909090909 21.6176470588235  C 3.09090909090909 21.6176470588235  1.32467532467532 18.0882352941176  1.32467532467532 18.0882352941176  C 1.32467532467532 18.0882352941176  3.09090909090909 17.2058823529412  3.09090909090909 17.2058823529412  Z " fill-rule="evenodd" />
    </mask>
  </defs>
  <g transform="matrix(1 0 0 1 -839 -704 )">
    <path d="M 3.09090909090909 17.2058823529412  C 3.09090909090909 17.2058823529412  2.20779220779221 15.4411764705882  2.20779220779221 15.4411764705882  C 2.20779220779221 15.4411764705882  7.50649350649351 15.4411764705882  7.50649350649351 15.4411764705882  C 7.50649350649351 15.4411764705882  30.4675324675325 7.5  30.4675324675325 7.5  C 30.4675324675325 7.5  34 4.85294117647059  34 4.85294117647059  C 34 4.85294117647059  48.1298701298701 3.97058823529412  48.1298701298701 3.97058823529412  C 48.1298701298701 3.97058823529412  55.1948051948052 0.441176470588235  55.1948051948052 0.441176470588235  C 55.1948051948052 0.441176470588235  69.3246753246753 1.32352941176471  69.3246753246753 1.32352941176471  C 69.3246753246753 1.32352941176471  77.2727272727273 2.20588235294118  77.2727272727273 2.20588235294118  C 77.2727272727273 2.20588235294118  97.5844155844156 11.9117647058824  97.5844155844156 11.9117647058824  C 97.5844155844156 11.9117647058824  103.766233766234 12.7941176470588  103.766233766234 12.7941176470588  C 103.766233766234 12.7941176470588  126.727272727273 26.0294117647059  126.727272727273 26.0294117647059  C 126.727272727273 26.0294117647059  132.025974025974 38.3823529411765  132.025974025974 38.3823529411765  C 132.025974025974 38.3823529411765  145.272727272727 52.5  145.272727272727 52.5  C 145.272727272727 52.5  177.948051948052 93.9705882352941  177.948051948052 93.9705882352941  C 177.948051948052 93.9705882352941  192.961038961039 131.029411764706  192.961038961039 131.029411764706  C 192.961038961039 131.029411764706  203.558441558442 185.735294117647  203.558441558442 185.735294117647  C 203.558441558442 185.735294117647  201.792207792208 188.382352941176  201.792207792208 188.382352941176  C 201.792207792208 188.382352941176  197.376623376623 191.911764705882  197.376623376623 191.911764705882  C 197.376623376623 191.911764705882  187.662337662338 194.558823529412  187.662337662338 194.558823529412  C 187.662337662338 194.558823529412  162.935064935065 194.558823529412  162.935064935065 194.558823529412  C 162.935064935065 194.558823529412  157.636363636364 178.676470588235  157.636363636364 178.676470588235  C 157.636363636364 178.676470588235  146.155844155844 160.147058823529  146.155844155844 160.147058823529  C 146.155844155844 160.147058823529  139.090909090909 155.735294117647  139.090909090909 155.735294117647  C 139.090909090909 155.735294117647  134.675324675325 155.735294117647  134.675324675325 155.735294117647  C 134.675324675325 155.735294117647  127.61038961039 150.441176470588  127.61038961039 150.441176470588  C 127.61038961039 150.441176470588  126.727272727273 152.205882352941  126.727272727273 152.205882352941  C 126.727272727273 152.205882352941  122.311688311688 149.558823529412  122.311688311688 149.558823529412  C 122.311688311688 149.558823529412  109.064935064935 125.735294117647  109.064935064935 125.735294117647  C 109.064935064935 125.735294117647  111.714285714286 124.852941176471  111.714285714286 124.852941176471  C 111.714285714286 124.852941176471  112.597402597403 120.441176470588  112.597402597403 120.441176470588  C 112.597402597403 120.441176470588  79.9220779220779 95.7352941176471  79.9220779220779 95.7352941176471  C 79.9220779220779 95.7352941176471  77.2727272727273 93.0882352941177  77.2727272727273 93.0882352941177  C 77.2727272727273 93.0882352941177  78.1558441558442 88.6764705882353  78.1558441558442 88.6764705882353  C 78.1558441558442 88.6764705882353  69.3246753246753 85.1470588235294  69.3246753246753 85.1470588235294  C 69.3246753246753 85.1470588235294  56.0779220779221 83.3823529411765  56.0779220779221 83.3823529411765  C 56.0779220779221 83.3823529411765  32.2337662337662 67.5  32.2337662337662 67.5  C 32.2337662337662 67.5  27.8181818181818 56.9117647058824  27.8181818181818 56.9117647058824  C 27.8181818181818 56.9117647058824  34.8831168831169 55.1470588235294  34.8831168831169 55.1470588235294  C 34.8831168831169 55.1470588235294  35.7662337662338 56.9117647058824  35.7662337662338 56.9117647058824  C 35.7662337662338 56.9117647058824  40.1818181818182 54.2647058823529  40.1818181818182 54.2647058823529  C 40.1818181818182 54.2647058823529  44.5974025974026 48.9705882352941  44.5974025974026 48.9705882352941  C 44.5974025974026 48.9705882352941  36.6493506493507 42.7941176470588  36.6493506493507 42.7941176470588  C 36.6493506493507 42.7941176470588  31.3506493506493 41.9117647058824  31.3506493506493 41.9117647058824  C 31.3506493506493 41.9117647058824  26.0519480519481 42.7941176470588  26.0519480519481 42.7941176470588  C 26.0519480519481 42.7941176470588  26.0519480519481 44.5588235294118  26.0519480519481 44.5588235294118  C 26.0519480519481 44.5588235294118  18.987012987013 44.5588235294118  18.987012987013 44.5588235294118  C 18.987012987013 44.5588235294118  15.4545454545455 41.9117647058824  15.4545454545455 41.9117647058824  C 15.4545454545455 41.9117647058824  8.38961038961039 40.1470588235294  8.38961038961039 40.1470588235294  C 8.38961038961039 40.1470588235294  6.62337662337662 28.6764705882353  6.62337662337662 28.6764705882353  C 6.62337662337662 28.6764705882353  0.441558441558442 25.1470588235294  0.441558441558442 25.1470588235294  C 0.441558441558442 25.1470588235294  0.441558441558442 23.3823529411765  0.441558441558442 23.3823529411765  C 0.441558441558442 23.3823529411765  3.09090909090909 21.6176470588235  3.09090909090909 21.6176470588235  C 3.09090909090909 21.6176470588235  1.32467532467532 18.0882352941176  1.32467532467532 18.0882352941176  C 1.32467532467532 18.0882352941176  3.09090909090909 17.2058823529412  3.09090909090909 17.2058823529412  Z " fill-rule="nonzero" fill="#0fd0e6" stroke="none" fill-opacity="0.0980392156862745" transform="matrix(1 0 0 1 839 704 )" />
    <path d="M 3.09090909090909 17.2058823529412  C 3.09090909090909 17.2058823529412  2.20779220779221 15.4411764705882  2.20779220779221 15.4411764705882  C 2.20779220779221 15.4411764705882  7.50649350649351 15.4411764705882  7.50649350649351 15.4411764705882  C 7.50649350649351 15.4411764705882  30.4675324675325 7.5  30.4675324675325 7.5  C 30.4675324675325 7.5  34 4.85294117647059  34 4.85294117647059  C 34 4.85294117647059  48.1298701298701 3.97058823529412  48.1298701298701 3.97058823529412  C 48.1298701298701 3.97058823529412  55.1948051948052 0.441176470588235  55.1948051948052 0.441176470588235  C 55.1948051948052 0.441176470588235  69.3246753246753 1.32352941176471  69.3246753246753 1.32352941176471  C 69.3246753246753 1.32352941176471  77.2727272727273 2.20588235294118  77.2727272727273 2.20588235294118  C 77.2727272727273 2.20588235294118  97.5844155844156 11.9117647058824  97.5844155844156 11.9117647058824  C 97.5844155844156 11.9117647058824  103.766233766234 12.7941176470588  103.766233766234 12.7941176470588  C 103.766233766234 12.7941176470588  126.727272727273 26.0294117647059  126.727272727273 26.0294117647059  C 126.727272727273 26.0294117647059  132.025974025974 38.3823529411765  132.025974025974 38.3823529411765  C 132.025974025974 38.3823529411765  145.272727272727 52.5  145.272727272727 52.5  C 145.272727272727 52.5  177.948051948052 93.9705882352941  177.948051948052 93.9705882352941  C 177.948051948052 93.9705882352941  192.961038961039 131.029411764706  192.961038961039 131.029411764706  C 192.961038961039 131.029411764706  203.558441558442 185.735294117647  203.558441558442 185.735294117647  C 203.558441558442 185.735294117647  201.792207792208 188.382352941176  201.792207792208 188.382352941176  C 201.792207792208 188.382352941176  197.376623376623 191.911764705882  197.376623376623 191.911764705882  C 197.376623376623 191.911764705882  187.662337662338 194.558823529412  187.662337662338 194.558823529412  C 187.662337662338 194.558823529412  162.935064935065 194.558823529412  162.935064935065 194.558823529412  C 162.935064935065 194.558823529412  157.636363636364 178.676470588235  157.636363636364 178.676470588235  C 157.636363636364 178.676470588235  146.155844155844 160.147058823529  146.155844155844 160.147058823529  C 146.155844155844 160.147058823529  139.090909090909 155.735294117647  139.090909090909 155.735294117647  C 139.090909090909 155.735294117647  134.675324675325 155.735294117647  134.675324675325 155.735294117647  C 134.675324675325 155.735294117647  127.61038961039 150.441176470588  127.61038961039 150.441176470588  C 127.61038961039 150.441176470588  126.727272727273 152.205882352941  126.727272727273 152.205882352941  C 126.727272727273 152.205882352941  122.311688311688 149.558823529412  122.311688311688 149.558823529412  C 122.311688311688 149.558823529412  109.064935064935 125.735294117647  109.064935064935 125.735294117647  C 109.064935064935 125.735294117647  111.714285714286 124.852941176471  111.714285714286 124.852941176471  C 111.714285714286 124.852941176471  112.597402597403 120.441176470588  112.597402597403 120.441176470588  C 112.597402597403 120.441176470588  79.9220779220779 95.7352941176471  79.9220779220779 95.7352941176471  C 79.9220779220779 95.7352941176471  77.2727272727273 93.0882352941177  77.2727272727273 93.0882352941177  C 77.2727272727273 93.0882352941177  78.1558441558442 88.6764705882353  78.1558441558442 88.6764705882353  C 78.1558441558442 88.6764705882353  69.3246753246753 85.1470588235294  69.3246753246753 85.1470588235294  C 69.3246753246753 85.1470588235294  56.0779220779221 83.3823529411765  56.0779220779221 83.3823529411765  C 56.0779220779221 83.3823529411765  32.2337662337662 67.5  32.2337662337662 67.5  C 32.2337662337662 67.5  27.8181818181818 56.9117647058824  27.8181818181818 56.9117647058824  C 27.8181818181818 56.9117647058824  34.8831168831169 55.1470588235294  34.8831168831169 55.1470588235294  C 34.8831168831169 55.1470588235294  35.7662337662338 56.9117647058824  35.7662337662338 56.9117647058824  C 35.7662337662338 56.9117647058824  40.1818181818182 54.2647058823529  40.1818181818182 54.2647058823529  C 40.1818181818182 54.2647058823529  44.5974025974026 48.9705882352941  44.5974025974026 48.9705882352941  C 44.5974025974026 48.9705882352941  36.6493506493507 42.7941176470588  36.6493506493507 42.7941176470588  C 36.6493506493507 42.7941176470588  31.3506493506493 41.9117647058824  31.3506493506493 41.9117647058824  C 31.3506493506493 41.9117647058824  26.0519480519481 42.7941176470588  26.0519480519481 42.7941176470588  C 26.0519480519481 42.7941176470588  26.0519480519481 44.5588235294118  26.0519480519481 44.5588235294118  C 26.0519480519481 44.5588235294118  18.987012987013 44.5588235294118  18.987012987013 44.5588235294118  C 18.987012987013 44.5588235294118  15.4545454545455 41.9117647058824  15.4545454545455 41.9117647058824  C 15.4545454545455 41.9117647058824  8.38961038961039 40.1470588235294  8.38961038961039 40.1470588235294  C 8.38961038961039 40.1470588235294  6.62337662337662 28.6764705882353  6.62337662337662 28.6764705882353  C 6.62337662337662 28.6764705882353  0.441558441558442 25.1470588235294  0.441558441558442 25.1470588235294  C 0.441558441558442 25.1470588235294  0.441558441558442 23.3823529411765  0.441558441558442 23.3823529411765  C 0.441558441558442 23.3823529411765  3.09090909090909 21.6176470588235  3.09090909090909 21.6176470588235  C 3.09090909090909 21.6176470588235  1.32467532467532 18.0882352941176  1.32467532467532 18.0882352941176  C 1.32467532467532 18.0882352941176  3.09090909090909 17.2058823529412  3.09090909090909 17.2058823529412  Z " stroke-width="2" stroke-dasharray="1,1" stroke="#999999" fill="none" transform="matrix(1 0 0 1 839 704 )" mask="url(#clip2095)" />
  </g>
</svg>