<?xml version="1.0" encoding="utf-8"?>
<svg version="1.1" xmlns:xlink="http://www.w3.org/1999/xlink" width="355px" height="282px" xmlns="http://www.w3.org/2000/svg">
  <defs>
    <mask fill="white" id="clip2097">
      <path d="M 252.120646766169 155.540625  C 252.120646766169 155.540625  251.237562189055 156.421875  251.237562189055 156.421875  C 251.237562189055 156.421875  249.471393034826 158.184375  249.471393034826 158.184375  C 249.471393034826 158.184375  237.991293532338 161.709375  237.991293532338 161.709375  C 237.991293532338 161.709375  235.342039800995 159.065625  235.342039800995 159.065625  C 235.342039800995 159.065625  232.692786069652 160.828125  232.692786069652 160.828125  C 232.692786069652 160.828125  227.394278606965 159.065625  227.394278606965 159.065625  C 227.394278606965 159.065625  214.148009950249 165.234375  214.148009950249 165.234375  C 214.148009950249 165.234375  210.615671641791 178.453125  210.615671641791 178.453125  C 210.615671641791 178.453125  205.317164179104 181.096875  205.317164179104 181.096875  C 205.317164179104 181.096875  207.083333333333 194.315625  207.083333333333 194.315625  C 207.083333333333 194.315625  203.550995024876 194.315625  203.550995024876 194.315625  C 203.550995024876 194.315625  197.369402985075 204.009375  197.369402985075 204.009375  C 197.369402985075 204.009375  200.018656716418 206.653125  200.018656716418 206.653125  C 200.018656716418 206.653125  193.837064676617 211.059375  193.837064676617 211.059375  C 193.837064676617 211.059375  193.837064676617 212.821875  193.837064676617 212.821875  C 193.837064676617 212.821875  188.53855721393 215.465625  188.53855721393 215.465625  C 188.53855721393 215.465625  186.772388059702 218.109375  186.772388059702 218.109375  C 186.772388059702 218.109375  185.006218905473 218.109375  185.006218905473 218.109375  C 185.006218905473 218.109375  182.356965174129 222.515625  182.356965174129 222.515625  C 182.356965174129 222.515625  179.707711442786 222.515625  179.707711442786 222.515625  C 179.707711442786 222.515625  178.824626865672 228.684375  178.824626865672 228.684375  C 178.824626865672 228.684375  173.526119402985 233.971875  173.526119402985 233.971875  C 173.526119402985 233.971875  164.695273631841 233.971875  164.695273631841 233.971875  C 164.695273631841 233.971875  158.51368159204 240.140625  158.51368159204 240.140625  C 158.51368159204 240.140625  155.864427860697 240.140625  155.864427860697 240.140625  C 155.864427860697 240.140625  154.981343283582 243.665625  154.981343283582 243.665625  C 154.981343283582 243.665625  152.332089552239 244.546875  152.332089552239 244.546875  C 152.332089552239 244.546875  148.799751243781 248.953125  148.799751243781 248.953125  C 148.799751243781 248.953125  147.033582089552 248.071875  147.033582089552 248.071875  C 147.033582089552 248.071875  138.202736318408 256.884375  138.202736318408 256.884375  C 138.202736318408 256.884375  138.202736318408 259.528125  138.202736318408 259.528125  C 138.202736318408 259.528125  133.787313432836 266.578125  133.787313432836 266.578125  C 133.787313432836 266.578125  134.67039800995 270.103125  134.67039800995 270.103125  C 134.67039800995 270.103125  130.254975124378 270.103125  130.254975124378 270.103125  C 130.254975124378 270.103125  129.371890547264 278.034375  129.371890547264 278.034375  C 129.371890547264 278.034375  125.839552238806 281.559375  125.839552238806 281.559375  C 125.839552238806 281.559375  124.073383084577 281.559375  124.073383084577 281.559375  C 124.073383084577 281.559375  117.008706467662 273.628125  117.008706467662 273.628125  C 117.008706467662 273.628125  117.008706467662 271.865625  117.008706467662 271.865625  C 117.008706467662 271.865625  113.476368159204 272.746875  113.476368159204 272.746875  C 113.476368159204 272.746875  105.528606965174 267.459375  105.528606965174 267.459375  C 105.528606965174 267.459375  105.528606965174 261.290625  105.528606965174 261.290625  C 105.528606965174 261.290625  98.4639303482587 259.528125  98.4639303482587 259.528125  C 98.4639303482587 259.528125  95.8146766169154 255.121875  95.8146766169154 255.121875  C 95.8146766169154 255.121875  87.8669154228856 252.478125  87.8669154228856 252.478125  C 87.8669154228856 252.478125  86.9838308457711 251.596875  86.9838308457711 251.596875  C 86.9838308457711 251.596875  88.75 248.953125  88.75 248.953125  C 88.75 248.953125  84.3345771144279 243.665625  84.3345771144279 243.665625  C 84.3345771144279 243.665625  79.0360696517413 241.021875  79.0360696517413 241.021875  C 79.0360696517413 241.021875  84.3345771144279 233.971875  84.3345771144279 233.971875  C 84.3345771144279 233.971875  84.3345771144279 232.209375  84.3345771144279 232.209375  C 84.3345771144279 232.209375  82.568407960199 231.328125  82.568407960199 231.328125  C 82.568407960199 231.328125  80.8022388059701 225.159375  80.8022388059701 225.159375  C 80.8022388059701 225.159375  71.9713930348259 225.159375  71.9713930348259 225.159375  C 71.9713930348259 225.159375  70.205223880597 223.396875  70.205223880597 223.396875  C 70.205223880597 223.396875  69.3221393034826 218.990625  69.3221393034826 218.990625  C 69.3221393034826 218.990625  74.6206467661691 212.821875  74.6206467661691 212.821875  C 74.6206467661691 212.821875  74.6206467661691 210.178125  74.6206467661691 210.178125  C 74.6206467661691 210.178125  71.9713930348259 208.415625  71.9713930348259 208.415625  C 71.9713930348259 208.415625  71.0883084577114 205.771875  71.0883084577114 205.771875  C 71.0883084577114 205.771875  73.7375621890547 205.771875  73.7375621890547 205.771875  C 73.7375621890547 205.771875  75.5037313432836 204.009375  75.5037313432836 204.009375  C 75.5037313432836 204.009375  71.9713930348259 204.009375  71.9713930348259 204.009375  C 71.9713930348259 204.009375  72.8544776119403 202.246875  72.8544776119403 202.246875  C 72.8544776119403 202.246875  70.205223880597 201.365625  70.205223880597 201.365625  C 70.205223880597 201.365625  66.6728855721393 195.196875  66.6728855721393 195.196875  C 66.6728855721393 195.196875  61.3743781094527 192.553125  61.3743781094527 192.553125  C 61.3743781094527 192.553125  58.7251243781094 193.434375  58.7251243781094 193.434375  C 58.7251243781094 193.434375  57.842039800995 195.196875  57.842039800995 195.196875  C 57.842039800995 195.196875  53.4266169154229 195.196875  53.4266169154229 195.196875  C 53.4266169154229 195.196875  51.660447761194 193.434375  51.660447761194 193.434375  C 51.660447761194 193.434375  47.2450248756219 196.959375  47.2450248756219 196.959375  C 47.2450248756219 196.959375  42.8296019900498 194.315625  42.8296019900498 194.315625  C 42.8296019900498 194.315625  38.4141791044776 194.315625  38.4141791044776 194.315625  C 38.4141791044776 194.315625  33.115671641791 196.959375  33.115671641791 196.959375  C 33.115671641791 196.959375  31.3495024875622 187.265625  31.3495024875622 187.265625  C 31.3495024875622 187.265625  18.1032338308458 180.215625  18.1032338308458 180.215625  C 18.1032338308458 180.215625  19.8694029850746 177.571875  19.8694029850746 177.571875  C 19.8694029850746 177.571875  27.8171641791045 175.809375  27.8171641791045 175.809375  C 27.8171641791045 175.809375  22.5186567164179 171.403125  22.5186567164179 171.403125  C 22.5186567164179 171.403125  18.9863184079602 171.403125  18.9863184079602 171.403125  C 18.9863184079602 171.403125  15.4539800995025 167.878125  15.4539800995025 167.878125  C 15.4539800995025 167.878125  10.1554726368159 167.878125  10.1554726368159 167.878125  C 10.1554726368159 167.878125  7.50621890547264 166.996875  7.50621890547264 166.996875  C 7.50621890547264 166.996875  6.62313432835821 165.234375  6.62313432835821 165.234375  C 6.62313432835821 165.234375  3.97388059701493 165.234375  3.97388059701493 165.234375  C 3.97388059701493 165.234375  0.441542288557214 161.709375  0.441542288557214 161.709375  C 0.441542288557214 161.709375  0.441542288557214 159.946875  0.441542288557214 159.946875  C 0.441542288557214 159.946875  3.97388059701493 158.184375  3.97388059701493 158.184375  C 3.97388059701493 158.184375  5.74004975124378 155.540625  5.74004975124378 155.540625  C 5.74004975124378 155.540625  8.38930348258707 147.609375  8.38930348258707 147.609375  C 8.38930348258707 147.609375  3.0907960199005 145.846875  3.0907960199005 145.846875  C 3.0907960199005 145.846875  3.0907960199005 144.084375  3.0907960199005 144.084375  C 3.0907960199005 144.084375  21.6355721393035 144.084375  21.6355721393035 144.084375  C 21.6355721393035 144.084375  20.7524875621891 138.796875  20.7524875621891 138.796875  C 20.7524875621891 138.796875  25.1679104477612 137.034375  25.1679104477612 137.034375  C 25.1679104477612 137.034375  26.0509950248756 132.628125  26.0509950248756 132.628125  C 26.0509950248756 132.628125  30.4664179104478 131.746875  30.4664179104478 131.746875  C 30.4664179104478 131.746875  38.4141791044776 110.596875  38.4141791044776 110.596875  C 38.4141791044776 110.596875  40.1803482587065 111.478125  40.1803482587065 111.478125  C 40.1803482587065 111.478125  42.8296019900498 109.715625  42.8296019900498 109.715625  C 42.8296019900498 109.715625  41.9465174129353 104.428125  41.9465174129353 104.428125  C 41.9465174129353 104.428125  43.7126865671642 100.903125  43.7126865671642 100.903125  C 43.7126865671642 100.903125  52.5435323383085 100.903125  52.5435323383085 100.903125  C 52.5435323383085 100.903125  56.0758706467662 104.428125  56.0758706467662 104.428125  C 56.0758706467662 104.428125  64.9067164179104 102.665625  64.9067164179104 102.665625  C 64.9067164179104 102.665625  67.5559701492537 104.428125  67.5559701492537 104.428125  C 67.5559701492537 104.428125  72.8544776119403 102.665625  72.8544776119403 102.665625  C 72.8544776119403 102.665625  73.7375621890547 103.546875  73.7375621890547 103.546875  C 73.7375621890547 103.546875  71.9713930348259 104.428125  71.9713930348259 104.428125  C 71.9713930348259 104.428125  73.7375621890547 107.953125  73.7375621890547 107.953125  C 73.7375621890547 107.953125  79.0360696517413 111.478125  79.0360696517413 111.478125  C 79.0360696517413 111.478125  79.9191542288557 110.596875  79.9191542288557 110.596875  C 79.9191542288557 110.596875  83.4514925373134 112.359375  83.4514925373134 112.359375  C 83.4514925373134 112.359375  85.2176616915423 119.409375  85.2176616915423 119.409375  C 85.2176616915423 119.409375  90.5161691542288 123.815625  90.5161691542288 123.815625  C 90.5161691542288 123.815625  95.8146766169154 122.934375  95.8146766169154 122.934375  C 95.8146766169154 122.934375  97.5808457711443 124.696875  97.5808457711443 124.696875  C 97.5808457711443 124.696875  105.528606965174 124.696875  105.528606965174 124.696875  C 105.528606965174 124.696875  107.294776119403 122.934375  107.294776119403 122.934375  C 107.294776119403 122.934375  111.710199004975 122.934375  111.710199004975 122.934375  C 111.710199004975 122.934375  119.657960199005 117.646875  119.657960199005 117.646875  C 119.657960199005 117.646875  117.008706467662 116.765625  117.008706467662 116.765625  C 117.008706467662 116.765625  118.774875621891 115.003125  118.774875621891 115.003125  C 118.774875621891 115.003125  125.839552238806 115.884375  125.839552238806 115.884375  C 125.839552238806 115.884375  131.138059701493 122.934375  131.138059701493 122.934375  C 131.138059701493 122.934375  130.254975124378 126.459375  130.254975124378 126.459375  C 130.254975124378 126.459375  132.904228855721 125.578125  132.904228855721 125.578125  C 132.904228855721 125.578125  136.436567164179 128.221875  136.436567164179 128.221875  C 136.436567164179 128.221875  139.085820895522 128.221875  139.085820895522 128.221875  C 139.085820895522 128.221875  139.085820895522 131.746875  139.085820895522 131.746875  C 139.085820895522 131.746875  144.384328358209 134.390625  144.384328358209 134.390625  C 144.384328358209 134.390625  147.916666666667 129.103125  147.916666666667 129.103125  C 147.916666666667 129.103125  152.332089552239 125.578125  152.332089552239 125.578125  C 152.332089552239 125.578125  149.682835820896 122.934375  149.682835820896 122.934375  C 149.682835820896 122.934375  155.864427860697 118.528125  155.864427860697 118.528125  C 155.864427860697 118.528125  154.981343283582 115.884375  154.981343283582 115.884375  C 154.981343283582 115.884375  162.046019900498 114.121875  162.046019900498 114.121875  C 162.046019900498 114.121875  157.630597014925 110.596875  157.630597014925 110.596875  C 157.630597014925 110.596875  157.630597014925 107.953125  157.630597014925 107.953125  C 157.630597014925 107.953125  159.396766169154 107.071875  159.396766169154 107.071875  C 159.396766169154 107.071875  159.396766169154 101.784375  159.396766169154 101.784375  C 159.396766169154 101.784375  161.162935323383 100.021875  161.162935323383 100.021875  C 161.162935323383 100.021875  158.51368159204 96.496875  158.51368159204 96.496875  C 158.51368159204 96.496875  161.162935323383 91.209375  161.162935323383 91.209375  C 161.162935323383 91.209375  156.747512437811 82.396875  156.747512437811 82.396875  C 156.747512437811 82.396875  151.449004975124 76.228125  151.449004975124 76.228125  C 151.449004975124 76.228125  154.098258706468 74.465625  154.098258706468 74.465625  C 154.098258706468 74.465625  151.449004975124 73.584375  151.449004975124 73.584375  C 151.449004975124 73.584375  160.279850746269 67.415625  160.279850746269 67.415625  C 160.279850746269 67.415625  159.396766169154 66.534375  159.396766169154 66.534375  C 159.396766169154 66.534375  162.046019900498 63.009375  162.046019900498 63.009375  C 162.046019900498 63.009375  162.046019900498 60.365625  162.046019900498 60.365625  C 162.046019900498 60.365625  166.46144278607 56.840625  166.46144278607 56.840625  C 166.46144278607 56.840625  170.876865671642 56.840625  170.876865671642 56.840625  C 170.876865671642 56.840625  175.292288557214 59.484375  175.292288557214 59.484375  C 175.292288557214 59.484375  184.123134328358 60.365625  184.123134328358 60.365625  C 184.123134328358 60.365625  185.006218905473 53.315625  185.006218905473 53.315625  C 185.006218905473 53.315625  186.772388059702 53.315625  186.772388059702 53.315625  C 186.772388059702 53.315625  192.070895522388 58.603125  192.070895522388 58.603125  C 192.070895522388 58.603125  200.018656716418 55.959375  200.018656716418 55.959375  C 200.018656716418 55.959375  198.252487562189 48.909375  198.252487562189 48.909375  C 198.252487562189 48.909375  199.135572139303 44.503125  199.135572139303 44.503125  C 199.135572139303 44.503125  197.369402985075 39.215625  197.369402985075 39.215625  C 197.369402985075 39.215625  195.603233830846 38.334375  195.603233830846 38.334375  C 195.603233830846 38.334375  197.369402985075 35.690625  197.369402985075 35.690625  C 197.369402985075 35.690625  200.018656716418 37.453125  200.018656716418 37.453125  C 200.018656716418 37.453125  201.784825870647 36.571875  201.784825870647 36.571875  C 201.784825870647 36.571875  201.784825870647 40.096875  201.784825870647 40.096875  C 201.784825870647 40.096875  203.550995024876 39.215625  203.550995024876 39.215625  C 203.550995024876 39.215625  203.550995024876 37.453125  203.550995024876 37.453125  C 203.550995024876 37.453125  205.317164179104 37.453125  205.317164179104 37.453125  C 205.317164179104 37.453125  206.200248756219 39.215625  206.200248756219 39.215625  C 206.200248756219 39.215625  210.615671641791 37.453125  210.615671641791 37.453125  C 210.615671641791 37.453125  213.264925373134 39.215625  213.264925373134 39.215625  C 213.264925373134 39.215625  216.797263681592 37.453125  216.797263681592 37.453125  C 216.797263681592 37.453125  217.680348258706 38.334375  217.680348258706 38.334375  C 217.680348258706 38.334375  221.212686567164 31.284375  221.212686567164 31.284375  C 221.212686567164 31.284375  225.628109452736 27.759375  225.628109452736 27.759375  C 225.628109452736 27.759375  228.27736318408 18.946875  228.27736318408 18.946875  C 228.27736318408 18.946875  230.926616915423 17.184375  230.926616915423 17.184375  C 230.926616915423 17.184375  230.926616915423 15.421875  230.926616915423 15.421875  C 230.926616915423 15.421875  242.40671641791 15.421875  242.40671641791 15.421875  C 242.40671641791 15.421875  255.652985074627 7.490625  255.652985074627 7.490625  C 255.652985074627 7.490625  260.951492537313 6.609375  260.951492537313 6.609375  C 260.951492537313 6.609375  266.25 2.203125  266.25 2.203125  C 266.25 2.203125  273.314676616915 1.321875  273.314676616915 1.321875  C 273.314676616915 1.321875  273.314676616915 3.965625  273.314676616915 3.965625  C 273.314676616915 3.965625  275.963930348259 4.846875  275.963930348259 4.846875  C 275.963930348259 4.846875  278.613184079602 1.321875  278.613184079602 1.321875  C 278.613184079602 1.321875  281.262437810945 3.084375  281.262437810945 3.084375  C 281.262437810945 3.084375  283.911691542289 2.203125  283.911691542289 2.203125  C 283.911691542289 2.203125  285.677860696517 4.846875  285.677860696517 4.846875  C 285.677860696517 4.846875  298.924129353234 2.203125  298.924129353234 2.203125  C 298.924129353234 2.203125  298.041044776119 3.965625  298.041044776119 3.965625  C 298.041044776119 3.965625  300.690298507463 4.846875  300.690298507463 4.846875  C 300.690298507463 4.846875  305.988805970149 2.203125  305.988805970149 2.203125  C 305.988805970149 2.203125  311.287313432836 3.084375  311.287313432836 3.084375  C 311.287313432836 3.084375  313.936567164179 0.440625  313.936567164179 0.440625  C 313.936567164179 0.440625  313.936567164179 2.203125  313.936567164179 2.203125  C 313.936567164179 2.203125  319.235074626866 2.203125  319.235074626866 2.203125  C 319.235074626866 2.203125  320.11815920398 3.965625  320.11815920398 3.965625  C 320.11815920398 3.965625  328.949004975124 2.203125  328.949004975124 2.203125  C 328.949004975124 2.203125  329.832089552239 0.440625  329.832089552239 0.440625  C 329.832089552239 0.440625  331.598258706468 0.440625  331.598258706468 0.440625  C 331.598258706468 0.440625  332.481343283582 2.203125  332.481343283582 2.203125  C 332.481343283582 2.203125  343.078358208955 7.490625  343.078358208955 7.490625  C 343.078358208955 7.490625  342.195273631841 13.659375  342.195273631841 13.659375  C 342.195273631841 13.659375  347.493781094527 24.234375  347.493781094527 24.234375  C 347.493781094527 24.234375  346.610696517413 31.284375  346.610696517413 31.284375  C 346.610696517413 31.284375  348.376865671642 31.284375  348.376865671642 31.284375  C 348.376865671642 31.284375  351.026119402985 40.096875  351.026119402985 40.096875  C 351.026119402985 40.096875  353.675373134328 43.621875  353.675373134328 43.621875  C 353.675373134328 43.621875  351.026119402985 51.553125  351.026119402985 51.553125  C 351.026119402985 51.553125  345.727611940299 54.196875  345.727611940299 54.196875  C 345.727611940299 54.196875  344.844527363184 55.959375  344.844527363184 55.959375  C 344.844527363184 55.959375  344.844527363184 62.128125  344.844527363184 62.128125  C 344.844527363184 62.128125  349.259950248756 64.771875  349.259950248756 64.771875  C 349.259950248756 64.771875  344.844527363184 67.415625  344.844527363184 67.415625  C 344.844527363184 67.415625  344.844527363184 70.059375  344.844527363184 70.059375  C 344.844527363184 70.059375  351.9092039801 73.584375  351.9092039801 73.584375  C 351.9092039801 73.584375  354.558457711443 77.990625  354.558457711443 77.990625  C 354.558457711443 77.990625  347.493781094527 78.871875  347.493781094527 78.871875  C 347.493781094527 78.871875  344.844527363184 80.634375  344.844527363184 80.634375  C 344.844527363184 80.634375  338.662935323383 90.328125  338.662935323383 90.328125  C 338.662935323383 90.328125  336.01368159204 85.040625  336.01368159204 85.040625  C 336.01368159204 85.040625  332.481343283582 85.040625  332.481343283582 85.040625  C 332.481343283582 85.040625  332.481343283582 81.515625  332.481343283582 81.515625  C 332.481343283582 81.515625  335.130597014925 80.634375  335.130597014925 80.634375  C 335.130597014925 80.634375  336.01368159204 77.109375  336.01368159204 77.109375  C 336.01368159204 77.109375  333.364427860697 77.109375  333.364427860697 77.109375  C 333.364427860697 77.109375  327.182835820896 85.040625  327.182835820896 85.040625  C 327.182835820896 85.040625  316.585820895522 87.684375  316.585820895522 87.684375  C 316.585820895522 87.684375  316.585820895522 92.971875  316.585820895522 92.971875  C 316.585820895522 92.971875  313.936567164179 97.378125  313.936567164179 97.378125  C 313.936567164179 97.378125  309.521144278607 97.378125  309.521144278607 97.378125  C 309.521144278607 97.378125  307.754975124378 100.021875  307.754975124378 100.021875  C 307.754975124378 100.021875  304.22263681592 97.378125  304.22263681592 97.378125  C 304.22263681592 97.378125  300.690298507463 97.378125  300.690298507463 97.378125  C 300.690298507463 97.378125  298.924129353234 98.259375  298.924129353234 98.259375  C 298.924129353234 98.259375  298.924129353234 100.021875  298.924129353234 100.021875  C 298.924129353234 100.021875  290.976368159204 101.784375  290.976368159204 101.784375  C 290.976368159204 101.784375  287.444029850746 107.953125  287.444029850746 107.953125  C 287.444029850746 107.953125  282.14552238806 107.953125  282.14552238806 107.953125  C 282.14552238806 107.953125  281.262437810945 115.884375  281.262437810945 115.884375  C 281.262437810945 115.884375  275.963930348259 122.053125  275.963930348259 122.053125  C 275.963930348259 122.053125  258.30223880597 126.459375  258.30223880597 126.459375  C 258.30223880597 126.459375  256.536069651741 128.221875  256.536069651741 128.221875  C 256.536069651741 128.221875  260.951492537313 130.865625  260.951492537313 130.865625  C 260.951492537313 130.865625  256.536069651741 130.865625  256.536069651741 130.865625  C 256.536069651741 130.865625  254.769900497512 137.915625  254.769900497512 137.915625  C 254.769900497512 137.915625  245.055970149254 137.915625  245.055970149254 137.915625  C 245.055970149254 137.915625  246.822139303483 142.321875  246.822139303483 142.321875  C 246.822139303483 142.321875  249.471393034826 142.321875  249.471393034826 142.321875  C 249.471393034826 142.321875  249.471393034826 144.084375  249.471393034826 144.084375  C 249.471393034826 144.084375  248.588308457711 146.728125  248.588308457711 146.728125  C 248.588308457711 146.728125  245.055970149254 148.490625  245.055970149254 148.490625  C 245.055970149254 148.490625  243.289800995025 152.015625  243.289800995025 152.015625  C 243.289800995025 152.015625  244.172885572139 154.659375  244.172885572139 154.659375  C 244.172885572139 154.659375  247.705223880597 153.778125  247.705223880597 153.778125  C 247.705223880597 153.778125  252.120646766169 155.540625  252.120646766169 155.540625  Z " fill-rule="evenodd" />
    </mask>
  </defs>
  <g transform="matrix(1 0 0 1 -832 -197 )">
    <path d="M 252.120646766169 155.540625  C 252.120646766169 155.540625  251.237562189055 156.421875  251.237562189055 156.421875  C 251.237562189055 156.421875  249.471393034826 158.184375  249.471393034826 158.184375  C 249.471393034826 158.184375  237.991293532338 161.709375  237.991293532338 161.709375  C 237.991293532338 161.709375  235.342039800995 159.065625  235.342039800995 159.065625  C 235.342039800995 159.065625  232.692786069652 160.828125  232.692786069652 160.828125  C 232.692786069652 160.828125  227.394278606965 159.065625  227.394278606965 159.065625  C 227.394278606965 159.065625  214.148009950249 165.234375  214.148009950249 165.234375  C 214.148009950249 165.234375  210.615671641791 178.453125  210.615671641791 178.453125  C 210.615671641791 178.453125  205.317164179104 181.096875  205.317164179104 181.096875  C 205.317164179104 181.096875  207.083333333333 194.315625  207.083333333333 194.315625  C 207.083333333333 194.315625  203.550995024876 194.315625  203.550995024876 194.315625  C 203.550995024876 194.315625  197.369402985075 204.009375  197.369402985075 204.009375  C 197.369402985075 204.009375  200.018656716418 206.653125  200.018656716418 206.653125  C 200.018656716418 206.653125  193.837064676617 211.059375  193.837064676617 211.059375  C 193.837064676617 211.059375  193.837064676617 212.821875  193.837064676617 212.821875  C 193.837064676617 212.821875  188.53855721393 215.465625  188.53855721393 215.465625  C 188.53855721393 215.465625  186.772388059702 218.109375  186.772388059702 218.109375  C 186.772388059702 218.109375  185.006218905473 218.109375  185.006218905473 218.109375  C 185.006218905473 218.109375  182.356965174129 222.515625  182.356965174129 222.515625  C 182.356965174129 222.515625  179.707711442786 222.515625  179.707711442786 222.515625  C 179.707711442786 222.515625  178.824626865672 228.684375  178.824626865672 228.684375  C 178.824626865672 228.684375  173.526119402985 233.971875  173.526119402985 233.971875  C 173.526119402985 233.971875  164.695273631841 233.971875  164.695273631841 233.971875  C 164.695273631841 233.971875  158.51368159204 240.140625  158.51368159204 240.140625  C 158.51368159204 240.140625  155.864427860697 240.140625  155.864427860697 240.140625  C 155.864427860697 240.140625  154.981343283582 243.665625  154.981343283582 243.665625  C 154.981343283582 243.665625  152.332089552239 244.546875  152.332089552239 244.546875  C 152.332089552239 244.546875  148.799751243781 248.953125  148.799751243781 248.953125  C 148.799751243781 248.953125  147.033582089552 248.071875  147.033582089552 248.071875  C 147.033582089552 248.071875  138.202736318408 256.884375  138.202736318408 256.884375  C 138.202736318408 256.884375  138.202736318408 259.528125  138.202736318408 259.528125  C 138.202736318408 259.528125  133.787313432836 266.578125  133.787313432836 266.578125  C 133.787313432836 266.578125  134.67039800995 270.103125  134.67039800995 270.103125  C 134.67039800995 270.103125  130.254975124378 270.103125  130.254975124378 270.103125  C 130.254975124378 270.103125  129.371890547264 278.034375  129.371890547264 278.034375  C 129.371890547264 278.034375  125.839552238806 281.559375  125.839552238806 281.559375  C 125.839552238806 281.559375  124.073383084577 281.559375  124.073383084577 281.559375  C 124.073383084577 281.559375  117.008706467662 273.628125  117.008706467662 273.628125  C 117.008706467662 273.628125  117.008706467662 271.865625  117.008706467662 271.865625  C 117.008706467662 271.865625  113.476368159204 272.746875  113.476368159204 272.746875  C 113.476368159204 272.746875  105.528606965174 267.459375  105.528606965174 267.459375  C 105.528606965174 267.459375  105.528606965174 261.290625  105.528606965174 261.290625  C 105.528606965174 261.290625  98.4639303482587 259.528125  98.4639303482587 259.528125  C 98.4639303482587 259.528125  95.8146766169154 255.121875  95.8146766169154 255.121875  C 95.8146766169154 255.121875  87.8669154228856 252.478125  87.8669154228856 252.478125  C 87.8669154228856 252.478125  86.9838308457711 251.596875  86.9838308457711 251.596875  C 86.9838308457711 251.596875  88.75 248.953125  88.75 248.953125  C 88.75 248.953125  84.3345771144279 243.665625  84.3345771144279 243.665625  C 84.3345771144279 243.665625  79.0360696517413 241.021875  79.0360696517413 241.021875  C 79.0360696517413 241.021875  84.3345771144279 233.971875  84.3345771144279 233.971875  C 84.3345771144279 233.971875  84.3345771144279 232.209375  84.3345771144279 232.209375  C 84.3345771144279 232.209375  82.568407960199 231.328125  82.568407960199 231.328125  C 82.568407960199 231.328125  80.8022388059701 225.159375  80.8022388059701 225.159375  C 80.8022388059701 225.159375  71.9713930348259 225.159375  71.9713930348259 225.159375  C 71.9713930348259 225.159375  70.205223880597 223.396875  70.205223880597 223.396875  C 70.205223880597 223.396875  69.3221393034826 218.990625  69.3221393034826 218.990625  C 69.3221393034826 218.990625  74.6206467661691 212.821875  74.6206467661691 212.821875  C 74.6206467661691 212.821875  74.6206467661691 210.178125  74.6206467661691 210.178125  C 74.6206467661691 210.178125  71.9713930348259 208.415625  71.9713930348259 208.415625  C 71.9713930348259 208.415625  71.0883084577114 205.771875  71.0883084577114 205.771875  C 71.0883084577114 205.771875  73.7375621890547 205.771875  73.7375621890547 205.771875  C 73.7375621890547 205.771875  75.5037313432836 204.009375  75.5037313432836 204.009375  C 75.5037313432836 204.009375  71.9713930348259 204.009375  71.9713930348259 204.009375  C 71.9713930348259 204.009375  72.8544776119403 202.246875  72.8544776119403 202.246875  C 72.8544776119403 202.246875  70.205223880597 201.365625  70.205223880597 201.365625  C 70.205223880597 201.365625  66.6728855721393 195.196875  66.6728855721393 195.196875  C 66.6728855721393 195.196875  61.3743781094527 192.553125  61.3743781094527 192.553125  C 61.3743781094527 192.553125  58.7251243781094 193.434375  58.7251243781094 193.434375  C 58.7251243781094 193.434375  57.842039800995 195.196875  57.842039800995 195.196875  C 57.842039800995 195.196875  53.4266169154229 195.196875  53.4266169154229 195.196875  C 53.4266169154229 195.196875  51.660447761194 193.434375  51.660447761194 193.434375  C 51.660447761194 193.434375  47.2450248756219 196.959375  47.2450248756219 196.959375  C 47.2450248756219 196.959375  42.8296019900498 194.315625  42.8296019900498 194.315625  C 42.8296019900498 194.315625  38.4141791044776 194.315625  38.4141791044776 194.315625  C 38.4141791044776 194.315625  33.115671641791 196.959375  33.115671641791 196.959375  C 33.115671641791 196.959375  31.3495024875622 187.265625  31.3495024875622 187.265625  C 31.3495024875622 187.265625  18.1032338308458 180.215625  18.1032338308458 180.215625  C 18.1032338308458 180.215625  19.8694029850746 177.571875  19.8694029850746 177.571875  C 19.8694029850746 177.571875  27.8171641791045 175.809375  27.8171641791045 175.809375  C 27.8171641791045 175.809375  22.5186567164179 171.403125  22.5186567164179 171.403125  C 22.5186567164179 171.403125  18.9863184079602 171.403125  18.9863184079602 171.403125  C 18.9863184079602 171.403125  15.4539800995025 167.878125  15.4539800995025 167.878125  C 15.4539800995025 167.878125  10.1554726368159 167.878125  10.1554726368159 167.878125  C 10.1554726368159 167.878125  7.50621890547264 166.996875  7.50621890547264 166.996875  C 7.50621890547264 166.996875  6.62313432835821 165.234375  6.62313432835821 165.234375  C 6.62313432835821 165.234375  3.97388059701493 165.234375  3.97388059701493 165.234375  C 3.97388059701493 165.234375  0.441542288557214 161.709375  0.441542288557214 161.709375  C 0.441542288557214 161.709375  0.441542288557214 159.946875  0.441542288557214 159.946875  C 0.441542288557214 159.946875  3.97388059701493 158.184375  3.97388059701493 158.184375  C 3.97388059701493 158.184375  5.74004975124378 155.540625  5.74004975124378 155.540625  C 5.74004975124378 155.540625  8.38930348258707 147.609375  8.38930348258707 147.609375  C 8.38930348258707 147.609375  3.0907960199005 145.846875  3.0907960199005 145.846875  C 3.0907960199005 145.846875  3.0907960199005 144.084375  3.0907960199005 144.084375  C 3.0907960199005 144.084375  21.6355721393035 144.084375  21.6355721393035 144.084375  C 21.6355721393035 144.084375  20.7524875621891 138.796875  20.7524875621891 138.796875  C 20.7524875621891 138.796875  25.1679104477612 137.034375  25.1679104477612 137.034375  C 25.1679104477612 137.034375  26.0509950248756 132.628125  26.0509950248756 132.628125  C 26.0509950248756 132.628125  30.4664179104478 131.746875  30.4664179104478 131.746875  C 30.4664179104478 131.746875  38.4141791044776 110.596875  38.4141791044776 110.596875  C 38.4141791044776 110.596875  40.1803482587065 111.478125  40.1803482587065 111.478125  C 40.1803482587065 111.478125  42.8296019900498 109.715625  42.8296019900498 109.715625  C 42.8296019900498 109.715625  41.9465174129353 104.428125  41.9465174129353 104.428125  C 41.9465174129353 104.428125  43.7126865671642 100.903125  43.7126865671642 100.903125  C 43.7126865671642 100.903125  52.5435323383085 100.903125  52.5435323383085 100.903125  C 52.5435323383085 100.903125  56.0758706467662 104.428125  56.0758706467662 104.428125  C 56.0758706467662 104.428125  64.9067164179104 102.665625  64.9067164179104 102.665625  C 64.9067164179104 102.665625  67.5559701492537 104.428125  67.5559701492537 104.428125  C 67.5559701492537 104.428125  72.8544776119403 102.665625  72.8544776119403 102.665625  C 72.8544776119403 102.665625  73.7375621890547 103.546875  73.7375621890547 103.546875  C 73.7375621890547 103.546875  71.9713930348259 104.428125  71.9713930348259 104.428125  C 71.9713930348259 104.428125  73.7375621890547 107.953125  73.7375621890547 107.953125  C 73.7375621890547 107.953125  79.0360696517413 111.478125  79.0360696517413 111.478125  C 79.0360696517413 111.478125  79.9191542288557 110.596875  79.9191542288557 110.596875  C 79.9191542288557 110.596875  83.4514925373134 112.359375  83.4514925373134 112.359375  C 83.4514925373134 112.359375  85.2176616915423 119.409375  85.2176616915423 119.409375  C 85.2176616915423 119.409375  90.5161691542288 123.815625  90.5161691542288 123.815625  C 90.5161691542288 123.815625  95.8146766169154 122.934375  95.8146766169154 122.934375  C 95.8146766169154 122.934375  97.5808457711443 124.696875  97.5808457711443 124.696875  C 97.5808457711443 124.696875  105.528606965174 124.696875  105.528606965174 124.696875  C 105.528606965174 124.696875  107.294776119403 122.934375  107.294776119403 122.934375  C 107.294776119403 122.934375  111.710199004975 122.934375  111.710199004975 122.934375  C 111.710199004975 122.934375  119.657960199005 117.646875  119.657960199005 117.646875  C 119.657960199005 117.646875  117.008706467662 116.765625  117.008706467662 116.765625  C 117.008706467662 116.765625  118.774875621891 115.003125  118.774875621891 115.003125  C 118.774875621891 115.003125  125.839552238806 115.884375  125.839552238806 115.884375  C 125.839552238806 115.884375  131.138059701493 122.934375  131.138059701493 122.934375  C 131.138059701493 122.934375  130.254975124378 126.459375  130.254975124378 126.459375  C 130.254975124378 126.459375  132.904228855721 125.578125  132.904228855721 125.578125  C 132.904228855721 125.578125  136.436567164179 128.221875  136.436567164179 128.221875  C 136.436567164179 128.221875  139.085820895522 128.221875  139.085820895522 128.221875  C 139.085820895522 128.221875  139.085820895522 131.746875  139.085820895522 131.746875  C 139.085820895522 131.746875  144.384328358209 134.390625  144.384328358209 134.390625  C 144.384328358209 134.390625  147.916666666667 129.103125  147.916666666667 129.103125  C 147.916666666667 129.103125  152.332089552239 125.578125  152.332089552239 125.578125  C 152.332089552239 125.578125  149.682835820896 122.934375  149.682835820896 122.934375  C 149.682835820896 122.934375  155.864427860697 118.528125  155.864427860697 118.528125  C 155.864427860697 118.528125  154.981343283582 115.884375  154.981343283582 115.884375  C 154.981343283582 115.884375  162.046019900498 114.121875  162.046019900498 114.121875  C 162.046019900498 114.121875  157.630597014925 110.596875  157.630597014925 110.596875  C 157.630597014925 110.596875  157.630597014925 107.953125  157.630597014925 107.953125  C 157.630597014925 107.953125  159.396766169154 107.071875  159.396766169154 107.071875  C 159.396766169154 107.071875  159.396766169154 101.784375  159.396766169154 101.784375  C 159.396766169154 101.784375  161.162935323383 100.021875  161.162935323383 100.021875  C 161.162935323383 100.021875  158.51368159204 96.496875  158.51368159204 96.496875  C 158.51368159204 96.496875  161.162935323383 91.209375  161.162935323383 91.209375  C 161.162935323383 91.209375  156.747512437811 82.396875  156.747512437811 82.396875  C 156.747512437811 82.396875  151.449004975124 76.228125  151.449004975124 76.228125  C 151.449004975124 76.228125  154.098258706468 74.465625  154.098258706468 74.465625  C 154.098258706468 74.465625  151.449004975124 73.584375  151.449004975124 73.584375  C 151.449004975124 73.584375  160.279850746269 67.415625  160.279850746269 67.415625  C 160.279850746269 67.415625  159.396766169154 66.534375  159.396766169154 66.534375  C 159.396766169154 66.534375  162.046019900498 63.009375  162.046019900498 63.009375  C 162.046019900498 63.009375  162.046019900498 60.365625  162.046019900498 60.365625  C 162.046019900498 60.365625  166.46144278607 56.840625  166.46144278607 56.840625  C 166.46144278607 56.840625  170.876865671642 56.840625  170.876865671642 56.840625  C 170.876865671642 56.840625  175.292288557214 59.484375  175.292288557214 59.484375  C 175.292288557214 59.484375  184.123134328358 60.365625  184.123134328358 60.365625  C 184.123134328358 60.365625  185.006218905473 53.315625  185.006218905473 53.315625  C 185.006218905473 53.315625  186.772388059702 53.315625  186.772388059702 53.315625  C 186.772388059702 53.315625  192.070895522388 58.603125  192.070895522388 58.603125  C 192.070895522388 58.603125  200.018656716418 55.959375  200.018656716418 55.959375  C 200.018656716418 55.959375  198.252487562189 48.909375  198.252487562189 48.909375  C 198.252487562189 48.909375  199.135572139303 44.503125  199.135572139303 44.503125  C 199.135572139303 44.503125  197.369402985075 39.215625  197.369402985075 39.215625  C 197.369402985075 39.215625  195.603233830846 38.334375  195.603233830846 38.334375  C 195.603233830846 38.334375  197.369402985075 35.690625  197.369402985075 35.690625  C 197.369402985075 35.690625  200.018656716418 37.453125  200.018656716418 37.453125  C 200.018656716418 37.453125  201.784825870647 36.571875  201.784825870647 36.571875  C 201.784825870647 36.571875  201.784825870647 40.096875  201.784825870647 40.096875  C 201.784825870647 40.096875  203.550995024876 39.215625  203.550995024876 39.215625  C 203.550995024876 39.215625  203.550995024876 37.453125  203.550995024876 37.453125  C 203.550995024876 37.453125  205.317164179104 37.453125  205.317164179104 37.453125  C 205.317164179104 37.453125  206.200248756219 39.215625  206.200248756219 39.215625  C 206.200248756219 39.215625  210.615671641791 37.453125  210.615671641791 37.453125  C 210.615671641791 37.453125  213.264925373134 39.215625  213.264925373134 39.215625  C 213.264925373134 39.215625  216.797263681592 37.453125  216.797263681592 37.453125  C 216.797263681592 37.453125  217.680348258706 38.334375  217.680348258706 38.334375  C 217.680348258706 38.334375  221.212686567164 31.284375  221.212686567164 31.284375  C 221.212686567164 31.284375  225.628109452736 27.759375  225.628109452736 27.759375  C 225.628109452736 27.759375  228.27736318408 18.946875  228.27736318408 18.946875  C 228.27736318408 18.946875  230.926616915423 17.184375  230.926616915423 17.184375  C 230.926616915423 17.184375  230.926616915423 15.421875  230.926616915423 15.421875  C 230.926616915423 15.421875  242.40671641791 15.421875  242.40671641791 15.421875  C 242.40671641791 15.421875  255.652985074627 7.490625  255.652985074627 7.490625  C 255.652985074627 7.490625  260.951492537313 6.609375  260.951492537313 6.609375  C 260.951492537313 6.609375  266.25 2.203125  266.25 2.203125  C 266.25 2.203125  273.314676616915 1.321875  273.314676616915 1.321875  C 273.314676616915 1.321875  273.314676616915 3.965625  273.314676616915 3.965625  C 273.314676616915 3.965625  275.963930348259 4.846875  275.963930348259 4.846875  C 275.963930348259 4.846875  278.613184079602 1.321875  278.613184079602 1.321875  C 278.613184079602 1.321875  281.262437810945 3.084375  281.262437810945 3.084375  C 281.262437810945 3.084375  283.911691542289 2.203125  283.911691542289 2.203125  C 283.911691542289 2.203125  285.677860696517 4.846875  285.677860696517 4.846875  C 285.677860696517 4.846875  298.924129353234 2.203125  298.924129353234 2.203125  C 298.924129353234 2.203125  298.041044776119 3.965625  298.041044776119 3.965625  C 298.041044776119 3.965625  300.690298507463 4.846875  300.690298507463 4.846875  C 300.690298507463 4.846875  305.988805970149 2.203125  305.988805970149 2.203125  C 305.988805970149 2.203125  311.287313432836 3.084375  311.287313432836 3.084375  C 311.287313432836 3.084375  313.936567164179 0.440625  313.936567164179 0.440625  C 313.936567164179 0.440625  313.936567164179 2.203125  313.936567164179 2.203125  C 313.936567164179 2.203125  319.235074626866 2.203125  319.235074626866 2.203125  C 319.235074626866 2.203125  320.11815920398 3.965625  320.11815920398 3.965625  C 320.11815920398 3.965625  328.949004975124 2.203125  328.949004975124 2.203125  C 328.949004975124 2.203125  329.832089552239 0.440625  329.832089552239 0.440625  C 329.832089552239 0.440625  331.598258706468 0.440625  331.598258706468 0.440625  C 331.598258706468 0.440625  332.481343283582 2.203125  332.481343283582 2.203125  C 332.481343283582 2.203125  343.078358208955 7.490625  343.078358208955 7.490625  C 343.078358208955 7.490625  342.195273631841 13.659375  342.195273631841 13.659375  C 342.195273631841 13.659375  347.493781094527 24.234375  347.493781094527 24.234375  C 347.493781094527 24.234375  346.610696517413 31.284375  346.610696517413 31.284375  C 346.610696517413 31.284375  348.376865671642 31.284375  348.376865671642 31.284375  C 348.376865671642 31.284375  351.026119402985 40.096875  351.026119402985 40.096875  C 351.026119402985 40.096875  353.675373134328 43.621875  353.675373134328 43.621875  C 353.675373134328 43.621875  351.026119402985 51.553125  351.026119402985 51.553125  C 351.026119402985 51.553125  345.727611940299 54.196875  345.727611940299 54.196875  C 345.727611940299 54.196875  344.844527363184 55.959375  344.844527363184 55.959375  C 344.844527363184 55.959375  344.844527363184 62.128125  344.844527363184 62.128125  C 344.844527363184 62.128125  349.259950248756 64.771875  349.259950248756 64.771875  C 349.259950248756 64.771875  344.844527363184 67.415625  344.844527363184 67.415625  C 344.844527363184 67.415625  344.844527363184 70.059375  344.844527363184 70.059375  C 344.844527363184 70.059375  351.9092039801 73.584375  351.9092039801 73.584375  C 351.9092039801 73.584375  354.558457711443 77.990625  354.558457711443 77.990625  C 354.558457711443 77.990625  347.493781094527 78.871875  347.493781094527 78.871875  C 347.493781094527 78.871875  344.844527363184 80.634375  344.844527363184 80.634375  C 344.844527363184 80.634375  338.662935323383 90.328125  338.662935323383 90.328125  C 338.662935323383 90.328125  336.01368159204 85.040625  336.01368159204 85.040625  C 336.01368159204 85.040625  332.481343283582 85.040625  332.481343283582 85.040625  C 332.481343283582 85.040625  332.481343283582 81.515625  332.481343283582 81.515625  C 332.481343283582 81.515625  335.130597014925 80.634375  335.130597014925 80.634375  C 335.130597014925 80.634375  336.01368159204 77.109375  336.01368159204 77.109375  C 336.01368159204 77.109375  333.364427860697 77.109375  333.364427860697 77.109375  C 333.364427860697 77.109375  327.182835820896 85.040625  327.182835820896 85.040625  C 327.182835820896 85.040625  316.585820895522 87.684375  316.585820895522 87.684375  C 316.585820895522 87.684375  316.585820895522 92.971875  316.585820895522 92.971875  C 316.585820895522 92.971875  313.936567164179 97.378125  313.936567164179 97.378125  C 313.936567164179 97.378125  309.521144278607 97.378125  309.521144278607 97.378125  C 309.521144278607 97.378125  307.754975124378 100.021875  307.754975124378 100.021875  C 307.754975124378 100.021875  304.22263681592 97.378125  304.22263681592 97.378125  C 304.22263681592 97.378125  300.690298507463 97.378125  300.690298507463 97.378125  C 300.690298507463 97.378125  298.924129353234 98.259375  298.924129353234 98.259375  C 298.924129353234 98.259375  298.924129353234 100.021875  298.924129353234 100.021875  C 298.924129353234 100.021875  290.976368159204 101.784375  290.976368159204 101.784375  C 290.976368159204 101.784375  287.444029850746 107.953125  287.444029850746 107.953125  C 287.444029850746 107.953125  282.14552238806 107.953125  282.14552238806 107.953125  C 282.14552238806 107.953125  281.262437810945 115.884375  281.262437810945 115.884375  C 281.262437810945 115.884375  275.963930348259 122.053125  275.963930348259 122.053125  C 275.963930348259 122.053125  258.30223880597 126.459375  258.30223880597 126.459375  C 258.30223880597 126.459375  256.536069651741 128.221875  256.536069651741 128.221875  C 256.536069651741 128.221875  260.951492537313 130.865625  260.951492537313 130.865625  C 260.951492537313 130.865625  256.536069651741 130.865625  256.536069651741 130.865625  C 256.536069651741 130.865625  254.769900497512 137.915625  254.769900497512 137.915625  C 254.769900497512 137.915625  245.055970149254 137.915625  245.055970149254 137.915625  C 245.055970149254 137.915625  246.822139303483 142.321875  246.822139303483 142.321875  C 246.822139303483 142.321875  249.471393034826 142.321875  249.471393034826 142.321875  C 249.471393034826 142.321875  249.471393034826 144.084375  249.471393034826 144.084375  C 249.471393034826 144.084375  248.588308457711 146.728125  248.588308457711 146.728125  C 248.588308457711 146.728125  245.055970149254 148.490625  245.055970149254 148.490625  C 245.055970149254 148.490625  243.289800995025 152.015625  243.289800995025 152.015625  C 243.289800995025 152.015625  244.172885572139 154.659375  244.172885572139 154.659375  C 244.172885572139 154.659375  247.705223880597 153.778125  247.705223880597 153.778125  C 247.705223880597 153.778125  252.120646766169 155.540625  252.120646766169 155.540625  Z " fill-rule="nonzero" fill="#0fd0e6" stroke="none" fill-opacity="0.0980392156862745" transform="matrix(1 0 0 1 832 197 )" />
    <path d="M 252.120646766169 155.540625  C 252.120646766169 155.540625  251.237562189055 156.421875  251.237562189055 156.421875  C 251.237562189055 156.421875  249.471393034826 158.184375  249.471393034826 158.184375  C 249.471393034826 158.184375  237.991293532338 161.709375  237.991293532338 161.709375  C 237.991293532338 161.709375  235.342039800995 159.065625  235.342039800995 159.065625  C 235.342039800995 159.065625  232.692786069652 160.828125  232.692786069652 160.828125  C 232.692786069652 160.828125  227.394278606965 159.065625  227.394278606965 159.065625  C 227.394278606965 159.065625  214.148009950249 165.234375  214.148009950249 165.234375  C 214.148009950249 165.234375  210.615671641791 178.453125  210.615671641791 178.453125  C 210.615671641791 178.453125  205.317164179104 181.096875  205.317164179104 181.096875  C 205.317164179104 181.096875  207.083333333333 194.315625  207.083333333333 194.315625  C 207.083333333333 194.315625  203.550995024876 194.315625  203.550995024876 194.315625  C 203.550995024876 194.315625  197.369402985075 204.009375  197.369402985075 204.009375  C 197.369402985075 204.009375  200.018656716418 206.653125  200.018656716418 206.653125  C 200.018656716418 206.653125  193.837064676617 211.059375  193.837064676617 211.059375  C 193.837064676617 211.059375  193.837064676617 212.821875  193.837064676617 212.821875  C 193.837064676617 212.821875  188.53855721393 215.465625  188.53855721393 215.465625  C 188.53855721393 215.465625  186.772388059702 218.109375  186.772388059702 218.109375  C 186.772388059702 218.109375  185.006218905473 218.109375  185.006218905473 218.109375  C 185.006218905473 218.109375  182.356965174129 222.515625  182.356965174129 222.515625  C 182.356965174129 222.515625  179.707711442786 222.515625  179.707711442786 222.515625  C 179.707711442786 222.515625  178.824626865672 228.684375  178.824626865672 228.684375  C 178.824626865672 228.684375  173.526119402985 233.971875  173.526119402985 233.971875  C 173.526119402985 233.971875  164.695273631841 233.971875  164.695273631841 233.971875  C 164.695273631841 233.971875  158.51368159204 240.140625  158.51368159204 240.140625  C 158.51368159204 240.140625  155.864427860697 240.140625  155.864427860697 240.140625  C 155.864427860697 240.140625  154.981343283582 243.665625  154.981343283582 243.665625  C 154.981343283582 243.665625  152.332089552239 244.546875  152.332089552239 244.546875  C 152.332089552239 244.546875  148.799751243781 248.953125  148.799751243781 248.953125  C 148.799751243781 248.953125  147.033582089552 248.071875  147.033582089552 248.071875  C 147.033582089552 248.071875  138.202736318408 256.884375  138.202736318408 256.884375  C 138.202736318408 256.884375  138.202736318408 259.528125  138.202736318408 259.528125  C 138.202736318408 259.528125  133.787313432836 266.578125  133.787313432836 266.578125  C 133.787313432836 266.578125  134.67039800995 270.103125  134.67039800995 270.103125  C 134.67039800995 270.103125  130.254975124378 270.103125  130.254975124378 270.103125  C 130.254975124378 270.103125  129.371890547264 278.034375  129.371890547264 278.034375  C 129.371890547264 278.034375  125.839552238806 281.559375  125.839552238806 281.559375  C 125.839552238806 281.559375  124.073383084577 281.559375  124.073383084577 281.559375  C 124.073383084577 281.559375  117.008706467662 273.628125  117.008706467662 273.628125  C 117.008706467662 273.628125  117.008706467662 271.865625  117.008706467662 271.865625  C 117.008706467662 271.865625  113.476368159204 272.746875  113.476368159204 272.746875  C 113.476368159204 272.746875  105.528606965174 267.459375  105.528606965174 267.459375  C 105.528606965174 267.459375  105.528606965174 261.290625  105.528606965174 261.290625  C 105.528606965174 261.290625  98.4639303482587 259.528125  98.4639303482587 259.528125  C 98.4639303482587 259.528125  95.8146766169154 255.121875  95.8146766169154 255.121875  C 95.8146766169154 255.121875  87.8669154228856 252.478125  87.8669154228856 252.478125  C 87.8669154228856 252.478125  86.9838308457711 251.596875  86.9838308457711 251.596875  C 86.9838308457711 251.596875  88.75 248.953125  88.75 248.953125  C 88.75 248.953125  84.3345771144279 243.665625  84.3345771144279 243.665625  C 84.3345771144279 243.665625  79.0360696517413 241.021875  79.0360696517413 241.021875  C 79.0360696517413 241.021875  84.3345771144279 233.971875  84.3345771144279 233.971875  C 84.3345771144279 233.971875  84.3345771144279 232.209375  84.3345771144279 232.209375  C 84.3345771144279 232.209375  82.568407960199 231.328125  82.568407960199 231.328125  C 82.568407960199 231.328125  80.8022388059701 225.159375  80.8022388059701 225.159375  C 80.8022388059701 225.159375  71.9713930348259 225.159375  71.9713930348259 225.159375  C 71.9713930348259 225.159375  70.205223880597 223.396875  70.205223880597 223.396875  C 70.205223880597 223.396875  69.3221393034826 218.990625  69.3221393034826 218.990625  C 69.3221393034826 218.990625  74.6206467661691 212.821875  74.6206467661691 212.821875  C 74.6206467661691 212.821875  74.6206467661691 210.178125  74.6206467661691 210.178125  C 74.6206467661691 210.178125  71.9713930348259 208.415625  71.9713930348259 208.415625  C 71.9713930348259 208.415625  71.0883084577114 205.771875  71.0883084577114 205.771875  C 71.0883084577114 205.771875  73.7375621890547 205.771875  73.7375621890547 205.771875  C 73.7375621890547 205.771875  75.5037313432836 204.009375  75.5037313432836 204.009375  C 75.5037313432836 204.009375  71.9713930348259 204.009375  71.9713930348259 204.009375  C 71.9713930348259 204.009375  72.8544776119403 202.246875  72.8544776119403 202.246875  C 72.8544776119403 202.246875  70.205223880597 201.365625  70.205223880597 201.365625  C 70.205223880597 201.365625  66.6728855721393 195.196875  66.6728855721393 195.196875  C 66.6728855721393 195.196875  61.3743781094527 192.553125  61.3743781094527 192.553125  C 61.3743781094527 192.553125  58.7251243781094 193.434375  58.7251243781094 193.434375  C 58.7251243781094 193.434375  57.842039800995 195.196875  57.842039800995 195.196875  C 57.842039800995 195.196875  53.4266169154229 195.196875  53.4266169154229 195.196875  C 53.4266169154229 195.196875  51.660447761194 193.434375  51.660447761194 193.434375  C 51.660447761194 193.434375  47.2450248756219 196.959375  47.2450248756219 196.959375  C 47.2450248756219 196.959375  42.8296019900498 194.315625  42.8296019900498 194.315625  C 42.8296019900498 194.315625  38.4141791044776 194.315625  38.4141791044776 194.315625  C 38.4141791044776 194.315625  33.115671641791 196.959375  33.115671641791 196.959375  C 33.115671641791 196.959375  31.3495024875622 187.265625  31.3495024875622 187.265625  C 31.3495024875622 187.265625  18.1032338308458 180.215625  18.1032338308458 180.215625  C 18.1032338308458 180.215625  19.8694029850746 177.571875  19.8694029850746 177.571875  C 19.8694029850746 177.571875  27.8171641791045 175.809375  27.8171641791045 175.809375  C 27.8171641791045 175.809375  22.5186567164179 171.403125  22.5186567164179 171.403125  C 22.5186567164179 171.403125  18.9863184079602 171.403125  18.9863184079602 171.403125  C 18.9863184079602 171.403125  15.4539800995025 167.878125  15.4539800995025 167.878125  C 15.4539800995025 167.878125  10.1554726368159 167.878125  10.1554726368159 167.878125  C 10.1554726368159 167.878125  7.50621890547264 166.996875  7.50621890547264 166.996875  C 7.50621890547264 166.996875  6.62313432835821 165.234375  6.62313432835821 165.234375  C 6.62313432835821 165.234375  3.97388059701493 165.234375  3.97388059701493 165.234375  C 3.97388059701493 165.234375  0.441542288557214 161.709375  0.441542288557214 161.709375  C 0.441542288557214 161.709375  0.441542288557214 159.946875  0.441542288557214 159.946875  C 0.441542288557214 159.946875  3.97388059701493 158.184375  3.97388059701493 158.184375  C 3.97388059701493 158.184375  5.74004975124378 155.540625  5.74004975124378 155.540625  C 5.74004975124378 155.540625  8.38930348258707 147.609375  8.38930348258707 147.609375  C 8.38930348258707 147.609375  3.0907960199005 145.846875  3.0907960199005 145.846875  C 3.0907960199005 145.846875  3.0907960199005 144.084375  3.0907960199005 144.084375  C 3.0907960199005 144.084375  21.6355721393035 144.084375  21.6355721393035 144.084375  C 21.6355721393035 144.084375  20.7524875621891 138.796875  20.7524875621891 138.796875  C 20.7524875621891 138.796875  25.1679104477612 137.034375  25.1679104477612 137.034375  C 25.1679104477612 137.034375  26.0509950248756 132.628125  26.0509950248756 132.628125  C 26.0509950248756 132.628125  30.4664179104478 131.746875  30.4664179104478 131.746875  C 30.4664179104478 131.746875  38.4141791044776 110.596875  38.4141791044776 110.596875  C 38.4141791044776 110.596875  40.1803482587065 111.478125  40.1803482587065 111.478125  C 40.1803482587065 111.478125  42.8296019900498 109.715625  42.8296019900498 109.715625  C 42.8296019900498 109.715625  41.9465174129353 104.428125  41.9465174129353 104.428125  C 41.9465174129353 104.428125  43.7126865671642 100.903125  43.7126865671642 100.903125  C 43.7126865671642 100.903125  52.5435323383085 100.903125  52.5435323383085 100.903125  C 52.5435323383085 100.903125  56.0758706467662 104.428125  56.0758706467662 104.428125  C 56.0758706467662 104.428125  64.9067164179104 102.665625  64.9067164179104 102.665625  C 64.9067164179104 102.665625  67.5559701492537 104.428125  67.5559701492537 104.428125  C 67.5559701492537 104.428125  72.8544776119403 102.665625  72.8544776119403 102.665625  C 72.8544776119403 102.665625  73.7375621890547 103.546875  73.7375621890547 103.546875  C 73.7375621890547 103.546875  71.9713930348259 104.428125  71.9713930348259 104.428125  C 71.9713930348259 104.428125  73.7375621890547 107.953125  73.7375621890547 107.953125  C 73.7375621890547 107.953125  79.0360696517413 111.478125  79.0360696517413 111.478125  C 79.0360696517413 111.478125  79.9191542288557 110.596875  79.9191542288557 110.596875  C 79.9191542288557 110.596875  83.4514925373134 112.359375  83.4514925373134 112.359375  C 83.4514925373134 112.359375  85.2176616915423 119.409375  85.2176616915423 119.409375  C 85.2176616915423 119.409375  90.5161691542288 123.815625  90.5161691542288 123.815625  C 90.5161691542288 123.815625  95.8146766169154 122.934375  95.8146766169154 122.934375  C 95.8146766169154 122.934375  97.5808457711443 124.696875  97.5808457711443 124.696875  C 97.5808457711443 124.696875  105.528606965174 124.696875  105.528606965174 124.696875  C 105.528606965174 124.696875  107.294776119403 122.934375  107.294776119403 122.934375  C 107.294776119403 122.934375  111.710199004975 122.934375  111.710199004975 122.934375  C 111.710199004975 122.934375  119.657960199005 117.646875  119.657960199005 117.646875  C 119.657960199005 117.646875  117.008706467662 116.765625  117.008706467662 116.765625  C 117.008706467662 116.765625  118.774875621891 115.003125  118.774875621891 115.003125  C 118.774875621891 115.003125  125.839552238806 115.884375  125.839552238806 115.884375  C 125.839552238806 115.884375  131.138059701493 122.934375  131.138059701493 122.934375  C 131.138059701493 122.934375  130.254975124378 126.459375  130.254975124378 126.459375  C 130.254975124378 126.459375  132.904228855721 125.578125  132.904228855721 125.578125  C 132.904228855721 125.578125  136.436567164179 128.221875  136.436567164179 128.221875  C 136.436567164179 128.221875  139.085820895522 128.221875  139.085820895522 128.221875  C 139.085820895522 128.221875  139.085820895522 131.746875  139.085820895522 131.746875  C 139.085820895522 131.746875  144.384328358209 134.390625  144.384328358209 134.390625  C 144.384328358209 134.390625  147.916666666667 129.103125  147.916666666667 129.103125  C 147.916666666667 129.103125  152.332089552239 125.578125  152.332089552239 125.578125  C 152.332089552239 125.578125  149.682835820896 122.934375  149.682835820896 122.934375  C 149.682835820896 122.934375  155.864427860697 118.528125  155.864427860697 118.528125  C 155.864427860697 118.528125  154.981343283582 115.884375  154.981343283582 115.884375  C 154.981343283582 115.884375  162.046019900498 114.121875  162.046019900498 114.121875  C 162.046019900498 114.121875  157.630597014925 110.596875  157.630597014925 110.596875  C 157.630597014925 110.596875  157.630597014925 107.953125  157.630597014925 107.953125  C 157.630597014925 107.953125  159.396766169154 107.071875  159.396766169154 107.071875  C 159.396766169154 107.071875  159.396766169154 101.784375  159.396766169154 101.784375  C 159.396766169154 101.784375  161.162935323383 100.021875  161.162935323383 100.021875  C 161.162935323383 100.021875  158.51368159204 96.496875  158.51368159204 96.496875  C 158.51368159204 96.496875  161.162935323383 91.209375  161.162935323383 91.209375  C 161.162935323383 91.209375  156.747512437811 82.396875  156.747512437811 82.396875  C 156.747512437811 82.396875  151.449004975124 76.228125  151.449004975124 76.228125  C 151.449004975124 76.228125  154.098258706468 74.465625  154.098258706468 74.465625  C 154.098258706468 74.465625  151.449004975124 73.584375  151.449004975124 73.584375  C 151.449004975124 73.584375  160.279850746269 67.415625  160.279850746269 67.415625  C 160.279850746269 67.415625  159.396766169154 66.534375  159.396766169154 66.534375  C 159.396766169154 66.534375  162.046019900498 63.009375  162.046019900498 63.009375  C 162.046019900498 63.009375  162.046019900498 60.365625  162.046019900498 60.365625  C 162.046019900498 60.365625  166.46144278607 56.840625  166.46144278607 56.840625  C 166.46144278607 56.840625  170.876865671642 56.840625  170.876865671642 56.840625  C 170.876865671642 56.840625  175.292288557214 59.484375  175.292288557214 59.484375  C 175.292288557214 59.484375  184.123134328358 60.365625  184.123134328358 60.365625  C 184.123134328358 60.365625  185.006218905473 53.315625  185.006218905473 53.315625  C 185.006218905473 53.315625  186.772388059702 53.315625  186.772388059702 53.315625  C 186.772388059702 53.315625  192.070895522388 58.603125  192.070895522388 58.603125  C 192.070895522388 58.603125  200.018656716418 55.959375  200.018656716418 55.959375  C 200.018656716418 55.959375  198.252487562189 48.909375  198.252487562189 48.909375  C 198.252487562189 48.909375  199.135572139303 44.503125  199.135572139303 44.503125  C 199.135572139303 44.503125  197.369402985075 39.215625  197.369402985075 39.215625  C 197.369402985075 39.215625  195.603233830846 38.334375  195.603233830846 38.334375  C 195.603233830846 38.334375  197.369402985075 35.690625  197.369402985075 35.690625  C 197.369402985075 35.690625  200.018656716418 37.453125  200.018656716418 37.453125  C 200.018656716418 37.453125  201.784825870647 36.571875  201.784825870647 36.571875  C 201.784825870647 36.571875  201.784825870647 40.096875  201.784825870647 40.096875  C 201.784825870647 40.096875  203.550995024876 39.215625  203.550995024876 39.215625  C 203.550995024876 39.215625  203.550995024876 37.453125  203.550995024876 37.453125  C 203.550995024876 37.453125  205.317164179104 37.453125  205.317164179104 37.453125  C 205.317164179104 37.453125  206.200248756219 39.215625  206.200248756219 39.215625  C 206.200248756219 39.215625  210.615671641791 37.453125  210.615671641791 37.453125  C 210.615671641791 37.453125  213.264925373134 39.215625  213.264925373134 39.215625  C 213.264925373134 39.215625  216.797263681592 37.453125  216.797263681592 37.453125  C 216.797263681592 37.453125  217.680348258706 38.334375  217.680348258706 38.334375  C 217.680348258706 38.334375  221.212686567164 31.284375  221.212686567164 31.284375  C 221.212686567164 31.284375  225.628109452736 27.759375  225.628109452736 27.759375  C 225.628109452736 27.759375  228.27736318408 18.946875  228.27736318408 18.946875  C 228.27736318408 18.946875  230.926616915423 17.184375  230.926616915423 17.184375  C 230.926616915423 17.184375  230.926616915423 15.421875  230.926616915423 15.421875  C 230.926616915423 15.421875  242.40671641791 15.421875  242.40671641791 15.421875  C 242.40671641791 15.421875  255.652985074627 7.490625  255.652985074627 7.490625  C 255.652985074627 7.490625  260.951492537313 6.609375  260.951492537313 6.609375  C 260.951492537313 6.609375  266.25 2.203125  266.25 2.203125  C 266.25 2.203125  273.314676616915 1.321875  273.314676616915 1.321875  C 273.314676616915 1.321875  273.314676616915 3.965625  273.314676616915 3.965625  C 273.314676616915 3.965625  275.963930348259 4.846875  275.963930348259 4.846875  C 275.963930348259 4.846875  278.613184079602 1.321875  278.613184079602 1.321875  C 278.613184079602 1.321875  281.262437810945 3.084375  281.262437810945 3.084375  C 281.262437810945 3.084375  283.911691542289 2.203125  283.911691542289 2.203125  C 283.911691542289 2.203125  285.677860696517 4.846875  285.677860696517 4.846875  C 285.677860696517 4.846875  298.924129353234 2.203125  298.924129353234 2.203125  C 298.924129353234 2.203125  298.041044776119 3.965625  298.041044776119 3.965625  C 298.041044776119 3.965625  300.690298507463 4.846875  300.690298507463 4.846875  C 300.690298507463 4.846875  305.988805970149 2.203125  305.988805970149 2.203125  C 305.988805970149 2.203125  311.287313432836 3.084375  311.287313432836 3.084375  C 311.287313432836 3.084375  313.936567164179 0.440625  313.936567164179 0.440625  C 313.936567164179 0.440625  313.936567164179 2.203125  313.936567164179 2.203125  C 313.936567164179 2.203125  319.235074626866 2.203125  319.235074626866 2.203125  C 319.235074626866 2.203125  320.11815920398 3.965625  320.11815920398 3.965625  C 320.11815920398 3.965625  328.949004975124 2.203125  328.949004975124 2.203125  C 328.949004975124 2.203125  329.832089552239 0.440625  329.832089552239 0.440625  C 329.832089552239 0.440625  331.598258706468 0.440625  331.598258706468 0.440625  C 331.598258706468 0.440625  332.481343283582 2.203125  332.481343283582 2.203125  C 332.481343283582 2.203125  343.078358208955 7.490625  343.078358208955 7.490625  C 343.078358208955 7.490625  342.195273631841 13.659375  342.195273631841 13.659375  C 342.195273631841 13.659375  347.493781094527 24.234375  347.493781094527 24.234375  C 347.493781094527 24.234375  346.610696517413 31.284375  346.610696517413 31.284375  C 346.610696517413 31.284375  348.376865671642 31.284375  348.376865671642 31.284375  C 348.376865671642 31.284375  351.026119402985 40.096875  351.026119402985 40.096875  C 351.026119402985 40.096875  353.675373134328 43.621875  353.675373134328 43.621875  C 353.675373134328 43.621875  351.026119402985 51.553125  351.026119402985 51.553125  C 351.026119402985 51.553125  345.727611940299 54.196875  345.727611940299 54.196875  C 345.727611940299 54.196875  344.844527363184 55.959375  344.844527363184 55.959375  C 344.844527363184 55.959375  344.844527363184 62.128125  344.844527363184 62.128125  C 344.844527363184 62.128125  349.259950248756 64.771875  349.259950248756 64.771875  C 349.259950248756 64.771875  344.844527363184 67.415625  344.844527363184 67.415625  C 344.844527363184 67.415625  344.844527363184 70.059375  344.844527363184 70.059375  C 344.844527363184 70.059375  351.9092039801 73.584375  351.9092039801 73.584375  C 351.9092039801 73.584375  354.558457711443 77.990625  354.558457711443 77.990625  C 354.558457711443 77.990625  347.493781094527 78.871875  347.493781094527 78.871875  C 347.493781094527 78.871875  344.844527363184 80.634375  344.844527363184 80.634375  C 344.844527363184 80.634375  338.662935323383 90.328125  338.662935323383 90.328125  C 338.662935323383 90.328125  336.01368159204 85.040625  336.01368159204 85.040625  C 336.01368159204 85.040625  332.481343283582 85.040625  332.481343283582 85.040625  C 332.481343283582 85.040625  332.481343283582 81.515625  332.481343283582 81.515625  C 332.481343283582 81.515625  335.130597014925 80.634375  335.130597014925 80.634375  C 335.130597014925 80.634375  336.01368159204 77.109375  336.01368159204 77.109375  C 336.01368159204 77.109375  333.364427860697 77.109375  333.364427860697 77.109375  C 333.364427860697 77.109375  327.182835820896 85.040625  327.182835820896 85.040625  C 327.182835820896 85.040625  316.585820895522 87.684375  316.585820895522 87.684375  C 316.585820895522 87.684375  316.585820895522 92.971875  316.585820895522 92.971875  C 316.585820895522 92.971875  313.936567164179 97.378125  313.936567164179 97.378125  C 313.936567164179 97.378125  309.521144278607 97.378125  309.521144278607 97.378125  C 309.521144278607 97.378125  307.754975124378 100.021875  307.754975124378 100.021875  C 307.754975124378 100.021875  304.22263681592 97.378125  304.22263681592 97.378125  C 304.22263681592 97.378125  300.690298507463 97.378125  300.690298507463 97.378125  C 300.690298507463 97.378125  298.924129353234 98.259375  298.924129353234 98.259375  C 298.924129353234 98.259375  298.924129353234 100.021875  298.924129353234 100.021875  C 298.924129353234 100.021875  290.976368159204 101.784375  290.976368159204 101.784375  C 290.976368159204 101.784375  287.444029850746 107.953125  287.444029850746 107.953125  C 287.444029850746 107.953125  282.14552238806 107.953125  282.14552238806 107.953125  C 282.14552238806 107.953125  281.262437810945 115.884375  281.262437810945 115.884375  C 281.262437810945 115.884375  275.963930348259 122.053125  275.963930348259 122.053125  C 275.963930348259 122.053125  258.30223880597 126.459375  258.30223880597 126.459375  C 258.30223880597 126.459375  256.536069651741 128.221875  256.536069651741 128.221875  C 256.536069651741 128.221875  260.951492537313 130.865625  260.951492537313 130.865625  C 260.951492537313 130.865625  256.536069651741 130.865625  256.536069651741 130.865625  C 256.536069651741 130.865625  254.769900497512 137.915625  254.769900497512 137.915625  C 254.769900497512 137.915625  245.055970149254 137.915625  245.055970149254 137.915625  C 245.055970149254 137.915625  246.822139303483 142.321875  246.822139303483 142.321875  C 246.822139303483 142.321875  249.471393034826 142.321875  249.471393034826 142.321875  C 249.471393034826 142.321875  249.471393034826 144.084375  249.471393034826 144.084375  C 249.471393034826 144.084375  248.588308457711 146.728125  248.588308457711 146.728125  C 248.588308457711 146.728125  245.055970149254 148.490625  245.055970149254 148.490625  C 245.055970149254 148.490625  243.289800995025 152.015625  243.289800995025 152.015625  C 243.289800995025 152.015625  244.172885572139 154.659375  244.172885572139 154.659375  C 244.172885572139 154.659375  247.705223880597 153.778125  247.705223880597 153.778125  C 247.705223880597 153.778125  252.120646766169 155.540625  252.120646766169 155.540625  Z " stroke-width="2" stroke-dasharray="1,1" stroke="#999999" fill="none" transform="matrix(1 0 0 1 832 197 )" mask="url(#clip2097)" />
  </g>
</svg>