<?xml version="1.0" encoding="utf-8"?>
<svg version="1.1" xmlns:xlink="http://www.w3.org/1999/xlink" width="207px" height="267px" xmlns="http://www.w3.org/2000/svg">
  <defs>
    <mask fill="white" id="clip2100">
      <path d="M 17.1765957446808 264.79702970297  C 17.1765957446808 264.79702970297  10.1297872340426 266.559405940594  10.1297872340426 266.559405940594  C 10.1297872340426 266.559405940594  10.1297872340426 263.915841584158  10.1297872340426 263.915841584158  C 10.1297872340426 263.915841584158  9.24893617021277 262.153465346535  9.24893617021277 262.153465346535  C 9.24893617021277 262.153465346535  7.48723404255319 262.153465346535  7.48723404255319 262.153465346535  C 7.48723404255319 262.153465346535  7.48723404255319 259.509900990099  7.48723404255319 259.509900990099  C 7.48723404255319 259.509900990099  4.84468085106383 259.509900990099  4.84468085106383 259.509900990099  C 4.84468085106383 259.509900990099  2.20212765957447 254.222772277228  2.20212765957447 254.222772277228  C 2.20212765957447 254.222772277228  1.32127659574468 255.10396039604  1.32127659574468 255.10396039604  C 1.32127659574468 255.10396039604  1.32127659574468 252.460396039604  1.32127659574468 252.460396039604  C 1.32127659574468 252.460396039604  4.84468085106383 248.054455445545  4.84468085106383 248.054455445545  C 4.84468085106383 248.054455445545  4.84468085106383 242.767326732673  4.84468085106383 242.767326732673  C 4.84468085106383 242.767326732673  1.32127659574468 240.123762376238  1.32127659574468 240.123762376238  C 1.32127659574468 240.123762376238  3.08297872340426 234.836633663366  3.08297872340426 234.836633663366  C 3.08297872340426 234.836633663366  0.440425531914894 226.905940594059  0.440425531914894 226.905940594059  C 0.440425531914894 226.905940594059  1.32127659574468 222.5  1.32127659574468 222.5  C 1.32127659574468 222.5  9.24893617021277 223.381188118812  9.24893617021277 223.381188118812  C 9.24893617021277 223.381188118812  13.6531914893617 226.905940594059  13.6531914893617 226.905940594059  C 13.6531914893617 226.905940594059  14.5340425531915 225.143564356436  14.5340425531915 225.143564356436  C 14.5340425531915 225.143564356436  14.5340425531915 212.806930693069  14.5340425531915 212.806930693069  C 14.5340425531915 212.806930693069  11.8914893617021 211.044554455446  11.8914893617021 211.044554455446  C 11.8914893617021 211.044554455446  15.4148936170213 209.282178217822  15.4148936170213 209.282178217822  C 15.4148936170213 209.282178217822  14.5340425531915 206.638613861386  14.5340425531915 206.638613861386  C 14.5340425531915 206.638613861386  16.2957446808511 207.519801980198  16.2957446808511 207.519801980198  C 16.2957446808511 207.519801980198  18.0574468085106 203.113861386139  18.0574468085106 203.113861386139  C 18.0574468085106 203.113861386139  16.2957446808511 199.589108910891  16.2957446808511 199.589108910891  C 16.2957446808511 199.589108910891  18.0574468085106 194.30198019802  18.0574468085106 194.30198019802  C 18.0574468085106 194.30198019802  21.5808510638298 189.89603960396  21.5808510638298 189.89603960396  C 21.5808510638298 189.89603960396  25.1042553191489 188.133663366337  25.1042553191489 188.133663366337  C 25.1042553191489 188.133663366337  22.4617021276596 187.252475247525  22.4617021276596 187.252475247525  C 22.4617021276596 187.252475247525  25.1042553191489 183.727722772277  25.1042553191489 183.727722772277  C 25.1042553191489 183.727722772277  22.4617021276596 183.727722772277  22.4617021276596 183.727722772277  C 22.4617021276596 183.727722772277  24.2234042553191 182.846534653465  24.2234042553191 182.846534653465  C 24.2234042553191 182.846534653465  22.4617021276596 176.678217821782  22.4617021276596 176.678217821782  C 22.4617021276596 176.678217821782  23.3425531914894 174.915841584158  23.3425531914894 174.915841584158  C 23.3425531914894 174.915841584158  25.1042553191489 174.915841584158  25.1042553191489 174.915841584158  C 25.1042553191489 174.915841584158  24.2234042553191 166.10396039604  24.2234042553191 166.10396039604  C 24.2234042553191 166.10396039604  18.0574468085106 166.10396039604  18.0574468085106 166.10396039604  C 18.0574468085106 166.10396039604  18.9382978723404 163.460396039604  18.9382978723404 163.460396039604  C 18.9382978723404 163.460396039604  22.4617021276596 163.460396039604  22.4617021276596 163.460396039604  C 22.4617021276596 163.460396039604  22.4617021276596 160.816831683168  22.4617021276596 160.816831683168  C 22.4617021276596 160.816831683168  20.7 161.69801980198  20.7 161.69801980198  C 20.7 161.69801980198  19.8191489361702 159.054455445545  19.8191489361702 159.054455445545  C 19.8191489361702 159.054455445545  19.8191489361702 152.004950495049  19.8191489361702 152.004950495049  C 19.8191489361702 152.004950495049  23.3425531914894 153.767326732673  23.3425531914894 153.767326732673  C 23.3425531914894 153.767326732673  23.3425531914894 157.292079207921  23.3425531914894 157.292079207921  C 23.3425531914894 157.292079207921  26.8659574468085 154.648514851485  26.8659574468085 154.648514851485  C 26.8659574468085 154.648514851485  19.8191489361702 149.361386138614  19.8191489361702 149.361386138614  C 19.8191489361702 149.361386138614  18.9382978723404 144.074257425743  18.9382978723404 144.074257425743  C 18.9382978723404 144.074257425743  18.0574468085106 144.955445544554  18.0574468085106 144.955445544554  C 18.0574468085106 144.955445544554  16.2957446808511 141.430693069307  16.2957446808511 141.430693069307  C 16.2957446808511 141.430693069307  19.8191489361702 137.905940594059  19.8191489361702 137.905940594059  C 19.8191489361702 137.905940594059  18.0574468085106 137.024752475248  18.0574468085106 137.024752475248  C 18.0574468085106 137.024752475248  18.9382978723404 136.143564356436  18.9382978723404 136.143564356436  C 18.9382978723404 136.143564356436  7.48723404255319 123.806930693069  7.48723404255319 123.806930693069  C 7.48723404255319 123.806930693069  9.24893617021277 114.113861386139  9.24893617021277 114.113861386139  C 9.24893617021277 114.113861386139  13.6531914893617 114.113861386139  13.6531914893617 114.113861386139  C 13.6531914893617 114.113861386139  13.6531914893617 107.945544554455  13.6531914893617 107.945544554455  C 13.6531914893617 107.945544554455  17.1765957446808 103.539603960396  17.1765957446808 103.539603960396  C 17.1765957446808 103.539603960396  17.1765957446808 100.89603960396  17.1765957446808 100.89603960396  C 17.1765957446808 100.89603960396  25.9851063829787 92.0841584158416  25.9851063829787 92.0841584158416  C 25.9851063829787 92.0841584158416  27.7468085106383 92.9653465346535  27.7468085106383 92.9653465346535  C 27.7468085106383 92.9653465346535  33.9127659574468 87.6782178217822  33.9127659574468 87.6782178217822  C 33.9127659574468 87.6782178217822  34.7936170212766 84.1534653465346  34.7936170212766 84.1534653465346  C 34.7936170212766 84.1534653465346  37.436170212766 84.1534653465346  37.436170212766 84.1534653465346  C 37.436170212766 84.1534653465346  43.6021276595745 77.9851485148515  43.6021276595745 77.9851485148515  C 43.6021276595745 77.9851485148515  52.4106382978723 77.9851485148515  52.4106382978723 77.9851485148515  C 52.4106382978723 77.9851485148515  56.8148936170213 73.5792079207921  56.8148936170213 73.5792079207921  C 56.8148936170213 73.5792079207921  57.6957446808511 66.529702970297  57.6957446808511 66.529702970297  C 57.6957446808511 66.529702970297  60.3382978723404 66.529702970297  60.3382978723404 66.529702970297  C 60.3382978723404 66.529702970297  62.9808510638298 62.1237623762376  62.9808510638298 62.1237623762376  C 62.9808510638298 62.1237623762376  64.7425531914894 62.1237623762376  64.7425531914894 62.1237623762376  C 64.7425531914894 62.1237623762376  66.5042553191489 59.480198019802  66.5042553191489 59.480198019802  C 66.5042553191489 59.480198019802  71.7893617021277 56.8366336633663  71.7893617021277 56.8366336633663  C 71.7893617021277 56.8366336633663  71.7893617021277 55.0742574257426  71.7893617021277 55.0742574257426  C 71.7893617021277 55.0742574257426  77.9553191489362 51.549504950495  77.9553191489362 51.549504950495  C 77.9553191489362 51.549504950495  75.3127659574468 48.0247524752475  75.3127659574468 48.0247524752475  C 75.3127659574468 48.0247524752475  80.5978723404255 38.3316831683168  80.5978723404255 38.3316831683168  C 80.5978723404255 38.3316831683168  85.0021276595745 38.3316831683168  85.0021276595745 38.3316831683168  C 85.0021276595745 38.3316831683168  83.2404255319149 25.1138613861386  83.2404255319149 25.1138613861386  C 83.2404255319149 25.1138613861386  88.5255319148936 22.470297029703  88.5255319148936 22.470297029703  C 88.5255319148936 22.470297029703  92.0489361702128 9.25247524752475  92.0489361702128 9.25247524752475  C 92.0489361702128 9.25247524752475  106.142553191489 3.08415841584158  106.142553191489 3.08415841584158  C 106.142553191489 3.08415841584158  111.427659574468 4.84653465346535  111.427659574468 4.84653465346535  C 111.427659574468 4.84653465346535  114.070212765957 3.08415841584158  114.070212765957 3.08415841584158  C 114.070212765957 3.08415841584158  116.712765957447 5.72772277227723  116.712765957447 5.72772277227723  C 116.712765957447 5.72772277227723  123.759574468085 3.96534653465347  123.759574468085 3.96534653465347  C 123.759574468085 3.96534653465347  129.925531914894 0.440594059405941  129.925531914894 0.440594059405941  C 129.925531914894 0.440594059405941  132.568085106383 2.2029702970297  132.568085106383 2.2029702970297  C 132.568085106383 2.2029702970297  135.210638297872 1.32178217821782  135.210638297872 1.32178217821782  C 135.210638297872 1.32178217821782  142.257446808511 5.72772277227723  142.257446808511 5.72772277227723  C 142.257446808511 5.72772277227723  143.13829787234 8.37128712871287  143.13829787234 8.37128712871287  C 143.13829787234 8.37128712871287  141.376595744681 13.6584158415842  141.376595744681 13.6584158415842  C 141.376595744681 13.6584158415842  144.01914893617 16.3019801980198  144.01914893617 16.3019801980198  C 144.01914893617 16.3019801980198  140.495744680851 19.8267326732673  140.495744680851 19.8267326732673  C 140.495744680851 19.8267326732673  139.614893617021 25.1138613861386  139.614893617021 25.1138613861386  C 139.614893617021 25.1138613861386  144.01914893617 26.8762376237624  144.01914893617 26.8762376237624  C 144.01914893617 26.8762376237624  149.304255319149 40.9752475247525  149.304255319149 40.9752475247525  C 149.304255319149 40.9752475247525  155.470212765957 42.7376237623762  155.470212765957 42.7376237623762  C 155.470212765957 42.7376237623762  157.231914893617 49.7871287128713  157.231914893617 49.7871287128713  C 157.231914893617 49.7871287128713  159.874468085106 50.6683168316832  159.874468085106 50.6683168316832  C 159.874468085106 50.6683168316832  166.040425531915 57.7178217821782  166.040425531915 57.7178217821782  C 166.040425531915 57.7178217821782  173.087234042553 59.480198019802  173.087234042553 59.480198019802  C 173.087234042553 59.480198019802  173.968085106383 63.0049504950495  173.968085106383 63.0049504950495  C 173.968085106383 63.0049504950495  178.372340425532 62.1237623762376  178.372340425532 62.1237623762376  C 178.372340425532 62.1237623762376  181.895744680851 63.8861386138614  181.895744680851 63.8861386138614  C 181.895744680851 63.8861386138614  178.372340425532 69.1732673267327  178.372340425532 69.1732673267327  C 178.372340425532 69.1732673267327  175.729787234043 67.4108910891089  175.729787234043 67.4108910891089  C 175.729787234043 67.4108910891089  175.729787234043 70.0544554455446  175.729787234043 70.0544554455446  C 175.729787234043 70.0544554455446  178.372340425532 71.8168316831683  178.372340425532 71.8168316831683  C 178.372340425532 71.8168316831683  194.227659574468 70.0544554455446  194.227659574468 70.0544554455446  C 194.227659574468 70.0544554455446  197.751063829787 73.5792079207921  197.751063829787 73.5792079207921  C 197.751063829787 73.5792079207921  192.465957446808 77.9851485148515  192.465957446808 77.9851485148515  C 192.465957446808 77.9851485148515  184.53829787234 77.9851485148515  184.53829787234 77.9851485148515  C 184.53829787234 77.9851485148515  184.53829787234 88.5594059405941  184.53829787234 88.5594059405941  C 184.53829787234 88.5594059405941  188.942553191489 93.8465346534653  188.942553191489 93.8465346534653  C 188.942553191489 93.8465346534653  200.393617021277 93.8465346534653  200.393617021277 93.8465346534653  C 200.393617021277 93.8465346534653  200.393617021277 96.490099009901  200.393617021277 96.490099009901  C 200.393617021277 96.490099009901  198.631914893617 98.2524752475248  198.631914893617 98.2524752475248  C 198.631914893617 98.2524752475248  198.631914893617 105.30198019802  198.631914893617 105.30198019802  C 198.631914893617 105.30198019802  206.559574468085 112.351485148515  206.559574468085 112.351485148515  C 206.559574468085 112.351485148515  203.036170212766 116.757425742574  203.036170212766 116.757425742574  C 203.036170212766 116.757425742574  197.751063829787 119.40099009901  197.751063829787 119.40099009901  C 197.751063829787 119.40099009901  197.751063829787 122.044554455446  197.751063829787 122.044554455446  C 197.751063829787 122.044554455446  201.274468085106 127.331683168317  201.274468085106 127.331683168317  C 201.274468085106 127.331683168317  202.155319148936 131.737623762376  202.155319148936 131.737623762376  C 202.155319148936 131.737623762376  206.559574468085 137.024752475248  206.559574468085 137.024752475248  C 206.559574468085 137.024752475248  203.036170212766 143.193069306931  203.036170212766 143.193069306931  C 203.036170212766 143.193069306931  198.631914893617 143.193069306931  198.631914893617 143.193069306931  C 198.631914893617 143.193069306931  203.917021276596 154.648514851485  203.917021276596 154.648514851485  C 203.917021276596 154.648514851485  204.797872340426 160.816831683168  204.797872340426 160.816831683168  C 204.797872340426 160.816831683168  195.989361702128 159.054455445545  195.989361702128 159.054455445545  C 195.989361702128 159.054455445545  195.108510638298 156.410891089109  195.108510638298 156.410891089109  C 195.108510638298 156.410891089109  188.942553191489 153.767326732673  188.942553191489 153.767326732673  C 188.942553191489 153.767326732673  187.18085106383 152.004950495049  187.18085106383 152.004950495049  C 187.18085106383 152.004950495049  187.18085106383 143.193069306931  187.18085106383 143.193069306931  C 187.18085106383 143.193069306931  178.372340425532 138.787128712871  178.372340425532 138.787128712871  C 178.372340425532 138.787128712871  173.087234042553 139.668316831683  173.087234042553 139.668316831683  C 173.087234042553 139.668316831683  165.159574468085 137.905940594059  165.159574468085 137.905940594059  C 165.159574468085 137.905940594059  163.397872340426 136.143564356436  163.397872340426 136.143564356436  C 163.397872340426 136.143564356436  158.993617021277 137.024752475248  158.993617021277 137.024752475248  C 158.993617021277 137.024752475248  155.470212765957 143.193069306931  155.470212765957 143.193069306931  C 155.470212765957 143.193069306931  158.112765957447 149.361386138614  158.112765957447 149.361386138614  C 158.112765957447 149.361386138614  159.874468085106 149.361386138614  159.874468085106 149.361386138614  C 159.874468085106 149.361386138614  158.112765957447 152.004950495049  158.112765957447 152.004950495049  C 158.112765957447 152.004950495049  155.470212765957 164.341584158416  155.470212765957 164.341584158416  C 155.470212765957 164.341584158416  156.351063829787 167.866336633663  156.351063829787 167.866336633663  C 156.351063829787 167.866336633663  150.185106382979 176.678217821782  150.185106382979 176.678217821782  C 150.185106382979 176.678217821782  157.231914893617 181.084158415842  157.231914893617 181.084158415842  C 157.231914893617 181.084158415842  158.112765957447 184.608910891089  158.112765957447 184.608910891089  C 158.112765957447 184.608910891089  156.351063829787 188.133663366337  156.351063829787 188.133663366337  C 156.351063829787 188.133663366337  160.755319148936 198.707920792079  160.755319148936 198.707920792079  C 160.755319148936 198.707920792079  162.517021276596 199.589108910891  162.517021276596 199.589108910891  C 162.517021276596 199.589108910891  162.517021276596 203.113861386139  162.517021276596 203.113861386139  C 162.517021276596 203.113861386139  158.112765957447 203.113861386139  158.112765957447 203.113861386139  C 158.112765957447 203.113861386139  153.708510638298 211.925742574257  153.708510638298 211.925742574257  C 153.708510638298 211.925742574257  153.708510638298 216.331683168317  153.708510638298 216.331683168317  C 153.708510638298 216.331683168317  155.470212765957 219.856435643564  155.470212765957 219.856435643564  C 155.470212765957 219.856435643564  159.874468085106 219.856435643564  159.874468085106 219.856435643564  C 159.874468085106 219.856435643564  161.636170212766 220.737623762376  161.636170212766 220.737623762376  C 161.636170212766 220.737623762376  161.636170212766 222.5  161.636170212766 222.5  C 161.636170212766 222.5  158.993617021277 226.905940594059  158.993617021277 226.905940594059  C 158.993617021277 226.905940594059  156.351063829787 227.787128712871  156.351063829787 227.787128712871  C 156.351063829787 227.787128712871  154.589361702128 226.024752475248  154.589361702128 226.024752475248  C 154.589361702128 226.024752475248  149.304255319149 226.024752475248  149.304255319149 226.024752475248  C 149.304255319149 226.024752475248  145.78085106383 229.549504950495  145.78085106383 229.549504950495  C 145.78085106383 229.549504950495  142.257446808511 230.430693069307  142.257446808511 230.430693069307  C 142.257446808511 230.430693069307  140.495744680851 233.074257425743  140.495744680851 233.074257425743  C 140.495744680851 233.074257425743  137.853191489362 233.955445544554  137.853191489362 233.955445544554  C 137.853191489362 233.955445544554  137.853191489362 238.361386138614  137.853191489362 238.361386138614  C 137.853191489362 238.361386138614  135.210638297872 243.648514851485  135.210638297872 243.648514851485  C 135.210638297872 243.648514851485  134.329787234043 250.69801980198  134.329787234043 250.69801980198  C 134.329787234043 250.69801980198  121.997872340426 244.529702970297  121.997872340426 244.529702970297  C 121.997872340426 244.529702970297  108.785106382979 244.529702970297  108.785106382979 244.529702970297  C 108.785106382979 244.529702970297  104.38085106383 242.767326732673  104.38085106383 242.767326732673  C 104.38085106383 242.767326732673  94.6914893617021 243.648514851485  94.6914893617021 243.648514851485  C 94.6914893617021 243.648514851485  86.763829787234 238.361386138614  86.763829787234 238.361386138614  C 86.763829787234 238.361386138614  82.3595744680851 237.480198019802  82.3595744680851 237.480198019802  C 82.3595744680851 237.480198019802  77.0744680851064 239.242574257426  77.0744680851064 239.242574257426  C 77.0744680851064 239.242574257426  63.8617021276596 248.935643564356  63.8617021276596 248.935643564356  C 63.8617021276596 248.935643564356  51.5297872340426 252.460396039604  51.5297872340426 252.460396039604  C 51.5297872340426 252.460396039604  51.5297872340426 249.816831683168  51.5297872340426 249.816831683168  C 51.5297872340426 249.816831683168  47.1255319148936 248.935643564356  47.1255319148936 248.935643564356  C 47.1255319148936 248.935643564356  42.7212765957447 251.579207920792  42.7212765957447 251.579207920792  C 42.7212765957447 251.579207920792  43.6021276595745 253.341584158416  43.6021276595745 253.341584158416  C 43.6021276595745 253.341584158416  41.8404255319149 256.866336633663  41.8404255319149 256.866336633663  C 41.8404255319149 256.866336633663  28.6276595744681 256.866336633663  28.6276595744681 256.866336633663  C 28.6276595744681 256.866336633663  17.1765957446808 264.79702970297  17.1765957446808 264.79702970297  Z " fill-rule="evenodd" />
    </mask>
  </defs>
  <g transform="matrix(1 0 0 1 -953 -352 )">
    <path d="M 17.1765957446808 264.79702970297  C 17.1765957446808 264.79702970297  10.1297872340426 266.559405940594  10.1297872340426 266.559405940594  C 10.1297872340426 266.559405940594  10.1297872340426 263.915841584158  10.1297872340426 263.915841584158  C 10.1297872340426 263.915841584158  9.24893617021277 262.153465346535  9.24893617021277 262.153465346535  C 9.24893617021277 262.153465346535  7.48723404255319 262.153465346535  7.48723404255319 262.153465346535  C 7.48723404255319 262.153465346535  7.48723404255319 259.509900990099  7.48723404255319 259.509900990099  C 7.48723404255319 259.509900990099  4.84468085106383 259.509900990099  4.84468085106383 259.509900990099  C 4.84468085106383 259.509900990099  2.20212765957447 254.222772277228  2.20212765957447 254.222772277228  C 2.20212765957447 254.222772277228  1.32127659574468 255.10396039604  1.32127659574468 255.10396039604  C 1.32127659574468 255.10396039604  1.32127659574468 252.460396039604  1.32127659574468 252.460396039604  C 1.32127659574468 252.460396039604  4.84468085106383 248.054455445545  4.84468085106383 248.054455445545  C 4.84468085106383 248.054455445545  4.84468085106383 242.767326732673  4.84468085106383 242.767326732673  C 4.84468085106383 242.767326732673  1.32127659574468 240.123762376238  1.32127659574468 240.123762376238  C 1.32127659574468 240.123762376238  3.08297872340426 234.836633663366  3.08297872340426 234.836633663366  C 3.08297872340426 234.836633663366  0.440425531914894 226.905940594059  0.440425531914894 226.905940594059  C 0.440425531914894 226.905940594059  1.32127659574468 222.5  1.32127659574468 222.5  C 1.32127659574468 222.5  9.24893617021277 223.381188118812  9.24893617021277 223.381188118812  C 9.24893617021277 223.381188118812  13.6531914893617 226.905940594059  13.6531914893617 226.905940594059  C 13.6531914893617 226.905940594059  14.5340425531915 225.143564356436  14.5340425531915 225.143564356436  C 14.5340425531915 225.143564356436  14.5340425531915 212.806930693069  14.5340425531915 212.806930693069  C 14.5340425531915 212.806930693069  11.8914893617021 211.044554455446  11.8914893617021 211.044554455446  C 11.8914893617021 211.044554455446  15.4148936170213 209.282178217822  15.4148936170213 209.282178217822  C 15.4148936170213 209.282178217822  14.5340425531915 206.638613861386  14.5340425531915 206.638613861386  C 14.5340425531915 206.638613861386  16.2957446808511 207.519801980198  16.2957446808511 207.519801980198  C 16.2957446808511 207.519801980198  18.0574468085106 203.113861386139  18.0574468085106 203.113861386139  C 18.0574468085106 203.113861386139  16.2957446808511 199.589108910891  16.2957446808511 199.589108910891  C 16.2957446808511 199.589108910891  18.0574468085106 194.30198019802  18.0574468085106 194.30198019802  C 18.0574468085106 194.30198019802  21.5808510638298 189.89603960396  21.5808510638298 189.89603960396  C 21.5808510638298 189.89603960396  25.1042553191489 188.133663366337  25.1042553191489 188.133663366337  C 25.1042553191489 188.133663366337  22.4617021276596 187.252475247525  22.4617021276596 187.252475247525  C 22.4617021276596 187.252475247525  25.1042553191489 183.727722772277  25.1042553191489 183.727722772277  C 25.1042553191489 183.727722772277  22.4617021276596 183.727722772277  22.4617021276596 183.727722772277  C 22.4617021276596 183.727722772277  24.2234042553191 182.846534653465  24.2234042553191 182.846534653465  C 24.2234042553191 182.846534653465  22.4617021276596 176.678217821782  22.4617021276596 176.678217821782  C 22.4617021276596 176.678217821782  23.3425531914894 174.915841584158  23.3425531914894 174.915841584158  C 23.3425531914894 174.915841584158  25.1042553191489 174.915841584158  25.1042553191489 174.915841584158  C 25.1042553191489 174.915841584158  24.2234042553191 166.10396039604  24.2234042553191 166.10396039604  C 24.2234042553191 166.10396039604  18.0574468085106 166.10396039604  18.0574468085106 166.10396039604  C 18.0574468085106 166.10396039604  18.9382978723404 163.460396039604  18.9382978723404 163.460396039604  C 18.9382978723404 163.460396039604  22.4617021276596 163.460396039604  22.4617021276596 163.460396039604  C 22.4617021276596 163.460396039604  22.4617021276596 160.816831683168  22.4617021276596 160.816831683168  C 22.4617021276596 160.816831683168  20.7 161.69801980198  20.7 161.69801980198  C 20.7 161.69801980198  19.8191489361702 159.054455445545  19.8191489361702 159.054455445545  C 19.8191489361702 159.054455445545  19.8191489361702 152.004950495049  19.8191489361702 152.004950495049  C 19.8191489361702 152.004950495049  23.3425531914894 153.767326732673  23.3425531914894 153.767326732673  C 23.3425531914894 153.767326732673  23.3425531914894 157.292079207921  23.3425531914894 157.292079207921  C 23.3425531914894 157.292079207921  26.8659574468085 154.648514851485  26.8659574468085 154.648514851485  C 26.8659574468085 154.648514851485  19.8191489361702 149.361386138614  19.8191489361702 149.361386138614  C 19.8191489361702 149.361386138614  18.9382978723404 144.074257425743  18.9382978723404 144.074257425743  C 18.9382978723404 144.074257425743  18.0574468085106 144.955445544554  18.0574468085106 144.955445544554  C 18.0574468085106 144.955445544554  16.2957446808511 141.430693069307  16.2957446808511 141.430693069307  C 16.2957446808511 141.430693069307  19.8191489361702 137.905940594059  19.8191489361702 137.905940594059  C 19.8191489361702 137.905940594059  18.0574468085106 137.024752475248  18.0574468085106 137.024752475248  C 18.0574468085106 137.024752475248  18.9382978723404 136.143564356436  18.9382978723404 136.143564356436  C 18.9382978723404 136.143564356436  7.48723404255319 123.806930693069  7.48723404255319 123.806930693069  C 7.48723404255319 123.806930693069  9.24893617021277 114.113861386139  9.24893617021277 114.113861386139  C 9.24893617021277 114.113861386139  13.6531914893617 114.113861386139  13.6531914893617 114.113861386139  C 13.6531914893617 114.113861386139  13.6531914893617 107.945544554455  13.6531914893617 107.945544554455  C 13.6531914893617 107.945544554455  17.1765957446808 103.539603960396  17.1765957446808 103.539603960396  C 17.1765957446808 103.539603960396  17.1765957446808 100.89603960396  17.1765957446808 100.89603960396  C 17.1765957446808 100.89603960396  25.9851063829787 92.0841584158416  25.9851063829787 92.0841584158416  C 25.9851063829787 92.0841584158416  27.7468085106383 92.9653465346535  27.7468085106383 92.9653465346535  C 27.7468085106383 92.9653465346535  33.9127659574468 87.6782178217822  33.9127659574468 87.6782178217822  C 33.9127659574468 87.6782178217822  34.7936170212766 84.1534653465346  34.7936170212766 84.1534653465346  C 34.7936170212766 84.1534653465346  37.436170212766 84.1534653465346  37.436170212766 84.1534653465346  C 37.436170212766 84.1534653465346  43.6021276595745 77.9851485148515  43.6021276595745 77.9851485148515  C 43.6021276595745 77.9851485148515  52.4106382978723 77.9851485148515  52.4106382978723 77.9851485148515  C 52.4106382978723 77.9851485148515  56.8148936170213 73.5792079207921  56.8148936170213 73.5792079207921  C 56.8148936170213 73.5792079207921  57.6957446808511 66.529702970297  57.6957446808511 66.529702970297  C 57.6957446808511 66.529702970297  60.3382978723404 66.529702970297  60.3382978723404 66.529702970297  C 60.3382978723404 66.529702970297  62.9808510638298 62.1237623762376  62.9808510638298 62.1237623762376  C 62.9808510638298 62.1237623762376  64.7425531914894 62.1237623762376  64.7425531914894 62.1237623762376  C 64.7425531914894 62.1237623762376  66.5042553191489 59.480198019802  66.5042553191489 59.480198019802  C 66.5042553191489 59.480198019802  71.7893617021277 56.8366336633663  71.7893617021277 56.8366336633663  C 71.7893617021277 56.8366336633663  71.7893617021277 55.0742574257426  71.7893617021277 55.0742574257426  C 71.7893617021277 55.0742574257426  77.9553191489362 51.549504950495  77.9553191489362 51.549504950495  C 77.9553191489362 51.549504950495  75.3127659574468 48.0247524752475  75.3127659574468 48.0247524752475  C 75.3127659574468 48.0247524752475  80.5978723404255 38.3316831683168  80.5978723404255 38.3316831683168  C 80.5978723404255 38.3316831683168  85.0021276595745 38.3316831683168  85.0021276595745 38.3316831683168  C 85.0021276595745 38.3316831683168  83.2404255319149 25.1138613861386  83.2404255319149 25.1138613861386  C 83.2404255319149 25.1138613861386  88.5255319148936 22.470297029703  88.5255319148936 22.470297029703  C 88.5255319148936 22.470297029703  92.0489361702128 9.25247524752475  92.0489361702128 9.25247524752475  C 92.0489361702128 9.25247524752475  106.142553191489 3.08415841584158  106.142553191489 3.08415841584158  C 106.142553191489 3.08415841584158  111.427659574468 4.84653465346535  111.427659574468 4.84653465346535  C 111.427659574468 4.84653465346535  114.070212765957 3.08415841584158  114.070212765957 3.08415841584158  C 114.070212765957 3.08415841584158  116.712765957447 5.72772277227723  116.712765957447 5.72772277227723  C 116.712765957447 5.72772277227723  123.759574468085 3.96534653465347  123.759574468085 3.96534653465347  C 123.759574468085 3.96534653465347  129.925531914894 0.440594059405941  129.925531914894 0.440594059405941  C 129.925531914894 0.440594059405941  132.568085106383 2.2029702970297  132.568085106383 2.2029702970297  C 132.568085106383 2.2029702970297  135.210638297872 1.32178217821782  135.210638297872 1.32178217821782  C 135.210638297872 1.32178217821782  142.257446808511 5.72772277227723  142.257446808511 5.72772277227723  C 142.257446808511 5.72772277227723  143.13829787234 8.37128712871287  143.13829787234 8.37128712871287  C 143.13829787234 8.37128712871287  141.376595744681 13.6584158415842  141.376595744681 13.6584158415842  C 141.376595744681 13.6584158415842  144.01914893617 16.3019801980198  144.01914893617 16.3019801980198  C 144.01914893617 16.3019801980198  140.495744680851 19.8267326732673  140.495744680851 19.8267326732673  C 140.495744680851 19.8267326732673  139.614893617021 25.1138613861386  139.614893617021 25.1138613861386  C 139.614893617021 25.1138613861386  144.01914893617 26.8762376237624  144.01914893617 26.8762376237624  C 144.01914893617 26.8762376237624  149.304255319149 40.9752475247525  149.304255319149 40.9752475247525  C 149.304255319149 40.9752475247525  155.470212765957 42.7376237623762  155.470212765957 42.7376237623762  C 155.470212765957 42.7376237623762  157.231914893617 49.7871287128713  157.231914893617 49.7871287128713  C 157.231914893617 49.7871287128713  159.874468085106 50.6683168316832  159.874468085106 50.6683168316832  C 159.874468085106 50.6683168316832  166.040425531915 57.7178217821782  166.040425531915 57.7178217821782  C 166.040425531915 57.7178217821782  173.087234042553 59.480198019802  173.087234042553 59.480198019802  C 173.087234042553 59.480198019802  173.968085106383 63.0049504950495  173.968085106383 63.0049504950495  C 173.968085106383 63.0049504950495  178.372340425532 62.1237623762376  178.372340425532 62.1237623762376  C 178.372340425532 62.1237623762376  181.895744680851 63.8861386138614  181.895744680851 63.8861386138614  C 181.895744680851 63.8861386138614  178.372340425532 69.1732673267327  178.372340425532 69.1732673267327  C 178.372340425532 69.1732673267327  175.729787234043 67.4108910891089  175.729787234043 67.4108910891089  C 175.729787234043 67.4108910891089  175.729787234043 70.0544554455446  175.729787234043 70.0544554455446  C 175.729787234043 70.0544554455446  178.372340425532 71.8168316831683  178.372340425532 71.8168316831683  C 178.372340425532 71.8168316831683  194.227659574468 70.0544554455446  194.227659574468 70.0544554455446  C 194.227659574468 70.0544554455446  197.751063829787 73.5792079207921  197.751063829787 73.5792079207921  C 197.751063829787 73.5792079207921  192.465957446808 77.9851485148515  192.465957446808 77.9851485148515  C 192.465957446808 77.9851485148515  184.53829787234 77.9851485148515  184.53829787234 77.9851485148515  C 184.53829787234 77.9851485148515  184.53829787234 88.5594059405941  184.53829787234 88.5594059405941  C 184.53829787234 88.5594059405941  188.942553191489 93.8465346534653  188.942553191489 93.8465346534653  C 188.942553191489 93.8465346534653  200.393617021277 93.8465346534653  200.393617021277 93.8465346534653  C 200.393617021277 93.8465346534653  200.393617021277 96.490099009901  200.393617021277 96.490099009901  C 200.393617021277 96.490099009901  198.631914893617 98.2524752475248  198.631914893617 98.2524752475248  C 198.631914893617 98.2524752475248  198.631914893617 105.30198019802  198.631914893617 105.30198019802  C 198.631914893617 105.30198019802  206.559574468085 112.351485148515  206.559574468085 112.351485148515  C 206.559574468085 112.351485148515  203.036170212766 116.757425742574  203.036170212766 116.757425742574  C 203.036170212766 116.757425742574  197.751063829787 119.40099009901  197.751063829787 119.40099009901  C 197.751063829787 119.40099009901  197.751063829787 122.044554455446  197.751063829787 122.044554455446  C 197.751063829787 122.044554455446  201.274468085106 127.331683168317  201.274468085106 127.331683168317  C 201.274468085106 127.331683168317  202.155319148936 131.737623762376  202.155319148936 131.737623762376  C 202.155319148936 131.737623762376  206.559574468085 137.024752475248  206.559574468085 137.024752475248  C 206.559574468085 137.024752475248  203.036170212766 143.193069306931  203.036170212766 143.193069306931  C 203.036170212766 143.193069306931  198.631914893617 143.193069306931  198.631914893617 143.193069306931  C 198.631914893617 143.193069306931  203.917021276596 154.648514851485  203.917021276596 154.648514851485  C 203.917021276596 154.648514851485  204.797872340426 160.816831683168  204.797872340426 160.816831683168  C 204.797872340426 160.816831683168  195.989361702128 159.054455445545  195.989361702128 159.054455445545  C 195.989361702128 159.054455445545  195.108510638298 156.410891089109  195.108510638298 156.410891089109  C 195.108510638298 156.410891089109  188.942553191489 153.767326732673  188.942553191489 153.767326732673  C 188.942553191489 153.767326732673  187.18085106383 152.004950495049  187.18085106383 152.004950495049  C 187.18085106383 152.004950495049  187.18085106383 143.193069306931  187.18085106383 143.193069306931  C 187.18085106383 143.193069306931  178.372340425532 138.787128712871  178.372340425532 138.787128712871  C 178.372340425532 138.787128712871  173.087234042553 139.668316831683  173.087234042553 139.668316831683  C 173.087234042553 139.668316831683  165.159574468085 137.905940594059  165.159574468085 137.905940594059  C 165.159574468085 137.905940594059  163.397872340426 136.143564356436  163.397872340426 136.143564356436  C 163.397872340426 136.143564356436  158.993617021277 137.024752475248  158.993617021277 137.024752475248  C 158.993617021277 137.024752475248  155.470212765957 143.193069306931  155.470212765957 143.193069306931  C 155.470212765957 143.193069306931  158.112765957447 149.361386138614  158.112765957447 149.361386138614  C 158.112765957447 149.361386138614  159.874468085106 149.361386138614  159.874468085106 149.361386138614  C 159.874468085106 149.361386138614  158.112765957447 152.004950495049  158.112765957447 152.004950495049  C 158.112765957447 152.004950495049  155.470212765957 164.341584158416  155.470212765957 164.341584158416  C 155.470212765957 164.341584158416  156.351063829787 167.866336633663  156.351063829787 167.866336633663  C 156.351063829787 167.866336633663  150.185106382979 176.678217821782  150.185106382979 176.678217821782  C 150.185106382979 176.678217821782  157.231914893617 181.084158415842  157.231914893617 181.084158415842  C 157.231914893617 181.084158415842  158.112765957447 184.608910891089  158.112765957447 184.608910891089  C 158.112765957447 184.608910891089  156.351063829787 188.133663366337  156.351063829787 188.133663366337  C 156.351063829787 188.133663366337  160.755319148936 198.707920792079  160.755319148936 198.707920792079  C 160.755319148936 198.707920792079  162.517021276596 199.589108910891  162.517021276596 199.589108910891  C 162.517021276596 199.589108910891  162.517021276596 203.113861386139  162.517021276596 203.113861386139  C 162.517021276596 203.113861386139  158.112765957447 203.113861386139  158.112765957447 203.113861386139  C 158.112765957447 203.113861386139  153.708510638298 211.925742574257  153.708510638298 211.925742574257  C 153.708510638298 211.925742574257  153.708510638298 216.331683168317  153.708510638298 216.331683168317  C 153.708510638298 216.331683168317  155.470212765957 219.856435643564  155.470212765957 219.856435643564  C 155.470212765957 219.856435643564  159.874468085106 219.856435643564  159.874468085106 219.856435643564  C 159.874468085106 219.856435643564  161.636170212766 220.737623762376  161.636170212766 220.737623762376  C 161.636170212766 220.737623762376  161.636170212766 222.5  161.636170212766 222.5  C 161.636170212766 222.5  158.993617021277 226.905940594059  158.993617021277 226.905940594059  C 158.993617021277 226.905940594059  156.351063829787 227.787128712871  156.351063829787 227.787128712871  C 156.351063829787 227.787128712871  154.589361702128 226.024752475248  154.589361702128 226.024752475248  C 154.589361702128 226.024752475248  149.304255319149 226.024752475248  149.304255319149 226.024752475248  C 149.304255319149 226.024752475248  145.78085106383 229.549504950495  145.78085106383 229.549504950495  C 145.78085106383 229.549504950495  142.257446808511 230.430693069307  142.257446808511 230.430693069307  C 142.257446808511 230.430693069307  140.495744680851 233.074257425743  140.495744680851 233.074257425743  C 140.495744680851 233.074257425743  137.853191489362 233.955445544554  137.853191489362 233.955445544554  C 137.853191489362 233.955445544554  137.853191489362 238.361386138614  137.853191489362 238.361386138614  C 137.853191489362 238.361386138614  135.210638297872 243.648514851485  135.210638297872 243.648514851485  C 135.210638297872 243.648514851485  134.329787234043 250.69801980198  134.329787234043 250.69801980198  C 134.329787234043 250.69801980198  121.997872340426 244.529702970297  121.997872340426 244.529702970297  C 121.997872340426 244.529702970297  108.785106382979 244.529702970297  108.785106382979 244.529702970297  C 108.785106382979 244.529702970297  104.38085106383 242.767326732673  104.38085106383 242.767326732673  C 104.38085106383 242.767326732673  94.6914893617021 243.648514851485  94.6914893617021 243.648514851485  C 94.6914893617021 243.648514851485  86.763829787234 238.361386138614  86.763829787234 238.361386138614  C 86.763829787234 238.361386138614  82.3595744680851 237.480198019802  82.3595744680851 237.480198019802  C 82.3595744680851 237.480198019802  77.0744680851064 239.242574257426  77.0744680851064 239.242574257426  C 77.0744680851064 239.242574257426  63.8617021276596 248.935643564356  63.8617021276596 248.935643564356  C 63.8617021276596 248.935643564356  51.5297872340426 252.460396039604  51.5297872340426 252.460396039604  C 51.5297872340426 252.460396039604  51.5297872340426 249.816831683168  51.5297872340426 249.816831683168  C 51.5297872340426 249.816831683168  47.1255319148936 248.935643564356  47.1255319148936 248.935643564356  C 47.1255319148936 248.935643564356  42.7212765957447 251.579207920792  42.7212765957447 251.579207920792  C 42.7212765957447 251.579207920792  43.6021276595745 253.341584158416  43.6021276595745 253.341584158416  C 43.6021276595745 253.341584158416  41.8404255319149 256.866336633663  41.8404255319149 256.866336633663  C 41.8404255319149 256.866336633663  28.6276595744681 256.866336633663  28.6276595744681 256.866336633663  C 28.6276595744681 256.866336633663  17.1765957446808 264.79702970297  17.1765957446808 264.79702970297  Z " fill-rule="nonzero" fill="#0fd0e6" stroke="none" transform="matrix(1 0 0 1 953 352 )" />
    <path d="M 17.1765957446808 264.79702970297  C 17.1765957446808 264.79702970297  10.1297872340426 266.559405940594  10.1297872340426 266.559405940594  C 10.1297872340426 266.559405940594  10.1297872340426 263.915841584158  10.1297872340426 263.915841584158  C 10.1297872340426 263.915841584158  9.24893617021277 262.153465346535  9.24893617021277 262.153465346535  C 9.24893617021277 262.153465346535  7.48723404255319 262.153465346535  7.48723404255319 262.153465346535  C 7.48723404255319 262.153465346535  7.48723404255319 259.509900990099  7.48723404255319 259.509900990099  C 7.48723404255319 259.509900990099  4.84468085106383 259.509900990099  4.84468085106383 259.509900990099  C 4.84468085106383 259.509900990099  2.20212765957447 254.222772277228  2.20212765957447 254.222772277228  C 2.20212765957447 254.222772277228  1.32127659574468 255.10396039604  1.32127659574468 255.10396039604  C 1.32127659574468 255.10396039604  1.32127659574468 252.460396039604  1.32127659574468 252.460396039604  C 1.32127659574468 252.460396039604  4.84468085106383 248.054455445545  4.84468085106383 248.054455445545  C 4.84468085106383 248.054455445545  4.84468085106383 242.767326732673  4.84468085106383 242.767326732673  C 4.84468085106383 242.767326732673  1.32127659574468 240.123762376238  1.32127659574468 240.123762376238  C 1.32127659574468 240.123762376238  3.08297872340426 234.836633663366  3.08297872340426 234.836633663366  C 3.08297872340426 234.836633663366  0.440425531914894 226.905940594059  0.440425531914894 226.905940594059  C 0.440425531914894 226.905940594059  1.32127659574468 222.5  1.32127659574468 222.5  C 1.32127659574468 222.5  9.24893617021277 223.381188118812  9.24893617021277 223.381188118812  C 9.24893617021277 223.381188118812  13.6531914893617 226.905940594059  13.6531914893617 226.905940594059  C 13.6531914893617 226.905940594059  14.5340425531915 225.143564356436  14.5340425531915 225.143564356436  C 14.5340425531915 225.143564356436  14.5340425531915 212.806930693069  14.5340425531915 212.806930693069  C 14.5340425531915 212.806930693069  11.8914893617021 211.044554455446  11.8914893617021 211.044554455446  C 11.8914893617021 211.044554455446  15.4148936170213 209.282178217822  15.4148936170213 209.282178217822  C 15.4148936170213 209.282178217822  14.5340425531915 206.638613861386  14.5340425531915 206.638613861386  C 14.5340425531915 206.638613861386  16.2957446808511 207.519801980198  16.2957446808511 207.519801980198  C 16.2957446808511 207.519801980198  18.0574468085106 203.113861386139  18.0574468085106 203.113861386139  C 18.0574468085106 203.113861386139  16.2957446808511 199.589108910891  16.2957446808511 199.589108910891  C 16.2957446808511 199.589108910891  18.0574468085106 194.30198019802  18.0574468085106 194.30198019802  C 18.0574468085106 194.30198019802  21.5808510638298 189.89603960396  21.5808510638298 189.89603960396  C 21.5808510638298 189.89603960396  25.1042553191489 188.133663366337  25.1042553191489 188.133663366337  C 25.1042553191489 188.133663366337  22.4617021276596 187.252475247525  22.4617021276596 187.252475247525  C 22.4617021276596 187.252475247525  25.1042553191489 183.727722772277  25.1042553191489 183.727722772277  C 25.1042553191489 183.727722772277  22.4617021276596 183.727722772277  22.4617021276596 183.727722772277  C 22.4617021276596 183.727722772277  24.2234042553191 182.846534653465  24.2234042553191 182.846534653465  C 24.2234042553191 182.846534653465  22.4617021276596 176.678217821782  22.4617021276596 176.678217821782  C 22.4617021276596 176.678217821782  23.3425531914894 174.915841584158  23.3425531914894 174.915841584158  C 23.3425531914894 174.915841584158  25.1042553191489 174.915841584158  25.1042553191489 174.915841584158  C 25.1042553191489 174.915841584158  24.2234042553191 166.10396039604  24.2234042553191 166.10396039604  C 24.2234042553191 166.10396039604  18.0574468085106 166.10396039604  18.0574468085106 166.10396039604  C 18.0574468085106 166.10396039604  18.9382978723404 163.460396039604  18.9382978723404 163.460396039604  C 18.9382978723404 163.460396039604  22.4617021276596 163.460396039604  22.4617021276596 163.460396039604  C 22.4617021276596 163.460396039604  22.4617021276596 160.816831683168  22.4617021276596 160.816831683168  C 22.4617021276596 160.816831683168  20.7 161.69801980198  20.7 161.69801980198  C 20.7 161.69801980198  19.8191489361702 159.054455445545  19.8191489361702 159.054455445545  C 19.8191489361702 159.054455445545  19.8191489361702 152.004950495049  19.8191489361702 152.004950495049  C 19.8191489361702 152.004950495049  23.3425531914894 153.767326732673  23.3425531914894 153.767326732673  C 23.3425531914894 153.767326732673  23.3425531914894 157.292079207921  23.3425531914894 157.292079207921  C 23.3425531914894 157.292079207921  26.8659574468085 154.648514851485  26.8659574468085 154.648514851485  C 26.8659574468085 154.648514851485  19.8191489361702 149.361386138614  19.8191489361702 149.361386138614  C 19.8191489361702 149.361386138614  18.9382978723404 144.074257425743  18.9382978723404 144.074257425743  C 18.9382978723404 144.074257425743  18.0574468085106 144.955445544554  18.0574468085106 144.955445544554  C 18.0574468085106 144.955445544554  16.2957446808511 141.430693069307  16.2957446808511 141.430693069307  C 16.2957446808511 141.430693069307  19.8191489361702 137.905940594059  19.8191489361702 137.905940594059  C 19.8191489361702 137.905940594059  18.0574468085106 137.024752475248  18.0574468085106 137.024752475248  C 18.0574468085106 137.024752475248  18.9382978723404 136.143564356436  18.9382978723404 136.143564356436  C 18.9382978723404 136.143564356436  7.48723404255319 123.806930693069  7.48723404255319 123.806930693069  C 7.48723404255319 123.806930693069  9.24893617021277 114.113861386139  9.24893617021277 114.113861386139  C 9.24893617021277 114.113861386139  13.6531914893617 114.113861386139  13.6531914893617 114.113861386139  C 13.6531914893617 114.113861386139  13.6531914893617 107.945544554455  13.6531914893617 107.945544554455  C 13.6531914893617 107.945544554455  17.1765957446808 103.539603960396  17.1765957446808 103.539603960396  C 17.1765957446808 103.539603960396  17.1765957446808 100.89603960396  17.1765957446808 100.89603960396  C 17.1765957446808 100.89603960396  25.9851063829787 92.0841584158416  25.9851063829787 92.0841584158416  C 25.9851063829787 92.0841584158416  27.7468085106383 92.9653465346535  27.7468085106383 92.9653465346535  C 27.7468085106383 92.9653465346535  33.9127659574468 87.6782178217822  33.9127659574468 87.6782178217822  C 33.9127659574468 87.6782178217822  34.7936170212766 84.1534653465346  34.7936170212766 84.1534653465346  C 34.7936170212766 84.1534653465346  37.436170212766 84.1534653465346  37.436170212766 84.1534653465346  C 37.436170212766 84.1534653465346  43.6021276595745 77.9851485148515  43.6021276595745 77.9851485148515  C 43.6021276595745 77.9851485148515  52.4106382978723 77.9851485148515  52.4106382978723 77.9851485148515  C 52.4106382978723 77.9851485148515  56.8148936170213 73.5792079207921  56.8148936170213 73.5792079207921  C 56.8148936170213 73.5792079207921  57.6957446808511 66.529702970297  57.6957446808511 66.529702970297  C 57.6957446808511 66.529702970297  60.3382978723404 66.529702970297  60.3382978723404 66.529702970297  C 60.3382978723404 66.529702970297  62.9808510638298 62.1237623762376  62.9808510638298 62.1237623762376  C 62.9808510638298 62.1237623762376  64.7425531914894 62.1237623762376  64.7425531914894 62.1237623762376  C 64.7425531914894 62.1237623762376  66.5042553191489 59.480198019802  66.5042553191489 59.480198019802  C 66.5042553191489 59.480198019802  71.7893617021277 56.8366336633663  71.7893617021277 56.8366336633663  C 71.7893617021277 56.8366336633663  71.7893617021277 55.0742574257426  71.7893617021277 55.0742574257426  C 71.7893617021277 55.0742574257426  77.9553191489362 51.549504950495  77.9553191489362 51.549504950495  C 77.9553191489362 51.549504950495  75.3127659574468 48.0247524752475  75.3127659574468 48.0247524752475  C 75.3127659574468 48.0247524752475  80.5978723404255 38.3316831683168  80.5978723404255 38.3316831683168  C 80.5978723404255 38.3316831683168  85.0021276595745 38.3316831683168  85.0021276595745 38.3316831683168  C 85.0021276595745 38.3316831683168  83.2404255319149 25.1138613861386  83.2404255319149 25.1138613861386  C 83.2404255319149 25.1138613861386  88.5255319148936 22.470297029703  88.5255319148936 22.470297029703  C 88.5255319148936 22.470297029703  92.0489361702128 9.25247524752475  92.0489361702128 9.25247524752475  C 92.0489361702128 9.25247524752475  106.142553191489 3.08415841584158  106.142553191489 3.08415841584158  C 106.142553191489 3.08415841584158  111.427659574468 4.84653465346535  111.427659574468 4.84653465346535  C 111.427659574468 4.84653465346535  114.070212765957 3.08415841584158  114.070212765957 3.08415841584158  C 114.070212765957 3.08415841584158  116.712765957447 5.72772277227723  116.712765957447 5.72772277227723  C 116.712765957447 5.72772277227723  123.759574468085 3.96534653465347  123.759574468085 3.96534653465347  C 123.759574468085 3.96534653465347  129.925531914894 0.440594059405941  129.925531914894 0.440594059405941  C 129.925531914894 0.440594059405941  132.568085106383 2.2029702970297  132.568085106383 2.2029702970297  C 132.568085106383 2.2029702970297  135.210638297872 1.32178217821782  135.210638297872 1.32178217821782  C 135.210638297872 1.32178217821782  142.257446808511 5.72772277227723  142.257446808511 5.72772277227723  C 142.257446808511 5.72772277227723  143.13829787234 8.37128712871287  143.13829787234 8.37128712871287  C 143.13829787234 8.37128712871287  141.376595744681 13.6584158415842  141.376595744681 13.6584158415842  C 141.376595744681 13.6584158415842  144.01914893617 16.3019801980198  144.01914893617 16.3019801980198  C 144.01914893617 16.3019801980198  140.495744680851 19.8267326732673  140.495744680851 19.8267326732673  C 140.495744680851 19.8267326732673  139.614893617021 25.1138613861386  139.614893617021 25.1138613861386  C 139.614893617021 25.1138613861386  144.01914893617 26.8762376237624  144.01914893617 26.8762376237624  C 144.01914893617 26.8762376237624  149.304255319149 40.9752475247525  149.304255319149 40.9752475247525  C 149.304255319149 40.9752475247525  155.470212765957 42.7376237623762  155.470212765957 42.7376237623762  C 155.470212765957 42.7376237623762  157.231914893617 49.7871287128713  157.231914893617 49.7871287128713  C 157.231914893617 49.7871287128713  159.874468085106 50.6683168316832  159.874468085106 50.6683168316832  C 159.874468085106 50.6683168316832  166.040425531915 57.7178217821782  166.040425531915 57.7178217821782  C 166.040425531915 57.7178217821782  173.087234042553 59.480198019802  173.087234042553 59.480198019802  C 173.087234042553 59.480198019802  173.968085106383 63.0049504950495  173.968085106383 63.0049504950495  C 173.968085106383 63.0049504950495  178.372340425532 62.1237623762376  178.372340425532 62.1237623762376  C 178.372340425532 62.1237623762376  181.895744680851 63.8861386138614  181.895744680851 63.8861386138614  C 181.895744680851 63.8861386138614  178.372340425532 69.1732673267327  178.372340425532 69.1732673267327  C 178.372340425532 69.1732673267327  175.729787234043 67.4108910891089  175.729787234043 67.4108910891089  C 175.729787234043 67.4108910891089  175.729787234043 70.0544554455446  175.729787234043 70.0544554455446  C 175.729787234043 70.0544554455446  178.372340425532 71.8168316831683  178.372340425532 71.8168316831683  C 178.372340425532 71.8168316831683  194.227659574468 70.0544554455446  194.227659574468 70.0544554455446  C 194.227659574468 70.0544554455446  197.751063829787 73.5792079207921  197.751063829787 73.5792079207921  C 197.751063829787 73.5792079207921  192.465957446808 77.9851485148515  192.465957446808 77.9851485148515  C 192.465957446808 77.9851485148515  184.53829787234 77.9851485148515  184.53829787234 77.9851485148515  C 184.53829787234 77.9851485148515  184.53829787234 88.5594059405941  184.53829787234 88.5594059405941  C 184.53829787234 88.5594059405941  188.942553191489 93.8465346534653  188.942553191489 93.8465346534653  C 188.942553191489 93.8465346534653  200.393617021277 93.8465346534653  200.393617021277 93.8465346534653  C 200.393617021277 93.8465346534653  200.393617021277 96.490099009901  200.393617021277 96.490099009901  C 200.393617021277 96.490099009901  198.631914893617 98.2524752475248  198.631914893617 98.2524752475248  C 198.631914893617 98.2524752475248  198.631914893617 105.30198019802  198.631914893617 105.30198019802  C 198.631914893617 105.30198019802  206.559574468085 112.351485148515  206.559574468085 112.351485148515  C 206.559574468085 112.351485148515  203.036170212766 116.757425742574  203.036170212766 116.757425742574  C 203.036170212766 116.757425742574  197.751063829787 119.40099009901  197.751063829787 119.40099009901  C 197.751063829787 119.40099009901  197.751063829787 122.044554455446  197.751063829787 122.044554455446  C 197.751063829787 122.044554455446  201.274468085106 127.331683168317  201.274468085106 127.331683168317  C 201.274468085106 127.331683168317  202.155319148936 131.737623762376  202.155319148936 131.737623762376  C 202.155319148936 131.737623762376  206.559574468085 137.024752475248  206.559574468085 137.024752475248  C 206.559574468085 137.024752475248  203.036170212766 143.193069306931  203.036170212766 143.193069306931  C 203.036170212766 143.193069306931  198.631914893617 143.193069306931  198.631914893617 143.193069306931  C 198.631914893617 143.193069306931  203.917021276596 154.648514851485  203.917021276596 154.648514851485  C 203.917021276596 154.648514851485  204.797872340426 160.816831683168  204.797872340426 160.816831683168  C 204.797872340426 160.816831683168  195.989361702128 159.054455445545  195.989361702128 159.054455445545  C 195.989361702128 159.054455445545  195.108510638298 156.410891089109  195.108510638298 156.410891089109  C 195.108510638298 156.410891089109  188.942553191489 153.767326732673  188.942553191489 153.767326732673  C 188.942553191489 153.767326732673  187.18085106383 152.004950495049  187.18085106383 152.004950495049  C 187.18085106383 152.004950495049  187.18085106383 143.193069306931  187.18085106383 143.193069306931  C 187.18085106383 143.193069306931  178.372340425532 138.787128712871  178.372340425532 138.787128712871  C 178.372340425532 138.787128712871  173.087234042553 139.668316831683  173.087234042553 139.668316831683  C 173.087234042553 139.668316831683  165.159574468085 137.905940594059  165.159574468085 137.905940594059  C 165.159574468085 137.905940594059  163.397872340426 136.143564356436  163.397872340426 136.143564356436  C 163.397872340426 136.143564356436  158.993617021277 137.024752475248  158.993617021277 137.024752475248  C 158.993617021277 137.024752475248  155.470212765957 143.193069306931  155.470212765957 143.193069306931  C 155.470212765957 143.193069306931  158.112765957447 149.361386138614  158.112765957447 149.361386138614  C 158.112765957447 149.361386138614  159.874468085106 149.361386138614  159.874468085106 149.361386138614  C 159.874468085106 149.361386138614  158.112765957447 152.004950495049  158.112765957447 152.004950495049  C 158.112765957447 152.004950495049  155.470212765957 164.341584158416  155.470212765957 164.341584158416  C 155.470212765957 164.341584158416  156.351063829787 167.866336633663  156.351063829787 167.866336633663  C 156.351063829787 167.866336633663  150.185106382979 176.678217821782  150.185106382979 176.678217821782  C 150.185106382979 176.678217821782  157.231914893617 181.084158415842  157.231914893617 181.084158415842  C 157.231914893617 181.084158415842  158.112765957447 184.608910891089  158.112765957447 184.608910891089  C 158.112765957447 184.608910891089  156.351063829787 188.133663366337  156.351063829787 188.133663366337  C 156.351063829787 188.133663366337  160.755319148936 198.707920792079  160.755319148936 198.707920792079  C 160.755319148936 198.707920792079  162.517021276596 199.589108910891  162.517021276596 199.589108910891  C 162.517021276596 199.589108910891  162.517021276596 203.113861386139  162.517021276596 203.113861386139  C 162.517021276596 203.113861386139  158.112765957447 203.113861386139  158.112765957447 203.113861386139  C 158.112765957447 203.113861386139  153.708510638298 211.925742574257  153.708510638298 211.925742574257  C 153.708510638298 211.925742574257  153.708510638298 216.331683168317  153.708510638298 216.331683168317  C 153.708510638298 216.331683168317  155.470212765957 219.856435643564  155.470212765957 219.856435643564  C 155.470212765957 219.856435643564  159.874468085106 219.856435643564  159.874468085106 219.856435643564  C 159.874468085106 219.856435643564  161.636170212766 220.737623762376  161.636170212766 220.737623762376  C 161.636170212766 220.737623762376  161.636170212766 222.5  161.636170212766 222.5  C 161.636170212766 222.5  158.993617021277 226.905940594059  158.993617021277 226.905940594059  C 158.993617021277 226.905940594059  156.351063829787 227.787128712871  156.351063829787 227.787128712871  C 156.351063829787 227.787128712871  154.589361702128 226.024752475248  154.589361702128 226.024752475248  C 154.589361702128 226.024752475248  149.304255319149 226.024752475248  149.304255319149 226.024752475248  C 149.304255319149 226.024752475248  145.78085106383 229.549504950495  145.78085106383 229.549504950495  C 145.78085106383 229.549504950495  142.257446808511 230.430693069307  142.257446808511 230.430693069307  C 142.257446808511 230.430693069307  140.495744680851 233.074257425743  140.495744680851 233.074257425743  C 140.495744680851 233.074257425743  137.853191489362 233.955445544554  137.853191489362 233.955445544554  C 137.853191489362 233.955445544554  137.853191489362 238.361386138614  137.853191489362 238.361386138614  C 137.853191489362 238.361386138614  135.210638297872 243.648514851485  135.210638297872 243.648514851485  C 135.210638297872 243.648514851485  134.329787234043 250.69801980198  134.329787234043 250.69801980198  C 134.329787234043 250.69801980198  121.997872340426 244.529702970297  121.997872340426 244.529702970297  C 121.997872340426 244.529702970297  108.785106382979 244.529702970297  108.785106382979 244.529702970297  C 108.785106382979 244.529702970297  104.38085106383 242.767326732673  104.38085106383 242.767326732673  C 104.38085106383 242.767326732673  94.6914893617021 243.648514851485  94.6914893617021 243.648514851485  C 94.6914893617021 243.648514851485  86.763829787234 238.361386138614  86.763829787234 238.361386138614  C 86.763829787234 238.361386138614  82.3595744680851 237.480198019802  82.3595744680851 237.480198019802  C 82.3595744680851 237.480198019802  77.0744680851064 239.242574257426  77.0744680851064 239.242574257426  C 77.0744680851064 239.242574257426  63.8617021276596 248.935643564356  63.8617021276596 248.935643564356  C 63.8617021276596 248.935643564356  51.5297872340426 252.460396039604  51.5297872340426 252.460396039604  C 51.5297872340426 252.460396039604  51.5297872340426 249.816831683168  51.5297872340426 249.816831683168  C 51.5297872340426 249.816831683168  47.1255319148936 248.935643564356  47.1255319148936 248.935643564356  C 47.1255319148936 248.935643564356  42.7212765957447 251.579207920792  42.7212765957447 251.579207920792  C 42.7212765957447 251.579207920792  43.6021276595745 253.341584158416  43.6021276595745 253.341584158416  C 43.6021276595745 253.341584158416  41.8404255319149 256.866336633663  41.8404255319149 256.866336633663  C 41.8404255319149 256.866336633663  28.6276595744681 256.866336633663  28.6276595744681 256.866336633663  C 28.6276595744681 256.866336633663  17.1765957446808 264.79702970297  17.1765957446808 264.79702970297  Z " stroke-width="2" stroke-dasharray="1,1" stroke="#999999" fill="none" transform="matrix(1 0 0 1 953 352 )" mask="url(#clip2100)" />
  </g>
</svg>